<svg width="378" height="168" viewBox="0 0 378 168" fill="none" xmlns="http://www.w3.org/2000/svg">
<path fill-rule="evenodd" clip-rule="evenodd" d="M69.2615 -90.0752C89.2492 -124.695 121.851 -147.315 158.045 -155.731C175.398 -159.527 193.353 -160.279 211.219 -157.377C222.611 -155.516 234.178 -152.207 245.122 -147.236C247.795 -146.03 250.721 -144.678 253.248 -143.219C254.764 -142.344 256.28 -141.468 258.049 -140.447C263.356 -137.383 268.517 -134.067 273.133 -130.391C290.014 -117.612 303.152 -101.267 312.264 -83.2023C313.197 -81.3162 314.023 -79.8286 314.702 -78.0884C316.208 -74.8605 317.461 -71.7786 318.821 -68.298C325.222 -50.7885 328.142 -31.9191 327.154 -13.2844C326.45 -1.56108 324.298 10.3367 320.59 22.0104C318.537 27.9006 316.232 33.645 313.673 39.2434C312.321 42.169 310.57 45.2014 308.82 48.2338C295.251 71.7348 275.59 90.033 253.063 101.623C243.486 106.539 233.443 110.511 222.972 112.89C189.384 121.462 152.377 117.28 120.032 98.6057C117.505 97.1467 114.725 95.5419 112.344 93.8302C102.421 87.0904 93.4805 79.233 85.8814 70.8025C83.4326 68.0409 81.2365 65.4253 79.1863 62.557C77.6024 60.6317 76.1644 58.4537 74.7264 56.2758C66.312 44.0052 60.0755 30.2966 56.2306 15.9472C54.3081 8.77255 52.7843 1.49105 51.9117 -5.75136C49.3722 -28.7812 52.228 -52.4022 61.8103 -74.8351C63.9311 -79.6755 66.3436 -85.0212 69.2615 -90.0752Z" fill="url(#paint0_radial)"/>
<path fill-rule="evenodd" clip-rule="evenodd" d="M74.3285 56.3833C74.8339 56.6751 75.0866 56.821 75.7379 56.86C77.1473 57.3368 78.2649 58.319 79.3825 59.3012C80.2474 60.1375 80.4609 60.9346 81.7244 61.6641C83.0947 62.7922 84.0664 64.0271 85.4367 65.1551C86.807 66.2832 87.7787 67.5181 89.0031 68.8989C89.9749 70.1337 90.6261 70.1728 91.7828 70.5037C92.9395 70.8346 93.4058 71.7777 94.2707 72.614C94.9897 73.7029 96.2532 74.4324 97.1181 75.2687C99.8587 77.5248 102.307 80.2864 104.902 82.7952C106.379 84.3219 108.148 85.3431 110.17 86.5103C111.686 87.3857 113.241 87.6098 114.757 88.4852C115.768 89.0687 116.38 89.7591 117.391 90.3427C118.256 91.179 119.413 91.5099 120.424 92.0934C121.794 93.2215 122.406 93.9119 124.214 94.2819C125.623 94.7586 126.382 95.1963 127.791 95.6731C129.054 96.4026 130.862 96.7726 132.272 97.2494C134.838 98.057 137.657 99.0106 139.931 100.324C141.447 101.199 143.177 102.872 144.732 103.096C145.636 103.281 146.725 102.562 147.775 102.494C149.768 101.96 151.615 101.679 153.355 100.999C155.096 100.319 156.982 99.3862 158.003 97.6173C158.878 96.1011 159.142 93.8945 159.113 92.1933C159.23 90.2394 159.707 88.8301 161.807 88.6947C164.305 88.4524 167.163 88.7547 169.622 89.1638C171.43 89.5337 172.84 90.0105 173.267 91.6049C173.626 92.1494 173.441 93.0534 173.655 93.8506C174.015 94.3951 174.919 94.58 175.57 94.6191C177.378 94.9891 179.186 95.3591 180.848 95.9818C182.005 96.3126 183.055 96.2449 184.065 96.8285C185.222 97.1594 185.542 98.3552 186.952 98.832C188.614 99.4546 190.82 99.7178 192.337 100.593C193.6 101.323 194.825 102.703 195.544 103.792C195.903 104.337 195.864 104.988 196.768 105.173C197.273 105.465 198.469 105.145 199.014 104.785C199.811 104.571 200.248 103.813 201.046 103.6C201.989 103.133 202.533 102.774 203.476 102.308C204.964 101.482 206.451 100.656 207.939 99.8302C208.882 99.3639 210.117 98.3922 211.313 98.0718C211.857 97.7123 212.761 97.8973 213.413 97.9364C215.114 97.9078 216.961 97.6265 218.662 97.5978C221.958 97.142 225.399 96.4335 228.695 95.9776C231.193 95.7354 234.158 96.4363 236.763 96.5927C238.318 96.8167 239.873 97.0408 241.429 97.2649C242.08 97.304 242.838 97.7417 243.382 97.3822C244.18 97.1686 244.724 96.8091 245.415 96.1969C247.155 95.517 249.294 94.7302 250.927 93.6517C252.016 92.9327 252.706 92.3205 253.795 91.6015C255.03 90.6298 256.518 89.804 257.646 88.4337C260.262 86.2376 262.012 83.2052 264.881 81.155C266.261 79.9306 268.148 78.998 269.781 77.9195C272.504 76.122 274.507 73.2355 276.365 70.6018C277.493 69.2315 278.407 67.064 279.03 65.4019C279.798 63.4871 280.82 61.7182 281.841 59.9493C282.862 58.1804 285.293 56.8883 287.033 56.2084C288.773 55.5285 290.834 56.0444 292.827 55.5104C294.421 55.0831 296.268 54.8018 297.649 53.5774C298.194 53.2179 298.379 52.3139 298.816 51.5558C299.944 50.1855 301.179 49.2138 302.055 47.6976C303.329 46.0747 304.35 44.3058 305.517 42.2842C306.101 41.2734 306.538 40.5153 307.122 39.5045C307.706 38.4937 307.891 37.5897 308.076 36.6857C308.367 36.1803 308.805 35.4222 309.097 34.9168C309.535 34.1587 309.467 33.1088 309.759 32.6035C310.274 30.5428 310.897 28.8807 311.666 26.9659C312.288 25.3038 312.406 23.3499 313.028 21.6878C313.437 19.2286 314.352 17.0611 315.16 14.495C315.782 12.8329 316.803 11.064 317.426 9.40194C317.903 7.99255 318.38 6.58317 319.109 5.31968C320.276 3.29808 321.803 1.821 322.97 -0.200592C324.867 -3.48568 325.5 -7.50024 326.639 -11.223C326.969 -12.3797 327.154 -13.2837 327.485 -14.4404C326.487 6.54691 320.385 27.62 309.151 47.0778C295.437 70.8315 275.921 88.877 253.394 100.467C243.817 105.383 233.774 109.355 223.304 111.734C189.715 120.306 152.709 116.124 120.364 97.4497C117.837 95.9907 115.057 94.3859 112.676 92.6742C96.8626 83.8814 84.1809 70.8318 74.3285 56.3833Z" fill="#ECEFFB"/>
<g opacity="0.5">
<g opacity="0.4">
<path fill-rule="evenodd" clip-rule="evenodd" d="M61.6641 -74.5822C61.5859 -73.2796 61.6537 -72.2297 61.9741 -71.0339C62.2163 -68.5356 63.5475 -66.7562 65.2773 -65.0836C66.5017 -63.7029 67.5802 -62.0694 69.5731 -62.6034C71.5661 -63.1374 73.5982 -64.3227 75.0858 -65.1486C76.1747 -65.8676 78.1 -67.4514 79.5094 -66.9747C80.9188 -66.4979 81.4137 -63.8536 81.8409 -62.2592C82.3749 -60.2663 81.9658 -57.807 82.6457 -56.0668C83.2188 -54.7251 84.2974 -53.0916 85.1623 -52.2553C86.853 -49.9314 89.2341 -48.2198 91.6152 -46.5081C93.3841 -45.4869 94.0639 -43.7466 95.1424 -42.1131C96.221 -40.4797 98.0967 -39.0598 99.4669 -37.9317C100.837 -36.8037 102.208 -35.6756 103.432 -34.2948C104.802 -33.1667 105.92 -32.1846 106.454 -30.1916C106.842 -27.946 106.686 -25.3408 107.472 -23.2019C108.793 -19.0701 112.847 -19.0882 116.384 -17.0457C119.164 -15.4408 120.417 -12.3588 122.759 -9.9959C125.607 -7.34116 128.094 -5.23092 128.511 -1.28407C128.821 2.26418 126.565 5.00475 125.971 8.36802C124.783 15.0946 131.488 20.9876 136.503 24.5568C140.653 27.2897 145.319 27.962 149.362 30.2963C152.9 32.3388 155.495 34.8477 159.52 33.1284C163.943 31.3022 168.513 29.2234 172.577 26.8528C175.698 24.9485 179.83 23.6278 182.737 20.9263C184.264 19.4492 185.285 17.6803 186.559 16.0573C188.232 14.3275 191.353 12.4232 193.638 11.3838C195.922 10.3444 199.179 10.5398 201.784 10.6962C204.137 10.7067 206.129 10.1727 208.521 9.53184C211.311 8.78422 214.101 8.0366 216.532 6.74449C217.621 6.02548 218.71 5.30649 220.158 5.13198C221.354 4.81157 222.511 5.14246 223.707 4.82205C224.757 4.75434 225.7 4.28802 226.643 3.82172C228.237 3.3945 230.444 3.65769 232.106 4.28037C234.633 5.73932 235.993 9.21986 239.619 7.60734C241.758 6.82063 244.879 4.91632 245.793 2.74883C246.562 0.834049 245.921 -1.55753 245.786 -3.6573C245.33 -6.95286 243.874 -13.1844 246.529 -16.0318C247.511 -17.1494 249.212 -17.1781 249.582 -18.9861C250.059 -20.3954 250.535 -21.8048 251.411 -23.321C251.994 -24.3318 253.521 -25.8089 253.453 -26.8588C253.279 -28.3073 251.588 -30.6311 250.471 -31.6133C248.527 -34.0831 247.274 -37.165 245.477 -39.8875C244.291 -41.9195 244.01 -43.7666 242.533 -45.2932C241.056 -46.8199 239.394 -47.4426 237.771 -48.7166C236.906 -49.5528 235.642 -50.2823 234.777 -51.1186C234.165 -51.809 233.699 -52.7521 233.087 -53.4425C230.492 -55.9513 226.517 -57.2357 223.231 -59.1324C221.21 -60.2996 219.48 -61.9721 217.128 -61.9826C214.377 -61.8863 212.996 -60.6619 211.683 -58.3876C210.516 -56.366 210.505 -54.0135 210.096 -51.5542C209.765 -50.3976 209.288 -48.9882 209.463 -47.5397C209.531 -46.4898 210.289 -46.0521 210.755 -45.109C211.328 -43.7673 211.143 -42.8634 212.513 -41.7353C213.378 -40.899 214.681 -40.8208 215.983 -40.7426C217.831 -41.024 221.272 -41.7325 222.041 -43.6473C222.226 -44.5512 222.158 -45.6011 221.691 -46.5442C221.254 -45.7861 220.563 -45.1739 219.727 -44.309C217.492 -46.2734 214.139 -49.2199 213.537 -52.2628C215.064 -53.7399 218.068 -53.6903 219.584 -52.8149C222.616 -51.0642 225.941 -49.8188 226.902 -46.2315C227.902 -43.2954 226.443 -40.7684 226.394 -37.7647C226.17 -36.2094 226.091 -34.9068 226.519 -33.3124C226.839 -32.1167 226.907 -31.0668 226.829 -29.7642C226.964 -27.6644 226.662 -24.8065 224.27 -24.1657C221.879 -23.5249 218.515 -24.119 216.163 -24.1294C212.508 -24.2181 208.6 -24.4527 204.799 -24.2886C199.443 -24.3487 194.407 -23.2129 189.46 -25.7322C185.523 -27.668 181.413 -31.0522 179.839 -35.3299C178.839 -38.266 179.501 -40.5793 179.803 -43.4372C179.959 -46.0424 179.318 -48.434 178.532 -50.5728C177.133 -53.4021 175.734 -56.2313 174.588 -58.9147C172.975 -62.5411 171.139 -64.6123 170.868 -68.8118C170.753 -75.6165 172.447 -82.0513 174.286 -88.7387C174.88 -92.102 175.98 -95.1735 177.225 -98.4976C178.033 -101.064 178.043 -103.416 178.345 -106.274C178.754 -108.733 178.872 -110.687 178.882 -113.04C178.815 -114.09 178.747 -115.139 179.078 -116.296C180.362 -120.272 185.359 -120.756 188.733 -122.514C192.505 -124.38 196.238 -125.594 199.291 -128.548C201.654 -130.89 201.373 -132.737 202.327 -135.556C203.796 -140.435 207.277 -141.795 211.807 -143.222C214.199 -143.863 216.444 -144.251 219.049 -144.095C225.669 -143.306 232.805 -144.577 239.328 -146.538C240.563 -147.51 243.859 -147.966 245.307 -148.14C234.363 -153.111 222.796 -156.42 211.404 -158.28C193.537 -161.183 175.583 -160.43 158.229 -156.635C122.181 -148.471 89.4338 -125.599 69.4461 -90.979C66.3432 -85.021 63.9307 -79.6753 61.6641 -74.5822ZM196.217 1.08038C197.598 -0.144022 201.826 1.28632 203.634 1.6563C204.285 1.6954 205.189 1.88038 205.403 2.67757C206.083 4.41784 199.744 5.47539 199.89 5.22269L200.862 6.45757C199.598 5.7281 198.47 7.09839 197.605 6.26211C197.353 6.11621 196.634 5.02722 196.527 4.62863C195.662 3.79235 194.982 2.05208 196.217 1.08038ZM139.737 5.53392C143.811 0.810838 152.21 0.26914 157.887 1.52497C160.852 2.22583 163.418 3.03348 165.945 4.49244C168.219 5.8055 171.038 6.75906 173.02 8.57752C176.48 11.9226 175.886 15.2859 173.601 16.3253C173.192 18.7846 173.182 21.1371 171.256 22.721C169.623 23.7995 167.989 24.878 166.249 25.5579C163.021 27.0636 160.494 25.6047 157.131 25.0106C150.55 23.5698 143.318 22.0899 139.51 15.8478C138.004 12.6199 137.335 8.52721 139.737 5.53392ZM150.942 -137.594C157.156 -143.104 164.864 -143.033 172.495 -141.66C176.51 -141.027 180.563 -141.045 184.578 -140.412C187.436 -140.11 189.244 -139.74 190.827 -137.815C192.878 -134.946 192.177 -131.982 189.309 -129.931C185.789 -127.92 181.045 -127.29 179.615 -123.062C178.661 -120.243 177.746 -118.075 175.782 -115.84C173.088 -112.342 170.9 -108.551 168.711 -104.761C174.01 -108.103 171.929 -103.914 170.071 -101.28C168.758 -99.0058 167.416 -98.4327 164.665 -98.3364C155.868 -97.6879 149.61 -106.692 146.093 -113.439C143.869 -117.756 143.53 -123.005 144.202 -127.671C145.234 -131.793 147.782 -135.038 150.942 -137.594ZM111.821 -65.1659C113.736 -64.3974 115.057 -60.2655 115.737 -58.5252C116.417 -56.785 116.552 -54.6852 116.833 -52.8381C117.261 -51.2438 117.795 -49.2508 117.823 -47.5496C117.706 -45.5957 117.19 -43.5351 116.927 -41.3285C116.479 -38.2179 116.07 -35.7586 116.127 -32.3563C117.508 -33.5807 116.632 -32.0645 115.33 -32.1427C114.027 -32.2208 112.803 -33.6016 111.792 -34.1852C109.304 -36.2954 108.517 -38.4343 107.517 -41.3704C106.809 -44.8118 105.555 -47.8938 105.1 -51.1894C104.605 -53.8336 103.362 -59.268 104.675 -61.5423C105.736 -63.9625 109.8 -66.3331 111.821 -65.1659Z" fill="url(#paint1_linear)"/>
<path opacity="0.4" fill-rule="evenodd" clip-rule="evenodd" d="M51.7655 -5.49838C53.3599 -5.92559 55.1679 -5.55561 57.015 -5.83693C58.4634 -6.01145 60.2037 -6.69133 61.5063 -6.61315C63.3143 -6.24317 65.0441 -4.57063 66.0158 -3.33575C68.5714 -0.175621 69.8635 2.25504 74.1308 3.03408C75.4334 3.11227 76.2983 3.94857 77.455 4.27946C78.6117 4.61034 78.9034 4.10493 80.1669 4.83441C82.1885 6.00157 83.043 9.19034 83.577 11.1833C84.0719 13.8276 84.83 14.2652 87.1042 15.5783C89.3785 16.8913 92.1973 17.8449 94.3076 15.357C96.5637 12.6164 94.2322 7.90101 93.086 5.21766C91.3666 1.19262 94.9435 2.58388 97.5201 1.03907C99.698 -0.398936 98.4059 -2.8296 100.943 -3.72311C106.271 -5.36425 115.564 -3.36846 118.546 1.38605C120.558 4.90568 120.177 9.06613 120.992 12.9062C121.381 15.1518 122.566 17.1839 122.954 19.4296C123.808 22.6183 123.72 26.2734 123.126 29.6367C123.72 26.2734 123.154 31.3378 121.763 34.9147C121.14 36.5768 119.799 37.1499 118.817 38.2675C117.688 39.6378 118.155 40.5809 118.329 42.0293C118.28 45.0331 119.027 47.8233 115.945 49.0763C114.059 50.0089 112.066 50.5429 110.073 51.0769C108.08 51.6109 105.543 52.5045 103.336 52.2413C102.5 53.1062 103.888 58.2879 104.209 59.4837C104.811 62.5265 104.868 65.9289 105.868 68.865C106.189 70.0607 107.267 71.6942 107.335 72.7441C107.178 75.3493 102.288 76.2323 100.441 76.5136C96.8931 76.8236 94.4729 75.7632 91.6932 74.1583C89.9243 73.1371 87.9027 71.9699 86.0271 70.5501C83.5783 67.7885 81.3822 65.1729 79.332 62.3045C77.7481 60.3793 76.31 58.2013 74.872 56.0233C66.4576 43.7528 60.2211 30.0442 56.3762 15.6948C53.7634 9.13233 52.4922 1.99672 51.7655 -5.49838Z" fill="url(#paint2_linear)"/>
</g>
<path opacity="0.1" fill-rule="evenodd" clip-rule="evenodd" d="M294.207 -67.6835C297.456 -73.8942 304.058 -77.1583 310.901 -77.9241C312.35 -78.0986 313.652 -78.0204 314.955 -77.9423C316.461 -74.7144 317.714 -71.6325 319.074 -68.1519C325.474 -50.6424 328.394 -31.773 327.406 -13.1382C326.703 -1.41498 324.55 10.4828 320.843 22.1565C318.79 28.0467 316.484 33.7911 313.926 39.3896C313.129 39.6032 312.73 39.71 311.933 39.9236C314.267 35.8804 314.502 31.9726 315.679 27.5986C316.526 24.3812 317.12 21.0179 317.967 17.8006C318.775 15.2345 319.436 12.9211 319.087 10.0242C318.806 8.17708 318.34 7.23399 317.115 5.85322C316.396 4.76424 315.823 3.42257 315.104 2.3336C313.268 0.262439 310.673 -2.24641 308 -3.45267C306.737 -4.18215 305.979 -4.61983 305.007 -5.85471C304.541 -6.79779 304.074 -7.74088 303.608 -8.68396C302.569 -10.9687 301.782 -13.1076 301.141 -15.4991C300.326 -19.3392 302.475 -22.4784 302.311 -26.2793C302.108 -29.429 300.524 -31.3542 297.744 -32.9591C292.438 -36.0229 291.536 -44.9665 290.945 -50.3618C290.898 -56.1166 291.834 -62.9891 294.207 -67.6835Z" fill="url(#paint3_linear)"/>
</g>
<path d="M267.123 52.5705H264.912C264.192 52.5712 263.479 52.4338 262.812 52.166C261.492 51.576 260.435 50.5203 259.844 49.2005C259.576 48.5337 259.439 47.8216 259.44 47.1029C259.447 46.6545 259.629 46.2266 259.946 45.9095C260.263 45.5924 260.691 45.411 261.139 45.4037C261.364 45.3993 261.587 45.4424 261.793 45.5302C262 45.6181 262.186 45.7487 262.339 45.9135C262.498 46.0676 262.624 46.2525 262.71 46.4569C262.796 46.6614 262.84 46.8811 262.838 47.1029C262.839 47.3796 262.89 47.654 262.99 47.912C263.106 48.1533 263.258 48.3761 263.439 48.5735C263.636 48.7549 263.86 48.9056 264.102 49.0205C264.36 49.1221 264.635 49.1742 264.912 49.1743H267.123C267.393 49.1763 267.661 49.124 267.911 49.0205C268.158 48.9131 268.383 48.7616 268.575 48.5735C268.765 48.3854 268.917 48.1621 269.022 47.9161C269.136 47.6615 269.194 47.3858 269.194 47.1069V35.8116C269.19 35.369 269.36 34.9425 269.667 34.6242C269.825 34.4619 270.013 34.3334 270.222 34.2464C270.431 34.1595 270.655 34.1159 270.881 34.1185C271.105 34.1139 271.328 34.1567 271.535 34.2442C271.742 34.3317 271.928 34.4619 272.08 34.6262C272.24 34.7804 272.367 34.9656 272.454 35.1704C272.54 35.3752 272.584 35.5954 272.582 35.8176V47.3092C272.586 48.031 272.442 48.746 272.161 49.4109C271.896 50.0704 271.504 50.4587 270.994 50.9685C270.484 51.4835 269.88 51.8955 269.214 52.1822C268.548 52.4437 267.838 52.5755 267.123 52.5705ZM276.203 52.5705C275.778 52.5763 275.369 52.415 275.062 52.1215L275.046 52.1033C274.748 51.79 274.586 51.3721 274.595 50.9402V43.7207C274.593 43.162 274.695 42.6078 274.896 42.0863C275.115 41.5667 275.433 41.0947 275.833 40.6966C276.226 40.2914 276.698 39.9704 277.22 39.7534C277.742 39.5364 278.302 39.4279 278.867 39.4344H281.375C281.588 39.4323 281.8 39.4735 281.997 39.5555C282.194 39.6376 282.372 39.7588 282.52 39.9118C282.677 40.0545 282.801 40.229 282.886 40.4236C282.97 40.6183 283.011 40.8285 283.008 41.0405C283.011 41.2583 282.97 41.4745 282.886 41.6759C282.803 41.8772 282.68 42.0596 282.524 42.2117C282.218 42.506 281.808 42.668 281.383 42.6628H278.869C278.731 42.659 278.594 42.6852 278.468 42.7397C278.342 42.7942 278.228 42.8757 278.137 42.9784C278.038 43.0741 277.961 43.1891 277.909 43.3161C277.857 43.4431 277.832 43.5795 277.835 43.7167V50.9361C277.839 51.1538 277.798 51.37 277.716 51.5714C277.633 51.7728 277.51 51.9552 277.354 52.1073C277.204 52.259 277.024 52.3783 276.826 52.458C276.628 52.5377 276.416 52.576 276.203 52.5705Z" fill="#FF8D1A"/>
<path d="M170.26 52.5685H169.435C169.094 52.5522 168.755 52.5021 168.423 52.4189C168.098 52.3377 167.78 52.2316 167.471 52.1013H167.457C166.896 51.8441 166.381 51.4978 165.931 51.0757C165.754 51.2448 165.563 51.3997 165.361 51.5389C165.068 51.7485 164.759 51.9352 164.436 52.0972H164.422C163.714 52.4139 162.947 52.5746 162.171 52.5685H161.596C160.884 52.5679 160.179 52.4305 159.519 52.164C158.2 51.5731 157.144 50.5176 156.554 49.1985C156.287 48.5307 156.149 47.8181 156.149 47.0989V35.8095C156.155 35.3609 156.336 34.9323 156.654 34.615C156.971 34.2977 157.399 34.1167 157.848 34.1104C158.072 34.1059 158.295 34.1491 158.502 34.2369C158.708 34.3248 158.893 34.4554 159.046 34.6201C159.205 34.7743 159.332 34.9591 159.418 35.1636C159.503 35.368 159.547 35.5878 159.545 35.8095V47.0989C159.544 47.3757 159.596 47.6503 159.697 47.908C159.911 48.4073 160.308 48.805 160.808 49.0185C161.065 49.1196 161.34 49.1711 161.617 49.1702H162.169C162.439 49.1726 162.706 49.121 162.956 49.0185C163.202 48.917 163.426 48.7667 163.612 48.5765C163.799 48.3863 163.945 48.1603 164.042 47.912C164.156 47.6575 164.214 47.3817 164.214 47.1029V35.8095C164.213 35.5868 164.256 35.3662 164.343 35.161C164.43 34.9558 164.557 34.7704 164.718 34.6161C164.875 34.4538 165.064 34.3253 165.272 34.2383C165.481 34.1514 165.705 34.1079 165.931 34.1104C166.38 34.1177 166.808 34.299 167.125 34.6161C167.442 34.9332 167.623 35.3612 167.631 35.8095V47.0989C167.63 47.3757 167.681 47.6502 167.782 47.908C167.898 48.15 168.048 48.3736 168.229 48.5715C168.428 48.7529 168.652 48.9042 168.895 49.0205C169.144 49.1215 169.411 49.1724 169.68 49.1702H170.254C170.527 49.1783 170.799 49.1315 171.053 49.0327C171.291 48.9201 171.509 48.7683 171.696 48.5836C171.886 48.3949 172.037 48.1709 172.141 47.9242C172.257 47.6701 172.316 47.3941 172.315 47.115V35.8095C172.322 35.3612 172.502 34.9329 172.819 34.6157C173.136 34.2984 173.564 34.1172 174.012 34.1104C174.237 34.1059 174.46 34.149 174.667 34.2369C174.874 34.3247 175.059 34.4553 175.212 34.6201C175.371 34.7743 175.498 34.9591 175.584 35.1636C175.67 35.368 175.713 35.5878 175.712 35.8095V47.0989C175.715 47.8213 175.572 48.5369 175.291 49.2026C175.026 49.8615 174.629 50.4596 174.126 50.9604C173.617 51.476 173.013 51.8882 172.348 52.1741C171.684 52.441 170.975 52.575 170.26 52.5685ZM187.881 52.5685C187.664 52.5696 187.448 52.5276 187.247 52.4449C187.046 52.3623 186.864 52.2406 186.71 52.0869C186.556 51.9332 186.435 51.7506 186.352 51.5496C186.269 51.3486 186.227 51.1332 186.228 50.9159V43.8118C186.231 43.6659 186.204 43.521 186.149 43.386C186.094 43.251 186.011 43.1288 185.907 43.0269C185.808 42.9239 185.69 42.8421 185.559 42.7868C185.428 42.7315 185.286 42.7037 185.144 42.7053H182.201C182.055 42.7048 181.911 42.733 181.777 42.7884C181.642 42.8439 181.52 42.9253 181.417 43.0282C181.314 43.1311 181.233 43.2533 181.177 43.3877C181.122 43.5222 181.094 43.6663 181.094 43.8118V50.9159C181.098 51.1326 181.058 51.3479 180.975 51.5485C180.893 51.7491 180.771 51.931 180.617 52.0831C180.47 52.2409 180.291 52.3658 180.093 52.4495C179.894 52.5331 179.68 52.5737 179.464 52.5685C179.247 52.5693 179.032 52.5271 178.831 52.4443C178.63 52.3615 178.448 52.2398 178.294 52.0862C178.141 51.9325 178.019 51.75 177.937 51.5491C177.854 51.3483 177.812 51.1331 177.813 50.9159V35.763C177.812 35.5459 177.854 35.3306 177.937 35.1298C178.019 34.9289 178.141 34.7464 178.294 34.5928C178.448 34.4391 178.63 34.3174 178.831 34.2346C179.032 34.1518 179.247 34.1096 179.464 34.1104C179.68 34.1051 179.894 34.1458 180.093 34.2298C180.292 34.3139 180.47 34.4394 180.617 34.5979C180.772 34.7494 180.894 34.9309 180.976 35.1312C181.058 35.3316 181.098 35.5466 181.094 35.763V39.5538C181.442 39.4662 181.798 39.422 182.156 39.4223H185.144C185.728 39.4184 186.306 39.5391 186.839 39.7763C187.363 39.9868 187.836 40.306 188.227 40.7128C188.629 41.1173 188.946 41.5989 189.157 42.1288C189.395 42.6615 189.515 43.2388 189.511 43.8219V50.926C189.515 51.1428 189.474 51.358 189.392 51.5586C189.31 51.7593 189.188 51.9411 189.034 52.0932C188.886 52.249 188.707 52.3718 188.508 52.4537C188.309 52.5357 188.096 52.5748 187.881 52.5685ZM193.213 52.5685C192.789 52.5738 192.38 52.4125 192.074 52.1195L192.056 52.1013C191.76 51.788 191.599 51.3711 191.607 50.9402V40.3204C191.603 40.1115 191.641 39.904 191.72 39.7106C191.799 39.5172 191.917 39.342 192.066 39.1957C192.214 39.0415 192.393 38.9192 192.59 38.8364C192.787 38.7536 192.999 38.7121 193.213 38.7143C193.428 38.7093 193.641 38.7496 193.839 38.8325C194.037 38.9155 194.215 39.0393 194.362 39.1957C194.516 39.3392 194.639 39.5134 194.722 39.7071C194.805 39.9008 194.846 40.1097 194.843 40.3204V50.9402C194.846 51.1577 194.805 51.3735 194.722 51.5745C194.639 51.7755 194.516 51.9575 194.36 52.1094C194.21 52.2601 194.031 52.3786 193.834 52.4575C193.637 52.5365 193.425 52.5743 193.213 52.5685ZM193.213 37.8344C192.727 37.84 192.259 37.6531 191.91 37.3145L191.888 37.3004C191.554 36.9492 191.368 36.4832 191.368 35.9987C191.368 35.5142 191.554 35.0482 191.888 34.697C192.057 34.5165 192.261 34.3717 192.487 34.2713C192.713 34.1708 192.957 34.1166 193.204 34.112C193.451 34.1073 193.697 34.1523 193.927 34.2442C194.156 34.3362 194.365 34.4732 194.541 34.6472C194.717 34.8212 194.856 35.0287 194.95 35.2574C195.044 35.4861 195.092 35.7313 195.09 35.9787C195.087 36.226 195.036 36.4704 194.937 36.6974C194.839 36.9244 194.697 37.1294 194.518 37.3004C194.347 37.4716 194.143 37.6071 193.919 37.6988C193.695 37.7905 193.455 37.8366 193.213 37.8344ZM203.402 52.5685H203.034C202.448 52.5717 201.867 52.4604 201.325 52.2408H201.31C200.803 52.0136 200.338 51.7009 199.937 51.3164C199.538 50.9181 199.216 50.4506 198.984 49.9369V49.9227C198.766 49.3794 198.654 48.799 198.656 48.2134V40.5814H197.388C196.957 40.5891 196.54 40.4271 196.227 40.1303L196.209 40.1121C195.92 39.7944 195.76 39.3804 195.76 38.951C195.76 38.5215 195.92 38.1075 196.209 37.7899H196.219C196.371 37.6343 196.553 37.5114 196.754 37.4286C196.955 37.3458 197.171 37.3049 197.388 37.3084H198.656V35.7428C198.651 35.5272 198.692 35.313 198.776 35.1142C198.859 34.9155 198.984 34.7367 199.142 34.5898C199.295 34.4362 199.477 34.3147 199.677 34.2327C199.878 34.1507 200.092 34.1098 200.309 34.1124C200.739 34.1182 201.149 34.2922 201.451 34.5971C201.754 34.9019 201.925 35.3133 201.927 35.7428V37.3004H204.492C204.703 37.297 204.913 37.3381 205.107 37.421C205.301 37.504 205.475 37.6269 205.619 37.7818C205.776 37.9286 205.9 38.1068 205.982 38.3048C206.065 38.5028 206.106 38.7161 206.1 38.9307V38.953C206.104 39.1707 206.063 39.3868 205.98 39.5882C205.898 39.7896 205.775 39.9719 205.619 40.1242C205.306 40.4214 204.889 40.5834 204.458 40.5753H201.937V48.2033C201.937 48.3455 201.965 48.4863 202.02 48.6171C202.076 48.748 202.158 48.866 202.261 48.9639C202.363 49.0686 202.485 49.1514 202.62 49.2071C202.755 49.2627 202.9 49.2901 203.046 49.2875H203.414C203.743 49.2859 204.065 49.3822 204.339 49.5643C204.613 49.7464 204.826 50.0059 204.952 50.3098C205.077 50.6137 205.11 50.9482 205.044 51.2705C204.979 51.5928 204.819 51.8884 204.585 52.1195H204.575C204.259 52.4181 203.837 52.5796 203.402 52.5685ZM215.486 52.5685H210.312C209.74 52.571 209.173 52.4589 208.645 52.2388C207.624 51.7903 206.808 50.9746 206.359 49.953V49.9389C206.141 49.404 206.03 48.8316 206.032 48.2539V43.7228C206.029 43.1507 206.141 42.5839 206.361 42.056C206.586 41.5517 206.901 41.0925 207.29 40.7007C207.68 40.3119 208.143 40.0027 208.651 39.7904C209.177 39.5549 209.748 39.4342 210.324 39.4364H212.992C213.569 39.4345 214.139 39.5551 214.665 39.7904C215.173 40.0031 215.636 40.3122 216.026 40.7007C216.415 41.0908 216.724 41.5533 216.935 42.0621C217.17 42.5875 217.291 43.1571 217.289 43.7329V46.0794C217.289 46.2923 217.246 46.5032 217.164 46.6997C217.082 46.8961 216.961 47.0743 216.81 47.2237C216.658 47.3732 216.478 47.491 216.28 47.5703C216.083 47.6495 215.871 47.6887 215.658 47.6855H209.264V48.264C209.26 48.4044 209.284 48.5443 209.336 48.6749C209.387 48.8055 209.465 48.9242 209.564 49.0235C209.664 49.1228 209.782 49.2008 209.913 49.2524C210.044 49.3041 210.184 49.3285 210.324 49.324H215.498C215.709 49.3205 215.918 49.3616 216.112 49.4445C216.306 49.5275 216.48 49.6505 216.623 49.8054C216.78 49.9522 216.904 50.1304 216.987 50.3284C217.07 50.5264 217.11 50.7397 217.104 50.9543C217.108 51.1717 217.067 51.3875 216.984 51.5886C216.902 51.7896 216.779 51.9716 216.623 52.1235C216.474 52.2715 216.296 52.3873 216.101 52.4639C215.905 52.5404 215.696 52.576 215.486 52.5685ZM209.252 44.4348H214.04V43.7187C214.04 43.4295 213.937 42.5839 213.724 42.3817L213.71 42.3675C213.618 42.2657 213.505 42.1849 213.379 42.1304C213.253 42.076 213.117 42.0492 212.98 42.0519H210.312C210.17 42.0505 210.029 42.0786 209.898 42.1343C209.767 42.19 209.649 42.2721 209.551 42.3756C209.349 42.5779 209.252 43.4254 209.252 43.7187V44.4348ZM231.92 52.5685C231.694 52.5712 231.47 52.5279 231.261 52.4414C231.052 52.3548 230.863 52.2267 230.706 52.0649C230.545 51.9106 230.417 51.7249 230.33 51.5193C230.243 51.3138 230.199 51.0926 230.2 50.8694V45.0275H222.422V50.8694C222.424 51.0915 222.381 51.3116 222.295 51.5164C222.209 51.7212 222.082 51.9065 221.923 52.0608C221.77 52.2251 221.584 52.3553 221.377 52.4428C221.171 52.5303 220.948 52.5731 220.723 52.5685C220.275 52.5623 219.846 52.3812 219.529 52.0639C219.211 51.7466 219.03 51.3181 219.024 50.8694V35.8095C219.031 35.3612 219.213 34.9332 219.53 34.6161C219.847 34.299 220.275 34.1177 220.723 34.1104C220.948 34.1062 221.171 34.1494 221.377 34.2372C221.584 34.3251 221.77 34.4555 221.923 34.6201C222.082 34.7743 222.209 34.9591 222.295 35.1636C222.381 35.368 222.424 35.5878 222.422 35.8095V41.6069H230.2V35.8095C230.199 35.5866 230.243 35.3658 230.33 35.1605C230.417 34.9553 230.545 34.77 230.706 34.6161C230.863 34.4536 231.052 34.325 231.261 34.238C231.469 34.1511 231.693 34.1076 231.92 34.1104C232.368 34.1167 232.797 34.2977 233.114 34.615C233.431 34.9323 233.612 35.3609 233.619 35.8095V50.8694C233.613 51.3184 233.433 51.7475 233.115 52.0651C232.798 52.3826 232.369 52.5633 231.92 52.5685ZM245.035 52.5422H244.708L241.708 52.5928C240.521 52.613 239.293 52.6272 238.202 52.1559C235.943 51.1809 235 48.4076 236.331 46.31C236.851 45.495 237.638 44.8853 238.556 44.5845C240.098 44.0909 241.779 44.5319 243.385 44.3236C243.427 43.8259 243.439 43.2474 243.065 42.9076C242.774 42.6507 242.347 42.6386 241.959 42.6386H238.538C238.045 42.6386 237.527 42.6386 237.09 42.41C236.852 42.2891 236.65 42.1091 236.502 41.8874C236.354 41.6657 236.266 41.4096 236.245 41.1439C236.225 40.8781 236.274 40.6116 236.386 40.37C236.498 40.1284 236.671 39.9197 236.888 39.7641C237.436 39.3717 238.164 39.3778 238.838 39.3839C239.916 39.396 240.994 39.3839 242.074 39.4304C243.003 39.4789 243.963 39.5983 244.75 40.0918C245.646 40.6542 246.207 41.6433 246.47 42.6689C246.733 43.6945 246.731 44.7666 246.727 45.8245V50.1553C246.727 50.922 246.658 51.812 246.027 52.2429C245.729 52.4305 245.387 52.534 245.035 52.5422ZM239.149 49.0104C239.353 49.2065 239.627 49.3141 239.91 49.3098H243.431V47.0847H239.91C239.767 47.0833 239.626 47.1113 239.496 47.167C239.365 47.2227 239.247 47.3049 239.149 47.4083C238.948 47.6412 238.842 47.9405 238.85 48.2478C238.845 48.5316 238.952 48.8058 239.149 49.0104ZM254.535 52.5685H254.166C253.581 52.5715 253 52.4602 252.457 52.2408H252.443C251.936 52.0132 251.471 51.7005 251.07 51.3164C250.67 50.9182 250.347 50.4508 250.115 49.9369V49.9227C249.896 49.3794 249.785 48.799 249.787 48.2134V40.5814H248.521C248.089 40.5894 247.671 40.4274 247.358 40.1303L247.339 40.1121C247.05 39.7944 246.89 39.3804 246.89 38.951C246.89 38.5215 247.05 38.1075 247.339 37.7899H247.35C247.502 37.6343 247.684 37.5113 247.886 37.4285C248.087 37.3458 248.303 37.3049 248.521 37.3084H249.787V35.7428C249.782 35.527 249.823 35.3127 249.907 35.1139C249.991 34.9151 250.116 34.7365 250.275 34.5898C250.426 34.4356 250.608 34.3137 250.808 34.2317C251.008 34.1496 251.223 34.109 251.44 34.1124C251.871 34.1161 252.284 34.2891 252.588 34.594C252.893 34.899 253.066 35.3115 253.07 35.7428V37.3004H255.534C255.745 37.2969 255.954 37.338 256.148 37.4209C256.341 37.5039 256.516 37.6269 256.659 37.7818C256.815 37.9286 256.939 38.1068 257.022 38.3048C257.105 38.5028 257.145 38.7161 257.14 38.9307V38.953C257.144 39.1707 257.103 39.3868 257.02 39.5882C256.937 39.7896 256.814 39.9719 256.659 40.1242H256.648C256.336 40.4216 255.919 40.5837 255.487 40.5753H253.07V48.2033C253.069 48.3456 253.097 48.4866 253.152 48.6174C253.208 48.7483 253.29 48.8663 253.394 48.9639C253.495 49.0688 253.617 49.1516 253.751 49.2073C253.886 49.263 254.031 49.2903 254.177 49.2875H254.545C254.874 49.2859 255.195 49.3822 255.469 49.5643C255.743 49.7464 255.957 50.0059 256.082 50.3098C256.208 50.6137 256.24 50.9482 256.175 51.2705C256.11 51.5928 255.95 51.8884 255.716 52.1195C255.397 52.4198 254.972 52.5813 254.535 52.5685Z" fill="#00B5CE"/>
<path d="M157.575 56.2197V61.5174H160.737V62.7189H156.147V56.2197H157.575Z" fill="#00B5CE"/>
<path d="M161.607 57.2857V56.2197H162.899V57.2857H161.607ZM162.899 58.0139V62.7189H161.607V58.0139H162.899Z" fill="#00B5CE"/>
<path d="M165.248 62.7191L163.629 58.014H164.985L165.996 61.2262L166.987 58.014H168.272L166.678 62.7191H165.248Z" fill="#00B5CE"/>
<path d="M170.363 61.5903C170.576 61.7579 170.835 61.8561 171.105 61.8717C171.375 61.8873 171.644 61.8194 171.874 61.6773C172.032 61.5853 172.154 61.4427 172.22 61.2727H173.359C173.231 61.7629 172.934 62.1925 172.522 62.4864C172.112 62.7384 171.637 62.865 171.156 62.8505C170.811 62.8572 170.467 62.7968 170.145 62.6725C169.858 62.5621 169.6 62.3893 169.388 62.1668C169.178 61.9408 169.016 61.6745 168.911 61.384C168.795 61.0596 168.738 60.717 168.743 60.3726C168.74 60.0371 168.798 59.7039 168.915 59.3895C169.024 59.0967 169.191 58.829 169.406 58.6026C169.623 58.3792 169.881 58.2011 170.167 58.0787C170.477 57.9487 170.81 57.884 171.146 57.8886C171.508 57.8798 171.867 57.9596 172.192 58.1212C172.482 58.2689 172.733 58.4823 172.926 58.7442C173.117 59.013 173.254 59.3158 173.331 59.6363C173.416 59.9778 173.447 60.3309 173.422 60.6821H170.042C170.029 61.0147 170.144 61.3396 170.363 61.5903ZM171.826 59.1144C171.733 59.0242 171.622 58.9548 171.5 58.9108C171.379 58.8669 171.249 58.8494 171.12 58.8595C170.943 58.8539 170.767 58.8899 170.606 58.9647C170.479 59.0262 170.367 59.1146 170.278 59.2236C170.199 59.3204 170.14 59.4317 170.104 59.5513C170.074 59.6522 170.055 59.7559 170.046 59.8608H172.147C172.111 59.5872 171.999 59.3289 171.826 59.1144Z" fill="#00B5CE"/>
<path d="M177.136 58.1455C177.273 57.7454 177.486 57.3758 177.765 57.0573C178.045 56.7436 178.39 56.495 178.776 56.329C179.639 55.9785 180.604 55.9785 181.466 56.329C181.849 56.4964 182.191 56.7449 182.468 57.0573C182.745 57.3759 182.958 57.7455 183.095 58.1455C183.244 58.5803 183.317 59.0372 183.313 59.4968C183.317 59.9477 183.243 60.3959 183.095 60.8217C182.959 61.2164 182.746 61.5801 182.468 61.8918C182.189 62.1993 181.848 62.4429 181.466 62.6058C180.603 62.9511 179.64 62.9511 178.776 62.6058C178.391 62.4442 178.046 62.2005 177.765 61.8918C177.486 61.5802 177.272 61.2165 177.136 60.8217C176.987 60.3959 176.913 59.9477 176.917 59.4968C176.913 59.0372 176.987 58.5803 177.136 58.1455ZM178.442 60.2937C178.502 60.5419 178.606 60.7775 178.748 60.9896C178.888 61.1964 179.075 61.367 179.294 61.4872C179.55 61.6098 179.83 61.6734 180.113 61.6734C180.397 61.6734 180.677 61.6098 180.932 61.4872C181.151 61.367 181.339 61.1964 181.479 60.9896C181.621 60.7775 181.724 60.5419 181.784 60.2937C181.847 60.0328 181.879 59.7653 181.879 59.4968C181.88 59.2182 181.848 58.9406 181.784 58.6694C181.725 58.4152 181.622 58.1734 181.479 57.9554C181.34 57.7464 181.152 57.5743 180.932 57.4537C180.677 57.3312 180.397 57.2675 180.113 57.2675C179.83 57.2675 179.55 57.3312 179.294 57.4537C179.074 57.5743 178.887 57.7464 178.748 57.9554C178.605 58.1734 178.501 58.4152 178.442 58.6694C178.379 58.9406 178.347 59.2182 178.347 59.4968C178.347 59.7653 178.379 60.0328 178.442 60.2937Z" fill="#00B5CE"/>
<path d="M185.538 58.0139V58.6693H185.565C185.713 58.4113 185.935 58.2035 186.202 58.0726C186.454 57.9503 186.731 57.8867 187.011 57.8865C187.302 57.8763 187.591 57.9244 187.863 58.0281C188.069 58.1096 188.249 58.2443 188.387 58.4185C188.519 58.5987 188.611 58.8058 188.656 59.0253C188.709 59.2869 188.735 59.5534 188.732 59.8203V62.7149H187.438V60.061C187.458 59.7605 187.395 59.4603 187.256 59.1932C187.183 59.0926 187.084 59.013 186.971 58.9626C186.857 58.9121 186.732 58.8926 186.609 58.906C186.465 58.8932 186.321 58.915 186.188 58.9696C186.055 59.0241 185.937 59.1099 185.844 59.2195C185.686 59.4299 185.607 59.7744 185.607 60.2532V62.719H184.315V58.0139H185.538Z" fill="#00B5CE"/>
<path d="M191.2 56.2197V62.7189H189.908V56.2197H191.2Z" fill="#00B5CE"/>
<path d="M192.42 57.2857V56.2197H193.709V57.2857H192.42ZM193.713 58.0139V62.7189H192.42V58.0139H193.713Z" fill="#00B5CE"/>
<path d="M196.124 58.0139V58.6693H196.152C196.3 58.4112 196.522 58.2034 196.789 58.0725C197.042 57.9502 197.318 57.8866 197.598 57.8864C197.889 57.8765 198.178 57.9246 198.45 58.028C198.654 58.1108 198.832 58.2454 198.968 58.4184C199.101 58.5986 199.193 58.8058 199.237 59.0253C199.29 59.2869 199.316 59.5533 199.314 59.8202V62.7149H198.017V60.061C198.037 59.7605 197.974 59.4602 197.835 59.1932C197.763 59.0925 197.665 59.0129 197.551 58.9625C197.438 58.912 197.313 58.8925 197.19 58.9059C197.047 58.8932 196.902 58.915 196.769 58.9695C196.636 59.0241 196.518 59.1098 196.425 59.2195C196.267 59.4298 196.189 59.7744 196.189 60.2531V62.7189H194.896V58.0139H196.124Z" fill="#00B5CE"/>
<path d="M201.84 61.5903C202.053 61.7579 202.312 61.8561 202.582 61.8717C202.852 61.8873 203.121 61.8194 203.351 61.6773C203.509 61.5853 203.631 61.4427 203.697 61.2727H204.834C204.706 61.7629 204.409 62.1925 203.997 62.4864C203.587 62.7384 203.112 62.865 202.631 62.8505C202.286 62.8572 201.942 62.7968 201.62 62.6725C201.333 62.5621 201.075 62.3893 200.863 62.1668C200.652 61.9413 200.49 61.6748 200.386 61.384C200.269 61.0598 200.212 60.7171 200.218 60.3726C200.215 60.0371 200.273 59.7039 200.39 59.3895C200.498 59.0969 200.665 58.8297 200.88 58.6042C201.095 58.3787 201.355 58.1999 201.642 58.0787C201.952 57.9482 202.285 57.8835 202.621 57.8886C202.983 57.8798 203.342 57.9596 203.667 58.1212C203.957 58.2684 204.207 58.4819 204.399 58.7442C204.594 59.0118 204.735 59.3148 204.814 59.6363C204.899 59.9778 204.93 60.3309 204.905 60.6821H201.523C201.509 61.0142 201.623 61.339 201.84 61.5903ZM203.301 59.1144C203.208 59.024 203.098 58.9545 202.976 58.9105C202.855 58.8665 202.726 58.8491 202.597 58.8595C202.419 58.8541 202.242 58.8901 202.081 58.9647C201.955 59.0273 201.843 59.1155 201.753 59.2236C201.675 59.3205 201.617 59.4318 201.581 59.5513C201.55 59.652 201.531 59.7558 201.523 59.8608H203.62C203.585 59.5872 203.475 59.3287 203.301 59.1144Z" fill="#00B5CE"/>
<path d="M212.846 57.9552C212.672 57.673 212.407 57.4589 212.094 57.3484C211.932 57.2897 211.762 57.2603 211.59 57.2614C211.306 57.253 211.024 57.317 210.771 57.4475C210.551 57.568 210.364 57.7402 210.225 57.9491C210.081 58.1668 209.977 58.4087 209.919 58.6632C209.855 58.9342 209.823 59.2119 209.824 59.4905C209.823 59.7591 209.855 60.0268 209.919 60.2875C209.978 60.536 210.082 60.7717 210.225 60.9834C210.365 61.1902 210.552 61.3607 210.771 61.481C211.024 61.6114 211.306 61.6755 211.59 61.6671C211.78 61.6771 211.969 61.6461 212.146 61.5763C212.323 61.5065 212.482 61.3995 212.614 61.2625C212.872 60.967 213.03 60.5973 213.065 60.2066H214.448C214.418 60.587 214.323 60.9593 214.165 61.307C214.02 61.6236 213.814 61.9082 213.558 62.1445C213.306 62.3775 213.008 62.5571 212.685 62.6724C212.331 62.7971 211.959 62.8587 211.584 62.8545C211.123 62.8625 210.666 62.7743 210.241 62.5955C209.856 62.4344 209.51 62.1907 209.23 61.8815C208.951 61.5699 208.737 61.2062 208.6 60.8114C208.452 60.3856 208.378 59.9374 208.382 59.4865C208.378 59.0269 208.452 58.5701 208.6 58.1352C208.738 57.7351 208.951 57.3655 209.23 57.047C209.509 56.7328 209.854 56.4842 210.241 56.3188C210.99 56.0107 211.823 55.9721 212.598 56.2095C212.907 56.3081 213.197 56.4608 213.453 56.6606C213.708 56.8605 213.921 57.1095 214.078 57.3929C214.249 57.7056 214.354 58.0497 214.388 58.4043H213.004C212.983 58.2453 212.93 58.0923 212.846 57.9552Z" fill="#00B5CE"/>
<path d="M215.476 59.3491C215.58 59.0573 215.747 58.7916 215.964 58.5702C216.18 58.3488 216.443 58.177 216.732 58.0666C217.055 57.9423 217.398 57.8819 217.744 57.8886C218.089 57.8826 218.432 57.943 218.755 58.0666C219.044 58.1768 219.307 58.3471 219.526 58.5662C219.738 58.791 219.901 59.0576 220.005 59.3491C220.124 59.6771 220.182 60.0239 220.177 60.3726C220.181 60.7174 220.123 61.06 220.005 61.384C219.898 61.6753 219.73 61.9407 219.514 62.1628C219.296 62.382 219.033 62.5512 218.743 62.6584C218.419 62.7786 218.077 62.8376 217.732 62.8323C217.386 62.8383 217.043 62.7793 216.72 62.6584C216.433 62.5501 216.172 62.3811 215.955 62.1628C215.739 61.9407 215.571 61.6753 215.464 61.384C215.346 61.06 215.288 60.7174 215.292 60.3726C215.291 60.0231 215.353 59.6763 215.476 59.3491ZM216.651 60.9248C216.684 61.0952 216.747 61.2583 216.837 61.4063C216.923 61.5481 217.044 61.6657 217.187 61.7481C217.355 61.8384 217.543 61.8824 217.734 61.8756C217.925 61.8821 218.115 61.8382 218.284 61.7481C218.43 61.6664 218.552 61.5488 218.64 61.4063C218.729 61.2579 218.792 61.095 218.826 60.9248C218.862 60.743 218.881 60.5581 218.88 60.3726C218.881 60.1865 218.862 60.0009 218.826 59.8184C218.794 59.6473 218.73 59.4835 218.64 59.3349C218.55 59.1944 218.428 59.0778 218.284 58.9951C218.116 58.901 217.926 58.8549 217.734 58.8616C217.556 58.8536 217.379 58.8933 217.221 58.9765C217.064 59.0597 216.931 59.1834 216.837 59.3349C216.746 59.4831 216.683 59.6471 216.651 59.8184C216.615 60.0009 216.597 60.1865 216.597 60.3726C216.597 60.5574 216.615 60.7417 216.651 60.9228V60.9248Z" fill="#00B5CE"/>
<path d="M224.516 62.1183C224.376 62.3609 224.164 62.5539 223.909 62.6705C223.647 62.7854 223.362 62.8427 223.076 62.8384C222.755 62.8457 222.436 62.7763 222.147 62.6361C221.887 62.5051 221.661 62.3145 221.488 62.0799C221.309 61.836 221.176 61.5619 221.095 61.2707C221.007 60.9629 220.963 60.6442 220.964 60.3241C220.963 60.0145 221.008 59.7066 221.095 59.4098C221.177 59.1281 221.31 58.8641 221.488 58.631C221.67 58.3918 221.907 58.1993 222.179 58.0696C222.45 57.9398 222.749 57.8764 223.049 57.8846C223.325 57.8831 223.596 57.9439 223.844 58.0626C224.094 58.1724 224.305 58.3541 224.451 58.5844H224.469V56.2178H225.762V62.7171H224.534V62.1102L224.516 62.1183ZM224.455 59.7941C224.424 59.6257 224.36 59.465 224.267 59.3207C224.182 59.1845 224.065 59.0702 223.927 58.987C223.766 58.8972 223.584 58.8531 223.399 58.8596C223.212 58.8534 223.026 58.8974 222.861 58.987C222.719 59.0691 222.598 59.1851 222.511 59.3248C222.417 59.4709 222.348 59.6325 222.309 59.8022C222.27 59.9864 222.25 60.1742 222.25 60.3625C222.251 60.5464 222.273 60.7297 222.315 60.9087C222.353 61.082 222.421 61.2471 222.517 61.3962C222.609 61.5357 222.73 61.6537 222.871 61.7421C223.028 61.8328 223.206 61.8783 223.387 61.8735C223.573 61.88 223.757 61.836 223.919 61.7461C224.06 61.6628 224.178 61.5452 224.261 61.4042C224.349 61.2534 224.411 61.0885 224.443 60.9167C224.48 60.7309 224.498 60.5419 224.498 60.3524C224.502 60.1653 224.488 59.9783 224.455 59.7941Z" fill="#00B5CE"/>
<path d="M226.937 57.2857V56.2197H228.23V57.2857H226.937ZM228.23 58.0139V62.7189H226.937V58.0139H228.23Z" fill="#00B5CE"/>
<path d="M230.641 58.0139V58.6693H230.669C230.818 58.4113 231.039 58.2035 231.307 58.0726C231.559 57.9503 231.835 57.8867 232.116 57.8865C232.406 57.8763 232.694 57.9244 232.965 58.0281C233.171 58.1096 233.352 58.2443 233.489 58.4185C233.622 58.5987 233.714 58.8058 233.758 59.0253C233.811 59.2869 233.837 59.5534 233.835 59.8203V62.7149H232.543V60.061C232.563 59.7605 232.5 59.4603 232.36 59.1932C232.288 59.0926 232.19 59.013 232.077 58.9625C231.963 58.9121 231.839 58.8926 231.715 58.906C231.572 58.8932 231.428 58.915 231.295 58.9696C231.162 59.0241 231.044 59.1099 230.951 59.2195C230.793 59.4299 230.714 59.7744 230.714 60.2532V62.719H229.421V58.0139H230.641Z" fill="#00B5CE"/>
<path d="M239.424 63.0648C239.37 63.3147 239.256 63.5479 239.092 63.7445C238.89 63.9763 238.638 64.1584 238.354 64.2765C237.944 64.4382 237.504 64.5126 237.063 64.495C236.825 64.4946 236.588 64.4654 236.357 64.408C236.126 64.3544 235.905 64.2635 235.702 64.1389C235.507 64.0202 235.339 63.8608 235.211 63.6717C235.075 63.4672 234.998 63.2293 234.988 62.9839H236.271C236.29 63.0887 236.331 63.1881 236.392 63.2754C236.453 63.3627 236.533 63.4357 236.625 63.4896C236.812 63.585 237.021 63.6329 237.231 63.6292C237.381 63.642 237.531 63.619 237.67 63.562C237.808 63.505 237.931 63.4157 238.028 63.3015C238.201 63.0615 238.286 62.7694 238.269 62.4742V61.8552H238.251C238.115 62.1006 237.901 62.294 237.644 62.4054C237.39 62.523 237.114 62.5838 236.835 62.5834C236.521 62.5912 236.21 62.5275 235.925 62.3973C235.679 62.2788 235.464 62.1042 235.298 61.8875C235.129 61.6614 235.007 61.4044 234.937 61.131C234.861 60.8323 234.823 60.525 234.824 60.2167C234.824 59.9191 234.868 59.6232 234.956 59.3388C235.037 59.0683 235.168 58.8153 235.342 58.5924C235.513 58.376 235.729 58.1998 235.975 58.0766C236.246 57.9454 236.544 57.8802 236.845 57.8864C237.124 57.8809 237.401 57.9397 237.654 58.0584C237.903 58.1899 238.107 58.3927 238.241 58.6409H238.259V58.0139H239.487V62.4195C239.489 62.6362 239.468 62.8525 239.424 63.0648ZM237.654 61.4992C237.79 61.4294 237.908 61.3298 238 61.2079C238.091 61.0862 238.16 60.9492 238.202 60.8033C238.249 60.645 238.272 60.4808 238.271 60.3158C238.271 60.1268 238.251 59.9382 238.21 59.7535C238.178 59.59 238.116 59.4337 238.028 59.2923C237.944 59.1599 237.828 59.0508 237.691 58.9747C237.528 58.89 237.346 58.8489 237.163 58.8553C237 58.8507 236.839 58.8883 236.695 58.9646C236.564 59.0368 236.452 59.1387 236.368 59.2619C236.274 59.39 236.205 59.5349 236.165 59.6887C236.126 59.8544 236.106 60.0242 236.107 60.1944C236.106 60.3643 236.123 60.5337 236.157 60.7002C236.188 60.8588 236.246 61.0109 236.329 61.1492C236.411 61.2817 236.521 61.3937 236.653 61.4769C236.804 61.5666 236.977 61.6108 237.152 61.6044C237.325 61.6114 237.496 61.5752 237.65 61.4992H237.654Z" fill="#00B5CE"/>
<path d="M242.901 58.8777V58.0139H243.672V57.6498C243.665 57.4608 243.696 57.2724 243.763 57.0955C243.83 56.9187 243.932 56.7571 244.062 56.6202C244.323 56.3505 244.717 56.2157 245.246 56.2157C245.361 56.2157 245.476 56.2157 245.592 56.2298C245.707 56.244 245.82 56.246 245.929 56.2521V57.217C245.772 57.1988 245.614 57.19 245.456 57.1907C245.388 57.184 245.319 57.1915 245.254 57.2127C245.189 57.234 245.129 57.2685 245.078 57.3141C244.993 57.4311 244.953 57.5746 244.965 57.7186V58.0018H245.857V58.8655H244.965V62.7089H243.672V58.8655L242.901 58.8777Z" fill="#00B5CE"/>
<path d="M246.615 59.3491C246.72 59.0573 246.886 58.7916 247.103 58.5702C247.32 58.3488 247.582 58.177 247.871 58.0666C248.194 57.9423 248.537 57.8819 248.883 57.8886C249.228 57.8831 249.571 57.9435 249.894 58.0666C250.183 58.1773 250.445 58.3475 250.663 58.5662C250.88 58.7899 251.047 59.0566 251.154 59.3491C251.273 59.6771 251.331 60.0239 251.326 60.3726C251.331 60.7174 251.272 61.06 251.154 61.384C251.047 61.6753 250.88 61.9407 250.663 62.1628C250.446 62.3816 250.183 62.5507 249.894 62.6584C249.571 62.7782 249.228 62.8372 248.883 62.8323C248.538 62.8383 248.195 62.7793 247.871 62.6584C247.584 62.5501 247.323 62.3811 247.107 62.1628C246.89 61.9407 246.722 61.6753 246.615 61.384C246.497 61.06 246.439 60.7174 246.443 60.3726C246.438 60.0239 246.497 59.6771 246.615 59.3491ZM247.79 60.9248C247.824 61.095 247.887 61.2579 247.977 61.4063C248.063 61.5476 248.183 61.6651 248.327 61.7481C248.494 61.8384 248.683 61.8824 248.873 61.8756C249.065 61.8818 249.255 61.8379 249.425 61.7481C249.57 61.6664 249.692 61.5487 249.779 61.4063C249.869 61.2583 249.933 61.0952 249.965 60.9248C250.002 60.743 250.02 60.5581 250.02 60.3726C250.02 60.1865 250.002 60.0009 249.965 59.8184C249.934 59.6471 249.87 59.4831 249.779 59.3349C249.691 59.1943 249.569 59.0776 249.425 58.9951C249.256 58.9014 249.065 58.8552 248.873 58.8616C248.682 58.8547 248.493 58.9009 248.327 58.9951C248.185 59.0791 248.065 59.1955 247.977 59.3349C247.886 59.4835 247.823 59.6473 247.79 59.8184C247.754 60.0009 247.736 60.1865 247.736 60.3726C247.736 60.5574 247.754 60.7417 247.79 60.9228V60.9248Z" fill="#00B5CE"/>
<path d="M253.543 58.014V58.8879H253.562C253.622 58.7414 253.705 58.605 253.806 58.4833C253.909 58.3597 254.028 58.252 254.162 58.1637C254.295 58.0775 254.438 58.0094 254.589 57.9615C254.742 57.9127 254.902 57.8881 255.063 57.8886C255.159 57.8899 255.254 57.9049 255.346 57.9331V59.1347C255.273 59.1209 255.201 59.1108 255.127 59.1043C255.045 59.0948 254.963 59.09 254.88 59.0902C254.672 59.0828 254.464 59.1229 254.274 59.2075C254.114 59.2794 253.974 59.3908 253.869 59.5312C253.766 59.6739 253.693 59.8364 253.655 60.0085C253.61 60.203 253.589 60.4018 253.59 60.6012V62.7211H252.297V58.014H253.543Z" fill="#00B5CE"/>
<path d="M260.279 56.2197V58.914L262.818 56.2197H264.602L262.063 58.7866L264.849 62.7189H263.055L261.099 59.798L260.279 60.6253V62.7189H258.843V56.2197H260.279Z" fill="#00B5CE"/>
<path d="M265.486 57.2857V56.2197H266.779V57.2857H265.486ZM266.779 58.0139V62.7189H265.486V58.0139H266.779Z" fill="#00B5CE"/>
<path d="M271.302 62.1183C271.165 62.3592 270.957 62.5521 270.707 62.6705C270.444 62.7854 270.16 62.8427 269.874 62.8384C269.552 62.8457 269.234 62.7763 268.945 62.6361C268.685 62.5051 268.459 62.3145 268.286 62.0799C268.106 61.8365 267.973 61.5622 267.893 61.2707C267.804 60.9631 267.76 60.6443 267.762 60.3241C267.76 60.0145 267.804 59.7064 267.893 59.4098C267.974 59.1278 268.107 58.8636 268.286 58.631C268.468 58.3915 268.704 58.1989 268.975 58.0691C269.246 57.9393 269.545 57.876 269.845 57.8846C270.121 57.8835 270.393 57.9444 270.642 58.0626C270.891 58.173 271.102 58.3546 271.249 58.5844H271.267V56.2178H272.56V62.7171H271.33V62.1102L271.302 62.1183ZM271.247 59.7941C271.215 59.6261 271.152 59.4655 271.061 59.3207C270.974 59.1848 270.857 59.0707 270.719 58.987C270.558 58.8972 270.375 58.8531 270.191 58.8596C270.004 58.8534 269.819 58.8974 269.655 58.987C269.512 59.0696 269.391 59.1855 269.303 59.3248C269.213 59.4717 269.148 59.6333 269.113 59.8022C269.073 59.9862 269.053 60.1741 269.054 60.3625C269.054 60.5464 269.075 60.7296 269.117 60.9087C269.155 61.0819 269.223 61.247 269.319 61.3962C269.41 61.5361 269.531 61.6543 269.673 61.7421C269.829 61.833 270.007 61.8786 270.187 61.8735C270.373 61.8807 270.557 61.8366 270.719 61.7461C270.86 61.6634 270.978 61.5456 271.061 61.4042C271.149 61.2534 271.211 61.0885 271.243 60.9167C271.28 60.7309 271.298 60.5419 271.298 60.3524C271.3 60.1651 271.283 59.978 271.247 59.7941Z" fill="#00B5CE"/>
<path d="M274.775 61.5499C274.829 61.6478 274.906 61.7321 274.997 61.7966C275.093 61.8612 275.199 61.9084 275.311 61.9362C275.432 61.9671 275.556 61.9827 275.681 61.9828C275.777 61.9825 275.873 61.9717 275.966 61.9504C276.062 61.9315 276.154 61.8981 276.239 61.8513C276.319 61.8058 276.388 61.7437 276.442 61.6692C276.498 61.5844 276.527 61.4839 276.523 61.382C276.523 61.1797 276.393 61.0421 276.136 60.945C275.784 60.8222 275.424 60.7248 275.058 60.6538C274.87 60.6113 274.686 60.5607 274.506 60.5041C274.337 60.4506 274.176 60.3736 274.028 60.2755C273.891 60.1841 273.777 60.0631 273.693 59.9215C273.603 59.7616 273.559 59.5805 273.565 59.3976C273.554 59.1373 273.615 58.8791 273.741 58.6512C273.856 58.4607 274.018 58.3027 274.21 58.192C274.413 58.0755 274.635 57.9954 274.866 57.9553C275.112 57.9088 275.362 57.8858 275.612 57.8866C275.862 57.886 276.11 57.9104 276.355 57.9594C276.581 58.0027 276.798 58.0856 276.996 58.2041C277.185 58.3207 277.345 58.4783 277.465 58.6653C277.598 58.8839 277.674 59.1321 277.688 59.3875H276.46C276.463 59.2858 276.438 59.1852 276.388 59.0965C276.338 59.0078 276.265 58.9343 276.177 58.8838C275.988 58.7901 275.78 58.7442 275.57 58.7503C275.497 58.7503 275.418 58.7503 275.333 58.7644C275.253 58.7727 275.175 58.7925 275.1 58.8231C275.032 58.8531 274.972 58.8989 274.924 58.9566C274.873 59.022 274.847 59.1041 274.852 59.1872C274.85 59.241 274.861 59.2944 274.883 59.3434C274.905 59.3925 274.938 59.4359 274.979 59.4704C275.077 59.5505 275.19 59.6109 275.311 59.6484C275.465 59.6976 275.622 59.7381 275.78 59.7698C275.956 59.8062 276.134 59.8467 276.316 59.8891C276.502 59.9306 276.686 59.9819 276.866 60.0429C277.038 60.0991 277.199 60.1809 277.346 60.2856C277.484 60.3837 277.598 60.5107 277.682 60.6578C277.771 60.8269 277.815 61.0166 277.809 61.208C277.822 61.4628 277.766 61.7162 277.647 61.9421C277.529 62.168 277.352 62.3581 277.135 62.4925C276.925 62.6236 276.691 62.7148 276.448 62.7615C276.188 62.8126 275.925 62.8384 275.661 62.8384C275.389 62.839 275.118 62.8112 274.852 62.7555C274.605 62.7067 274.37 62.6142 274.156 62.4824C273.952 62.3551 273.781 62.1828 273.654 61.9787C273.52 61.7376 273.45 61.4658 273.452 61.1898H274.68C274.678 61.3162 274.711 61.4407 274.775 61.5499Z" fill="#00B5CE"/>
<path d="M146.739 29.8583C145.726 29.3869 144.568 29.3369 143.519 29.7193C142.47 30.1017 141.615 30.8851 141.144 31.8973L129.292 57.3362C129.058 57.8373 128.926 58.3795 128.902 58.9319C128.878 59.4842 128.963 60.0359 129.152 60.5553C129.342 61.0748 129.632 61.5518 130.005 61.9591C130.379 62.3665 130.83 62.6961 131.331 62.9293C131.832 63.1627 132.374 63.295 132.927 63.3189C133.479 63.3427 134.031 63.2575 134.55 63.0682C135.069 62.8788 135.546 62.5891 135.954 62.2154C136.361 61.8417 136.691 61.3914 136.924 60.8903L148.778 35.4534C149.249 34.4411 149.299 33.2829 148.917 32.2337C148.535 31.1844 147.751 30.33 146.739 29.8583Z" fill="#FF8D1A"/>
<path fill-rule="evenodd" clip-rule="evenodd" d="M151.581 16.791L153.513 16.0527C153.622 16.0113 153.739 15.994 153.855 16.0017C153.971 16.0095 154.084 16.0423 154.186 16.0978C154.289 16.1533 154.378 16.2302 154.448 16.3233C154.518 16.4164 154.567 16.5235 154.591 16.6373L155.026 18.6601C155.242 19.6828 155.087 20.749 154.589 21.668L153.376 23.9053L153.515 24.0954C153.764 24.4364 153.904 24.8447 153.917 25.2668C153.93 25.6888 153.814 26.1049 153.586 26.4601L152.504 28.1228C152.468 28.1778 152.42 28.2234 152.363 28.2555C152.306 28.2877 152.242 28.3056 152.176 28.3076C152.111 28.3095 152.046 28.2956 151.987 28.267C151.928 28.2383 151.877 28.1958 151.838 28.1431C151.435 27.5926 150.958 27.0993 150.422 26.6765L149.006 29.29C148.983 29.3433 148.948 29.3911 148.905 29.4304C148.862 29.4697 148.811 29.4996 148.756 29.5182C148.701 29.5368 148.642 29.5438 148.584 29.5386C148.526 29.5334 148.47 29.5162 148.419 29.488C148.368 29.4599 148.323 29.4214 148.288 29.3751C148.252 29.3288 148.227 29.2756 148.213 29.219C148.199 29.1623 148.197 29.1034 148.207 29.046C148.218 28.9886 148.24 28.9339 148.272 28.8854L149.338 26.9193C149.208 26.8207 149.073 26.7289 148.934 26.6442L148.238 27.9246C148.216 27.9806 148.182 28.0313 148.139 28.0733C148.096 28.1153 148.044 28.1476 147.988 28.168C147.931 28.1885 147.871 28.1967 147.811 28.1919C147.751 28.1872 147.693 28.1698 147.64 28.1408C147.587 28.1117 147.541 28.0718 147.505 28.0236C147.469 27.9754 147.444 27.9201 147.431 27.8613C147.418 27.8026 147.418 27.7417 147.43 27.6829C147.443 27.624 147.468 27.5685 147.503 27.52L148.183 26.272C148.04 26.2153 147.886 26.1587 147.72 26.102L146.68 28.0176C146.657 28.071 146.622 28.1188 146.579 28.1581C146.536 28.1973 146.485 28.2272 146.43 28.2459C146.375 28.2645 146.316 28.2714 146.258 28.2662C146.2 28.261 146.144 28.2438 146.092 28.2157C146.041 28.1875 145.997 28.1491 145.961 28.1028C145.926 28.0564 145.901 28.0033 145.887 27.9466C145.873 27.8899 145.871 27.831 145.881 27.7736C145.891 27.7162 145.913 27.6615 145.946 27.6131L147.362 25.0097C146.715 24.7988 146.043 24.6737 145.363 24.6375C145.298 24.6337 145.235 24.6141 145.179 24.5804C145.122 24.5467 145.075 24.4999 145.041 24.444C145.007 24.3881 144.987 24.3248 144.983 24.2595C144.979 24.1942 144.991 24.1289 145.017 24.0691L145.827 22.2486C145.997 21.8611 146.283 21.5354 146.644 21.3154C147.006 21.0955 147.427 20.9919 147.849 21.0187L148.084 21.0309L149.312 18.7896C149.803 17.8716 150.609 17.1619 151.581 16.791ZM151.049 21.8804C151.26 21.9963 151.501 22.0469 151.741 22.0258C151.98 22.0047 152.208 21.9128 152.396 21.7618C152.583 21.6108 152.721 21.4075 152.793 21.1778C152.864 20.9481 152.866 20.7023 152.798 20.4716C152.729 20.2409 152.594 20.0358 152.408 19.8823C152.223 19.7287 151.996 19.6337 151.757 19.6094C151.518 19.585 151.276 19.6323 151.064 19.7453C150.852 19.8583 150.678 20.0319 150.564 20.244C150.413 20.5257 150.38 20.8556 150.47 21.162C150.561 21.4684 150.769 21.7265 151.049 21.8804Z" fill="#FF8D1A"/>
<path d="M123.029 37.5026C124.042 37.0313 125.2 36.9816 126.25 37.3644C127.299 37.7471 128.153 38.531 128.625 39.5436L136.918 57.3302C137.151 57.8313 137.284 58.3735 137.308 58.9258C137.332 59.4781 137.246 60.0297 137.057 60.549C136.868 61.0684 136.578 61.5454 136.204 61.9527C135.83 62.3601 135.38 62.6899 134.879 62.9233C133.867 63.3947 132.709 63.4447 131.659 63.0623C130.61 62.6799 129.756 61.8965 129.284 60.8843L120.99 43.0977C120.519 42.0853 120.469 40.9272 120.851 39.8779C121.234 38.8287 122.017 37.9743 123.029 37.5026Z" fill="#00B5CE"/>
<path d="M126.577 37.5026C126.076 37.2689 125.534 37.1364 124.981 37.1126C124.428 37.0887 123.877 37.174 123.357 37.3635C122.837 37.5531 122.36 37.8432 121.953 38.2173C121.545 38.5913 121.216 39.042 120.982 39.5436L112.689 57.3302C112.455 57.8313 112.323 58.3735 112.299 58.9258C112.275 59.4781 112.361 60.0296 112.55 60.549C112.739 61.0684 113.029 61.5454 113.403 61.9527C113.776 62.3601 114.227 62.6899 114.728 62.9232C115.74 63.3946 116.898 63.4447 117.948 63.0623C118.997 62.6799 119.851 61.8965 120.323 60.8843L128.616 43.0976C129.088 42.0853 129.138 40.9271 128.756 39.8779C128.373 38.8287 127.59 37.9743 126.577 37.5026Z" fill="#FF8D1A"/>
<path d="M106.434 37.5026C106.936 37.2693 107.478 37.1371 108.03 37.1134C108.583 37.0897 109.134 37.1751 109.654 37.3646C110.173 37.5541 110.65 37.8441 111.057 38.218C111.465 38.5919 111.794 39.0424 112.027 39.5437L120.321 57.3303C120.554 57.8314 120.687 58.3736 120.711 58.9259C120.734 59.4781 120.649 60.0297 120.46 60.5491C120.27 61.0685 119.981 61.5454 119.607 61.9528C119.233 62.3602 118.783 62.69 118.282 62.9233C117.27 63.3947 116.111 63.4447 115.062 63.0624C114.013 62.68 113.159 61.8966 112.687 60.8843L104.393 43.0977C103.922 42.0851 103.872 40.9268 104.255 39.8775C104.638 38.8282 105.422 37.974 106.434 37.5026Z" fill="#00B5CE"/>
<defs>
<radialGradient id="paint0_radial" cx="0" cy="0" r="1" gradientUnits="userSpaceOnUse" gradientTransform="translate(204.955 86.2813) rotate(-150) scale(231.74)">
<stop offset="0.00558659" stop-color="white"/>
<stop offset="0.2928" stop-color="white"/>
<stop offset="0.4362" stop-color="white"/>
<stop offset="0.598958" stop-color="white"/>
<stop offset="0.723958" stop-color="#F0F9FF"/>
<stop offset="0.854167" stop-color="#8FCAFC"/>
<stop offset="1" stop-color="#6FB5F9"/>
</radialGradient>
<linearGradient id="paint1_linear" x1="159.5" y1="28.9997" x2="87.2294" y2="-120.96" gradientUnits="userSpaceOnUse">
<stop stop-color="#CFD7FF"/>
<stop offset="1" stop-color="#8A9BD8"/>
</linearGradient>
<linearGradient id="paint2_linear" x1="122.437" y1="47.6332" x2="46.3776" y2="3.72056" gradientUnits="userSpaceOnUse">
<stop stop-color="#E8DDFF"/>
<stop offset="1" stop-color="#AA8AD8"/>
</linearGradient>
<linearGradient id="paint3_linear" x1="338.697" y1="-4.32901" x2="277.748" y2="-39.5179" gradientUnits="userSpaceOnUse">
<stop stop-color="#E8DDFF"/>
<stop offset="1" stop-color="#AA8AD8"/>
</linearGradient>
</defs>
</svg>
