<svg width="81" height="86" viewBox="0 0 81 86" fill="none" xmlns="http://www.w3.org/2000/svg">
<path d="M40.5 -0.000137329C18.1325 -0.000137329 7.62939e-05 18.1323 7.62939e-05 40.4998C7.62939e-05 62.8672 18.1325 80.9997 40.5 80.9997C62.8675 80.9997 80.9999 62.8672 80.9999 40.4998C80.9999 18.1323 62.8675 -0.000137329 40.5 -0.000137329Z" fill="url(#paint0_linear)"/>
<path opacity="0.477214" fill-rule="evenodd" clip-rule="evenodd" d="M51.1474 79.5862C68.3497 74.9112 81 59.1831 81 40.5004C81 24.1654 71.3293 10.0892 57.4009 3.68462C41.1203 9.33862 29.4336 24.8148 29.4336 43.0205C29.4336 58.7976 38.2102 72.5248 51.1474 79.5862Z" fill="url(#paint1_linear)"/>
<path opacity="0.313128" fill-rule="evenodd" clip-rule="evenodd" d="M5.98631 61.7026C13.1142 73.2814 25.9056 81.001 40.5001 81.001C42.9336 81.001 45.317 80.7864 47.6324 80.375C45.6976 73.6498 40.9784 61.8491 32.041 63.8501C21.0142 66.319 19.6904 65.2692 13.8918 60.6705C13.1775 60.104 12.3953 59.4836 11.5187 58.8094C8.04545 56.1379 6.55797 58.3485 5.98631 61.7026Z" fill="url(#paint2_linear)"/>
<path opacity="0.313128" fill-rule="evenodd" clip-rule="evenodd" d="M10.0614 67.2172C17.4839 75.6674 28.3693 81.001 40.5004 81.001C41.5217 81.001 42.5341 80.9632 43.5363 80.8889C41.9999 75.5212 38.2258 66.0113 31.0552 67.6172C22.2398 69.5915 21.1814 68.7519 16.5458 65.0746C15.9747 64.6216 15.3494 64.1255 14.6486 63.5864C11.4365 61.1152 10.3488 63.868 10.0614 67.2172Z" fill="url(#paint3_linear)"/>
<path opacity="0.180315" fill-rule="evenodd" clip-rule="evenodd" d="M63.2923 7.01775C55.9317 3.70693 48.2502 7.45284 38.7135 12.1035C30.5364 16.0911 20.9953 20.7439 9.12292 22.1839C7.2039 22.4166 5.45586 22.764 3.86637 23.2091C1.38689 28.453 0.000198364 34.3147 0.000198364 40.5002C0.000198364 44.6006 0.609566 48.5587 1.74268 52.2889C3.02151 51.8839 4.30621 51.3775 5.54539 50.889C8.78085 49.6136 11.7059 48.4605 13.406 49.5556C14.9059 50.5217 15.1483 52.0771 15.416 53.7939C15.806 56.2957 16.2494 59.1402 20.7149 61.0033C24.2724 62.4876 28.6247 61.9028 32.5986 61.3688C37.0362 60.7726 41.0019 60.2397 42.8623 62.7221C46.3886 67.4276 51.6314 73.675 64.5635 62.4162C76.9692 51.6158 78.9701 25.5213 70.0979 12.8557C68.0549 10.6692 65.7724 8.70928 63.2923 7.01775Z" fill="url(#paint4_linear)"/>
<path fill-rule="evenodd" clip-rule="evenodd" d="M0.739418 48.2425C5.29804 45.6864 11.3729 41.3818 9.79199 37.256C8.5444 34.0001 10.0508 31.2713 11.2587 29.0832C12.4368 26.9491 13.331 25.3292 11.1094 24.2362C9.50183 23.4453 6.79602 23.0928 3.982 22.9664C1.43003 28.2718 0.0001688 34.219 0.0001688 40.5001C0.0001688 43.1479 0.25427 45.7364 0.739418 48.2425Z" fill="url(#paint5_linear)"/>
<path opacity="0.63916" fill-rule="evenodd" clip-rule="evenodd" d="M6.6263 18.2932C13.8641 7.27522 26.3327 0.000341415 40.5005 0.000341415C44.6069 0.000341415 48.5706 0.611486 52.3055 1.74778C49.6133 2.92124 44.9302 5.0164 43.1067 6.16357C41.2633 7.32321 39.5708 8.42831 37.9865 9.46281C32.525 13.0288 28.3484 15.7559 23.7077 16.9859C14.392 19.4549 8.65699 18.7212 6.6263 18.2932Z" fill="url(#paint6_linear)"/>
<path fill-rule="evenodd" clip-rule="evenodd" d="M7.6611 16.7931C9.8726 16.4934 12.3677 16.0186 15.1161 15.2903C25.7557 12.4713 36.4828 2.1365 38.5715 0.0460014C25.8516 0.642452 14.6661 7.10676 7.6611 16.7931Z" fill="url(#paint7_linear)"/>
<path d="M15.9734 67.7576C15.348 67.3819 14.7047 67.3041 14.5366 67.5838C14.3685 67.8636 14.8755 68.1682 15.3646 68.7708C15.8537 69.3733 16.6332 69.2244 16.8013 68.9446C16.9694 68.6648 16.5987 68.1334 15.9734 67.7576Z" fill="url(#paint8_linear)"/>
<path d="M16.0808 67.5788C15.4554 67.2031 14.8122 67.1253 14.644 67.405C14.4759 67.6848 14.972 68.0076 15.472 68.592C15.9721 69.1763 16.7406 69.0456 16.9087 68.7658C17.0768 68.486 16.7061 67.9546 16.0808 67.5788Z" fill="black" fill-opacity="0.28827"/>
<path opacity="0.129255" d="M55.1736 61.1268C49.197 61.1268 54.3015 55.1701 47.612 55.1701C39.4455 55.1701 43.9308 49.3918 38.0692 49.8279C32.2076 50.2641 33.5913 42.7757 29.3699 44.5897C25.1484 46.4036 19.2628 44.2518 16.1504 36.529C14.5941 32.6673 19.608 21.0057 32.3177 19.7763C45.0274 18.5469 53.3473 3.19729 62.0408 8.26583C81.5724 19.6533 65.8568 61.1268 55.1736 61.1268Z" fill="url(#paint9_linear)"/>
<path opacity="0.134673" d="M20.5408 47.5855C20.8901 46.7872 20.6773 45.8392 19.069 45.461C17.4608 45.0828 12.8261 45.9583 15.3269 46.2192C19.4064 46.6446 17.8694 49.0178 18.5616 49.0178C19.2538 49.0178 20.1916 48.3839 20.5408 47.5855Z" fill="url(#paint10_linear)"/>
<path fill-rule="evenodd" clip-rule="evenodd" d="M58.6502 49.3722C52.6227 50.6412 54.8981 44.3007 53.7811 43.1335C49.8248 38.9994 43.6396 48.5721 39.401 43.1335C35.1625 37.6949 27.2047 41.4611 23.8909 38.4204C18.3082 33.298 22.2454 27.8553 38.2436 22.4358C45.6147 19.9388 50.0789 13.6146 56.2472 12.3116C71.9847 8.98726 65.6924 47.8896 58.6502 49.3722Z" fill="#9FB3F4" fill-opacity="0.0742188" stroke="#733DFF" stroke-opacity="0.448836" stroke-width="0.6"/>
<path fill-rule="evenodd" clip-rule="evenodd" d="M31.9866 31.8159C32.5836 29.5618 28.088 29.4687 26.9741 33.2929C25.8602 37.1171 31.3895 34.07 31.9866 31.8159Z" fill="#9FB3F4" fill-opacity="0.0742188" stroke="#733DFF" stroke-opacity="0.448836" stroke-width="0.6"/>
<path fill-rule="evenodd" clip-rule="evenodd" d="M54.5627 18.0764C48.3965 21.2414 50.9892 25.2827 43.582 25.8127C36.1747 26.3427 38.8896 30.851 35.0091 34.5472C31.1286 38.2434 39.6678 35.0031 41.752 38.5756C43.8362 42.1481 48.8669 34.1884 58.0209 37.6252C60.9125 38.7108 62.3173 30.1615 61.7999 25.2311C61.2618 20.1037 57.7063 16.4629 54.5627 18.0764Z" fill="#9FB3F4" fill-opacity="0.0742188" stroke="#733DFF" stroke-opacity="0.448836" stroke-width="0.6"/>
<path opacity="0.0602679" d="M38.5313 52.5044C36.072 51.3225 33.8858 54.3369 32.0408 52.1633C30.1959 49.9897 28.7067 46.4757 23.1747 49.8544C17.6428 53.233 20.0469 58.7867 24.4989 59.6635C28.9509 60.5403 35.4892 58.1377 39.296 58.8813C43.1028 59.625 42.3942 61.1268 45.2043 61.1268C48.0145 61.1268 49.4181 56.7402 45.2043 56.7402C40.9906 56.7402 40.9906 53.6862 38.5313 52.5044Z" fill="url(#paint11_linear)"/>
<path opacity="0.570103" d="M36.524 79.9075C36.524 79.9075 33.3226 79.7853 33.1388 78.9891C32.955 78.1929 32.6812 77.2298 29.2069 76.8171C25.7326 76.4043 26.2559 80.0496 26.2559 80.0496L32.7397 82.5262L36.524 79.9075Z" fill="url(#paint12_linear)"/>
<path d="M46.2614 80.6032C46.2614 80.6032 44.2753 81.5961 43.1434 81.8575C42.0116 82.1188 38.5989 81.1735 37.3735 82.2885C36.1481 83.4035 33.5519 83.0948 32.4616 84.3236C31.3713 85.5524 29.0554 83.2263 27.8616 82.5791C26.6677 81.9319 24.1754 76.9869 24.1754 76.9869C24.1754 76.9869 32.9403 77.7 31.7475 78.4715C31.1105 78.8835 32.3999 80.4778 34.8781 79.9057C36.0524 79.6346 38.3346 79.7349 39.1168 79.9806C40.7952 80.5078 46.2614 80.6032 46.2614 80.6032Z" fill="url(#paint13_radial)"/>
<path opacity="0.74349" d="M27.9051 82.6034L27.8614 82.5792C27.43 82.3454 26.8716 81.6909 26.1861 80.6157L26.3169 78.3766C27.4622 78.201 28.2736 78.1846 28.7511 78.3273C29.4601 78.5391 28.301 79.2338 29.4551 81.4632L29.4908 81.5312C29.9012 82.3036 29.7996 82.9535 29.1858 83.4811L28.6626 83.105C28.3835 82.9055 28.1263 82.7279 27.9051 82.6034Z" fill="url(#paint14_linear)"/>
<path opacity="0.570103" d="M40.9653 81.0378C40.0346 80.8823 39.4664 80.2143 38.5076 80.4067L38.4539 80.4183C37.8951 80.5473 37.4776 80.3251 37.2014 79.7515L37.3296 79.756C38.0527 79.7843 38.7164 79.8629 39.085 79.9715L39.1168 79.9811C39.9256 80.2352 41.3941 80.414 43.5224 80.5177L43.3895 80.5643C42.25 80.9597 41.4419 81.1175 40.9653 81.0378Z" fill="url(#paint15_linear)"/>
<path opacity="0.74349" d="M31.581 81.4591C30.8021 81.1458 30.8088 80.2892 31.6009 78.8895C31.7467 79.4836 32.931 80.3322 34.8196 79.9187L34.8777 79.9057C35.1545 79.8418 35.493 79.7985 35.8589 79.7729C33.8158 81.2225 32.3899 81.7846 31.581 81.4591Z" fill="url(#paint16_linear)"/>
<defs>
<linearGradient id="paint0_linear" x1="-13.107" y1="105.966" x2="98.1013" y2="102.921" gradientUnits="userSpaceOnUse">
<stop stop-color="#3C003B"/>
<stop offset="1" stop-color="#4A10FF"/>
</linearGradient>
<linearGradient id="paint1_linear" x1="31.9943" y1="78.4662" x2="79.2541" y2="78.4662" gradientUnits="userSpaceOnUse">
<stop stop-color="#5A168D" stop-opacity="0.01"/>
<stop offset="1" stop-color="#FFDD32"/>
</linearGradient>
<linearGradient id="paint2_linear" x1="54.2363" y1="79.4724" x2="68.6377" y2="40.6012" gradientUnits="userSpaceOnUse">
<stop stop-color="#3C003B"/>
<stop offset="1" stop-color="#3E00FF"/>
</linearGradient>
<linearGradient id="paint3_linear" x1="48.8445" y1="79.8003" x2="59.9597" y2="49.1003" gradientUnits="userSpaceOnUse">
<stop stop-color="#3C003B"/>
<stop offset="1" stop-color="#3E00FF"/>
</linearGradient>
<linearGradient id="paint4_linear" x1="-8.13669" y1="60.2214" x2="50.6305" y2="106.313" gradientUnits="userSpaceOnUse">
<stop stop-color="#3B004E"/>
<stop offset="1" stop-color="#FFA7A7"/>
</linearGradient>
<linearGradient id="paint5_linear" x1="2.90511" y1="74.9646" x2="44.4066" y2="74.9646" gradientUnits="userSpaceOnUse">
<stop stop-color="#3C003B"/>
<stop offset="1" stop-color="#3E00FF"/>
</linearGradient>
<linearGradient id="paint6_linear" x1="6.62629" y1="27.9323" x2="89.4423" y2="27.9323" gradientUnits="userSpaceOnUse">
<stop stop-color="#3C003B"/>
<stop offset="1" stop-color="#3E00FF"/>
</linearGradient>
<linearGradient id="paint7_linear" x1="-13.3733" y1="12.3264" x2="0.0360088" y2="59.0947" gradientUnits="userSpaceOnUse">
<stop stop-color="#3C003B"/>
<stop offset="1" stop-color="#3E00FF"/>
</linearGradient>
<linearGradient id="paint8_linear" x1="15.6952" y1="69.5923" x2="14.9349" y2="66.9192" gradientUnits="userSpaceOnUse">
<stop stop-color="#3C003B"/>
<stop offset="1" stop-color="#3E00FF"/>
</linearGradient>
<linearGradient id="paint9_linear" x1="26.3936" y1="49.7923" x2="73.2472" y2="63.7084" gradientUnits="userSpaceOnUse">
<stop stop-color="#AB3438"/>
<stop offset="1" stop-color="#FFA7A7"/>
</linearGradient>
<linearGradient id="paint10_linear" x1="18.0651" y1="56.2206" x2="37.3282" y2="39.1531" gradientUnits="userSpaceOnUse">
<stop stop-color="#AB3438"/>
<stop offset="1" stop-color="#FFA7A7"/>
</linearGradient>
<linearGradient id="paint11_linear" x1="13.2781" y1="54.0908" x2="20.3282" y2="72.3839" gradientUnits="userSpaceOnUse">
<stop stop-color="#AB3438"/>
<stop offset="1" stop-color="#FFA7A7"/>
</linearGradient>
<linearGradient id="paint12_linear" x1="35.8658" y1="79.8106" x2="39.2581" y2="69.4396" gradientUnits="userSpaceOnUse">
<stop stop-color="#2B002B"/>
<stop offset="1" stop-color="#120343"/>
</linearGradient>
<radialGradient id="paint13_radial" cx="0" cy="0" r="1" gradientUnits="userSpaceOnUse" gradientTransform="translate(29.3298 78.9687) rotate(9.37109) scale(34.2312 24.1681)">
<stop stop-color="#3C003B"/>
<stop offset="0.723428" stop-color="#3D00C0"/>
<stop offset="1" stop-color="#AC4DBB"/>
</radialGradient>
<linearGradient id="paint14_linear" x1="32.0516" y1="78.4944" x2="24.1033" y2="64.7315" gradientUnits="userSpaceOnUse">
<stop stop-color="#280028"/>
<stop offset="1" stop-color="#3E00FF"/>
</linearGradient>
<linearGradient id="paint15_linear" x1="43.0349" y1="80.0486" x2="43.4648" y2="75.9678" gradientUnits="userSpaceOnUse">
<stop stop-color="#2B002B"/>
<stop offset="1" stop-color="#120343"/>
</linearGradient>
<linearGradient id="paint16_linear" x1="40.1144" y1="77.6313" x2="37.5335" y2="69.9369" gradientUnits="userSpaceOnUse">
<stop stop-color="#280028"/>
<stop offset="1" stop-color="#3E00FF"/>
</linearGradient>
</defs>
</svg>
