<svg width="73" height="147" viewBox="0 0 73 147" fill="none" xmlns="http://www.w3.org/2000/svg">
<path d="M-0.5 147C40.0929 147 73 114.093 73 73.5C73 32.9071 40.0929 0 -0.5 0C-41.0929 0 -74 32.9071 -74 73.5C-74 114.093 -41.0929 147 -0.5 147Z" fill="url(#paint0_linear)"/>
<path opacity="0.244001" fill-rule="evenodd" clip-rule="evenodd" d="M60.975 113.803C47.8397 133.798 25.2117 147 -0.499868 147C-7.95203 147 -15.1452 145.891 -21.9232 143.829C-17.0372 141.699 -8.53966 137.897 -5.23072 135.816C-1.8854 133.711 1.18618 131.706 4.06151 129.828C13.9731 123.356 21.5528 118.407 29.975 116.175C46.882 111.694 57.2901 113.026 60.975 113.803Z" fill="url(#paint1_linear)"/>
<path opacity="0.506975" fill-rule="evenodd" clip-rule="evenodd" d="M59.0976 116.525C55.0841 117.069 50.556 117.931 45.5682 119.253C26.2594 124.369 6.7917 143.124 3.00085 146.918C26.0852 145.836 46.3847 134.104 59.0976 116.525Z" fill="url(#paint2_linear)"/>
<path opacity="0.193522" fill-rule="evenodd" clip-rule="evenodd" d="M62.1364 35.0232C49.2006 14.0098 25.9865 0 -0.499862 0C-4.91609 0 -9.24136 0.389487 -13.4432 1.13598C-9.93165 13.3411 -1.36725 34.7561 14.8521 31.1246C34.8637 26.6441 37.2662 28.5494 47.7895 36.8952C49.0859 37.9233 50.5054 39.0491 52.0963 40.2727C58.3993 45.1207 61.0988 41.1097 62.1364 35.0232Z" fill="url(#paint3_linear)"/>
<path opacity="0.150902" fill-rule="evenodd" clip-rule="evenodd" d="M54.7406 25.0143C41.27 9.67926 21.5153 0 -0.500074 0C-2.35373 0 -4.19136 0.0686194 -6.01056 0.203457C-3.2224 9.94484 3.62701 27.204 16.6405 24.2896C32.6389 20.7067 34.5596 22.2303 42.9725 28.904C44.0089 29.7261 45.1438 30.6264 46.4156 31.6049C52.2452 36.0899 54.2191 31.0932 54.7406 25.0143Z" fill="url(#paint4_linear)"/>
<path opacity="0.477214" fill-rule="evenodd" clip-rule="evenodd" d="M-19.8221 2.56685C-51.0415 11.0508 -74 39.5946 -74 73.5007C-74 103.145 -56.4498 128.691 -31.1726 140.314C-1.62583 130.054 19.5837 101.967 19.5837 68.9264C19.5837 40.2942 3.65614 15.3821 -19.8221 2.56685Z" fill="url(#paint5_linear)"/>
<path opacity="0.180315" fill-rule="evenodd" clip-rule="evenodd" d="M-41.8641 134.264C-28.5058 140.273 -14.5653 133.475 2.74224 125.035C17.5822 117.798 34.8975 109.354 56.4438 106.741C59.9265 106.318 63.0989 105.688 65.9836 104.88C70.4834 95.3635 72.9999 84.7257 72.9999 73.5C72.9999 66.0585 71.894 58.8752 69.8376 52.1056C67.5167 52.8405 65.1852 53.7596 62.9364 54.6461C57.0646 56.9608 51.7561 59.0534 48.6708 57.066C45.9488 55.3127 45.5087 52.4899 45.023 49.3742C44.3153 44.8339 43.5105 39.6717 35.4064 36.2904C28.9502 33.5968 21.0517 34.6581 13.8397 35.6271C5.7863 36.7092 -1.41088 37.6763 -4.78705 33.1711C-11.1866 24.6315 -20.7014 13.2937 -44.1709 33.7264C-66.685 53.3272 -70.3162 100.684 -54.2148 123.67C-50.5071 127.638 -46.3649 131.195 -41.8641 134.264Z" fill="url(#paint6_linear)"/>
<path fill-rule="evenodd" clip-rule="evenodd" d="M71.6215 59.2604C63.3525 63.9017 52.3645 71.7018 55.2294 79.1783C57.4936 85.0871 54.7598 90.0393 52.5676 94.0104C50.4296 97.8835 48.8067 100.823 52.8385 102.807C55.7747 104.251 60.7296 104.89 65.8718 105.116C70.4416 95.5392 72.9999 84.8184 72.9999 73.5002C72.9999 68.6283 72.5259 63.8672 71.6215 59.2604Z" fill="url(#paint7_linear)"/>
<path d="M59.2354 45.8418C62.4163 46.4601 64.6986 48.4863 64.3329 50.3675C64.2447 50.8215 64.0103 51.2255 63.6608 51.5686C64.1535 52.0997 64.3936 52.7004 64.2806 53.2817C64.018 54.6327 61.9474 55.3669 59.6557 54.9214C57.5825 54.5184 56.0386 53.288 55.9576 52.0567C53.8529 51.1498 52.5287 49.595 52.8137 48.1284C53.1794 46.2472 56.0545 45.2235 59.2354 45.8418Z" fill="url(#paint8_linear)"/>
<path opacity="0.547224" d="M58.8673 46.4127C62.0482 47.031 64.3305 49.0573 63.9648 50.9385C63.8766 51.3924 63.6422 51.7964 63.2927 52.1395C63.7854 52.6706 64.0255 53.2714 63.9125 53.8527C63.6499 55.2037 61.5793 55.9378 59.2876 55.4924C57.2143 55.0894 55.6705 53.859 55.5895 52.6277C53.4848 51.7207 52.1606 50.166 52.4456 48.6994C52.8113 46.8182 55.6864 45.7944 58.8673 46.4127Z" fill="black" fill-opacity="0.28827"/>
<path d="M61.25 45.9767C64.6277 46.6332 67.0524 48.7776 66.6659 50.7663C66.5726 51.2462 66.3241 51.6732 65.9533 52.0356C66.477 52.5977 66.7324 53.233 66.6129 53.8475C66.3729 55.0821 64.6981 55.8281 62.6766 55.7022C64.3712 55.6351 65.6962 54.9266 65.9076 53.8389C66.027 53.2245 65.7717 52.5891 65.248 52.0271C65.6188 51.6646 65.8673 51.2377 65.9606 50.7578C66.3471 48.7691 63.9223 46.6247 60.5446 45.9681C60.041 45.8702 59.5447 45.8109 59.0633 45.7875C59.7588 45.7701 60.4962 45.8302 61.25 45.9767Z" fill="black" fill-opacity="0.28827"/>
<path d="M11.289 18.3622C13.7399 19.2922 15.8348 17.5172 15.8348 17.0816C15.8348 16.6461 14.027 16.293 11.797 16.293C9.56702 16.293 7.75925 16.6461 7.75925 17.0816C7.75925 17.5172 8.83821 17.4321 11.289 18.3622Z" fill="black" fill-opacity="0.28827"/>
<path d="M7.35079 16.6285C7.903 17.9263 9.99588 16.3453 10.4486 16.9339C10.9014 17.5225 10.672 18.0235 11.6936 18.1463C12.7153 18.2691 12.8159 17.1493 13.8208 17.0877C14.8257 17.0261 15.4211 17.2553 15.7712 16.2023C16.1214 15.1492 14.5025 14.7125 14.4197 14.2869C14.337 13.8613 14.3686 12.7574 13.6577 12.5921C12.9468 12.4268 12.6589 12.4478 11.0363 13.4051C9.41381 14.3625 6.79859 15.3308 7.35079 16.6285Z" fill="url(#paint9_linear)"/>
<path opacity="0.180315" d="M10.9685 13.4454L11.2701 13.2689C12.6889 12.4466 12.9825 12.4354 13.6579 12.5925C13.8146 12.6289 13.9353 12.711 14.029 12.8214C13.6384 12.7757 13.2139 12.8456 12.7558 13.031L12.6835 13.0616C12.035 13.3464 10.2357 14.3757 7.28554 16.1495C7.44466 15.1022 9.55161 14.2681 10.9685 13.4454Z" fill="url(#paint10_linear)"/>
<path d="M14.2983 13.4425L14.302 13.4595C14.3688 13.7746 14.3829 14.0978 14.4197 14.2869C14.4323 14.3516 14.4804 14.4166 14.5516 14.4839C14.1726 14.5384 13.9328 14.6566 13.8323 14.8384C13.5037 15.4325 14.0998 15.757 13.9646 16.4326C13.9309 16.6013 13.8504 16.823 13.7232 17.0975C12.8081 17.2231 12.681 18.265 11.6936 18.1463C10.9356 18.0553 10.8663 17.7559 10.6961 17.3671C11.0826 17.241 11.3575 17.0879 11.5211 16.9076C11.9925 16.3882 11.4974 14.5179 12.4814 13.9035C12.9387 13.618 13.5443 13.4643 14.2983 13.4425Z" fill="black" fill-opacity="0.28827"/>
<path opacity="0.150902" d="M46.077 26.0009C47.2119 26.6829 48.3793 26.8241 48.6844 26.3164C48.9895 25.8086 48.0694 25.2558 47.1818 24.1622C46.2941 23.0687 44.8795 23.3391 44.5744 23.8468C44.2693 24.3546 44.942 25.319 46.077 26.0009Z" fill="url(#paint11_linear)"/>
<path d="M45.8822 26.3259C47.0171 27.0078 48.1845 27.149 48.4896 26.6413C48.7946 26.1336 47.8945 25.5477 46.987 24.4872C46.0795 23.4267 44.6847 23.664 44.3796 24.1718C44.0745 24.6795 44.7472 25.6439 45.8822 26.3259Z" fill="url(#paint12_linear)"/>
<path opacity="0.129255" d="M-27.1295 36.0675C-16.2831 36.0675 -25.547 46.8778 -13.4067 46.8778C1.41397 46.8778 -6.72597 57.3644 3.91176 56.5729C14.5495 55.7814 12.0383 69.3713 19.6995 66.0794C27.3607 62.7874 38.0419 66.6926 43.6904 80.7081C46.5148 87.7163 37.4156 108.88 14.3497 111.111C-8.71616 113.342 -23.8152 141.199 -39.5923 132.001C-75.0388 111.334 -46.5177 36.0675 -27.1295 36.0675Z" fill="url(#paint13_linear)"/>
<path opacity="0.134673" d="M35.7222 60.6423C35.0883 62.0911 35.4746 63.8115 38.3933 64.4979C41.312 65.1843 49.7231 63.5953 45.1845 63.122C37.781 62.3499 40.5705 58.0429 39.3142 58.0429C38.0579 58.0429 36.3561 59.1934 35.7222 60.6423Z" fill="url(#paint14_linear)"/>
<path fill-rule="evenodd" clip-rule="evenodd" d="M-33.4391 57.3999C-22.5002 55.0969 -26.6296 66.6039 -24.6024 68.7221C-17.4224 76.2247 -6.19736 58.8521 1.49484 68.7221C9.18704 78.5921 23.6289 71.7572 29.6429 77.2754C39.7745 86.5716 32.6293 96.4493 3.59529 106.285C-9.78194 110.816 -17.8836 122.294 -29.0779 124.658C-57.6386 130.691 -46.2193 60.0906 -33.4391 57.3999Z" fill="#9FB3F4" fill-opacity="0.0742188" stroke="#733DFF" stroke-opacity="0.448836" stroke-width="0.6"/>
<path fill-rule="evenodd" clip-rule="evenodd" d="M14.9504 89.2612C13.8669 93.352 22.0256 93.5209 24.0471 86.5807C26.0685 79.6405 16.0339 85.1704 14.9504 89.2612Z" fill="#9FB3F4" fill-opacity="0.0742188" stroke="#733DFF" stroke-opacity="0.448836" stroke-width="0.6"/>
<path fill-rule="evenodd" clip-rule="evenodd" d="M-26.0215 118.507C-14.831 112.763 -19.5363 105.429 -6.09341 104.467C7.34944 103.505 2.42232 95.3234 9.46478 88.6155C16.5072 81.9075 1.01002 87.788 -2.77244 81.3046C-6.55491 74.8212 -15.6846 89.2665 -32.2976 83.0295C-37.5453 81.0593 -40.0947 96.5748 -39.1557 105.522C-38.1792 114.828 -31.7265 121.435 -26.0215 118.507Z" fill="#9FB3F4" fill-opacity="0.0742188" stroke="#733DFF" stroke-opacity="0.448836" stroke-width="0.6"/>
<path opacity="0.0602679" d="M3.07288 51.7148C7.53608 53.8596 11.5036 48.3891 14.8519 52.3338C18.2001 56.2785 20.9028 62.6557 30.9422 56.5241C40.9817 50.3924 36.6187 40.3135 28.5391 38.7222C20.4595 37.131 8.59367 41.4914 1.68505 40.1417C-5.22356 38.792 -3.93762 36.0666 -9.03751 36.0666C-14.1374 36.0666 -16.6847 44.0275 -9.03751 44.0275C-1.39032 44.0275 -1.39032 49.57 3.07288 51.7148Z" fill="url(#paint15_linear)"/>
<path d="M21.2786 53.3693C23.1776 53.3693 24.717 52.7338 24.717 51.9498C24.717 51.1658 23.1776 50.5302 21.2786 50.5302C19.3796 50.5302 17.8402 51.1658 17.8402 51.9498C17.8402 52.7338 19.3796 53.3693 21.2786 53.3693Z" fill="black" fill-opacity="0.28827"/>
<path d="M22.0677 51.5309C21.8119 51.631 20.1353 53.2683 19.2935 52.9867C18.4517 52.7052 16.8145 51.5486 17.1401 50.9846C17.4657 50.4206 18.6036 49.9798 18.3463 49.3824C18.089 48.785 19.0102 48.6329 19.0102 48.6329C19.0102 48.6329 18.7484 48.199 19.1741 47.9486C19.5998 47.6983 22.9544 46.7489 23.2248 47.1723C23.4952 47.5957 22.9207 48.1907 22.9207 48.1907C22.9207 48.1907 24.0501 48.9232 23.975 49.3179C23.8999 49.7126 23.6555 49.8947 23.5842 50.3751C23.513 50.8555 23.3801 51.627 22.9943 51.6558C22.6085 51.6847 22.3235 51.4309 22.0677 51.5309Z" fill="url(#paint16_linear)"/>
<path opacity="0.180315" d="M19.3461 48.886C19.541 49.0765 19.3804 49.4674 18.8645 50.0588C18.9204 49.6903 18.9359 49.411 18.9109 49.2209C18.8933 49.0875 18.8443 48.9099 18.7638 48.688C18.8372 48.6661 18.9194 48.6478 19.0103 48.6328C19.0016 48.6183 18.9934 48.604 18.9858 48.5898C19.1183 48.6818 19.2382 48.7806 19.3461 48.886Z" fill="url(#paint17_linear)"/>
<path opacity="0.180315" d="M22.9207 48.1912C23.1311 48.3277 23.3102 48.4554 23.4579 48.5743L22.4582 50.1124C22.3084 49.4943 22.2588 49.0628 22.3094 48.8179C22.3471 48.6357 22.5614 48.4157 22.9523 48.1577L22.9207 48.1912Z" fill="url(#paint18_linear)"/>
<path d="M19.2935 52.9869C18.8387 52.8347 18.1515 52.427 17.6673 51.9954C18.2499 51.9542 19.3638 52.1453 19.6495 52.192C20.0536 52.2579 20.2872 51.3991 20.5798 51.1559C20.7461 51.0176 21.2324 51.1474 22.0385 51.5454C21.7056 51.7338 20.1084 53.2594 19.2935 52.9869Z" fill="black" fill-opacity="0.28827"/>
<defs>
<linearGradient id="paint0_linear" x1="92.6943" y1="-0.961794" x2="-71.2143" y2="-0.961794" gradientUnits="userSpaceOnUse">
<stop stop-color="#3C004A"/>
<stop offset="1" stop-color="#FF3F87"/>
</linearGradient>
<linearGradient id="paint1_linear" x1="60.975" y1="96.3099" x2="-89.3189" y2="96.3099" gradientUnits="userSpaceOnUse">
<stop stop-color="#3C003B"/>
<stop offset="1" stop-color="#3E00FF"/>
</linearGradient>
<linearGradient id="paint2_linear" x1="58.4252" y1="143.667" x2="54.7047" y2="119.561" gradientUnits="userSpaceOnUse">
<stop stop-color="#FF3F5D"/>
<stop offset="1" stop-color="#FF3F87" stop-opacity="0.179223"/>
</linearGradient>
<linearGradient id="paint3_linear" x1="-0.107308" y1="44.0509" x2="16.9227" y2="10.6869" gradientUnits="userSpaceOnUse">
<stop stop-color="#FFD73F"/>
<stop offset="1" stop-color="#FF3F87" stop-opacity="0.179223"/>
</linearGradient>
<linearGradient id="paint4_linear" x1="-15.644" y1="2.17907" x2="-35.8164" y2="57.8947" gradientUnits="userSpaceOnUse">
<stop stop-color="#3C003B"/>
<stop offset="1" stop-color="#3E00FF"/>
</linearGradient>
<linearGradient id="paint5_linear" x1="14.9364" y1="4.59934" x2="-70.8316" y2="4.59934" gradientUnits="userSpaceOnUse">
<stop stop-color="#5A168D" stop-opacity="0.01"/>
<stop offset="1" stop-color="#FFDD32"/>
</linearGradient>
<linearGradient id="paint6_linear" x1="87.7669" y1="37.7096" x2="-18.8848" y2="-45.9382" gradientUnits="userSpaceOnUse">
<stop stop-color="#3B004E"/>
<stop offset="1" stop-color="#FFA7A7"/>
</linearGradient>
<linearGradient id="paint7_linear" x1="71.2313" y1="68.087" x2="48.081" y2="66.46" gradientUnits="userSpaceOnUse">
<stop stop-color="#3C003B"/>
<stop offset="1" stop-color="#6A1159"/>
</linearGradient>
<linearGradient id="paint8_linear" x1="77.1603" y1="44.1853" x2="50.9282" y2="19.7024" gradientUnits="userSpaceOnUse">
<stop stop-color="#3C004A"/>
<stop offset="1" stop-color="#FF3F87"/>
</linearGradient>
<linearGradient id="paint9_linear" x1="18.0222" y1="12.8076" x2="9.53003" y2="9.15403" gradientUnits="userSpaceOnUse">
<stop stop-color="#3C004A"/>
<stop offset="1" stop-color="#FF3F87"/>
</linearGradient>
<linearGradient id="paint10_linear" x1="15.9036" y1="13.3495" x2="14.0984" y2="9.83466" gradientUnits="userSpaceOnUse">
<stop stop-color="#9134AB"/>
<stop offset="1" stop-color="white"/>
</linearGradient>
<linearGradient id="paint11_linear" x1="44.4654" y1="22.5519" x2="41.3961" y2="25.2781" gradientUnits="userSpaceOnUse">
<stop stop-color="#3C003B"/>
<stop offset="1" stop-color="#3E00FF"/>
</linearGradient>
<linearGradient id="paint12_linear" x1="48.5564" y1="25.8028" x2="45.3876" y2="22.3081" gradientUnits="userSpaceOnUse">
<stop stop-color="#3C003B"/>
<stop offset="1" stop-color="#6A1159"/>
</linearGradient>
<linearGradient id="paint13_linear" x1="25.1008" y1="56.6376" x2="-59.93" y2="31.3824" gradientUnits="userSpaceOnUse">
<stop stop-color="#AB3438"/>
<stop offset="1" stop-color="#FFA7A7"/>
</linearGradient>
<linearGradient id="paint14_linear" x1="40.2153" y1="44.9711" x2="5.25625" y2="75.9457" gradientUnits="userSpaceOnUse">
<stop stop-color="#AB3438"/>
<stop offset="1" stop-color="#FFA7A7"/>
</linearGradient>
<linearGradient id="paint15_linear" x1="48.9029" y1="48.8357" x2="36.1082" y2="15.637" gradientUnits="userSpaceOnUse">
<stop stop-color="#AB3438"/>
<stop offset="1" stop-color="#FFA7A7"/>
</linearGradient>
<linearGradient id="paint16_linear" x1="25.8523" y1="50.5858" x2="21.2637" y2="45.3815" gradientUnits="userSpaceOnUse">
<stop stop-color="#3C004A"/>
<stop offset="1" stop-color="#FF3F87"/>
</linearGradient>
<linearGradient id="paint17_linear" x1="19.41" y1="49.689" x2="18.8914" y2="48.4614" gradientUnits="userSpaceOnUse">
<stop stop-color="#9134AB"/>
<stop offset="1" stop-color="white"/>
</linearGradient>
<linearGradient id="paint18_linear" x1="23.1587" y1="49.5203" x2="22.3571" y2="48.2143" gradientUnits="userSpaceOnUse">
<stop stop-color="#9134AB"/>
<stop offset="1" stop-color="white"/>
</linearGradient>
</defs>
</svg>
