<svg width="40" height="40" viewBox="0 0 40 40" fill="none" xmlns="http://www.w3.org/2000/svg">
<path d="M10 13.125C9.50272 13.125 9.02581 13.3225 8.67417 13.6742C8.32254 14.0258 8.125 14.5027 8.125 15H9.375C9.375 14.8342 9.44085 14.6753 9.55806 14.5581C9.67527 14.4408 9.83424 14.375 10 14.375C10.1658 14.375 10.3247 14.4408 10.4419 14.5581C10.5592 14.6753 10.625 14.8342 10.625 15H11.875C11.875 14.5027 11.6775 14.0258 11.3258 13.6742C10.9742 13.3225 10.4973 13.125 10 13.125Z" fill="#92A5B5"/>
<path d="M15.625 15H16.875C16.875 14.8342 16.9408 14.6753 17.0581 14.5581C17.1753 14.4408 17.3342 14.375 17.5 14.375C17.6658 14.375 17.8247 14.4408 17.9419 14.5581C18.0592 14.6753 18.125 14.8342 18.125 15H19.375C19.375 14.5027 19.1775 14.0258 18.8258 13.6742C18.4742 13.3225 17.9973 13.125 17.5 13.125C17.0027 13.125 16.5258 13.3225 16.1742 13.6742C15.8225 14.0258 15.625 14.5027 15.625 15Z" fill="#92A5B5"/>
<path d="M13.75 19.375C13.5842 19.375 13.4253 19.3092 13.3081 19.1919C13.1908 19.0747 13.125 18.9158 13.125 18.75H11.875C11.875 19.2473 12.0725 19.7242 12.4242 20.0758C12.7758 20.4275 13.2527 20.625 13.75 20.625C14.2473 20.625 14.7242 20.4275 15.0758 20.0758C15.4275 19.7242 15.625 19.2473 15.625 18.75H14.375C14.375 18.9158 14.3092 19.0747 14.1919 19.1919C14.0747 19.3092 13.9158 19.375 13.75 19.375Z" fill="#92A5B5"/>
<path d="M36.875 23.7501H23.7625L23.75 15.6063C24.1555 15.0725 24.3751 14.4205 24.3751 13.7501C24.3751 13.0797 24.1555 12.4277 23.75 11.8938V8.38759C23.7513 7.40793 23.5429 6.43933 23.1387 5.54689C22.7346 4.65446 22.1442 3.85884 21.4071 3.21352C20.67 2.56819 19.8033 2.0881 18.8653 1.8055C17.9273 1.5229 16.9397 1.44434 15.9688 1.57509L13.75 1.86884L11.5312 1.57509C10.5603 1.44434 9.5727 1.5229 8.63468 1.8055C7.69666 2.0881 6.82998 2.56819 6.09289 3.21352C5.3558 3.85884 4.76536 4.65446 4.36126 5.54689C3.95715 6.43933 3.74873 7.40793 3.75 8.38759V11.8938C3.34447 12.4277 3.12493 13.0797 3.12493 13.7501C3.12493 14.4205 3.34447 15.0725 3.75 15.6063L3.76875 26.9688L2.63125 27.2751C2.23486 27.3852 1.88535 27.622 1.63598 27.9492C1.38661 28.2764 1.25107 28.6762 1.25 29.0876V38.1251C1.25 38.2909 1.31585 38.4498 1.43306 38.567C1.55027 38.6842 1.70924 38.7501 1.875 38.7501H38.125C38.2908 38.7501 38.4497 38.6842 38.5669 38.567C38.6842 38.4498 38.75 38.2909 38.75 38.1251V25.6251C38.7485 25.1283 38.5505 24.6522 38.1992 24.3009C37.8479 23.9496 37.3718 23.7516 36.875 23.7501ZM5.625 15.5126C5.32712 15.4072 5.0607 15.2282 4.8505 14.9923C4.64031 14.7563 4.49314 14.4711 4.42268 14.1631C4.35222 13.8551 4.36075 13.5342 4.44748 13.2304C4.5342 12.9265 4.69631 12.6495 4.91875 12.4251C5.11976 12.2299 5.36072 12.0806 5.625 11.9876V15.5126ZM21.875 11.9876C22.1358 12.081 22.3743 12.2279 22.575 12.4188C22.9265 12.7728 23.1242 13.2512 23.125 13.7501C23.1232 14.136 23.0021 14.5119 22.7783 14.8263C22.5545 15.1407 22.239 15.3782 21.875 15.5063V11.9876ZM6.875 11.7188L16.7562 8.81259L20.625 11.5688V15.6251C20.625 17.4485 19.9007 19.1971 18.6114 20.4865C17.322 21.7758 15.5734 22.5001 13.75 22.5001C11.9266 22.5001 10.178 21.7758 8.88864 20.4865C7.59933 19.1971 6.875 17.4485 6.875 15.6251V11.7188ZM18.75 37.5001H13.125C12.9592 37.5001 12.8003 37.4342 12.6831 37.317C12.5658 37.1998 12.5 37.0409 12.5 36.8751V36.2501H18.75V37.5001ZM18.75 28.4626C17.2991 29.5137 15.5408 30.0544 13.75 30.0001C10.9312 30.0001 8.45 28.8126 7.725 27.2126L11.4125 26.2313C11.5457 26.1955 11.6633 26.1166 11.7469 26.0069C11.8306 25.8973 11.8756 25.763 11.875 25.6251V23.5251C13.107 23.8251 14.393 23.8251 15.625 23.5251V25.6251C15.6244 25.763 15.6694 25.8973 15.7531 26.0069C15.8367 26.1166 15.9543 26.1955 16.0875 26.2313L18.75 26.9376V28.4626ZM37.5 37.5001H20V25.6251C20 25.4593 20.0658 25.3004 20.1831 25.1832C20.3003 25.0659 20.4592 25.0001 20.625 25.0001H36.875C37.0408 25.0001 37.1997 25.0659 37.3169 25.1832C37.4342 25.3004 37.5 25.4593 37.5 25.6251V37.5001Z" fill="#92A5B5"/>
<path d="M28.75 32.5C29.4404 32.5 30 31.9404 30 31.25C30 30.5596 29.4404 30 28.75 30C28.0596 30 27.5 30.5596 27.5 31.25C27.5 31.9404 28.0596 32.5 28.75 32.5Z" fill="#92A5B5"/>
<path d="M21.875 35H23.125V36.25H21.875V35Z" fill="#92A5B5"/>
<path d="M24.375 35H25.625V36.25H24.375V35Z" fill="#92A5B5"/>
<path d="M26.875 35H28.125V36.25H26.875V35Z" fill="#92A5B5"/>
<path d="M29.375 35H30.625V36.25H29.375V35Z" fill="#92A5B5"/>
<path d="M31.875 35H33.125V36.25H31.875V35Z" fill="#92A5B5"/>
<path d="M34.375 35H35.625V36.25H34.375V35Z" fill="#92A5B5"/>
</svg>
