<svg width="40" height="40" viewBox="0 0 40 40" fill="none" xmlns="http://www.w3.org/2000/svg">
<g clip-path="url(#clip0)">
<path d="M13.3337 25C14.7145 25 15.8337 23.8807 15.8337 22.5C15.8337 21.1193 14.7145 20 13.3337 20C11.953 20 10.8337 21.1193 10.8337 22.5C10.8337 23.8807 11.953 25 13.3337 25Z" fill="#92A5B5"/>
<path d="M37.135 18.2718C37.325 16.6318 37.5 14.7635 37.5 13.4785C37.5 4.26683 26.7667 0.833496 20 0.833496C15.61 0.833496 12.4417 3.1885 11.3767 4.1035C8.04333 4.29516 2.5 6.41683 2.5 13.4785C2.5 14.7818 2.67333 16.6418 2.86167 18.2735C1.17333 18.9635 0 20.5968 0 22.5002C0 24.9068 1.87167 26.8652 4.23167 27.0485C6.49 33.6035 12.6983 38.3335 20 38.3335C27.3017 38.3335 33.51 33.6052 35.7683 27.0485C38.13 26.8652 40 24.9068 40 22.5002C40 20.5952 38.8267 18.9618 37.135 18.2718ZM33.625 25.5452C33.625 25.5485 33.6217 25.5502 33.6217 25.5535V25.5585C31.9117 31.4835 26.4583 35.8335 20 35.8335C12.9583 35.8335 7.115 30.6618 6.015 23.9152L7.67833 18.0968C9.16333 17.6252 12.49 16.2902 13.9467 13.4718C16.1883 15.5902 21.2117 18.1902 32.39 18.3285L33.9867 23.9068C33.8967 24.4635 33.7783 25.0102 33.625 25.5452Z" fill="#92A5B5"/>
<path d="M26.6663 25C28.047 25 29.1663 23.8807 29.1663 22.5C29.1663 21.1193 28.047 20 26.6663 20C25.2855 20 24.1663 21.1193 24.1663 22.5C24.1663 23.8807 25.2855 25 26.6663 25Z" fill="#92A5B5"/>
<path d="M23.2986 28.6835C21.4803 30.4418 18.5203 30.4418 16.702 28.6835C16.207 28.2085 15.4136 28.2185 14.9336 28.7168C14.4536 29.2135 14.4686 30.0035 14.9653 30.4851C16.3536 31.8251 18.177 32.4935 20.0003 32.4935C21.8236 32.4935 23.647 31.8251 25.0353 30.4851C25.532 30.0051 25.5453 29.2135 25.067 28.7168C24.587 28.2185 23.7953 28.2085 23.2986 28.6835Z" fill="#92A5B5"/>
</g>
<defs>
<clipPath id="clip0">
<rect width="40" height="40" fill="white"/>
</clipPath>
</defs>
</svg>
