<svg width="38" height="25" viewBox="0 0 38 25" fill="none" xmlns="http://www.w3.org/2000/svg">
<path d="M6.40953 5.82613C6.40953 4.96814 6.4596 4.71579 6.63487 4.46344C6.88525 4.13539 7.26081 4.03445 8.23729 4.03445H9.56429V0.19873H5.83366C3.60529 0.19873 2.10302 1.66236 2.10302 3.88304V7.61781C2.10302 9.9142 1.87768 10.4189 0.750977 10.6208V14.3556C1.87768 14.5574 2.10302 15.0621 2.10302 17.3585V21.0933C2.10302 23.314 3.60529 24.7776 5.83366 24.7776H9.56429V20.9419H8.23729C7.28585 20.9419 6.93532 20.8662 6.68494 20.5634C6.4596 20.3362 6.40953 20.0587 6.40953 19.1502V16.7024C6.40953 13.5228 6.28434 13.0938 5.10756 12.4882C6.28434 11.8825 6.40953 11.4535 6.40953 8.27392V5.82613Z" fill="#0047FF"/>
<path d="M6.40953 5.82613C6.40953 4.96814 6.4596 4.71579 6.63487 4.46344C6.88525 4.13539 7.26081 4.03445 8.23729 4.03445H9.56429V0.19873H5.83366C3.60529 0.19873 2.10302 1.66236 2.10302 3.88304V7.61781C2.10302 9.9142 1.87768 10.4189 0.750977 10.6208V14.3556C1.87768 14.5574 2.10302 15.0621 2.10302 17.3585V21.0933C2.10302 23.314 3.60529 24.7776 5.83366 24.7776H9.56429V20.9419H8.23729C7.28585 20.9419 6.93532 20.8662 6.68494 20.5634C6.4596 20.3362 6.40953 20.0587 6.40953 19.1502V16.7024C6.40953 13.5228 6.28434 13.0938 5.10756 12.4882C6.28434 11.8825 6.40953 11.4535 6.40953 8.27392V5.82613Z" fill="url(#paint0_linear)"/>
<path d="M6.40953 5.82613C6.40953 4.96814 6.4596 4.71579 6.63487 4.46344C6.88525 4.13539 7.26081 4.03445 8.23729 4.03445H9.56429V0.19873H5.83366C3.60529 0.19873 2.10302 1.66236 2.10302 3.88304V7.61781C2.10302 9.9142 1.87768 10.4189 0.750977 10.6208V14.3556C1.87768 14.5574 2.10302 15.0621 2.10302 17.3585V21.0933C2.10302 23.314 3.60529 24.7776 5.83366 24.7776H9.56429V20.9419H8.23729C7.28585 20.9419 6.93532 20.8662 6.68494 20.5634C6.4596 20.3362 6.40953 20.0587 6.40953 19.1502V16.7024C6.40953 13.5228 6.28434 13.0938 5.10756 12.4882C6.28434 11.8825 6.40953 11.4535 6.40953 8.27392V5.82613Z" fill="#FF8D1A"/>
<path d="M21.426 0.19873L12.4123 24.8028H16.8941L25.8827 0.19873H21.426Z" fill="#0047FF"/>
<path d="M21.426 0.19873L12.4123 24.8028H16.8941L25.8827 0.19873H21.426Z" fill="url(#paint1_linear)"/>
<path d="M21.426 0.19873L12.4123 24.8028H16.8941L25.8827 0.19873H21.426Z" fill="#FF8D1A"/>
<path d="M31.9241 19.1502C31.9241 20.0082 31.874 20.2605 31.6987 20.5129C31.4483 20.8409 31.0978 20.9419 30.0963 20.9419H28.7693V24.7776H32.4999C34.7283 24.7776 36.2306 23.314 36.2306 21.0933V17.3585C36.2306 15.0621 36.4559 14.5574 37.5826 14.3556V10.6208C36.4559 10.4189 36.2306 9.9142 36.2306 7.61781V3.88304C36.2306 1.66236 34.7283 0.19873 32.4999 0.19873H28.7693V4.03445H30.0963C31.0477 4.03445 31.3983 4.11015 31.6486 4.41297C31.874 4.64009 31.9241 4.91767 31.9241 5.82613V8.27392C31.9241 11.4535 32.0492 11.8825 33.226 12.4882C32.0492 13.0938 31.9241 13.5228 31.9241 16.7024V19.1502Z" fill="#0047FF"/>
<path d="M31.9241 19.1502C31.9241 20.0082 31.874 20.2605 31.6987 20.5129C31.4483 20.8409 31.0978 20.9419 30.0963 20.9419H28.7693V24.7776H32.4999C34.7283 24.7776 36.2306 23.314 36.2306 21.0933V17.3585C36.2306 15.0621 36.4559 14.5574 37.5826 14.3556V10.6208C36.4559 10.4189 36.2306 9.9142 36.2306 7.61781V3.88304C36.2306 1.66236 34.7283 0.19873 32.4999 0.19873H28.7693V4.03445H30.0963C31.0477 4.03445 31.3983 4.11015 31.6486 4.41297C31.874 4.64009 31.9241 4.91767 31.9241 5.82613V8.27392C31.9241 11.4535 32.0492 11.8825 33.226 12.4882C32.0492 13.0938 31.9241 13.5228 31.9241 16.7024V19.1502Z" fill="url(#paint2_linear)"/>
<path d="M31.9241 19.1502C31.9241 20.0082 31.874 20.2605 31.6987 20.5129C31.4483 20.8409 31.0978 20.9419 30.0963 20.9419H28.7693V24.7776H32.4999C34.7283 24.7776 36.2306 23.314 36.2306 21.0933V17.3585C36.2306 15.0621 36.4559 14.5574 37.5826 14.3556V10.6208C36.4559 10.4189 36.2306 9.9142 36.2306 7.61781V3.88304C36.2306 1.66236 34.7283 0.19873 32.4999 0.19873H28.7693V4.03445H30.0963C31.0477 4.03445 31.3983 4.11015 31.6486 4.41297C31.874 4.64009 31.9241 4.91767 31.9241 5.82613V8.27392C31.9241 11.4535 32.0492 11.8825 33.226 12.4882C32.0492 13.0938 31.9241 13.5228 31.9241 16.7024V19.1502Z" fill="#FF8D1A"/>
<defs>
<linearGradient id="paint0_linear" x1="19.1954" y1="-21.0414" x2="19.1954" y2="21.9933" gradientUnits="userSpaceOnUse">
<stop offset="0.00520833" stop-color="white" stop-opacity="0.08"/>
<stop offset="0.0851933" stop-opacity="0.08"/>
<stop offset="0.336988" stop-color="white" stop-opacity="0.1"/>
<stop offset="0.660917" stop-color="white" stop-opacity="0.1"/>
<stop offset="1" stop-opacity="0.1"/>
</linearGradient>
<linearGradient id="paint1_linear" x1="19.1954" y1="-21.0414" x2="19.1954" y2="21.9933" gradientUnits="userSpaceOnUse">
<stop offset="0.00520833" stop-color="white" stop-opacity="0.08"/>
<stop offset="0.0851933" stop-opacity="0.08"/>
<stop offset="0.336988" stop-color="white" stop-opacity="0.1"/>
<stop offset="0.660917" stop-color="white" stop-opacity="0.1"/>
<stop offset="1" stop-opacity="0.1"/>
</linearGradient>
<linearGradient id="paint2_linear" x1="19.1954" y1="-21.0414" x2="19.1954" y2="21.9933" gradientUnits="userSpaceOnUse">
<stop offset="0.00520833" stop-color="white" stop-opacity="0.08"/>
<stop offset="0.0851933" stop-opacity="0.08"/>
<stop offset="0.336988" stop-color="white" stop-opacity="0.1"/>
<stop offset="0.660917" stop-color="white" stop-opacity="0.1"/>
<stop offset="1" stop-opacity="0.1"/>
</linearGradient>
</defs>
</svg>
