<svg width="238" height="189" viewBox="0 0 238 189" fill="none" xmlns="http://www.w3.org/2000/svg">
<mask id="mask0" mask-type="alpha" maskUnits="userSpaceOnUse" x="0" y="0" width="238" height="189">
<rect width="238" height="189" rx="20" fill="white"/>
</mask>
<g mask="url(#mask0)">
<path d="M189.365 -8.12712C177.318 -41.376 93.9227 -25.2448 72.6081 -14.4374L-20 -10.9558V165.516C-9.37909 168.345 57.5496 172.74 76.7546 167.692C100.761 161.381 128.695 145.932 129.786 120.908C130.877 95.8845 133.933 78.0415 158.375 55.4114C168.471 46.0646 204.424 33.434 189.365 -8.12712Z" fill="#FFF4E8"/>
</g>
<g clip-path="url(#clip0)">
<path d="M117.808 161.569C159.179 161.569 192.716 158.889 192.716 155.584C192.716 152.278 159.179 149.599 117.808 149.599C76.4384 149.599 42.9014 152.278 42.9014 155.584C42.9014 158.889 76.4384 161.569 117.808 161.569Z" fill="#EBEBEB"/>
<path d="M188.437 148.372H143.418L152.377 96.1416H186.057L188.437 148.372Z" fill="#DBDBDB"/>
<path d="M188.436 148.372H184.496L182.265 96.1416H186.057L188.436 148.372Z" fill="#A6A6A6"/>
<path d="M40 148.372L59.4424 148.298L78.8848 148.26L117.807 148.186L156.692 148.26L176.134 148.298L195.576 148.372L176.134 148.446L156.692 148.483L117.807 148.558L78.8848 148.483L59.4424 148.446L40 148.372Z" fill="#263238"/>
<path d="M82.2681 18.2231H45.3164V41.7919H82.2681V18.2231Z" fill="white"/>
<path d="M82.4916 42.0521H45.0938V18H82.4916V42.0521ZM45.5398 41.5688H82.0083V18.4833H45.5398V41.5688Z" fill="#EBEBEB"/>
<path d="M82.2681 18.2231H45.3164V22.6841H82.2681V18.2231Z" fill="#FFC727"/>
<path d="M82.4916 22.9071H45.0938V18H82.4916V22.9071ZM45.5398 22.461H82.0083V18.4833H45.5398V22.461Z" fill="#EBEBEB"/>
<path d="M49.52 20.4907C49.52 21.1227 48.9996 21.606 48.4048 21.606C47.7728 21.606 47.2896 21.0855 47.2896 20.4907C47.2896 19.8959 47.81 19.3755 48.4048 19.3755C48.9996 19.3755 49.52 19.8588 49.52 20.4907Z" fill="#A6A6A6"/>
<path d="M54.0908 20.4907C54.0908 21.1227 53.5704 21.606 52.9756 21.606C52.3808 21.606 51.8604 21.0855 51.8604 20.4907C51.8604 19.8959 52.3808 19.3755 52.9756 19.3755C53.5704 19.3755 54.0908 19.8588 54.0908 20.4907Z" fill="#EBEBEB"/>
<path d="M58.6685 20.4907C58.6685 21.1227 58.148 21.606 57.5532 21.606C56.9584 21.606 56.438 21.0855 56.438 20.4907C56.438 19.8959 56.9584 19.3755 57.5532 19.3755C58.148 19.3755 58.6685 19.8588 58.6685 20.4907Z" fill="white"/>
<path d="M143.311 85.6582H106.359V109.227H143.311V85.6582Z" fill="white"/>
<path d="M143.533 109.45H106.098V85.3979H143.495V109.45H143.533ZM106.581 109.004H143.049V85.9184H106.581V109.004Z" fill="#EBEBEB"/>
<path d="M143.311 85.6582H106.359V90.1192H143.311V85.6582Z" fill="#FFC727"/>
<path d="M143.533 90.3421H106.098V85.4351H143.495V90.3421H143.533ZM106.581 89.896H143.049V85.9183H106.581V89.896Z" fill="#EBEBEB"/>
<path d="M110.524 87.9258C110.524 88.5578 110.003 89.041 109.409 89.041C108.777 89.041 108.293 88.5206 108.293 87.9258C108.293 87.2938 108.814 86.8105 109.409 86.8105C110.041 86.8105 110.524 87.2938 110.524 87.9258Z" fill="#A6A6A6"/>
<path d="M115.095 87.9258C115.095 88.5578 114.574 89.041 113.979 89.041C113.348 89.041 112.864 88.5206 112.864 87.9258C112.864 87.2938 113.385 86.8105 113.979 86.8105C114.611 86.8105 115.095 87.2938 115.095 87.9258Z" fill="#EBEBEB"/>
<path d="M119.704 87.9258C119.704 88.5578 119.183 89.041 118.588 89.041C117.956 89.041 117.473 88.5206 117.473 87.9258C117.473 87.2938 117.994 86.8105 118.588 86.8105C119.183 86.8105 119.704 87.2938 119.704 87.9258Z" fill="white"/>
<path d="M126.024 40.3794H64.4258V90.9743H126.024V40.3794Z" fill="white"/>
<path d="M126.285 91.1972H64.2031V40.1562H126.285V91.1972ZM64.6864 90.7511H125.839V40.6023H64.6864V90.7511Z" fill="#EBEBEB"/>
<path d="M126.024 40.3794H64.4258V44.8404H126.024V40.3794Z" fill="#FFC727"/>
<path d="M126.285 45.0633H64.2031V40.1562H126.285V45.0633ZM64.6864 44.6172H125.839V40.6023H64.6864V44.6172Z" fill="#EBEBEB"/>
<path d="M68.6294 42.647C68.6294 43.279 68.109 43.7622 67.5142 43.7622C66.8822 43.7622 66.3989 43.2418 66.3989 42.647C66.3989 42.015 66.9194 41.5317 67.5142 41.5317C68.1461 41.5317 68.6294 42.015 68.6294 42.647Z" fill="#A6A6A6"/>
<path d="M73.2002 42.647C73.2002 43.279 72.6798 43.7622 72.085 43.7622C71.453 43.7622 70.9697 43.2418 70.9697 42.647C70.9697 42.015 71.4902 41.5317 72.085 41.5317C72.7169 41.5317 73.2002 42.015 73.2002 42.647Z" fill="#EBEBEB"/>
<path d="M77.7778 42.647C77.7778 43.279 77.2574 43.7622 76.6626 43.7622C76.0306 43.7622 75.5474 43.2418 75.5474 42.647C75.5474 42.015 76.0678 41.5317 76.6626 41.5317C77.2946 41.5317 77.7778 42.015 77.7778 42.647Z" fill="white"/>
<path d="M71.5989 53.688H69.2197V54.543H71.5989V53.688Z" fill="#EBEBEB"/>
<path d="M100.672 53.688H73.3481V54.543H100.672V53.688Z" fill="#EBEBEB"/>
<path d="M106.693 53.688H102.157V54.543H106.693V53.688Z" fill="#FFC727"/>
<path d="M117.028 65.3608H112.493V66.2159H117.028V65.3608Z" fill="#EBEBEB"/>
<path d="M115.467 53.688H107.661V54.543H115.467V53.688Z" fill="#A6A6A6"/>
<path d="M73.9778 56.0303H71.5986V56.8853H73.9778V56.0303Z" fill="#EBEBEB"/>
<path d="M93.6048 56.0303H75.6494V56.8853H93.6048V56.0303Z" fill="#A6A6A6"/>
<path d="M111.451 65.3608H100.93V66.2159H111.451V65.3608Z" fill="#A6A6A6"/>
<path d="M90.4857 63.019H73.3481V63.8741H90.4857V63.019Z" fill="#A6A6A6"/>
<path d="M87.6569 58.3721H75.6494V59.2271H87.6569V58.3721Z" fill="#FFC727"/>
<path d="M109.738 60.6768H105.165V61.5318H109.738V60.6768Z" fill="#A6A6A6"/>
<path d="M108.215 58.3721H89.0327V59.2271H108.215V58.3721Z" fill="#A6A6A6"/>
<path d="M96.2478 65.3608H73.3481V66.2159H96.2478V65.3608Z" fill="#FFC727"/>
<path d="M119.558 56.0303H107.142V56.8853H119.558V56.0303Z" fill="#FFC727"/>
<path d="M106.173 56.0298H94.7236V56.8848H106.173V56.0298Z" fill="#EBEBEB"/>
<path d="M116.843 58.3721H109.11V59.2271H116.843V58.3721Z" fill="#EBEBEB"/>
<path d="M73.9778 58.3721H71.5986V59.2271H73.9778V58.3721Z" fill="#EBEBEB"/>
<path d="M71.5989 60.6768H69.2197V61.5318H71.5989V60.6768Z" fill="#A6A6A6"/>
<path d="M87.4374 60.6768H73.3481V61.5318H87.4374V60.6768Z" fill="#EBEBEB"/>
<path d="M89.7386 67.666H75.6494V68.521H89.7386V67.666Z" fill="#EBEBEB"/>
<path d="M112.641 70.0078H101.935V70.8628H112.641V70.0078Z" fill="#FFC727"/>
<path d="M105.021 67.666H90.895V68.521H105.021V67.666Z" fill="#FFC727"/>
<path d="M100.705 70.0078H88.3999V70.8628H100.705V70.0078Z" fill="#EBEBEB"/>
<path d="M79.7386 70.0078H75.6494V70.8628H79.7386V70.0078Z" fill="#A6A6A6"/>
<path d="M106.654 63.019H91.4497V63.8741H106.654V63.019Z" fill="#EBEBEB"/>
<path d="M117.363 63.019H107.661V63.8741H117.363V63.019Z" fill="#FFC727"/>
<path d="M104.052 60.6768H88.8477V61.5318H104.052V60.6768Z" fill="#FFC727"/>
<path d="M71.5989 63.019H69.2197V63.8741H71.5989V63.019Z" fill="#EBEBEB"/>
<path d="M71.5989 65.3608H69.2197V66.2159H71.5989V65.3608Z" fill="#EBEBEB"/>
<path d="M73.9778 67.666H71.5986V68.521H73.9778V67.666Z" fill="#A6A6A6"/>
<path d="M73.9778 70.0078H71.5986V70.8628H73.9778V70.0078Z" fill="#EBEBEB"/>
<path d="M71.5989 71.978H69.2197V72.833H71.5989V71.978Z" fill="#EBEBEB"/>
<path d="M100.672 71.978H73.3481V72.833H100.672V71.978Z" fill="#EBEBEB"/>
<path d="M73.9778 74.2832H71.5986V75.1382H73.9778V74.2832Z" fill="#EBEBEB"/>
<path d="M93.6048 74.2832H75.6494V75.1382H93.6048V74.2832Z" fill="#A6A6A6"/>
<path d="M90.4857 81.2715H73.3481V82.1265H90.4857V81.2715Z" fill="#A6A6A6"/>
<path d="M87.6569 76.625H75.6494V77.48H87.6569V76.625Z" fill="#FFC727"/>
<path d="M108.215 76.625H89.0327V77.48H108.215V76.625Z" fill="#A6A6A6"/>
<path d="M96.2478 83.6138H73.3481V84.4688H96.2478V83.6138Z" fill="#FFC727"/>
<path d="M119.558 74.2832H107.142V75.1382H119.558V74.2832Z" fill="#FFC727"/>
<path d="M106.173 74.2832H94.7236V75.1382H106.173V74.2832Z" fill="#EBEBEB"/>
<path d="M116.843 76.625H109.11V77.48H116.843V76.625Z" fill="#EBEBEB"/>
<path d="M73.9778 76.625H71.5986V77.48H73.9778V76.625Z" fill="#EBEBEB"/>
<path d="M71.5989 78.9297H69.2197V79.7847H71.5989V78.9297Z" fill="#A6A6A6"/>
<path d="M87.4374 78.9297H73.3481V79.7847H87.4374V78.9297Z" fill="#EBEBEB"/>
<path d="M106.654 81.2715H91.4497V82.1265H106.654V81.2715Z" fill="#EBEBEB"/>
<path d="M104.052 78.9297H88.8477V79.7847H104.052V78.9297Z" fill="#FFC727"/>
<path d="M71.5989 81.2715H69.2197V82.1265H71.5989V81.2715Z" fill="#EBEBEB"/>
<path d="M70.7082 51.4204C70.7826 51.4948 70.7826 51.6435 70.7082 51.7178C70.671 51.755 70.6339 51.7922 70.5595 51.7922C70.5223 51.7922 70.448 51.755 70.4108 51.7178L69.4814 50.7885C69.4814 50.7885 69.4814 50.7885 69.4814 50.7513C69.4814 50.7513 69.4814 50.7513 69.4814 50.7141C69.4814 50.7141 69.4814 50.7141 69.4814 50.6769C69.4814 50.6769 69.4814 50.6769 69.4814 50.6398C69.4814 50.6398 69.4814 50.6398 69.4814 50.6026C69.4814 50.6026 69.4814 50.6026 69.4814 50.5654C69.4814 50.5654 69.4814 50.5654 69.4814 50.5282V50.4911C69.4814 50.4911 69.4814 50.4911 69.5186 50.4539L70.448 49.5245C70.5223 49.4502 70.671 49.4502 70.7454 49.5245C70.8197 49.5989 70.8197 49.7476 70.7454 49.8219L69.9647 50.6026L70.7082 51.4204Z" fill="#FFC727"/>
<path d="M71.5273 51.532L72.3451 49.599C72.3823 49.5246 72.4938 49.4503 72.5682 49.4874C72.6425 49.5246 72.7169 49.6361 72.6425 49.7105L71.8247 51.6064C71.7875 51.6807 71.7132 51.7179 71.676 51.7179C71.6388 51.7179 71.6388 51.7179 71.6016 51.7179C71.5273 51.7179 71.4901 51.6064 71.5273 51.532Z" fill="#FFC727"/>
<path d="M74.2396 50.7512L73.3102 51.7178C73.273 51.7549 73.1987 51.7921 73.1615 51.7921C73.1243 51.7921 73.05 51.7549 73.0128 51.7178C72.9384 51.6434 72.9384 51.4947 73.0128 51.4204L73.7935 50.6397L73.0128 49.859C72.9384 49.7847 72.9384 49.636 73.0128 49.5616C73.0871 49.4873 73.2358 49.4873 73.3102 49.5616L74.2396 50.491C74.2396 50.491 74.2396 50.491 74.2767 50.5282V50.5653C74.2767 50.5653 74.2767 50.5653 74.2767 50.6025C74.2767 50.6025 74.2767 50.6025 74.2767 50.6397C74.2767 50.6397 74.2767 50.6397 74.2767 50.6769V50.714C74.2767 50.714 74.2767 50.714 74.2396 50.7512C74.2396 50.714 74.2396 50.7512 74.2396 50.7512Z" fill="#FFC727"/>
<path d="M126.948 68.2974L128.547 72.0892L126.948 72.7212L125.387 68.8922L122.785 70.9368V60.2305L130.257 67.777L126.948 68.2974Z" fill="#263238"/>
<path d="M122.786 59.0409C122.711 58.855 122.711 58.6692 122.674 58.5205C122.674 58.3346 122.711 58.1487 122.786 58C122.86 58.1859 122.86 58.3718 122.897 58.5205C122.86 58.6692 122.86 58.855 122.786 59.0409Z" fill="#263238"/>
<path d="M121.856 59.4124C121.67 59.3381 121.522 59.2266 121.41 59.115C121.299 59.0035 121.187 58.8548 121.113 58.6689C121.299 58.7433 121.447 58.8548 121.559 58.9663C121.67 59.115 121.782 59.2637 121.856 59.4124Z" fill="#263238"/>
<path d="M121.486 60.342C121.3 60.4163 121.114 60.4163 120.965 60.4535C120.779 60.4535 120.594 60.4163 120.445 60.342C120.631 60.2676 120.817 60.2676 120.965 60.2305C121.114 60.2676 121.3 60.2676 121.486 60.342Z" fill="#263238"/>
<path d="M121.856 61.2715C121.782 61.4574 121.67 61.6061 121.559 61.7176C121.447 61.8291 121.299 61.9406 121.113 62.015C121.187 61.8291 121.299 61.6804 121.41 61.5689C121.522 61.4574 121.67 61.3458 121.856 61.2715Z" fill="#263238"/>
<path d="M124.089 60.342C124.275 60.2676 124.461 60.2676 124.609 60.2305C124.795 60.2305 124.981 60.2676 125.13 60.342C124.944 60.4163 124.758 60.4163 124.609 60.4535C124.461 60.4535 124.275 60.4163 124.089 60.342Z" fill="#263238"/>
<path d="M123.713 59.4129C123.788 59.2271 123.899 59.0784 124.011 58.9668C124.122 58.8553 124.271 58.7438 124.457 58.6694C124.383 58.8553 124.271 59.004 124.159 59.1155C124.011 59.2271 123.899 59.3386 123.713 59.4129Z" fill="#263238"/>
<path d="M151.005 104.952C148.143 117.442 142.344 133.242 137.846 136.439C134.24 139.004 115.281 143.539 114.202 143.651C111.6 143.911 106.396 125.435 109.11 124.654C112.53 123.725 128.775 123.204 129.704 122.238C130.671 121.234 136.582 113.242 143.273 103.948C147.957 97.5539 152.79 97.2193 151.005 104.952Z" fill="#FF7E69"/>
<path d="M116.32 142.609C116.023 142.758 111.562 144.989 108.848 145.806C106.803 146.401 100.893 147.963 100 145.769C99.4056 144.282 102.789 142.944 105.131 141.977C106.394 141.457 107.919 140.156 107.547 139.338C106.915 137.925 103.681 139.338 101.562 140.565C97.4725 142.944 92.045 147.219 89.5543 145.137C88.6249 144.357 89.703 142.944 91.3015 141.531C88.6993 143.167 85.9112 144.505 84.8331 143.688C84.2011 143.204 84.2011 142.572 84.5357 141.829C83.7179 142.089 83.0115 142.052 82.5283 141.531C81.6733 140.639 82.0822 139.338 83.0115 138C82.7141 137.963 82.4539 137.814 82.2309 137.479C80.5208 134.728 89.4428 126.885 92.5655 126.178C101.673 124.022 111.376 124.803 111.376 124.803C114.945 127.665 116.32 142.609 116.32 142.609Z" fill="#FF7E69"/>
<path d="M102.943 134.245C100.786 134.58 98.6675 135.398 96.8831 136.587C94.5783 138.111 93.0541 139.896 91.0839 141.68C91.0467 141.717 91.121 141.792 91.1582 141.754C92.0876 140.899 95.9166 137.702 96.8831 136.959C98.7047 135.621 100.712 134.691 102.943 134.245C102.98 134.282 102.943 134.245 102.943 134.245Z" fill="#263238"/>
<path d="M101.234 130.379C98.8549 131.048 96.4014 131.68 94.1709 132.833C91.7545 134.06 89.8215 136.104 87.9627 138.037C86.8475 139.19 85.7322 140.379 84.6542 141.606C84.617 141.643 84.6914 141.755 84.7285 141.68C86.6244 139.673 88.5947 137.703 90.6021 135.844C92.498 134.06 94.617 132.721 97.0334 131.792C98.4088 131.271 99.8215 130.863 101.234 130.454C101.271 130.416 101.271 130.342 101.234 130.379Z" fill="#263238"/>
<path d="M98.6661 126.996C96.3241 127.479 94.3167 127.888 92.2349 129.115C89.5211 130.751 86.8817 133.539 85.9524 134.543C84.9487 135.621 83.9449 136.736 82.9784 137.888C82.9412 137.925 83.0156 138 83.0527 137.963C85.2461 135.472 87.6252 133.13 90.1531 130.937C91.3427 129.896 92.6438 129.004 94.1308 128.372C95.5806 127.74 97.142 127.368 98.6661 126.996C98.7033 126.996 98.6661 126.996 98.6661 126.996Z" fill="#263238"/>
<path d="M129.89 120.416L147.362 119.673C147.362 119.673 150.522 111.011 151.712 103.316C152.864 95.6206 146.321 98.3715 139.853 106.661C133.347 114.989 129.89 120.416 129.89 120.416Z" fill="#FFC727"/>
<path d="M135.617 115.212C135.728 115.175 135.84 115.175 135.988 115.138C136.1 115.1 136.249 115.1 136.397 115.175C136.658 115.286 136.881 115.547 136.881 115.844C136.881 116.03 136.955 116.216 137.141 116.327C137.215 116.364 137.327 116.402 137.438 116.439C137.55 116.476 137.661 116.476 137.81 116.513C137.698 116.55 137.587 116.55 137.438 116.587C137.327 116.625 137.178 116.625 137.029 116.55C136.769 116.439 136.583 116.141 136.583 115.881C136.583 115.695 136.472 115.509 136.323 115.435C136.249 115.398 136.137 115.361 136.026 115.361C135.84 115.249 135.728 115.249 135.617 115.212ZM147.922 104.58C148.033 104.58 148.145 104.617 148.219 104.654C148.368 104.766 148.479 104.952 148.479 105.1C148.479 105.398 148.665 105.695 148.925 105.77C149.037 105.844 149.223 105.844 149.334 105.807C149.446 105.77 149.557 105.77 149.706 105.732C149.594 105.695 149.483 105.695 149.334 105.658C149.223 105.658 149.111 105.621 149.037 105.546C148.888 105.435 148.777 105.249 148.777 105.063C148.777 104.766 148.591 104.506 148.293 104.394C148.182 104.357 147.996 104.357 147.884 104.357C147.773 104.394 147.661 104.394 147.513 104.431C147.661 104.543 147.81 104.543 147.922 104.58ZM148.368 111.383C148.256 111.457 148.182 111.494 148.107 111.532C147.922 111.569 147.699 111.532 147.587 111.383C147.401 111.197 147.067 111.086 146.806 111.234C146.658 111.271 146.583 111.383 146.509 111.494C146.435 111.606 146.36 111.68 146.323 111.792C146.435 111.717 146.509 111.643 146.62 111.606C146.732 111.532 146.806 111.494 146.881 111.457C147.067 111.42 147.252 111.457 147.401 111.606C147.624 111.829 147.959 111.866 148.219 111.755C148.33 111.717 148.442 111.569 148.516 111.494C148.591 111.383 148.665 111.309 148.702 111.197C148.554 111.271 148.442 111.346 148.368 111.383ZM143.609 103.465C143.498 103.539 143.423 103.576 143.312 103.613C143.126 103.651 142.903 103.613 142.791 103.465C142.754 103.428 142.717 103.39 142.717 103.39C142.643 103.465 142.568 103.539 142.494 103.613C142.531 103.651 142.568 103.651 142.606 103.688C142.829 103.911 143.163 103.948 143.423 103.836C143.535 103.799 143.646 103.688 143.721 103.576C143.795 103.465 143.87 103.39 143.907 103.279C143.795 103.316 143.721 103.39 143.609 103.465ZM141.639 110.007C141.639 110.119 141.602 110.231 141.565 110.305C141.453 110.454 141.267 110.565 141.119 110.565C140.821 110.565 140.524 110.751 140.449 111.011C140.375 111.123 140.375 111.309 140.412 111.42C140.449 111.532 140.449 111.643 140.487 111.792C140.524 111.68 140.524 111.569 140.561 111.42C140.561 111.309 140.598 111.197 140.672 111.123C140.784 110.974 140.97 110.862 141.156 110.862C141.453 110.862 141.713 110.677 141.825 110.379C141.862 110.268 141.862 110.082 141.862 109.97C141.825 109.859 141.825 109.747 141.788 109.599C141.676 109.747 141.639 109.859 141.639 110.007ZM146.62 116.662C146.62 116.773 146.583 116.885 146.546 116.959C146.435 117.108 146.249 117.219 146.1 117.219C145.803 117.219 145.505 117.405 145.431 117.665C145.357 117.777 145.356 117.963 145.394 118.074C145.431 118.186 145.431 118.297 145.468 118.446C145.505 118.335 145.505 118.223 145.542 118.074C145.542 117.963 145.58 117.851 145.654 117.777C145.765 117.628 145.951 117.517 146.137 117.517C146.435 117.517 146.695 117.331 146.806 117.033C146.843 116.922 146.843 116.736 146.843 116.625C146.806 116.513 146.806 116.402 146.769 116.253C146.658 116.402 146.658 116.55 146.62 116.662Z" fill="white"/>
<path d="M147.957 115.881C144.165 115.769 140.374 115.955 136.619 116.178C135.541 116.253 134.463 116.327 133.422 116.476C133.385 116.476 133.385 116.513 133.422 116.513C135.318 116.513 137.214 116.439 139.072 116.401C140.968 116.327 142.864 116.253 144.76 116.141C145.838 116.067 146.879 116.03 147.957 115.918C147.994 115.955 148.032 115.881 147.957 115.881Z" fill="#263238"/>
<path d="M134.796 148.372H179.406C179.889 147.48 172.565 108.372 157.547 97.3682C154.201 94.9147 148.29 96.5132 146.655 98.8552C138.365 110.825 134.796 148.372 134.796 148.372Z" fill="#FFC727"/>
<path d="M153.717 115.212C153.829 115.175 153.94 115.175 154.089 115.138C154.201 115.1 154.349 115.1 154.498 115.175C154.758 115.286 154.981 115.547 154.981 115.844C154.981 116.03 155.056 116.216 155.242 116.327C155.316 116.364 155.427 116.402 155.539 116.439C155.651 116.476 155.762 116.476 155.911 116.513C155.799 116.55 155.688 116.55 155.539 116.587C155.427 116.625 155.279 116.625 155.13 116.55C154.87 116.439 154.684 116.141 154.684 115.881C154.684 115.695 154.572 115.509 154.424 115.435C154.349 115.398 154.238 115.361 154.126 115.361C153.94 115.249 153.829 115.249 153.717 115.212ZM160.632 138.781C160.743 138.781 160.855 138.818 160.929 138.855C161.078 138.967 161.19 139.153 161.19 139.301C161.19 139.599 161.375 139.896 161.636 139.97C161.747 140.045 161.933 140.045 162.045 140.008C162.156 139.97 162.268 139.97 162.416 139.933C162.305 139.896 162.193 139.896 162.045 139.859C161.933 139.859 161.822 139.822 161.747 139.747C161.598 139.636 161.487 139.45 161.487 139.264C161.487 138.967 161.301 138.706 161.004 138.595C160.892 138.558 160.706 138.558 160.595 138.558C160.483 138.595 160.372 138.595 160.223 138.632C160.409 138.744 160.52 138.781 160.632 138.781ZM168.848 116.55C168.959 116.55 169.071 116.587 169.145 116.625C169.294 116.736 169.405 116.922 169.405 117.071C169.405 117.368 169.591 117.666 169.851 117.74C169.963 117.814 170.149 117.814 170.26 117.777C170.372 117.74 170.483 117.74 170.632 117.703C170.52 117.666 170.409 117.666 170.26 117.628C170.149 117.628 170.037 117.591 169.963 117.517C169.814 117.405 169.703 117.219 169.703 117.034C169.703 116.736 169.517 116.476 169.219 116.364C169.108 116.327 168.922 116.327 168.81 116.327C168.699 116.364 168.587 116.364 168.439 116.402C168.587 116.513 168.699 116.513 168.848 116.55ZM147.918 104.58C148.03 104.58 148.141 104.617 148.216 104.654C148.364 104.766 148.476 104.952 148.476 105.1C148.476 105.398 148.662 105.695 148.922 105.77C149.033 105.844 149.219 105.844 149.331 105.807C149.442 105.77 149.554 105.77 149.703 105.732C149.591 105.695 149.48 105.695 149.331 105.658C149.219 105.658 149.108 105.621 149.033 105.547C148.885 105.435 148.773 105.249 148.773 105.063C148.773 104.766 148.587 104.506 148.29 104.394C148.178 104.357 147.993 104.357 147.881 104.357C147.769 104.394 147.658 104.394 147.509 104.431C147.658 104.543 147.807 104.543 147.918 104.58ZM160.781 104.32C160.892 104.32 161.004 104.357 161.078 104.394C161.227 104.506 161.338 104.692 161.338 104.84C161.338 105.138 161.524 105.435 161.784 105.509C161.896 105.584 162.082 105.584 162.193 105.547C162.305 105.509 162.416 105.509 162.565 105.472C162.454 105.435 162.342 105.435 162.193 105.398C162.082 105.398 161.97 105.361 161.896 105.286C161.747 105.175 161.636 104.989 161.636 104.803C161.636 104.506 161.45 104.245 161.152 104.134C161.041 104.097 160.855 104.097 160.743 104.097C160.632 104.134 160.52 104.134 160.372 104.171C160.558 104.283 160.669 104.283 160.781 104.32ZM144.758 125.1C144.87 125.1 144.981 125.138 145.056 125.175C145.204 125.286 145.316 125.472 145.316 125.621C145.316 125.918 145.502 126.216 145.762 126.29C145.874 126.364 146.059 126.364 146.171 126.327C146.282 126.29 146.394 126.29 146.543 126.253C146.431 126.216 146.32 126.216 146.171 126.179C146.059 126.179 145.948 126.141 145.874 126.067C145.725 125.955 145.613 125.77 145.613 125.584C145.613 125.286 145.427 125.026 145.13 124.915C145.019 124.877 144.833 124.877 144.721 124.877C144.61 124.915 144.498 124.915 144.349 124.952C144.498 125.063 144.61 125.1 144.758 125.1ZM158.81 146.662C158.922 146.662 159.033 146.699 159.108 146.736C159.256 146.848 159.368 147.034 159.368 147.182C159.368 147.48 159.554 147.777 159.814 147.851C159.926 147.926 160.111 147.926 160.223 147.889C160.335 147.851 160.446 147.851 160.595 147.814C160.483 147.777 160.372 147.777 160.223 147.74C160.111 147.74 160 147.703 159.926 147.628C159.777 147.517 159.665 147.331 159.665 147.145C159.665 146.848 159.48 146.587 159.182 146.476C159.071 146.439 158.885 146.439 158.773 146.439C158.662 146.476 158.55 146.476 158.401 146.513C158.55 146.625 158.662 146.662 158.81 146.662ZM151.859 135.1C151.97 135.1 152.082 135.138 152.156 135.175C152.305 135.286 152.416 135.472 152.416 135.621C152.416 135.918 152.602 136.216 152.862 136.29C152.974 136.364 153.16 136.364 153.271 136.327C153.383 136.29 153.494 136.29 153.643 136.253C153.532 136.216 153.42 136.216 153.271 136.179C153.16 136.179 153.048 136.141 152.974 136.067C152.825 135.956 152.714 135.77 152.714 135.584C152.714 135.286 152.528 135.026 152.23 134.915C152.119 134.877 151.933 134.877 151.822 134.877C151.71 134.915 151.598 134.915 151.45 134.952C151.636 135.063 151.747 135.063 151.859 135.1ZM136.022 146.959C135.911 146.959 135.799 146.922 135.725 146.848C135.576 146.736 135.465 146.55 135.465 146.364C135.465 146.104 135.279 145.844 135.056 145.732C135.056 145.844 135.019 145.918 135.019 145.993C135.13 146.104 135.167 146.216 135.167 146.364C135.167 146.662 135.353 146.922 135.613 147.034C135.725 147.108 135.911 147.108 136.022 147.071C136.134 147.034 136.245 147.034 136.394 146.996C136.282 146.996 136.171 146.996 136.022 146.959ZM139.071 137.182C139.182 137.182 139.294 137.219 139.368 137.257C139.517 137.368 139.628 137.554 139.628 137.703C139.628 138 139.814 138.298 140.074 138.372C140.186 138.446 140.372 138.446 140.483 138.409C140.595 138.372 140.706 138.372 140.855 138.335C140.743 138.298 140.632 138.298 140.483 138.26C140.372 138.26 140.26 138.223 140.186 138.149C140.037 138.037 139.926 137.851 139.926 137.666C139.926 137.368 139.74 137.108 139.442 136.996C139.331 136.959 139.145 136.959 139.033 136.959C138.922 136.996 138.81 136.996 138.662 137.034C138.848 137.145 138.959 137.182 139.071 137.182ZM157.769 125.398C157.881 125.398 157.993 125.435 158.067 125.472C158.216 125.584 158.327 125.77 158.327 125.918C158.327 126.216 158.513 126.513 158.773 126.587C158.885 126.662 159.071 126.662 159.182 126.625C159.294 126.587 159.405 126.587 159.554 126.55C159.442 126.513 159.331 126.513 159.182 126.476C159.071 126.476 158.959 126.439 158.885 126.364C158.736 126.253 158.625 126.067 158.625 125.881C158.625 125.584 158.439 125.324 158.141 125.212C158.03 125.175 157.844 125.175 157.732 125.175C157.621 125.212 157.509 125.212 157.361 125.249C157.546 125.361 157.658 125.361 157.769 125.398ZM174.126 141.272C174.238 141.272 174.349 141.309 174.424 141.346C174.572 141.457 174.684 141.643 174.684 141.792C174.684 142.089 174.87 142.387 175.13 142.461C175.242 142.535 175.427 142.535 175.539 142.498C175.651 142.461 175.762 142.461 175.911 142.424C175.799 142.387 175.688 142.387 175.539 142.35C175.427 142.35 175.316 142.312 175.242 142.238C175.093 142.127 174.981 141.941 174.981 141.755C174.981 141.457 174.796 141.197 174.498 141.086C174.387 141.048 174.201 141.048 174.089 141.048C173.978 141.086 173.866 141.086 173.717 141.123C173.903 141.234 174.015 141.234 174.126 141.272ZM167.621 131.569C167.732 131.569 167.844 131.606 167.918 131.643C168.067 131.755 168.178 131.941 168.178 132.089C168.178 132.387 168.364 132.684 168.625 132.758C168.736 132.833 168.922 132.833 169.033 132.796C169.145 132.758 169.256 132.758 169.405 132.721C169.294 132.684 169.182 132.684 169.033 132.647C168.922 132.647 168.81 132.61 168.736 132.535C168.587 132.424 168.476 132.238 168.476 132.052C168.476 131.755 168.29 131.495 167.993 131.383C167.881 131.346 167.695 131.346 167.584 131.346C167.472 131.383 167.361 131.383 167.212 131.42C167.398 131.532 167.509 131.569 167.621 131.569ZM148.364 111.383C148.253 111.457 148.178 111.495 148.104 111.532C147.918 111.569 147.695 111.532 147.584 111.383C147.398 111.197 147.063 111.086 146.803 111.234C146.654 111.271 146.58 111.383 146.506 111.495C146.431 111.606 146.357 111.68 146.32 111.792C146.431 111.718 146.506 111.643 146.617 111.606C146.729 111.532 146.803 111.495 146.877 111.457C147.063 111.42 147.249 111.457 147.398 111.606C147.621 111.829 147.955 111.866 148.216 111.755C148.327 111.718 148.439 111.569 148.513 111.495C148.587 111.383 148.662 111.309 148.699 111.197C148.55 111.271 148.439 111.346 148.364 111.383ZM167.584 125.212C167.472 125.286 167.398 125.324 167.323 125.361C167.138 125.398 166.914 125.361 166.803 125.212C166.617 125.026 166.283 124.915 166.022 125.063C165.874 125.1 165.799 125.212 165.725 125.324C165.651 125.435 165.576 125.509 165.539 125.621C165.651 125.547 165.725 125.472 165.836 125.435C165.948 125.361 166.022 125.324 166.097 125.286C166.283 125.249 166.468 125.286 166.617 125.435C166.84 125.658 167.175 125.695 167.435 125.584C167.546 125.547 167.658 125.398 167.732 125.324C167.807 125.212 167.881 125.138 167.918 125.026C167.769 125.1 167.695 125.175 167.584 125.212ZM155.576 99.4871C155.465 99.5614 155.39 99.5986 155.316 99.6358C155.13 99.6729 154.907 99.6358 154.796 99.4871C154.61 99.3012 154.275 99.1897 154.015 99.3384C153.866 99.3755 153.792 99.4871 153.717 99.5986C153.643 99.7101 153.569 99.7845 153.532 99.896C153.643 99.8216 153.717 99.7473 153.829 99.7101C153.94 99.6358 154.015 99.5986 154.089 99.5614C154.275 99.5242 154.461 99.5614 154.61 99.7101C154.833 99.9332 155.167 99.9703 155.427 99.8588C155.539 99.8216 155.651 99.6729 155.725 99.5986C155.799 99.4871 155.874 99.4127 155.911 99.3012C155.762 99.3384 155.688 99.4127 155.576 99.4871ZM155.353 107.108C155.353 107.219 155.316 107.331 155.279 107.405C155.167 107.554 154.981 107.666 154.833 107.666C154.535 107.666 154.238 107.851 154.164 108.112C154.089 108.223 154.089 108.409 154.126 108.521C154.164 108.632 154.164 108.744 154.201 108.892C154.238 108.781 154.238 108.669 154.275 108.521C154.275 108.409 154.312 108.297 154.387 108.223C154.498 108.074 154.684 107.963 154.87 107.963C155.167 107.963 155.427 107.777 155.539 107.48C155.576 107.368 155.576 107.182 155.576 107.071C155.539 106.959 155.539 106.848 155.502 106.699C155.39 106.848 155.353 106.996 155.353 107.108ZM152.528 128C152.528 128.112 152.491 128.223 152.454 128.298C152.342 128.446 152.156 128.558 152.007 128.558C151.71 128.558 151.413 128.744 151.338 129.004C151.264 129.115 151.264 129.301 151.301 129.413C151.338 129.524 151.338 129.636 151.375 129.785C151.413 129.673 151.413 129.561 151.45 129.413C151.45 129.301 151.487 129.19 151.561 129.115C151.673 128.967 151.859 128.855 152.045 128.855C152.342 128.855 152.602 128.669 152.714 128.372C152.751 128.26 152.751 128.074 152.751 127.963C152.714 127.851 152.714 127.74 152.677 127.591C152.565 127.777 152.528 127.889 152.528 128ZM167.361 109.784C167.323 109.784 167.323 109.784 167.286 109.784C166.989 109.784 166.691 109.97 166.617 110.231C166.543 110.342 166.543 110.528 166.58 110.639C166.617 110.751 166.617 110.863 166.654 111.011C166.691 110.9 166.691 110.788 166.729 110.639C166.729 110.528 166.766 110.416 166.84 110.342C166.952 110.193 167.138 110.082 167.323 110.082C167.398 110.082 167.435 110.082 167.509 110.045C167.435 109.97 167.398 109.896 167.361 109.784ZM167.249 143.576C167.249 143.688 167.212 143.799 167.175 143.874C167.063 144.022 166.877 144.134 166.729 144.134C166.431 144.134 166.134 144.32 166.059 144.58C165.985 144.692 165.985 144.877 166.022 144.989C166.059 145.101 166.059 145.212 166.097 145.361C166.134 145.249 166.134 145.138 166.171 144.989C166.171 144.877 166.208 144.766 166.283 144.692C166.394 144.543 166.58 144.431 166.766 144.431C167.063 144.431 167.323 144.245 167.435 143.948C167.472 143.837 167.472 143.651 167.472 143.539C167.435 143.428 167.435 143.316 167.398 143.167C167.286 143.316 167.249 143.428 167.249 143.576ZM173.606 124.617C173.494 124.803 173.309 124.915 173.123 124.915C172.825 124.915 172.528 125.1 172.454 125.361C172.379 125.472 172.379 125.658 172.416 125.77C172.454 125.881 172.454 125.993 172.491 126.141C172.528 126.03 172.528 125.918 172.565 125.77C172.565 125.658 172.602 125.547 172.677 125.472C172.788 125.324 172.974 125.212 173.16 125.212C173.383 125.212 173.606 125.1 173.717 124.915C173.68 124.803 173.643 124.692 173.606 124.617ZM141.004 128.744C141.004 128.855 140.967 128.967 140.929 129.041C140.818 129.19 140.632 129.301 140.483 129.301C140.186 129.301 139.888 129.487 139.814 129.747C139.74 129.859 139.74 130.045 139.777 130.156C139.814 130.268 139.814 130.379 139.851 130.528C139.888 130.416 139.888 130.305 139.926 130.156C139.926 130.045 139.963 129.933 140.037 129.859C140.149 129.71 140.335 129.599 140.52 129.599C140.818 129.599 141.078 129.413 141.19 129.115C141.227 129.004 141.227 128.818 141.227 128.706C141.19 128.595 141.19 128.483 141.152 128.335C141.041 128.521 141.004 128.632 141.004 128.744ZM141.784 110.008C141.71 110.231 141.673 110.416 141.598 110.639C141.673 110.565 141.71 110.491 141.747 110.379C141.784 110.268 141.784 110.119 141.784 110.008ZM148.476 97.8142C148.476 97.9257 148.439 98.0372 148.401 98.1116C148.29 98.2603 148.104 98.3718 147.955 98.3718C147.658 98.3718 147.361 98.5577 147.286 98.8179C147.212 98.9294 147.212 99.1153 147.249 99.2268C147.286 99.3384 147.286 99.4499 147.323 99.5986C147.361 99.4871 147.361 99.3755 147.398 99.2268C147.398 99.1153 147.435 99.0038 147.509 98.9294C147.621 98.7807 147.807 98.6692 147.993 98.6692C148.29 98.6692 148.55 98.4833 148.662 98.1859C148.699 98.0744 148.699 97.8885 148.699 97.777C148.662 97.6655 148.662 97.554 148.625 97.4053C148.513 97.554 148.476 97.7027 148.476 97.8142ZM146.617 116.662C146.617 116.773 146.58 116.885 146.543 116.959C146.431 117.108 146.245 117.219 146.097 117.219C145.799 117.219 145.502 117.405 145.427 117.666C145.353 117.777 145.353 117.963 145.39 118.074C145.427 118.186 145.427 118.297 145.465 118.446C145.502 118.335 145.502 118.223 145.539 118.074C145.539 117.963 145.576 117.851 145.651 117.777C145.762 117.628 145.948 117.517 146.134 117.517C146.431 117.517 146.691 117.331 146.803 117.034C146.84 116.922 146.84 116.736 146.84 116.625C146.803 116.513 146.803 116.402 146.766 116.253C146.654 116.402 146.654 116.55 146.617 116.662ZM163.123 119.19C163.123 119.301 163.085 119.413 163.048 119.487C162.937 119.636 162.751 119.747 162.602 119.747C162.305 119.747 162.007 119.933 161.933 120.193C161.859 120.305 161.859 120.491 161.896 120.602C161.933 120.714 161.933 120.825 161.97 120.974C162.007 120.863 162.007 120.751 162.045 120.602C162.045 120.491 162.082 120.379 162.156 120.305C162.268 120.156 162.454 120.045 162.639 120.045C162.937 120.045 163.197 119.859 163.309 119.561C163.346 119.45 163.346 119.264 163.346 119.153C163.309 119.041 163.309 118.929 163.271 118.781C163.16 118.967 163.16 119.078 163.123 119.19ZM147.881 140.342C147.881 140.454 147.844 140.565 147.807 140.64C147.695 140.788 147.509 140.9 147.361 140.9C147.063 140.9 146.766 141.086 146.691 141.346C146.617 141.457 146.617 141.643 146.654 141.755C146.691 141.866 146.691 141.978 146.729 142.127C146.766 142.015 146.766 141.903 146.803 141.755C146.803 141.643 146.84 141.532 146.914 141.457C147.026 141.309 147.212 141.197 147.398 141.197C147.695 141.197 147.955 141.011 148.067 140.714C148.104 140.602 148.104 140.416 148.104 140.305C148.067 140.193 148.067 140.082 148.03 139.933C147.918 140.119 147.918 140.231 147.881 140.342ZM160.669 112.647C160.781 112.573 160.855 112.535 160.929 112.498C161.115 112.461 161.338 112.498 161.45 112.647C161.636 112.833 161.97 112.944 162.23 112.796C162.379 112.758 162.454 112.647 162.528 112.535C162.602 112.424 162.677 112.35 162.714 112.238C162.602 112.312 162.528 112.387 162.416 112.424C162.305 112.498 162.23 112.535 162.156 112.573C161.97 112.61 161.784 112.573 161.636 112.424C161.413 112.201 161.078 112.164 160.818 112.275C160.706 112.312 160.595 112.461 160.52 112.535C160.446 112.647 160.372 112.721 160.335 112.833C160.483 112.796 160.558 112.721 160.669 112.647ZM151.041 121.346C151.152 121.271 151.227 121.234 151.301 121.197C151.487 121.16 151.71 121.197 151.822 121.346C152.007 121.532 152.342 121.643 152.602 121.495C152.751 121.457 152.825 121.346 152.9 121.234C152.974 121.123 153.048 121.048 153.085 120.937C152.974 121.011 152.9 121.086 152.788 121.123C152.677 121.197 152.602 121.234 152.528 121.271C152.342 121.309 152.156 121.271 152.007 121.123C151.784 120.9 151.45 120.863 151.19 120.974C151.078 121.011 150.967 121.16 150.892 121.234C150.818 121.346 150.743 121.42 150.706 121.532C150.855 121.495 150.967 121.42 151.041 121.346ZM144.535 134.208C144.647 134.134 144.721 134.097 144.796 134.06C144.981 134.022 145.204 134.06 145.316 134.208C145.502 134.394 145.836 134.506 146.097 134.357C146.245 134.32 146.32 134.208 146.394 134.097C146.468 133.985 146.543 133.911 146.58 133.799C146.468 133.874 146.394 133.948 146.282 133.985C146.171 134.06 146.097 134.097 146.022 134.134C145.836 134.171 145.651 134.134 145.502 133.985C145.279 133.762 144.944 133.725 144.684 133.837C144.572 133.874 144.461 134.022 144.387 134.097C144.312 134.208 144.238 134.283 144.201 134.394C144.349 134.357 144.424 134.283 144.535 134.208ZM147.361 147.554C147.472 147.48 147.546 147.443 147.621 147.405C147.807 147.368 148.03 147.405 148.141 147.554C148.327 147.74 148.662 147.851 148.922 147.703C149.071 147.666 149.145 147.554 149.219 147.443C149.294 147.331 149.368 147.257 149.405 147.145C149.294 147.219 149.219 147.294 149.108 147.331C148.996 147.405 148.922 147.443 148.848 147.48C148.662 147.517 148.476 147.48 148.327 147.331C148.104 147.108 147.769 147.071 147.509 147.182C147.398 147.219 147.286 147.368 147.212 147.443C147.138 147.554 147.063 147.628 147.026 147.74C147.138 147.666 147.249 147.591 147.361 147.554ZM159.963 132.87C160.074 132.796 160.149 132.758 160.223 132.721C160.409 132.684 160.632 132.721 160.743 132.87C160.929 133.056 161.264 133.167 161.524 133.019C161.673 132.982 161.747 132.87 161.822 132.758C161.896 132.647 161.97 132.573 162.007 132.461C161.896 132.535 161.822 132.61 161.71 132.647C161.598 132.721 161.524 132.758 161.45 132.796C161.264 132.833 161.078 132.796 160.929 132.647C160.706 132.424 160.372 132.387 160.111 132.498C160 132.535 159.888 132.684 159.814 132.758C159.74 132.87 159.665 132.944 159.628 133.056C159.777 133.019 159.851 132.944 159.963 132.87ZM168.625 138.186C168.736 138.112 168.81 138.074 168.885 138.037C169.071 138 169.294 138.037 169.405 138.186C169.591 138.372 169.926 138.483 170.186 138.335C170.335 138.298 170.409 138.186 170.483 138.074C170.558 137.963 170.632 137.889 170.669 137.777C170.558 137.851 170.483 137.926 170.372 137.963C170.26 138.037 170.186 138.074 170.112 138.112C169.926 138.149 169.74 138.112 169.591 137.963C169.368 137.74 169.033 137.703 168.773 137.814C168.662 137.851 168.55 138 168.476 138.074C168.401 138.186 168.327 138.26 168.29 138.372C168.439 138.335 168.55 138.26 168.625 138.186ZM154.052 142.238C154.164 142.164 154.238 142.127 154.312 142.089C154.498 142.052 154.721 142.089 154.833 142.238C155.019 142.424 155.353 142.535 155.613 142.387C155.762 142.35 155.836 142.238 155.911 142.127C155.985 142.015 156.059 141.941 156.097 141.829C155.985 141.903 155.911 141.978 155.799 142.015C155.688 142.089 155.613 142.127 155.539 142.164C155.353 142.201 155.167 142.164 155.019 142.015C154.796 141.792 154.461 141.755 154.201 141.866C154.089 141.903 153.978 142.052 153.903 142.127C153.829 142.238 153.755 142.312 153.717 142.424C153.829 142.35 153.94 142.275 154.052 142.238ZM172.862 147.554C172.974 147.48 173.048 147.443 173.123 147.405C173.309 147.368 173.532 147.405 173.643 147.554C173.829 147.74 174.164 147.851 174.424 147.703C174.572 147.666 174.647 147.554 174.721 147.443C174.796 147.331 174.87 147.257 174.907 147.145C174.796 147.219 174.721 147.294 174.61 147.331C174.498 147.405 174.424 147.443 174.349 147.48C174.164 147.517 173.978 147.48 173.829 147.331C173.606 147.108 173.271 147.071 173.011 147.182C172.9 147.219 172.788 147.368 172.714 147.443C172.639 147.554 172.565 147.628 172.528 147.74C172.677 147.666 172.788 147.591 172.862 147.554ZM176.245 133.093C176.171 133.056 176.059 133.019 176.022 132.944C175.799 132.721 175.465 132.684 175.204 132.796C175.093 132.833 174.981 132.944 174.907 133.056C174.833 133.167 174.758 133.242 174.721 133.353C174.833 133.279 174.907 133.205 175.019 133.167C175.13 133.093 175.204 133.056 175.279 133.019C175.465 132.982 175.688 133.019 175.799 133.167C175.911 133.316 176.134 133.39 176.32 133.39C176.283 133.279 176.245 133.205 176.245 133.093ZM140.595 144.06C140.706 143.985 140.781 143.948 140.855 143.911C141.041 143.874 141.264 143.911 141.375 144.06C141.561 144.245 141.896 144.357 142.156 144.208C142.305 144.171 142.379 144.06 142.454 143.948C142.528 143.837 142.602 143.762 142.639 143.651C142.528 143.725 142.453 143.799 142.342 143.837C142.23 143.911 142.156 143.948 142.082 143.985C141.896 144.022 141.71 143.985 141.561 143.837C141.338 143.614 141.004 143.576 140.743 143.688C140.632 143.725 140.52 143.874 140.446 143.948C140.372 144.06 140.297 144.134 140.26 144.245C140.409 144.208 140.483 144.134 140.595 144.06ZM139.517 121.68C139.628 121.606 139.703 121.569 139.777 121.532C139.963 121.495 140.186 121.532 140.297 121.68C140.483 121.866 140.818 121.978 141.078 121.829C141.227 121.792 141.301 121.68 141.375 121.569C141.45 121.457 141.524 121.383 141.561 121.271C141.45 121.346 141.375 121.42 141.264 121.457C141.152 121.532 141.078 121.569 141.004 121.606C140.818 121.643 140.632 121.606 140.483 121.457C140.26 121.234 139.926 121.197 139.665 121.309C139.554 121.346 139.442 121.495 139.368 121.569C139.294 121.68 139.219 121.755 139.182 121.866C139.331 121.792 139.442 121.718 139.517 121.68Z" fill="white"/>
<path d="M141.894 109.264C141.485 110.751 141.076 112.238 140.704 113.725C140.741 113.093 140.815 112.424 140.89 111.792C140.89 111.755 140.853 111.755 140.815 111.792C140.667 112.61 140.555 113.428 140.555 114.208C140.109 115.993 139.663 117.814 139.254 119.599C138.473 123.056 137.804 126.55 137.247 130.082C136.912 132.052 136.689 134.06 136.354 136.03C136.354 136.067 136.392 136.067 136.429 136.03C136.726 134.283 137.135 132.536 137.544 130.788C137.916 129.078 138.288 127.331 138.659 125.584C139.366 122.089 140.146 118.632 140.853 115.138C141.262 113.167 141.633 111.197 142.042 109.264C142.042 109.227 141.894 109.19 141.894 109.264Z" fill="#263238"/>
<path d="M140.147 86.1042C140.63 88.818 139.106 91.3459 136.727 91.792C134.348 92.2381 132.043 90.3793 131.522 87.6655C131.039 84.9518 132.563 82.4239 134.943 81.9778C137.322 81.5689 139.627 83.4276 140.147 86.1042Z" fill="#455A64"/>
<path d="M141.558 86.0294C142.116 89.0406 140.406 91.8659 137.766 92.3492C135.127 92.8324 132.525 90.7878 132.004 87.7767C131.447 84.7655 133.157 81.9402 135.796 81.457C138.436 80.9737 141.001 83.0183 141.558 86.0294Z" fill="#C7C7C7"/>
<path d="M149.107 107.294C151.783 107.294 155.241 102.312 156.17 98.7434C156.244 98.4832 153.233 90.0817 152.824 88.3345C152.75 87.9627 142.601 93.6133 142.601 93.6133C142.601 93.6133 144.534 96.9962 145.278 100.007C145.315 100.268 146.504 107.294 149.107 107.294Z" fill="#FF7E69"/>
<path d="M146.506 100.639C146.135 100.751 145.763 100.825 145.428 100.825C145.391 100.602 145.354 100.416 145.317 100.305C145.317 100.305 145.317 100.305 145.317 100.268V100.23C145.317 100.193 145.317 100.119 145.28 100.082V100.045V100.007C145.131 99.3383 144.908 98.6691 144.685 98C144.127 96.513 143.458 95.1004 143.012 94.3197C142.975 94.2082 142.9 94.1338 142.863 94.0595C142.714 93.7993 142.64 93.6506 142.64 93.6134C142.677 93.6134 142.752 93.539 142.9 93.4647C143.012 93.4275 143.123 93.3532 143.272 93.2788C143.346 93.2416 143.421 93.2045 143.495 93.1673C143.569 93.1301 143.681 93.0558 143.793 93.0186C143.867 92.9814 143.978 92.9071 144.053 92.8699C144.053 92.8699 144.09 92.8699 144.09 92.8327C144.201 92.7584 144.313 92.7212 144.425 92.6468C144.462 92.6468 144.499 92.6097 144.499 92.6097C144.61 92.5353 144.722 92.4981 144.833 92.4238C144.908 92.3866 144.945 92.3494 145.019 92.3123C145.205 92.2007 145.391 92.0892 145.577 92.0149C145.726 91.9405 145.874 91.8662 146.023 91.7918C146.135 91.7175 146.283 91.6431 146.395 91.6059C146.804 91.3829 147.25 91.1598 147.659 90.9368C147.807 90.8624 147.919 90.7881 148.068 90.7138C148.551 90.4535 149.071 90.1933 149.517 89.9331C149.629 89.8587 149.741 89.8216 149.852 89.7844C149.926 89.7472 150.001 89.71 150.075 89.6729C150.149 89.6357 150.261 89.5985 150.335 89.5613C150.521 89.4498 150.707 89.3755 150.856 89.3011C150.967 89.2639 151.079 89.1896 151.19 89.1524C151.339 89.0781 151.488 89.0037 151.636 88.9294C151.711 88.8922 151.785 88.855 151.822 88.8178C152.008 88.7435 152.194 88.6691 152.306 88.5948C152.343 88.5948 152.38 88.5576 152.38 88.5576C152.603 91.3457 152.38 99.0781 146.506 100.639Z" fill="#263238"/>
<path d="M149.774 75.286C152.19 78.6689 153.826 90.1931 151.93 93.5017C149.216 98.2972 143.008 100.751 138.473 97.0705C134.086 93.5017 132.227 78.4831 134.458 75.286C137.803 70.602 146.242 70.3046 149.774 75.286Z" fill="#FF7E69"/>
<path d="M141.186 85.472C141.186 85.4349 141.261 85.5092 141.261 85.5464C141.335 86.3271 141.595 87.2193 142.339 87.368C142.376 87.368 142.376 87.4051 142.339 87.4051C141.446 87.4051 141.149 86.2155 141.186 85.472Z" fill="#263238"/>
<path d="M141.743 84.5427C142.97 84.2825 143.453 86.7361 142.301 86.9963C141.186 87.2937 140.74 84.803 141.743 84.5427Z" fill="#263238"/>
<path d="M136.946 86.3641C136.946 86.327 136.909 86.4013 136.909 86.4385C137.095 87.2192 137.132 88.1114 136.5 88.4831C136.463 88.4831 136.5 88.5203 136.5 88.5203C137.318 88.2972 137.243 87.0705 136.946 86.3641Z" fill="#263238"/>
<path d="M136.127 85.695C134.863 85.8437 135.235 88.3345 136.387 88.2229C137.539 88.0742 137.168 85.5835 136.127 85.695Z" fill="#263238"/>
<path d="M142.523 83.2416C142.151 83.2044 141.854 83.1301 141.482 83.0929C141.073 83.0185 140.776 83.0185 140.479 82.7211C140.33 82.5724 140.293 82.2379 140.441 82.052C140.739 81.643 141.259 81.6059 141.742 81.6802C142.263 81.7546 142.635 81.9404 143.006 82.3122C143.341 82.684 143.006 83.2788 142.523 83.2416Z" fill="#263238"/>
<path d="M134.903 84.6173C135.237 84.5057 135.535 84.3199 135.832 84.1712C136.204 83.9853 136.501 83.9109 136.687 83.5392C136.799 83.3533 136.724 83.0187 136.539 82.9072C136.13 82.6098 135.646 82.7213 135.2 82.9072C134.717 83.1303 134.42 83.3905 134.159 83.8738C133.974 84.3199 134.494 84.8031 134.903 84.6173Z" fill="#263238"/>
<path d="M143.453 92.4238C143.305 92.6469 143.156 92.9071 142.896 92.9814C142.635 93.0558 142.301 92.9814 142.041 92.9443C142.003 92.9443 142.003 92.9814 142.003 92.9814C142.264 93.2417 142.71 93.3532 143.044 93.2045C143.379 93.093 143.49 92.7584 143.528 92.4238H143.453Z" fill="#263238"/>
<path d="M142.188 90.268C141.891 91.0115 141.333 91.4947 140.664 91.7549C140.367 91.8665 140.032 91.9408 139.735 91.978C139.66 91.978 139.623 91.978 139.549 91.978C139.475 91.978 139.437 91.978 139.363 91.978C139.289 91.978 139.214 91.9036 139.177 91.8293C139.177 91.7921 139.177 91.7921 139.177 91.7549V91.6806C139.066 91.0858 138.954 90.1936 138.954 90.1936C138.768 90.3423 137.727 91.0486 137.69 90.7512C137.356 88.149 136.984 85.2865 137.207 82.61C137.207 82.5356 137.356 82.5356 137.356 82.61C137.764 85.1007 137.727 87.6286 138.099 90.1193C138.434 89.9334 138.954 89.5616 139.251 89.5245C139.326 89.5245 139.437 91.3088 139.512 91.5691C139.512 91.5691 139.512 91.5691 139.512 91.6062C140.515 91.5319 141.222 91.123 142.077 90.268C142.151 90.1564 142.225 90.2308 142.188 90.268Z" fill="#263238"/>
<path d="M140.035 91.643C140.035 91.643 140.704 92.2378 141.447 92.3865C141.745 92.4237 142.005 92.4237 142.302 92.275C142.897 92.0148 142.786 91.42 142.6 90.9739C142.451 90.6022 142.191 90.2676 142.191 90.2676C142.191 90.2676 141.447 91.2713 140.035 91.643Z" fill="#263238"/>
<path d="M141.447 92.3492C141.745 92.3863 142.005 92.3863 142.302 92.2376C142.897 91.9774 142.786 91.3826 142.6 90.9365C141.968 91.1596 141.373 91.7172 141.447 92.3492Z" fill="#FF99BA"/>
<path opacity="0.2" d="M149.367 80.1192C150.147 81.0857 151.82 83.4278 152.378 83.4278C151.783 79.6731 150.817 76.4017 149.33 74.6545C148.698 73.911 147.954 73.3534 147.136 72.8701C147.322 73.911 148.549 79.1155 149.367 80.1192Z" fill="#263238"/>
<path d="M138.174 77.8511C139.103 78.7062 140.442 79.0779 141.705 78.7433C142.932 78.4088 144.047 77.405 144.345 76.1783C144.345 76.1411 144.419 76.1411 144.419 76.1783C144.085 77.5166 143.155 78.7062 141.78 79.0407C140.479 79.3753 138.992 78.9292 138.099 77.9255C138.062 77.8883 138.137 77.814 138.174 77.8511Z" fill="#263238"/>
<path d="M140.966 68.2973C143.122 68.1114 145.241 69.078 146.171 70.4534C146.765 71.2713 146.914 72.2007 146.877 73.13C146.877 73.1672 146.803 73.1672 146.803 73.13C146.765 71.6802 145.873 70.0817 144.2 69.2638C142.602 68.446 140.557 68.3717 138.921 69.2267C138.066 69.6728 137.397 70.3047 137.1 71.0482C137.063 71.1226 136.914 71.0854 136.914 71.0111C137.36 69.5612 139.033 68.446 140.966 68.2973Z" fill="#263238"/>
<path d="M129.031 74.3197C129.254 73.2417 129.886 72.2379 130.778 71.5316C132.005 70.5651 133.492 70.5279 135.016 70.4907C135.053 70.4907 135.053 70.5651 135.016 70.5651C133.752 70.5651 132.451 70.6766 131.373 71.3829C130.481 71.9777 129.774 72.8699 129.477 73.8736C128.845 75.9926 129.923 78.4089 132.005 79.3011C133.157 79.7844 134.533 79.7844 135.685 79.264C135.722 79.2268 135.759 79.3011 135.722 79.3383C133.64 80.342 130.964 79.6357 129.737 77.6283C129.068 76.6989 128.808 75.4721 129.031 74.3197Z" fill="#263238"/>
<path d="M150.962 77.7769C150.962 77.7769 152.561 73.6877 150.59 71.6802C149.475 70.5278 146.278 71.0854 146.278 71.0854C146.278 71.0854 145.014 69.3754 142.3 69.078C139.549 68.7806 136.538 70.7137 136.538 70.7137C136.538 70.7137 133.824 69.5613 131.594 71.1969C128.509 73.5018 129.512 78.5204 133.044 79.7471C135.535 80.6022 138.471 78.1486 138.471 78.1486C138.769 78.1486 142.152 79.6728 144.196 76.5873C144.196 76.5873 146.315 78.0743 147.914 76.6616C147.951 76.6616 149.029 78.2973 150.962 77.7769Z" fill="#263238"/>
<path d="M142.821 88.8549C140.962 88.9664 139.363 87.5538 139.252 85.6951C139.14 83.8363 140.553 82.2378 142.412 82.1263C144.27 82.0148 145.869 83.4274 145.98 85.2861C146.092 86.8475 145.088 88.2229 143.638 88.669C143.378 88.7806 143.118 88.8177 142.821 88.8549ZM139.698 85.6951C139.809 87.2936 141.185 88.5203 142.783 88.4088C144.382 88.2973 145.609 86.9218 145.497 85.3233C145.386 83.7248 144.01 82.498 142.412 82.6096C142.151 82.6096 141.928 82.6839 141.705 82.7583C140.479 83.13 139.624 84.3196 139.698 85.6951Z" fill="#FFC727"/>
<path d="M135.87 90.1933C134.532 90.4535 133.119 89.1895 132.784 87.368C132.598 86.513 132.71 85.6208 133.045 84.9145C133.379 84.171 133.937 83.7249 134.606 83.5762C135.275 83.4275 135.981 83.6877 136.539 84.2081C137.097 84.7286 137.506 85.5092 137.691 86.3643C138.026 88.0743 137.32 89.6728 136.093 90.0817C136.019 90.1561 135.944 90.1561 135.87 90.1933ZM133.416 85.1375C133.119 85.7695 133.045 86.513 133.193 87.2936C133.491 88.855 134.643 89.9702 135.758 89.7472C136.874 89.5241 137.506 88.0743 137.208 86.513C137.059 85.7323 136.688 85.0632 136.204 84.5799C135.721 84.1338 135.164 83.9479 134.643 84.0594C134.569 84.0594 134.532 84.0966 134.494 84.0966C134.048 84.2453 133.677 84.5799 133.416 85.1375Z" fill="#FFC727"/>
<path d="M139.439 86.0666L139.662 85.6577C139.067 85.3231 137.803 84.9885 137.171 86.0294L137.543 86.2524C138.138 85.3603 139.402 86.0294 139.439 86.0666Z" fill="#FFC727"/>
<path d="M154.271 84.0225L154.605 83.7622C154.457 83.6135 153.304 82.1637 152.3 82.2009C151.371 82.2381 145.572 83.9481 145.312 84.0225L145.423 84.4686C147.096 83.9853 151.557 82.6842 152.3 82.6842C153.007 82.6098 153.973 83.6507 154.271 84.0225Z" fill="#FFC727"/>
<path d="M150.406 84.9146C150.406 84.9146 151.781 80.6023 153.64 81.0112C155.536 81.383 155.238 87.1079 153.603 88.3718C151.93 89.6729 150.703 88.1488 150.703 88.1488L150.406 84.9146Z" fill="#DD6A57"/>
<path d="M153.529 82.6465C153.566 82.6465 153.566 82.6837 153.566 82.6837C152.414 83.613 152.116 85.0629 152.005 86.4755C152.228 85.8807 152.711 85.4346 153.492 85.6948C153.529 85.6948 153.529 85.7692 153.492 85.7692C152.897 85.8064 152.562 86.0294 152.339 86.587C152.191 86.9588 152.116 87.4049 152.042 87.8138C152.005 87.9625 151.782 87.9625 151.782 87.8138V87.7766C151.224 86.1409 151.782 83.3528 153.529 82.6465Z" fill="#263238"/>
<path d="M152.485 81.6805C152.485 81.6805 152.224 75.6582 150.105 72.5727C147.763 69.1154 141.258 66.8106 136.574 70.7139C136.574 70.7139 143.34 68.9667 147.763 73.0931C149.808 74.989 150.514 82.0522 150.514 82.0522L152.485 81.6805Z" fill="#C7C7C7"/>
<path d="M152.63 90.3144C155.306 90.043 157.225 87.3558 156.916 84.3122C156.608 81.2687 154.188 79.0214 151.513 79.2928C148.837 79.5642 146.918 82.2514 147.226 85.295C147.535 88.3385 149.954 90.5858 152.63 90.3144Z" fill="#C7C7C7"/>
<path d="M148.616 84.9892C148.876 87.7401 151.069 89.7476 153.485 89.4874C155.902 89.2271 157.612 86.8108 157.314 84.097C157.054 81.3461 154.861 79.3386 152.445 79.5989C150.065 79.8219 148.355 82.2383 148.616 84.9892Z" fill="#455A64"/>
<path d="M163.272 101.234C170.484 108.966 187.622 137.925 182.046 143.241C176.432 148.632 145.651 141.383 136.99 137.256C134.425 136.03 144.202 119.97 147.25 119.598C149.778 119.301 162.677 125.175 163.049 124.431C163.458 123.576 160.559 118.223 157.436 107.033C153.83 94.1336 160.075 97.8139 163.272 101.234Z" fill="#FF7E69"/>
<path d="M134.42 114.431C128.175 113.576 126.427 114.282 121.52 110.751C118.323 108.409 115.461 109.487 117.282 113.167C120.294 119.226 128.137 122.014 131.111 122.238L134.42 114.431Z" fill="#FF7E69"/>
<path d="M151.077 120.453C151.077 120.453 144.051 116.549 137.471 114.951C132.936 113.836 122.75 112.572 113.01 122.609C110.706 124.988 109.107 130.007 114.274 127.516C117.955 125.732 119.739 123.464 122.081 122.832C122.081 122.832 120.817 129.486 123.271 131.68C124.386 132.683 127.471 135.323 130.148 137.033C130.148 137.033 130.668 136.549 131.263 135.843C131.263 135.843 133.754 137.702 138.475 137.256L151.077 120.453Z" fill="#FF7E69"/>
<path d="M132.934 114.617C130.741 115.769 126.168 118.223 123.157 121.568C119.774 125.286 114.31 133.316 117.06 135.769C119.068 137.591 121.447 134.691 121.447 134.691C121.447 134.691 119.886 138.483 122.042 139.71C124.012 140.825 125.722 138.483 125.722 138.483C125.722 138.483 125.165 140.936 127.283 141.68C129.849 142.535 130.592 137.219 133.938 135.843C134.681 135.509 132.934 114.617 132.934 114.617Z" fill="#FF7E69"/>
<path d="M127.657 124.468C125.798 125.88 122.341 130.155 121.411 134.579C121.374 134.691 121.449 134.765 121.486 134.654C123.568 130.007 126.393 126.066 127.657 124.468C127.694 124.468 127.657 124.431 127.657 124.468Z" fill="#191919"/>
<path d="M131.299 127.962C129.812 129.337 126.466 133.91 125.648 138.408C125.648 138.52 125.685 138.557 125.722 138.482C127.693 133.538 130.109 129.672 131.299 127.962C131.336 127.962 131.299 127.962 131.299 127.962Z" fill="#191919"/>
<path d="M122.08 122.758C120.035 123.353 118.697 124.356 116.987 125.546C116.132 126.141 115.277 126.736 114.347 127.219C113.53 127.665 112.303 128.334 111.411 127.628C110.927 127.219 110.927 126.512 111.039 125.955C111.15 125.323 111.411 124.728 111.782 124.208C111.819 124.17 111.745 124.133 111.745 124.17C111.411 124.654 111.113 125.137 110.89 125.695C110.704 126.178 110.556 126.773 110.704 127.293C111.002 128.408 112.34 128.557 113.269 128.26C113.827 128.074 114.347 127.776 114.868 127.479C115.351 127.182 115.834 126.884 116.318 126.587C117.284 125.918 118.214 125.211 119.18 124.542C120.221 123.799 120.964 123.464 122.117 122.832C122.117 122.795 122.117 122.758 122.08 122.758Z" fill="#263238"/>
<path d="M117.805 129.933C118.325 128.781 121.188 123.911 122.117 122.796C122.154 122.759 122.117 122.721 122.08 122.759C120.481 124.283 117.916 128.26 117.322 129.562C116.727 130.825 116.058 132.461 116.058 133.874C116.058 135.993 117.47 136.402 117.991 136.513C118.623 136.625 119.255 136.513 119.812 136.216C120.444 135.881 121.039 135.212 121.448 134.654C121.485 134.617 121.448 134.58 121.411 134.617C120.667 135.472 119.441 136.29 118.288 136.141C117.768 136.067 117.284 135.844 116.987 135.435C116.615 134.952 116.615 134.283 116.652 133.725C116.727 132.387 117.247 131.16 117.805 129.933Z" fill="#263238"/>
<path d="M125.644 138.446C125.347 138.706 124.752 139.598 123.748 139.784C123.042 139.933 122.299 139.858 121.741 139.338C121.221 138.818 120.998 138.111 120.96 137.405C120.923 136.996 121.258 135.249 121.406 134.728C121.406 134.691 121.369 134.654 121.369 134.691C121.072 135.621 120.737 136.661 120.737 137.591C120.737 138.371 120.998 139.189 121.555 139.71C122.15 140.267 123.005 140.453 123.786 140.156C124.157 140.007 125.347 139.227 125.719 138.483C125.719 138.446 125.644 138.409 125.644 138.446Z" fill="#263238"/>
<path d="M133.716 135.435C133.382 135.621 133.084 135.918 132.824 136.215C132.527 136.513 132.229 136.81 131.969 137.108C131.411 137.702 130.928 138.409 130.482 139.115C130.036 139.821 129.664 140.639 128.958 141.16C128.252 141.643 127.322 141.717 126.616 141.234C126.244 140.974 126.021 140.602 125.872 140.156C125.761 139.71 125.686 139.152 125.724 138.706C125.724 138.669 125.686 138.669 125.649 138.706C125.612 139.152 125.501 139.561 125.538 140.044C125.575 140.453 125.724 140.825 125.947 141.16C126.43 141.829 127.322 142.126 128.14 141.977C129.032 141.829 129.701 141.16 130.185 140.416C130.705 139.598 131.151 138.743 131.746 137.963C132.043 137.554 132.341 137.145 132.675 136.736C133.01 136.327 133.419 135.955 133.753 135.546C133.791 135.472 133.753 135.398 133.716 135.435Z" fill="#263238"/>
<path d="M136.206 137.256C135.537 137.182 133.976 136.959 132.786 136.55C132.749 136.55 132.712 136.624 132.749 136.661C133.195 136.922 134.161 137.145 134.459 137.219C135.016 137.33 135.648 137.405 136.243 137.33C136.243 137.33 136.28 137.256 136.206 137.256Z" fill="#263238"/>
<path d="M174.683 130.082C172.899 128.855 170.966 127.814 168.995 126.848C167.062 125.918 165.018 125.175 162.973 124.506C161.783 124.134 160.631 123.837 159.441 123.502C159.404 123.502 159.404 123.539 159.441 123.576C161.523 124.208 163.531 124.989 165.501 125.844C167.471 126.699 169.441 127.591 171.375 128.521C172.49 129.041 173.531 129.636 174.609 130.193C174.683 130.193 174.72 130.119 174.683 130.082Z" fill="#263238"/>
<path d="M177.991 119.45L160.519 118.855C160.519 118.855 157.247 110.23 156.021 102.535C154.794 94.84 161.076 97.182 167.656 105.435C174.199 113.65 177.991 119.45 177.991 119.45Z" fill="#FFC727"/>
<path d="M162.454 112.461C162.342 112.535 162.268 112.573 162.157 112.61C161.971 112.647 161.785 112.573 161.636 112.461C161.413 112.238 161.078 112.201 160.818 112.312C160.707 112.35 160.595 112.498 160.521 112.573C160.446 112.684 160.372 112.759 160.335 112.87C160.446 112.796 160.521 112.721 160.632 112.684C160.744 112.61 160.818 112.573 160.893 112.535C161.078 112.498 161.264 112.535 161.413 112.684C161.599 112.907 161.933 112.982 162.194 112.833C162.305 112.796 162.417 112.684 162.491 112.573C162.565 112.461 162.64 112.387 162.677 112.275C162.677 112.312 162.565 112.387 162.454 112.461ZM167.993 109.227C167.956 109.115 167.956 109.004 167.919 108.855C167.881 108.967 167.881 109.078 167.844 109.227C167.844 109.338 167.807 109.45 167.77 109.524C167.658 109.673 167.473 109.785 167.324 109.785C167.026 109.785 166.729 109.97 166.655 110.231C166.58 110.342 166.58 110.528 166.617 110.64C166.655 110.751 166.655 110.863 166.692 111.011C166.729 110.9 166.729 110.788 166.766 110.64C166.766 110.528 166.803 110.417 166.878 110.342C166.989 110.193 167.175 110.082 167.361 110.082C167.658 110.082 167.919 109.896 168.03 109.599C167.993 109.487 167.993 109.338 167.993 109.227ZM161.822 99.5986C161.822 99.6358 161.822 99.673 161.822 99.7102C161.859 99.8217 161.859 99.9332 161.896 100.082C161.933 99.9704 161.933 99.8589 161.971 99.7102C161.933 99.673 161.896 99.6358 161.822 99.5986ZM174.313 114.171C174.164 114.171 174.052 114.097 173.978 114.022C173.792 113.837 173.458 113.725 173.197 113.874C173.049 113.911 172.974 114.022 172.9 114.134C172.826 114.246 172.751 114.32 172.714 114.431C172.826 114.357 172.9 114.283 173.012 114.246C173.086 114.171 173.197 114.134 173.272 114.097C173.458 114.06 173.644 114.134 173.792 114.246C173.978 114.431 174.275 114.506 174.499 114.431C174.424 114.32 174.35 114.246 174.313 114.171ZM162.194 105.435C162.082 105.435 161.971 105.398 161.896 105.324C161.748 105.212 161.636 105.026 161.636 104.84C161.636 104.543 161.45 104.245 161.153 104.171C161.004 104.134 160.855 104.134 160.744 104.134C160.632 104.171 160.521 104.171 160.372 104.208C160.484 104.245 160.595 104.245 160.744 104.283C160.855 104.283 160.967 104.32 161.041 104.357C161.227 104.469 161.301 104.654 161.301 104.803C161.301 105.101 161.487 105.398 161.748 105.472C161.859 105.509 162.045 105.547 162.157 105.509C162.268 105.472 162.38 105.472 162.528 105.435C162.454 105.472 162.305 105.472 162.194 105.435ZM170.261 117.666C170.149 117.666 170.038 117.628 169.963 117.554C169.815 117.443 169.703 117.257 169.703 117.071C169.703 116.773 169.517 116.513 169.22 116.402C169.108 116.364 168.922 116.364 168.811 116.364C168.699 116.402 168.588 116.402 168.439 116.439C168.551 116.476 168.662 116.476 168.811 116.513C168.922 116.513 169.034 116.55 169.108 116.588C169.294 116.699 169.368 116.885 169.368 117.034C169.368 117.331 169.554 117.628 169.815 117.703C169.926 117.777 170.112 117.777 170.223 117.74C170.335 117.703 170.446 117.703 170.595 117.666C170.484 117.703 170.372 117.703 170.261 117.666Z" fill="white"/>
<path d="M161.223 118.818C161.111 118.818 160.517 118.706 160.517 118.706C160.479 118.483 159.476 114.877 159.216 114.097C158.695 112.498 158.063 110.937 157.431 109.338C157.394 109.301 157.32 109.301 157.357 109.376C157.766 110.714 158.137 112.089 158.509 113.428C158.398 113.242 158.249 113.056 158.137 112.833C157.914 112.424 157.691 112.015 157.468 111.606C157.431 111.569 157.394 111.606 157.394 111.643C157.58 112.201 157.84 112.758 158.175 113.242C158.323 113.465 158.472 113.651 158.621 113.874C158.658 113.985 158.695 114.097 158.732 114.208C158.992 114.989 160.256 118.892 160.331 118.892C160.331 118.892 160.963 118.892 161.186 118.892C161.26 118.929 161.297 118.818 161.223 118.818Z" fill="#263238"/>
<path d="M175.163 116.067C171.409 115.77 167.58 115.77 163.825 115.807C162.747 115.807 161.669 115.881 160.628 115.918C160.591 115.918 160.591 115.956 160.628 115.956C162.524 116.067 164.42 116.067 166.279 116.104C168.174 116.141 170.07 116.141 171.966 116.141C173.044 116.141 174.122 116.104 175.163 116.104C175.2 116.104 175.238 116.067 175.163 116.067Z" fill="#263238"/>
<path d="M114.629 149.664H117.306V147.917H114.629V149.664Z" fill="#455A64"/>
<path d="M111.164 149.545H113.841V147.798H111.164V149.545Z" fill="#455A64"/>
<path d="M107.695 149.426H110.372V147.679H107.695V149.426Z" fill="#455A64"/>
<path d="M104.227 149.307H106.904V147.56H104.227V149.307Z" fill="#455A64"/>
<path d="M100.754 149.188H103.431V147.441H100.754V149.188Z" fill="#455A64"/>
<path d="M97.2931 149.069H99.9697V147.322H97.2931V149.069Z" fill="#455A64"/>
<path d="M93.8557 148.951H96.5322V147.203H93.8557V148.951Z" fill="#455A64"/>
<path d="M90.3913 148.832H93.0679V147.085H90.3913V148.832Z" fill="#455A64"/>
<path d="M86.922 148.713H89.5986V146.966H86.922V148.713Z" fill="#455A64"/>
<path d="M86.2812 150.64H117.954V148.521L86.2812 147.629V150.64Z" fill="#37474F"/>
<path d="M55.3545 142.275H107.659L99.3322 103.354H47.0273L55.3545 142.275Z" fill="#455A64"/>
<path d="M53.4209 142.275H105.726L97.3986 103.354H45.0938L53.4209 142.275Z" fill="#37474F"/>
<path d="M70.8916 120.566C71.189 122.35 72.8619 123.8 74.6463 123.8C76.4307 123.8 77.6574 122.35 77.36 120.566C77.0626 118.781 75.3898 117.332 73.6054 117.332C71.821 117.332 70.5942 118.781 70.8916 120.566Z" fill="#263238"/>
<path d="M68.2188 152.461H93.9437V150.454L68.2188 149.636V152.461Z" fill="#455A64"/>
<path d="M61.2266 152.461H75.0184L83.3455 130.64H69.5165L61.2266 152.461Z" fill="#455A64"/>
<path d="M58.9258 152.461H72.7548L81.0819 130.64H67.2529L58.9258 152.461Z" fill="#263238"/>
<path d="M118.923 152.982C118.923 152.982 143.161 152.982 145.429 152.982C147.696 152.982 144.425 146.551 136.172 144.06C127.92 141.606 116.321 150.566 118.923 152.982Z" fill="#37474F"/>
<path d="M129.33 152.982C129.181 152.276 128.958 151.57 128.698 150.9C128.438 150.231 128.14 149.599 127.768 148.967C127.397 148.335 126.951 147.778 126.467 147.257L126.095 146.885L125.687 146.551C125.426 146.291 125.092 146.142 124.832 145.919C125.501 146.216 126.17 146.551 126.69 147.071C127.248 147.555 127.731 148.149 128.103 148.781C128.475 149.413 128.772 150.083 128.995 150.789C129.181 151.532 129.33 152.239 129.33 152.982Z" fill="#263238"/>
<path d="M126.208 146.848C125.836 147.034 125.465 147.22 125.13 147.443C124.758 147.629 124.424 147.852 124.052 148.038C123.346 148.447 122.639 148.893 122.007 149.339C121.338 149.822 120.706 150.305 120.149 150.9C119.888 151.198 119.628 151.495 119.405 151.867C119.182 152.201 119.033 152.573 118.922 152.982C118.922 152.573 119.071 152.164 119.219 151.792C119.405 151.421 119.628 151.086 119.888 150.751C120.409 150.12 121.078 149.562 121.747 149.079C122.416 148.595 123.123 148.186 123.866 147.815C124.647 147.443 125.39 147.108 126.208 146.848Z" fill="#263238"/>
<path d="M168.698 137.554L167.137 157.331H156.245L154.684 137.554H168.698Z" fill="#FFC727"/>
<path opacity="0.1" d="M168.698 137.554L167.137 157.331H156.245L154.684 137.554H168.698Z" fill="black"/>
<path d="M169.626 135.77H153.641V138.669H169.626V135.77Z" fill="#455A64"/>
<path d="M168.546 135.769H154.754L155.535 132.535H167.728L168.546 135.769Z" fill="#37474F"/>
<path d="M165.462 147.628C165.462 150.193 163.752 152.275 161.67 152.275C159.588 152.275 157.878 150.193 157.878 147.628C157.878 145.063 159.588 142.981 161.67 142.981C163.789 142.981 165.462 145.063 165.462 147.628Z" fill="white"/>
</g>
<defs>
<clipPath id="clip0">
<rect width="158.848" height="143.569" fill="white" transform="translate(40 18)"/>
</clipPath>
</defs>
</svg>
