<svg xmlns="http://www.w3.org/2000/svg" width="72" height="68.235" viewBox="0 0 72 68.235">
  <g id="Group_1121" data-name="Group 1121" transform="translate(-869 -989)">
    <path id="Union_1" data-name="Union 1" d="M2490.984-97.2l-.975-14.094a3.692,3.692,0,0,1,3.427-3.945l6.116-.427a3.286,3.286,0,0,1,3.073,1.64c2.748-1.212,7.9-3.812,17.048-1.034a15.276,15.276,0,0,0,3.442.546l14.2.177a3.405,3.405,0,0,1,3.649,3.117,3.494,3.494,0,0,1-2.969,3.827l-15.955,1.58a.918.918,0,0,0-.827,1.049.918.918,0,0,0,.96.783l.62-.03s10.741-.177,18.1-1.8a10.529,10.529,0,0,0,3.678-1.566c.177-.118.414-.281.591-.4a85.77,85.77,0,0,1,9.159-5.54c.768-.413,3.619-2.009,4.993-1.905a2.869,2.869,0,0,1,2.688,3.132,3.471,3.471,0,0,1-1.743,2.821l-20.327,12.335-.769.414a13.952,13.952,0,0,1-8.435,1.477l-26.872-1.2a3.281,3.281,0,0,1-2.807,2.039l-6.115.428c-.09.006-.181.01-.27.01A3.693,3.693,0,0,1,2490.984-97.2Zm4.092-1.994a2.08,2.08,0,0,0,2.083,2.083,2.09,2.09,0,0,0,2.083-2.083,2.081,2.081,0,0,0-2.083-2.083A2.08,2.08,0,0,0,2495.076-99.2Zm49.12-12.351a6.5,6.5,0,0,0-.311-1.433.209.209,0,0,0,.03-.1c2.142-1.211,6.338-3.324,8.627-4.254a3.351,3.351,0,0,1,3.324.3,20.662,20.662,0,0,0-2.3,1.064,89.639,89.639,0,0,0-8.716,5.155c-.207.148-.428.311-.635.458A6.323,6.323,0,0,0,2544.2-111.547Zm-3.1-5.037c1.4-.769,4.565-1.832,5.968-2.408a3.3,3.3,0,0,1,3.28.251c-1.654.769-4.846,1.936-6.352,2.793l-1.02.59c-.1.059-.192.133-.281.193A6.608,6.608,0,0,0,2541.094-116.584Zm-14.168-4.506c-1.019-1.226-2.023-2.467-3.013-3.708a.552.552,0,0,0-.68-.221c-1.492.428-3.014.769-4.491,1.241a2.391,2.391,0,0,1-3.22-2.349c.014-1.536-.148-3.073-.222-4.609a.573.573,0,0,0-.443-.606c-1.522-.562-3.029-1.138-4.55-1.729a2.257,2.257,0,0,1-1.152-3.427c.857-1.373,1.743-2.732,2.644-4.091a.608.608,0,0,0,0-.8c-.886-1.329-1.758-2.659-2.571-4.019a2.266,2.266,0,0,1,1.122-3.545c1.492-.591,3-1.167,4.506-1.729a.581.581,0,0,0,.428-.6c.059-1.611.118-3.206.237-4.817.118-1.714,1.344-2.57,3.442-2.068,1.078.3,2.586.68,4.077,1.108a.7.7,0,0,0,.886-.28c.946-1.241,1.936-2.438,2.911-3.65a2.291,2.291,0,0,1,3.8,0c.99,1.211,1.994,2.438,2.97,3.664a.609.609,0,0,0,.753.251c1.522-.443,3.058-.842,4.594-1.255a2.3,2.3,0,0,1,3.043,2.216c.089,1.58.177,3.162.251,4.757a.594.594,0,0,0,.444.621c1.447.532,2.9,1.108,4.358,1.64a2.308,2.308,0,0,1,1.241,3.693c-.842,1.315-1.685,2.615-2.542,3.915a.609.609,0,0,0,0,.8c.886,1.314,1.743,2.659,2.615,3.988a2.291,2.291,0,0,1-1.167,3.576c-1.462.576-2.925,1.152-4.4,1.7a.625.625,0,0,0-.487.635c-.059,1.61-.148,3.206-.237,4.816a2.3,2.3,0,0,1-3.028,2.187c-1.566-.414-3.117-.828-4.668-1.256a.544.544,0,0,0-.664.237c-.99,1.256-1.98,2.482-2.984,3.722a2.458,2.458,0,0,1-1.893,1.008A2.491,2.491,0,0,1,2526.927-121.09Z" transform="translate(-1621 1151)" fill="#236a7a"/>
    <text id="_10_" data-name="10%" transform="matrix(0.951, -0.309, 0.309, 0.951, 909.837, 1013.712)" fill="#fff" font-size="12" font-family="Muli-Bold, Muli" font-weight="700"><tspan x="-13.017" y="0">10%</tspan></text>
  </g>
</svg>
