<svg width="16" height="18" viewBox="0 0 16 18" fill="none" xmlns="http://www.w3.org/2000/svg">
<path d="M7.99892 2.44611C10.1351 2.44611 10.3879 2.45465 11.2316 2.49439C12.0116 2.53119 12.4352 2.66587 12.7172 2.7792C13.0906 2.92932 13.3571 3.10868 13.6371 3.39808C13.9172 3.68781 14.0906 3.96341 14.2354 4.34972C14.345 4.64142 14.4752 5.07963 14.5107 5.88641C14.5492 6.75889 14.5574 7.0207 14.5574 9.23047C14.5574 11.4402 14.5492 11.7017 14.5107 12.5745C14.4752 13.3813 14.345 13.8195 14.2354 14.1112C14.0903 14.4975 13.9169 14.7731 13.6371 15.0629C13.3571 15.3526 13.0906 15.5319 12.7172 15.6817C12.4352 15.7951 12.0116 15.9297 11.2316 15.9665C10.3882 16.0063 10.1351 16.0148 7.99892 16.0148C5.86271 16.0148 5.60962 16.0063 4.76619 15.9665C3.98627 15.9297 3.56265 15.7951 3.28066 15.6817C2.90721 15.5316 2.64078 15.3523 2.36069 15.0629C2.08061 14.7731 1.90722 14.4975 1.76242 14.1112C1.65286 13.8195 1.52266 13.3813 1.4871 12.5745C1.44867 11.702 1.44041 11.4402 1.44041 9.23047C1.44041 7.0207 1.44867 6.75921 1.4871 5.88641C1.52266 5.07963 1.65286 4.64142 1.76242 4.34972C1.90754 3.96341 2.08093 3.68781 2.36069 3.39808C2.64078 3.10835 2.90721 2.92899 3.28066 2.7792C3.56265 2.66587 3.98627 2.53119 4.76619 2.49439C5.60994 2.45465 5.86271 2.44611 7.99892 2.44611ZM7.99892 0.955078C5.82619 0.955078 5.55373 0.964604 4.70045 1.00501C3.84908 1.04509 3.26764 1.18502 2.75859 1.38967C2.2324 1.60122 1.78623 1.88406 1.34165 2.34427C0.897075 2.80416 0.62334 3.2657 0.419151 3.80968C0.221313 4.33625 0.086034 4.93772 0.0472921 5.81841C0.00823259 6.70107 -0.000976562 6.98292 -0.000976562 9.23047C-0.000976562 11.478 0.00823259 11.7599 0.0472921 12.6425C0.086034 13.5232 0.221313 14.1247 0.419151 14.6513C0.623658 15.1956 0.897075 15.6571 1.34197 16.117C1.78687 16.5772 2.23272 16.86 2.75891 17.0716C3.26764 17.2762 3.8494 17.4162 4.70077 17.4562C5.55405 17.4967 5.82651 17.5062 7.99924 17.5062C10.172 17.5062 10.4444 17.4967 11.2977 17.4562C12.1491 17.4162 12.7308 17.2762 13.2396 17.0716C13.7658 16.86 14.2119 16.5772 14.6565 16.117C15.1014 15.6568 15.3748 15.1956 15.5793 14.6513C15.7772 14.125 15.9124 13.5232 15.9512 12.6425C15.9902 11.7599 15.9994 11.478 15.9994 9.23047C15.9994 6.98292 15.9902 6.70107 15.9512 5.81841C15.9124 4.93772 15.7772 4.33592 15.5793 3.80968C15.3748 3.26537 15.1014 2.80383 14.6565 2.34395C14.2116 1.88373 13.7658 1.60089 13.2396 1.38935C12.7302 1.18502 12.1488 1.04509 11.2974 1.00501C10.4441 0.964604 10.1716 0.955078 7.99892 0.955078Z" fill="white"/>
<path d="M7.99756 4.97998C5.72862 4.97998 3.88965 6.88261 3.88965 9.22936C3.88965 11.5761 5.72894 13.4787 7.99756 13.4787C10.2662 13.4787 12.1055 11.5761 12.1055 9.22936C12.1055 6.88261 10.2665 4.97998 7.99756 4.97998ZM7.99756 11.9877C6.52473 11.9877 5.33104 10.7526 5.33104 9.22936C5.33104 7.70581 6.52505 6.47101 7.99756 6.47101C9.47007 6.47101 10.6641 7.70614 10.6641 9.22936C10.6641 10.7529 9.47039 11.9877 7.99756 11.9877Z" fill="white"/>
<path d="M12.2715 5.80638C12.8017 5.80638 13.2315 5.36178 13.2315 4.81335C13.2315 4.26491 12.8017 3.82031 12.2715 3.82031C11.7413 3.82031 11.3115 4.26491 11.3115 4.81335C11.3115 5.36178 11.7413 5.80638 12.2715 5.80638Z" fill="white"/>
</svg>
