<svg width="238" height="189" viewBox="0 0 238 189" fill="none" xmlns="http://www.w3.org/2000/svg">
<path opacity="0.76" d="M251.13 -9.8999H-11.48V260.94H251.13V-9.8999Z" fill="url(#paint0_linear)"/>
<path d="M251.14 275.04H-11.48V164.08C-11.48 169.14 251.13 169.14 251.13 164.08L251.14 275.04Z" fill="white"/>
<g opacity="0.49">
<path opacity="0.49" d="M238.601 65.6846L203.421 35.2899C203.276 35.1014 203.029 35.3044 203.015 35.5219L212.759 81.3751C212.803 81.5491 212.788 81.6506 212.89 81.7811L212.933 81.9551C212.977 82.0131 212.977 82.1291 213.02 82.1871L212.933 81.9551L213.02 82.1871C214.442 84.5509 221.533 83.0137 228.798 78.7068C236.121 74.3564 240.892 68.9764 239.413 66.5547C239.268 66.1342 238.963 65.8877 238.601 65.6846Z" fill="url(#paint1_linear)"/>
<path opacity="0.49" d="M239.456 66.4972C240.877 68.8609 236.092 74.3569 228.769 78.7073C221.446 83.0577 214.354 84.5949 212.991 82.1876C211.57 79.8239 216.356 74.3279 223.679 69.9775C231.002 65.6271 238.093 64.0755 239.456 66.4972Z" fill="url(#paint2_linear)"/>
<g opacity="0.49">
<g opacity="0.49">
<path opacity="0.49" d="M203 35.0137L203.798 36.3768" stroke="white" stroke-width="0.5" stroke-miterlimit="10"/>
</g>
</g>
<g opacity="0.49">
<g opacity="0.49">
<g opacity="0.49">
<path opacity="0.7" fill-rule="evenodd" clip-rule="evenodd" d="M239.616 66.6564L226.347 74.4436L203.015 35L239.616 66.6564Z" fill="#666666"/>
<path opacity="0.49" d="M222.026 67.5555L223.693 70.3832L224.027 70.1802L222.359 67.3525L222.026 67.5555ZM218.676 61.8855L220.344 64.7132L220.677 64.5102L219.009 61.6825L218.676 61.8855ZM215.326 56.23L216.994 59.0577L217.327 58.8547L215.66 56.027L215.326 56.23ZM211.976 50.5745L213.644 53.4022L213.978 53.1992L212.31 50.3714L211.976 50.5745ZM208.641 44.9189L210.309 47.7467L210.642 47.5437L208.975 44.7159L208.641 44.9189ZM205.291 39.2489L206.959 42.0767L207.292 41.8737L205.625 39.0459L205.291 39.2489Z" fill="white"/>
<path opacity="0.49" d="M225.405 73.2544L226.26 74.7191L227.783 73.82L227.594 73.4864L226.405 74.1825L225.738 73.0659L225.405 73.2544Z" fill="white"/>
<path opacity="0.49" d="M234.12 70.0928L236.223 68.8457L236.02 68.5122L233.917 69.7593L234.12 70.0928ZM229.914 72.6016L232.017 71.3545L231.814 71.0209L229.711 72.268L229.914 72.6016Z" fill="white"/>
<path opacity="0.49" d="M216.689 74.8642C215.747 75.7343 214.949 76.5898 214.326 77.4019L214.63 77.6484C215.254 76.8509 216.037 76.0098 216.965 75.1542L216.689 74.8642ZM222.185 70.6588C221.185 71.3114 220.228 71.9784 219.343 72.6455L219.575 72.95C220.445 72.2829 221.388 71.6304 222.388 70.9778L222.185 70.6588ZM228.261 67.3525C227.246 67.802 226.217 68.3096 225.158 68.8896L225.347 69.2377C226.391 68.6721 227.42 68.1646 228.421 67.715L228.261 67.3525ZM234.874 65.2788C233.844 65.4383 232.713 65.7138 231.495 66.1054L231.611 66.4824C232.8 66.0909 233.917 65.8299 234.932 65.6703L234.874 65.2788Z" fill="white"/>
</g>
<path opacity="0.49" d="M212.89 80.563C212.774 81.1575 212.832 81.6071 213.122 82.0856" stroke="white" stroke-width="0.5" stroke-miterlimit="10"/>
</g>
</g>
</g>
<path d="M56.81 77.2602C59.4499 77.2602 61.59 75.1201 61.59 72.4802C61.59 69.8403 59.4499 67.7002 56.81 67.7002C54.1701 67.7002 52.03 69.8403 52.03 72.4802C52.03 75.1201 54.1701 77.2602 56.81 77.2602Z" stroke="#B8A1FF" stroke-width="0.75" stroke-miterlimit="10"/>
<path d="M56.81 88.15C58.1631 88.15 59.26 87.0531 59.26 85.7C59.26 84.3469 58.1631 83.25 56.81 83.25C55.4569 83.25 54.36 84.3469 54.36 85.7C54.36 87.0531 55.4569 88.15 56.81 88.15Z" fill="#B8A1FF"/>
<path opacity="0.6" d="M225 141.01L244.19 137L238.36 155.34L225 141.01Z" stroke="white" stroke-miterlimit="10"/>
<path opacity="0.6" d="M27.49 30.4L25 20L35.08 22.88L27.49 30.4Z" fill="white"/>
<path opacity="0.71" d="M55.6801 151.16L69.5101 172.81L83.6101 133.31L55.6801 151.16ZM68.2601 162.52L62.0101 152.73L74.6301 144.67L68.2601 162.52Z" fill="url(#paint3_linear)"/>
<path d="M57.7401 150.38L57.6201 150.46L58.6301 152.04L58.7501 151.96L57.7401 150.38Z" fill="#060633"/>
<path d="M58.48 149.91L58.36 149.99L58.95 150.92L59.07 150.84L58.48 149.91Z" fill="#060633"/>
<path d="M59.09 149.52L58.97 149.6L59.56 150.53L59.68 150.45L59.09 149.52Z" fill="#060633"/>
<path d="M59.67 149.15L59.55 149.23L60.14 150.16L60.26 150.08L59.67 149.15Z" fill="#060633"/>
<path d="M60.2 148.81L60.08 148.89L60.67 149.82L60.79 149.74L60.2 148.81Z" fill="#060633"/>
<path d="M60.8001 148.43L60.6801 148.51L61.2701 149.44L61.3901 149.36L60.8001 148.43Z" fill="#060633"/>
<path d="M61.41 148.04L61.29 148.12L62.3 149.7L62.42 149.62L61.41 148.04Z" fill="#060633"/>
<path d="M62.14 147.58L62.02 147.66L62.61 148.59L62.73 148.51L62.14 147.58Z" fill="#060633"/>
<path d="M62.7401 147.19L62.6201 147.27L63.2101 148.2L63.3301 148.12L62.7401 147.19Z" fill="#060633"/>
<path d="M63.32 146.82L63.2 146.9L63.79 147.83L63.91 147.75L63.32 146.82Z" fill="#060633"/>
<path d="M63.8601 146.47L63.7401 146.55L64.3301 147.48L64.4501 147.4L63.8601 146.47Z" fill="#060633"/>
<path d="M64.47 146.09L64.35 146.17L64.94 147.1L65.06 147.02L64.47 146.09Z" fill="#060633"/>
<path d="M65.29 145.56L65.17 145.64L66.18 147.22L66.3 147.14L65.29 145.56Z" fill="#060633"/>
<path d="M66.03 145.09L65.91 145.17L66.5 146.1L66.62 146.02L66.03 145.09Z" fill="#060633"/>
<path d="M66.63 144.72L66.51 144.8L67.1 145.73L67.22 145.65L66.63 144.72Z" fill="#060633"/>
<path d="M67.22 144.33L67.1 144.41L67.69 145.34L67.81 145.26L67.22 144.33Z" fill="#060633"/>
<path d="M67.76 143.98L67.64 144.06L68.23 144.99L68.35 144.91L67.76 143.98Z" fill="#060633"/>
<path d="M68.34 143.61L68.22 143.69L68.81 144.62L68.93 144.54L68.34 143.61Z" fill="#060633"/>
<path d="M68.96 143.22L68.84 143.3L69.85 144.88L69.97 144.8L68.96 143.22Z" fill="#060633"/>
<path d="M69.6801 142.75L69.5601 142.83L70.1501 143.76L70.2701 143.68L69.6801 142.75Z" fill="#060633"/>
<path d="M70.3001 142.36L70.1801 142.44L70.7701 143.37L70.8901 143.29L70.3001 142.36Z" fill="#060633"/>
<path d="M70.88 141.99L70.76 142.07L71.35 143L71.47 142.92L70.88 141.99Z" fill="#060633"/>
<path d="M71.41 141.65L71.29 141.73L71.88 142.66L72 142.58L71.41 141.65Z" fill="#060633"/>
<path d="M72.02 141.26L71.9 141.34L72.49 142.27L72.61 142.19L72.02 141.26Z" fill="#060633"/>
<path d="M72.76 140.79L72.64 140.87L73.65 142.45L73.77 142.37L72.76 140.79Z" fill="#060633"/>
<path d="M73.51 140.31L73.39 140.39L73.98 141.32L74.1 141.24L73.51 140.31Z" fill="#060633"/>
<path d="M74.12 139.92L74 140L74.59 140.93L74.71 140.85L74.12 139.92Z" fill="#060633"/>
<path d="M74.7 139.54L74.58 139.62L75.17 140.55L75.29 140.47L74.7 139.54Z" fill="#060633"/>
<path d="M75.2401 139.2L75.1201 139.28L75.7101 140.21L75.8301 140.13L75.2401 139.2Z" fill="#060633"/>
<path d="M75.83 138.83L75.71 138.91L76.3 139.84L76.42 139.76L75.83 138.83Z" fill="#060633"/>
<path d="M76.44 138.44L76.32 138.52L77.33 140.1L77.45 140.02L76.44 138.44Z" fill="#060633"/>
<path d="M77.17 137.97L77.05 138.05L77.64 138.98L77.76 138.9L77.17 137.97Z" fill="#060633"/>
<path d="M77.78 137.58L77.66 137.66L78.25 138.59L78.37 138.51L77.78 137.58Z" fill="#060633"/>
<path d="M78.3601 137.21L78.2401 137.29L78.8301 138.22L78.9501 138.14L78.3601 137.21Z" fill="#060633"/>
<path d="M78.9 136.86L78.78 136.94L79.37 137.87L79.49 137.79L78.9 136.86Z" fill="#060633"/>
<path d="M79.5 136.48L79.38 136.56L79.97 137.49L80.09 137.41L79.5 136.48Z" fill="#060633"/>
<path d="M80.32 135.95L80.2 136.03L81.21 137.61L81.33 137.53L80.32 135.95Z" fill="#060633"/>
<path opacity="0.71" d="M77.26 96.7396L63.32 102.69L60.4 98.6796L68.32 73.8596L73.62 71.5996L81.08 89.0896L84.91 87.4596L87.09 92.5496L83.26 94.1896L85.88 100.35L79.89 102.91L77.26 96.7396ZM75.08 91.6396L71.29 82.7496L67.5 94.8696L75.08 91.6396Z" fill="url(#paint4_linear)"/>
<path d="M190.24 94.4195C190.25 94.2295 190.4 92.1596 193.55 92.0396C193.55 92.0396 192 92.2296 191.73 92.9096C191.73 92.9096 192.79 92.0695 193.65 92.3395C194.51 92.6095 195.01 94.1196 195.02 94.6096C195.03 95.1096 194.54 96.6995 194 96.8395C193.78 96.8895 193.55 96.8895 193.33 96.8395C193.49 97.0795 193.63 97.3395 193.75 97.5995C195.01 100.18 193.71 102.71 192.65 102.43C191.97 102.25 191.77 103.42 191.77 103.42L185.13 98.0496C185.14 98.0496 187.58 92.9995 190.24 94.4195Z" fill="#52488C"/>
<path d="M177.28 125.06C179.22 124.87 181.53 124.53 182.44 123.96C183.84 123.1 186.26 119.52 187.75 116.91C187.79 116.85 187.89 115.52 187.92 115.46C188.7 114.07 189.05 114.93 189.09 113.83C189.12 113.24 189.06 112.65 188.91 112.08C188.75 111.51 188.49 110.97 188.12 110.5C188.08 110.43 188.03 110.37 187.97 110.32C187.69 109.97 187.34 109.68 186.96 109.46C186.7 109.35 186.43 109.48 186.14 109.79V109.8C185.85 110.13 185.6 110.49 185.4 110.89C185.39 110.9 185.38 110.91 185.38 110.92C185.33 111.02 185.27 111.12 185.21 111.24C185.19 111.26 185.18 111.29 185.17 111.32C185.05 111.57 184.93 111.82 184.82 112.09C183.51 114.95 182.52 119.68 181.36 120.97C180.86 121.52 178.16 122.22 176.33 123.03C175.02 123.59 175.99 125.2 177.28 125.06Z" fill="#FFB27D"/>
<path d="M187.93 170.51L189.34 171.03C189.34 171.03 195.46 162.54 196.22 155.07C196.35 153.74 196.31 152.44 196.02 151.25C196.02 151.25 196.08 150.91 196.18 150.3C196.23 150.02 196.29 149.68 196.36 149.29C196.56 148.15 196.83 146.59 197.15 144.81C197.87 140.72 198.81 135.5 199.53 131.65L199.15 131.53L195.04 130.2L194.19 127.5L191.13 126.7C191.13 126.7 190.44 128.04 189.83 134.35C189.72 135.18 189.62 136.09 189.54 137.08C189.26 140.77 189.36 144.48 189.83 148.14C189.97 149.24 190.15 150.37 190.37 151.54C190.53 152.39 190.55 153.56 190.49 154.89C190.17 161.02 187.93 170.51 187.93 170.51Z" fill="#B8A1FF"/>
<path d="M189.53 137.09L196.18 150.3C196.23 150.02 196.29 149.68 196.36 149.29C196.56 148.15 196.84 146.59 197.15 144.81C197.87 140.72 198.8 135.5 199.52 131.65L199.14 131.53L195.03 130.2L194.18 127.5L189.99 126.4C189.99 126.4 189.53 134.57 189.53 137.09Z" fill="#8B76E5"/>
<path d="M202.65 170.26L204.15 170.35C204.15 170.35 207.53 160.44 206.07 153.08C205.81 151.77 205.39 150.54 204.76 149.48C204.76 149.48 204.72 149.14 204.64 148.52C204.6 148.23 204.56 147.89 204.51 147.5C204.37 146.35 204.18 144.78 203.95 142.99C203.45 138.87 202.81 133.6 202.38 129.71L201.98 129.7L197.66 129.63L196.06 127.3L192.9 127.42C192.9 127.42 192.64 128.9 193.9 135.12C194.03 135.95 194.2 136.85 194.42 137.82C195.23 141.43 196.4 144.95 197.93 148.32C198.39 149.33 198.89 150.36 199.44 151.41C199.84 152.18 200.2 153.29 200.53 154.58C202.02 160.52 202.65 170.26 202.65 170.26Z" fill="#B8A1FF"/>
<path d="M194.43 137.83L204.64 148.52C204.6 148.23 204.56 147.89 204.51 147.5C204.37 146.35 204.18 144.78 203.95 142.99C203.45 138.87 202.81 133.6 202.38 129.71L201.98 129.7L197.66 129.63L196.06 127.3L191.74 127.47C191.74 127.47 193.69 135.42 194.43 137.83Z" fill="#8B76E5"/>
<path d="M202.79 123.82C202.66 123.53 202.39 123.51 202.18 123.63C200.86 122.63 199.02 123.22 197.56 123.88C196.62 124.31 195.52 124.66 194.66 125.25C193.82 125.83 193.84 126.73 193.9 127.64C194.06 129.98 194.33 132.28 195.16 134.48C195.95 136.57 197.07 138.51 198.36 140.31C199.92 142.49 201.72 144.48 203.51 146.46C203.83 146.81 204.32 146.5 204.36 146.11C205.22 138.68 205.99 130.86 202.79 123.82Z" fill="#8B76E5"/>
<path d="M187.53 112.4C188.34 112.77 189.32 113.03 190.5 113.09C194.93 113.33 195.94 109.45 196.12 106.87C195.63 106.7 195.11 106.64 194.6 106.68C194.48 106.69 194.36 106.7 194.24 106.71C194.02 106.73 193.81 106.69 193.61 106.61C193.41 106.52 193.24 106.39 193.1 106.22C192.59 105.57 192 104.41 191.61 102.82L191.42 102.91L188.22 104.41C188.22 104.41 188.56 105.46 188.81 106.45C188.91 106.84 188.99 107.23 189.05 107.63C189.07 107.78 189.04 107.93 188.96 108.07C188.88 108.2 188.77 108.3 188.63 108.36C188.14 109.66 187.77 111.02 187.53 112.4Z" fill="#FFB27D"/>
<path d="M188.22 104.4C188.22 104.4 188.56 105.44 188.81 106.44C190.68 105.92 191.25 103.95 191.42 102.9L188.22 104.4Z" fill="#ED985F"/>
<path d="M187.82 105.5C187.82 105.5 192.29 104.47 191.6 101.69C190.91 98.9196 191.03 96.9096 188.14 97.4596C185.25 97.9996 184.97 99.1996 184.97 100.18C184.98 101.16 186.64 105.7 187.82 105.5Z" fill="#FFB27D"/>
<path d="M184.73 98.5999C185.21 97.5899 185.78 97.6499 186.13 97.8299C188.23 95.8899 190.29 97.4699 190.29 97.4699C190.79 98.6299 191.68 99.5899 192.8 100.17C192.8 100.17 192.11 100.87 190.12 100.86C189.51 100.86 188.9 100.57 188.34 100.19C189.03 100.87 189.82 101.46 190.67 101.93C188.18 101.45 186.51 98.5699 186.34 98.2599C186.13 98.5699 185.73 99.2299 185.69 99.7999C185.64 100.56 185.91 102.04 185.47 102.1C185.48 102.09 184.01 100.11 184.73 98.5999Z" fill="#52488C"/>
<path d="M200.32 120.08C200.16 119.9 200.02 119.72 199.9 119.52C199.59 119.02 199.39 118.45 199.33 117.87C199.08 115.55 199.18 113.37 199.16 112.05C198.92 111.87 198.68 111.7 198.46 111.54C198.15 111.33 197.87 111.09 197.6 110.83C197.36 110.58 197.21 110.32 197.19 110.03C197.18 109.81 197.18 109.58 197.21 109.36C197.22 109.25 197.23 109.15 197.25 109.04C197.38 108.3 197.59 107.58 197.89 106.9C196.7 106.42 193.97 106.73 193.97 106.73C193.97 106.73 193.69 108.98 192.66 109.9C192.24 110.27 189.94 111.58 188.89 110.25C188.46 109.71 188.84 108.31 188.87 108.2C188.87 108.2 187.08 108.75 186.05 109.74C185.37 110.39 184.99 111.62 184.82 112.11C184.82 112.11 185.61 112.07 186.24 112.53C186.12 113.41 186.06 114.39 186.42 115.34C186.45 115.43 186.49 115.51 186.53 115.6C187.65 118.02 189.73 128.03 189.73 128.03C190.37 129.97 203.26 127.68 203.29 126.03C203.79 124.27 201.57 121.48 200.32 120.08Z" fill="white"/>
<path d="M193.46 124.64C196.19 124.61 198.5 121.78 199.91 119.52C199.6 119.02 199.4 118.45 199.34 117.87C199.09 115.55 199.19 113.37 199.17 112.05C198.93 111.87 198.7 111.7 198.47 111.54C198.16 111.33 197.88 111.09 197.62 110.83C195.38 114.6 189.76 124.67 193.46 124.64Z" fill="#ED7D2B"/>
<path d="M198.76 172.87H205.86C205.86 172.87 206.03 171.79 205.66 170.97C205.3 170.18 204.75 169.82 204.88 168.87C204.43 169.33 203.69 169.85 202.67 169.72C202.54 169.92 201.86 171.01 201.43 171.32C200.98 171.65 198.91 171.53 198.76 172.87Z" fill="#304B77"/>
<path d="M183.52 172.87H190.62C190.62 172.87 190.89 171.74 190.42 170.97C190.01 170.29 190.16 169.9 190.47 169.34C190.09 169.5 189.68 169.58 189.27 169.57C188.92 169.55 188.54 169.39 188.21 169.2C187.91 169.55 186.59 171.03 186.19 171.32C185.73 171.65 183.66 171.53 183.52 172.87Z" fill="#304B77"/>
<path opacity="0.71" d="M111.45 159.13L122.96 146.11C128.55 151.81 133.49 154.74 140.65 155.59C151.08 156.83 157.59 149.61 160.16 138.36C155.62 141.39 149.65 143.02 142.25 142.14C123.82 139.95 113.14 128.35 115.22 110.89C117.25 93.7898 131.97 82.7498 151.13 85.0298C162.53 86.3798 168.87 89.9698 174.53 97.1598C179.87 103.94 182.78 113.63 180.76 130.61C177.49 158.14 162.28 175.39 138.15 172.52C125.78 171.03 117.9 165.92 111.45 159.13ZM163.2 115.84C164.09 108.32 159.16 102.2 149.83 101.09C140.61 99.9998 134.77 104.71 133.84 112.47C132.95 119.99 137.91 125.87 147.12 126.96C156.34 128.06 162.3 123.36 163.2 115.84Z" fill="url(#paint5_linear)"/>
<path d="M182.58 126.55L182.86 127.65C182.86 127.65 186.41 126.91 187.18 126.74H187.19C188.52 126.42 190.02 126.04 191.28 125.61C192.17 125.3 192.93 124.97 193.46 124.64C193.51 124.61 193.56 124.57 193.61 124.53C194.86 123.62 196.34 120.96 197.49 118.1C197.65 117.71 197.8 117.31 197.95 116.93C198.45 115.61 198.86 114.26 199.17 112.88C199.32 112.25 199.42 111.6 199.46 110.95C199.47 110.77 199.48 110.59 199.47 110.41C199.45 107.32 197.91 106.89 197.91 106.89C197.88 106.88 197.85 106.87 197.8 106.86C197.53 106.82 197.26 107 196.97 107.35C196.61 107.79 196.22 108.5 195.83 109.37C195.22 110.75 194.58 112.53 193.99 114.3C193.66 115.27 193.34 116.24 193.02 117.14C192.84 117.68 192.66 118.2 192.49 118.67C192.16 119.57 191.86 120.29 191.59 120.75C191.42 121.05 190.92 121.46 190.28 121.93C189.14 122.72 182.58 126.55 182.58 126.55Z" fill="#FFB27D"/>
<path d="M195.51 109.47C197.56 108.9 199.47 110.39 199.47 110.39C199.44 107.3 197.91 106.87 197.91 106.87C197.29 106.62 196.25 107.81 195.51 109.47Z" fill="white"/>
<path d="M183.26 126.15C183.26 126.15 181.45 126.85 181.1 127.13C180.75 127.4 180.08 128.3 179.96 128.77C179.96 128.77 179.96 128.96 180.15 128.96C180.34 128.96 180.73 128.27 181.03 128.38C181.03 128.38 180.65 129.3 180.43 129.53C180.21 129.76 180.08 130.93 180.13 131.18C180.18 131.43 181.69 130.23 182.33 129.68C182.67 129.39 182.66 128.68 182.76 127.87C182.86 127.17 184.79 126.76 184.79 126.76L183.26 126.15Z" fill="#FFB27D"/>
<path d="M78.64 154.66H106.08C107.15 154.66 108.17 155.08 108.92 155.84C109.67 156.59 110.1 157.62 110.1 158.68V160.95C110.1 162.04 109.67 163.08 108.9 163.86C108.13 164.63 107.08 165.06 106 165.06H78.65V154.66H78.64Z" fill="#FCECDB"/>
<path d="M133.57 158.94V160.5C133.57 161.3 133.37 162.09 132.99 162.79C132.25 164.14 130.88 165.05 129.31 165.05H77.8C77.63 165.04 77.47 164.97 77.36 164.85C77.24 164.73 77.18 164.56 77.19 164.39V164.15C77.18 163.98 77.25 163.82 77.36 163.69C77.48 163.57 77.64 163.49 77.8 163.49H109.2C109.37 163.27 109.52 163.03 109.64 162.78C109.95 162.16 110.1 161.48 110.1 160.79V158.8C110.1 158.44 110.06 158.09 109.97 157.74C109.83 157.18 109.59 156.66 109.24 156.2H77.8C77.72 156.2 77.63 156.18 77.56 156.14C77.48 156.11 77.41 156.06 77.36 155.99C77.3 155.93 77.26 155.85 77.23 155.78C77.2 155.7 77.19 155.62 77.19 155.53V155.3C77.19 155.22 77.2 155.13 77.23 155.05C77.26 154.97 77.3 154.9 77.36 154.84C77.42 154.78 77.49 154.73 77.56 154.69C77.63 154.65 77.72 154.64 77.8 154.63H129.57C131.39 154.63 132.93 155.94 133.41 157.73C133.51 158.14 133.57 158.53 133.57 158.94Z" fill="#699DEE"/>
<path d="M78.64 159.86L82.45 160.03L78.64 160.14V159.86Z" fill="#F4D2B8"/>
<path d="M78.64 161.49L87.71 161.66L78.64 161.76V161.49Z" fill="#F4D2B8"/>
<path d="M114.69 173.11H87.84C86.81 173.11 85.82 172.7 85.1 171.97C84.37 171.24 83.96 170.26 83.96 169.23V168.67C83.96 167.7 84.34 166.78 85.03 166.09C85.71 165.41 86.64 165.02 87.61 165.02H114.69V173.11Z" fill="#505ABA"/>
<path d="M143.99 173.11H113.39C112.39 173.11 111.42 172.71 110.71 172C110 171.29 109.6 170.33 109.6 169.32V168.73C109.6 167.75 109.99 166.8 110.69 166.11C111.38 165.42 112.33 165.02 113.31 165.02H143.99V173.11Z" fill="#FCECDB"/>
<path d="M107.58 173.11H145.03C145.34 173.11 145.59 172.86 145.59 172.55V172.47C145.59 172.16 145.34 171.91 145.03 171.91H107.58C107.27 171.91 107.02 172.16 107.02 172.47V172.55C107.02 172.86 107.27 173.11 107.58 173.11Z" fill="#505ABA"/>
<path d="M107.58 166.24H145.03C145.34 166.24 145.59 165.99 145.59 165.68V165.6C145.59 165.29 145.34 165.04 145.03 165.04H107.58C107.27 165.04 107.02 165.29 107.02 165.6V165.68C107.02 165.99 107.27 166.24 107.58 166.24Z" fill="#505ABA"/>
<path d="M143.99 169.07L139.82 169.21L143.99 169.29V169.07Z" fill="#F4D2B8"/>
<path d="M143.99 167.21L134.07 167.35L143.99 167.43V167.21Z" fill="#F4D2B8"/>
<path d="M134.18 167.32C134.46 167.56 134.65 167.88 134.75 168.24C134.78 168.34 134.79 168.45 134.79 168.56C134.81 169.32 134.79 171.03 134.79 171.03L136.04 170.18L137.29 171.03V168.7C137.29 168.26 137.18 167.83 136.98 167.55C136.88 167.41 136.77 167.31 136.63 167.31L134.18 167.32Z" fill="white"/>
<path d="M134.18 167.32C134.46 167.56 134.65 167.88 134.75 168.24L137.27 168.27C137.27 168.27 137.17 167.45 136.65 167.32H134.18Z" fill="#8B76E5"/>
<path d="M81.5001 142.81H110.48C111.65 142.81 112.78 143.28 113.61 144.11C114.44 144.94 114.91 146.06 114.91 147.24V150.17C114.91 151.37 114.43 152.52 113.58 153.37C112.73 154.22 111.58 154.7 110.38 154.7H81.4901L81.5001 142.81Z" fill="#FCECDB"/>
<path d="M114.92 147.41V149.97C114.91 151.06 114.36 152.01 113.56 152.52C113.16 152.77 112.69 152.91 112.21 152.91H80.6101C80.2401 152.91 79.9401 153.24 79.9401 153.65V153.95C79.9401 154.36 80.2401 154.69 80.6101 154.69H135.19C136.76 154.69 138.14 153.83 138.98 152.52C139.53 151.65 139.82 150.63 139.82 149.6V147.58C139.82 146.87 139.68 146.16 139.39 145.5C138.69 143.9 137.2 142.8 135.48 142.8H80.6201C80.2501 142.8 79.9501 143.13 79.9501 143.54V143.84C79.9501 144.25 80.2501 144.58 80.6201 144.58H112.31C112.68 144.58 113.04 144.67 113.37 144.83C113.7 144.99 114 145.22 114.23 145.5C114.68 146.04 114.92 146.72 114.92 147.41Z" fill="white"/>
<path d="M79.95 153.65V153.95C79.95 154.36 80.25 154.69 80.62 154.69H135.2C136.77 154.69 138.15 153.83 138.99 152.52H113.56C113.16 152.77 112.69 152.91 112.21 152.91H80.62C80.25 152.91 79.95 153.23 79.95 153.65Z" fill="white"/>
<path d="M81.5 148.74L85.55 148.94L81.5 149.06V148.74Z" fill="#F4D2B8"/>
<path d="M81.5 146.01L91.14 146.21L81.5 146.33V146.01Z" fill="#F4D2B8"/>
<path d="M109.89 146.17C109.89 146.17 109.25 146.55 109.04 147.17C109 147.28 108.98 147.4 108.97 147.52C108.93 148.34 108.97 150.2 108.97 150.2L107.09 149.27L105.22 150.2V147.68C105.22 147.21 105.38 146.74 105.68 146.43C105.75 146.35 105.82 146.29 105.91 146.25C106 146.21 106.1 146.18 106.2 146.17H109.89Z" fill="white"/>
<path d="M109.89 146.17C109.89 146.17 109.25 146.55 109.04 147.17L105.28 147.21C105.28 147.21 105.43 146.32 106.2 146.18H109.89V146.17Z" fill="#8B76E5"/>
<path d="M148.75 102.1C148.83 102.19 148.89 102.31 148.91 102.43C148.93 102.55 148.91 102.68 148.87 102.79C148.7 103.25 148.15 103.77 147.5 104.29C147.42 104.36 147.35 104.42 147.28 104.47C147.26 104.49 147.25 104.5 147.23 104.51L147.19 104.54C146.59 105.09 146.82 105.22 145.74 106.35C144.51 107.63 143.66 107.65 143.42 107.54C143.22 107.44 143.63 106.76 144.09 106L144.16 105.89C144.22 105.79 144.28 105.69 144.34 105.58C144.88 104.66 144.74 104.23 144.61 102.87C144.51 101.76 142.88 96.6698 142.88 96.6698L145.24 96.2598C145.24 96.2598 145.95 100.31 146.73 100.94C147.15 101.27 147.62 101.28 148.02 101.52C148.05 101.54 148.08 101.55 148.1 101.57C148.34 101.72 148.56 101.9 148.75 102.1Z" fill="#FFB27D"/>
<path d="M148.75 102.1C148.83 102.19 148.89 102.31 148.91 102.43C148.93 102.55 148.91 102.68 148.87 102.79C148.66 103.25 148.12 103.77 147.5 104.28C147.42 104.35 147.35 104.41 147.28 104.47C147.26 104.49 147.25 104.5 147.23 104.51L147.19 104.54C146.59 105.09 146.82 105.22 145.74 106.35C144.51 107.63 143.66 107.65 143.42 107.54C143.22 107.44 143.63 106.76 144.09 106C144.95 105.66 145.71 105.11 146.28 104.38C147.02 103.44 147.52 102.22 148.02 101.52C148.05 101.54 148.08 101.55 148.1 101.57C148.34 101.72 148.56 101.9 148.75 102.1Z" fill="#233862"/>
<path d="M129.75 100.62C129.6 101.35 128.57 101.23 127.41 100.94C126.25 100.66 126.53 100.99 124.88 100.81C123.23 100.63 122.73 100.01 122.68 99.7596C122.64 99.5396 123.45 99.4696 124.32 99.3696L124.65 99.3296C125.64 99.2096 126.36 98.5696 127.25 98.0496C128.1 97.5496 129.37 95.5396 129.37 95.5396L131.63 95.7196C131.63 95.7196 130.44 97.5295 129.99 98.3095C129.72 98.7695 129.73 99.3795 129.77 99.8495C129.8 100.11 129.79 100.37 129.75 100.62Z" fill="#FFB27D"/>
<path d="M127.41 100.95C126.25 100.66 126.53 101 124.88 100.82C123.23 100.64 122.73 100.02 122.68 99.7699C122.64 99.5499 123.45 99.4799 124.32 99.3799L124.33 99.3999C125.04 99.8499 125.85 100.11 126.69 100.13C127.81 100.16 128.99 99.8399 129.76 99.8399C129.79 100.1 129.78 100.36 129.74 100.61C129.61 101.35 128.57 101.23 127.41 100.95Z" fill="#233862"/>
<path d="M138.42 86.1696L140.53 91.8596L143.29 99.2796C143.78 99.3196 144.28 99.2696 144.76 99.1496C145.43 98.9596 146.18 98.4596 146.18 98.4596C146.18 98.4596 145.41 90.4896 143.98 85.9096C143.61 84.7396 143.2 83.7896 142.75 83.2496C140.54 80.6296 138.42 86.1696 138.42 86.1696Z" fill="#ED7D2B"/>
<path d="M140.57 77.14C141.81 76.74 145.1 77.16 148.62 77.81C148.99 77.88 149.37 77.83 149.71 77.68C150.05 77.53 150.34 77.27 150.53 76.95L150.7 76.67L159.27 76C159.27 76 162.02 82.24 160.55 86.26C160.14 87.39 155.84 87.52 152.22 87.23C147.97 86.89 143.2 84.3 142.59 84.18C141.58 83.98 141.18 85.99 140.17 88.11C139.16 90.23 130.7 97.48 130.7 97.48C130.7 97.48 129.4 97.49 128.86 97.29C128.28 97.07 128.07 96.79 128.07 96.79C128.07 96.79 137.45 78.15 140.57 77.14Z" fill="white"/>
<path d="M149.53 65.9498C152.11 68.2898 158.05 70.4698 158.09 70.4598C158.09 70.4598 160.11 71.8198 161.56 71.2798C163.98 70.3798 165.99 66.9098 162.92 62.7798C161.39 60.7198 160.07 59.9998 160.52 57.3998C161.01 54.5798 159.92 50.9398 156.66 50.6198C156.39 50.5898 154.74 50.2898 153.54 50.5898C150.48 51.3798 145.22 64.2598 149.53 65.9498Z" fill="#52488C"/>
<path d="M153.06 62.5198C153.04 62.5198 154.4 63.3798 155.49 63.1698C156.51 62.9798 157.48 61.6498 157.47 61.6398C157.05 61.5198 156.77 61.0198 156.99 58.5098L156.79 58.5298L153.51 58.8998C153.51 58.8998 153.5 59.9198 153.42 60.8798C153.36 61.6898 153.25 62.4498 153.06 62.5198Z" fill="#FFB27D"/>
<path d="M153.5 58.9096C153.5 58.9096 153.49 59.9295 153.41 60.8895C155.22 60.9895 156.31 59.4196 156.77 58.5396L153.5 58.9096Z" fill="#ED975D"/>
<path d="M152.83 59.7596C152.83 59.7596 157.09 60.1796 157.31 57.5196C157.53 54.8596 158.23 53.1196 155.52 52.7396C152.81 52.3596 152.19 53.3296 151.91 54.1996C151.63 55.0796 151.73 59.5896 152.83 59.7596Z" fill="#FFB27D"/>
<path d="M153.28 52.3296C153.28 52.3296 153.82 55.5796 156.24 56.3496C158.01 56.9096 158.81 56.5396 158.81 56.5396C158.24 55.7296 157.85 54.8096 157.65 53.8396C157.61 53.6096 157.5 53.3996 157.35 53.2296C157.2 53.0596 157 52.9296 156.78 52.8496C155.54 52.4396 154.01 51.3096 153.28 52.3296Z" fill="#52488C"/>
<path d="M154.09 53.0299C154.09 53.0299 153.29 53.2099 152.57 54.2499C152.18 54.8199 151.73 56.2499 151.81 56.8799C151.81 56.8799 151.06 53.8699 152.15 52.7599C153.31 51.5599 154.09 53.0299 154.09 53.0299Z" fill="#52488C"/>
<path d="M160.73 71.2497C160.65 71.5697 160.59 71.8697 160.54 72.1397C160.45 72.5797 160.39 72.9597 160.35 73.2997C160.22 74.3497 160.26 74.9697 160.17 75.6497C160.11 76.0897 160.01 76.5197 159.85 76.9297C159.67 77.4197 155.04 77.8497 152.41 77.6797C151.57 77.6297 150.98 77.4497 150.71 77.3097C149.91 76.8997 149.68 77.4197 149.74 69.6997C149.77 65.5097 153.3 61.7797 153.3 61.7797C153.3 61.7797 153.58 63.5697 157.18 61.4397C157.31 61.3597 158.72 63.4597 160.08 66.0397C161.57 68.8797 161.16 69.4797 160.73 71.2497Z" fill="#B8A1FF"/>
<path d="M140.53 91.8599L143.29 99.2899C143.78 99.3299 144.28 99.2799 144.76 99.1599C145.43 98.9699 146.18 98.4699 146.18 98.4699C146.18 98.4699 145.41 90.4999 143.98 85.9199L140.53 91.8599Z" fill="white"/>
<path d="M153.28 61.7695C153.28 61.7695 150.25 62.0295 149.23 64.9495C148.69 66.5095 145.75 74.4295 145.75 74.4295C145.75 74.4295 148.11 74.7495 148.98 73.8895C149.85 73.0195 151.93 66.3495 151.93 66.3495L153.28 61.7695Z" fill="#B8A1FF"/>
<path d="M140.21 70.08L139.33 69.73C139.33 69.73 138.8 69.61 138.52 69.7C138.24 69.79 137.53 69.78 137.52 69.9C137.52 70.02 138.33 70.38 138.33 70.38L138.36 70.37C138.05 71.07 136.5 71.47 136.43 71.73C136.34 72.04 137.06 72.21 137.45 72.3C137.84 72.4 138.8 72.39 139.28 71.89C139.63 71.53 140.21 71.02 140.21 71.02V70.08Z" fill="#FFB27D"/>
<path d="M153.81 58.1999C153.81 58.1999 153.63 58.6399 153.16 58.6399C152.69 58.6399 152.56 58.5699 152.47 58.4699C152.4 58.3799 152.34 58.2799 152.29 58.1799C152.8 58.0899 153.31 58.0899 153.81 58.1999Z" fill="white"/>
<path d="M146.76 71.3995L140.25 69.8795C140.25 69.8795 138.91 70.4195 139.49 71.3995C139.49 71.3995 145.39 75.0895 147.61 74.6995C150.13 74.2495 151.84 69.5195 151.84 69.5195L146.76 71.3995Z" fill="#B8A1FF"/>
<path d="M160.34 73.3098C160.21 74.3598 160.25 74.9798 160.16 75.6598C156.81 75.6698 152.32 73.0698 152.32 73.0698L160.34 73.3098Z" fill="#8B76E5"/>
<path d="M152.33 70.8699C152.33 70.8699 157.56 70.7099 158.43 67.7499C159.4 64.4899 160.48 69.0899 160.48 69.0899L159.91 72.0299H154.18L152.33 70.8699Z" fill="#8B76E5"/>
<path d="M157.17 61.4297C157.17 61.4297 160.55 61.6497 161.4 62.9797C162.25 64.2997 163.3 71.0197 162.86 73.3197C162.42 75.6297 151.56 72.8797 151.56 72.8797L151.91 70.8797C151.91 70.8797 158.18 70.9197 158.53 70.0997C159 69.0197 157.17 61.4297 157.17 61.4297Z" fill="#B8A1FF"/>
<path d="M65.0101 126.82C65.0101 126.82 66.9001 127.57 67.5401 127.37C68.1801 127.17 69.2801 126.55 69.4701 126.05C69.6701 125.54 68.1701 126.18 67.6601 126.05C67.1501 125.92 66.6001 125.76 65.6101 126.05C64.6301 126.33 65.0101 126.82 65.0101 126.82Z" fill="#FFB27D"/>
<path d="M47.8101 170.3C47.8101 170.3 47.9501 172.6 48.3801 173.14H54.9501C54.9101 172.91 54.7201 172.34 53.9001 172.2C52.8601 172.02 51.1201 171.29 50.5001 169.92C49.8301 168.48 47.8101 170.3 47.8101 170.3Z" fill="#334272"/>
<path d="M36.15 169.98C36.15 169.98 35.72 172.84 36.28 172.89C36.36 172.9 38.99 172.89 39.7 173C40.87 173.17 42.82 173.02 42.82 173.02C42.88 173.02 42.93 173.01 42.98 172.99C43.03 172.96 43.07 172.92 43.1 172.88C43.13 172.83 43.15 172.78 43.15 172.72C43.15 172.66 43.14 172.61 43.11 172.56C42.97 172.33 42.71 172.09 42.22 171.99C41.19 171.79 39.46 171.03 38.86 169.65C38.21 168.19 36.15 169.98 36.15 169.98Z" fill="#334272"/>
<path d="M50.9 139.69C50.9 139.69 49.25 145.47 44.51 155.51C39.77 165.55 39.41 170.13 39.41 170.13L36.15 169.98C36.15 169.98 36.46 158.03 38.69 152.96C40.93 147.89 41.38 134.02 41.38 134.02L50.9 139.69Z" fill="#8B76E5"/>
<path d="M53.55 134.72C53.55 134.72 53.68 143.68 52.13 154.67C50.58 165.66 51.11 170.33 51.11 170.33L47.4 170.45C47.4 170.45 45.18 159.45 45.82 153.95C46.46 148.45 42.78 135.07 42.78 135.07L53.55 134.72Z" fill="#B8A1FF"/>
<path d="M46.2401 113.76L47.9901 115.06L50.5201 114.53C50.4801 114.3 50.3201 113.34 50.1701 112.48C50.1601 112.43 50.1501 112.38 50.1401 112.33C50.0101 111.59 49.9001 110.96 49.9001 110.96L47.5401 109.78L46.6601 109.34C46.6601 109.36 46.7301 110.16 46.7401 110.28C46.8901 112.35 46.2401 113.76 46.2401 113.76Z" fill="#FFB27D"/>
<path d="M53.89 135.01C54.05 136.61 41.26 138.5 41.21 135.82C41.17 133.46 42.57 120.49 43.01 118.63C43.78 115.35 44.47 113.47 45.94 113.04C46.48 112.88 48.47 113.4 49.91 113.82C50.01 113.85 50.11 113.88 50.21 113.92C50.64 114.09 51.02 114.36 51.33 114.7C51.64 115.04 51.87 115.44 52 115.88C52.22 116.63 52.48 117.59 52.68 118.64C52.88 119.63 53.01 120.63 53.07 121.64C53.08 121.85 53.09 122.06 53.09 122.28C53.1 123.06 53.17 124.08 53.26 125.2C53.32 125.91 53.39 126.66 53.47 127.43C53.49 127.65 53.51 127.87 53.54 128.1C53.56 128.25 53.8 133.33 53.87 134.68C53.87 134.7 53.87 134.72 53.87 134.73C53.87 134.73 53.87 134.73 53.87 134.74C53.87 134.76 53.87 134.78 53.87 134.8C53.88 134.93 53.89 135 53.89 135.01Z" fill="white"/>
<path d="M46.9 110.31C47.42 111.3 49.35 112.16 50.16 112.48C50.15 112.43 50.14 112.38 50.13 112.33C50 111.59 49.89 110.96 49.89 110.96L47.53 109.78C47.01 109.77 46.69 109.9 46.9 110.31Z" fill="#FCA56B"/>
<path d="M51.0401 110.81C51.0401 110.81 46.7801 112.14 45.9901 109.47C45.2001 106.8 44.1201 105.18 46.8101 104.22C49.5001 103.26 50.3301 104.12 50.8101 104.94C51.2901 105.77 52.1301 110.4 51.0401 110.81Z" fill="#FFB27D"/>
<path d="M50.63 104.69C50.63 104.69 50.36 107.79 49.72 107.66C49.08 107.53 48.5 107.43 48.59 108.36C48.68 109.3 49.57 110.38 47.6 110.55C45.63 110.72 42.78 105.61 43.32 104.65C44.89 101.86 52.9 101.29 50.63 104.69Z" fill="#52488C"/>
<path d="M50.3401 113.11C50.2801 113.09 46.9001 112.09 46.5301 112.21C46.1601 112.33 45.9401 113.04 45.9401 113.04L51.1701 114.53C51.1701 114.53 51.0401 113.41 50.3401 113.11Z" fill="#ED7D2B"/>
<path d="M65.61 126.05C65.61 126.05 66.22 125.54 66.74 125.42C67.27 125.31 67.73 124.83 67.73 125.06C67.73 125.29 67.33 125.85 67.33 126.05C67.34 126.24 65.61 126.05 65.61 126.05Z" fill="#FFB27D"/>
<path d="M53.2601 125.2C50.5501 124.17 48.4901 120.16 48.4901 120.16L53.0701 121.64C53.0801 121.85 53.09 122.06 53.09 122.28C53.1 123.06 53.1701 124.08 53.2601 125.2Z" fill="#ED7D2B"/>
<path d="M65.6901 126.48L65.7 126.46C65.76 126.23 65.74 126 65.64 125.78C65.54 125.57 65.3701 125.4 65.1601 125.3C63.4501 124.48 59.03 122.35 58.54 122.08C58.0201 121.8 52.8501 116.83 51.3001 115.33C51.1701 115.2 51.0001 115.11 50.83 115.07C50.6501 115.03 50.47 115.04 50.29 115.09L46 116.49C45.82 116.55 45.66 116.66 45.54 116.8C45.42 116.94 45.34 117.12 45.31 117.3C45.28 117.49 45.31 117.68 45.38 117.85C45.46 118.02 45.5801 118.17 45.7301 118.28C48.8801 120.44 55.4801 124.93 56.6601 125.54C58.7501 126.61 62.98 127.17 64.54 127.35C64.75 127.37 64.9701 127.33 65.1601 127.22C65.3501 127.11 65.49 126.95 65.58 126.75C65.64 126.67 65.67 126.58 65.6901 126.48Z" fill="white"/>
<path d="M60.6801 167.75H62.0101V167.29H60.6801V167.75Z" fill="#EA642F"/>
<path d="M57.58 171.51C57.8 171.91 58.12 172.25 58.52 172.48C58.91 172.71 59.36 172.84 59.82 172.84H67.4V171.51H57.58Z" fill="#EA642F"/>
<path d="M102.89 169.55V171.04C102.89 171.28 102.84 171.51 102.75 171.73C102.66 171.95 102.53 172.15 102.36 172.31C102.19 172.48 101.99 172.61 101.78 172.7C101.56 172.79 101.33 172.84 101.09 172.84H63.81C63.41 172.84 63.03 172.71 62.72 172.47C62.41 172.23 62.18 171.89 62.08 171.51C62.04 171.36 62.02 171.2 62.02 171.04V169.55C62.02 169.07 62.21 168.61 62.55 168.28C62.89 167.94 63.35 167.75 63.82 167.75H101.11C101.35 167.75 101.58 167.8 101.8 167.89C102.02 167.98 102.22 168.11 102.38 168.28C102.55 168.45 102.68 168.65 102.77 168.87C102.85 169.08 102.89 169.31 102.89 169.55Z" fill="white"/>
<path d="M102.82 171.51C102.72 171.89 102.49 172.23 102.18 172.47C101.87 172.71 101.48 172.84 101.09 172.84H63.8C63.4 172.84 63.02 172.71 62.71 172.47C62.4 172.23 62.17 171.89 62.07 171.51H102.82Z" fill="#8B76E5"/>
<path d="M99.1801 170.3C99.1801 171.09 99.4701 171.8 99.9201 172.27L99.9501 172.3C100.12 172.47 100.31 172.61 100.53 172.71C100.75 172.81 100.99 172.86 101.22 172.86C101.98 172.86 103.85 171.72 105.01 170.97C105.59 170.59 105.99 170.31 105.99 170.31C105.99 170.31 105.59 170.03 105.01 169.65C103.85 168.89 101.98 167.75 101.22 167.75C101.01 167.75 100.79 167.79 100.59 167.87C100.25 168.01 99.9501 168.25 99.7301 168.55C99.4601 168.92 99.2801 169.34 99.2101 169.8C99.2101 169.81 99.2101 169.81 99.2101 169.82C99.1901 169.97 99.1801 170.14 99.1801 170.3Z" fill="#B8A1FF"/>
<path d="M99.7401 168.55L105.46 170.11L100.6 167.87C100.26 168.02 99.9601 168.25 99.7401 168.55Z" fill="#EBF3FA"/>
<path d="M104.64 170.3C104.64 170.6 104.8 170.86 105.01 170.96C105.59 170.58 105.99 170.3 105.99 170.3C105.99 170.3 105.59 170.02 105.01 169.64C104.8 169.74 104.64 170 104.64 170.3Z" fill="white"/>
<g opacity="0.56">
<g opacity="0.56">
<g opacity="0.56">
<g opacity="0.56">
<path opacity="0.56" d="M111.48 139.34L112.16 141.66L112.65 142.37L112.68 141.51L112.01 139.18L111.48 139.34Z" fill="url(#paint6_linear)"/>
<path opacity="0.56" d="M110.61 134.55C110.6 134.69 109.84 136.3 109.84 136.3L111.73 140.21L112.44 140L111.24 135.89L110.61 134.55Z" fill="url(#paint7_linear)"/>
<path opacity="0.56" d="M111.71 135.76L109.35 136.45L98.5601 99.4297L100.92 98.7397L111.71 135.76Z" fill="url(#paint8_linear)"/>
</g>
<g opacity="0.56">
<path opacity="0.56" d="M77.74 134.51L78.74 134.99C79.08 135.15 79.48 135.01 79.64 134.67L95.96 100.48L93.75 99.4199L77.43 133.61C77.26 133.95 77.4 134.35 77.74 134.51Z" fill="url(#paint9_linear)"/>
</g>
</g>
<path opacity="0.56" d="M100.29 102.43L95.41 102.22C93.76 102.15 92.49 100.75 92.56 99.1098L92.86 92.2698C92.93 90.6198 94.33 89.3498 95.97 89.4198L100.85 89.6298C102.5 89.6998 103.77 91.0998 103.7 92.7398L103.4 99.5798C103.33 101.23 101.94 102.51 100.29 102.43Z" fill="url(#paint10_linear)"/>
<g opacity="0.56">
<path opacity="0.56" d="M98.0701 99.96C99.5667 99.96 100.78 98.7467 100.78 97.25C100.78 95.7533 99.5667 94.54 98.0701 94.54C96.5734 94.54 95.36 95.7533 95.36 97.25C95.36 98.7467 96.5734 99.96 98.0701 99.96Z" fill="black"/>
</g>
<path opacity="0.56" d="M100.82 90.0498L95.96 89.8398L96.29 82.2098C96.32 81.4698 96.95 80.8998 97.68 80.9298L99.87 81.0298C100.61 81.0598 101.18 81.6898 101.15 82.4198L100.82 90.0498Z" fill="url(#paint11_linear)"/>
</g>
<path opacity="0.56" d="M77.9201 132.63L75.3801 131.42L78.2001 125.5L80.7501 126.72L77.9201 132.63Z" fill="url(#paint12_linear)"/>
<path opacity="0.56" d="M75.1301 133.03L69.9501 130.55L74.3801 121.27L79.5701 123.75L75.1301 133.03Z" fill="url(#paint13_linear)"/>
<path opacity="0.56" d="M71.6201 133.33L71.1401 132.5L70.1001 132.45L68.8101 139.18L73.4901 134.07L72.7701 133.25L71.6201 133.33Z" fill="#ED1C24"/>
<path opacity="0.56" d="M68.8101 139.18L70.6301 137.2C70.3401 136.79 69.8701 136.51 69.3301 136.49L68.8101 139.18Z" fill="black"/>
<g opacity="0.56">
<path opacity="0.56" d="M70.1 132.45L71.14 132.5L71.62 133.33L72.77 133.25L73.49 134.07L81.76 116.75L78.36 115.15L70.1 132.45Z" fill="#ED1C24"/>
<path opacity="0.56" d="M71.6201 133.33L71.1401 132.5L70.1001 132.45L68.8101 139.18L73.4901 134.07L72.7701 133.25L71.6201 133.33Z" fill="url(#paint14_radial)"/>
<path opacity="0.56" d="M70.1 132.45L71.14 132.5L71.62 133.33L72.77 133.25L73.49 134.07L81.76 116.75L78.36 115.15L70.1 132.45Z" fill="url(#paint15_linear)"/>
<path opacity="0.56" d="M79.02 113.77L78.36 115.15L81.76 116.75L82.42 115.37L79.02 113.77Z" fill="#CCCCCC"/>
<path opacity="0.56" d="M84.5001 111.01C83.7201 109.54 82.5601 109.09 81.1101 109.39L79.0201 113.77L82.4201 115.37L84.5001 111.01Z" fill="url(#paint16_linear)"/>
</g>
</g>
<path opacity="0.76" d="M144.41 53.6498L138.17 50.5898L132.43 62.1898L120.83 56.4498L117.77 62.5698L129.37 68.4398L123.63 80.0398L129.88 83.0998L135.62 71.4998L147.22 77.2299L150.28 70.9898L138.68 65.2498L144.41 53.6498Z" fill="url(#paint17_linear)"/>
<path opacity="0.5" d="M144.41 53.6498L138.17 50.5898L132.43 62.1898L120.83 56.4498L117.77 62.5698L129.37 68.4398L123.63 80.0398L129.88 83.0998L135.62 71.4998L147.22 77.2299L150.28 70.9898L138.68 65.2498L144.41 53.6498Z" fill="url(#paint18_linear)"/>
<path d="M152.32 71.1399L151.59 70.5399C151.59 70.5399 151.13 70.2699 150.83 70.2699C150.53 70.2699 149.86 70.0399 149.82 70.1499C149.78 70.2599 150.45 70.8499 150.45 70.8499L150.48 70.8399C149.97 71.4099 148.38 71.3199 148.23 71.5399C148.05 71.8099 148.68 72.1799 149.03 72.3999C149.37 72.6099 150.29 72.8999 150.89 72.5699C151.33 72.3299 152.04 72.0299 152.04 72.0299L152.32 71.1399Z" fill="#FFB27D"/>
<path opacity="0.97" d="M-3.4 76.44C-3.4 76.44 24.93 35.57 65.25 51.38C105.57 67.19 123.01 37.76 157.33 26.32C191.65 14.88 224.35 15.42 254.32 34.49L261.95 -19.45L-35 -26L-13.75 55.19L-3.4 76.44Z" fill="url(#paint19_linear)"/>
<g opacity="0.54">
<path opacity="0.54" d="M5.50998 123.65L-7.82001 129.43L-15.39 148.54L3.71999 156.1L17.06 150.32L24.62 131.21L5.50998 123.65Z" fill="url(#paint20_linear)"/>
<path opacity="0.54" d="M3.71999 156.1L-15.39 148.54L-7.82001 129.43L11.29 136.99L3.71999 156.1Z" fill="url(#paint21_linear)"/>
<g opacity="0.54">
<path opacity="0.54" d="M-2.15002 143.19L-2.27002 143.14L-1.89002 142.18L-1.77002 142.23L-2.15002 143.19ZM-1.39002 141.27L-1.51002 141.22L-1.13002 140.26L-1.01002 140.31L-1.39002 141.27ZM-0.63002 139.34L-0.750019 139.29L-0.370018 138.33L-0.250019 138.38L-0.63002 139.34ZM0.129982 137.42L0.00997925 137.37L0.38998 136.41L0.509979 136.46L0.129982 137.42ZM0.88998 135.5L0.769981 135.45L1.14998 134.49L1.26998 134.54L0.88998 135.5ZM1.64998 133.58L1.52998 133.53L1.90998 132.57L2.02998 132.62L1.64998 133.58ZM2.41998 131.65L2.29998 131.6L2.67998 130.64L2.79998 130.69L2.41998 131.65ZM3.17998 129.73L3.05998 129.68L3.43998 128.72L3.55998 128.77L3.17998 129.73ZM3.93998 127.81L3.81998 127.76L4.19998 126.8L4.31998 126.85L3.93998 127.81ZM4.69998 125.89L4.57998 125.84L4.95998 124.88L5.07998 124.93L4.69998 125.89Z" fill="white"/>
</g>
<g opacity="0.54">
<path opacity="0.54" d="M16.88 150.79L15.92 150.41L15.97 150.29L16.93 150.67L16.88 150.79ZM14.96 150.03L14 149.64L14.05 149.52L15.01 149.9L14.96 150.03ZM13.03 149.26L12.07 148.88L12.12 148.76L13.08 149.14L13.03 149.26ZM11.11 148.5L10.15 148.12L10.2 148L11.16 148.38L11.11 148.5ZM9.18999 147.74L8.23 147.36L8.27999 147.24L9.24 147.62L9.18999 147.74ZM7.27 146.98L6.31 146.6L6.36 146.48L7.32 146.86L7.27 146.98ZM5.34999 146.22L4.39 145.84L4.43999 145.72L5.4 146.1L5.34999 146.22ZM3.41999 145.46L2.46 145.08L2.50999 144.96L3.47 145.34L3.41999 145.46ZM1.5 144.7L0.539997 144.32L0.589996 144.2L1.55 144.58L1.5 144.7ZM-0.420002 143.94L-1.38 143.56L-1.33001 143.44L-0.370003 143.82L-0.420002 143.94Z" fill="white"/>
</g>
<path opacity="0.54" d="M5.53998 123.58C5.53998 123.58 6.38998 133.07 11.31 136.92L24.65 131.15L5.53998 123.58Z" fill="url(#paint22_linear)"/>
</g>
<path d="M244.79 192.5H-3.66998V269.33H244.79V192.5Z" fill="white"/>
<defs>
<linearGradient id="paint0_linear" x1="251.708" y1="-59.8019" x2="93.2223" y2="162.904" gradientUnits="userSpaceOnUse">
<stop stop-color="#FDFBFD"/>
<stop offset="1" stop-color="#FAF8FF"/>
</linearGradient>
<linearGradient id="paint1_linear" x1="223.756" y1="50.6654" x2="193.183" y2="76.1526" gradientUnits="userSpaceOnUse">
<stop stop-color="#E07AF4"/>
<stop offset="0.0591" stop-color="#D77CF3"/>
<stop offset="0.1573" stop-color="#BD80EF"/>
<stop offset="0.2827" stop-color="#9487E9"/>
<stop offset="0.4286" stop-color="#5B91E0"/>
<stop offset="0.5674" stop-color="#1E9CD7"/>
<stop offset="0.8652" stop-color="#0075BE"/>
<stop offset="0.9944" stop-color="#005B97"/>
</linearGradient>
<linearGradient id="paint2_linear" x1="202.498" y1="68.9875" x2="242.953" y2="77.9069" gradientUnits="userSpaceOnUse">
<stop stop-color="#E07AF4"/>
<stop offset="0.0591" stop-color="#D77CF3"/>
<stop offset="0.1573" stop-color="#BD80EF"/>
<stop offset="0.2827" stop-color="#9487E9"/>
<stop offset="0.4286" stop-color="#5B91E0"/>
<stop offset="0.5674" stop-color="#1E9CD7"/>
<stop offset="0.8652" stop-color="#0075BE"/>
<stop offset="0.9944" stop-color="#005B97"/>
</linearGradient>
<linearGradient id="paint3_linear" x1="55.6752" y1="153.064" x2="83.6116" y2="153.064" gradientUnits="userSpaceOnUse">
<stop stop-color="#E07AF4"/>
<stop offset="0.0591" stop-color="#D77CF3"/>
<stop offset="0.1573" stop-color="#BD80EF"/>
<stop offset="0.2827" stop-color="#9487E9"/>
<stop offset="0.4286" stop-color="#5B91E0"/>
<stop offset="0.5674" stop-color="#1E9CD7"/>
<stop offset="0.8652" stop-color="#0075BE"/>
<stop offset="0.9944" stop-color="#005B97"/>
</linearGradient>
<linearGradient id="paint4_linear" x1="61.1182" y1="99.9594" x2="82.5514" y2="82.7033" gradientUnits="userSpaceOnUse">
<stop stop-color="#E07AF4"/>
<stop offset="0.0591" stop-color="#D77CF3"/>
<stop offset="0.1573" stop-color="#BD80EF"/>
<stop offset="0.2827" stop-color="#9487E9"/>
<stop offset="0.4286" stop-color="#5B91E0"/>
<stop offset="0.5674" stop-color="#1E9CD7"/>
<stop offset="0.8652" stop-color="#0075BE"/>
<stop offset="0.9944" stop-color="#005B97"/>
</linearGradient>
<linearGradient id="paint5_linear" x1="111.451" y1="128.768" x2="181.397" y2="128.768" gradientUnits="userSpaceOnUse">
<stop stop-color="#E07AF4"/>
<stop offset="0.0591" stop-color="#D77CF3"/>
<stop offset="0.1573" stop-color="#BD80EF"/>
<stop offset="0.2827" stop-color="#9487E9"/>
<stop offset="0.4286" stop-color="#5B91E0"/>
<stop offset="0.5674" stop-color="#1E9CD7"/>
<stop offset="0.8652" stop-color="#0075BE"/>
<stop offset="0.9944" stop-color="#005B97"/>
</linearGradient>
<linearGradient id="paint6_linear" x1="111.431" y1="140.701" x2="112.731" y2="140.758" gradientUnits="userSpaceOnUse">
<stop stop-color="white"/>
<stop offset="1"/>
</linearGradient>
<linearGradient id="paint7_linear" x1="109.804" y1="137.288" x2="112.561" y2="137.408" gradientUnits="userSpaceOnUse">
<stop stop-color="white"/>
<stop offset="1"/>
</linearGradient>
<linearGradient id="paint8_linear" x1="97.7902" y1="117.237" x2="112.498" y2="117.88" gradientUnits="userSpaceOnUse">
<stop stop-color="white"/>
<stop offset="1"/>
</linearGradient>
<linearGradient id="paint9_linear" x1="78.1109" y1="116.842" x2="95.2159" y2="117.59" gradientUnits="userSpaceOnUse">
<stop stop-color="white"/>
<stop offset="1"/>
</linearGradient>
<linearGradient id="paint10_linear" x1="92.7135" y1="95.6494" x2="103.562" y2="96.124" gradientUnits="userSpaceOnUse">
<stop stop-color="#E07AF4"/>
<stop offset="0.0591" stop-color="#D77CF3"/>
<stop offset="0.1573" stop-color="#BD80EF"/>
<stop offset="0.2827" stop-color="#9487E9"/>
<stop offset="0.4286" stop-color="#5B91E0"/>
<stop offset="0.5674" stop-color="#1E9CD7"/>
<stop offset="0.8652" stop-color="#0075BE"/>
<stop offset="0.9944" stop-color="#005B97"/>
</linearGradient>
<linearGradient id="paint11_linear" x1="96.1673" y1="85.3222" x2="101.024" y2="85.5347" gradientUnits="userSpaceOnUse">
<stop stop-color="#E07AF4"/>
<stop offset="0.0591" stop-color="#D77CF3"/>
<stop offset="0.1573" stop-color="#BD80EF"/>
<stop offset="0.2827" stop-color="#9487E9"/>
<stop offset="0.4286" stop-color="#5B91E0"/>
<stop offset="0.5674" stop-color="#1E9CD7"/>
<stop offset="0.8652" stop-color="#0075BE"/>
<stop offset="0.9944" stop-color="#005B97"/>
</linearGradient>
<linearGradient id="paint12_linear" x1="75.4976" y1="128.92" x2="80.6496" y2="129.145" gradientUnits="userSpaceOnUse">
<stop stop-color="white"/>
<stop offset="1"/>
</linearGradient>
<linearGradient id="paint13_linear" x1="70.1177" y1="126.912" x2="79.418" y2="127.318" gradientUnits="userSpaceOnUse">
<stop stop-color="white"/>
<stop offset="1"/>
</linearGradient>
<radialGradient id="paint14_radial" cx="0" cy="0" r="1" gradientUnits="userSpaceOnUse" gradientTransform="translate(71.1937 135.858) rotate(2.50473) scale(2.86827)">
<stop stop-color="white"/>
<stop offset="0.0851" stop-color="#FFEDD8"/>
<stop offset="0.2082" stop-color="#FFD5A7"/>
<stop offset="0.3345" stop-color="#FFC17D"/>
<stop offset="0.462" stop-color="#FFB05B"/>
<stop offset="0.591" stop-color="#FFA340"/>
<stop offset="0.7222" stop-color="#FF9A2D"/>
<stop offset="0.8568" stop-color="#FF9522"/>
<stop offset="1" stop-color="#FF931E"/>
</radialGradient>
<linearGradient id="paint15_linear" x1="70.4682" y1="124.338" x2="81.4132" y2="124.817" gradientUnits="userSpaceOnUse">
<stop stop-color="#FF7BAC"/>
<stop offset="1" stop-color="#FF7BAC" stop-opacity="0"/>
</linearGradient>
<linearGradient id="paint16_linear" x1="88.7632" y1="109.095" x2="80.3635" y2="113.002" gradientUnits="userSpaceOnUse">
<stop stop-color="white"/>
<stop offset="1"/>
</linearGradient>
<linearGradient id="paint17_linear" x1="117.768" y1="66.8423" x2="150.277" y2="66.8423" gradientUnits="userSpaceOnUse">
<stop stop-color="#FDFBFD"/>
<stop offset="1" stop-color="#B9A0FF"/>
</linearGradient>
<linearGradient id="paint18_linear" x1="120.698" y1="71.3362" x2="147.362" y2="62.3432" gradientUnits="userSpaceOnUse">
<stop stop-color="#E07AF4"/>
<stop offset="0.0591" stop-color="#D77CF3"/>
<stop offset="0.1573" stop-color="#BD80EF"/>
<stop offset="0.2827" stop-color="#9487E9"/>
<stop offset="0.4286" stop-color="#5B91E0"/>
<stop offset="0.5674" stop-color="#1E9CD7"/>
<stop offset="0.8652" stop-color="#0075BE"/>
<stop offset="0.9944" stop-color="#005B97"/>
</linearGradient>
<linearGradient id="paint19_linear" x1="107.713" y1="16.5633" x2="98.9945" y2="71.5958" gradientUnits="userSpaceOnUse">
<stop stop-color="#FDFBFD"/>
<stop offset="1" stop-color="#F0EBFF"/>
</linearGradient>
<linearGradient id="paint20_linear" x1="4.64672" y1="132.853" x2="4.5828" y2="160.831" gradientUnits="userSpaceOnUse">
<stop stop-color="#E07AF4"/>
<stop offset="0.0591" stop-color="#D77CF3"/>
<stop offset="0.1573" stop-color="#BD80EF"/>
<stop offset="0.2827" stop-color="#9487E9"/>
<stop offset="0.4286" stop-color="#5B91E0"/>
<stop offset="0.5674" stop-color="#1E9CD7"/>
<stop offset="0.8652" stop-color="#0075BE"/>
<stop offset="0.9944" stop-color="#005B97"/>
</linearGradient>
<linearGradient id="paint21_linear" x1="-14.4119" y1="133.565" x2="25.5357" y2="163.233" gradientUnits="userSpaceOnUse">
<stop stop-color="#E07AF4"/>
<stop offset="0.0591" stop-color="#D77CF3"/>
<stop offset="0.1573" stop-color="#BD80EF"/>
<stop offset="0.2827" stop-color="#9487E9"/>
<stop offset="0.4286" stop-color="#5B91E0"/>
<stop offset="0.5674" stop-color="#1E9CD7"/>
<stop offset="0.8652" stop-color="#0075BE"/>
<stop offset="0.9944" stop-color="#005B97"/>
</linearGradient>
<linearGradient id="paint22_linear" x1="6.03741" y1="130.7" x2="33.1534" y2="125.547" gradientUnits="userSpaceOnUse">
<stop stop-color="#E07AF4"/>
<stop offset="0.0591" stop-color="#D77CF3"/>
<stop offset="0.1573" stop-color="#BD80EF"/>
<stop offset="0.2827" stop-color="#9487E9"/>
<stop offset="0.4286" stop-color="#5B91E0"/>
<stop offset="0.5674" stop-color="#1E9CD7"/>
<stop offset="0.8652" stop-color="#0075BE"/>
<stop offset="0.9944" stop-color="#005B97"/>
</linearGradient>
</defs>
</svg>
