<svg width="33" height="33" viewBox="0 0 33 33" fill="none" xmlns="http://www.w3.org/2000/svg">
<path d="M9.07399 12.8978C8.51018 12.8978 8.05312 12.4408 8.05312 11.877V7.94874H4.16345C3.59964 7.94874 3.14258 7.49168 3.14258 6.92787V6.06403C3.14258 5.50022 3.59964 5.04316 4.16345 5.04316H8.05312V1.11511C8.05312 0.551296 8.51018 0.0942383 9.07399 0.0942383H9.91491C10.4787 0.0942383 10.9358 0.551296 10.9358 1.11511V5.04316H14.8253C15.3891 5.04316 15.8461 5.50022 15.8461 6.06403V6.92787C15.8461 7.49168 15.3891 7.94874 14.8253 7.94874H10.9358V11.877C10.9358 12.4408 10.4787 12.8978 9.91491 12.8978H9.07399Z" fill="#A461D8"/>
<path d="M4.70364 28.1113C4.30653 27.7111 4.30653 27.0622 4.70364 26.662L7.45682 23.8871L4.70356 21.1122C4.30645 20.7119 4.30645 20.063 4.70356 19.6628L5.30401 19.0576C5.70112 18.6574 6.34496 18.6574 6.74206 19.0576L9.49532 21.8325L12.2484 19.0578C12.6455 18.6576 13.2893 18.6576 13.6864 19.0578L14.2867 19.6628C14.6838 20.0631 14.6838 20.712 14.2867 21.1122L11.5337 23.8869L14.2868 26.6618C14.6839 27.062 14.6839 27.7109 14.2868 28.1111L13.6864 28.7163C13.2892 29.1165 12.6454 29.1165 12.2483 28.7163L9.49516 25.9415L6.74198 28.7164C6.34488 29.1166 5.70104 29.1166 5.30393 28.7164L4.70364 28.1113Z" fill="#A461D8"/>
<path d="M31.639 5.2417H22.818C22.2542 5.2417 21.7971 5.69876 21.7971 6.26257V6.70534C21.7971 7.26915 22.2542 7.72621 22.818 7.72621H31.639C32.2028 7.72621 32.6599 7.26915 32.6599 6.70534V6.26257C32.6599 5.69876 32.2028 5.2417 31.639 5.2417Z" fill="#A461D8"/>
<path d="M31.639 20.0845H22.818C22.2542 20.0845 21.7971 20.5415 21.7971 21.1053V21.548C21.7971 22.1118 22.2542 22.5688 22.818 22.5688H31.639C32.2028 22.5688 32.6599 22.1118 32.6599 21.548V21.1053C32.6599 20.5415 32.2028 20.0845 31.639 20.0845Z" fill="#A461D8"/>
<path d="M31.639 25.1021H22.818C22.2542 25.1021 21.7971 25.5591 21.7971 26.1229V26.5655C21.7971 27.1293 22.2542 27.5864 22.818 27.5864H31.639C32.2028 27.5864 32.6599 27.1294 32.6599 26.5655V26.1229C32.6599 25.5591 32.2028 25.1021 31.639 25.1021Z" fill="#A461D8"/>
</svg>
