<svg width="24" height="24" viewBox="0 0 24 24" fill="none" xmlns="http://www.w3.org/2000/svg">
<path fill-rule="evenodd" clip-rule="evenodd" d="M23.6121 10.7328L22.7069 9.38793C22.6293 9.23276 22.6034 9.07759 22.6034 8.89655L22.7069 7.26724C22.7586 6.33621 22.2672 5.48276 21.4397 5.06897L19.9914 4.34483C19.8362 4.26724 19.7328 4.16379 19.6552 4.00862L18.931 2.56034C18.5172 1.73276 17.6379 1.24138 16.7328 1.2931L15.1034 1.39655C14.9483 1.39655 14.7672 1.37069 14.6379 1.26724L13.2931 0.387931C12.5172 -0.12931 11.5345 -0.12931 10.7586 0.387931L9.41379 1.2931C9.23276 1.37069 9.07759 1.39655 8.89655 1.39655L7.26724 1.2931C6.33621 1.24138 5.48276 1.73276 5.06897 2.56034L4.34483 4.00862C4.26724 4.16379 4.16379 4.26724 4.00862 4.34483L2.56034 5.06897C1.73276 5.48276 1.24138 6.36207 1.2931 7.26724L1.39655 8.89655C1.39655 9.05172 1.37069 9.23276 1.26724 9.36207L0.387931 10.7069C-0.12931 11.4828 -0.12931 12.4914 0.387931 13.2414L1.2931 14.5862C1.37069 14.7672 1.39655 14.9224 1.39655 15.1034L1.2931 16.7328C1.24138 17.6638 1.73276 18.5172 2.56034 18.931L4.00862 19.6552C4.16379 19.7328 4.26724 19.8621 4.34483 19.9914L5.06897 21.4397C5.48276 22.2672 6.36207 22.7586 7.26724 22.7069L8.89655 22.6034C9.05172 22.6034 9.23276 22.6293 9.36207 22.7328L10.7069 23.6121C11.0948 23.8707 11.5345 24 11.9741 24C12.4138 24 12.8534 23.8707 13.2414 23.6121L14.5862 22.7069C14.7155 22.6293 14.8966 22.5776 15.0517 22.5776L16.681 22.681C17.6121 22.7328 18.4655 22.2414 18.8793 21.4138L19.6034 19.9655C19.681 19.8103 19.7845 19.7069 19.9397 19.6293L21.3879 18.9052C22.2155 18.4914 22.7069 17.6121 22.6552 16.7069L22.6034 15.1034C22.6034 14.9483 22.6293 14.7672 22.7328 14.6379L23.6121 13.2672C24.1293 12.4914 24.1293 11.4828 23.6121 10.7328Z" fill="#3DD598"/>
<path d="M15.5733 8.2242C15.8074 7.95642 16.2205 7.92385 16.4959 8.15147C16.7714 8.37909 16.8048 8.78069 16.5707 9.04848L11.0071 15.4121C10.7693 15.6841 10.348 15.7127 10.0735 15.4756L7.12808 12.9301C6.85789 12.6966 6.83356 12.2944 7.07372 12.0317C7.31388 11.7691 7.7276 11.7454 7.99779 11.9789L10.4431 14.0921L15.5733 8.2242Z" fill="white" stroke="white" stroke-width="2"/>
</svg>
