<svg width="263" height="153" viewBox="0 0 263 153" fill="none" xmlns="http://www.w3.org/2000/svg">
<path d="M38.9001 28.4341C41.8517 30.6811 43.2799 34.5911 41.3502 38.114C38.7224 42.919 32.6479 43.5664 28.9981 39.466C28.2777 38.6984 27.7227 37.7911 27.3673 36.8003C27.0119 35.8094 26.8637 34.7561 26.932 33.7057C24.8501 35.2608 22.6316 35.8162 20.2006 35.0799C18.435 34.5489 16.9062 33.4259 15.8716 31.8998C13.7611 28.8816 14.0721 25.6571 15.8304 23.3086C18.3122 19.9825 21.9651 19.3256 25.3039 20.9124C24.9961 20.2174 24.7009 19.5795 24.428 18.932C24.275 18.5501 24.2 18.1414 24.2072 17.7301C24.2144 17.3188 24.3038 16.913 24.47 16.5367C24.6362 16.1603 24.8759 15.821 25.1751 15.5386C25.4743 15.2562 25.8269 15.0365 26.2122 14.8922C26.5975 14.748 27.0077 14.6823 27.4188 14.6988C27.8299 14.7153 28.2335 14.8138 28.606 14.9885C28.9784 15.1632 29.3122 15.4106 29.5878 15.7161C29.8633 16.0216 30.075 16.3791 30.2105 16.7675C30.6865 18.1915 31.1499 19.6175 31.6006 21.0457C31.7411 21.4315 31.7954 21.8434 31.7595 22.2524C31.7237 22.6614 31.5987 23.0576 31.3933 23.4131C31.1878 23.7686 30.907 24.0748 30.5705 24.31C30.234 24.5453 29.85 24.704 29.4456 24.7748C29.1282 24.8447 29.0679 24.8859 29.1949 25.2096C29.3866 25.73 29.5404 26.2635 29.6551 26.806C29.7615 27.3686 29.7893 27.9432 29.7376 28.5135C30.2866 28.1929 30.7913 27.8914 31.2927 27.5931C31.8449 27.3278 32.4222 27.1184 33.016 26.9679C32.1242 26.1586 31.6133 25.2477 31.8767 24.0449C31.9866 23.386 32.3376 22.7914 32.8613 22.3768C33.3851 21.9621 34.0442 21.7569 34.7108 21.8011C36.4088 21.9058 38.1035 22.0581 39.7856 22.2739C40.515 22.3946 41.1756 22.7763 41.6445 23.3479C42.1134 23.9195 42.3584 24.6421 42.3341 25.381C42.3151 26.1313 42.0255 26.8494 41.5186 27.403C41.0118 27.9565 40.3219 28.3081 39.5761 28.3929C39.3698 28.4214 39.1794 28.4214 38.9001 28.4341Z" fill="#E1D6EB"/>
<path d="M38.1953 29.532C38.6682 29.9604 39.249 30.281 39.5505 30.8871C39.4512 30.8398 39.3668 30.7662 39.3061 30.6745C39.4643 30.9335 39.6819 31.151 39.9409 31.3092C41.3309 33.5562 41.3659 35.8001 39.925 38.0407C39.3033 38.5703 38.7249 39.1487 38.1953 39.7704C38.1659 39.8136 38.1252 39.848 38.0777 39.8698C38.0301 39.8916 37.9775 39.9 37.9255 39.8942C37.7938 39.9108 37.6675 39.9564 37.5555 40.0278C37.4435 40.0991 37.3488 40.1944 37.2781 40.3068C34.7963 41.4176 32.5778 40.8939 30.5435 39.2213C30.3571 38.9271 30.1078 38.6778 29.8135 38.4914C29.5661 38.2303 29.3654 37.9286 29.22 37.5996C29.1647 37.3425 29.025 37.1113 28.8233 36.9426C27.2396 34.0323 28.6329 30.5634 31.0925 29.1384C31.3401 29.1956 31.3623 28.8687 31.5749 28.8591C31.8361 28.7969 32.0794 28.6753 32.2858 28.5037C32.9792 28.2088 33.7266 28.0626 34.4799 28.0747C35.2333 28.0867 35.9757 28.2566 36.6592 28.5735C36.7089 28.6485 36.777 28.7095 36.8571 28.7506C36.9371 28.7918 37.0263 28.8116 37.1163 28.8084L37.751 29.1194C37.8912 29.3281 38.0588 29.517 38.2493 29.6811C38.2969 29.7287 38.335 29.7668 38.3984 29.716C38.2302 29.7763 38.1953 29.6716 38.1953 29.532Z" fill="#532159"/>
<path d="M23.0696 21.4897C24.0153 21.7055 24.9357 21.9467 25.6085 22.7592C25.7577 22.9401 26.1259 22.8766 26.2401 23.1242C26.2909 23.3654 26.5861 23.413 26.6368 23.6605C26.6908 24.0065 27.0811 24.1049 27.1922 24.4064C27.5089 24.8552 27.7932 25.3261 28.0428 25.8155C28.4307 26.6774 28.5867 27.6257 28.4954 28.5665C28.4041 29.5072 28.0687 30.4078 27.5223 31.1791C27.3549 31.2579 27.2131 31.3822 27.1129 31.5377C27.1296 31.5059 27.1554 31.4798 27.1871 31.4628C27.2188 31.4458 27.2549 31.4388 27.2906 31.4425C27.2821 31.5178 27.2572 31.5903 27.2177 31.655C27.1783 31.7197 27.1252 31.775 27.0621 31.817C26.6839 32.0905 26.3518 32.4226 26.0783 32.8009C25.2081 33.5637 24.1176 34.0295 22.9648 34.1306C22.8315 34.0291 22.7109 34.1053 22.5903 34.156C21.9155 34.2492 21.2281 34.1672 20.5941 33.918C20.2908 33.7103 19.9468 33.5696 19.5848 33.5054C18.9985 33.2697 18.4686 32.9128 18.0297 32.4581C17.8819 32.1911 17.6619 31.9711 17.395 31.8234C17.311 31.7726 17.2386 31.7049 17.1823 31.6246C17.126 31.5443 17.0871 31.4531 17.0681 31.3568C17.0712 31.1315 16.8903 31.0775 16.7412 30.9918C16.1709 30.1567 15.8275 29.1877 15.7446 28.1799C15.8208 27.6598 15.8367 27.1327 15.7922 26.6089C15.9101 25.8103 16.1951 25.0455 16.6288 24.3647C17.0625 23.6838 17.6351 23.1021 18.309 22.6577C18.3162 22.6968 18.3094 22.7372 18.2899 22.7719C18.2702 22.7944 18.249 22.8156 18.2265 22.8354C18.3935 22.6924 18.5399 22.5268 18.6613 22.3435C19.2088 21.9614 19.8306 21.6987 20.4862 21.5722C20.8035 21.6928 21.1019 21.4834 21.4129 21.5215C21.9715 21.3755 22.5046 21.5976 23.0696 21.4897Z" fill="#532159"/>
<path d="M33.2857 25.3967C32.7176 24.289 33.2286 23.2766 34.4505 23.083C34.8404 23.1923 35.2466 23.231 35.6502 23.1973C36.8847 23.1624 38.0844 23.3782 39.3031 23.4607C39.6235 23.4843 39.9332 23.5868 40.2044 23.759C40.4583 24.0573 40.6424 24.4065 40.9217 24.6857C41.0375 24.9465 41.0833 25.2331 41.0543 25.517C41.0254 25.8009 40.9228 26.0723 40.7567 26.3043C40.4927 26.4561 40.2737 26.6752 40.1219 26.9391C39.5538 27.3358 38.9635 27.1835 38.3573 27.047C36.863 26.778 35.3832 26.4337 33.9236 26.0155C33.7714 25.755 33.5508 25.541 33.2857 25.3967Z" fill="#532159"/>
<path d="M30.131 20.7312C30.5024 21.439 30.6833 22.1594 30.2231 22.8989C30.1773 23.0066 30.106 23.1016 30.0153 23.1757C29.9246 23.2498 29.8173 23.3007 29.7026 23.3242C29.261 23.4421 28.8004 23.4712 28.3474 23.4098L28.176 23.3527C28.0556 23.1276 27.8712 22.9431 27.646 22.8227C27.5991 22.7931 27.5615 22.751 27.5373 22.701C27.5132 22.6511 27.5036 22.5954 27.5096 22.5402C27.413 21.9552 27.1471 21.4112 26.7447 20.9756C26.3702 20.1822 25.9862 19.3919 25.6275 18.589C25.517 18.4048 25.4449 18.2003 25.4154 17.9876C25.386 17.7749 25.3998 17.5584 25.4562 17.3512C25.7294 16.6936 26.2521 16.1709 26.9097 15.8976C27.1236 15.8278 27.3509 15.8095 27.5732 15.8443C27.7955 15.879 28.0064 15.9658 28.1887 16.0976C28.3608 16.3935 28.6069 16.6396 28.9028 16.8117C29.2655 17.6699 29.5542 18.5576 29.7661 19.4649C29.7755 19.9116 29.9013 20.3481 30.131 20.7312Z" fill="#532159"/>
<path d="M26.729 20.9788C26.9867 21.1454 27.1941 21.3791 27.3289 21.6548C27.4636 21.9305 27.5207 22.2377 27.4939 22.5434L26.729 20.9788Z" fill="#482151"/>
<path d="M23.0698 21.4897C22.5239 21.8134 21.9558 21.5182 21.4004 21.5531C21.4052 21.5009 21.4281 21.4519 21.4652 21.4148C21.5023 21.3777 21.5512 21.3548 21.6035 21.35C22.0967 21.3054 22.5939 21.3527 23.0698 21.4897Z" fill="#4B2652"/>
<path d="M26.8811 15.8818C26.5507 16.1891 26.2032 16.4773 25.8401 16.7451C25.5957 16.9069 25.9289 17.4052 25.4307 17.364C25.4802 16.9935 25.6482 16.649 25.9096 16.3819C26.171 16.1148 26.5118 15.9394 26.8811 15.8818Z" fill="#3F204A"/>
<path d="M15.7893 26.5615C16.1448 27.1011 15.9639 27.6184 15.7417 28.1325C15.6273 27.613 15.6437 27.0732 15.7893 26.5615Z" fill="#482654"/>
<path d="M30.1314 20.7313C29.7252 20.4456 29.7029 19.96 29.5506 19.5475C29.5189 19.4649 29.6553 19.4427 29.7347 19.4522C29.9248 19.8584 30.0583 20.2888 30.1314 20.7313Z" fill="#4D2752"/>
<path d="M38.1924 39.8244C38.6438 39.135 39.2326 38.5461 39.9221 38.0947C39.4074 38.73 38.8277 39.3097 38.1924 39.8244Z" fill="#2E183C"/>
<path d="M28.3413 23.4037C28.8047 23.2323 29.3125 23.4228 29.7473 23.1403C29.7695 23.1181 29.725 23.2577 29.7028 23.3244C29.512 23.4769 29.2785 23.5664 29.0347 23.5806C28.7908 23.5948 28.5486 23.533 28.3413 23.4037Z" fill="#462450"/>
<path d="M28.0239 25.7775C27.6671 25.3561 27.38 24.8804 27.1733 24.3684C27.6106 24.7263 27.911 25.224 28.0239 25.7775Z" fill="#3E1F4D"/>
<path d="M35.6596 23.1878C35.2312 23.4512 34.8408 23.2957 34.46 23.0735C34.8629 23.0031 35.2773 23.0426 35.6596 23.1878Z" fill="#44214F"/>
<path d="M19.5752 33.4517C19.7654 33.4001 19.9672 33.4126 20.1496 33.4872C20.332 33.5617 20.4848 33.6942 20.5844 33.8642C20.2217 33.8029 19.877 33.662 19.5752 33.4517Z" fill="#482451"/>
<path d="M21.6035 21.3311L21.4004 21.5342C21.0989 21.4802 20.7878 21.8611 20.4927 21.5151C20.8503 21.3931 21.2256 21.331 21.6035 21.3311Z" fill="#421D4A"/>
<path d="M40.9316 24.6762C40.5063 24.5112 40.4048 24.0986 40.2144 23.7495C40.5581 23.961 40.8131 24.2904 40.9316 24.6762Z" fill="#41204A"/>
<path d="M26.0527 32.7629C26.2451 32.3228 26.5965 31.9714 27.0366 31.7791C26.7129 32.1028 26.3701 32.4455 26.0527 32.7629Z" fill="#36183D"/>
<path d="M28.8713 16.7993C28.5698 16.6247 28.1699 16.5422 28.1572 16.0852C28.4434 16.2697 28.6868 16.5132 28.8713 16.7993Z" fill="#361940"/>
<path d="M32.2922 28.5481C32.215 28.6818 32.1 28.7896 31.9616 28.858C31.8232 28.9263 31.6677 28.9521 31.5146 28.9321L31.4766 28.894C31.7252 28.7301 32.0016 28.6129 32.2922 28.5481Z" fill="#401E49"/>
<path d="M29.8203 38.5359C29.9943 38.5848 30.1529 38.6776 30.2807 38.8055C30.4085 38.9333 30.5014 39.0918 30.5503 39.2659L29.8203 38.5359Z" fill="#2C1638"/>
<path d="M37.2847 40.3511C37.3164 39.9829 37.656 39.9797 37.8813 39.8433C37.8813 39.8433 37.9099 39.8718 37.9226 39.8845C37.9353 39.8972 37.9289 39.9226 37.9289 39.9417L37.2847 40.3511Z" fill="#3F1F47"/>
<path d="M38.1955 29.5322L38.3701 29.7702C38.1067 29.6147 37.8052 29.4973 37.7354 29.1355L38.1955 29.5322Z" fill="#492954"/>
<path d="M39.9348 31.3411C39.592 31.2839 39.4619 30.9824 39.2778 30.7285L39.5349 30.884L39.9348 31.3411Z" fill="#391A42"/>
<path d="M17.3984 31.7822C17.5544 31.815 17.6975 31.8925 17.8102 32.0052C17.9229 32.1179 18.0004 32.261 18.0332 32.417L17.3984 31.7822Z" fill="#30193F"/>
<path d="M28.8301 36.9873C29.1728 37.0825 29.2268 37.3459 29.2268 37.6443C29.0322 37.4696 28.8941 37.2409 28.8301 36.9873Z" fill="#351B44"/>
<path d="M27.1858 24.3747C26.989 24.1335 26.6304 24.0161 26.6304 23.6289C26.7446 23.9336 27.2143 23.9717 27.1858 24.3747Z" fill="#3E1942"/>
<path d="M33.2861 25.3967C33.4376 25.43 33.5764 25.506 33.686 25.6157C33.7957 25.7254 33.8717 25.8641 33.905 26.0156C33.6508 25.8635 33.4382 25.6509 33.2861 25.3967Z" fill="#361A41"/>
<path d="M37.1103 28.8401C36.8501 28.9797 36.6978 28.8909 36.6533 28.6052C36.8295 28.624 36.9925 28.7078 37.1103 28.8401Z" fill="#442350"/>
<path d="M40.125 26.917C40.155 26.7598 40.2316 26.6152 40.3448 26.502C40.458 26.3889 40.6025 26.3123 40.7597 26.2822C40.5883 26.5305 40.3733 26.7456 40.125 26.917Z" fill="#2B173A"/>
<path d="M16.7446 30.9506C16.9922 30.9316 17.0747 31.1474 17.2207 31.2744C17.2746 31.3283 17.2588 31.3759 17.1794 31.3664C17.1415 31.3541 17.1052 31.337 17.0715 31.3156L16.7446 30.9506Z" fill="#3A1B46"/>
<path d="M18.6676 22.3054C18.6565 22.4121 18.615 22.5133 18.548 22.5972C18.4811 22.681 18.3915 22.7438 18.29 22.7783C18.2106 22.8132 18.3027 22.6704 18.3058 22.6101L18.6676 22.3054Z" fill="#391A42"/>
<path d="M26.624 23.6543C26.5637 23.4226 26.094 23.4924 26.2273 23.1179C26.3797 23.283 26.6526 23.3591 26.624 23.6543Z" fill="#3B1D48"/>
<path d="M27.6304 22.8259C27.7654 22.842 27.891 22.903 27.9872 22.9992C28.0833 23.0953 28.1443 23.2209 28.1604 23.3559C27.9491 23.2177 27.7686 23.0373 27.6304 22.8259Z" fill="#371C46"/>
<path d="M31.4802 28.8911L31.5183 28.9292C31.4009 29.0466 31.3755 29.3196 31.1025 29.1799C31.2231 29.0847 31.3501 28.9895 31.4802 28.8911Z" fill="#381A41"/>
<path d="M27.2717 31.4046C27.236 31.428 27.1976 31.4472 27.1575 31.4617L27.1035 31.4078C27.2209 31.2904 27.2939 31.1158 27.4875 31.1571C27.4241 31.2269 27.3479 31.3157 27.2717 31.4046Z" fill="#341940"/>
<path d="M22.5811 34.1023C22.7017 34.0325 22.8 33.6421 22.9555 34.0769C22.8349 34.115 22.7112 34.169 22.5811 34.1023Z" fill="#3E294B"/>
<path d="M31.8035 32.6995C32.4181 31.8999 33.2924 31.3398 34.2758 31.1159C34.4218 30.9699 34.5741 31.0016 34.736 31.0683L35.2692 31.1127C35.6437 30.935 35.869 31.2365 36.1419 31.3824C36.2582 31.5135 36.4143 31.6027 36.5863 31.6364C36.9516 31.8368 37.2522 32.1374 37.4527 32.5028C38.1858 33.8707 38.1922 35.1846 37.2146 36.435C36.6145 37.1582 35.8225 37.6972 34.9296 37.9901C34.6884 38.0282 34.4377 38.1329 34.2091 37.9743C34.1425 37.9076 33.9711 37.9711 34.0156 37.7807C34.345 37.4327 34.6228 37.0394 34.8407 36.6127C34.8925 36.4499 34.91 36.2781 34.8919 36.1082C34.8739 35.9383 34.8208 35.774 34.736 35.6257C34.2758 35.1655 33.8124 34.7022 33.1015 34.6704C32.5837 34.8404 32.1159 35.1359 31.74 35.5305C31.7039 35.5478 31.6747 35.5769 31.6575 35.613C31.5972 35.7685 31.5242 35.8796 31.3528 35.7209L31.1592 35.1782C31.0669 35.0078 31.0207 34.8163 31.0252 34.6226C31.0296 34.4289 31.0846 34.2397 31.1846 34.0738L31.4067 33.3565C31.4173 33.2237 31.4586 33.0952 31.5275 32.9812C31.5963 32.8671 31.6908 32.7707 31.8035 32.6995Z" fill="#E1D6EB"/>
<path d="M33.0923 34.6798C33.8825 34.5751 34.3427 35.0416 34.7267 35.6351C34.184 35.3082 33.727 34.8321 33.0923 34.6798Z" fill="#3D1F48"/>
<path d="M31.7466 35.5432C31.8712 35.2875 32.0646 35.0715 32.3051 34.9196C32.5456 34.7677 32.8237 34.6858 33.1081 34.6831C32.6786 35.0066 32.2232 35.2942 31.7466 35.5432Z" fill="#411F49"/>
<path d="M31.1786 34.0801L31.1532 35.1845C31.0813 35.111 31.0247 35.0237 30.9869 34.928C30.9492 34.8322 30.9309 34.7299 30.9333 34.627C30.9357 34.524 30.9586 34.4227 31.0007 34.3287C31.0428 34.2348 31.1033 34.1503 31.1786 34.0801Z" fill="#41204D"/>
<path d="M34.8315 36.6223C34.7941 36.8677 34.7001 37.101 34.5569 37.3037C34.4136 37.5065 34.2252 37.673 34.0063 37.7903C34.2318 37.3682 34.509 36.9758 34.8315 36.6223Z" fill="#351B43"/>
<path d="M36.1423 31.3821L35.2695 31.1124C35.7456 30.6046 35.9138 31.0902 36.1423 31.3821Z" fill="#452351"/>
<path d="M37.4563 32.4995L36.5898 31.6331C37.0881 31.687 37.2341 32.1567 37.5483 32.4328C37.539 32.4485 37.5259 32.4616 37.5102 32.4709C37.4939 32.4833 37.4757 32.493 37.4563 32.4995Z" fill="#321A40"/>
<path d="M34.2124 37.9711C34.4536 37.9457 34.6948 37.8759 34.9328 37.987C34.6916 38.0949 34.4441 38.3678 34.2124 37.9711Z" fill="#3F1E4A"/>
<path d="M31.8036 32.6995C31.6671 32.9184 31.5338 33.1406 31.4037 33.3596C31.337 33.02 31.41 32.7629 31.8036 32.6995Z" fill="#361A43"/>
<path d="M31.3499 35.7239C31.48 35.7651 31.5657 35.6858 31.6545 35.616L31.5054 36.0635C31.4398 36.0389 31.3867 35.9894 31.3575 35.9258C31.3284 35.8621 31.3256 35.7895 31.3499 35.7239Z" fill="#BE8FBF"/>
<path d="M34.7361 31.068L34.2759 31.1156C34.4282 30.8617 34.5488 30.8363 34.7361 31.068Z" fill="#3C2249"/>
<path d="M20.0103 25.1586C20.4436 24.809 20.9488 24.5594 21.4898 24.4278C22.0307 24.2961 22.5941 24.2856 23.1396 24.397C23.539 24.4638 23.9158 24.6279 24.2368 24.8747C24.5578 25.1216 24.8132 25.4436 24.9804 25.8124C25.3135 26.308 25.5045 26.8853 25.5326 27.4818C25.7071 27.7579 25.5675 28.0055 25.4532 28.253L25.1232 29.1417C24.8189 29.874 24.2369 30.456 23.5046 30.7603C23.2792 30.719 23.1237 31.0649 22.873 30.8713C22.8952 30.7158 22.8667 30.5476 23.0095 30.4302C22.8444 29.8272 22.8191 29.1671 22.289 28.7196L22.1272 28.6783C21.8405 28.582 21.5362 28.5497 21.2358 28.5837C20.9353 28.6177 20.6459 28.7172 20.388 28.8751C20.0294 29.0814 20.077 29.5606 19.7659 29.8018C19.6993 30.1287 19.5787 30.2493 19.3375 29.9129C19.0193 29.4949 18.8025 29.0088 18.7039 28.4928C18.6053 27.9768 18.6278 27.445 18.7694 26.9391C18.8216 26.5656 18.9612 26.2098 19.1768 25.9004C19.3924 25.591 19.678 25.3369 20.0103 25.1586Z" fill="#E1D6EB"/>
<path d="M22.2954 28.7004C22.5863 28.8673 22.8144 29.125 22.9445 29.4341C23.0747 29.7431 23.0998 30.0864 23.0158 30.4111C22.8476 30.3063 22.5937 30.2937 22.6667 29.9795C22.781 29.4907 22.4668 29.113 22.2954 28.7004Z" fill="#492553"/>
<path d="M24.9772 25.8092C24.5294 25.1539 23.8847 24.6582 23.1365 24.3937C23.1301 24.2223 23.2507 24.2286 23.3459 24.2667C24.0094 24.5482 24.5865 25.0005 25.0185 25.5775C25.0534 25.6251 24.9963 25.733 24.9772 25.8092Z" fill="#41224B"/>
<path d="M20.0099 25.1585C19.4611 25.6471 19.0387 26.2612 18.7786 26.9484C18.5881 26.6691 18.7151 26.4787 18.8769 26.2153C19.1804 25.7854 19.5271 25.3876 19.9116 25.0283C19.9465 24.9934 19.9909 24.8982 20.048 24.9871C20.1052 25.0759 20.029 25.1013 20.0099 25.1585Z" fill="#4D2854"/>
<path d="M23.5078 30.7636C24.1583 30.3478 24.7106 29.7955 25.1264 29.145C25.3486 29.2847 25.1232 29.4148 25.082 29.4751C24.7068 30.0594 24.1862 30.5362 23.5713 30.8588C23.5541 30.8516 23.5405 30.8379 23.5332 30.8207C23.5078 30.808 23.511 30.7858 23.5078 30.7636Z" fill="#3E1E47"/>
<path d="M20.4006 28.7798C20.6383 28.5766 20.9351 28.4552 21.2471 28.4335C21.5591 28.4117 21.8698 28.4909 22.1334 28.6592C21.5939 28.7544 21.0068 28.5799 20.4863 28.8655C20.4133 28.8814 20.3879 28.8496 20.4006 28.7798Z" fill="#42214D"/>
<path d="M20.4004 28.7798L20.4861 28.8655C20.3922 28.9303 20.3145 29.0158 20.259 29.1154C20.2034 29.215 20.1714 29.326 20.1655 29.4399C20.1846 29.7192 20.0132 29.789 19.772 29.7827C19.7966 29.5796 19.8656 29.3844 19.9742 29.2111C20.0828 29.0377 20.2283 28.8905 20.4004 28.7798Z" fill="#42214B"/>
<path d="M25.4531 28.2532L25.5356 27.4788C25.9736 27.7898 25.6816 28.0183 25.4531 28.2532Z" fill="#49274F"/>
<path d="M23.0127 30.4333C23.0207 30.5919 22.9723 30.7481 22.8763 30.8745C22.8128 30.6904 22.6192 30.4714 23.0127 30.4333Z" fill="#492553"/>
<path d="M188.158 127.015C188.728 125.015 189.298 123.095 189.838 121.135C189.904 120.879 190.059 120.655 190.275 120.503C190.491 120.35 190.755 120.281 191.018 120.305C192.688 120.195 194.358 120.035 196.018 119.925L212.368 118.855C212.894 118.811 213.422 118.811 213.948 118.855C214.528 118.935 214.948 119.275 214.708 119.935C214.666 120.032 214.645 120.136 214.646 120.242C214.648 120.347 214.672 120.451 214.718 120.546C214.764 120.641 214.829 120.725 214.91 120.792C214.992 120.859 215.086 120.908 215.188 120.935C215.708 121.175 215.958 120.725 216.188 120.375C217.258 118.835 218.338 117.315 219.368 115.755C219.527 115.435 219.807 115.189 220.146 115.073C220.485 114.957 220.856 114.98 221.178 115.135C224.638 116.205 228.118 117.205 231.588 118.245C232.948 118.655 233.108 119.105 232.308 120.245C231.398 121.595 230.518 122.965 229.518 124.245C228.788 125.165 229.218 125.605 229.958 126.155C233.958 129.095 237.828 132.105 241.818 134.995C242.312 135.226 242.695 135.642 242.882 136.154C243.069 136.666 243.046 137.231 242.818 137.725C241.958 140.255 241.228 142.835 240.508 145.405C240.444 145.847 240.213 146.246 239.864 146.523C239.514 146.8 239.072 146.933 238.628 146.895C231.628 147.285 224.628 147.795 217.698 148.255C217.172 148.286 216.644 148.286 216.118 148.255C215.638 148.255 215.308 147.805 215.468 147.505C215.848 146.785 215.308 146.575 214.938 146.385C214.358 146.095 214.118 146.625 213.838 147.015C213.558 147.405 213.418 147.515 213.208 147.775C212.932 147.222 212.842 146.593 212.952 145.984C213.062 145.375 213.366 144.818 213.818 144.395C214.175 143.998 214.509 143.581 214.818 143.145C213.328 142.635 213.128 142.695 212.558 144.005C212.465 144.332 212.306 144.637 212.091 144.9C211.876 145.163 211.61 145.379 211.308 145.535C210.818 146.095 210.308 146.315 209.928 145.485C209.738 144.705 210.488 144.225 210.518 143.485C210.768 142.965 211.328 142.675 211.518 142.115C211.797 141.694 212.031 141.245 212.218 140.775C212.298 140.674 212.396 140.589 212.508 140.525C214.818 138.885 216.438 136.825 216.628 133.875C216.77 133.27 217.066 132.712 217.488 132.255C219.675 129.162 221.822 126.049 223.928 122.915C224.178 122.535 224.928 122.055 224.268 121.615C223.975 121.324 223.584 121.153 223.171 121.136C222.758 121.12 222.354 121.258 222.038 121.525C221.766 121.798 221.525 122.1 221.318 122.425C218.828 126.165 216.128 129.765 213.648 133.515C213.512 133.796 213.321 134.047 213.086 134.251C212.85 134.456 212.575 134.61 212.278 134.705C211.598 134.865 211.088 134.485 210.488 134.105C210.776 134.442 210.956 134.857 211.006 135.298C211.056 135.738 210.973 136.183 210.768 136.575C210.605 136.817 210.367 136.998 210.09 137.092C209.814 137.186 209.515 137.187 209.238 137.095C208.318 136.945 208.718 135.985 208.238 135.345C208.224 135.798 208.092 136.239 207.855 136.625C207.619 137.011 207.285 137.328 206.888 137.545L206.498 137.685C206.578 137.815 206.788 137.735 206.868 137.895C206.468 138.695 204.868 139.215 204.308 138.715C204.222 138.632 204.16 138.526 204.13 138.41C204.1 138.293 204.103 138.17 204.138 138.055C204.237 137.784 204.39 137.536 204.588 137.325C206.428 134.895 205.818 133.045 202.928 131.785C201.748 131.082 200.485 130.528 199.168 130.135C198.309 129.992 197.535 129.532 196.998 128.845C196.488 128.185 196.588 127.685 197.418 127.455C198.44 127.189 199.493 127.061 200.548 127.075C202.318 127.171 204.092 127.1 205.848 126.865C206.368 126.755 206.848 126.695 207.148 126.115C207.267 125.934 207.342 125.728 207.366 125.512C207.391 125.297 207.364 125.079 207.288 124.875C207.058 124.475 206.598 124.675 206.288 124.695C203.429 124.957 200.559 125.074 197.688 125.045C197.168 125.045 196.688 125.045 196.118 125.045C193.608 125.045 192.898 125.485 192.698 128.045C192.548 129.955 190.758 130.275 189.958 131.495C189.798 131.735 189.558 131.495 189.418 131.255C189.25 131.075 189.132 130.852 189.078 130.611C189.025 130.37 189.036 130.119 189.111 129.884C189.187 129.648 189.323 129.437 189.507 129.272C189.691 129.108 189.916 128.995 190.158 128.945C191.158 128.675 190.988 127.825 191.078 127.225C191.1 126.5 191.016 125.776 190.828 125.075C190.018 125.575 190.398 126.275 190.248 126.815C190.138 127.205 190.248 127.745 189.748 127.905C189.248 128.065 189.138 127.565 188.898 127.285C188.658 127.005 188.348 127.165 188.158 127.015Z" fill="#E1D6EB"/>
<path d="M211.148 145.426C211.798 144.636 212.148 143.616 212.738 142.856C212.897 142.695 213.085 142.568 213.293 142.481C213.5 142.394 213.723 142.35 213.948 142.35C214.174 142.35 214.396 142.394 214.604 142.481C214.812 142.568 215 142.695 215.158 142.856C215.738 143.476 214.638 143.916 214.308 144.456C213.688 145.456 212.788 146.456 213.188 147.806C212.478 148.606 212.448 150.036 211.018 150.186C211.018 150.186 210.938 150.346 210.918 150.426C210.488 152.066 210.048 152.426 208.588 151.846C207.478 151.416 206.088 151.646 205.188 150.496C204.513 150.325 203.824 150.218 203.128 150.176C201.448 149.926 199.948 149.116 198.298 148.816C197.438 148.666 196.968 148.096 197.628 147.276C198.768 145.856 199.508 144.146 200.778 142.826C200.848 142.866 200.901 142.93 200.928 143.006C201.008 142.926 200.928 142.926 200.858 142.906C200.788 142.886 200.938 142.906 200.768 142.846C201.658 141.356 200.238 140.846 199.488 140.296C197.818 139.016 195.998 137.926 194.428 136.506C194.588 136.306 194.428 136.506 194.428 136.506C193.53 135.749 192.563 135.08 191.538 134.506C191.468 134.376 191.458 134.196 191.248 134.226C190.028 133.336 188.818 132.416 187.568 131.556C187.411 131.447 187.28 131.305 187.183 131.14C187.086 130.976 187.026 130.792 187.007 130.602C186.988 130.412 187.01 130.22 187.073 130.039C187.135 129.858 187.236 129.693 187.368 129.556C187.718 129.136 187.578 128.746 187.768 128.376C188.238 128.106 187.988 127.676 188.008 127.296L188.138 127.006C189.068 126.326 189.198 127.186 189.648 127.736C189.648 127.066 189.768 126.396 189.778 125.736C189.778 125.376 189.538 124.936 190.088 124.796C190.288 124.713 190.504 124.677 190.719 124.693C190.935 124.709 191.143 124.775 191.328 124.886C191.678 125.176 191.218 125.526 191.258 125.766C191.533 126.704 191.483 127.708 191.118 128.616C190.988 128.866 191.208 129.226 190.678 129.356C189.198 129.716 189.208 129.756 189.578 131.286C189.788 131.396 189.768 131.216 189.808 131.106C189.848 130.996 189.808 130.856 189.868 130.836C192.288 129.996 192.098 127.566 192.868 125.766C193.208 125.016 193.528 124.636 194.398 124.716C195.268 124.796 196.318 124.716 197.278 124.716C197.008 125.716 196.188 125.306 195.608 125.326C194.728 125.326 193.938 125.436 193.748 126.486C193.558 127.536 192.748 128.656 194.058 129.736C196.928 132.046 199.958 134.136 202.908 136.326C203.238 136.566 203.788 137.226 204.028 136.476C204.268 135.726 205.338 135.156 204.268 134.356C202.878 133.356 201.448 132.356 200.068 131.356C199.598 131.016 198.888 130.766 199.218 129.926C200.342 130.048 201.407 130.489 202.288 131.196C202.488 131.396 202.668 131.636 202.998 131.626C204.238 131.626 204.778 132.416 205.288 133.386C206.498 135.676 206.508 135.706 204.778 137.646C204.568 137.876 204.198 138.026 204.218 138.426C205.828 138.696 205.998 138.666 206.458 137.976C206.378 137.916 206.348 137.856 206.378 137.786C206.408 137.716 206.428 137.696 206.458 137.696C206.998 136.886 207.968 136.276 207.648 135.066C207.648 134.946 207.788 134.706 207.928 134.636C208.068 134.566 208.358 134.696 208.498 134.906C208.705 135.282 208.802 135.708 208.778 136.136C208.778 136.456 208.598 137.016 209.278 136.866C209.738 136.766 210.418 137.026 210.478 136.206C210.538 135.386 210.668 134.286 208.968 134.456C210.318 133.256 211.228 134.756 212.258 134.536C212.558 134.996 212.258 135.376 212.048 135.716C210.918 137.316 209.828 138.936 208.658 140.516C208.408 140.856 208.178 141.426 207.538 141.076C207.401 140.911 207.319 140.707 207.307 140.492C207.294 140.278 207.351 140.065 207.468 139.886C207.865 139.468 208.081 138.911 208.068 138.336C207.798 138.776 208.068 139.336 207.638 139.676C207.148 140.236 206.168 139.606 205.778 140.556C206.116 140.493 206.464 140.516 206.791 140.623C207.118 140.73 207.412 140.916 207.648 141.166C207.908 141.516 207.648 141.786 207.498 142.066C206.788 143.146 205.738 143.986 205.268 145.356C205.458 145.746 206.018 145.646 206.418 145.846C207.328 146.296 208.138 146.396 208.588 145.176C208.859 144.662 209.25 144.223 209.728 143.896C209.958 143.736 210.188 143.586 210.488 143.736C210.908 144.516 209.948 144.836 209.918 145.456C210.278 145.626 209.668 146.276 210.308 146.286C210.948 146.296 210.878 145.706 211.148 145.426Z" fill="#E3D5EA"/>
<path d="M188.028 127.306C189.098 127.926 188.358 128.136 187.788 128.386C187.758 128.006 187.618 127.596 188.028 127.306Z" fill="#514062"/>
<path d="M191.268 134.236C191.268 133.976 191.329 133.556 191.679 133.726C192.029 133.896 191.548 134.236 191.558 134.516C191.52 134.52 191.481 134.516 191.445 134.504C191.408 134.492 191.375 134.471 191.347 134.445C191.319 134.418 191.298 134.385 191.284 134.349C191.271 134.313 191.265 134.274 191.268 134.236Z" fill="#857C92"/>
<path d="M210.008 144.016C209.405 144.685 208.894 145.431 208.488 146.236C208.018 147.456 207.168 146.236 206.488 146.346C206.368 146.346 206.208 146.046 206.058 146.036C203.908 145.886 204.488 145.156 205.658 144.256C206.108 143.896 205.658 143.566 205.508 143.256C205.358 142.946 205.328 142.676 205.708 142.596C206.988 142.306 207.118 142.236 207.708 141.146C209.434 139.069 210.983 136.851 212.338 134.516C213.805 132.696 215.171 130.796 216.428 128.826C218.168 126.486 219.778 124.046 221.428 121.656C221.9 121.238 222.499 120.991 223.129 120.955C223.758 120.919 224.381 121.095 224.898 121.456C225.308 121.926 224.848 122.246 224.618 122.566C222.098 126.179 219.578 129.789 217.058 133.396C216.976 133.567 216.915 133.749 216.878 133.936C215.629 136.417 214.073 138.731 212.248 140.826C212.018 141.416 211.508 141.826 211.248 142.406C210.988 142.986 210.328 143.396 210.008 144.016Z" fill="#B78FC1"/>
<path d="M199.289 129.916C199.799 131.116 201.069 131.436 201.949 132.196C202.829 132.956 204.089 133.786 205.139 134.606C205.469 134.856 205.909 135.006 205.059 135.376C204.419 135.656 204.669 136.866 204.059 137.566C201.629 135.776 199.189 134.016 196.769 132.216C195.689 131.416 194.679 130.536 193.569 129.776C193.419 129.709 193.286 129.612 193.176 129.491C193.066 129.37 192.982 129.227 192.929 129.073C192.877 128.918 192.857 128.754 192.87 128.591C192.884 128.428 192.931 128.27 193.009 128.126C193.107 127.854 193.19 127.577 193.259 127.296C193.839 125.066 193.839 125.066 196.129 124.996C196.549 124.996 196.999 125.076 197.359 124.736C200.554 124.776 203.748 124.595 206.919 124.196C207.689 124.096 208.089 124.256 207.919 125.196C207.489 127.266 207.229 127.486 204.389 127.576C201.919 127.666 199.389 127.426 196.889 128.006C197.088 128.505 197.414 128.944 197.835 129.279C198.256 129.614 198.757 129.834 199.289 129.916Z" fill="#B890C1"/>
<path d="M225.938 129.496C229.468 132.136 232.808 134.686 236.218 137.136C236.43 137.239 236.618 137.385 236.771 137.563C236.925 137.741 237.042 137.948 237.113 138.172C237.185 138.396 237.211 138.632 237.19 138.867C237.168 139.101 237.1 139.328 236.988 139.536C236.538 140.536 236.908 141.996 234.988 142.136C230.938 142.436 226.888 142.696 222.838 142.956C222.118 142.956 222.048 142.806 222.168 142.176C222.638 139.786 222.628 139.796 225.168 139.736C227.708 139.676 230.168 139.556 232.628 139.446C232.978 139.446 233.458 139.586 233.568 139.056C233.678 138.526 233.208 138.526 232.958 138.346C230.818 136.826 228.688 135.296 226.508 133.846C225.378 133.096 224.788 132.306 225.508 130.956C225.69 130.481 225.834 129.993 225.938 129.496Z" fill="#B78FC1"/>
<path d="M212.269 140.836C212.545 139.93 213.04 139.106 213.709 138.436L216.899 133.946C216.899 135.016 217.129 136.166 215.979 136.896C215.759 137.026 215.769 137.306 215.839 137.546C215.918 137.718 215.963 137.905 215.969 138.096C215.899 138.546 212.839 140.786 212.269 140.836Z" fill="#E3D5EA"/>
<path d="M211.149 145.426C211.149 145.606 211.149 145.796 211.149 145.986C211.149 146.606 210.709 146.626 210.289 146.696C210.029 146.746 209.779 146.876 209.549 146.536C209.129 145.906 210.049 145.886 209.999 145.446C210.389 146.046 210.769 145.796 211.149 145.426Z" fill="#A398B4"/>
<path d="M210.008 144.015C210.144 143.311 210.554 142.688 211.148 142.285C211.185 142.245 211.23 142.212 211.28 142.19C211.33 142.168 211.384 142.156 211.438 142.156C211.493 142.156 211.547 142.168 211.597 142.19C211.647 142.212 211.692 142.245 211.728 142.285C211.728 143.085 210.968 143.285 210.558 143.735L210.008 144.015Z" fill="#D3C2DF"/>
<path d="M211.728 142.276H211.148C211.217 141.965 211.353 141.673 211.549 141.423C211.744 141.172 211.994 140.968 212.278 140.826C212.343 141.095 212.324 141.377 212.226 141.635C212.128 141.894 211.955 142.117 211.728 142.276Z" fill="#E3D5EA"/>
<path d="M206.488 137.686V137.966L205.838 138.136C205.846 138.01 205.87 137.886 205.908 137.766C206.088 137.426 206.318 137.616 206.488 137.686Z" fill="#C2B9D6"/>
<path d="M207.688 139.696C207.688 140.186 207.688 140.696 207.688 141.156C207.247 141.005 206.785 140.924 206.318 140.916C205.758 140.996 205.398 140.916 205.188 140.386C205.778 140.386 205.828 139.566 206.408 139.586C206.828 139.586 207.248 139.666 207.668 139.706L207.688 139.696Z" fill="#E1D6EB"/>
<path d="M207.679 139.696C207.679 139.176 207.679 138.696 207.679 138.136C207.679 137.866 207.679 137.496 208.069 137.546C208.459 137.596 208.819 137.956 208.679 138.186C208.369 138.696 208.579 139.596 207.679 139.696Z" fill="#E1D6EB"/>
<path d="M193.038 132.736C193.548 132.056 193.958 132.736 194.038 132.976C194.158 133.436 193.648 133.296 193.368 133.316C193.088 133.336 193.158 132.916 193.038 132.736Z" fill="#5E4B72"/>
<path d="M204.738 147.406C204.478 146.966 204.358 146.626 204.738 146.356C204.796 146.327 204.859 146.313 204.923 146.313C204.987 146.313 205.051 146.327 205.108 146.356C205.183 146.546 205.187 146.757 205.119 146.95C205.051 147.143 204.916 147.304 204.738 147.406Z" fill="#8C759C"/>
<path d="M193.039 132.736L193.359 133.316C192.959 133.416 193.359 133.976 192.869 134.046C192.778 133.956 192.709 133.846 192.667 133.725C192.626 133.604 192.613 133.475 192.629 133.348C192.645 133.222 192.691 133.1 192.762 132.994C192.833 132.888 192.928 132.799 193.039 132.736Z" fill="#C1AED5"/>
<path d="M209.418 148.676C209.463 148.672 209.509 148.679 209.551 148.695C209.593 148.711 209.631 148.737 209.662 148.769C209.694 148.801 209.718 148.84 209.733 148.883C209.747 148.925 209.753 148.971 209.748 149.016C209.748 149.496 209.338 149.206 209.148 149.336C208.958 149.466 208.838 149.386 208.898 149.216C208.958 149.046 209.078 148.686 209.418 148.676Z" fill="#745F85"/>
<path d="M200.769 142.876C201.029 142.876 201.429 142.686 201.519 142.786C201.829 143.186 200.899 143.196 201.169 143.656L200.779 142.856L200.769 142.876Z" fill="#020200"/>
<path d="M188.298 130.796C188.298 131.126 188.048 131.066 187.888 131.046C187.728 131.026 187.508 131.046 187.538 130.746C187.538 130.7 187.549 130.656 187.57 130.616C187.591 130.576 187.622 130.542 187.66 130.517C187.698 130.492 187.741 130.477 187.787 130.473C187.832 130.469 187.877 130.477 187.918 130.496C188.059 130.576 188.187 130.677 188.298 130.796Z" fill="#483757"/>
<path d="M191.988 130.576C192.538 130.396 192.798 130.576 192.988 130.906C192.488 131.246 192.298 130.846 191.988 130.576Z" fill="#312243"/>
<path d="M194.488 136.556C194.488 136.206 194.348 135.846 194.718 135.496C194.968 135.986 194.918 136.316 194.468 136.496L194.488 136.556Z" fill="#4C3C5E"/>
<path d="M200.489 135.736C200.589 136.036 200.559 136.206 200.299 136.196C200.184 136.165 200.075 136.114 199.979 136.046L200.309 135.496L200.489 135.736Z" fill="#A494B8"/>
<path d="M208.428 149.016C208.678 149.496 208.318 149.716 208.078 150.176C207.908 149.596 207.838 149.236 208.428 149.016Z" fill="#3D294E"/>
<path d="M206.059 149.726C206.059 149.726 206.149 149.926 206.209 150.096C206.269 150.266 206.209 150.376 206.019 150.326C205.855 150.268 205.713 150.164 205.609 150.026C205.489 149.866 205.679 149.816 206.059 149.726Z" fill="#564667"/>
<path d="M258.45 22.5292C257.964 24.0205 258.674 25.2722 260.166 26.6011C261.376 27.7666 262.179 29.2902 262.458 30.9472C262.736 32.6041 262.474 34.3067 261.711 35.8035C260.498 38.4151 259.208 40.9958 257.848 43.5301C256.844 45.3693 255.187 46.7652 253.205 47.4419C251.222 48.1186 249.057 48.0269 247.139 47.1848C246.922 47.0632 246.669 47.0229 246.426 47.071C246.182 47.1192 245.964 47.2527 245.81 47.4475C243.781 49.3021 241.342 50.6491 238.692 51.3779C236.042 52.1067 233.257 52.1965 230.565 51.64C227.874 51.0834 225.352 49.8964 223.209 48.1763C221.065 46.4563 219.36 44.2522 218.233 41.7452C218.04 41.2712 217.695 40.8745 217.252 40.6172C215.605 39.6756 214.162 38.4173 213.004 36.9148C211.846 35.4122 210.997 33.6952 210.507 31.8629C210.385 31.378 210.115 30.9431 209.734 30.619C204.828 26.3384 202.927 20.9607 204.588 14.6636C206.25 8.36639 210.461 4.75807 216.688 3.41365C218.938 2.89382 221.288 3.01427 223.472 3.76134C224.809 4.23267 225.921 3.50637 227.104 3.2823C230.54 2.61636 234.1 3.13667 237.202 4.75808C237.75 5.0475 238.373 5.16083 238.987 5.08259C243.023 4.52906 247.124 5.43544 250.551 7.63835C253.978 9.84127 256.505 13.1958 257.678 17.0974C257.94 17.8701 258.064 18.7432 258.249 19.5699C258.431 20.5453 258.498 21.5384 258.45 22.5292Z" fill="#FCFCF7"/>
<path d="M254.239 33.6014C254.935 32.906 255.785 32.5429 256.557 33.2228C257.33 33.9028 257.26 34.7681 256.75 35.6412C255.383 37.8974 254.038 40.1767 252.617 42.4097C251.844 43.6151 250.87 43.6692 249.766 42.7188C248.993 41.9461 249.433 41.1735 249.843 40.4008C250.739 38.7164 250.739 38.7164 249.147 37.7274C248.688 37.488 248.291 37.144 247.988 36.723C247.448 36.2872 246.843 35.938 246.196 35.6876V38.2683C246.157 38.3047 246.106 38.3249 246.053 38.3249C246 38.3249 245.949 38.3047 245.91 38.2683C245.508 37.5883 245.786 36.8234 245.624 35.9503C245.497 37.6042 245.034 39.2148 244.262 40.683C243.49 42.1512 242.426 43.4461 241.135 44.4882C240.911 44.6118 240.695 44.7509 240.486 44.8822C240.267 45.0084 240.04 45.1194 239.806 45.2145L239.536 45.3304C238.521 45.8904 237.434 46.3089 236.306 46.5744C235.819 46.6415 235.329 46.6776 234.838 46.6825C233.591 46.7472 232.342 46.6485 231.121 46.3889C230.852 46.3337 230.592 46.24 230.349 46.1108C230.101 45.9931 229.842 45.9 229.576 45.8326C228.159 45.195 226.882 44.2819 225.821 43.1465C224.76 42.011 223.935 40.6758 223.395 39.2186C223.119 38.3767 222.928 37.5097 222.823 36.6302C222.829 36.375 222.754 36.1245 222.61 35.9138C222.466 35.7032 222.259 35.543 222.019 35.4558C219.701 34.799 218.295 33.1378 217.159 31.1984C217.088 31.057 217.028 30.9097 216.982 30.758C216.462 29.4213 216.251 27.9845 216.364 26.5548C216.364 25.8439 216.139 25.5194 215.429 25.5735C215.287 25.583 215.145 25.5508 215.022 25.4807C214.898 25.4107 214.798 25.3059 214.733 25.1794C214.679 24.9835 214.588 24.8001 214.463 24.6397C214.339 24.4792 214.183 24.345 214.007 24.2445C211.156 22.0888 209.966 17.476 211.21 14.0763C211.658 12.705 212.42 11.4572 213.435 10.4322C214.45 9.40716 215.691 8.63316 217.058 8.17177C218.425 7.71038 219.88 7.57433 221.309 7.77444C222.738 7.97455 224.1 8.5053 225.288 9.32447C225.534 9.51409 225.83 9.62815 226.14 9.65284C226.45 9.67752 226.761 9.61177 227.034 9.46355C231.284 7.56281 234.9 8.21957 238.214 11.4416C238.446 11.6656 238.616 11.9901 238.987 11.967C239.252 11.9394 239.511 11.8771 239.76 11.7815C239.866 11.7435 239.974 11.7125 240.084 11.6888C248.089 9.95806 254.656 16.0312 253.992 23.7268C253.868 25.1733 253.458 26.5808 252.786 27.8674C252.113 29.1541 251.192 30.2942 250.075 31.2216C249.686 31.5679 249.267 31.8783 248.823 32.1488C248.182 32.5274 248.236 32.821 248.885 33.1069C249.13 33.1887 249.371 33.2868 249.603 33.4005C249.603 33.9646 250.314 33.9568 250.376 34.4513L251.033 34.6831C252.787 35.4558 252.787 35.4558 253.884 33.9105C253.985 33.7887 254.105 33.6843 254.239 33.6014Z" fill="#E2D5EA"/>
<path d="M239.095 12.2762C238.732 12.6394 238.539 12.3612 238.322 12.0831C237.534 11.1221 236.558 10.3313 235.454 9.75889C234.35 9.18644 233.142 8.84419 231.902 8.7529C230.153 8.62069 228.405 9.02789 226.895 9.91962C226.658 10.071 226.378 10.1394 226.098 10.1142C225.819 10.0891 225.555 9.97169 225.35 9.78054C224.121 8.87325 222.681 8.29466 221.166 8.09959C219.651 7.90452 218.112 8.09943 216.694 8.66584C215.275 9.23226 214.025 10.1514 213.061 11.3363C212.098 12.5211 211.452 13.9324 211.187 15.4364C210.794 17.0773 210.904 18.7982 211.502 20.3758C212.1 21.9534 213.159 23.3149 214.54 24.2833C214.834 24.4997 215.374 24.6697 214.865 25.1951C212.423 25.6278 210.661 24.3297 208.961 22.8771C208.637 22.5989 208.645 22.1044 208.428 21.8031C207.656 20.1728 207.068 18.5039 207.377 16.6727C207.53 15.4719 207.977 14.3275 208.679 13.3419C209.382 12.3563 210.318 11.5601 211.403 11.0245C212.251 10.5714 212.928 9.85567 213.335 8.9847C214.401 7.50119 216 6.82898 217.623 6.20313C219.887 5.33002 224.43 6.3422 225.782 8.01115C225.985 8.14571 226.223 8.21748 226.466 8.21748C226.709 8.21748 226.947 8.14571 227.15 8.01115L227.567 7.81798C227.676 7.62383 227.836 7.46344 228.031 7.35439C229.303 6.82927 230.673 6.58306 232.049 6.63238C233.424 6.68169 234.773 7.02538 236.004 7.64027C236.158 7.74352 236.294 7.87144 236.406 8.01888L238.176 9.34785C238.701 9.63373 239.242 9.91189 239.265 10.6227C239.002 11.1404 239.211 11.7122 239.095 12.2762Z" fill="#B78FC1"/>
<path d="M239.095 12.2761C238.748 11.7352 238.57 11.2021 239.095 10.6689C240.061 11.3257 241.027 11.0166 242.055 10.7617C244.132 10.2701 246.304 10.3421 248.344 10.9703C248.546 11.0576 248.726 11.1897 248.87 11.3566C249.086 11.6502 249.41 11.5807 249.704 11.6116C251.773 12.3337 253.52 13.7653 254.634 15.6526L256.179 18.7432C256.937 20.2268 257.233 21.9035 257.029 23.5569C256.897 24.8163 256.921 26.153 255.978 27.1961C255.959 27.2512 255.959 27.311 255.978 27.3661C255.38 29.3043 254.123 30.9719 252.424 32.0793C251.735 32.877 250.8 33.4211 249.766 33.6246C248.893 33.7637 248.344 33.1456 247.579 32.6897C249.125 31.8063 250.493 30.643 251.612 29.2591C252.719 27.7773 253.434 26.0405 253.692 24.2091C253.95 22.3778 253.742 20.511 253.087 18.7813C252.432 17.0516 251.352 15.5149 249.947 14.313C248.541 13.1112 246.855 12.2831 245.045 11.9052C243.366 11.5769 241.635 11.6244 239.976 12.0443C239.909 11.9735 239.818 11.9295 239.721 11.9206C239.721 11.9206 239.721 12.0056 239.775 12.052C239.621 12.2761 239.358 12.2297 239.095 12.2761Z" fill="#B88FC1"/>
<path d="M215.483 25.3647C216.348 25.1793 216.75 25.3647 216.665 26.4233C216.486 27.8858 216.694 29.3698 217.268 30.727C217.206 30.866 217.021 31.0283 217.322 31.1287C217.871 31.4919 218.01 32.1487 218.411 32.6354C219.418 33.8945 220.78 34.8208 222.321 35.2934C222.552 35.3383 222.76 35.4624 222.91 35.6444C223.059 35.8263 223.141 36.0546 223.14 36.2901C223.441 39.1565 224.792 41.8099 226.934 43.7385C227.82 44.4437 228.766 45.0694 229.762 45.6084C229.762 46.2497 229.205 46.381 228.75 46.6128C228.216 46.4815 228.147 46.9451 227.938 47.231C226.197 46.576 224.781 45.2676 223.99 43.584C223.696 42.9118 223.411 42.2473 223.117 41.5828C223.202 41.3323 223.202 41.0606 223.117 40.8102C223.087 40.8545 223.049 40.8919 223.003 40.9199C222.958 40.9479 222.907 40.9658 222.854 40.9724L222.437 40.9106C222.116 40.8245 221.813 40.6833 221.541 40.4934C221.317 40.3388 221.054 40.2693 220.853 40.0993C220.432 39.8593 220.053 39.5512 219.733 39.1876C219.934 38.9944 220.343 39.1026 220.343 38.7935C220.258 38.9867 219.964 39.0408 219.725 39.1798C218.623 38.4597 217.657 37.5492 216.874 36.491C215.887 35.4021 215.212 34.0676 214.919 32.6277C214.459 30.679 214.459 28.6501 214.919 26.7014C214.964 26.2081 215.161 25.741 215.483 25.3647Z" fill="#B88FC1"/>
<path d="M228.68 46.5048L229.762 45.6085C229.884 45.59 230.008 45.5991 230.126 45.6352C230.243 45.6713 230.351 45.7335 230.442 45.8172C230.55 46.1803 230.766 46.2576 231.091 46.0721L235.07 46.4662C235.088 46.4683 235.105 46.4746 235.121 46.4846C235.136 46.4946 235.148 46.508 235.157 46.5238C235.166 46.5396 235.172 46.5573 235.173 46.5755C235.173 46.5937 235.17 46.6118 235.163 46.6284C235.163 46.698 235.224 46.6284 235.263 46.6284C235.688 46.6284 235.928 47.0225 236.337 47.0457C236.337 46.8448 236.113 46.7057 236.183 46.4894C236.785 45.6704 237.906 46.1185 238.601 45.4849C238.903 45.2816 239.234 45.1253 239.582 45.0213C239.729 45.3149 239.582 45.794 240.092 45.9408C240.154 46.0103 240.092 45.879 240.092 45.8712C239.629 45.709 239.644 45.369 239.791 44.9904L240.44 44.7354C241.019 45.0677 240.795 44.4959 240.911 44.3182C242.226 43.3085 243.307 42.026 244.08 40.5588C244.852 39.0917 245.297 37.4746 245.385 35.819C245.385 35.6567 245.315 35.4017 245.578 35.394C245.841 35.3863 246.019 35.6181 246.026 35.9039C246.026 36.6766 246.026 37.5265 246.065 38.3301C246.065 39.4273 246.219 40.5399 245.377 41.4207C245.359 41.4733 245.359 41.5304 245.377 41.583C245.138 42.2011 245.076 42.9197 244.373 43.2519C244.18 43.0897 243.979 42.9351 243.762 42.7729C243.894 43.0356 244.211 43.0356 244.357 43.2442C244.473 43.7851 244.172 44.1096 243.816 44.465C243.175 45.0986 242.727 45.9331 241.838 46.3117C241.653 46.8448 241.066 46.9143 240.726 47.2698C240.679 47.2801 240.631 47.2807 240.585 47.2714C240.538 47.262 240.494 47.2431 240.455 47.2157C240.455 47.177 240.455 47.1152 240.386 47.0843C240.404 47.229 240.374 47.3756 240.301 47.5015C238.111 48.9546 235.455 49.531 232.86 49.1164C232.675 49.1937 232.86 48.6296 232.52 48.931C232.368 48.9998 232.198 49.0205 232.034 48.9901C231.869 48.9597 231.718 48.8798 231.601 48.761C231.531 48.6451 231.601 48.5524 231.647 48.4519C231.58 48.5723 231.477 48.6693 231.353 48.7301C231.176 48.8082 230.978 48.8287 230.788 48.7885C230.598 48.7483 230.426 48.6495 230.295 48.506C229.543 48.3854 228.846 48.0407 228.294 47.517C228.047 46.9993 227.985 46.5744 228.68 46.5048Z" fill="#B890C1"/>
<path d="M215.483 25.365C215.173 26.6858 214.948 28.0253 214.811 29.3751C214.803 31.8933 215.519 34.3608 216.874 36.4835C216.603 36.3986 216.155 36.7308 216.101 36.1745C215.984 35.6329 215.749 35.1238 215.413 34.6832C214.54 33.2693 214.641 31.5926 214.231 30.0473C213.922 28.981 214.733 27.9766 214.664 26.8562C214.563 25.3109 214.664 25.2182 213.173 25.365C211.681 25.5118 210.816 24.5073 209.75 23.8197C208.977 23.3097 208.104 22.9234 208.421 21.7412C209.14 22.7845 210.101 23.6384 211.222 24.2304C212.343 24.8223 213.59 25.1347 214.857 25.1409C215.011 25.4113 215.251 25.3573 215.483 25.365Z" fill="#FCF3F8"/>
<path d="M248.893 11.3332C246.207 10.4183 243.286 10.4785 240.641 11.5032C239.682 11.8972 239.567 11.0087 239.095 10.6687C239.003 10.0815 238.377 9.89606 238.176 9.37066C238.995 9.2084 239.366 9.85743 239.798 10.321C240.1 10.6455 240.393 10.9469 240.811 10.6919C241.939 10.0042 243.129 10.2978 244.349 10.2669C245.695 10.1209 247.056 10.2605 248.344 10.6764C248.761 10.8155 248.908 10.9623 248.893 11.3332Z" fill="#FDF6FA"/>
<path d="M225.767 7.98006C222.143 5.608 218.496 5.38393 214.795 7.81008C214.27 8.15777 213.945 8.74499 213.319 8.95361C213.927 7.81118 214.938 6.93544 216.155 6.49655C217.986 5.7239 219.725 5.81662 221.517 5.80889C222.898 5.91303 224.228 6.3707 225.381 7.13786C225.52 7.22581 225.63 7.35219 225.699 7.50169C225.767 7.65118 225.791 7.81735 225.767 7.98006Z" fill="#FCF3F8"/>
<path d="M248.012 36.7151C248.831 37.2019 249.627 37.7195 250.469 38.16C251.102 38.4922 251.241 38.8322 250.786 39.4271C250.515 39.7671 250.337 40.1998 250.09 40.5475C249.865 40.8564 249.719 41.2164 249.667 41.5952C249.614 41.974 249.656 42.36 249.789 42.7187C248.622 42.8577 248.939 42.0001 248.97 41.2815C248.777 40.3852 249.797 39.7362 249.526 38.7858C248.893 39.5585 249.379 40.5861 248.97 41.2815C248.29 41.2815 248.468 40.7947 248.452 40.4239C248.429 39.1721 248.607 37.8973 248.012 36.7151Z" fill="#FDF9FB"/>
<path d="M231.515 48.5448C231.855 48.8771 232.288 48.7225 232.651 48.7302C234.56 49.3329 236.391 48.8539 238.191 48.2667C238.933 48.0677 239.627 47.7208 240.231 47.2467C240.231 47.1308 240.308 47.0922 240.424 47.1386H240.617C240.634 47.119 240.655 47.1033 240.678 47.0925C240.701 47.0818 240.727 47.0762 240.753 47.0762C240.778 47.0762 240.804 47.0818 240.827 47.0925C240.85 47.1033 240.871 47.119 240.888 47.1386C240.648 48.0503 239.752 48.0889 239.111 48.4444C236.916 49.6652 234.475 49.3406 232.157 49.3561C231.94 49.3163 231.717 49.3163 231.5 49.3561C230.395 49.9124 230.233 49.2866 230.256 48.4057L231.539 48.4675L231.515 48.5448Z" fill="#FDF5F9"/>
<path d="M256.024 27.1498C257.001 24.4276 257.072 21.4625 256.225 18.6969C256.48 18.6969 256.797 18.6583 256.859 18.9905C257.268 21.0999 257.693 23.2015 257.137 25.3495C257.098 25.4886 257.021 25.5968 257.091 25.7513C257.639 26.9567 256.867 27.0803 256.024 27.1498Z" fill="#FDF5F9"/>
<path d="M236.43 8.0187C234.388 6.93558 232.026 6.6151 229.769 7.11469C228.997 7.30012 228.294 7.59373 227.56 7.83326V7.11469C227.836 6.90464 228.155 6.75772 228.494 6.68429C228.833 6.61087 229.184 6.61272 229.522 6.68972C230.588 6.90607 231.438 6.08705 232.489 6.20295C233.409 6.30339 233.409 6.20295 234.946 7.07605C235.121 7.14121 235.313 7.14121 235.487 7.07605C236.237 6.95243 236.414 7.39284 236.43 8.0187Z" fill="#FCF5F8"/>
<path d="M228.425 47.4012C228.873 48.0116 229.785 47.8493 230.225 48.4674C229.252 49.0237 228.68 48.1352 227.992 47.7798C227.13 47.3328 226.317 46.7968 225.566 46.1804C225.148 45.8736 224.795 45.4857 224.529 45.0396C224.264 44.5936 224.091 44.0986 224.021 43.5842C225.203 44.9287 226.339 46.3581 227.969 47.1925C228.139 47.2127 228.299 47.2857 228.425 47.4012Z" fill="#FDF5F9"/>
<path d="M254.657 15.6296C253.253 14.0141 251.586 12.6478 249.727 11.5885C250.407 11.3413 250.871 11.9362 251.466 12.0676C252.274 12.3099 253 12.7707 253.563 13.3992C254.126 14.0277 254.504 14.7996 254.657 15.6296Z" fill="#FCF4F8"/>
<path d="M252.439 32.0328C253.87 30.6632 255.07 29.0717 255.993 27.3196C256.001 29.1662 253.953 31.886 252.439 32.0328Z" fill="#FBF3F9"/>
<path d="M241.769 46.2729C242.595 45.2452 243.747 44.4803 244.241 43.1822C244.766 42.7495 244.836 42.0155 245.3 41.5442C245.353 42.0318 245.292 42.5251 245.122 42.9851C244.951 43.4451 244.676 43.8591 244.318 44.1944C243.662 45.0057 243.175 46.2729 241.769 46.2729Z" fill="#FAEFF6"/>
<path d="M249.781 33.5937L252.439 32.0483L252.694 32.396C251.921 32.3497 252.006 33.5937 251.056 33.4546C250.507 33.3773 250.762 34.2272 250.453 34.5054C250.407 34.0495 249.256 34.459 249.781 33.5937Z" fill="#FBF3F9"/>
<path d="M254.239 33.6016C254.239 33.9261 254 34.127 253.853 34.3742C252.802 36.1514 252.64 36.1745 251.118 34.7142C251.512 34.7142 251.968 34.5829 252.308 34.8224C252.879 35.2319 253.08 34.8224 253.405 34.4824C253.729 34.1424 253.505 33.4393 254.239 33.6016Z" fill="#FBF3F9"/>
<path d="M245.338 41.39C245.637 40.3763 245.866 39.3438 246.026 38.2993H246.219C246.343 39.0102 246.142 39.7056 246.567 40.4705C246.876 40.9959 246.049 41.4131 245.338 41.39Z" fill="#FCF3F8"/>
<path d="M227.505 7.11471C227.363 7.09514 227.222 7.05883 227.088 7.00654C226.88 6.89837 226.578 6.81338 226.686 6.48113C226.72 6.42312 226.765 6.37304 226.82 6.33436C226.875 6.29568 226.937 6.26931 227.003 6.25706C227.389 6.2107 227.498 6.45796 227.498 6.7902C227.498 6.89837 227.498 7.00654 227.498 7.11471H227.505Z" fill="#FCF5F8"/>
<path d="M240.888 47.1771H240.618C240.927 46.796 241.325 46.4962 241.777 46.304C242.093 47.1848 241.414 47.0843 240.888 47.1771Z" fill="#FAEFF6"/>
<path d="M222.87 40.9572L223.434 40.1846L223.588 40.2618C223.441 40.6945 223.295 41.1272 223.14 41.5599C223.032 41.3745 222.939 41.1658 222.87 40.9572Z" fill="#9266A3"/>
<path d="M227.143 8.02637C226.671 8.63677 226.215 8.53632 225.775 8.02637H227.143Z" fill="#FCF3F8"/>
<path d="M221.533 40.4781C221.705 40.4674 221.877 40.4999 222.034 40.5728C222.19 40.6457 222.326 40.7565 222.429 40.8953C221.958 41.1348 221.734 40.8644 221.533 40.4781Z" fill="#F6E8F2"/>
<path d="M220.157 5.45338C219.833 5.53837 219.547 5.63882 219.284 5.45338C219.419 5.38421 219.569 5.34814 219.721 5.34814C219.873 5.34814 220.022 5.38421 220.157 5.45338Z" fill="#FCF3F8"/>
<path d="M220.853 40.0918C220.995 40.0709 221.14 40.0984 221.265 40.1698C221.39 40.2413 221.487 40.3526 221.541 40.4858C221.224 40.509 220.915 40.5167 220.853 40.0918Z" fill="#F6E8F2"/>
<path d="M229.769 41.8146C228.442 40.9547 227.413 39.7052 226.824 38.2375C226.235 36.7698 226.114 35.1557 226.478 33.6166C226.71 32.3958 226.169 32.419 225.342 32.4808C224.304 32.6022 223.255 32.3897 222.347 31.8743C221.438 31.3588 220.717 30.5672 220.289 29.6143C219.957 28.9937 219.777 28.3036 219.762 27.6001C219.747 26.8966 219.899 26.1995 220.204 25.5655C220.436 25.0633 220.698 24.5688 220.977 24.0743C221.255 23.5798 221.116 23.2167 220.428 23.1239C218.873 23.0202 217.388 22.4432 216.171 21.4705C215.153 20.5441 214.491 19.2905 214.302 17.9273C214.112 16.5641 214.406 15.1776 215.132 14.0086C215.859 12.8395 216.972 11.9619 218.278 11.5282C219.584 11.0945 221.001 11.1321 222.282 11.6345C223.505 12.0994 224.528 12.973 225.18 14.107C225.589 14.7638 225.952 14.9647 226.594 14.2615C227.107 13.6284 227.741 13.1031 228.458 12.7159C229.176 12.3287 229.963 12.0872 230.774 12.0054C232.016 11.8594 233.271 12.1202 234.353 12.7485C235.434 13.3768 236.282 14.3388 236.77 15.4901C237.434 16.819 237.45 16.819 238.748 16.0927C241.954 14.2924 245.091 14.3852 247.919 16.7727C248.696 17.4073 249.339 18.1905 249.81 19.0765C250.282 19.9625 250.571 20.9336 250.663 21.9328C250.754 22.9321 250.645 23.9396 250.343 24.8963C250.04 25.8531 249.55 26.7399 248.9 27.5049C248.397 28.1491 247.794 28.7097 247.116 29.1661C245.184 30.4256 243.306 30.611 241.491 28.9498C241.357 28.8221 241.2 28.7223 241.027 28.6562C238.307 27.6981 237.457 25.4342 236.909 22.9076C236.613 21.6492 236.239 20.4106 235.788 19.1988C235.74 18.977 235.644 18.7685 235.506 18.5881C235.368 18.4077 235.193 18.2599 234.991 18.1552C234.79 18.0504 234.568 17.9913 234.341 17.9821C234.114 17.9728 233.888 18.0137 233.679 18.1017C233.285 18.2722 232.973 18.5893 232.809 18.9858C232.644 19.3823 232.641 19.8272 232.798 20.2265C233.154 21.5091 233.525 22.784 233.926 24.1979C233.181 23.9373 232.481 23.5647 231.848 23.093C230.534 22.3204 229.267 21.5091 227.938 20.7751C226.88 20.1878 226.099 20.3733 225.62 21.2C225.141 22.0268 225.427 23.0003 226.493 23.5953C227.471 24.1032 228.393 24.7117 229.244 25.411C228.263 25.7433 227.359 26.0137 226.486 26.3459C226.084 26.433 225.733 26.6761 225.511 27.0217C225.289 27.3673 225.212 27.7871 225.3 28.1887C225.387 28.5904 225.63 28.941 225.975 29.1634C226.321 29.3858 226.741 29.4618 227.142 29.3747C228.419 29.1664 229.661 28.787 230.836 28.2467C232.196 27.7599 233.347 27.6285 234.699 28.5326C236.832 30.0006 239.103 31.2523 241.336 32.5658C241.493 32.661 241.628 32.7878 241.733 32.9381C241.838 33.0885 241.911 33.259 241.947 33.4389C242.324 34.9599 242.24 36.5589 241.704 38.0318C241.169 39.5046 240.206 40.7843 238.94 41.7074C237.673 42.6305 236.161 43.155 234.594 43.214C233.028 43.273 231.48 42.8638 230.148 42.0386C230.092 41.9918 230.042 41.9371 230.001 41.8764C230.001 41.7991 230.001 41.7064 230.001 41.6832C230.001 41.66 229.823 41.745 229.769 41.8146Z" fill="#B68FC1"/>
<path d="M235.078 46.7135C235.078 46.6285 235.078 46.5435 235.078 46.4663C235.449 46.134 235.85 46.4663 236.19 46.4663L236.77 47.0844C235.997 47.6871 235.696 46.7522 235.147 46.7444L235.078 46.7135Z" fill="#A172AE"/>
<path d="M239.752 44.9752C239.713 45.5006 240.022 45.7479 240.525 45.9488C239.458 46.2733 239.512 45.6397 239.574 45.0061C239.599 44.9869 239.628 44.9741 239.659 44.9687C239.69 44.9633 239.722 44.9655 239.752 44.9752Z" fill="#9366A8"/>
<path d="M240.872 44.3027C240.872 44.6813 241.359 44.9981 240.988 45.4617C240.648 45.3381 240.88 44.6891 240.401 44.6891C240.436 44.5872 240.498 44.4972 240.582 44.4289C240.665 44.3607 240.765 44.317 240.872 44.3027Z" fill="#7F4E91"/>
<path d="M239.79 12.021C239.512 11.9669 239.203 11.9592 239.195 11.5188C239.501 11.5926 239.773 11.7667 239.968 12.0133H239.767L239.79 12.021Z" fill="#B78FC1"/>
<path d="M231.091 46.0724C231.057 46.1338 231.011 46.1871 230.955 46.2287C230.899 46.2703 230.834 46.2991 230.765 46.3131C230.697 46.3271 230.626 46.3259 230.558 46.3097C230.49 46.2935 230.427 46.2626 230.372 46.2192C230.156 46.0955 230.302 45.9333 230.442 45.8174L231.091 46.0724Z" fill="#815494"/>
<path d="M229.77 41.8147C229.77 41.606 229.808 41.4052 229.831 41.1965L230.094 41.2583C229.994 41.4515 230.334 41.7374 229.963 41.8842L229.77 41.8147Z" fill="#41235B"/>
<path d="M217.322 31.1288C217.322 31.1984 217.322 31.2988 217.268 31.3297C217.036 31.5229 217.082 31.2602 217.067 31.1752C217.051 31.0902 216.874 30.7271 217.268 30.7271C217.283 30.8584 217.306 30.9898 217.322 31.1288Z" fill="#9366A8"/>
<path d="M221.749 36.0431L221.371 36.9085L220.722 35.7649C221.232 35.3941 221.494 35.7649 221.757 36.0431H221.749Z" fill="#9F6CAC"/>
<path d="M228.425 47.4013C228.333 47.4136 228.239 47.4007 228.153 47.364C228.067 47.3273 227.993 47.2681 227.938 47.1927C227.838 46.5823 227.784 46.0337 228.711 46.5051C228.425 46.7523 228.116 46.9918 228.425 47.4013Z" fill="#8C5D9B"/>
<path d="M227.505 45.3148C226.733 45.4152 226.818 44.9671 226.547 44.4648C226.761 44.5249 226.958 44.6326 227.124 44.7798C227.29 44.927 227.42 45.1099 227.505 45.3148Z" fill="#8D569F"/>
<path d="M224.121 42.2089C223.765 41.8148 223.665 41.4362 224.121 41.0344C224.159 41.4362 224.569 41.7298 224.121 42.2089Z" fill="#9862A5"/>
<path d="M216.789 35.0383C216.977 35.1232 217.128 35.273 217.215 35.4604C217.301 35.6477 217.318 35.86 217.26 36.0582C217.093 35.9509 216.959 35.7979 216.875 35.6172C216.792 35.4364 216.762 35.2356 216.789 35.0383Z" fill="#814B94"/>
<path d="M216.448 32.2416L217.314 32.033C217.414 32.4116 217.213 32.4656 216.981 32.4734C216.75 32.4811 216.618 32.5197 216.448 32.2416Z" fill="#8E529B"/>
<path d="M217.052 34.2195C216.843 33.7481 216.603 33.5395 216.743 33.2382C216.743 33.1841 217.013 33.1686 217.028 33.1918C217.115 33.3484 217.163 33.5238 217.167 33.7028C217.171 33.8818 217.131 34.0591 217.052 34.2195Z" fill="#5C2A71"/>
<path d="M221.757 36.0428C221.811 35.4711 222.151 35.5638 222.529 35.7106C222.414 36.2283 222.004 35.9656 221.757 36.0428Z" fill="#9465A5"/>
<path d="M219.725 39.1722C219.902 38.9095 220.219 38.7549 220.304 38.2759C220.304 38.9713 220.304 38.9713 219.732 39.1799L219.725 39.1722Z" fill="#7D4C95"/>
<path d="M222.46 39.7362C222.537 39.9371 222.46 40.0221 222.344 40.0144C222.259 39.9919 222.184 39.9433 222.128 39.8753C222.18 39.753 222.245 39.6364 222.321 39.5276L222.46 39.7362Z" fill="#9B67A8"/>
<path d="M217.901 33.7559C217.82 33.63 217.747 33.4983 217.685 33.3618C217.671 33.3376 217.664 33.3093 217.667 33.2812C217.67 33.2531 217.682 33.2267 217.701 33.2059C217.72 33.1851 217.745 33.171 217.773 33.1657C217.801 33.1604 217.83 33.1641 217.855 33.1764C217.97 33.2429 218.06 33.3463 218.11 33.47C218.11 33.47 218.009 33.6168 217.901 33.7559Z" fill="#5A2871"/>
<path d="M244.241 43.1826C244.094 43.1826 243.955 43.1826 243.809 43.1826C243.245 43.1826 243.438 42.8118 243.43 42.5104C243.43 42.3404 243.299 42.1086 243.585 42.1086C243.87 42.1086 243.816 42.4718 243.932 42.6495C244.048 42.8272 244.241 42.9431 244.249 43.1904L244.241 43.1826Z" fill="#905A9F"/>
<path d="M233.787 48.3049C234.165 47.8182 234.482 47.8645 234.884 48.3049H233.787Z" fill="#875098"/>
<path d="M239.095 47.2621C238.84 46.7522 239.095 46.5745 239.296 46.3118C239.474 46.6672 239.327 46.899 239.095 47.2621Z" fill="#8C519A"/>
<path d="M242.657 43.4297C242.874 43.4297 243.028 43.4297 243.028 43.6306C243.028 43.8315 242.858 43.816 242.719 43.816C242.58 43.816 242.402 43.8624 242.433 43.6538C242.464 43.4451 242.603 43.476 242.657 43.4297Z" fill="#8E5DA0"/>
<path d="M240.424 47.1382C240.368 47.1873 240.302 47.2242 240.231 47.2463C240.3 46.9373 239.984 46.7827 239.922 46.4737C240.455 46.4582 240.455 46.7905 240.424 47.1382Z" fill="#8D579B"/>
<path d="M235.14 46.7522C235.201 46.9685 235.286 47.1849 235 47.3008C234.973 47.3134 234.942 47.3199 234.912 47.3199C234.881 47.3199 234.851 47.3134 234.823 47.3008C234.809 47.1946 234.825 47.0866 234.87 46.9894C234.916 46.8923 234.987 46.81 235.078 46.7522H235.14Z" fill="#A172AE"/>
<path d="M231.515 48.5372C231.515 48.3286 231.06 48.3286 231.291 48.0427C231.335 48.0176 231.384 48.0044 231.434 48.0044C231.484 48.0044 231.534 48.0176 231.577 48.0427C231.809 48.2359 231.724 48.4213 231.515 48.5758V48.5372Z" fill="#855197"/>
<path d="M232.651 48.73C232.651 48.5291 232.381 48.3591 232.566 48.1505C232.566 48.1118 232.791 48.1505 232.821 48.1505C232.849 48.1964 232.867 48.2477 232.873 48.3009C232.879 48.3541 232.874 48.408 232.858 48.4592C232.842 48.5103 232.815 48.5574 232.78 48.5975C232.744 48.6375 232.7 48.6695 232.651 48.6913V48.73Z" fill="#703B83"/>
<path d="M248.893 41.3899C248.893 40.5786 248.893 39.7673 248.893 38.956C248.893 38.6547 248.808 38.1833 249.302 38.1833C249.797 38.1833 250.175 38.6083 250.075 38.956C249.913 39.8677 249.248 40.5554 248.893 41.3899Z" fill="#FCFCF7"/>
<path d="M233.192 34.5828C233.343 34.7747 233.449 34.9974 233.504 35.2351C233.559 35.4728 233.56 35.7197 233.509 35.9581C232.914 35.5872 233.123 35.2163 233.192 34.5828Z" fill="#A474B0"/>
<path d="M236.507 35.9039C236.414 35.5021 236.352 35.2239 236.283 34.9381C236.337 34.9381 236.414 34.8685 236.445 34.8917C236.638 35.0308 236.916 35.1544 236.986 35.3476C237.055 35.5407 236.7 35.6721 236.507 35.9039Z" fill="#A272AF"/>
<path d="M232.775 37.0552C232.841 37.1637 232.897 37.2774 232.945 37.3951C232.999 37.5574 232.867 37.5651 232.767 37.5729C232.667 37.5806 232.473 37.5265 232.466 37.3488C232.458 37.1711 232.574 37.1093 232.775 37.0552Z" fill="#844995"/>
<path d="M234.908 37.8743L235.456 38.6933C234.792 38.7937 234.846 38.4074 234.908 37.8743Z" fill="#5A2870"/>
<path d="M231.423 38.3994C231.709 38.7626 231.593 39.0021 231.238 39.2648C231.2 39.116 231.198 38.9606 231.23 38.8106C231.262 38.6606 231.328 38.5199 231.423 38.3994Z" fill="#63307A"/>
<path d="M227.645 33.3003C227.768 33.5475 227.853 33.8412 227.583 33.9184C227.312 33.9957 227.397 33.7175 227.459 33.5707C227.509 33.4731 227.572 33.3823 227.645 33.3003Z" fill="#9862A5"/>
<path d="M235.811 42.0156C235.866 42.4792 235.765 42.7033 235.433 42.8424C235.332 42.5101 235.471 42.2938 235.811 42.0156Z" fill="#79448C"/>
<path d="M233.455 42.4099C233.455 42.6108 233.347 42.6185 233.246 42.5798C233.146 42.5412 232.976 42.4949 232.922 42.4021C232.868 42.3094 232.984 42.209 233.115 42.2553C233.246 42.3017 233.355 42.3249 233.455 42.4099Z" fill="#6F3983"/>
<path d="M229.329 40.5091C229.244 40.3855 229.151 40.3082 229.143 40.2309C229.136 40.1537 229.236 39.9528 229.406 39.976C229.453 39.976 229.514 40.146 229.507 40.2387C229.499 40.3314 229.414 40.3855 229.329 40.5091Z" fill="#814191"/>
<path d="M238.724 39.0873C238.771 39.2573 238.724 39.3809 238.585 39.3423C238.446 39.3037 238.4 39.1569 238.33 39.0487C238.261 38.9405 238.4 38.9173 238.454 38.8941C238.686 38.7937 238.647 39.041 238.724 39.0873Z" fill="#602F75"/>
<path d="M231.593 36.0277C231.547 35.9813 231.439 35.935 231.415 35.8577C231.404 35.8336 231.4 35.8066 231.404 35.7802C231.408 35.7538 231.42 35.7293 231.439 35.71C231.457 35.6907 231.481 35.6775 231.507 35.6721C231.534 35.6667 231.561 35.6695 231.585 35.68C231.632 35.6934 231.675 35.7161 231.712 35.7466C231.749 35.7772 231.78 35.815 231.802 35.8577C231.856 35.9891 231.748 36.0277 231.593 36.0277Z" fill="#9560A4"/>
<path d="M238.578 36.7847C238.516 36.7847 238.431 36.9006 238.346 36.9006C238.261 36.9006 238.199 36.8156 238.129 36.7615C238.207 36.6997 238.276 36.5993 238.369 36.5684C238.462 36.5375 238.578 36.5993 238.578 36.7847Z" fill="#8D569E"/>
</svg>
