<svg width="44" height="44" viewBox="0 0 44 44" fill="none" xmlns="http://www.w3.org/2000/svg">
<path d="M32.7747 39.0349L27.4182 38.291C20.6071 37.3532 13.8106 36.3825 6.99002 35.5072C5.672 35.3404 5.36365 34.9677 5.79047 33.6857C6.29093 32.0885 6.68609 30.4601 6.97341 28.8112C7.13373 27.9815 7.34623 27.8025 8.18662 28.0828C16.3622 30.9149 24.5472 33.6845 32.7292 36.4952C33.1181 36.6306 33.8219 36.6504 33.4423 37.3863C33.1715 37.9307 33.4995 38.7669 32.7747 39.0349Z" fill="#EF5B81"/>
<path d="M32.4592 2.81393C33.2737 2.73844 34.0808 2.59818 34.873 2.39448C36.2622 1.91964 36.3902 2.59775 36.4474 3.74488C36.8541 11.9261 37.3987 20.0833 37.8743 28.2525C37.9251 29.1876 38.0946 30.1629 36.6005 30.2094C35.8937 30.2307 35.5742 30.1442 35.3948 29.4039C34.5762 26.0952 33.702 22.8165 32.8655 19.5211C31.5893 14.4548 30.3426 9.3833 29.0369 4.32213C28.8172 3.46711 28.8888 3.11972 29.9002 3.15713C30.7587 3.08417 31.6092 2.93638 32.4421 2.71543L32.4592 2.81393Z" fill="#EF5B81"/>
<path d="M12.6338 17.1092C12.8149 16.8884 13.0089 16.6785 13.2147 16.4805C14.7082 15.1451 16.2281 13.8457 17.6967 12.4842C18.2309 11.9955 18.4845 12.0529 18.8636 12.657C21.4682 16.8598 24.1045 21.0503 26.7726 25.2285C27.3576 26.1419 26.6636 26.3538 26.2361 26.8138C25.8085 27.2738 25.4765 27.5243 24.8366 26.9961C20.9545 23.8137 17.0316 20.6892 13.1135 17.5334C12.973 17.4258 12.8389 17.2969 12.6338 17.1092Z" fill="#EF5B81"/>
<path d="M27.1768 37.0744C20.8752 36.2071 14.5787 35.3491 8.28719 34.5003C7.4365 34.3944 6.91051 34.1712 7.22078 33.153C7.4552 32.3409 7.36708 31.4833 7.66876 30.6494C7.71538 30.4385 7.81154 30.2418 7.94929 30.0755C8.08703 29.9092 8.2624 29.7781 8.46087 29.693C8.65935 29.6079 8.87524 29.5713 9.09066 29.5863C9.30609 29.6012 9.51484 29.6672 9.6997 29.7788C14.8701 31.6716 20.1017 33.3913 25.3257 35.1834C26.1678 35.4735 27.0523 35.7157 27.8785 36.0897C28.4023 36.9427 28.0638 37.2146 27.1768 37.0744Z" fill="#EF5B81"/>
<path d="M27.1768 37.0742C27.7876 36.9681 28.0438 36.6901 27.8751 36.0698C29.2499 36.379 30.5487 36.9609 31.6945 37.7812L27.1768 37.0742Z" fill="#EF5B81"/>
<path d="M35.0344 23.4175C33.9363 19.3759 33.1007 15.2683 31.8351 11.2557C31.1864 9.21667 31.0201 7.03288 30.5715 4.91847C30.467 4.31748 30.7446 4.27942 31.1387 4.21094L32.8333 3.91647C35.2176 3.50216 35.4065 3.71291 35.4854 6.09456C35.5929 9.28324 35.8104 12.4629 35.9787 15.6512C35.9505 15.6971 35.9129 15.7365 35.8683 15.7668C35.8237 15.7971 35.7731 15.8175 35.72 15.8267C35.6669 15.836 35.6124 15.8338 35.5602 15.8203C35.508 15.8069 35.4592 15.7825 35.4172 15.7488C34.7277 14.7014 34.7583 13.4172 34.2572 12.2862C34.3055 13.0292 34.2925 13.775 34.2184 14.5158C34.2151 14.4669 34.2241 14.418 34.2448 14.3736C34.2655 14.3292 34.2971 14.2907 34.3367 14.2618C34.6117 14.0922 34.8023 14.3129 34.8712 14.5343C34.9668 15.0952 35.234 15.6126 35.636 16.0153C35.619 18.5455 36.1571 20.9996 36.2239 23.5458C36.2497 23.6358 36.2658 23.7282 36.2719 23.8216C36.1734 23.8388 36.0551 23.8593 36.0157 23.8662C35.7385 23.6254 35.3979 23.4697 35.0344 23.4175Z" fill="#EF5B81"/>
<path d="M36.2207 23.5259C35.7738 20.9545 35.0871 18.4044 35.4486 15.7533L35.9806 15.6609C36.1152 18.0126 36.2417 20.3758 36.3712 22.6979C36.4033 22.8389 36.4066 22.985 36.3807 23.1273C36.3549 23.2696 36.3004 23.4052 36.2207 23.5259Z" fill="#EF5B81"/>
<path d="M35.0347 23.4174C35.7086 22.6812 35.9243 23.4557 36.2687 23.8018C36.6124 25.1872 36.6832 26.6263 36.4771 28.0387C35.7847 26.5725 35.2992 25.0172 35.0347 23.4174Z" fill="#EF5B81"/>
<path d="M16.1268 15.599C16.4288 15.2928 16.7557 15.0127 16.9836 14.6889C17.7158 13.8207 18.2722 13.927 18.8641 14.8797C20.6431 17.7577 22.476 20.5958 24.255 23.4737C24.5433 23.9861 24.715 24.5558 24.758 25.1422C22.2819 23.6846 20.2737 21.6483 18.008 19.941C17.6184 19.3594 17.1143 18.8634 16.5265 18.4831C14.8201 17.3079 14.8192 17.1863 16.1268 15.599Z" fill="#EF5B81"/>
<path d="M16.1268 15.5991C15.1046 17.0759 15.9175 17.8989 17.1815 18.5725C17.4406 18.6933 17.6598 18.8857 17.8132 19.127C17.9666 19.3683 18.0479 19.6484 18.0474 19.9343C17.294 19.3954 16.5145 18.8812 15.7345 18.3063C14.2881 17.1671 14.3623 16.7177 16.1268 15.5991Z" fill="#EF5B81"/>
<path d="M35.4486 15.7533C34.5281 15.7712 34.8936 14.8957 34.5621 14.5067C34.1482 14.812 34.6905 15.2456 34.3884 15.5518C34.3884 15.5518 34.2449 15.4854 34.2364 15.4362C34.0566 14.4017 33.8769 13.3672 33.6971 12.3327C33.6235 11.909 33.4766 11.356 34.1307 11.3235C34.7848 11.2911 34.7586 11.7828 34.834 12.2163C35.0394 13.3986 35.2431 14.571 35.4469 15.7435L35.4486 15.7533Z" fill="#EF5B81"/>
</svg>
