<svg width="945" height="130" viewBox="0 0 945 130" fill="none" xmlns="http://www.w3.org/2000/svg">
<path d="M789.757 129.096C784.581 129.096 780.308 127.454 776.938 124.17C773.568 120.887 771.883 116.71 771.883 111.64C771.883 106.572 773.568 102.396 776.938 99.1111C780.308 95.8262 784.581 94.1852 789.757 94.188C792.872 94.1505 795.935 94.9872 798.597 96.6028C801.23 98.2141 803.043 100.231 804.035 102.652C804.338 103.329 804.485 104.065 804.467 104.806C804.467 105.984 804.092 106.925 803.34 107.627C802.589 108.33 801.607 108.681 800.393 108.679C799.677 108.711 798.968 108.527 798.358 108.152C797.83 107.804 797.319 107.196 796.849 106.335C795.922 104.675 794.867 103.504 793.685 102.82C792.503 102.137 791.002 101.791 789.181 101.783C786.529 101.783 784.388 102.692 782.76 104.509C781.132 106.327 780.317 108.702 780.316 111.636C780.316 114.569 781.131 116.945 782.76 118.762C784.39 120.579 786.53 121.488 789.181 121.488C791.002 121.488 792.503 121.137 793.685 120.436C794.867 119.735 795.922 118.555 796.849 116.897C797.327 116.037 797.83 115.431 798.358 115.079C798.969 114.706 799.677 114.522 800.393 114.552C801.607 114.552 802.598 114.904 803.365 115.606C804.133 116.309 804.516 117.249 804.515 118.428C804.504 119.064 804.39 119.695 804.178 120.295C803.221 122.973 801.424 125.109 798.788 126.704C796.153 128.298 793.142 129.096 789.757 129.096Z" fill="#EF5B81" stroke="#EF5B81" stroke-width="0.355256" stroke-miterlimit="10"/>
<path d="M835.21 94.8811C836.486 94.8811 837.5 95.287 838.251 96.0989C839.002 96.9108 839.377 98.0172 839.377 99.4183V124.293C839.377 125.695 839.002 126.802 838.251 127.612C837.5 128.423 836.486 128.83 835.21 128.834C833.899 128.834 832.859 128.428 832.092 127.617C831.324 126.805 830.941 125.698 830.942 124.297V115.109H816.567V124.293C816.567 125.695 816.192 126.802 815.442 127.612C814.692 128.423 813.677 128.83 812.395 128.834C811.085 128.834 810.046 128.428 809.277 127.617C808.508 126.805 808.125 125.698 808.127 124.297V99.4225C808.127 98.02 808.511 96.9135 809.277 96.1031C810.043 95.2926 811.083 94.8866 812.395 94.8853C813.671 94.8853 814.685 95.2912 815.438 96.1031C816.19 96.9149 816.565 98.0214 816.562 99.4225V107.794H830.938V99.4225C830.938 98.02 831.321 96.9135 832.088 96.1031C832.854 95.2926 833.895 94.8853 835.21 94.8811Z" fill="#EF5B81" stroke="#EF5B81" stroke-width="0.355256" stroke-miterlimit="10"/>
<path d="M860.656 129.096C855.32 129.096 851.016 127.478 847.744 124.241C844.472 121.005 842.835 116.757 842.832 111.497C842.832 106.493 844.517 102.356 847.887 99.0864C851.257 95.8168 855.514 94.1841 860.656 94.1882C865.767 94.1882 870.015 95.8383 873.402 99.1383C876.789 102.438 878.482 106.575 878.482 111.549C878.482 116.779 876.837 121.012 873.546 124.245C870.254 127.479 865.958 129.096 860.656 129.096ZM853.78 118.814C855.458 120.6 857.75 121.492 860.656 121.492C863.562 121.492 865.848 120.608 867.516 118.839C869.178 117.069 870.01 114.637 870.01 111.545C870.01 108.611 869.148 106.251 867.424 104.466C865.7 102.68 863.448 101.788 860.666 101.788C857.823 101.788 855.547 102.673 853.838 104.443C852.13 106.213 851.275 108.565 851.275 111.497C851.268 114.591 852.103 117.03 853.78 118.814Z" fill="#EF5B81" stroke="#EF5B81" stroke-width="0.355256" stroke-miterlimit="10"/>
<path d="M899.268 129.096C893.932 129.096 889.627 127.478 886.354 124.241C883.081 121.005 881.444 116.757 881.444 111.497C881.444 106.493 883.129 102.356 886.5 99.0864C889.87 95.8168 894.126 94.1841 899.268 94.1882C904.379 94.1882 908.628 95.8383 912.014 99.1383C915.401 102.438 917.094 106.575 917.092 111.549C917.092 116.779 915.448 121.012 912.158 124.245C908.868 127.479 904.572 129.096 899.268 129.096ZM892.392 118.814C894.07 120.6 896.363 121.492 899.268 121.492C902.174 121.492 904.461 120.608 906.128 118.839C907.791 117.069 908.622 114.637 908.622 111.545C908.622 108.611 907.76 106.251 906.034 104.466C904.309 102.68 902.057 101.788 899.279 101.788C896.435 101.788 894.159 102.673 892.451 104.443C890.742 106.213 889.888 108.565 889.888 111.497C889.881 114.591 890.716 117.03 892.392 118.814Z" fill="#EF5B81" stroke="#EF5B81" stroke-width="0.355256" stroke-miterlimit="10"/>
<path d="M940.227 128.38H924.926C924.402 128.386 923.882 128.288 923.397 128.091C922.911 127.893 922.47 127.601 922.1 127.231C921.729 126.861 921.436 126.421 921.239 125.936C921.042 125.451 920.943 124.932 920.95 124.409V99.2065C920.95 97.8041 921.333 96.6976 922.1 95.8871C922.866 95.0766 923.905 94.67 925.217 94.6672C926.494 94.6672 927.507 95.0739 928.258 95.8871C929.009 96.7004 929.385 97.8068 929.385 99.2065V120.44H940.229C941.508 120.44 942.547 120.815 943.347 121.565C943.738 121.926 944.047 122.367 944.254 122.858C944.46 123.348 944.559 123.877 944.544 124.409C944.544 125.59 944.153 126.547 943.37 127.278C942.587 128.01 941.539 128.377 940.227 128.38Z" fill="#EF5B81" stroke="#EF5B81" stroke-width="0.355256" stroke-miterlimit="10"/>
<path d="M756.934 129.096C753.292 129.096 750.058 128.427 747.231 127.088C744.404 125.749 742.383 123.932 741.169 121.636C740.658 120.648 740.402 119.755 740.402 118.957C740.393 118.427 740.497 117.901 740.708 117.415C740.919 116.928 741.231 116.492 741.625 116.136C742.432 115.373 743.509 114.961 744.62 114.989C746.377 114.989 747.766 115.818 748.788 117.478C750.45 120.253 753.198 121.636 757.029 121.627C758.659 121.627 759.921 121.34 760.814 120.766C761.232 120.524 761.576 120.175 761.813 119.754C762.049 119.334 762.168 118.858 762.157 118.376C762.174 117.886 762.022 117.405 761.727 117.013C761.437 116.647 760.91 116.328 760.145 116.057C759.525 115.83 758.893 115.638 758.251 115.482C757.757 115.37 756.871 115.187 755.593 114.933L754.874 114.789C753.882 114.599 753.196 114.462 752.814 114.374C752.431 114.287 751.76 114.142 750.802 113.92C750.099 113.768 749.405 113.576 748.723 113.345C748.291 113.186 747.675 112.94 746.877 112.605C746.243 112.362 745.646 112.032 745.104 111.624C744.722 111.307 744.251 110.892 743.691 110.379C743.18 109.932 742.764 109.388 742.469 108.777C742.187 108.144 741.963 107.487 741.799 106.815C741.602 106.025 741.505 105.214 741.51 104.4C741.51 101.436 742.757 98.9891 745.252 97.0597C747.746 95.1303 750.906 94.1732 754.73 94.1884C757.497 94.1655 760.236 94.7454 762.756 95.8875C765.232 97.0189 767.013 98.4773 768.098 100.263C768.516 100.957 768.747 101.748 768.769 102.557C768.781 103.063 768.685 103.565 768.487 104.03C768.288 104.495 767.993 104.913 767.62 105.254C766.841 105.977 765.808 106.364 764.745 106.331C763.593 106.331 762.507 105.821 761.486 104.802C759.345 102.633 756.997 101.549 754.441 101.549C752.974 101.549 751.784 101.813 750.872 102.34C749.961 102.867 749.505 103.558 749.507 104.414C749.507 105.275 750.083 105.931 751.232 106.375C752.381 106.819 754.107 107.236 756.408 107.62C757.622 107.844 758.522 108.019 759.11 108.144C759.697 108.27 760.568 108.494 761.723 108.814C762.634 109.049 763.524 109.361 764.381 109.748C765.146 110.131 765.889 110.553 766.61 111.014C767.367 111.46 768.026 112.054 768.549 112.76C769.027 113.475 769.414 114.247 769.7 115.057C770.044 116.015 770.214 117.027 770.203 118.044C770.203 121.297 768.974 123.952 766.514 126.007C764.054 128.062 760.861 129.092 756.934 129.096Z" fill="#EF5B81" stroke="#EF5B81" stroke-width="0.355256" stroke-miterlimit="10"/>
<path d="M751.061 86.4373C750.33 87.2298 749.326 87.6254 748.051 87.624C746.777 87.6226 745.766 87.2271 745.019 86.4373C744.272 85.6448 743.898 84.566 743.898 83.2009V59.4942C743.898 56.3601 745.454 54.7924 748.565 54.791H767.836C769.112 54.791 770.123 55.1368 770.868 55.8283C771.614 56.5199 771.987 57.459 771.989 58.6457C771.989 59.8254 771.624 60.7569 770.893 61.4402C770.163 62.1234 769.144 62.465 767.836 62.465H752.111V69.0852H765.549C768.163 69.0852 769.469 70.2961 769.469 72.7178C769.469 75.1078 768.163 76.3028 765.549 76.3028H752.159V83.1926C752.159 84.5646 751.793 85.6462 751.061 86.4373Z" fill="#EF5B81"/>
<path d="M748.051 88.219C746.611 88.219 745.445 87.7564 744.584 86.8435C743.724 85.9307 743.302 84.715 743.302 83.2005V59.4938C743.302 56.0292 745.123 54.1973 748.565 54.1973H767.836C769.262 54.1973 770.419 54.6122 771.278 55.4047C772.136 56.1972 772.585 57.3113 772.585 58.6556C772.585 60 772.153 61.0871 771.301 61.8858C770.448 62.6845 769.293 63.0684 767.836 63.0684H752.707V68.4914H765.549C769.291 68.4914 770.066 70.7901 770.066 72.7195C770.066 74.6489 769.282 76.8999 765.549 76.8999H752.753V83.1922C752.753 84.7046 752.337 85.9286 751.506 86.8311C750.654 87.7564 749.494 88.219 748.051 88.219ZM748.565 55.3923C745.788 55.3923 744.495 56.6972 744.495 59.5V83.1922C744.495 84.4121 744.807 85.3374 745.453 86.022C746.1 86.7066 746.937 87.0219 748.051 87.0219C749.166 87.0219 750.003 86.6962 750.623 86.0261C751.242 85.356 751.562 84.4141 751.562 83.1922V75.7236H765.549C767.848 75.7236 768.875 74.8003 768.875 72.7319C768.875 70.6304 767.85 69.6926 765.549 69.6926H751.516V61.892H767.836C768.995 61.892 769.862 61.6078 770.486 61.0269C771.109 60.446 771.394 59.6846 771.394 58.666C771.394 57.6474 771.089 56.8694 770.461 56.2823C769.833 55.6951 768.964 55.3923 767.836 55.3923H748.565Z" fill="#EF5B81"/>
<path d="M790.048 88.0905C785.225 88.0905 781.476 86.8174 778.8 84.2711C776.124 81.7249 774.787 78.1697 774.789 73.6055V58.9836C774.789 57.6171 775.162 56.5376 775.909 55.7451C776.656 54.9526 777.667 54.5584 778.942 54.5625C780.189 54.5625 781.176 54.9581 781.904 55.7492C782.631 56.5403 782.997 57.6198 783.001 58.9877V73.3316C783.001 75.5667 783.585 77.3364 784.751 78.6406C785.918 79.9448 787.684 80.597 790.048 80.597C792.412 80.597 794.185 79.9448 795.367 78.6406C796.549 77.3364 797.14 75.5667 797.14 73.3316V58.9836C797.14 57.6171 797.513 56.5376 798.26 55.7451C799.007 54.9526 800.018 54.5584 801.293 54.5625C802.54 54.5625 803.527 54.9581 804.255 55.7492C804.982 56.5403 805.348 57.6198 805.352 58.9877V73.6096C805.352 78.1738 803.999 81.729 801.293 84.2753C798.587 86.8215 794.838 88.0933 790.048 88.0905Z" fill="#EF5B81"/>
<path d="M790.048 88.6868C785.09 88.6868 781.168 87.3466 778.391 84.7015C775.614 82.0563 774.192 78.3199 774.192 73.6064V58.9845C774.192 57.4679 774.624 56.2418 775.474 55.3393C776.325 54.4369 777.501 53.9639 778.942 53.9639C780.382 53.9639 781.496 54.4286 782.342 55.3435C783.188 56.2584 783.589 57.47 783.589 58.9845V73.3284C783.589 75.403 784.128 77.0627 785.19 78.2411C786.252 79.4195 787.865 79.9983 790.041 79.9983C792.218 79.9983 793.86 79.407 794.918 78.2369C795.976 77.0669 796.547 75.4009 796.547 73.3284V58.9845C796.547 57.4658 796.98 56.2418 797.83 55.3393C798.68 54.4369 799.856 53.9639 801.297 53.9639C802.737 53.9639 803.852 54.4286 804.698 55.3435C805.544 56.2584 805.945 57.47 805.945 58.9845V73.6064C805.945 78.3199 804.517 82.0543 801.698 84.7056C798.88 87.357 794.972 88.6868 790.048 88.6868ZM778.942 55.1547C777.827 55.1547 776.977 55.4804 776.341 56.1547C775.705 56.8289 775.385 57.7625 775.385 58.9845V73.6064C775.385 77.9818 776.672 81.4256 779.212 83.8426C781.752 86.2595 785.406 87.496 790.048 87.496C794.658 87.496 798.304 86.2657 800.883 83.8405C803.463 81.4153 804.756 77.9797 804.756 73.6064V58.9845C804.756 57.7791 804.44 56.8248 803.818 56.1505C803.197 55.4763 802.363 55.1547 801.293 55.1547C800.179 55.1547 799.329 55.4804 798.692 56.1547C798.056 56.8289 797.736 57.7625 797.736 58.9845V73.3284C797.736 75.7038 797.088 77.6249 795.807 79.0357C794.527 80.4464 792.575 81.1871 790.048 81.1871C787.52 81.1871 785.585 80.463 784.306 79.0336C783.028 77.6042 782.413 75.7038 782.413 73.3284V58.9845C782.413 57.7604 782.105 56.8331 781.475 56.1505C780.846 55.468 780.022 55.1547 778.942 55.1547Z" fill="#EF5B81"/>
<path d="M812.071 54.7911H835.029C836.336 54.7911 837.362 55.1369 838.109 55.8284C838.856 56.52 839.23 57.4591 839.23 58.6458C839.23 59.8573 838.864 60.7971 838.132 61.4652C837.4 62.1332 836.366 62.4665 835.029 62.4651H827.704V83.1927C827.704 84.5592 827.338 85.638 826.606 86.4291C825.875 87.2202 824.887 87.6158 823.644 87.6158C822.368 87.6158 821.357 87.2202 820.612 86.4291C819.866 85.638 819.493 84.5592 819.491 83.1927V62.4672H812.071C810.765 62.4672 809.747 62.1256 809.015 61.4424C808.283 60.7591 807.917 59.8276 807.917 58.6478C807.917 57.4695 808.291 56.5303 809.038 55.8305C809.785 55.1307 810.796 54.7842 812.071 54.7911Z" fill="#EF5B81"/>
<path d="M823.644 88.2201C822.204 88.2201 821.038 87.7575 820.177 86.8446C819.317 85.9318 818.895 84.7181 818.895 83.2016V63.0694H812.073C810.618 63.0694 809.45 62.6711 808.608 61.8828C807.766 61.0944 807.323 60.0011 807.323 58.6547C807.323 57.3082 807.764 56.217 808.631 55.4037C809.497 54.5905 810.645 54.1963 812.073 54.1963H835.029C836.484 54.1963 837.661 54.6112 838.517 55.4037C839.373 56.1962 839.824 57.3103 839.824 58.6547C839.824 60.0343 839.39 61.1297 838.534 61.9118C837.677 62.6939 836.515 63.0694 835.029 63.0694H828.298V83.1933C828.298 84.7057 827.883 85.9297 827.051 86.8322C826.22 87.7346 825.056 88.2201 823.644 88.2201ZM812.073 55.3933C810.942 55.3933 810.084 55.6838 809.446 56.2792C808.807 56.8746 808.514 57.6464 808.514 58.663C808.514 59.6795 808.812 60.4534 809.423 61.0239C810.034 61.5944 810.928 61.889 812.073 61.889H820.086V83.1933C820.086 84.4132 820.4 85.3385 821.044 86.0231C821.689 86.7077 822.53 87.023 823.644 87.023C824.723 87.023 825.551 86.6973 826.168 86.0272C826.785 85.3571 827.103 84.4235 827.103 83.1933V61.8828H835.025C836.203 61.8828 837.103 61.5965 837.727 61.0363C838.351 60.4762 838.631 59.7023 838.631 58.6567C838.631 57.6111 838.326 56.8601 837.7 56.273C837.074 55.6859 836.187 55.3871 835.027 55.3871L812.073 55.3933Z" fill="#EF5B81"/>
<path d="M857.054 88.0902C852.232 88.0902 848.482 86.8171 845.807 84.2709C843.131 81.7246 841.794 78.1694 841.795 73.6052V58.9833C841.795 57.6168 842.168 56.5373 842.915 55.7448C843.662 54.9523 844.673 54.5567 845.948 54.5581C847.195 54.5581 848.182 54.9537 848.91 55.7448C849.638 56.5359 850.003 57.6154 850.007 58.9833V73.3272C850.007 75.5623 850.591 77.3319 851.758 78.6362C852.924 79.9404 854.69 80.5925 857.054 80.5925C859.418 80.5925 861.191 79.9404 862.373 78.6362C863.555 77.3319 864.146 75.5623 864.146 73.3272V58.9833C864.146 57.6168 864.519 56.5373 865.264 55.7448C866.01 54.9523 867.022 54.5567 868.299 54.5581C869.546 54.5581 870.534 54.9537 871.261 55.7448C871.989 56.5359 872.355 57.6154 872.359 58.9833V73.6052C872.359 78.1694 871.006 81.7246 868.299 84.2709C865.593 86.8171 861.844 88.0902 857.054 88.0902Z" fill="#EF5B81"/>
<path d="M857.054 88.6868C852.094 88.6868 848.174 87.3466 845.397 84.7015C842.62 82.0563 841.198 78.3199 841.198 73.6064V58.9845C841.198 57.4679 841.631 56.2418 842.481 55.3393C843.331 54.4369 844.507 53.9639 845.948 53.9639C847.388 53.9639 848.502 54.4286 849.348 55.3435C850.194 56.2584 850.596 57.47 850.596 58.9845V73.3284C850.596 75.403 851.134 77.0627 852.194 78.2411C853.254 79.4195 854.871 79.9983 857.048 79.9983C859.224 79.9983 860.866 79.407 861.924 78.2369C862.982 77.0669 863.543 75.4009 863.543 73.3284V58.9845C863.543 57.4658 863.976 56.2397 864.826 55.3393C865.676 54.439 866.852 53.9639 868.293 53.9639C869.733 53.9639 870.848 54.4286 871.694 55.3435C872.54 56.2584 872.941 57.47 872.941 58.9845V73.6064C872.941 78.3199 871.513 82.0543 868.694 84.7056C865.875 87.357 861.978 88.6868 857.054 88.6868ZM845.948 55.1547C844.834 55.1547 843.984 55.4804 843.348 56.1547C842.711 56.8289 842.389 57.7625 842.389 58.9845V73.6064C842.389 77.9818 843.678 81.4256 846.218 83.8426C848.758 86.2595 852.412 87.496 857.054 87.496C861.695 87.496 865.31 86.2657 867.89 83.8405C870.469 81.4153 871.762 77.9797 871.762 73.6064V58.9845C871.762 57.7791 871.446 56.8248 870.823 56.1505C870.199 55.4763 869.378 55.1547 868.299 55.1547C867.185 55.1547 866.335 55.4804 865.699 56.1547C865.063 56.8289 864.741 57.7625 864.741 58.9845V73.3284C864.741 75.7038 864.092 77.6249 862.814 79.0357C861.535 80.4464 859.581 81.1871 857.054 81.1871C854.526 81.1871 852.591 80.463 851.313 79.0336C850.034 77.6042 849.411 75.7038 849.411 73.3284V58.9845C849.411 57.7604 849.103 56.8331 848.473 56.1505C847.844 55.468 847.027 55.1547 845.948 55.1547Z" fill="#EF5B81"/>
<path d="M902.315 75.6099L907.167 80.9645C908.069 81.9893 908.52 83.0266 908.52 84.0764C908.532 84.5536 908.441 85.0278 908.252 85.4662C908.063 85.9046 907.78 86.2969 907.424 86.6157C906.678 87.2885 905.7 87.6468 904.695 87.6157C903.576 87.6157 902.58 87.1655 901.708 86.2651L892.469 76.4397H885.927V83.1926C885.927 84.5591 885.562 85.6379 884.832 86.429C884.102 87.2201 883.114 87.6157 881.868 87.6157C880.592 87.6157 879.581 87.2201 878.835 86.429C878.09 85.6379 877.716 84.5591 877.715 83.1926V59.4942C877.715 56.3601 879.27 54.7924 882.381 54.791H897.127C900.766 54.791 903.597 55.7384 905.62 57.6332C907.643 59.5281 908.654 62.1822 908.653 65.5956C908.658 70.6882 906.546 74.0262 902.315 75.6099ZM885.927 62.1953V69.0416H896.707C897.857 69.0416 898.761 68.7387 899.409 68.135C900.058 67.5313 900.388 66.6827 900.388 65.5956C900.388 63.3302 899.16 62.1967 896.703 62.1953H885.927Z" fill="#EF5B81"/>
<path d="M904.695 88.219C903.411 88.219 902.263 87.7024 901.28 86.6859L892.211 77.0409H886.533V83.1922C886.533 84.7046 886.117 85.9286 885.285 86.8311C884.454 87.7335 883.294 88.2107 881.883 88.2107C880.471 88.2107 879.276 87.7564 878.409 86.8435C877.543 85.9307 877.129 84.717 877.129 83.2005V59.4938C877.129 56.0292 878.948 54.1973 882.39 54.1973H897.136C900.912 54.1973 903.908 55.2055 906.036 57.1972C908.165 59.1888 909.256 62.0269 909.256 65.5952C909.256 70.6075 907.262 74.0493 903.324 75.8356L907.61 80.5657C908.612 81.7047 909.117 82.8851 909.117 84.0926C909.13 84.6524 909.021 85.2085 908.798 85.7224C908.575 86.2363 908.244 86.696 907.826 87.0697C906.969 87.8403 905.848 88.2519 904.695 88.219ZM885.341 75.8522H892.727L902.143 85.8664C902.897 86.6485 903.733 87.0302 904.695 87.0302C905.552 87.0615 906.386 86.7578 907.021 86.1838C907.317 85.9212 907.551 85.5971 907.707 85.2343C907.864 84.8716 907.938 84.479 907.926 84.0843C907.926 83.1839 907.52 82.2648 906.72 81.3561L901.287 75.3584L902.105 75.0514C906.115 73.5514 908.065 70.4582 908.065 65.5952C908.065 62.3671 907.109 59.834 905.221 58.0664C903.334 56.2989 900.601 55.3923 897.136 55.3923H882.394C879.617 55.3923 878.324 56.6972 878.324 59.5V83.1922C878.324 84.4121 878.638 85.3374 879.282 86.022C879.927 86.7066 880.766 87.0219 881.881 87.0219C882.961 87.0219 883.787 86.6962 884.406 86.0261C885.026 85.356 885.346 84.4141 885.346 83.1922L885.341 75.8522ZM896.716 69.6283H885.341V61.6016H896.716C900.249 61.6016 900.998 63.7737 900.998 65.5952C900.998 66.8504 900.605 67.8504 899.827 68.5702C899.05 69.2901 898.017 69.6366 896.716 69.6366V69.6283ZM886.53 68.4396H896.716C897.72 68.4396 898.472 68.1947 899.017 67.6906C899.561 67.1865 899.807 66.5102 899.807 65.5869C899.807 63.6472 898.852 62.7821 896.716 62.7821H886.53V68.4396Z" fill="#EF5B81"/>
<path d="M936.891 87.3916H917.808C914.665 87.3916 913.093 85.8239 913.093 82.6885V59.4942C913.093 56.3601 914.649 54.7924 917.76 54.791H936.798C938.074 54.791 939.085 55.1368 939.83 55.8283C940.576 56.5199 940.949 57.459 940.951 58.6457C940.951 59.8254 940.585 60.7569 939.853 61.4402C939.122 62.1234 938.103 62.465 936.798 62.465H921.306V67.4026H935.118C937.732 67.4026 939.038 68.6135 939.038 71.0353C939.038 73.4571 937.732 74.6742 935.118 74.6866H921.306V79.7072H936.895C938.172 79.7072 939.183 80.0565 939.928 80.7549C940.674 81.4534 941.047 82.3925 941.049 83.5723C941.049 84.7534 940.683 85.6849 939.951 86.3668C939.219 87.0486 938.199 87.3903 936.891 87.3916Z" fill="#EF5B81"/>
<path d="M936.891 87.9866H917.807C914.334 87.9866 912.499 86.1548 912.499 82.6881V59.4938C912.499 56.0292 914.317 54.1973 917.76 54.1973H936.797C938.223 54.1973 939.381 54.6122 940.238 55.4047C941.094 56.1972 941.547 57.3113 941.547 58.6556C941.547 60 941.115 61.0892 940.26 61.8858C939.406 62.6825 938.255 63.0704 936.797 63.0704H921.902V66.8172H935.118C938.849 66.8172 939.633 69.1159 939.633 71.0453C939.633 72.9747 938.849 75.2713 935.118 75.2713H921.902V79.1135H936.891C938.317 79.1135 939.475 79.5284 940.331 80.3209C941.188 81.1134 941.641 82.2275 941.641 83.5718C941.641 84.9162 941.208 86.0033 940.354 86.8C939.5 87.5966 938.348 87.9866 936.891 87.9866ZM917.768 55.386C914.991 55.386 913.698 56.691 913.698 59.4938V82.6881C913.698 85.4909 915.005 86.7979 917.816 86.7979H936.899C938.059 86.7979 938.926 86.5137 939.547 85.9328C940.169 85.3519 940.456 84.5905 940.456 83.5718C940.456 82.5532 940.152 81.7752 939.525 81.1881C938.897 80.601 938.028 80.3022 936.899 80.3022H920.719V74.0784H935.126C937.425 74.0784 938.452 73.1406 938.452 71.0411C938.452 68.9416 937.427 68.0018 935.126 68.0018H920.719V61.8817H936.806C937.966 61.8817 938.832 61.5974 939.456 61.0165C940.08 60.4357 940.364 59.6743 940.364 58.6556C940.364 57.637 940.059 56.859 939.431 56.2719C938.803 55.6848 937.934 55.386 936.806 55.386H917.768Z" fill="#EF5B81"/>
<path d="M725.796 126.737V3.26338C725.796 1.46107 724.332 0 722.526 0H598.816C597.01 0 595.546 1.46107 595.546 3.26338V126.737C595.546 128.539 597.01 130 598.816 130H722.526C724.332 130 725.796 128.539 725.796 126.737Z" fill="#813589"/>
<path d="M682.623 51.2247C686.739 52.9134 690.289 55.2702 693.243 58.4858C697.314 62.8559 699.908 68.3912 700.659 74.3111C701.385 79.6864 701.009 84.929 698.516 89.8375C694.698 97.3539 689.077 102.935 680.848 105.468C675.157 107.221 669.416 108.787 663.683 110.43C659.978 111.497 656.271 112.563 652.562 113.629C647.553 115.065 642.986 112.633 641.525 107.644C638.004 95.6029 634.511 83.5535 631.047 71.4958C627.611 59.6248 624.177 47.7566 620.743 35.8911C619.33 31.0199 621.872 26.3603 626.752 24.9454C636.037 22.2567 645.321 19.5721 654.606 16.8917C660.565 15.1677 666.321 15.9478 671.839 18.5224C679.749 22.2152 683.787 28.7586 685.053 37.1587C685.766 41.893 684.893 46.4261 682.823 50.735C682.748 50.8616 682.704 51.0089 682.623 51.2247ZM673.91 101.991C675.544 101.53 677.179 101.08 678.809 100.607C689.965 97.3663 697.238 85.931 695.4 74.5268C693.81 64.6164 686.589 57.0523 676.728 54.9776C675.689 54.7598 674.635 54.6312 673.506 54.4486C673.741 54.1997 673.904 54.015 674.078 53.847C677.847 50.2309 679.85 45.8016 680.004 40.6026C680.148 35.8144 678.528 31.5759 675.575 27.8416C671.733 22.9828 666.684 20.6385 660.503 21.1281C658.227 21.3086 655.967 21.9911 653.749 22.6177C645.435 24.9689 637.132 27.3644 628.839 29.8042C626.374 30.5241 625.225 33.0551 626.17 35.4803C626.227 35.8991 626.305 36.3146 626.405 36.7251C633.018 59.6041 639.638 82.4795 646.264 105.352C647.002 107.897 649.253 109.159 651.808 108.441C654.033 107.814 656.257 107.178 658.48 106.532C663.624 105.024 668.767 103.511 673.91 101.991Z" fill="#FCFBFC"/>
<path d="M673.91 101.991C668.762 103.513 663.613 105.026 658.464 106.533C656.246 107.181 654.022 107.818 651.791 108.441C649.237 109.159 646.985 107.898 646.248 105.352C639.629 82.4801 633.013 59.6074 626.399 36.734C626.299 36.3235 626.221 35.908 626.164 35.4892C626.441 35.2818 626.69 34.9872 626.996 34.8897C629.519 34.1124 632.049 33.3572 634.587 32.6242C638.783 31.4168 642.978 30.2073 647.189 29.0538C648.993 28.56 650.816 27.9999 652.662 27.8277C656.565 27.4395 660.477 28.4709 663.679 30.7321C666.635 32.7694 668.69 35.5038 670.177 38.7692C671.681 42.0741 672.085 45.5014 671.621 49.0137C671.12 52.7916 669.401 56.0674 666.84 58.8868C666.466 59.3018 665.974 59.6047 665.414 60.0569C667.15 60.281 668.578 60.3432 669.944 60.6689C672.821 61.3556 675.51 62.4905 677.919 64.2726C680.272 66.0132 682.284 68.0504 683.796 70.5524C685.479 73.3221 686.614 76.3012 686.882 79.5376C687.298 84.4752 686.404 89.1514 683.733 93.4044C682.014 96.145 679.838 98.4416 677.082 100.153C676.038 100.794 674.97 101.381 673.91 101.991Z" fill="#803588"/>
<path d="M673.91 101.99C674.964 101.38 676.032 100.793 677.067 100.152C679.83 98.4407 682.006 96.1441 683.719 93.4036C686.39 89.1506 687.277 84.4827 686.868 79.5368C686.6 76.3004 685.465 73.3129 683.781 70.5516C682.262 68.0496 680.258 66.0123 677.905 64.2717C675.496 62.4896 672.806 61.3548 669.929 60.6681C668.564 60.3424 667.136 60.2801 665.4 60.0561C665.959 59.6038 666.452 59.2968 666.826 58.886C669.391 56.0687 671.11 52.7907 671.607 49.0129C672.07 45.5005 671.667 42.0732 670.162 38.7684C668.676 35.5029 666.628 32.7686 663.664 30.7313C660.463 28.47 656.551 27.4386 652.648 27.8268C650.802 27.999 648.979 28.5592 647.175 29.0529C642.963 30.2064 638.769 31.4159 634.572 32.6233C632.035 33.355 629.504 34.1102 626.981 34.8888C626.669 34.9863 626.42 35.283 626.15 35.4884C625.204 33.0632 626.357 30.5321 628.818 29.8122C637.123 27.3835 645.433 24.9839 653.747 22.6133C655.965 21.9909 658.225 21.3042 660.501 21.1237C666.682 20.6341 671.725 22.9784 675.573 27.8372C678.526 31.5715 680.146 35.81 680.002 40.5982C679.848 45.7972 677.845 50.2265 674.076 53.8426C673.901 54.0106 673.739 54.1953 673.504 54.4442C674.633 54.6268 675.689 54.7554 676.726 54.9733C686.583 57.0479 693.808 64.6119 695.405 74.5224C697.242 85.9328 689.969 97.3619 678.813 100.603C677.186 101.08 675.55 101.53 673.91 101.99Z" fill="#4C215C"/>
<path d="M762.022 31.8534L761.839 31.6704C762.035 31.6241 762.229 31.5672 762.419 31.5L762.6 31.6808C762.417 31.7453 762.223 31.8035 762.022 31.8534Z" fill="#461B49"/>
<path d="M762.6 31.6806L762.419 31.5001C764.115 30.8943 764.957 29.5852 764.969 27.8259C764.969 26.4484 764.651 25.438 763.916 24.7036L764.098 24.8862C764.834 25.6206 765.159 26.6289 765.15 27.9981C765.138 29.7595 764.296 31.0665 762.6 31.6723" fill="#441A46"/>
<path d="M767.378 19.6282L767.197 19.4478C768.099 19.9602 768.93 20.5878 769.669 21.3149L769.85 21.4954C769.111 20.7683 768.28 20.1406 767.378 19.6282Z" fill="#532056"/>
<path d="M766.268 19.0229L766.087 18.8403C766.503 19.0623 766.836 19.2407 767.166 19.4316L767.347 19.6121C767.017 19.4212 766.676 19.2428 766.268 19.0229Z" fill="#511F54"/>
<path d="M767.348 19.615L767.166 19.4326L767.197 19.4494L767.38 19.6318L767.348 19.615Z" fill="#532056"/>
<path d="M752.366 32.1609L752.184 31.9785C752.211 32.0082 752.244 32.0329 752.28 32.0519L752.462 32.2364C752.427 32.2155 752.395 32.1901 752.366 32.1609Z" fill="#532056"/>
<path d="M752.462 32.2309L752.279 32.0464C752.316 32.0678 752.354 32.0847 752.395 32.0967L752.577 32.2812C752.537 32.2673 752.499 32.2505 752.462 32.2309Z" fill="#511F54"/>
<path d="M752.576 32.2797L752.394 32.0952C752.441 32.1113 752.49 32.1225 752.54 32.1288L752.723 32.3132C752.673 32.3058 752.624 32.2945 752.576 32.2797Z" fill="#4E1E51"/>
<path d="M752.72 32.3113L752.539 32.1284C752.633 32.1425 752.729 32.1488 752.824 32.1471H752.838L753.019 32.328H753.007C752.911 32.3293 752.815 32.3237 752.72 32.3113Z" fill="#4B1D4E"/>
<path d="M753.019 32.3283L752.838 32.1475H753.287L753.468 32.3283H753.019Z" fill="#491C4C"/>
<path d="M753.468 32.3239L753.288 32.1431H753.52C753.936 32.1431 754.352 32.1431 754.768 32.1431H755.961H756.193L756.374 32.3239H756.144C755.745 32.3239 755.347 32.3239 754.948 32.3239C754.549 32.3239 754.117 32.3239 753.701 32.3239H753.468Z" fill="#4B1D4E"/>
<path d="M756.376 32.3383L756.195 32.1575C756.727 32.1575 757.26 32.145 757.792 32.1221C758.835 32.0919 759.876 32.0024 760.91 31.854L761.093 32.0348C760.056 32.1846 759.011 32.2741 757.964 32.303C757.432 32.3279 756.9 32.3362 756.368 32.3383" fill="#491C4C"/>
<path d="M761.101 32.0348L760.918 31.8539C761.23 31.8041 761.542 31.7438 761.839 31.6689L762.022 31.8519C761.718 31.9246 761.411 31.9849 761.101 32.0348Z" fill="#461B49"/>
<path d="M756.965 22.0483L756.784 21.8679C756.092 21.177 755.744 20.2082 755.79 19.0982C755.848 17.4883 756.597 16.4469 758.166 15.8867L758.349 16.0672C756.777 16.6294 756.029 17.6688 755.973 19.2787C755.931 20.3949 756.272 21.3533 756.965 22.0483Z" fill="#441A46"/>
<path d="M758.349 16.0676L758.166 15.8871L758.243 15.8602C758.883 15.6403 759.561 15.522 760.22 15.3498C760.409 15.3 760.594 15.2419 760.773 15.1797L760.956 15.3602C760.775 15.4245 760.59 15.4805 760.401 15.5303C759.742 15.7046 759.066 15.8207 758.424 16.0427L758.349 16.0676Z" fill="#461B49"/>
<path d="M760.955 15.3526L760.772 15.1721C761.685 14.8464 762.446 14.3194 762.882 13.361C763.257 12.5659 763.381 11.676 763.238 10.8091C763.095 9.94213 762.691 9.1391 762.08 8.50635L762.263 8.68684C762.875 9.32116 763.28 10.1265 763.423 10.9959C763.566 11.8653 763.44 12.7575 763.063 13.5539C762.627 14.5124 761.866 15.0393 760.955 15.365" fill="#441A46"/>
<path d="M745.89 38.1945L745.709 38.012C745.052 37.3564 744.707 36.3896 744.707 35.1531C744.699 24.9059 744.699 14.66 744.707 4.41551C744.707 2.58777 745.455 1.30357 746.86 0.805664L747.041 0.986156C745.638 1.49029 744.892 2.76826 744.888 4.59807C744.878 14.8426 744.878 25.0877 744.888 35.3336C744.888 36.5784 745.233 37.5369 745.89 38.1945Z" fill="#441A46"/>
<path d="M747.049 0.984725L746.869 0.803886C747.093 0.7224 747.325 0.661862 747.561 0.623047L747.742 0.803886C747.506 0.842586 747.275 0.901703 747.049 0.980568" fill="#461B49"/>
<path d="M747.741 0.808946L747.561 0.62395C747.807 0.585236 748.055 0.565086 748.305 0.56367C749.899 0.547041 751.493 0.526255 753.085 0.52002L753.268 0.702937C751.672 0.702937 750.078 0.729959 748.488 0.744509C748.238 0.745925 747.99 0.766075 747.743 0.804789" fill="#491C4C"/>
<path d="M753.271 0.707332L753.088 0.524414H753.89C756.279 0.524414 758.671 0.565986 761.041 0.732275C761.334 0.753061 761.623 0.78424 761.905 0.825812L762.088 1.00665C761.803 0.965079 761.515 0.9339 761.224 0.915193C758.846 0.757218 756.459 0.707332 754.073 0.707332H753.271Z" fill="#4B1D4E"/>
<path d="M762.088 0.994457L761.905 0.813965C762.462 0.897449 763.01 1.02651 763.545 1.19984L763.726 1.38034C763.192 1.20723 762.644 1.07817 762.088 0.994457Z" fill="#4E1E51"/>
<path d="M763.726 1.37971L763.545 1.19922C764.213 1.41575 764.857 1.70081 765.466 2.04981L765.649 2.23031C765.039 1.88131 764.395 1.59626 763.726 1.37971Z" fill="#511F54"/>
<path d="M765.649 2.23127L765.466 2.05078C766.246 2.49907 766.963 3.04805 767.598 3.68351L767.781 3.864C767.145 3.22949 766.428 2.68062 765.649 2.23127Z" fill="#532056"/>
<path d="M767.38 19.6298C771.121 21.7957 772.867 25.0653 772.605 29.3556C772.337 33.7268 770.019 36.679 765.916 38.0317C763.856 38.6996 761.715 39.0903 759.552 39.1935C758.163 39.2599 756.772 39.2827 755.38 39.2827C753.143 39.2827 750.905 39.2225 748.668 39.1914C746.226 39.1582 744.891 37.7744 744.889 35.3326C744.881 25.0854 744.881 14.8402 744.889 4.59707C744.889 2.21955 746.153 0.771466 748.479 0.748645C750.35 0.729974 752.204 0.705078 754.066 0.705078C756.452 0.705078 758.847 0.746571 761.217 0.91254C767.845 1.34821 772.271 7.8812 770.304 13.9993C769.712 15.8394 768.552 17.2481 767.055 18.4203L766.261 19.0427C766.69 19.2501 767.032 19.4348 767.38 19.6298ZM762.023 31.8535C764.102 31.3514 765.141 29.9573 765.151 28.0071C765.166 25.725 764.27 24.4657 762.125 23.777C761.628 23.6172 761.106 23.5259 760.595 23.4077C759.811 23.2293 758.992 23.1463 758.248 22.8641C756.706 22.2749 755.914 20.9513 755.974 19.2812C756.032 17.6464 756.806 16.5988 758.425 16.0448C759.067 15.8229 759.743 15.7067 760.402 15.5324C761.555 15.2274 762.543 14.7026 763.064 13.5511C764.276 10.8894 762.701 7.80444 759.809 7.55963C758.859 7.47872 757.903 7.45382 756.941 7.45382C755.415 7.45382 753.871 7.51606 752.299 7.51606C752.261 7.6975 752.233 7.88109 752.216 8.06584C752.216 15.8982 752.209 23.732 752.193 31.5672C752.193 32.2041 752.478 32.3286 753.008 32.3286H753.702C754.118 32.3286 754.534 32.3286 754.95 32.3286C755.365 32.3286 755.746 32.3286 756.145 32.3286C756.754 32.3286 757.363 32.3285 757.972 32.2933C759.329 32.2331 760.711 32.1584 762.021 31.8431" fill="#712B75"/>
<path d="M854.99 1.28045L854.807 1.09961H854.981C855.12 1.10548 855.259 1.11867 855.397 1.1391L855.578 1.31994C855.441 1.30123 855.299 1.28668 855.162 1.28045H854.99Z" fill="#4B1D4E"/>
<path d="M855.58 1.32391L855.399 1.14307C855.598 1.17308 855.794 1.21896 855.986 1.28025L856.168 1.46317C855.977 1.40043 855.78 1.35385 855.58 1.32391Z" fill="#4E1E51"/>
<path d="M856.173 1.4627L855.99 1.27979C856.219 1.35288 856.439 1.45044 856.647 1.57079L856.83 1.75163C856.621 1.63355 856.401 1.53675 856.173 1.4627Z" fill="#511F54"/>
<path d="M856.827 1.75178L856.644 1.57129C856.898 1.71704 857.131 1.89562 857.338 2.10239L857.519 2.28288C857.312 2.07681 857.08 1.8983 856.827 1.75178Z" fill="#532056"/>
<path d="M840.234 30.2889L840.053 30.1084C840.333 30.3862 840.648 30.6261 840.99 30.8221L841.171 31.0026C840.828 30.8073 840.513 30.5673 840.234 30.2889Z" fill="#532056"/>
<path d="M841.171 31.0013L840.99 30.8208C841.301 30.9973 841.629 31.1405 841.969 31.2482L842.15 31.4307C841.81 31.3215 841.482 31.1776 841.171 31.0013Z" fill="#511F54"/>
<path d="M842.15 31.4305L841.969 31.2476C842.308 31.3568 842.656 31.4367 843.009 31.4866L843.189 31.6674C842.837 31.617 842.489 31.5378 842.15 31.4305Z" fill="#4E1E51"/>
<path d="M843.181 31.6672L843 31.4863C843.227 31.5196 843.461 31.5445 843.705 31.5591C843.996 31.5778 844.289 31.5861 844.582 31.5861H844.632L844.815 31.7669H844.771C844.478 31.7669 844.185 31.7669 843.894 31.7399C843.651 31.7254 843.416 31.7025 843.189 31.6672" fill="#4B1D4E"/>
<path d="M844.815 31.767L844.632 31.5861C845.006 31.5861 845.378 31.5695 845.748 31.5362C845.937 31.5217 846.12 31.4988 846.301 31.4697L846.482 31.6506C846.303 31.6797 846.118 31.7025 845.931 31.7192C845.559 31.7503 845.187 31.767 844.815 31.767Z" fill="#491C4C"/>
<path d="M846.482 31.6508L846.301 31.4699C846.672 31.4116 847.038 31.3183 847.392 31.1914L847.575 31.3743C847.22 31.4996 846.854 31.5921 846.482 31.6508Z" fill="#461B49"/>
<path d="M847.575 31.3748L847.392 31.1922C848.089 30.9585 848.717 30.5549 849.218 30.0181C849.719 29.4812 850.078 28.828 850.263 28.1176C850.757 26.4312 851.028 24.6876 851.069 22.931C851.171 17.2964 851.109 11.6596 851.123 6.02287C851.111 5.3737 851.162 4.72488 851.273 4.08517C851.541 2.718 852.397 1.72633 853.559 1.31348L853.74 1.49604C852.587 1.91097 851.73 2.89849 851.454 4.26566C851.342 4.90537 851.292 5.55419 851.304 6.20336C851.289 11.8401 851.354 17.4789 851.25 23.1115C851.21 24.8682 850.938 26.6119 850.444 28.2981C850.259 29.0083 849.9 29.6614 849.399 30.1986C848.898 30.7357 848.271 31.1399 847.575 31.3748Z" fill="#441A46"/>
<path d="M853.732 1.49446L853.551 1.31155C853.758 1.23806 853.971 1.18378 854.187 1.14941L854.368 1.33025C854.152 1.36532 853.939 1.42029 853.732 1.49446Z" fill="#461B49"/>
<path d="M854.368 1.33034L854.187 1.1495C854.387 1.11595 854.589 1.09927 854.792 1.09961L854.973 1.28045C854.77 1.28218 854.568 1.29885 854.368 1.33034Z" fill="#491C4C"/>
<path d="M854.974 1.282L854.792 1.09961H854.807L854.991 1.282H854.974Z" fill="#4B1D4E"/>
<path d="M834.898 35.4411L834.715 35.2607C832.844 33.3935 831.707 30.877 831.144 27.8625C830.882 26.3075 830.743 24.7342 830.728 23.1573C830.662 20.4976 830.712 17.8338 830.712 15.17C830.712 11.9481 830.687 8.73868 830.735 5.50849C830.738 4.70798 830.883 3.91435 831.163 3.16416C831.324 2.73675 831.577 2.34996 831.905 2.03121C832.232 1.71247 832.626 1.4696 833.059 1.31982L833.239 1.50032C832.808 1.65035 832.414 1.89334 832.087 2.21207C831.76 2.5308 831.507 2.91746 831.346 3.34466C831.066 4.09505 830.921 4.88846 830.916 5.68898C830.868 8.90879 830.893 12.1307 830.895 15.3505C830.895 18.0143 830.845 20.6781 830.911 23.3378C830.925 24.9147 831.064 26.4881 831.327 28.043C831.89 31.0595 833.032 33.5761 834.9 35.4411" fill="#441A46"/>
<path d="M833.231 1.49849L833.05 1.31766C833.259 1.24254 833.475 1.18688 833.694 1.15137L833.875 1.33428C833.656 1.36935 833.44 1.42431 833.231 1.49849Z" fill="#461B49"/>
<path d="M833.875 1.33437L833.694 1.15145C833.901 1.11846 834.109 1.10178 834.318 1.10156L834.499 1.2824C834.286 1.28276 834.074 1.30013 833.865 1.33437" fill="#491C4C"/>
<path d="M834.509 1.2824L834.328 1.10156H834.49C834.646 1.10585 834.802 1.11973 834.956 1.14313L835.137 1.32397C834.982 1.3016 834.827 1.28772 834.671 1.2824H834.509Z" fill="#4B1D4E"/>
<path d="M835.137 1.32586L834.956 1.14502C835.16 1.17566 835.362 1.22293 835.559 1.28636L835.74 1.4672C835.543 1.40377 835.341 1.3565 835.137 1.32586Z" fill="#4E1E51"/>
<path d="M835.739 1.46746L835.559 1.28662C835.791 1.3606 836.015 1.45956 836.226 1.58178L836.407 1.76262C836.195 1.64125 835.972 1.54232 835.739 1.46746Z" fill="#511F54"/>
<path d="M836.407 1.76252L836.226 1.58203C836.472 1.72222 836.699 1.89454 836.9 2.09446L837.082 2.27703C836.881 2.07627 836.654 1.90324 836.407 1.76252Z" fill="#532056"/>
<path d="M854.992 1.28223H855.164C857.01 1.36106 858.359 2.65563 858.583 4.58295C858.639 5.013 858.669 5.44598 858.673 5.87959C858.648 12.257 858.712 18.6385 858.531 25.0118C858.438 27.1123 858.017 29.1855 857.284 31.1568C855.621 35.7604 852.088 38.1669 847.307 38.8329C846.441 38.9541 845.567 39.0158 844.692 39.0175C843.393 39.0201 842.098 38.8739 840.832 38.5819C835.22 37.2769 832.335 33.4638 831.323 28.0428C831.059 26.4879 830.92 24.9145 830.907 23.3375C830.84 20.6779 830.888 18.0141 830.89 15.3502C830.89 12.1304 830.863 8.90854 830.911 5.68872C830.916 4.88821 831.062 4.09479 831.341 3.3444C831.863 2.00627 833.089 1.2843 834.53 1.2843H834.675C836.157 1.33409 837.421 2.16809 837.866 3.56639C838.111 4.36084 838.236 5.18736 838.236 6.01859C838.265 11.562 838.207 17.1033 838.275 22.6467C838.288 24.3444 838.486 26.0356 838.868 27.6901C839.491 30.2709 841.24 31.5738 843.888 31.7335C844.179 31.7522 844.472 31.7605 844.765 31.7605C845.154 31.7605 845.544 31.746 845.933 31.7128C848.151 31.5219 849.824 30.439 850.446 28.2917C850.941 26.6055 851.212 24.8618 851.252 23.1052C851.356 17.4726 851.292 11.8338 851.306 6.19701C851.295 5.54783 851.345 4.89902 851.456 4.25931C851.813 2.43779 853.223 1.28223 854.992 1.28223Z" fill="#712B75"/>
<path d="M875.556 34.9769L875.375 34.7964C875.098 34.5198 874.837 34.2369 874.593 33.9479C873.706 32.9106 873.097 31.7591 873.182 30.3256C873.219 29.6477 873.455 28.9959 873.862 28.4519C874.269 27.9079 874.828 27.4958 875.468 27.2676L875.649 27.4481C875.008 27.6767 874.45 28.0891 874.043 28.6335C873.636 29.1779 873.399 29.83 873.363 30.5081C873.277 31.9396 873.888 33.0827 874.774 34.1284C875.023 34.423 875.285 34.7051 875.556 34.9769Z" fill="#441A46"/>
<path d="M875.647 27.4487L875.466 27.2678C875.663 27.1975 875.865 27.1446 876.071 27.1099L876.252 27.2928C876.046 27.3261 875.844 27.3783 875.647 27.4487Z" fill="#461B49"/>
<path d="M876.252 27.2924L876.071 27.1094C876.242 27.082 876.415 27.0681 876.588 27.0679L876.771 27.2487C876.597 27.2486 876.423 27.2632 876.252 27.2924Z" fill="#491C4C"/>
<path d="M876.782 27.2487L876.599 27.0679H876.612C876.774 27.0672 876.936 27.079 877.096 27.1032L877.279 27.2841C877.118 27.261 876.957 27.2492 876.795 27.2487H876.782Z" fill="#4B1D4E"/>
<path d="M877.268 27.2839L877.085 27.103C877.262 27.1298 877.437 27.1708 877.607 27.2257L877.79 27.4065C877.619 27.3529 877.445 27.3119 877.268 27.2839Z" fill="#4E1E51"/>
<path d="M877.79 27.4069L877.607 27.2261C877.832 27.2994 878.048 27.3956 878.253 27.5129L878.434 27.6938C878.23 27.576 878.014 27.4799 877.79 27.4069Z" fill="#511F54"/>
<path d="M878.445 27.6922L878.264 27.5117C878.324 27.547 878.386 27.5843 878.447 27.6237C879.162 28.0926 879.758 28.7523 880.378 29.354C881.083 30.0509 881.873 30.6573 882.729 31.1589L882.909 31.3415C882.054 30.8396 881.265 30.2325 880.561 29.5345C879.937 28.9328 879.342 28.2731 878.627 27.8063C878.567 27.7648 878.507 27.7275 878.445 27.6922Z" fill="#532056"/>
<path d="M882.899 31.3417L882.718 31.1592C883.237 31.4586 883.785 31.7033 884.354 31.8894L884.535 32.0699C883.966 31.8845 883.418 31.6405 882.899 31.3417Z" fill="#511F54"/>
<path d="M884.535 32.0695L884.354 31.8887C884.761 32.0205 885.179 32.1185 885.602 32.1818L885.782 32.3626C885.359 32.2991 884.942 32.2011 884.535 32.0695Z" fill="#4E1E51"/>
<path d="M885.778 32.3644L885.597 32.1836C885.985 32.2406 886.377 32.269 886.77 32.2688H886.799L886.982 32.4517H886.95C886.558 32.4512 886.166 32.422 885.778 32.3644Z" fill="#4B1D4E"/>
<path d="M886.982 32.4501L886.799 32.2672C887.255 32.2664 887.71 32.2281 888.16 32.1528L888.341 32.3358C887.892 32.4089 887.437 32.4471 886.982 32.4501Z" fill="#491C4C"/>
<path d="M888.341 32.3368L888.16 32.1539C888.26 32.1372 888.368 32.1206 888.464 32.0998C888.807 32.0351 889.144 31.9448 889.474 31.8296L889.655 32.0104C889.325 32.1263 888.988 32.2173 888.644 32.2827L888.341 32.3368Z" fill="#461B49"/>
<path d="M889.654 32.0097L889.474 31.8292C890.532 31.4516 891.369 30.7919 891.721 29.5596C892.136 28.1074 891.928 26.6925 890.889 25.6572L891.072 25.8377C892.111 26.875 892.319 28.2775 891.904 29.7401C891.554 30.9641 890.715 31.6321 889.657 32.0097" fill="#441A46"/>
<path d="M882.714 13.1282L882.531 12.9478C882.675 13.0901 882.835 13.2154 883.007 13.3212C883.288 13.4996 883.575 13.6697 883.864 13.8357L884.047 14.0162C883.756 13.8502 883.471 13.6801 883.188 13.5038C883.017 13.3966 882.858 13.2706 882.714 13.1282Z" fill="#532056"/>
<path d="M884.057 14.0164L883.874 13.8359C885.073 14.5226 886.343 15.145 887.578 15.7674C889.449 16.7176 891.407 17.5163 893.219 18.5557L893.4 18.7362C891.588 17.6989 889.63 16.8981 887.761 15.95C886.514 15.3276 885.254 14.7052 884.047 14.0164" fill="#511F54"/>
<path d="M893.411 18.7362L893.23 18.5557C893.398 18.6511 893.563 18.7486 893.727 18.8482C894.557 19.3436 895.324 19.9363 896.013 20.6137L896.194 20.7942C895.509 20.1175 894.746 19.5248 893.92 19.0287C893.757 18.9291 893.59 18.8316 893.421 18.7362" fill="#532056"/>
<path d="M886.528 0.733219L886.348 0.550301C887.086 0.549531 887.824 0.603724 888.555 0.712433L888.736 0.893272C888.005 0.785182 887.267 0.731683 886.528 0.733219Z" fill="#4B1D4E"/>
<path d="M888.736 0.892895L888.555 0.712402C889.291 0.821104 890.017 0.990418 890.725 1.21861L890.906 1.40118C890.198 1.17328 889.472 1.00329 888.736 0.892895Z" fill="#4E1E51"/>
<path d="M890.916 1.40034L890.735 1.21777C891.627 1.50614 892.486 1.88647 893.298 2.35259L893.479 2.53516C892.667 2.06784 891.808 1.68745 890.916 1.40034Z" fill="#511F54"/>
<path d="M893.469 2.53559L893.288 2.35303C894.469 3.03575 895.553 3.87302 896.512 4.84257L896.693 5.02307C895.735 4.0528 894.65 3.21546 893.469 2.53352" fill="#532056"/>
<path d="M877.231 17.8967L877.05 17.7162C874.857 15.5254 874.054 12.7081 874.555 9.37414C875.131 5.62322 877.501 2.66688 881.082 1.38477L881.263 1.56733C877.682 2.84945 875.312 5.80371 874.736 9.5567C874.225 12.8885 875.027 15.708 877.231 17.8967Z" fill="#441A46"/>
<path d="M881.274 1.56692L881.093 1.38436C881.573 1.21387 882.064 1.07526 882.562 0.969431C882.895 0.898894 883.225 0.836655 883.556 0.782715L883.737 0.963207C883.408 1.01715 883.076 1.07939 882.743 1.14992C882.245 1.25603 881.754 1.39464 881.274 1.56485" fill="#461B49"/>
<path d="M883.737 0.963936L883.556 0.783097C884.459 0.634864 885.373 0.557029 886.289 0.550293L886.47 0.733211C885.554 0.738319 884.64 0.815465 883.737 0.963936Z" fill="#491C4C"/>
<path d="M886.471 0.734783L886.289 0.550293H886.348L886.53 0.734783H886.471Z" fill="#4B1D4E"/>
<path d="M886.53 0.734375C890.315 0.734375 893.757 2.08495 896.694 5.03299C897.47 5.81098 898.041 6.90015 898.424 7.93746C898.904 9.2424 898.586 10.5266 897.442 11.4643C896.836 11.9308 896.09 12.1781 895.324 12.1655C894.679 12.1741 894.045 11.9962 893.499 11.6531C892.687 11.0875 891.929 10.4479 891.236 9.74239C890.602 9.11436 889.849 8.61963 889.02 8.28751C888.191 7.95538 887.304 7.79261 886.411 7.80884C885.742 7.81187 885.075 7.88137 884.42 8.0163C883.154 8.27355 882.341 9.11585 882.075 10.3855C881.809 11.6552 882.075 12.8211 883.189 13.512C884.644 14.4269 886.218 15.1717 887.762 15.958C889.804 16.9953 891.951 17.8521 893.901 19.0367C897.465 21.2109 899.328 24.4577 899.344 29.5384C899.261 33.2209 897.193 36.4905 893.03 38.3328C891.119 39.1648 889.055 39.5889 886.97 39.5775C882.373 39.5775 877.733 37.6232 874.775 34.1379C873.89 33.1006 873.279 31.9491 873.364 30.5177C873.409 29.6407 873.789 28.8142 874.424 28.2069C875.06 27.5996 875.903 27.2574 876.783 27.2501C877.436 27.2517 878.074 27.4458 878.617 27.8082C879.332 28.275 879.928 28.9347 880.55 29.5364C882.404 31.3371 884.487 32.4408 886.95 32.4408C887.518 32.4386 888.086 32.3823 888.644 32.2728C890.161 31.9761 891.446 31.3247 891.901 29.7314C892.356 28.1381 892.048 26.5717 890.712 25.5178C889.532 24.6218 888.266 23.8461 886.931 23.2025C884.58 22.0221 882.082 21.1155 879.803 19.8147C875.694 17.4704 874.069 13.9601 874.746 9.54737C875.397 5.30269 878.342 2.07873 882.743 1.141C883.987 0.872891 885.257 0.736595 886.53 0.734375Z" fill="#712B75"/>
<path d="M803.577 25.3644L803.396 25.1836C803.583 25.1867 803.769 25.202 803.954 25.2293L804.134 25.4102C803.95 25.3828 803.764 25.3675 803.577 25.3644Z" fill="#4B1D4E"/>
<path d="M804.134 25.4103L803.954 25.2295C804.135 25.2552 804.314 25.2962 804.488 25.3521L804.669 25.533C804.494 25.4768 804.316 25.4358 804.134 25.4103Z" fill="#4E1E51"/>
<path d="M804.669 25.5324L804.488 25.3516C804.67 25.4097 804.846 25.4871 805.012 25.5823L805.192 25.7631C805.027 25.6679 804.851 25.5905 804.669 25.5324Z" fill="#511F54"/>
<path d="M805.193 25.7635L805.012 25.583C805.203 25.6928 805.379 25.8275 805.536 25.9834L805.716 26.1639C805.56 26.008 805.384 25.8733 805.193 25.7635Z" fill="#532056"/>
<path d="M802.783 35.7207L802.603 35.5402C800.947 33.9006 799.917 31.735 799.692 29.418C799.485 27.5135 800.435 25.9782 802.004 25.416L802.185 25.5965C800.615 26.1587 799.663 27.694 799.873 29.5985C800.098 31.9154 801.128 34.081 802.783 35.7207Z" fill="#441A46"/>
<path d="M802.199 25.5948L802.019 25.414C802.243 25.3339 802.474 25.2748 802.709 25.2373L802.889 25.4181C802.655 25.4566 802.424 25.5157 802.199 25.5948Z" fill="#461B49"/>
<path d="M802.889 25.418L802.708 25.2372C802.93 25.201 803.155 25.1829 803.38 25.1831L803.561 25.3639C803.336 25.3638 803.111 25.3818 802.889 25.418Z" fill="#491C4C"/>
<path d="M803.562 25.3655L803.38 25.1831H803.397L803.579 25.3655H803.562Z" fill="#4B1D4E"/>
<path d="M820.175 1.28045L819.992 1.09961C820.191 1.09929 820.39 1.11389 820.587 1.14327L820.768 1.3241C820.571 1.2948 820.373 1.28021 820.175 1.28045Z" fill="#4B1D4E"/>
<path d="M820.767 1.32391L820.586 1.14307C820.785 1.17186 820.981 1.21705 821.173 1.27818L821.353 1.46109C821.162 1.3983 820.966 1.3524 820.767 1.32391Z" fill="#4E1E51"/>
<path d="M821.354 1.45294L821.173 1.27002C821.397 1.3434 821.613 1.43952 821.817 1.55687L821.998 1.73771C821.794 1.62024 821.578 1.52478 821.354 1.45294Z" fill="#511F54"/>
<path d="M821.998 1.74495L821.817 1.56445C822.063 1.70318 822.289 1.87489 822.489 2.07481L822.672 2.2553C822.471 2.0557 822.244 1.8834 821.998 1.74287" fill="#532056"/>
<path d="M808.229 30.7147L808.046 30.5342C808.289 30.7769 808.563 30.9862 808.861 31.1566L809.042 31.3371C808.745 31.1666 808.471 30.9573 808.229 30.7147Z" fill="#532056"/>
<path d="M809.042 31.3392L808.861 31.1587C809.109 31.3005 809.371 31.416 809.643 31.5031L809.824 31.6836C809.551 31.5973 809.289 31.4818 809.042 31.3392Z" fill="#511F54"/>
<path d="M809.823 31.6838L809.643 31.5029C809.898 31.5841 810.159 31.6446 810.424 31.6838L810.605 31.8646C810.34 31.8252 810.079 31.7647 809.823 31.6838Z" fill="#4E1E51"/>
<path d="M810.605 31.8635L810.424 31.6826C810.74 31.7288 811.058 31.751 811.376 31.7491H811.403L811.586 31.93H811.557C811.239 31.9318 810.92 31.9096 810.605 31.8635Z" fill="#4B1D4E"/>
<path d="M811.586 31.9306L811.403 31.7498C811.681 31.7495 811.959 31.7349 812.235 31.7061C812.349 31.6957 812.459 31.6812 812.569 31.6646L812.75 31.8454C812.64 31.862 812.53 31.8766 812.416 31.889C812.131 31.9161 811.856 31.9306 811.584 31.9306" fill="#491C4C"/>
<path d="M812.742 31.8457L812.561 31.6649C812.838 31.6197 813.11 31.5502 813.374 31.457L813.555 31.6379C813.291 31.7322 813.019 31.8018 812.742 31.8457Z" fill="#461B49"/>
<path d="M813.555 31.6389L813.374 31.4584C814.715 30.9791 815.621 29.8775 815.968 28.1493C816.193 26.9021 816.299 25.6365 816.286 24.3694C816.317 18.27 816.286 12.1706 816.313 6.0712C816.299 5.29922 816.372 4.52814 816.531 3.77252C816.82 2.54019 817.571 1.6979 818.623 1.32861L818.803 1.50911C817.747 1.88669 817.001 2.72069 816.712 3.95301C816.558 4.70986 816.488 5.48153 816.504 6.25377C816.486 12.3532 816.504 18.4505 816.475 24.5499C816.49 25.8171 816.383 27.0827 816.157 28.3298C815.812 30.0601 814.91 31.1596 813.563 31.6389" fill="#441A46"/>
<path d="M818.803 1.50913L818.623 1.32829C818.843 1.24962 819.069 1.19186 819.3 1.15576L819.481 1.3366C819.25 1.3727 819.023 1.43046 818.803 1.50913Z" fill="#461B49"/>
<path d="M819.481 1.33692L819.3 1.15608C819.432 1.1332 819.565 1.11793 819.699 1.11035C819.792 1.11035 819.886 1.11035 819.977 1.11035L820.158 1.29119C820.067 1.29119 819.973 1.29119 819.88 1.29119C819.745 1.29119 819.612 1.31613 819.481 1.33692Z" fill="#491C4C"/>
<path d="M820.16 1.282L819.978 1.09961H819.992L820.177 1.282H820.16Z" fill="#4B1D4E"/>
<path d="M820.175 1.28076C821.68 1.28076 822.955 2.08986 823.466 3.5338C823.717 4.29621 823.844 5.09416 823.84 5.8968C823.877 9.45685 823.855 13.0169 823.855 16.577C823.778 20.0436 823.834 23.5124 823.749 26.977C823.698 28.3069 823.499 29.627 823.154 30.9126C822.05 35.178 819.342 37.8543 814.969 38.6883C813.74 38.9327 812.49 39.0612 811.237 39.0721C808.392 39.0721 805.702 38.2983 803.32 36.2091C801.37 34.5278 800.144 32.1614 799.897 29.6014C799.63 27.1886 801.233 25.3692 803.586 25.3692C804.923 25.3962 805.821 25.9459 806.336 27.0704C806.642 27.7467 806.883 28.4521 807.184 29.1305C808.03 31.0371 809.431 31.9354 811.566 31.9354C811.838 31.9354 812.121 31.9209 812.416 31.8939C814.386 31.701 815.721 30.5184 816.157 28.3338C816.383 27.0868 816.49 25.8211 816.476 24.5539C816.507 18.4545 816.486 12.3572 816.505 6.25778C816.488 5.48554 816.558 4.71387 816.712 3.95702C817.091 2.34089 818.261 1.40731 819.88 1.29528C819.98 1.28491 820.078 1.28076 820.175 1.28076Z" fill="#712B75"/>
<path d="M800.094 1.26593L799.911 1.08301C800.086 1.08383 800.26 1.09703 800.433 1.1225L800.616 1.30542C800.443 1.27907 800.269 1.26587 800.094 1.26593Z" fill="#4B1D4E"/>
<path d="M800.616 1.30694L800.433 1.12402C800.644 1.15542 800.853 1.2048 801.056 1.2716L801.237 1.45244C801.034 1.38621 800.825 1.33753 800.613 1.30694" fill="#4E1E51"/>
<path d="M801.233 1.45246L801.052 1.27197C801.266 1.34137 801.475 1.42667 801.676 1.52715C801.749 1.56449 801.819 1.60184 801.884 1.64126L802.065 1.82175C801.996 1.78233 801.925 1.74499 801.857 1.70764C801.656 1.60681 801.447 1.5215 801.233 1.45246Z" fill="#511F54"/>
<path d="M802.07 1.81965L801.89 1.63916C802.164 1.79502 802.416 1.98614 802.64 2.20761L802.821 2.3881C802.597 2.16663 802.344 1.97551 802.07 1.81965Z" fill="#532056"/>
<path d="M788.876 16.5429L788.693 16.3624C789.306 15.3562 789.853 14.4704 790.391 13.5762C792.373 10.2845 794.356 6.99273 796.34 3.70099C796.548 3.35453 796.756 3.01429 796.999 2.68858C797.446 2.04659 798.077 1.55475 798.809 1.27783L798.99 1.45832C798.259 1.73537 797.628 2.22723 797.182 2.86907C796.943 3.19478 796.729 3.53502 796.521 3.88148C794.538 7.16907 792.558 10.4608 790.58 13.7567C790.042 14.6508 789.495 15.5388 788.884 16.5429" fill="#441A46"/>
<path d="M798.982 1.45452L798.801 1.27368C798.989 1.20562 799.182 1.15551 799.379 1.12402L799.562 1.30486C799.364 1.33609 799.17 1.3862 798.982 1.45452Z" fill="#461B49"/>
<path d="M799.562 1.3075L799.379 1.12666C799.551 1.09863 799.724 1.08404 799.899 1.08301L800.081 1.26593C799.907 1.26609 799.734 1.27999 799.562 1.3075Z" fill="#491C4C"/>
<path d="M800.083 1.2675L799.898 1.08301H799.911L800.096 1.2675H800.083Z" fill="#4B1D4E"/>
<path d="M786.387 38.1978L786.207 38.0173C785.8 37.6093 785.495 37.1119 785.315 36.5651C785.106 35.8856 785.001 35.1784 785.005 34.4677C784.974 31.2167 785.005 27.9637 784.972 24.7169C784.96 24.1388 784.799 23.5735 784.504 23.0759C781.349 17.9495 778.137 12.8667 774.988 7.75067C774.464 6.91519 774.084 5.99795 773.864 5.03706C773.538 3.49354 774.348 2.15333 775.778 1.48116C775.907 1.42099 776.038 1.36705 776.167 1.31934L776.35 1.49983C776.219 1.54754 776.088 1.60148 775.959 1.66165C774.529 2.33383 773.718 3.67403 774.045 5.21755C774.265 6.17867 774.646 7.09597 775.171 7.93116C778.318 13.0493 781.532 18.13 784.685 23.2439C784.98 23.7407 785.141 24.3054 785.153 24.8829C785.196 28.1338 785.153 31.3889 785.186 34.6336C785.183 35.3443 785.288 36.0514 785.496 36.7311C785.676 37.2776 785.982 37.7747 786.387 38.1833" fill="#441A46"/>
<path d="M776.35 1.49706L776.177 1.31622C776.408 1.23418 776.645 1.17296 776.886 1.1333L777.067 1.31414C776.826 1.35454 776.59 1.41574 776.36 1.49706" fill="#461B49"/>
<path d="M777.057 1.3141L776.876 1.13326C777.067 1.10194 777.26 1.08596 777.454 1.08545L777.635 1.26629C777.441 1.26688 777.248 1.28287 777.057 1.3141Z" fill="#491C4C"/>
<path d="M777.632 1.26629L777.452 1.08545H777.464C777.637 1.08535 777.81 1.09785 777.982 1.12286L778.163 1.3037C777.991 1.27869 777.818 1.26618 777.645 1.26629H777.632Z" fill="#4B1D4E"/>
<path d="M778.165 1.3034L777.984 1.12256C778.164 1.14935 778.341 1.19107 778.514 1.24728L778.697 1.42811C778.523 1.37213 778.345 1.33042 778.165 1.3034Z" fill="#4E1E51"/>
<path d="M778.697 1.42852L778.514 1.24561C778.73 1.31585 778.939 1.40778 779.137 1.51998L779.318 1.7029C779.12 1.58943 778.911 1.49679 778.695 1.42644" fill="#511F54"/>
<path d="M779.316 1.70503L779.135 1.52246C779.388 1.66822 779.62 1.84681 779.825 2.05356L780.006 2.23406C779.801 2.02732 779.569 1.84935 779.316 1.70503Z" fill="#532056"/>
<path d="M800.095 1.26709C800.71 1.27534 801.314 1.4259 801.86 1.70691C803.454 2.50149 804.115 4.0948 803.539 5.95781C803.323 6.60175 803.026 7.21585 802.656 7.78555C799.484 12.8933 796.277 17.9782 793.136 23.1004C792.756 23.7566 792.549 24.4982 792.533 25.256C792.467 28.3202 792.512 31.3885 792.496 34.4548C792.514 35.1035 792.458 35.7522 792.329 36.3884C791.928 38.102 790.656 39.1248 788.956 39.1912H788.812C788.069 39.1894 787.345 38.9494 786.748 38.5064C786.151 38.0635 785.713 37.441 785.497 36.7307C785.289 36.051 785.184 35.344 785.187 34.6332C785.156 31.3844 785.187 28.1293 785.154 24.8825C785.143 24.305 784.982 23.7403 784.686 23.2436C781.533 18.1296 778.32 13.0489 775.173 7.93078C774.647 7.09559 774.267 6.17829 774.046 5.21717C773.72 3.67158 774.53 2.33137 775.971 1.66127C776.498 1.40831 777.074 1.27443 777.659 1.26916C778.13 1.26514 778.596 1.36216 779.027 1.55365C779.457 1.74513 779.841 2.02663 780.153 2.37909C780.535 2.8242 780.875 3.30416 781.167 3.81265C783.556 7.75997 785.938 11.7128 788.314 15.6712C788.467 15.9243 788.638 16.1691 788.879 16.5425C789.49 15.5384 790.037 14.6505 790.575 13.7563C792.558 10.466 794.538 7.17423 796.516 3.88111C796.724 3.53465 796.931 3.19441 797.177 2.8687C797.946 1.81479 798.979 1.26709 800.095 1.26709Z" fill="#712B75"/>
<path d="M867.574 1.19554L867.393 1.0147C867.636 1.01358 867.878 1.03095 868.118 1.06666L868.299 1.2475C868.059 1.21277 867.817 1.1954 867.574 1.19554Z" fill="#4B1D4E"/>
<path d="M868.299 1.24529L868.119 1.06445C868.325 1.09416 868.529 1.14145 868.728 1.2058L868.911 1.38664C868.711 1.3235 868.507 1.27623 868.299 1.24529Z" fill="#4E1E51"/>
<path d="M868.91 1.38885L868.728 1.20801C868.939 1.27572 869.142 1.3656 869.335 1.47615L869.517 1.65699C869.325 1.54719 869.121 1.45735 868.91 1.38885Z" fill="#511F54"/>
<path d="M869.517 1.66145L869.334 1.48096C869.55 1.6037 869.747 1.75438 869.923 1.92908L870.106 2.11164C869.93 1.93662 869.732 1.78527 869.517 1.66145Z" fill="#532056"/>
<path d="M864.934 13.9026L864.751 13.7221C864.442 13.4007 864.204 13.0175 864.055 12.5977C863.826 11.994 863.583 11.3529 863.562 10.7305C863.496 8.69119 863.427 6.64353 863.562 4.61248C863.67 2.88017 864.52 1.72875 865.836 1.25781L866.019 1.44038C864.701 1.90924 863.853 3.06066 863.745 4.79297C863.616 6.82403 863.685 8.87168 863.745 10.911C863.766 11.5334 864.011 12.1807 864.238 12.7782C864.386 13.1985 864.624 13.5819 864.934 13.9026Z" fill="#441A46"/>
<path d="M866.015 1.44127L865.832 1.25835C866.062 1.17736 866.298 1.11753 866.539 1.07959L866.72 1.26043C866.479 1.29806 866.244 1.35861 866.015 1.44127Z" fill="#461B49"/>
<path d="M866.719 1.25992L866.539 1.07909C866.66 1.05803 866.783 1.04346 866.906 1.03543C867.067 1.02296 867.22 1.01465 867.372 1.01465L867.553 1.19549C867.403 1.19549 867.247 1.19549 867.087 1.21627C866.963 1.22736 866.84 1.24191 866.719 1.25992Z" fill="#491C4C"/>
<path d="M867.554 1.19704L867.372 1.01465H867.393L867.575 1.19704H867.554Z" fill="#4B1D4E"/>
<path d="M867.575 1.19727C869.926 1.19727 871.24 2.66195 871.215 5.64526C870.951 7.92734 870.384 10.5517 869.209 13.0102C868.729 14.0226 867.879 14.6139 866.754 14.6139C866.7 14.6139 866.646 14.6139 866.59 14.6139C865.411 14.5578 864.644 13.8566 864.241 12.7882C864.015 12.1865 863.769 11.5434 863.749 10.921C863.682 8.88167 863.613 6.83402 863.749 4.80296C863.884 2.63705 865.179 1.37983 867.095 1.22631C867.255 1.20556 867.417 1.19727 867.575 1.19727Z" fill="#712B75"/>
<path d="M396.895 94.9808H391.515C389.765 94.9824 388.031 94.6482 386.407 93.9965C383.195 92.5609 380.624 89.9922 379.187 86.7812C378.534 85.1588 378.2 83.426 378.202 81.6774C378.22 80.5865 378.661 79.5452 379.433 78.7737C380.204 78.0021 381.245 77.5609 382.336 77.5431C382.883 77.5323 383.425 77.6371 383.928 77.8509C384.431 78.0647 384.884 78.3825 385.255 78.7834C385.643 79.1584 385.951 79.6083 386.16 80.1057C386.369 80.6032 386.474 81.1379 386.471 81.6774C386.471 82.3508 386.597 83.0182 386.84 83.6461C387.123 84.233 387.492 84.7753 387.932 85.2555C388.413 85.697 388.957 86.0637 389.547 86.3432C390.174 86.5903 390.842 86.7172 391.515 86.7173H396.895C397.553 86.7222 398.206 86.595 398.814 86.3432C399.414 86.0818 399.961 85.7132 400.429 85.2555C400.892 84.7979 401.261 84.2546 401.516 83.6559C401.793 83.0366 401.936 82.3656 401.935 81.6872V54.2043C401.925 53.1275 402.338 52.0899 403.086 51.3152C403.469 50.9204 403.929 50.6077 404.436 50.3961C404.944 50.1846 405.49 50.0787 406.039 50.0848C406.586 50.0736 407.128 50.1779 407.631 50.3908C408.134 50.6036 408.586 50.9204 408.958 51.3202C409.347 51.6955 409.656 52.146 409.866 52.6443C410.076 53.1426 410.182 53.6784 410.179 54.2191V82.1794C410.187 83.9357 409.839 85.6754 409.155 87.2931C408.51 88.8976 407.555 89.8425 406.315 91.0828C405.074 92.3359 403.604 93.3384 401.984 94.0359C400.363 94.6721 398.636 94.9929 396.895 94.9808ZM418.989 94.9808C417.956 94.9948 416.959 94.6024 416.213 93.8882L416.173 93.8439C415.45 93.0816 415.055 92.0649 415.076 91.0139V73.4483C415.072 72.0887 415.321 70.7402 415.809 69.4715C416.342 68.2072 417.116 67.0587 418.088 66.0903C419.046 65.1042 420.194 64.3234 421.463 63.7954C422.732 63.2674 424.096 63.0033 425.47 63.0191H431.573C432.092 63.0139 432.607 63.1142 433.086 63.3138C433.564 63.5135 433.998 63.8084 434.359 64.1806C434.741 64.5279 435.044 64.9525 435.248 65.426C435.453 65.8996 435.554 66.4112 435.545 66.927C435.553 67.4569 435.453 67.9829 435.25 68.4729C435.048 68.9628 434.748 69.4064 434.369 69.7767C433.624 70.4927 432.627 70.8869 431.593 70.8742H425.475C425.14 70.8649 424.807 70.9287 424.5 71.0613C424.192 71.194 423.917 71.3921 423.694 71.642C423.454 71.8749 423.266 72.1546 423.14 72.4637C423.013 72.7728 422.952 73.1046 422.96 73.4384V91.0041C422.97 91.5338 422.87 92.0598 422.669 92.5499C422.468 93.0399 422.168 93.4836 421.789 93.8538C421.424 94.2228 420.987 94.5131 420.505 94.707C420.024 94.9008 419.508 94.994 418.989 94.9808Z" fill="#FF8D1A"/>
<path d="M161.218 94.9754H159.21C158.38 94.9356 157.556 94.8136 156.749 94.6112C155.958 94.4138 155.183 94.1555 154.431 93.8385H154.397C153.033 93.2128 151.78 92.3701 150.686 91.3431C150.253 91.7547 149.789 92.1315 149.298 92.4702C148.584 92.9802 147.832 93.4343 147.049 93.8286H147.014C145.291 94.5991 143.423 94.9901 141.536 94.9754H140.138C138.406 94.9738 136.69 94.6396 135.084 93.991C131.875 92.5533 129.306 89.9851 127.869 86.7758C127.219 85.1508 126.885 83.417 126.884 81.667V54.1989C126.9 53.1071 127.34 52.0644 128.112 51.2924C128.884 50.5203 129.927 50.0799 131.019 50.0646C131.564 50.0538 132.106 50.1587 132.608 50.3725C133.11 50.5863 133.562 50.9041 133.932 51.3049C134.32 51.6799 134.628 52.1297 134.837 52.6272C135.046 53.1246 135.152 53.6593 135.148 54.1989V81.667C135.145 82.3407 135.271 83.0087 135.517 83.6357C136.036 84.8506 137.004 85.8184 138.219 86.3377C138.846 86.5837 139.514 86.709 140.188 86.7069H141.531C142.188 86.7127 142.839 86.5872 143.446 86.3377C144.045 86.0908 144.589 85.725 145.043 85.2623C145.497 84.7996 145.853 84.2496 146.089 83.6456C146.366 83.0262 146.508 82.3553 146.507 81.6769V54.1989C146.504 53.657 146.611 53.1201 146.821 52.6209C147.032 52.1216 147.342 51.6705 147.733 51.295C148.116 50.9002 148.575 50.5875 149.083 50.3759C149.59 50.1644 150.136 50.0585 150.686 50.0646C151.777 50.0823 152.818 50.5236 153.59 51.2951C154.361 52.0666 154.802 53.1079 154.82 54.1989V81.667C154.818 82.3407 154.943 83.0086 155.189 83.6357C155.47 84.2247 155.836 84.7687 156.277 85.25C156.76 85.6915 157.306 86.0597 157.896 86.3427C158.503 86.5883 159.151 86.7121 159.806 86.7069H161.203C161.867 86.7266 162.528 86.6128 163.148 86.3722C163.727 86.0983 164.256 85.729 164.713 85.2796C165.175 84.8205 165.543 84.2754 165.795 83.6751C166.076 83.0569 166.221 82.3854 166.219 81.7064V54.1989C166.234 53.108 166.674 52.066 167.445 51.2941C168.216 50.5222 169.257 50.0811 170.348 50.0646C170.895 50.0537 171.437 50.1586 171.94 50.3724C172.443 50.5861 172.895 50.9039 173.267 51.3049C173.655 51.6799 173.962 52.1297 174.171 52.6272C174.38 53.1246 174.486 53.6593 174.482 54.1989V81.667C174.49 83.4248 174.141 85.1659 173.459 86.7856C172.814 88.3889 171.849 89.844 170.624 91.0626C169.386 92.3172 167.917 93.32 166.298 94.0157C164.684 94.665 162.958 94.991 161.218 94.9754ZM204.091 94.9754C203.563 94.978 203.039 94.8758 202.55 94.6746C202.061 94.4735 201.616 94.1774 201.242 93.8035C200.868 93.4296 200.572 92.9853 200.371 92.4962C200.17 92.0072 200.068 91.4831 200.07 90.9543V73.6692C200.078 73.3143 200.012 72.9617 199.877 72.6332C199.743 72.3048 199.542 72.0074 199.288 71.7596C199.049 71.5088 198.761 71.3099 198.442 71.1753C198.122 71.0407 197.779 70.9732 197.432 70.977H190.271C189.917 70.9757 189.567 71.0445 189.239 71.1793C188.912 71.3141 188.615 71.5124 188.365 71.7626C188.114 72.0129 187.916 72.3102 187.781 72.6374C187.646 72.9647 187.578 73.3153 187.579 73.6692V90.9543C187.588 91.4817 187.49 92.0053 187.29 92.4935C187.09 92.9817 186.793 93.4242 186.418 93.7942C186.06 94.1782 185.625 94.482 185.142 94.6856C184.658 94.8893 184.137 94.988 183.612 94.9754C183.084 94.9773 182.56 94.8746 182.072 94.6732C181.583 94.4717 181.14 94.1756 180.766 93.8017C180.393 93.4279 180.097 92.9838 179.896 92.495C179.695 92.0063 179.593 91.4827 179.596 90.9543V54.0856C179.593 53.5573 179.695 53.0336 179.896 52.5449C180.097 52.0562 180.393 51.6121 180.766 51.2383C181.14 50.8644 181.583 50.5682 182.072 50.3668C182.56 50.1653 183.084 50.0626 183.612 50.0646C184.137 50.0517 184.659 50.1507 185.143 50.3553C185.626 50.5598 186.061 50.8651 186.418 51.2507C186.794 51.6195 187.091 52.061 187.29 52.5485C187.49 53.0359 187.588 53.559 187.579 54.0856V63.309C188.424 63.0958 189.292 62.9884 190.163 62.9891H197.432C198.853 62.9796 200.259 63.2732 201.557 63.8504C202.831 64.3626 203.982 65.1393 204.933 66.1291C205.912 67.1132 206.682 68.2851 207.197 69.5743C207.775 70.8703 208.068 72.2749 208.058 73.6938V90.9789C208.067 91.5063 207.969 92.0299 207.769 92.5181C207.57 93.0063 207.273 93.4488 206.897 93.8188C206.537 94.1979 206.101 94.4968 205.617 94.6961C205.134 94.8954 204.614 94.9905 204.091 94.9754ZM217.065 94.9754C216.034 94.9881 215.039 94.5958 214.294 93.8828L214.25 93.8385C213.53 93.0763 213.137 92.0619 213.157 91.0134V65.1743C213.147 64.6661 213.241 64.1612 213.433 63.6905C213.625 63.2199 213.911 62.7936 214.275 62.4378C214.635 62.0625 215.069 61.765 215.549 61.5635C216.029 61.3621 216.545 61.261 217.065 61.2664C217.587 61.2543 218.106 61.3523 218.588 61.5541C219.069 61.756 219.503 62.0571 219.861 62.4378C220.236 62.7869 220.534 63.2107 220.736 63.682C220.938 64.1534 221.039 64.6617 221.032 65.1743V91.0134C221.039 91.5426 220.939 92.0677 220.737 92.5568C220.534 93.0459 220.235 93.4887 219.856 93.8582C219.491 94.2249 219.056 94.5132 218.576 94.7053C218.096 94.8974 217.582 94.9893 217.065 94.9754ZM217.065 59.1255C215.883 59.1392 214.743 58.6845 213.896 57.8606L213.841 57.8262C213.029 56.9717 212.576 55.8379 212.576 54.659C212.576 53.4802 213.029 52.3463 213.841 51.4919C214.253 51.0527 214.748 50.7005 215.298 50.456C215.848 50.2115 216.441 50.0798 217.043 50.0685C217.645 50.0572 218.243 50.1666 218.801 50.3902C219.36 50.6139 219.868 50.9473 220.296 51.3707C220.724 51.7941 221.062 52.299 221.291 52.8554C221.521 53.4118 221.636 54.0085 221.631 54.6103C221.626 55.2121 221.5 55.8068 221.261 56.3591C221.022 56.9115 220.675 57.4103 220.24 57.8262C219.823 58.2429 219.328 58.5725 218.783 58.7956C218.238 59.0187 217.654 59.1309 217.065 59.1255ZM241.856 94.9754H240.96C239.535 94.9831 238.122 94.7123 236.801 94.1781H236.767C235.532 93.6252 234.402 92.8644 233.425 91.9288C232.455 90.9596 231.67 89.8222 231.107 88.5722V88.5378C230.575 87.2159 230.305 85.8036 230.31 84.3789V65.8092H227.224C226.174 65.8279 225.16 65.4338 224.399 64.7117L224.354 64.6674C223.651 63.8945 223.261 62.8871 223.261 61.8423C223.261 60.7974 223.651 59.7901 224.354 59.0172H224.379C224.748 58.6387 225.191 58.3396 225.68 58.1382C226.17 57.9368 226.695 57.8373 227.224 57.8458H230.31V54.0364C230.297 53.5119 230.396 52.9906 230.599 52.5071C230.803 52.0235 231.107 51.5886 231.491 51.231C231.862 50.8572 232.305 50.5618 232.793 50.3623C233.281 50.1628 233.804 50.0632 234.331 50.0695C235.376 50.0837 236.373 50.5071 237.109 51.2488C237.846 51.9905 238.262 52.9914 238.268 54.0364V57.8262H244.509C245.022 57.8179 245.532 57.918 246.004 58.1198C246.477 58.3216 246.901 58.6207 247.25 58.9975C247.631 59.3546 247.933 59.7883 248.135 60.2701C248.337 60.7519 248.434 61.2709 248.421 61.7931V61.8472C248.43 62.3769 248.331 62.9027 248.129 63.3927C247.928 63.8827 247.629 64.3264 247.25 64.6969C246.489 65.42 245.474 65.8142 244.425 65.7944H238.293V84.3543C238.29 84.7002 238.359 85.0429 238.494 85.3612C238.63 85.6795 238.829 85.9666 239.08 86.2048C239.328 86.4597 239.625 86.661 239.953 86.7965C240.282 86.9319 240.634 86.9986 240.99 86.9923H241.885C242.686 86.9882 243.469 87.2226 244.135 87.6657C244.801 88.1087 245.321 88.7402 245.626 89.4796C245.932 90.219 246.011 91.0328 245.852 91.8171C245.693 92.6013 245.304 93.3205 244.735 93.8828H244.71C243.94 94.6094 242.914 95.0022 241.856 94.9754ZM271.258 94.9754H258.669C257.277 94.9814 255.898 94.7086 254.613 94.1731C252.128 93.0819 250.143 91.097 249.051 88.6116V88.5771C248.521 87.2757 248.25 85.8829 248.254 84.4773V73.4527C248.248 72.0608 248.52 70.6817 249.056 69.3972C249.604 68.1703 250.369 67.0529 251.315 66.0996C252.265 65.1535 253.39 64.4012 254.628 63.8848C255.908 63.3117 257.296 63.0181 258.698 63.0235H265.19C266.592 63.0187 267.98 63.3123 269.26 63.8848C270.497 64.4022 271.622 65.1544 272.572 66.0996C273.518 67.0487 274.269 68.174 274.782 69.4119C275.355 70.6903 275.649 72.0763 275.644 73.4773V79.1865C275.644 79.7047 275.541 80.2177 275.341 80.6957C275.141 81.1737 274.847 81.6072 274.478 81.9709C274.109 82.3345 273.671 82.6211 273.19 82.814C272.709 83.0069 272.195 83.1022 271.677 83.0943H256.119V84.5019C256.108 84.8436 256.167 85.1838 256.293 85.5017C256.419 85.8195 256.608 86.1082 256.85 86.3499C257.092 86.5916 257.38 86.7812 257.698 86.9069C258.016 87.0326 258.356 87.0919 258.698 87.0809H271.288C271.801 87.0725 272.31 87.1724 272.781 87.3743C273.253 87.5762 273.676 87.8754 274.024 88.2523C274.406 88.6094 274.707 89.0431 274.909 89.5249C275.111 90.0066 275.209 90.5256 275.196 91.0478C275.204 91.5768 275.105 92.1018 274.903 92.591C274.702 93.0801 274.403 93.5231 274.024 93.8926C273.662 94.2527 273.229 94.5345 272.754 94.7207C272.278 94.907 271.769 94.9936 271.258 94.9754ZM256.09 75.1851H267.739V73.4428C267.739 72.739 267.488 70.6817 266.971 70.1896L266.937 70.1551C266.713 69.9074 266.439 69.7107 266.132 69.5782C265.826 69.4458 265.494 69.3807 265.16 69.3873H258.669C258.322 69.3839 257.979 69.4521 257.661 69.5876C257.342 69.7231 257.055 69.9231 256.818 70.1748C256.326 70.667 256.09 72.7292 256.09 73.4428V75.1851ZM311.242 94.9754C310.693 94.9819 310.148 94.8766 309.64 94.6659C309.132 94.4552 308.673 94.1436 308.289 93.7499C307.897 93.3744 307.585 92.9227 307.374 92.4226C307.162 91.9224 307.055 91.3842 307.059 90.8411V76.6272H288.135V90.8411C288.139 91.3815 288.034 91.9171 287.825 92.4155C287.616 92.9138 287.308 93.3644 286.919 93.74C286.547 94.1398 286.095 94.4566 285.592 94.6695C285.089 94.8823 284.547 94.9866 284.001 94.9754C282.909 94.9601 281.866 94.5197 281.094 93.7476C280.322 92.9756 279.882 91.9329 279.866 90.8411V54.1989C279.884 53.1079 280.325 52.0666 281.097 51.2951C281.868 50.5236 282.91 50.0823 284.001 50.0646C284.547 50.0543 285.089 50.1595 285.592 50.3732C286.095 50.587 286.547 50.9044 286.919 51.3049C287.307 51.6799 287.615 52.1297 287.824 52.6272C288.033 53.1246 288.139 53.6593 288.135 54.1989V68.3045H307.059V54.1989C307.055 53.6565 307.162 53.1191 307.374 52.6197C307.586 52.1204 307.897 51.6696 308.289 51.295C308.672 50.8997 309.131 50.5867 309.639 50.3751C310.147 50.1635 310.692 50.0579 311.242 50.0646C312.334 50.0799 313.377 50.5203 314.149 51.2924C314.921 52.0644 315.361 53.1071 315.377 54.1989V90.8411C315.364 91.9336 314.924 92.9778 314.152 93.7504C313.379 94.5229 312.335 94.9626 311.242 94.9754ZM343.155 94.9114H342.358L335.059 95.0344C332.17 95.0837 329.182 95.1181 326.529 93.9714C321.032 91.5991 318.738 84.8514 321.977 79.7475C323.242 77.7646 325.155 76.2811 327.391 75.5493C331.141 74.3484 335.231 75.4213 339.139 74.9144C339.242 73.7037 339.272 72.296 338.361 71.4692C337.652 70.8441 336.614 70.8146 335.669 70.8146H327.346C326.145 70.8146 324.885 70.8146 323.822 70.2585C323.244 69.9643 322.752 69.5265 322.392 68.987C322.032 68.4475 321.817 67.8245 321.768 67.1779C321.719 66.5313 321.836 65.8829 322.11 65.295C322.383 64.7071 322.804 64.1994 323.33 63.8208C324.664 62.866 326.436 62.8808 328.075 62.8955C330.698 62.9251 333.321 62.8956 335.95 63.0088C338.209 63.1269 340.546 63.4172 342.461 64.6181C344.641 65.9864 346.005 68.3931 346.644 70.8884C347.284 73.3837 347.279 75.9923 347.27 78.5663V89.1038C347.27 90.9691 347.102 93.1347 345.567 94.183C344.843 94.6396 344.01 94.8913 343.155 94.9114ZM328.833 86.3181C329.329 86.7953 329.995 87.057 330.683 87.0465H339.252V81.6326H330.683C330.337 81.6292 329.994 81.6974 329.676 81.8329C329.357 81.9684 329.07 82.1683 328.833 82.42C328.344 82.9866 328.085 83.7148 328.104 84.4626C328.092 85.153 328.354 85.8201 328.833 86.3181ZM366.267 94.9754H365.372C363.947 94.9826 362.534 94.7118 361.213 94.1781H361.178C359.944 93.6241 358.814 92.8634 357.836 91.9288C356.865 90.96 356.078 89.8226 355.513 88.5722V88.5378C354.982 87.2159 354.711 85.8036 354.716 84.3789V65.8092H351.635C350.584 65.8287 349.568 65.4345 348.805 64.7117L348.761 64.6674C348.058 63.8945 347.668 62.8871 347.668 61.8423C347.668 60.7974 348.058 59.7901 348.761 59.0172H348.785C349.156 58.6386 349.6 58.3394 350.09 58.138C350.58 57.9366 351.105 57.8372 351.635 57.8458H354.716V54.0364C354.704 53.5115 354.803 52.9899 355.008 52.5063C355.212 52.0226 355.517 51.5879 355.902 51.231C356.272 50.8558 356.713 50.5593 357.201 50.3597C357.688 50.16 358.211 50.0613 358.737 50.0695C359.786 50.0785 360.79 50.4993 361.532 51.2413C362.274 51.9833 362.695 52.9871 362.704 54.0364V57.8262H368.699C369.212 57.8177 369.721 57.9177 370.192 58.1195C370.664 58.3214 371.087 58.6206 371.435 58.9975C371.816 59.3546 372.118 59.7883 372.32 60.2701C372.522 60.7519 372.619 61.2709 372.607 61.7931V61.8472C372.615 62.3769 372.516 62.9027 372.314 63.3927C372.113 63.8827 371.814 64.3264 371.435 64.6969H371.411C370.65 65.4204 369.635 65.8148 368.586 65.7944H362.704V84.3543C362.701 84.7004 362.769 85.0434 362.904 85.3619C363.04 85.6804 363.24 85.9673 363.492 86.2048C363.738 86.46 364.034 86.6617 364.362 86.7971C364.69 86.9326 365.042 86.9991 365.396 86.9923H366.292C367.092 86.9882 367.875 87.2226 368.542 87.6657C369.208 88.1087 369.727 88.7402 370.033 89.4796C370.339 90.219 370.417 91.0328 370.259 91.8171C370.1 92.6013 369.711 93.3205 369.142 93.8828C368.366 94.6134 367.332 95.0064 366.267 94.9754Z" fill="#00B5CE"/>
<path d="M130.354 103.859V116.749H138.047V119.673H126.879V103.859H130.354Z" fill="#00B5CE"/>
<path d="M140.163 106.453V103.859H143.308V106.453H140.163ZM143.308 108.225V119.673H140.163V108.225H143.308Z" fill="#00B5CE"/>
<path d="M149.022 119.673L145.085 108.225H148.383L150.843 116.041L153.255 108.225H156.38L152.502 119.673H149.022Z" fill="#00B5CE"/>
<path d="M161.469 116.926C161.986 117.334 162.616 117.573 163.274 117.611C163.931 117.649 164.585 117.484 165.145 117.138C165.529 116.914 165.826 116.567 165.987 116.154H168.758C168.446 117.346 167.725 118.391 166.72 119.107C165.723 119.72 164.568 120.028 163.398 119.993C162.558 120.009 161.722 119.862 160.937 119.559C160.24 119.291 159.611 118.87 159.097 118.329C158.585 117.779 158.19 117.131 157.935 116.424C157.653 115.635 157.515 114.802 157.527 113.963C157.519 113.147 157.66 112.337 157.945 111.571C158.21 110.859 158.617 110.208 159.141 109.657C159.667 109.113 160.296 108.68 160.991 108.382C161.745 108.066 162.556 107.908 163.374 107.92C164.255 107.898 165.129 108.092 165.918 108.486C166.623 108.845 167.235 109.364 167.705 110.001C168.169 110.655 168.503 111.392 168.689 112.172C168.898 113.003 168.972 113.862 168.911 114.716H160.686C160.656 115.526 160.936 116.316 161.469 116.926ZM165.027 110.902C164.802 110.683 164.532 110.514 164.235 110.407C163.939 110.3 163.624 110.257 163.31 110.282C162.879 110.268 162.45 110.356 162.059 110.538C161.751 110.688 161.479 110.903 161.262 111.168C161.07 111.403 160.926 111.674 160.839 111.965C160.766 112.211 160.718 112.463 160.696 112.718H165.81C165.721 112.052 165.45 111.424 165.027 110.902Z" fill="#00B5CE"/>
<path d="M177.947 108.545C178.281 107.571 178.801 106.672 179.478 105.897C180.159 105.134 180.999 104.529 181.939 104.125C184.037 103.272 186.386 103.272 188.484 104.125C189.415 104.532 190.247 105.137 190.921 105.897C191.596 106.672 192.114 107.572 192.446 108.545C192.808 109.603 192.988 110.714 192.978 111.833C192.987 112.93 192.808 114.02 192.446 115.056C192.115 116.017 191.597 116.902 190.921 117.66C190.244 118.408 189.412 119.001 188.484 119.397C186.383 120.237 184.04 120.237 181.939 119.397C181.002 119.004 180.162 118.411 179.478 117.66C178.8 116.902 178.28 116.017 177.947 115.056C177.586 114.02 177.406 112.93 177.415 111.833C177.405 110.714 177.585 109.603 177.947 108.545ZM181.126 113.772C181.272 114.376 181.524 114.949 181.87 115.465C182.21 115.968 182.666 116.383 183.198 116.676C183.821 116.974 184.502 117.129 185.192 117.129C185.882 117.129 186.563 116.974 187.185 116.676C187.718 116.383 188.173 115.968 188.514 115.465C188.86 114.949 189.111 114.376 189.257 113.772C189.411 113.137 189.489 112.486 189.488 111.833C189.489 111.155 189.412 110.479 189.257 109.82C189.114 109.201 188.863 108.613 188.514 108.082C188.176 107.574 187.72 107.155 187.185 106.862C186.563 106.563 185.882 106.409 185.192 106.409C184.502 106.409 183.821 106.563 183.198 106.862C182.663 107.155 182.207 107.574 181.87 108.082C181.521 108.613 181.269 109.201 181.126 109.82C180.972 110.479 180.894 111.155 180.895 111.833C180.894 112.486 180.972 113.137 181.126 113.772Z" fill="#00B5CE"/>
<path d="M198.392 108.225V109.819H198.456C198.816 109.192 199.356 108.686 200.006 108.367C200.62 108.07 201.293 107.915 201.975 107.915C202.682 107.89 203.386 108.007 204.047 108.259C204.548 108.458 204.988 108.785 205.322 109.209C205.645 109.648 205.868 110.151 205.976 110.686C206.105 111.322 206.168 111.97 206.163 112.62V119.663H203.013V113.205C203.062 112.474 202.909 111.744 202.57 111.094C202.393 110.849 202.153 110.656 201.877 110.533C201.6 110.41 201.296 110.363 200.995 110.395C200.647 110.364 200.296 110.417 199.972 110.55C199.648 110.683 199.361 110.891 199.135 111.158C198.751 111.67 198.559 112.508 198.559 113.673V119.673H195.414V108.225H198.392Z" fill="#00B5CE"/>
<path d="M212.167 103.859V119.673H209.022V103.859H212.167Z" fill="#00B5CE"/>
<path d="M215.136 106.453V103.859H218.271V106.453H215.136ZM218.281 108.225V119.673H215.136V108.225H218.281Z" fill="#00B5CE"/>
<path d="M224.147 108.225V109.819H224.216C224.576 109.191 225.116 108.686 225.766 108.367C226.38 108.07 227.053 107.915 227.735 107.915C228.442 107.89 229.146 108.007 229.807 108.259C230.303 108.46 230.737 108.788 231.067 109.209C231.391 109.647 231.614 110.151 231.722 110.685C231.851 111.322 231.914 111.97 231.909 112.62V119.663H228.754V113.205C228.803 112.474 228.65 111.744 228.311 111.094C228.134 110.849 227.896 110.655 227.62 110.533C227.344 110.41 227.041 110.362 226.741 110.395C226.392 110.364 226.041 110.417 225.718 110.55C225.394 110.683 225.107 110.891 224.88 111.158C224.497 111.67 224.305 112.508 224.305 113.673V119.672H221.16V108.225H224.147Z" fill="#00B5CE"/>
<path d="M238.056 116.926C238.573 117.334 239.203 117.573 239.861 117.611C240.519 117.649 241.172 117.484 241.733 117.138C242.116 116.914 242.413 116.567 242.574 116.154H245.34C245.028 117.346 244.307 118.391 243.303 119.107C242.305 119.72 241.151 120.028 239.981 119.993C239.14 120.009 238.304 119.862 237.52 119.559C236.823 119.291 236.194 118.87 235.679 118.329C235.166 117.78 234.77 117.132 234.517 116.424C234.233 115.636 234.095 114.802 234.109 113.963C234.101 113.147 234.243 112.337 234.527 111.571C234.79 110.86 235.196 110.209 235.72 109.661C236.244 109.112 236.875 108.677 237.574 108.382C238.327 108.065 239.138 107.907 239.956 107.92C240.838 107.898 241.711 108.092 242.5 108.486C243.205 108.844 243.816 109.363 244.282 110.001C244.756 110.652 245.099 111.39 245.291 112.172C245.5 113.003 245.574 113.862 245.513 114.716H237.283C237.251 115.525 237.527 116.315 238.056 116.926ZM241.61 110.902C241.385 110.682 241.116 110.513 240.821 110.406C240.525 110.299 240.21 110.257 239.897 110.282C239.464 110.269 239.035 110.356 238.642 110.538C238.335 110.69 238.064 110.905 237.845 111.168C237.654 111.404 237.512 111.675 237.426 111.965C237.351 112.21 237.303 112.463 237.283 112.718H242.387C242.302 112.052 242.033 111.423 241.61 110.902Z" fill="#00B5CE"/>
<path d="M264.835 108.082C264.411 107.395 263.765 106.874 263.004 106.605C262.612 106.463 262.197 106.391 261.779 106.394C261.087 106.373 260.401 106.529 259.786 106.847C259.25 107.14 258.794 107.559 258.457 108.067C258.106 108.597 257.854 109.185 257.714 109.804C257.556 110.464 257.479 111.14 257.482 111.817C257.479 112.471 257.557 113.122 257.714 113.757C257.857 114.361 258.109 114.935 258.457 115.45C258.797 115.953 259.253 116.368 259.786 116.66C260.401 116.978 261.087 117.134 261.779 117.113C262.24 117.138 262.702 117.062 263.131 116.892C263.561 116.723 263.949 116.462 264.269 116.129C264.897 115.41 265.281 114.511 265.367 113.56H268.733C268.66 114.485 268.427 115.391 268.044 116.237C267.692 117.007 267.19 117.7 266.568 118.275C265.953 118.842 265.23 119.279 264.442 119.559C263.582 119.863 262.676 120.013 261.764 120.002C260.643 120.022 259.53 119.807 258.496 119.372C257.558 118.98 256.718 118.387 256.035 117.635C255.358 116.877 254.838 115.992 254.505 115.031C254.143 113.995 253.964 112.905 253.973 111.808C253.963 110.69 254.143 109.578 254.505 108.52C254.838 107.546 255.358 106.647 256.035 105.872C256.715 105.108 257.556 104.503 258.496 104.1C260.319 103.351 262.346 103.257 264.23 103.834C264.983 104.074 265.688 104.446 266.312 104.932C266.933 105.418 267.45 106.024 267.833 106.714C268.248 107.474 268.504 108.312 268.586 109.175H265.219C265.168 108.788 265.038 108.415 264.835 108.082Z" fill="#00B5CE"/>
<path d="M271.234 111.473C271.488 110.763 271.892 110.117 272.42 109.578C272.947 109.04 273.585 108.622 274.29 108.353C275.074 108.051 275.91 107.904 276.751 107.92C277.591 107.905 278.427 108.052 279.212 108.353C279.916 108.621 280.555 109.035 281.087 109.569C281.604 110.116 282.001 110.764 282.253 111.473C282.542 112.271 282.684 113.115 282.672 113.964C282.682 114.803 282.54 115.636 282.253 116.425C281.993 117.133 281.585 117.779 281.057 118.32C280.527 118.853 279.887 119.264 279.182 119.525C278.395 119.818 277.561 119.961 276.721 119.949C275.882 119.963 275.047 119.82 274.26 119.525C273.561 119.262 272.926 118.851 272.4 118.32C271.872 117.779 271.465 117.133 271.204 116.425C270.917 115.636 270.775 114.803 270.786 113.964C270.783 113.113 270.935 112.27 271.234 111.473ZM274.093 115.307C274.172 115.722 274.326 116.119 274.546 116.479C274.755 116.824 275.048 117.11 275.397 117.311C275.805 117.53 276.264 117.637 276.726 117.621C277.192 117.637 277.654 117.53 278.065 117.311C278.42 117.112 278.718 116.825 278.931 116.479C279.149 116.118 279.303 115.721 279.384 115.307C279.473 114.865 279.517 114.415 279.517 113.964C279.517 113.511 279.473 113.059 279.384 112.615C279.305 112.199 279.152 111.801 278.931 111.439C278.714 111.097 278.417 110.813 278.065 110.612C277.657 110.383 277.194 110.271 276.726 110.287C276.293 110.268 275.863 110.364 275.48 110.567C275.096 110.769 274.774 111.07 274.546 111.439C274.323 111.8 274.17 112.198 274.093 112.615C274.004 113.059 273.96 113.511 273.96 113.964C273.96 114.413 274.004 114.862 274.093 115.303V115.307Z" fill="#00B5CE"/>
<path d="M293.229 118.211C292.888 118.801 292.372 119.271 291.753 119.554C291.114 119.834 290.422 119.973 289.725 119.963C288.943 119.98 288.169 119.812 287.466 119.471C286.832 119.152 286.282 118.688 285.861 118.117C285.427 117.524 285.103 116.857 284.906 116.148C284.692 115.399 284.585 114.624 284.586 113.845C284.585 113.092 284.693 112.343 284.906 111.62C285.105 110.935 285.429 110.293 285.861 109.726C286.305 109.144 286.881 108.675 287.542 108.36C288.203 108.044 288.929 107.89 289.661 107.91C290.33 107.906 290.991 108.054 291.595 108.343C292.202 108.61 292.716 109.052 293.072 109.612H293.116V103.854H296.261V119.668H293.273V118.191L293.229 118.211ZM293.081 112.556C293.004 112.146 292.849 111.755 292.624 111.404C292.415 111.072 292.132 110.794 291.797 110.592C291.405 110.373 290.961 110.266 290.512 110.282C290.056 110.267 289.604 110.374 289.203 110.592C288.856 110.792 288.563 111.074 288.352 111.414C288.121 111.769 287.955 112.162 287.859 112.575C287.764 113.023 287.716 113.48 287.717 113.939C287.718 114.386 287.771 114.832 287.874 115.267C287.966 115.689 288.133 116.091 288.366 116.454C288.589 116.793 288.883 117.08 289.228 117.295C289.608 117.516 290.043 117.627 290.483 117.615C290.934 117.631 291.382 117.524 291.777 117.305C292.12 117.102 292.406 116.816 292.609 116.473C292.823 116.106 292.973 115.705 293.052 115.287C293.141 114.835 293.186 114.375 293.185 113.914C293.196 113.459 293.161 113.004 293.081 112.556Z" fill="#00B5CE"/>
<path d="M299.12 106.453V103.859H302.265V106.453H299.12ZM302.265 108.225V119.673H299.12V108.225H302.265Z" fill="#00B5CE"/>
<path d="M308.132 108.225V109.819H308.201C308.561 109.192 309.101 108.686 309.751 108.367C310.365 108.07 311.038 107.915 311.72 107.915C312.425 107.89 313.128 108.007 313.787 108.259C314.288 108.458 314.728 108.785 315.062 109.209C315.385 109.648 315.608 110.152 315.716 110.686C315.846 111.322 315.908 111.97 315.903 112.62V119.663H312.758V113.205C312.807 112.474 312.654 111.744 312.315 111.094C312.139 110.849 311.9 110.656 311.625 110.533C311.349 110.41 311.045 110.363 310.745 110.395C310.397 110.364 310.046 110.417 309.722 110.55C309.398 110.683 309.111 110.891 308.885 111.158C308.501 111.67 308.309 112.508 308.309 113.673V119.673H305.164V108.225H308.132Z" fill="#00B5CE"/>
<path d="M329.502 120.514C329.369 121.122 329.092 121.689 328.694 122.168C328.203 122.732 327.589 123.175 326.898 123.462C325.9 123.856 324.83 124.037 323.758 123.994C323.179 123.993 322.602 123.922 322.04 123.782C321.477 123.652 320.938 123.431 320.446 123.128C319.97 122.839 319.562 122.451 319.25 121.991C318.919 121.493 318.731 120.914 318.708 120.317H321.829C321.875 120.572 321.976 120.814 322.125 121.027C322.274 121.239 322.466 121.417 322.69 121.548C323.147 121.78 323.654 121.896 324.167 121.887C324.53 121.919 324.895 121.863 325.233 121.724C325.57 121.585 325.869 121.368 326.106 121.09C326.526 120.506 326.733 119.795 326.691 119.077V117.571H326.647C326.316 118.168 325.797 118.639 325.171 118.91C324.554 119.196 323.882 119.344 323.202 119.343C322.439 119.362 321.681 119.207 320.987 118.89C320.388 118.602 319.866 118.177 319.461 117.65C319.051 117.1 318.754 116.474 318.585 115.809C318.399 115.082 318.306 114.335 318.31 113.584C318.308 112.86 318.416 112.14 318.63 111.448C318.828 110.79 319.147 110.175 319.57 109.632C319.985 109.106 320.511 108.677 321.11 108.377C321.769 108.058 322.494 107.899 323.226 107.915C323.906 107.901 324.58 108.044 325.195 108.333C325.801 108.653 326.298 109.146 326.622 109.75H326.667V108.225H329.654V118.944C329.659 119.471 329.608 119.998 329.502 120.514ZM325.195 116.705C325.526 116.535 325.813 116.293 326.037 115.996C326.258 115.7 326.425 115.367 326.529 115.012C326.642 114.627 326.699 114.227 326.696 113.826C326.696 113.366 326.646 112.907 326.549 112.457C326.47 112.06 326.32 111.679 326.106 111.335C325.9 111.013 325.618 110.748 325.284 110.562C324.888 110.356 324.445 110.256 323.999 110.272C323.604 110.261 323.212 110.352 322.862 110.538C322.544 110.714 322.271 110.961 322.065 111.261C321.836 111.573 321.669 111.925 321.573 112.3C321.477 112.703 321.429 113.116 321.43 113.53C321.429 113.943 321.47 114.356 321.553 114.761C321.627 115.147 321.768 115.517 321.971 115.853C322.17 116.176 322.439 116.448 322.759 116.651C323.126 116.869 323.548 116.976 323.975 116.961C324.393 116.978 324.809 116.89 325.185 116.705H325.195Z" fill="#00B5CE"/>
<path d="M337.962 110.326V108.225H339.838V107.339C339.821 106.879 339.896 106.42 340.059 105.99C340.222 105.56 340.47 105.167 340.788 104.834C341.421 104.177 342.381 103.849 343.667 103.849C343.947 103.849 344.228 103.849 344.508 103.884C344.789 103.918 345.065 103.923 345.33 103.938V106.286C344.948 106.241 344.563 106.22 344.179 106.222C344.013 106.205 343.845 106.224 343.687 106.275C343.529 106.327 343.383 106.411 343.258 106.522C343.052 106.807 342.954 107.156 342.983 107.506V108.195H345.153V110.297H342.983V119.648H339.838V110.297L337.962 110.326Z" fill="#00B5CE"/>
<path d="M346.999 111.473C347.253 110.763 347.657 110.117 348.185 109.578C348.713 109.04 349.351 108.622 350.055 108.353C350.84 108.051 351.675 107.904 352.516 107.92C353.356 107.906 354.192 108.053 354.977 108.353C355.679 108.622 356.316 109.037 356.847 109.569C357.375 110.113 357.782 110.762 358.043 111.473C358.332 112.271 358.473 113.115 358.461 113.964C358.472 114.803 358.33 115.636 358.043 116.425C357.782 117.133 357.375 117.779 356.847 118.32C356.318 118.852 355.68 119.263 354.977 119.525C354.19 119.817 353.355 119.96 352.516 119.949C351.676 119.963 350.842 119.82 350.055 119.525C349.355 119.262 348.721 118.851 348.195 118.32C347.667 117.779 347.26 117.133 346.999 116.425C346.712 115.636 346.57 114.803 346.58 113.964C346.568 113.115 346.71 112.271 346.999 111.473ZM349.858 115.307C349.939 115.721 350.093 116.118 350.311 116.479C350.521 116.823 350.814 117.109 351.162 117.311C351.57 117.53 352.029 117.637 352.491 117.621C352.959 117.636 353.422 117.529 353.835 117.311C354.189 117.112 354.485 116.825 354.696 116.479C354.917 116.119 355.07 115.722 355.149 115.307C355.238 114.865 355.283 114.415 355.282 113.964C355.282 113.511 355.238 113.059 355.149 112.615C355.072 112.198 354.919 111.8 354.696 111.439C354.481 111.097 354.186 110.813 353.835 110.612C353.425 110.384 352.96 110.272 352.491 110.287C352.027 110.27 351.567 110.383 351.162 110.612C350.817 110.816 350.525 111.1 350.311 111.439C350.09 111.801 349.937 112.199 349.858 112.615C349.769 113.059 349.725 113.511 349.725 113.964C349.725 114.413 349.769 114.862 349.858 115.303V115.307Z" fill="#00B5CE"/>
<path d="M363.856 108.225V110.351H363.9C364.048 109.995 364.249 109.663 364.496 109.367C364.744 109.066 365.036 108.804 365.362 108.589C365.685 108.379 366.034 108.214 366.401 108.097C366.773 107.978 367.161 107.919 367.552 107.92C367.786 107.923 368.018 107.96 368.241 108.028V110.952C368.065 110.918 367.888 110.894 367.71 110.878C367.51 110.855 367.31 110.843 367.109 110.843C366.602 110.826 366.097 110.923 365.633 111.129C365.243 111.304 364.905 111.575 364.648 111.916C364.397 112.264 364.219 112.659 364.127 113.078C364.019 113.551 363.966 114.035 363.969 114.52V119.678H360.824V108.225H363.856Z" fill="#00B5CE"/>
<path d="M380.245 103.859V110.415L386.422 103.859H390.763L384.586 110.105L391.363 119.673H386.998L382.238 112.566L380.245 114.579V119.673H376.75V103.859H380.245Z" fill="#00B5CE"/>
<path d="M392.913 106.453V103.859H396.058V106.453H392.913ZM396.058 108.225V119.673H392.913V108.225H396.058Z" fill="#00B5CE"/>
<path d="M407.063 118.211C406.731 118.797 406.226 119.266 405.616 119.554C404.977 119.834 404.286 119.973 403.589 119.963C402.807 119.98 402.033 119.812 401.33 119.471C400.696 119.152 400.146 118.688 399.725 118.117C399.289 117.525 398.965 116.858 398.77 116.148C398.554 115.4 398.446 114.624 398.45 113.845C398.446 113.092 398.554 112.342 398.77 111.62C398.967 110.934 399.291 110.292 399.725 109.726C400.168 109.143 400.743 108.674 401.403 108.359C402.063 108.043 402.788 107.889 403.52 107.91C404.19 107.907 404.853 108.055 405.459 108.343C406.065 108.611 406.579 109.053 406.935 109.612H406.98V103.854H410.125V119.668H407.132V118.191L407.063 118.211ZM406.93 112.556C406.853 112.147 406.699 111.756 406.478 111.404C406.266 111.073 405.982 110.795 405.646 110.592C405.254 110.373 404.81 110.266 404.361 110.282C403.907 110.267 403.456 110.374 403.057 110.592C402.71 110.793 402.416 111.075 402.201 111.414C401.98 111.771 401.824 112.164 401.738 112.575C401.64 113.023 401.592 113.48 401.595 113.939C401.595 114.386 401.646 114.832 401.748 115.267C401.84 115.689 402.006 116.091 402.24 116.454C402.462 116.794 402.756 117.082 403.101 117.295C403.48 117.517 403.913 117.627 404.351 117.615C404.803 117.633 405.251 117.525 405.646 117.305C405.99 117.104 406.276 116.817 406.478 116.473C406.692 116.106 406.842 115.705 406.921 115.287C407.01 114.835 407.055 114.375 407.053 113.914C407.058 113.458 407.017 113.003 406.93 112.556Z" fill="#00B5CE"/>
<path d="M415.514 116.828C415.647 117.066 415.832 117.272 416.055 117.429C416.288 117.586 416.546 117.701 416.818 117.768C417.112 117.843 417.415 117.881 417.719 117.881C417.952 117.881 418.185 117.854 418.413 117.803C418.645 117.757 418.869 117.675 419.077 117.561C419.271 117.451 419.439 117.3 419.569 117.118C419.707 116.912 419.776 116.668 419.766 116.42C419.766 115.927 419.451 115.593 418.826 115.356C417.97 115.058 417.093 114.821 416.203 114.648C415.745 114.544 415.297 114.421 414.859 114.284C414.448 114.153 414.057 113.966 413.698 113.727C413.364 113.505 413.085 113.211 412.881 112.866C412.664 112.477 412.557 112.036 412.571 111.591C412.544 110.958 412.692 110.33 412.999 109.775C413.278 109.312 413.671 108.927 414.141 108.658C414.635 108.375 415.174 108.18 415.735 108.082C416.334 107.969 416.942 107.913 417.551 107.915C418.158 107.914 418.763 107.973 419.358 108.092C419.909 108.198 420.437 108.399 420.918 108.688C421.378 108.971 421.768 109.355 422.06 109.81C422.383 110.342 422.569 110.945 422.601 111.567H419.614C419.62 111.319 419.56 111.075 419.439 110.859C419.317 110.643 419.14 110.464 418.925 110.341C418.467 110.113 417.959 110.002 417.448 110.016C417.271 110.016 417.079 110.016 416.872 110.051C416.678 110.071 416.487 110.119 416.306 110.194C416.14 110.267 415.993 110.378 415.878 110.518C415.753 110.678 415.69 110.877 415.701 111.08C415.697 111.21 415.723 111.34 415.777 111.46C415.83 111.579 415.911 111.685 416.011 111.769C416.25 111.963 416.524 112.11 416.818 112.202C417.193 112.321 417.574 112.42 417.96 112.497C418.388 112.586 418.821 112.684 419.264 112.787C419.717 112.888 420.164 113.013 420.603 113.161C421.019 113.298 421.413 113.497 421.769 113.752C422.104 113.991 422.383 114.3 422.586 114.658C422.805 115.069 422.912 115.531 422.896 115.996C422.927 116.616 422.791 117.233 422.503 117.783C422.215 118.332 421.785 118.794 421.258 119.122C420.745 119.441 420.177 119.663 419.584 119.776C418.954 119.901 418.312 119.963 417.67 119.963C417.008 119.965 416.348 119.897 415.701 119.761C415.101 119.643 414.528 119.418 414.008 119.097C413.513 118.787 413.095 118.368 412.787 117.871C412.461 117.285 412.291 116.624 412.295 115.952H415.283C415.279 116.26 415.359 116.562 415.514 116.828Z" fill="#00B5CE"/>
<path d="M103.989 39.7189C101.525 38.572 98.7075 38.4503 96.1545 39.3806C93.6016 40.311 91.5228 42.2172 90.3751 44.68L61.5386 106.576C60.9701 107.795 60.6475 109.114 60.5892 110.458C60.5309 111.802 60.738 113.144 61.1988 114.408C61.6595 115.672 62.3648 116.833 63.2744 117.824C64.184 118.815 65.28 119.617 66.4997 120.184C67.719 120.752 69.0382 121.074 70.382 121.132C71.7258 121.19 73.0678 120.983 74.3315 120.522C75.5952 120.062 76.7558 119.356 77.747 118.447C78.7381 117.538 79.5405 116.442 80.1083 115.223L108.95 53.3324C110.097 50.8692 110.218 48.0513 109.288 45.4984C108.358 42.9455 106.451 40.8666 103.989 39.7189Z" fill="#FF8D1A"/>
<path fill-rule="evenodd" clip-rule="evenodd" d="M115.771 7.92487L120.471 6.12844C120.736 6.02779 121.019 5.98548 121.302 6.00439C121.585 6.02331 121.86 6.10301 122.109 6.23804C122.358 6.37308 122.575 6.56026 122.745 6.78683C122.915 7.01339 123.034 7.27399 123.094 7.55083L124.153 12.4726C124.678 14.961 124.301 17.5551 123.09 19.7912L120.137 25.2346L120.476 25.6973C121.082 26.5268 121.423 27.5204 121.454 28.5473C121.485 29.5742 121.204 30.5864 120.648 31.4508L118.015 35.4964C117.929 35.6302 117.811 35.741 117.672 35.8193C117.534 35.8976 117.378 35.941 117.219 35.9459C117.059 35.9507 116.901 35.9168 116.758 35.8471C116.615 35.7774 116.49 35.6739 116.396 35.5456C115.414 34.2063 114.255 33.006 112.951 31.9774L109.506 38.3363C109.448 38.466 109.364 38.5823 109.259 38.6779C109.155 38.7735 109.031 38.8462 108.897 38.8915C108.762 38.9368 108.62 38.9537 108.478 38.941C108.337 38.9284 108.2 38.8865 108.076 38.818C107.951 38.7496 107.843 38.656 107.757 38.5433C107.67 38.4306 107.609 38.3013 107.575 38.1634C107.541 38.0255 107.537 37.8822 107.562 37.7425C107.586 37.6028 107.64 37.4698 107.719 37.3519L110.313 32.568C109.996 32.3282 109.668 32.1048 109.328 31.8986L107.635 35.0141C107.582 35.1504 107.5 35.2737 107.395 35.3759C107.29 35.478 107.165 35.5566 107.027 35.6064C106.89 35.6562 106.743 35.676 106.597 35.6646C106.451 35.6531 106.309 35.6107 106.181 35.54C106.053 35.4694 105.941 35.3722 105.854 35.255C105.766 35.1377 105.704 35.0031 105.673 34.8601C105.641 34.7172 105.641 34.5692 105.671 34.426C105.701 34.2828 105.762 34.1477 105.849 34.0297L107.502 30.993C107.153 30.8552 106.779 30.7174 106.375 30.5796L103.846 35.2405C103.788 35.3702 103.704 35.4865 103.599 35.5821C103.495 35.6777 103.371 35.7505 103.237 35.7958C103.102 35.8411 102.96 35.8579 102.818 35.8453C102.677 35.8326 102.54 35.7907 102.416 35.7223C102.291 35.6538 102.183 35.5603 102.097 35.4476C102.01 35.3349 101.949 35.2055 101.915 35.0676C101.881 34.9298 101.877 34.7865 101.902 34.6468C101.927 34.5071 101.98 34.374 102.059 34.2561L105.504 27.9219C103.93 27.4087 102.295 27.1043 100.642 27.0163C100.483 27.007 100.328 26.9592 100.192 26.8772C100.056 26.7952 99.941 26.6813 99.8583 26.5453C99.7755 26.4094 99.727 26.2553 99.7169 26.0965C99.7067 25.9376 99.7352 25.7787 99.7999 25.6333L101.769 21.2037C102.184 20.261 102.879 19.4684 103.759 18.9333C104.639 18.3981 105.662 18.1461 106.69 18.2113L107.261 18.2408L110.249 12.7875C111.443 10.5541 113.404 8.82726 115.771 7.92487ZM114.477 20.3079C114.99 20.5899 115.575 20.713 116.158 20.6616C116.741 20.6102 117.296 20.3866 117.752 20.0192C118.208 19.6519 118.544 19.1573 118.718 18.5984C118.892 18.0394 118.896 17.4414 118.73 16.8801C118.563 16.3188 118.234 15.8197 117.783 15.4462C117.332 15.0726 116.781 14.8415 116.198 14.7821C115.616 14.7228 115.029 14.8379 114.512 15.1128C113.995 15.3878 113.572 15.8101 113.295 16.3263C112.928 17.0118 112.847 17.8144 113.068 18.5599C113.289 19.3053 113.795 19.9335 114.477 20.3079Z" fill="#FF8D1A"/>
<path d="M46.3006 58.3186C48.7644 57.172 51.5828 57.051 54.1358 57.9823C56.6888 58.9136 58.7673 60.8209 59.9141 63.2847L80.0932 106.561C80.661 107.781 80.9831 109.1 81.0411 110.444C81.0991 111.787 80.8918 113.13 80.4311 114.393C79.9705 115.657 79.2654 116.817 78.3562 117.809C77.447 118.8 76.3514 119.602 75.1321 120.17C72.6689 121.317 69.851 121.439 67.2981 120.508C64.7452 119.578 62.6663 117.672 61.5186 115.209L41.3395 71.9321C40.1926 69.4689 40.0709 66.651 41.0012 64.0981C41.9316 61.5452 43.8378 59.4663 46.3006 58.3186Z" fill="#00B5CE"/>
<path d="M54.9336 58.3183C53.7138 57.7499 52.3938 57.4274 51.0493 57.3694C49.7048 57.3114 48.362 57.5189 47.0977 57.9801C45.8334 58.4413 44.6724 59.1471 43.6811 60.0572C42.6897 60.9674 41.8874 62.064 41.3201 63.2843L21.141 106.561C20.5732 107.78 20.2511 109.1 20.1931 110.443C20.1351 111.787 20.3424 113.129 20.8031 114.393C21.2638 115.657 21.9688 116.817 22.878 117.808C23.7873 118.799 24.8828 119.602 26.1021 120.17C28.5653 121.317 31.3832 121.438 33.9361 120.508C36.489 119.578 38.5679 117.671 39.7156 115.209L59.8947 71.9318C61.0417 69.4686 61.1633 66.6507 60.233 64.0978C59.3027 61.5449 57.3965 59.466 54.9336 58.3183Z" fill="#FF8D1A"/>
<path d="M5.92281 58.3183C7.14241 57.7507 8.46189 57.4289 9.80588 57.3712C11.1499 57.3136 12.4921 57.5213 13.7558 57.9824C15.0195 58.4436 16.18 59.1492 17.171 60.0589C18.162 60.9686 18.9641 62.0646 19.5314 63.2844L39.7105 106.561C40.2783 107.78 40.6004 109.1 40.6584 110.443C40.7164 111.787 40.5091 113.129 40.0484 114.393C39.5877 115.657 38.8827 116.817 37.9734 117.808C37.0642 118.8 35.9687 119.602 34.7494 120.17C32.2862 121.317 29.4683 121.438 26.9154 120.508C24.3625 119.578 22.2836 117.672 21.1359 115.209L0.9568 71.9318C-0.189828 69.468 -0.310796 66.6497 0.620504 64.0967C1.5518 61.5437 3.45908 59.4652 5.92281 58.3183Z" fill="#00B5CE"/>
<path d="M483 56.75C483 53.9886 485.239 51.75 488 51.75H518.592V50.4812C518.592 46.1131 523.8 43.8452 526.998 46.8206L542.065 60.8393C544.191 62.8169 544.191 66.1831 542.065 68.1607L526.998 82.1794C523.799 85.1548 518.592 82.8869 518.592 78.5188V77.25H488C485.239 77.25 483 75.0114 483 72.25V56.75Z" fill="url(#paint0_linear)" fill-opacity="0.8"/>
<defs>
<linearGradient id="paint0_linear" x1="544.897" y1="62.9821" x2="483" y2="62.7842" gradientUnits="userSpaceOnUse">
<stop stop-color="#EF5B81"/>
<stop offset="1" stop-color="#FBD7E0" stop-opacity="0.79"/>
</linearGradient>
</defs>
</svg>
