<svg width="32" height="32" viewBox="0 0 32 32" fill="none" xmlns="http://www.w3.org/2000/svg">
<g filter="url(#filter0_ii)">
<rect width="32" height="32" rx="6" fill="white"/>
</g>
<path d="M7.81793 11.9364C7.81793 11.3924 7.84948 11.2324 7.95989 11.0724C8.11762 10.8644 8.35422 10.8004 8.96938 10.8004C9.43108 10.8004 9.80536 10.4261 9.80536 9.96442V9.58441C9.80536 8.91283 9.26094 8.36841 8.58936 8.36841H7.45515C6.05133 8.36841 5.10493 9.29641 5.10493 10.7044V13.0724C5.10493 13.5796 5.08771 13.9489 5.03526 14.2203C4.90521 14.8932 4.25317 15.475 4.25317 16.1604C4.25317 16.8458 4.90521 17.4276 5.03526 18.1005C5.08771 18.3719 5.10493 18.7412 5.10493 19.2484V21.6164C5.10493 23.0244 6.05133 23.9524 7.45515 23.9524H8.58937C9.26094 23.9524 9.80536 23.408 9.80536 22.7364V22.3564C9.80536 21.8947 9.43108 21.5204 8.96938 21.5204C8.37 21.5204 8.14917 21.4724 7.99144 21.2804C7.84948 21.1364 7.81793 20.9604 7.81793 20.3844V18.8324C7.81793 17.5762 7.81793 14.7446 7.81793 13.4884V11.9364Z" fill="#0047FF"/>
<path d="M7.81793 11.9364C7.81793 11.3924 7.84948 11.2324 7.95989 11.0724C8.11762 10.8644 8.35422 10.8004 8.96938 10.8004C9.43108 10.8004 9.80536 10.4261 9.80536 9.96442V9.58441C9.80536 8.91283 9.26094 8.36841 8.58936 8.36841H7.45515C6.05133 8.36841 5.10493 9.29641 5.10493 10.7044V13.0724C5.10493 13.5796 5.08771 13.9489 5.03526 14.2203C4.90521 14.8932 4.25317 15.475 4.25317 16.1604C4.25317 16.8458 4.90521 17.4276 5.03526 18.1005C5.08771 18.3719 5.10493 18.7412 5.10493 19.2484V21.6164C5.10493 23.0244 6.05133 23.9524 7.45515 23.9524H8.58937C9.26094 23.9524 9.80536 23.408 9.80536 22.7364V22.3564C9.80536 21.8947 9.43108 21.5204 8.96938 21.5204C8.37 21.5204 8.14917 21.4724 7.99144 21.2804C7.84948 21.1364 7.81793 20.9604 7.81793 20.3844V18.8324C7.81793 17.5762 7.81793 14.7446 7.81793 13.4884V11.9364Z" fill="url(#paint0_linear)"/>
<path d="M7.81793 11.9364C7.81793 11.3924 7.84948 11.2324 7.95989 11.0724C8.11762 10.8644 8.35422 10.8004 8.96938 10.8004C9.43108 10.8004 9.80536 10.4261 9.80536 9.96442V9.58441C9.80536 8.91283 9.26094 8.36841 8.58936 8.36841H7.45515C6.05133 8.36841 5.10493 9.29641 5.10493 10.7044V13.0724C5.10493 13.5796 5.08771 13.9489 5.03526 14.2203C4.90521 14.8932 4.25317 15.475 4.25317 16.1604C4.25317 16.8458 4.90521 17.4276 5.03526 18.1005C5.08771 18.3719 5.10493 18.7412 5.10493 19.2484V21.6164C5.10493 23.0244 6.05133 23.9524 7.45515 23.9524H8.58937C9.26094 23.9524 9.80536 23.408 9.80536 22.7364V22.3564C9.80536 21.8947 9.43108 21.5204 8.96938 21.5204C8.37 21.5204 8.14917 21.4724 7.99144 21.2804C7.84948 21.1364 7.81793 20.9604 7.81793 20.3844V18.8324C7.81793 17.5762 7.81793 14.7446 7.81793 13.4884V11.9364Z" fill="#FF8D1A"/>
<path d="M18.2022 8.36841C17.6473 8.36841 17.1516 8.71546 16.9618 9.2369L12.2474 22.1887C11.9326 23.0536 12.5731 23.9684 13.4936 23.9684C14.0515 23.9684 14.5497 23.6192 14.7401 23.0947L19.443 10.1388C19.7554 9.27803 19.1179 8.36841 18.2022 8.36841Z" fill="#0047FF"/>
<path d="M18.2022 8.36841C17.6473 8.36841 17.1516 8.71546 16.9618 9.2369L12.2474 22.1887C11.9326 23.0536 12.5731 23.9684 13.4936 23.9684C14.0515 23.9684 14.5497 23.6192 14.7401 23.0947L19.443 10.1388C19.7554 9.27803 19.1179 8.36841 18.2022 8.36841Z" fill="url(#paint1_linear)"/>
<path d="M18.2022 8.36841C17.6473 8.36841 17.1516 8.71546 16.9618 9.2369L12.2474 22.1887C11.9326 23.0536 12.5731 23.9684 13.4936 23.9684C14.0515 23.9684 14.5497 23.6192 14.7401 23.0947L19.443 10.1388C19.7554 9.27803 19.1179 8.36841 18.2022 8.36841Z" fill="#FF8D1A"/>
<path d="M23.8915 20.3844C23.8915 20.9284 23.86 21.0884 23.7495 21.2484C23.5918 21.4564 23.371 21.5204 22.7401 21.5204C22.2784 21.5204 21.9041 21.8947 21.9041 22.3564V22.7364C21.9041 23.408 22.4485 23.9524 23.1201 23.9524H24.2543C25.6581 23.9524 26.6045 23.0244 26.6045 21.6164V19.2484C26.6045 18.7412 26.6217 18.3719 26.6742 18.1005C26.8042 17.4276 27.4563 16.8458 27.4563 16.1604C27.4563 15.475 26.8042 14.8932 26.6742 14.2203C26.6217 13.9489 26.6045 13.5796 26.6045 13.0724V10.7044C26.6045 9.29641 25.6581 8.36841 24.2543 8.36841H23.1201C22.4485 8.36841 21.9041 8.91283 21.9041 9.58441V9.96442C21.9041 10.4261 22.2784 10.8004 22.7401 10.8004C23.3394 10.8004 23.5603 10.8484 23.718 11.0404C23.86 11.1844 23.8915 11.3604 23.8915 11.9364V13.4884C23.8915 14.7446 23.8915 17.5762 23.8915 18.8324V20.3844Z" fill="#0047FF"/>
<path d="M23.8915 20.3844C23.8915 20.9284 23.86 21.0884 23.7495 21.2484C23.5918 21.4564 23.371 21.5204 22.7401 21.5204C22.2784 21.5204 21.9041 21.8947 21.9041 22.3564V22.7364C21.9041 23.408 22.4485 23.9524 23.1201 23.9524H24.2543C25.6581 23.9524 26.6045 23.0244 26.6045 21.6164V19.2484C26.6045 18.7412 26.6217 18.3719 26.6742 18.1005C26.8042 17.4276 27.4563 16.8458 27.4563 16.1604C27.4563 15.475 26.8042 14.8932 26.6742 14.2203C26.6217 13.9489 26.6045 13.5796 26.6045 13.0724V10.7044C26.6045 9.29641 25.6581 8.36841 24.2543 8.36841H23.1201C22.4485 8.36841 21.9041 8.91283 21.9041 9.58441V9.96442C21.9041 10.4261 22.2784 10.8004 22.7401 10.8004C23.3394 10.8004 23.5603 10.8484 23.718 11.0404C23.86 11.1844 23.8915 11.3604 23.8915 11.9364V13.4884C23.8915 14.7446 23.8915 17.5762 23.8915 18.8324V20.3844Z" fill="url(#paint2_linear)"/>
<path d="M23.8915 20.3844C23.8915 20.9284 23.86 21.0884 23.7495 21.2484C23.5918 21.4564 23.371 21.5204 22.7401 21.5204C22.2784 21.5204 21.9041 21.8947 21.9041 22.3564V22.7364C21.9041 23.408 22.4485 23.9524 23.1201 23.9524H24.2543C25.6581 23.9524 26.6045 23.0244 26.6045 21.6164V19.2484C26.6045 18.7412 26.6217 18.3719 26.6742 18.1005C26.8042 17.4276 27.4563 16.8458 27.4563 16.1604C27.4563 15.475 26.8042 14.8932 26.6742 14.2203C26.6217 13.9489 26.6045 13.5796 26.6045 13.0724V10.7044C26.6045 9.29641 25.6581 8.36841 24.2543 8.36841H23.1201C22.4485 8.36841 21.9041 8.91283 21.9041 9.58441V9.96442C21.9041 10.4261 22.2784 10.8004 22.7401 10.8004C23.3394 10.8004 23.5603 10.8484 23.718 11.0404C23.86 11.1844 23.8915 11.3604 23.8915 11.9364V13.4884C23.8915 14.7446 23.8915 17.5762 23.8915 18.8324V20.3844Z" fill="#FF8D1A"/>
<defs>
<filter id="filter0_ii" x="0" y="-3" width="32" height="39" filterUnits="userSpaceOnUse" color-interpolation-filters="sRGB">
<feFlood flood-opacity="0" result="BackgroundImageFix"/>
<feBlend mode="normal" in="SourceGraphic" in2="BackgroundImageFix" result="shape"/>
<feColorMatrix in="SourceAlpha" type="matrix" values="0 0 0 0 0 0 0 0 0 0 0 0 0 0 0 0 0 0 127 0" result="hardAlpha"/>
<feOffset dy="-3"/>
<feGaussianBlur stdDeviation="2"/>
<feComposite in2="hardAlpha" operator="arithmetic" k2="-1" k3="1"/>
<feColorMatrix type="matrix" values="0 0 0 0 0 0 0 0 0 0 0 0 0 0 0 0 0 0 0.21 0"/>
<feBlend mode="normal" in2="shape" result="effect1_innerShadow"/>
<feColorMatrix in="SourceAlpha" type="matrix" values="0 0 0 0 0 0 0 0 0 0 0 0 0 0 0 0 0 0 127 0" result="hardAlpha"/>
<feOffset dy="4"/>
<feGaussianBlur stdDeviation="5"/>
<feComposite in2="hardAlpha" operator="arithmetic" k2="-1" k3="1"/>
<feColorMatrix type="matrix" values="0 0 0 0 1 0 0 0 0 1 0 0 0 0 1 0 0 0 0.25 0"/>
<feBlend mode="normal" in2="effect1_innerShadow" result="effect2_innerShadow"/>
</filter>
<linearGradient id="paint0_linear" x1="15.8727" y1="-5.09869" x2="15.8727" y2="22.187" gradientUnits="userSpaceOnUse">
<stop offset="0.00520833" stop-color="white" stop-opacity="0.08"/>
<stop offset="0.0851933" stop-opacity="0.08"/>
<stop offset="0.336988" stop-color="white" stop-opacity="0.1"/>
<stop offset="0.660917" stop-color="white" stop-opacity="0.1"/>
<stop offset="1" stop-opacity="0.1"/>
</linearGradient>
<linearGradient id="paint1_linear" x1="15.8727" y1="-5.09869" x2="15.8727" y2="22.187" gradientUnits="userSpaceOnUse">
<stop offset="0.00520833" stop-color="white" stop-opacity="0.08"/>
<stop offset="0.0851933" stop-opacity="0.08"/>
<stop offset="0.336988" stop-color="white" stop-opacity="0.1"/>
<stop offset="0.660917" stop-color="white" stop-opacity="0.1"/>
<stop offset="1" stop-opacity="0.1"/>
</linearGradient>
<linearGradient id="paint2_linear" x1="15.8727" y1="-5.09869" x2="15.8727" y2="22.187" gradientUnits="userSpaceOnUse">
<stop offset="0.00520833" stop-color="white" stop-opacity="0.08"/>
<stop offset="0.0851933" stop-opacity="0.08"/>
<stop offset="0.336988" stop-color="white" stop-opacity="0.1"/>
<stop offset="0.660917" stop-color="white" stop-opacity="0.1"/>
<stop offset="1" stop-opacity="0.1"/>
</linearGradient>
</defs>
</svg>
