<svg width="32" height="32" viewBox="0 0 32 32" fill="none" xmlns="http://www.w3.org/2000/svg">
<g filter="url(#filter0_ii)">
<rect width="32" height="32" rx="6" fill="white"/>
</g>
<path d="M10.3813 13.7181V10.5802H7.26782V8.73791H10.3813V5.6001H12.209V8.73791H15.3224V10.5802H12.209V13.7181H10.3813Z" fill="#A461D8"/>
<path d="M7.80177 22.9045L10.0033 20.6857L7.80172 18.4668L9.09422 17.1641L11.2958 19.383L13.4972 17.1642L14.7896 18.4668L12.5882 20.6856L14.7897 22.9044L13.4972 24.2071L11.2957 21.9882L9.09417 24.2071L7.80177 22.9045Z" fill="#A461D8"/>
<path d="M25.1953 8.86377H19.8831C19.4481 8.86377 19.0955 9.21641 19.0955 9.65141C19.0955 10.0864 19.4481 10.439 19.8831 10.439H25.1953C25.6303 10.439 25.9829 10.0864 25.9829 9.65141C25.9829 9.21641 25.6303 8.86377 25.1953 8.86377Z" fill="#A461D8"/>
<path d="M25.1953 18.2742H19.883C19.4481 18.2742 19.0955 18.6268 19.0955 19.0618C19.0955 19.4967 19.4481 19.8494 19.883 19.8494H25.1953C25.6303 19.8494 25.9829 19.4967 25.9829 19.0618C25.9829 18.6268 25.6303 18.2742 25.1953 18.2742Z" fill="#A461D8"/>
<path d="M25.1953 21.4558H19.883C19.4481 21.4558 19.0955 21.8084 19.0955 22.2434C19.0955 22.6784 19.4481 23.031 19.883 23.031H25.1953C25.6303 23.031 25.9829 22.6784 25.9829 22.2434C25.9829 21.8084 25.6303 21.4558 25.1953 21.4558Z" fill="#A461D8"/>
<defs>
<filter id="filter0_ii" x="0" y="-3" width="32" height="39" filterUnits="userSpaceOnUse" color-interpolation-filters="sRGB">
<feFlood flood-opacity="0" result="BackgroundImageFix"/>
<feBlend mode="normal" in="SourceGraphic" in2="BackgroundImageFix" result="shape"/>
<feColorMatrix in="SourceAlpha" type="matrix" values="0 0 0 0 0 0 0 0 0 0 0 0 0 0 0 0 0 0 127 0" result="hardAlpha"/>
<feOffset dy="-3"/>
<feGaussianBlur stdDeviation="2"/>
<feComposite in2="hardAlpha" operator="arithmetic" k2="-1" k3="1"/>
<feColorMatrix type="matrix" values="0 0 0 0 0 0 0 0 0 0 0 0 0 0 0 0 0 0 0.21 0"/>
<feBlend mode="normal" in2="shape" result="effect1_innerShadow"/>
<feColorMatrix in="SourceAlpha" type="matrix" values="0 0 0 0 0 0 0 0 0 0 0 0 0 0 0 0 0 0 127 0" result="hardAlpha"/>
<feOffset dy="4"/>
<feGaussianBlur stdDeviation="5"/>
<feComposite in2="hardAlpha" operator="arithmetic" k2="-1" k3="1"/>
<feColorMatrix type="matrix" values="0 0 0 0 1 0 0 0 0 1 0 0 0 0 1 0 0 0 0.25 0"/>
<feBlend mode="normal" in2="effect1_innerShadow" result="effect2_innerShadow"/>
</filter>
</defs>
</svg>
