<svg width="32" height="32" viewBox="0 0 32 32" fill="none" xmlns="http://www.w3.org/2000/svg">
<g filter="url(#filter0_ii)">
<rect width="32" height="32" rx="6" fill="white"/>
</g>
<path d="M13.2386 12.4053H14.3664C14.3664 11.2398 14.5323 9.89414 13.4588 8.82062C13.1217 8.48349 12.8026 8.21651 12.5212 7.98096C11.7769 7.35805 11.4749 7.07829 11.4749 6.3999H10.3471V14.723C9.94357 14.4524 9.45863 14.2943 8.93738 14.2943C7.53819 14.2943 6.3999 15.4326 6.3999 16.8317C6.3999 18.2309 7.53819 19.3692 8.93738 19.3692C10.3451 19.3692 11.4987 18.2146 11.4736 16.7847H11.4749V8.57202C11.8304 8.8826 12.2296 9.18631 12.6613 9.61802C13.3767 10.3334 13.2386 11.2724 13.2386 12.4053Z" fill="#4EAAED"/>
<path d="M15.9662 12.2148V21.001C15.5627 20.7304 15.0778 20.5723 14.5565 20.5723C13.1573 20.5723 12.019 21.7106 12.019 23.1097C12.019 24.5089 13.1573 25.6472 14.5565 25.6472C15.9557 25.6472 17.094 24.5089 17.094 23.1097V15.3695C18.9631 14.9993 22.6431 14.2705 24.4997 13.9028V18.7455C24.0962 18.4749 23.6112 18.3167 23.0899 18.3167C21.6908 18.3167 20.5525 19.455 20.5525 20.8542C20.5525 22.2534 21.6908 23.3916 23.0899 23.3916C24.4891 23.3916 25.6274 22.2534 25.6274 20.8542C25.6274 20.2325 25.6274 10.7735 25.6274 10.2996L15.9662 12.2148Z" fill="#4EAAED"/>
<defs>
<filter id="filter0_ii" x="0" y="-3" width="32" height="39" filterUnits="userSpaceOnUse" color-interpolation-filters="sRGB">
<feFlood flood-opacity="0" result="BackgroundImageFix"/>
<feBlend mode="normal" in="SourceGraphic" in2="BackgroundImageFix" result="shape"/>
<feColorMatrix in="SourceAlpha" type="matrix" values="0 0 0 0 0 0 0 0 0 0 0 0 0 0 0 0 0 0 127 0" result="hardAlpha"/>
<feOffset dy="-3"/>
<feGaussianBlur stdDeviation="2"/>
<feComposite in2="hardAlpha" operator="arithmetic" k2="-1" k3="1"/>
<feColorMatrix type="matrix" values="0 0 0 0 0 0 0 0 0 0 0 0 0 0 0 0 0 0 0.21 0"/>
<feBlend mode="normal" in2="shape" result="effect1_innerShadow"/>
<feColorMatrix in="SourceAlpha" type="matrix" values="0 0 0 0 0 0 0 0 0 0 0 0 0 0 0 0 0 0 127 0" result="hardAlpha"/>
<feOffset dy="4"/>
<feGaussianBlur stdDeviation="5"/>
<feComposite in2="hardAlpha" operator="arithmetic" k2="-1" k3="1"/>
<feColorMatrix type="matrix" values="0 0 0 0 1 0 0 0 0 1 0 0 0 0 1 0 0 0 0.25 0"/>
<feBlend mode="normal" in2="effect1_innerShadow" result="effect2_innerShadow"/>
</filter>
</defs>
</svg>
