<svg width="166" height="49" viewBox="0 0 166 49" fill="none" xmlns="http://www.w3.org/2000/svg">
<path d="M159.425 49H6.30029C2.87029 49 0.175293 46.305 0.175293 42.875V6.125C0.175293 2.695 2.87029 0 6.30029 0H159.425C162.855 0 165.55 2.695 165.55 6.125V42.875C165.55 46.1825 162.855 49 159.425 49Z" fill="black"/>
<path d="M159.425 0.98C162.243 0.98 164.57 3.3075 164.57 6.125V42.875C164.57 45.6925 162.243 48.02 159.425 48.02H6.30029C3.48279 48.02 1.15529 45.6925 1.15529 42.875V6.125C1.15529 3.3075 3.48279 0.98 6.30029 0.98H159.425ZM159.425 0H6.30029C2.87029 0 0.175293 2.695 0.175293 6.125V42.875C0.175293 46.305 2.87029 49 6.30029 49H159.425C162.855 49 165.55 46.305 165.55 42.875V6.125C165.55 2.8175 162.855 0 159.425 0Z" fill="#A6A6A6"/>
<path d="M40.3543 24.868C40.3543 21.438 43.1718 19.8455 43.2943 19.723C41.7018 17.3955 39.2518 17.1505 38.3943 17.028C36.3118 16.783 34.3518 18.253 33.2493 18.253C32.1468 18.253 30.5543 17.028 28.8393 17.028C26.6343 17.028 24.5518 18.3755 23.3268 20.3355C20.9993 24.378 22.7143 30.503 25.0418 33.8105C26.1443 35.403 27.4918 37.2405 29.2068 37.2405C30.9218 37.118 31.5343 36.138 33.6168 36.138C35.6993 36.138 36.1893 37.2405 38.0268 37.2405C39.8643 37.2405 40.9668 35.648 42.0693 33.933C43.4168 32.0955 43.9068 30.258 43.9068 30.1355C43.9068 30.258 40.3543 28.9105 40.3543 24.868Z" fill="white"/>
<path d="M36.9243 14.9452C37.7818 13.8427 38.5168 12.2502 38.2718 10.6577C36.9243 10.6577 35.3318 11.5152 34.3518 12.7402C33.4943 13.7202 32.7593 15.3127 33.0043 16.9052C34.4743 16.9052 36.0668 16.0477 36.9243 14.9452Z" fill="white"/>
<path d="M61.7923 33.1983H56.0348L54.6873 37.3633H52.2373L57.7498 22.1733H60.1998L65.7123 37.3633H63.2623L61.7923 33.1983ZM56.6473 31.3608H61.3023L58.9748 24.6233H58.8523L56.6473 31.3608Z" fill="white"/>
<path d="M77.5951 31.8506C77.5951 35.2806 75.7576 37.4856 72.9401 37.4856C71.3476 37.4856 70.1226 36.7506 69.5101 35.5256V41.0381H67.1826V26.3381H69.3876V28.1756C70.0001 26.9506 71.3476 26.2156 72.9401 26.2156C75.6351 26.0931 77.5951 28.4206 77.5951 31.8506ZM75.1451 31.8506C75.1451 29.6456 74.0426 28.1756 72.2051 28.1756C70.4901 28.1756 69.2651 29.6456 69.2651 31.8506C69.2651 34.0556 70.4901 35.5256 72.2051 35.5256C74.0426 35.5256 75.1451 34.0556 75.1451 31.8506Z" fill="white"/>
<path d="M89.7226 31.8506C89.7226 35.2806 87.8851 37.4856 85.0676 37.4856C83.4751 37.4856 82.2501 36.7506 81.6376 35.5256V41.0381H79.3101V26.3381H81.5151V28.1756C82.1276 26.9506 83.4751 26.2156 85.0676 26.2156C87.8851 26.0931 89.7226 28.4206 89.7226 31.8506ZM87.3951 31.8506C87.3951 29.6456 86.2926 28.1756 84.4551 28.1756C82.7401 28.1756 81.5151 29.6456 81.5151 31.8506C81.5151 34.0556 82.7401 35.5256 84.4551 35.5256C86.2926 35.5256 87.3951 34.0556 87.3951 31.8506Z" fill="white"/>
<path d="M97.8071 33.0757C97.9296 34.5457 99.3996 35.5257 101.482 35.5257C103.442 35.5257 104.79 34.5457 104.79 33.1982C104.79 31.9732 103.932 31.3607 101.972 30.8707L100.012 30.3807C97.1946 29.6457 95.9696 28.4207 95.9696 26.3382C95.9696 23.7657 98.2971 21.9282 101.482 21.9282C104.667 21.9282 106.872 23.7657 106.995 26.3382H104.667C104.545 24.8682 103.32 23.8882 101.482 23.8882C99.6446 23.8882 98.4196 24.8682 98.4196 26.2157C98.4196 27.3182 99.2771 27.9307 101.237 28.4207L102.952 28.7882C106.015 29.5232 107.362 30.7482 107.362 32.9532C107.362 35.7707 105.035 37.6082 101.482 37.6082C98.0521 37.6082 95.8471 35.8932 95.7246 33.0757H97.8071Z" fill="white"/>
<path d="M112.018 23.6431V26.2156H114.1V28.0531H112.018V34.1781C112.018 35.1581 112.385 35.5256 113.365 35.5256C113.61 35.5256 113.978 35.5256 114.1 35.5256V37.3631C113.855 37.4856 113.365 37.4856 112.875 37.4856C110.67 37.4856 109.813 36.6281 109.813 34.5456V28.1756H108.22V26.3381H109.813V23.7656H112.018V23.6431Z" fill="white"/>
<path d="M115.447 31.8508C115.447 28.4208 117.53 26.2158 120.715 26.2158C123.9 26.2158 125.982 28.4208 125.982 31.8508C125.982 35.4033 123.9 37.4858 120.715 37.4858C117.407 37.4858 115.447 35.2808 115.447 31.8508ZM123.655 31.8508C123.655 29.4008 122.552 28.0533 120.715 28.0533C118.877 28.0533 117.775 29.4008 117.775 31.8508C117.775 34.3008 118.877 35.6483 120.715 35.6483C122.552 35.6483 123.655 34.1783 123.655 31.8508Z" fill="white"/>
<path d="M127.82 26.2158H130.025V28.1758C130.392 26.9508 131.372 26.2158 132.72 26.2158C133.087 26.2158 133.332 26.2158 133.455 26.3383V28.4208C133.332 28.2983 132.842 28.2983 132.475 28.2983C131.005 28.2983 130.147 29.2783 130.147 30.8708V37.4858H127.82V26.2158Z" fill="white"/>
<path d="M143.99 34.0558C143.745 36.0158 141.662 37.4858 139.212 37.4858C136.027 37.4858 133.945 35.2808 133.945 31.8508C133.945 28.4208 135.905 26.0933 139.09 26.0933C142.152 26.0933 144.112 28.1758 144.112 31.6058V32.3408H136.272V32.4633C136.272 34.3008 137.497 35.6483 139.212 35.6483C140.437 35.6483 141.417 35.0358 141.785 34.0558H143.99ZM136.272 30.7483H141.785C141.785 29.0333 140.682 27.9308 139.09 27.9308C137.497 27.9308 136.395 29.1558 136.272 30.7483Z" fill="white"/>
<path d="M56.28 10.6567C58.485 10.6567 59.71 12.0042 59.71 14.3317C59.71 16.6592 58.485 18.0067 56.28 18.0067H53.585V10.6567H56.28ZM54.81 17.0267H56.1575C57.6275 17.0267 58.6075 16.0467 58.6075 14.4542C58.6075 12.8617 57.75 11.8817 56.1575 11.8817H54.81V17.0267Z" fill="white"/>
<path d="M61.0576 15.1896C61.0576 13.3521 62.0376 12.3721 63.6301 12.3721C65.2226 12.3721 66.2026 13.4746 66.2026 15.1896C66.2026 17.0271 65.2226 18.0071 63.6301 18.0071C62.0376 18.1296 61.0576 17.0271 61.0576 15.1896ZM65.1001 15.1896C65.1001 13.9646 64.6101 13.3521 63.6301 13.3521C62.6501 13.3521 62.1601 14.0871 62.1601 15.1896C62.1601 16.4146 62.6501 17.1496 63.6301 17.1496C64.6101 17.1496 65.1001 16.4146 65.1001 15.1896Z" fill="white"/>
<path d="M73.1851 18.0066H72.0826L70.9801 13.9641H70.8576L69.7551 18.0066H68.6526L67.1826 12.4941H68.2851L69.2651 16.6591H69.3876L70.4901 12.4941H71.5926L72.6951 16.6591H72.8176L73.7976 12.4941H74.9001L73.1851 18.0066Z" fill="white"/>
<path d="M76.0024 12.4946H77.1049V13.3521H77.2274C77.4724 12.7396 78.0849 12.3721 78.8199 12.3721C80.0449 12.3721 80.7799 13.1071 80.7799 14.4546V18.0071H79.6774V14.6996C79.6774 13.8421 79.3099 13.3521 78.4524 13.3521C77.5949 13.3521 77.1049 13.8421 77.1049 14.6996V17.8846H76.0024V12.4946Z" fill="white"/>
<path d="M82.3726 10.2896H83.4751V18.0071H82.3726V10.2896Z" fill="white"/>
<path d="M84.9453 15.1896C84.9453 13.3521 85.9253 12.3721 87.5178 12.3721C89.1103 12.3721 90.0903 13.4746 90.0903 15.1896C90.0903 17.0271 89.1103 18.0071 87.5178 18.0071C85.9253 18.1296 84.9453 17.0271 84.9453 15.1896ZM89.1103 15.1896C89.1103 13.9646 88.6203 13.3521 87.6403 13.3521C86.6603 13.3521 86.1703 14.0871 86.1703 15.1896C86.1703 16.4146 86.6603 17.1496 87.6403 17.1496C88.4978 17.1496 89.1103 16.4146 89.1103 15.1896Z" fill="white"/>
<path d="M91.3149 16.4146C91.3149 15.4346 92.0499 14.8221 93.3974 14.8221L94.8674 14.6996V14.2096C94.8674 13.5971 94.4999 13.3521 93.7649 13.3521C93.1524 13.3521 92.7849 13.5971 92.6624 13.9646H91.5599C91.6824 12.9846 92.5399 12.3721 93.7649 12.3721C95.1124 12.3721 95.9699 13.1071 95.9699 14.2096V18.0071H94.8674V17.2721H94.7449C94.3774 17.8846 93.7649 18.1296 93.0299 18.1296C92.0499 18.1296 91.3149 17.3946 91.3149 16.4146ZM94.8674 15.9246V15.4346L93.5199 15.5571C92.7849 15.5571 92.4174 15.9246 92.4174 16.2921C92.4174 16.7821 92.9074 17.0271 93.3974 17.0271C94.2549 17.1496 94.8674 16.6596 94.8674 15.9246Z" fill="white"/>
<path d="M97.3179 15.1896C97.3179 13.4746 98.1754 12.3721 99.6454 12.3721C100.38 12.3721 100.993 12.7396 101.36 13.3521H101.483V10.2896H102.585V18.0071H101.483V17.1496H101.36C100.993 17.7621 100.38 18.1296 99.6454 18.1296C98.2979 18.1296 97.3179 17.0271 97.3179 15.1896ZM98.5429 15.1896C98.5429 16.4146 99.1554 17.0271 100.013 17.0271C100.87 17.0271 101.483 16.2921 101.483 15.1896C101.483 14.0871 100.87 13.3521 100.013 13.3521C99.0329 13.3521 98.5429 14.0871 98.5429 15.1896Z" fill="white"/>
<path d="M106.995 15.1896C106.995 13.3521 107.975 12.3721 109.568 12.3721C111.16 12.3721 112.14 13.4746 112.14 15.1896C112.14 17.0271 111.16 18.0071 109.568 18.0071C107.975 18.1296 106.995 17.0271 106.995 15.1896ZM111.16 15.1896C111.16 13.9646 110.67 13.3521 109.69 13.3521C108.71 13.3521 108.22 14.0871 108.22 15.1896C108.22 16.4146 108.71 17.1496 109.69 17.1496C110.548 17.1496 111.16 16.4146 111.16 15.1896Z" fill="white"/>
<path d="M113.732 12.4946H114.835V13.3521H114.957C115.202 12.7396 115.815 12.3721 116.55 12.3721C117.775 12.3721 118.51 13.1071 118.51 14.4546V18.0071H117.407V14.6996C117.407 13.8421 117.04 13.3521 116.182 13.3521C115.325 13.3521 114.835 13.8421 114.835 14.6996V17.8846H113.732V12.4946Z" fill="white"/>
<path d="M124.513 11.1475V12.495H125.738V13.475H124.513V16.2925C124.513 16.905 124.758 17.15 125.248 17.15C125.37 17.15 125.493 17.15 125.615 17.15V18.0075C125.493 18.0075 125.248 18.0075 125.003 18.0075C123.778 18.0075 123.288 17.64 123.288 16.5375V13.475H122.43V12.6175H123.288V11.1475H124.513Z" fill="white"/>
<path d="M127.208 10.2896H128.31V13.3521H128.433C128.678 12.7396 129.29 12.3721 130.148 12.3721C131.373 12.3721 132.108 13.1071 132.108 14.4546V18.0071H131.005V14.6996C131.005 13.8421 130.638 13.3521 129.78 13.3521C128.923 13.3521 128.433 13.9646 128.433 14.6996V17.8846H127.33V10.2896H127.208Z" fill="white"/>
<path d="M138.355 16.5371C138.11 17.5171 137.253 18.1296 135.905 18.1296C134.313 18.1296 133.333 17.0271 133.333 15.3121C133.333 13.5971 134.313 12.3721 135.905 12.3721C137.498 12.3721 138.355 13.4746 138.355 15.1896V15.5571H134.435C134.435 16.5371 135.048 17.1496 135.905 17.1496C136.518 17.1496 137.008 16.9046 137.253 16.5371H138.355ZM134.435 14.6996H137.253C137.253 13.8421 136.64 13.2296 135.905 13.2296C135.048 13.3521 134.558 13.8421 134.435 14.6996Z" fill="white"/>
</svg>
