<svg width="1920" height="639" viewBox="0 0 1920 639" fill="none" xmlns="http://www.w3.org/2000/svg">
<mask id="mask0_383_4347" style="mask-type:alpha" maskUnits="userSpaceOnUse" x="0" y="0" width="1920" height="639">
<rect width="1920" height="639" fill="#C4C4C4"/>
</mask>
<g mask="url(#mask0_383_4347)">
<path d="M615.536 178.541C313.393 -7.45451 78.9286 -12.3302 0 8.30013V1034H1920V292.098C1916.43 286.717 1843.93 255.153 1703.57 230.033C1538.72 200.53 1333.93 261.96 1250.89 299.095C1165 336.408 917.679 364.537 615.536 178.541Z" fill="#00245c"/>
<mask id="mask1_383_4347" style="mask-type:alpha" maskUnits="userSpaceOnUse" x="0" y="0" width="1920" height="852">
<path d="M614.784 178.702C312.484 -7.13748 78.9697 -12.3714 0 8.24162V851.404H1919.93V292.164C1916.36 286.787 1868.26 267.213 1704.46 231.938C1540.66 196.663 1333.55 262.051 1250.47 299.155C1164.54 336.437 917.085 364.542 614.784 178.702Z" fill="#7B2E82"/>
</mask>
<g mask="url(#mask1_383_4347)">
<g opacity="0.4">
<path d="M242.208 561.309C242.594 560.92 243.019 560.532 243.483 560.105C242.865 560.571 242.517 560.959 242.208 561.309Z" fill="#3D22AA"/>
<path d="M98.2828 603.652C96.1191 603.73 95.1146 603.846 97.0078 603.924C98.1669 603.846 97.5101 603.769 98.2828 603.652Z" fill="#3D22AA"/>
<path d="M26.5332 601.674C26.5332 601.674 28.0787 601.79 29.6242 601.868C30.397 601.907 31.1697 601.984 31.7493 602.023C32.3288 602.062 32.6766 602.062 32.6766 602.062C31.4402 602.023 27.5378 601.713 26.5332 601.674Z" fill="#3D22AA"/>
<path d="M242.131 561.425C241.938 561.619 242.17 561.386 242.208 561.309C241.822 561.658 241.474 562.046 241.126 562.357C241.513 562.124 242.402 561.153 242.131 561.425Z" fill="#3D22AA"/>
<path d="M242.208 561.309C242.594 560.92 243.058 560.532 243.483 560.105C242.903 560.61 242.555 560.998 242.208 561.309Z" fill="#3D22AA"/>
<path d="M40.7133 603.265C40.1337 603.226 39.5928 603.226 38.7428 603.148C38.5109 603.265 40.4042 603.265 40.7133 603.265Z" fill="#3D22AA"/>
<path d="M37.043 102.668C39.0907 103.289 40.0953 103.483 38.318 102.785C37.1975 102.513 37.8157 102.785 37.043 102.668Z" fill="#3D22AA"/>
<path d="M106.436 121.802C106.436 121.802 104.929 121.492 103.422 121.142C102.649 120.987 101.915 120.832 101.335 120.676C100.756 120.56 100.408 120.482 100.408 120.482C101.606 120.793 105.431 121.647 106.436 121.802Z" fill="#3D22AA"/>
<path d="M243.598 132.981L248.08 132.438L245.182 132.632C245.221 132.748 244.139 132.903 243.598 132.981Z" fill="#3D22AA"/>
<path d="M270.413 130.341C272.615 130.186 273.002 130.263 272.306 130.069L270.413 130.341Z" fill="#3D22AA"/>
<path d="M361.443 295.447L357.811 296.844C358.197 297.155 359.047 296.34 361.443 295.447Z" fill="#3D22AA"/>
<path d="M291.084 342.759C290.582 343.302 288.264 345.902 288.419 345.825C289.23 344.971 290.582 343.457 291.084 342.759Z" fill="#3D22AA"/>
<path d="M262.068 522.691C261.874 524.709 261.874 524.437 262.145 523.971C262.145 523.933 262.068 522.574 262.068 522.691Z" fill="#3D22AA"/>
<path d="M329.026 314.232C329.527 313.884 329.373 314 328.911 314.271C328.949 314.271 329.026 314.232 329.026 314.232Z" fill="#3D22AA"/>
<path d="M92.6807 117.922C93.2605 118.038 93.763 118.194 94.5748 118.388C94.8454 118.349 92.9513 118 92.6807 117.922Z" fill="#3D22AA"/>
<path d="M361.482 295.603L358.313 296.922C358.352 296.883 358.352 296.883 358.352 296.883C358.313 296.845 358.198 296.883 357.811 297.077C357.463 297.271 355.686 298.242 356.575 297.776C357.734 297.194 357.966 297 358.275 297.039C359.357 296.573 360.477 296.029 361.482 295.603Z" fill="#3D22AA"/>
<path d="M291.162 342.875C290.93 343.108 288.418 345.941 288.534 345.941C289.346 345.048 290.659 343.535 291.162 342.875Z" fill="#3D22AA"/>
<path d="M288.225 346.407C288.38 346.252 289.539 344.971 289.539 344.971C289.926 344.389 289.385 345.204 289.655 344.699C289.655 344.699 287.8 346.795 288.186 346.329C288.457 346.019 289.539 344.893 289.191 345.281C288.959 345.592 288.38 346.213 288.225 346.407Z" fill="#3D22AA"/>
<path d="M251.52 548.889C250.476 550.364 253.104 546.871 252.949 546.987C252.949 546.987 253.374 546.017 253.335 546.134C252.91 546.91 253.297 546.017 253.258 546.056C253.258 546.056 253.142 546.25 252.949 546.599C252.756 546.91 252.524 547.337 252.254 547.764C251.713 548.579 251.288 549.2 251.249 549.316C251.326 549.122 251.79 548.501 251.52 548.889Z" fill="#3D22AA"/>
<path d="M256.427 460.67C256.389 461.213 256.35 461.951 256.504 463.814C256.389 461.64 256.389 460.864 256.427 460.67Z" fill="#3D22AA"/>
<path d="M329.141 313.572C329.103 313.572 328.948 313.688 328.717 313.805C328.756 313.843 329.18 313.572 329.141 313.572Z" fill="#3D22AA"/>
<path d="M409.624 271.423C409.624 271.423 407.577 272.82 407.345 272.975C407.461 272.898 408.156 272.548 408.156 272.548L409.624 271.423Z" fill="#3D22AA"/>
<path d="M143.798 128.012C142.987 127.895 142.214 127.779 141.519 127.701C142.214 127.818 144.03 128.128 143.798 128.012Z" fill="#3D22AA"/>
<path d="M261.218 528.9L261.372 527.891C261.449 528.008 261.295 529.133 261.372 528.939C261.411 528.628 261.449 527.969 261.526 527.231C261.565 526.494 261.604 525.756 261.642 525.291C261.642 525.33 261.526 526.028 261.565 525.834C261.565 525.562 261.604 525.097 261.565 525.368C261.526 525.756 261.411 526.688 261.295 527.503C261.14 528.318 261.024 529.017 261.024 529.055C261.063 528.9 261.333 527.891 261.372 527.891C261.333 528.008 261.14 529.094 261.218 528.9Z" fill="#3D22AA"/>
<path d="M262.416 516.131C262.416 516.674 262.416 517.256 262.416 517.839C262.493 517.101 262.454 516.597 262.416 516.131Z" fill="#3D22AA"/>
<path d="M297.034 338.994C297.421 338.606 297.961 338.141 298.58 337.52C297.73 338.257 296.532 339.266 295.218 340.469C295.566 340.275 295.836 340.12 297.034 338.994Z" fill="#3D22AA"/>
<path d="M275.899 366.783C276.982 364.92 277.407 364.028 276.325 365.58C275.822 366.589 276.209 366.085 275.899 366.783Z" fill="#3D22AA"/>
<path d="M325.703 316.367C325.703 316.367 324.428 317.221 323.153 318.075C321.878 318.968 320.68 319.821 320.642 319.821C321.144 319.472 322.187 318.735 323.23 318.036C324.274 317.376 325.317 316.678 325.703 316.367Z" fill="#3D22AA"/>
<path d="M437.868 239.714C437.868 239.714 438.255 238.627 438.603 237.54C438.796 236.997 438.951 236.454 439.067 236.027C439.183 235.6 439.26 235.328 439.26 235.328L438.796 236.725C438.641 237.191 438.448 237.657 438.255 238.084C438.371 238.123 438.023 239.17 437.868 239.714Z" fill="#3D22AA"/>
<path d="M324.7 130.691C324.081 130.613 323.309 130.535 322.266 130.419C321.454 130.419 322.768 130.497 324.7 130.691Z" fill="#3D22AA"/>
<path d="M441.075 212.856C440.727 210.643 440.766 210.216 440.65 210.954L441.075 212.856Z" fill="#3D22AA"/>
<path d="M147.275 128.44C147.275 128.44 146.348 128.207 145.382 127.975C144.455 127.742 143.489 127.509 143.489 127.509C143.682 127.975 144.802 127.819 147.275 128.44Z" fill="#3D22AA"/>
<path d="M64.7071 108.917C64.0116 108.684 60.7274 107.675 60.8433 107.831C62.0024 108.18 63.8957 108.762 64.7071 108.917Z" fill="#3D22AA"/>
<path d="M110.299 122.657C110.879 122.773 110.724 122.696 110.184 122.579C110.222 122.618 110.299 122.657 110.299 122.657Z" fill="#3D22AA"/>
<path d="M70.8498 112.45C71.3907 112.644 72.0475 112.838 72.8976 113.109C71.8543 112.721 70.3475 112.178 68.686 111.596C68.9951 111.751 69.2656 111.945 70.8498 112.45Z" fill="#3D22AA"/>
<path d="M413.912 166.786C414.376 167.213 414.955 167.718 415.728 168.416C416.385 168.921 415.38 168.067 413.912 166.786Z" fill="#3D22AA"/>
<path d="M261.333 532.394L261.991 530.492C262.339 528.784 262.262 528.901 262.107 529.638C262.068 529.832 262.03 530.026 261.952 530.298C261.875 530.531 261.798 530.803 261.759 531.036C261.566 531.54 261.45 532.045 261.333 532.394Z" fill="#3D22AA"/>
<path d="M262.376 516.015C262.338 515.743 262.376 516.054 262.414 516.17C262.376 515.666 262.337 515.161 262.299 514.695C262.222 515.083 262.414 516.364 262.376 516.015Z" fill="#3D22AA"/>
<path d="M262.376 516.131C262.376 516.674 262.376 517.256 262.376 517.839C262.415 517.101 262.415 516.597 262.376 516.131Z" fill="#3D22AA"/>
<path d="M313.726 324.052C314.189 323.702 314.615 323.353 315.311 322.848C315.388 322.615 313.958 323.857 313.726 324.052Z" fill="#3D22AA"/>
<path d="M143.798 128.013C144.957 128.207 146.193 128.401 147.237 128.595C147.237 128.595 146.386 128.439 145.575 128.245C144.725 128.051 143.914 127.896 143.914 127.896C143.952 127.896 143.991 127.896 143.952 127.896C143.952 127.818 143.798 127.818 143.411 127.741C143.025 127.702 141.016 127.43 142.02 127.586C143.257 127.818 143.566 127.78 143.798 128.013Z" fill="#3D22AA"/>
<path d="M64.6688 109.033C64.3597 108.955 60.7664 107.869 60.805 107.946C61.9641 108.296 63.8574 108.878 64.6688 109.033Z" fill="#3D22AA"/>
<path d="M60.264 107.869C60.4958 107.947 62.1186 108.452 62.1186 108.452C62.814 108.568 61.8481 108.374 62.4277 108.452C62.4277 108.452 59.7617 107.637 60.3412 107.831C60.7276 107.947 62.1958 108.452 61.6936 108.296C61.3072 108.18 60.4958 107.947 60.264 107.869Z" fill="#3D22AA"/>
<path d="M110.84 122.269C110.801 122.269 110.647 122.23 110.376 122.152C110.376 122.191 110.879 122.308 110.84 122.269Z" fill="#3D22AA"/>
<path d="M200.75 134.067C200.75 134.067 200.016 134.067 199.282 134.067C198.547 134.067 197.891 134.067 198.007 134.067C198.161 134.067 198.934 134.184 198.934 134.184C199.552 134.184 200.17 134.106 200.75 134.067Z" fill="#3D22AA"/>
<path d="M358.314 297.077C357.58 297.426 356.884 297.815 356.266 298.125C356.923 297.815 358.584 297.077 358.314 297.077Z" fill="#3D22AA"/>
<path d="M260.87 532.161L261.45 530.259C261.798 528.591 261.759 528.785 261.566 529.522C261.527 529.716 261.488 529.949 261.411 530.182C261.334 530.415 261.256 530.647 261.218 530.919C261.102 531.385 260.947 531.851 260.87 532.161Z" fill="#3D22AA"/>
<path d="M69.9624 605.786C70.6965 605.825 74.1352 605.903 73.9806 605.825C72.7829 605.748 70.7738 605.709 69.9624 605.786Z" fill="#3D22AA"/>
<path d="M252.215 548.423L250.979 549.937C248.97 552.692 251.442 549.587 252.215 548.423Z" fill="#3D22AA"/>
<path d="M251.018 551.723L250.438 552.577C250.438 552.422 251.056 551.451 250.902 551.607C250.747 551.878 250.399 552.46 250.013 553.12C249.627 553.741 249.163 554.362 248.893 554.75C248.893 554.75 249.356 554.168 249.24 554.324C249.086 554.556 248.815 554.983 248.97 554.75C249.24 554.401 249.82 553.702 250.322 553.004C250.824 552.344 251.249 551.723 251.288 551.684C251.172 551.801 250.515 552.616 250.477 552.616C250.477 552.577 251.134 551.645 251.018 551.723Z" fill="#3D22AA"/>
<path d="M246.999 556.651C248.352 555.099 248.236 555.332 247.694 555.565C247.694 555.603 246.96 556.768 246.999 556.651Z" fill="#3D22AA"/>
<path d="M22.5921 601.324C21.9742 601.285 22.1673 601.324 22.708 601.402C22.6693 601.363 22.5921 601.363 22.5921 601.324Z" fill="#3D22AA"/>
<path d="M63.1613 603.886C62.6203 603.847 61.9249 603.808 60.9976 603.77C62.118 603.886 63.7022 604.041 65.4409 604.196C65.0931 604.119 64.784 604.002 63.1613 603.886Z" fill="#3D22AA"/>
<path d="M258.744 413.357C258.744 413.474 258.744 413.435 258.744 413.513C258.821 413.047 258.899 412.581 258.976 412.154C258.86 412.659 258.783 413.047 258.744 413.357Z" fill="#3D22AA"/>
<path d="M148.01 599.771C147.507 599.849 147.005 599.965 146.618 600.004C147.314 599.888 147.701 599.81 148.01 599.771Z" fill="#3D22AA"/>
<path d="M257.506 131.079C257.278 131.118 257.316 131.118 257.506 131.079V131.079Z" fill="#3D22AA"/>
<path d="M440.766 225.275C440.65 226.052 440.727 225.741 440.766 225.275V225.275Z" fill="#3D22AA"/>
<path d="M69.9624 605.632C70.2715 605.671 74.0193 605.71 73.9807 605.671C72.7829 605.632 70.8124 605.593 69.9624 605.632Z" fill="#3D22AA"/>
<path d="M74.5599 605.554C74.3281 605.554 72.628 605.477 72.628 605.477C71.9325 605.554 72.8984 605.477 72.3188 605.554C72.3188 605.554 75.1008 605.593 74.4826 605.593C74.0962 605.554 72.5507 605.477 73.053 605.515C73.4394 605.554 74.2894 605.554 74.5599 605.554Z" fill="#3D22AA"/>
<path d="M252.601 548.773L251.403 550.326C250.36 551.684 250.515 551.529 250.978 550.947C251.481 550.403 252.253 549.278 252.601 548.773Z" fill="#3D22AA"/>
<path d="M261.875 531.656C262.107 530.763 261.913 531.384 261.682 532.199C261.45 533.053 261.063 534.062 261.102 533.985C261.102 533.946 260.908 535.071 260.947 534.916C261.179 534.062 261.024 535.033 261.063 534.994C261.063 534.994 261.372 534.024 261.643 533.014C261.875 532.044 262.068 531.268 262.068 531.151C261.952 531.423 261.72 532.161 261.875 531.656Z" fill="#3D22AA"/>
<path d="M193.563 588.088C194.104 587.972 194.8 587.778 196.5 587.079C194.491 587.816 193.757 588.049 193.563 588.088Z" fill="#3D22AA"/>
<path d="M22.0904 601.789C22.129 601.789 22.2834 601.828 22.5924 601.867C22.5924 601.828 22.0517 601.789 22.0904 601.789Z" fill="#3D22AA"/>
</g>
</g>
<mask id="mask2_383_4347" style="mask-type:alpha" maskUnits="userSpaceOnUse" x="0" y="0" width="1920" height="1034">
<path d="M615.536 178.541C313.393 -7.45451 78.9286 -12.3302 0 8.30013V1034H1920V292.098C1916.43 286.717 1843.93 255.153 1703.57 230.033C1538.72 200.53 1333.93 261.96 1250.89 299.095C1165 336.408 917.679 364.537 615.536 178.541Z" fill="#00245c"/>
</mask>
<g mask="url(#mask2_383_4347)">
<path d="M1346.1 472.131C1357.8 502.704 1385.07 535.492 1443.74 567.28C1555.88 628.035 1677.27 634.857 1688.72 531.921C1697.96 448.7 1869.63 435.485 1973.88 326.191C2068.5 226.97 1884.71 164.608 1877.88 112.247C1861.03 -17.1191 2041.08 -91.3388 1788.28 -85.6241C1412.95 -77.1235 1565.73 148.143 1554.32 229.042C1537.96 345.121 1426.95 375.874 1409.96 381.338C1377.25 391.768 1321.42 407.697 1346.1 472.131Z" fill="#00173c"/>
<path d="M1350.28 461.303C1356.04 493.234 1386.91 535.987 1444.58 567.525C1577.92 640.387 1686.68 621.743 1692.41 537.522C1698.81 443.23 1828.2 445.444 1951.26 333.222C2049.96 243.215 1866.6 177.818 1860.23 111.42C1847.75 -18.2679 2027.38 -85.9871 1781.97 -83.0583C1440.67 -78.9508 1543.78 132.85 1564.05 182.497C1598.93 267.967 1521.74 347.866 1418.98 384.297C1387.65 395.405 1339.65 402.584 1350.28 461.303Z" fill="#00173c"/>
<path d="M1581.69 400.601C1623.3 418.816 1770.5 387.028 1804.28 372.384C1838.06 357.74 1899.57 325.238 1895.66 294.522C1891.75 263.805 1767.65 206.301 1750.59 157.369C1733.52 108.437 1881.79 -4.07149 1761.61 -4.07149C1641.43 -4.07149 1587.03 -18.7154 1587.03 46.6465C1587.03 112.008 1666.67 198.8 1676.99 229.16C1687.3 259.519 1630.41 293.093 1598.41 312.38C1566.41 331.667 1529.6 377.813 1581.69 400.601Z" fill="#00173c"/>
<path d="M198.509 86.9487C50.1796 79.6132 1.10997 -23.51 -106.302 -20.9872C-172.797 -19.3959 141.364 -110.138 199.243 -109.944C257.122 -109.75 411.672 -105.131 411.44 -50.7559C411.285 3.61954 320.256 92.9645 198.509 86.9487Z" fill="#00173c"/>
<path d="M-150.89 67.2328C-297.519 109.266 -381.401 309.109 -284.576 455.934C-135.358 682.091 286.293 643.356 263.497 509.417C228.144 301.501 367.007 309.225 420.442 260.167C476.08 209.09 418.279 103.328 251.403 123.588C84.5281 143.847 -3.83588 25.0831 -150.89 67.2328Z" fill="#00173c"/>
</g>
</g>
</svg>
