<svg width="166" height="49" viewBox="0 0 166 49" fill="none" xmlns="http://www.w3.org/2000/svg">
<path d="M159.25 49H6.125C2.695 49 0 46.305 0 42.875V6.125C0 2.695 2.695 0 6.125 0H159.25C162.68 0 165.375 2.695 165.375 6.125V42.875C165.375 46.1825 162.68 49 159.25 49Z" fill="black"/>
<path d="M159.25 0.98C162.068 0.98 164.395 3.3075 164.395 6.125V42.875C164.395 45.6925 162.068 48.02 159.25 48.02H6.125C3.3075 48.02 0.98 45.6925 0.98 42.875V6.125C0.98 3.3075 3.3075 0.98 6.125 0.98H159.25ZM159.25 0H6.125C2.695 0 0 2.695 0 6.125V42.875C0 46.305 2.695 49 6.125 49H159.25C162.68 49 165.375 46.305 165.375 42.875V6.125C165.375 2.8175 162.68 0 159.25 0Z" fill="#A6A6A6"/>
<path d="M58.0648 12.4951C58.0648 13.4751 57.8198 14.3326 57.2073 14.9451C56.4723 15.6801 55.6148 16.0476 54.5123 16.0476C53.4098 16.0476 52.5523 15.6801 51.8173 14.9451C51.0823 14.2101 50.7148 13.3526 50.7148 12.2501C50.7148 11.1476 51.0823 10.2901 51.8173 9.55514C52.5523 8.82014 53.4098 8.45264 54.5123 8.45264C55.0023 8.45264 55.4923 8.57514 55.9823 8.82014C56.4723 9.06514 56.8398 9.31014 57.0848 9.67764L56.4723 10.2901C55.9823 9.67764 55.3698 9.43264 54.5123 9.43264C53.7773 9.43264 53.0423 9.67764 52.5523 10.2901C51.9398 10.7801 51.6948 11.5151 51.6948 12.3726C51.6948 13.2301 51.9398 13.9651 52.5523 14.4551C53.1648 14.9451 53.7773 15.3126 54.5123 15.3126C55.3698 15.3126 55.9823 15.0676 56.5948 14.4551C56.9623 14.0876 57.2073 13.5976 57.2073 12.9851H54.5123V12.1276H58.0648C58.0648 12.1276 58.0648 12.3726 58.0648 12.4951Z" fill="white" stroke="white" stroke-width="0.2" stroke-miterlimit="10"/>
<path d="M63.7001 9.4327H60.3926V11.7602H63.4551V12.6177H60.3926V14.9452H63.7001V15.9252H59.4126V8.5752H63.7001V9.4327Z" fill="white" stroke="white" stroke-width="0.2" stroke-miterlimit="10"/>
<path d="M67.7422 15.9252H66.7622V9.4327H64.6797V8.5752H69.8247V9.4327H67.7422V15.9252Z" fill="white" stroke="white" stroke-width="0.2" stroke-miterlimit="10"/>
<path d="M73.3774 15.9252V8.5752H74.3574V15.9252H73.3774Z" fill="white" stroke="white" stroke-width="0.2" stroke-miterlimit="10"/>
<path d="M78.5225 15.9252H77.5425V9.4327H75.46V8.5752H80.4825V9.4327H78.4V15.9252H78.5225Z" fill="white" stroke="white" stroke-width="0.2" stroke-miterlimit="10"/>
<path d="M90.1595 14.9451C89.4245 15.6801 88.567 16.0476 87.4645 16.0476C86.362 16.0476 85.5045 15.6801 84.7695 14.9451C84.0345 14.2101 83.667 13.3526 83.667 12.2501C83.667 11.1476 84.0345 10.2901 84.7695 9.55514C85.5045 8.82014 86.362 8.45264 87.4645 8.45264C88.567 8.45264 89.4245 8.82014 90.1595 9.55514C90.8945 10.2901 91.262 11.1476 91.262 12.2501C91.262 13.3526 90.8945 14.2101 90.1595 14.9451ZM85.5045 14.3326C85.9945 14.8226 86.7295 15.1901 87.4645 15.1901C88.1995 15.1901 88.9345 14.9451 89.4245 14.3326C89.9145 13.8426 90.282 13.1076 90.282 12.2501C90.282 11.3926 90.037 10.6576 89.4245 10.1676C88.9345 9.67764 88.1995 9.31014 87.4645 9.31014C86.7295 9.31014 85.9945 9.55514 85.5045 10.1676C85.0145 10.6576 84.647 11.3926 84.647 12.2501C84.647 13.1076 84.892 13.8426 85.5045 14.3326Z" fill="white" stroke="white" stroke-width="0.2" stroke-miterlimit="10"/>
<path d="M92.6099 15.9252V8.5752H93.7124L97.2649 14.3327V12.8627V8.5752H98.2449V15.9252H97.2649L93.4674 9.9227V11.3927V15.9252H92.6099Z" fill="white" stroke="white" stroke-width="0.2" stroke-miterlimit="10"/>
<path d="M83.4227 26.7053C80.4827 26.7053 78.1552 28.9103 78.1552 31.9728C78.1552 34.9128 80.4827 37.2403 83.4227 37.2403C86.3627 37.2403 88.6902 35.0353 88.6902 31.9728C88.6902 28.7878 86.3627 26.7053 83.4227 26.7053ZM83.4227 35.0353C81.8302 35.0353 80.4827 33.6878 80.4827 31.8503C80.4827 30.0128 81.8302 28.6653 83.4227 28.6653C85.0152 28.6653 86.3627 29.8903 86.3627 31.8503C86.3627 33.6878 85.0152 35.0353 83.4227 35.0353ZM72.0302 26.7053C69.0902 26.7053 66.7627 28.9103 66.7627 31.9728C66.7627 34.9128 69.0902 37.2403 72.0302 37.2403C74.9702 37.2403 77.2977 35.0353 77.2977 31.9728C77.2977 28.7878 74.9702 26.7053 72.0302 26.7053ZM72.0302 35.0353C70.4377 35.0353 69.0902 33.6878 69.0902 31.8503C69.0902 30.0128 70.4377 28.6653 72.0302 28.6653C73.6227 28.6653 74.9702 29.8903 74.9702 31.8503C74.9702 33.6878 73.6227 35.0353 72.0302 35.0353ZM58.4327 28.2978V30.5028H63.7002C63.5777 31.7278 63.0877 32.7078 62.4752 33.3203C61.7402 34.0553 60.5152 34.9128 58.4327 34.9128C55.1252 34.9128 52.6752 32.3403 52.6752 29.0328C52.6752 25.7253 55.2477 23.1528 58.4327 23.1528C60.1477 23.1528 61.4952 23.8878 62.4752 24.7453L64.0677 23.1528C62.7202 21.9278 61.0052 20.9478 58.5552 20.9478C54.1452 20.9478 50.3477 24.6228 50.3477 29.0328C50.3477 33.4428 54.1452 37.1178 58.5552 37.1178C61.0052 37.1178 62.7202 36.3828 64.1902 34.7903C65.6602 33.3203 66.1502 31.2378 66.1502 29.6453C66.1502 29.1553 66.1502 28.6653 66.0277 28.2978H58.4327ZM114.048 30.0128C113.558 28.7878 112.333 26.7053 109.638 26.7053C106.943 26.7053 104.738 28.7878 104.738 31.9728C104.738 34.9128 106.943 37.2403 109.883 37.2403C112.21 37.2403 113.68 35.7703 114.17 34.9128L112.455 33.6878C111.843 34.5453 111.108 35.1578 109.883 35.1578C108.658 35.1578 107.923 34.6678 107.31 33.5653L114.293 30.6253L114.048 30.0128ZM106.943 31.7278C106.943 29.7678 108.535 28.6653 109.638 28.6653C110.495 28.6653 111.353 29.1553 111.598 29.7678L106.943 31.7278ZM101.185 36.7503H103.513V21.4378H101.185V36.7503ZM97.5102 27.8078C96.8977 27.1953 95.9177 26.5828 94.6927 26.5828C92.1202 26.5828 89.6702 28.9103 89.6702 31.8503C89.6702 34.7903 91.9977 36.9953 94.6927 36.9953C95.9177 36.9953 96.8977 36.3828 97.3877 35.7703H97.5102V36.5053C97.5102 38.4653 96.4077 39.5678 94.6927 39.5678C93.3452 39.5678 92.3652 38.5878 92.1202 37.7303L90.1602 38.5878C90.7727 39.9353 92.2427 41.6503 94.8152 41.6503C97.5102 41.6503 99.7152 40.0578 99.7152 36.2603V26.9503H97.5102V27.8078ZM94.8152 35.0353C93.2227 35.0353 91.8752 33.6878 91.8752 31.8503C91.8752 30.0128 93.2227 28.6653 94.8152 28.6653C96.4077 28.6653 97.6327 30.0128 97.6327 31.8503C97.6327 33.6878 96.4077 35.0353 94.8152 35.0353ZM124.705 21.4378H119.193V36.7503H121.52V30.9928H124.705C127.278 30.9928 129.728 29.1553 129.728 26.2153C129.728 23.2753 127.278 21.4378 124.705 21.4378ZM124.828 28.7878H121.52V23.5203H124.828C126.543 23.5203 127.523 24.9903 127.523 26.0928C127.4 27.4403 126.42 28.7878 124.828 28.7878ZM138.915 26.5828C137.2 26.5828 135.485 27.3178 134.873 28.9103L136.955 29.7678C137.445 28.9103 138.18 28.6653 139.038 28.6653C140.263 28.6653 141.365 29.4003 141.488 30.6253V30.7478C141.12 30.5028 140.14 30.1353 139.16 30.1353C136.955 30.1353 134.75 31.3603 134.75 33.5653C134.75 35.6478 136.588 36.9953 138.548 36.9953C140.14 36.9953 140.875 36.2603 141.488 35.5253H141.61V36.7503H143.815V30.8703C143.57 28.1753 141.488 26.5828 138.915 26.5828ZM138.67 35.0353C137.935 35.0353 136.833 34.6678 136.833 33.6878C136.833 32.4628 138.18 32.0953 139.283 32.0953C140.263 32.0953 140.753 32.3403 141.365 32.5853C141.12 34.0553 139.895 35.0353 138.67 35.0353ZM151.533 26.9503L148.96 33.5653H148.838L146.143 26.9503H143.693L147.735 36.2603L145.408 41.4053H147.735L153.983 26.9503H151.533ZM130.953 36.7503H133.28V21.4378H130.953V36.7503Z" fill="white"/>
<path d="M12.7399 9.1875C12.3724 9.555 12.1274 10.1675 12.1274 10.9025V37.975C12.1274 38.71 12.3724 39.3225 12.7399 39.69L12.8624 39.8125L28.0524 24.6225V24.5V24.3775L12.7399 9.1875Z" fill="url(#paint0_linear_546_3516)"/>
<path d="M33.0747 29.7675L28.0522 24.745V24.5V24.3775L33.0747 19.355L33.1972 19.4775L39.1997 22.9075C40.9147 23.8875 40.9147 25.48 39.1997 26.46L33.0747 29.7675Z" fill="url(#paint1_linear_546_3516)"/>
<path d="M33.1972 29.645L28.0522 24.5L12.7397 39.8125C13.3522 40.425 14.2097 40.425 15.3122 39.935L33.1972 29.645Z" fill="url(#paint2_linear_546_3516)"/>
<path d="M33.1972 19.3553L15.3122 9.18784C14.2097 8.57534 13.3522 8.69785 12.7397 9.31035L28.0522 24.5003L33.1972 19.3553Z" fill="url(#paint3_linear_546_3516)"/>
<path opacity="0.2" d="M33.0747 29.5229L15.3122 39.568C14.3322 40.1805 13.4747 40.058 12.8622 39.568L12.7397 39.6905L12.8622 39.813C13.4747 40.303 14.3322 40.4255 15.3122 39.813L33.0747 29.5229Z" fill="black"/>
<path opacity="0.12" d="M12.74 39.5675C12.3725 39.2 12.25 38.5875 12.25 37.8525V37.975C12.25 38.71 12.495 39.3225 12.8625 39.69V39.5675H12.74Z" fill="black"/>
<path opacity="0.12" d="M39.2002 26.0925L33.0752 29.5225L33.1977 29.645L39.2002 26.215C40.0577 25.725 40.4252 25.1125 40.4252 24.5C40.4252 25.1125 39.9352 25.6025 39.2002 26.0925Z" fill="black"/>
<path opacity="0.25" d="M15.3125 9.30996L39.2 22.9075C39.935 23.3975 40.425 23.8875 40.425 24.5C40.425 23.8875 40.0575 23.275 39.2 22.785L15.3125 9.18746C13.5975 8.20746 12.25 9.06496 12.25 11.025V11.1475C12.25 9.18746 13.5975 8.32996 15.3125 9.30996Z" fill="white"/>
<defs>
<linearGradient id="paint0_linear_546_3516" x1="26.7046" y1="10.6694" x2="6.14614" y2="31.2278" gradientUnits="userSpaceOnUse">
<stop stop-color="#00A0FF"/>
<stop offset="0.00657445" stop-color="#00A1FF"/>
<stop offset="0.2601" stop-color="#00BEFF"/>
<stop offset="0.5122" stop-color="#00D2FF"/>
<stop offset="0.7604" stop-color="#00DFFF"/>
<stop offset="1" stop-color="#00E3FF"/>
</linearGradient>
<linearGradient id="paint1_linear_546_3516" x1="41.4469" y1="24.5017" x2="11.8057" y2="24.5017" gradientUnits="userSpaceOnUse">
<stop stop-color="#FFE000"/>
<stop offset="0.4087" stop-color="#FFBD00"/>
<stop offset="0.7754" stop-color="#FFA500"/>
<stop offset="1" stop-color="#FF9C00"/>
</linearGradient>
<linearGradient id="paint2_linear_546_3516" x1="30.4128" y1="27.3127" x2="2.5339" y2="55.1916" gradientUnits="userSpaceOnUse">
<stop stop-color="#FF3A44"/>
<stop offset="1" stop-color="#C31162"/>
</linearGradient>
<linearGradient id="paint3_linear_546_3516" x1="8.93894" y1="0.21619" x2="21.3881" y2="12.6653" gradientUnits="userSpaceOnUse">
<stop stop-color="#32A071"/>
<stop offset="0.0685" stop-color="#2DA771"/>
<stop offset="0.4762" stop-color="#15CF74"/>
<stop offset="0.8009" stop-color="#06E775"/>
<stop offset="1" stop-color="#00F076"/>
</linearGradient>
</defs>
</svg>
