<svg width="213" height="84" viewBox="0 0 213 84" fill="none" xmlns="http://www.w3.org/2000/svg">
<path d="M53.728 45.8047L58.8653 75.8634L70.5808 72.601" stroke="white" stroke-width="6" stroke-linecap="round" stroke-linejoin="round"/>
<path d="M83.1258 61.2261C83.1258 61.2261 91.3598 59.7976 91.9256 51.6663C92.4913 43.535 80.146 45.5772 80.6778 57.4181C81.2097 69.2589 93.8794 69.2437 99.8088 68.3003" stroke="white" stroke-width="6" stroke-linecap="round" stroke-linejoin="round"/>
<path d="M103.713 51.1322L117.71 47.5742" stroke="white" stroke-width="6" stroke-linecap="round" stroke-linejoin="round"/>
<path d="M108.153 32.8271L114.169 69.7592" stroke="white" stroke-width="6" stroke-linecap="round" stroke-linejoin="round"/>
<path d="M126.122 24.1008C126.122 24.1008 127.672 27.8406 125.62 31.3304" stroke="white" stroke-width="6" stroke-linecap="round" stroke-linejoin="round"/>
<path d="M139.542 39.1396C139.542 39.1396 133.035 41.6708 133.002 48.6692C132.968 55.6676 151.012 49.6657 141.718 66.2694" stroke="white" stroke-width="6" stroke-linecap="round" stroke-linejoin="round"/>
<path d="M175.639 68.6299C175.639 68.6299 187.89 67.9441 185.396 51.8747C182.903 35.8052 176.966 26.3098 169.845 28.534C162.724 30.7582 159.902 41.4585 167.205 46.9641C174.507 52.4696 181.462 41.2804 181.462 41.2804" stroke="white" stroke-width="6" stroke-linecap="round" stroke-linejoin="round"/>
<path d="M200.676 20.8801C200.676 20.8801 192.144 20.2814 192.567 29.5722C192.989 38.863 207.922 36.8965 206.843 27.7762C205.765 18.6559 197.859 21.3348 197.859 21.3348" stroke="white" stroke-width="6" stroke-linecap="round" stroke-linejoin="round"/>
<path d="M31.7453 48.4578C31.5954 48.5158 31.432 48.5308 31.2718 48.5011L18.7342 46.0235C18.4946 45.9773 18.2792 45.8348 18.1355 45.6271C17.9918 45.4195 17.9315 45.1638 17.9679 44.9163C18.0043 44.6687 18.1344 44.4497 18.3296 44.3073C18.5248 44.1649 18.7691 44.1108 19.0087 44.1569L31.5463 46.6345C31.7774 46.6826 31.9843 46.822 32.1229 47.023C32.2614 47.224 32.3207 47.4707 32.2879 47.7104C32.2746 47.8773 32.2169 48.0355 32.1211 48.1675C32.0253 48.2994 31.8952 48.3999 31.7453 48.4578Z" fill="#F8D829"/>
<path d="M36.371 36.0339C36.2482 36.0819 36.1159 36.1008 35.9837 36.0891C35.8516 36.0774 35.7229 36.0355 35.6073 35.9664L16.943 25.0326C16.7372 24.9087 16.5854 24.7076 16.5206 24.4729C16.4557 24.2382 16.4831 23.9888 16.5967 23.779C16.7114 23.586 16.8938 23.4462 17.1075 23.3875C17.3211 23.3288 17.5504 23.3554 17.7496 23.4621L36.4139 34.3959C36.6205 34.5178 36.7738 34.7174 36.8407 34.9512C36.9076 35.1851 36.8827 35.4344 36.7714 35.6453C36.6832 35.8167 36.5428 35.953 36.371 36.0339V36.0339Z" fill="#F8D829"/>
<path d="M45.5624 29.003C45.4464 29.0469 45.3233 29.0682 45.2 29.0656C45.0768 29.0631 44.9559 29.0368 44.8445 28.9884C44.7331 28.9399 44.6333 28.8702 44.551 28.7832C44.4686 28.6963 44.4053 28.5939 44.3648 28.482L35.4815 4.57929C35.401 4.3571 35.415 4.11076 35.5202 3.89359C35.6255 3.67642 35.8136 3.50589 36.0439 3.41893V3.41893C36.1583 3.37567 36.2799 3.35468 36.4015 3.35717C36.5231 3.35966 36.6424 3.38558 36.7523 3.43343C36.8622 3.48128 36.9607 3.5501 37.0419 3.6359C37.1232 3.72169 37.1856 3.82275 37.2255 3.93321L46.1089 27.8359C46.152 27.9452 46.172 28.0622 46.1678 28.1803C46.1635 28.2984 46.1352 28.4151 46.0843 28.5237C46.0335 28.6323 45.9612 28.7306 45.8716 28.8129C45.782 28.8952 45.6769 28.9598 45.5624 29.003V29.003Z" fill="#F8D829"/>
<path d="M60.24 28.4402C60.0204 28.5198 59.7769 28.5067 59.5615 28.4038C59.3461 28.3008 59.1757 28.1162 59.0867 27.8892C58.9866 27.6244 58.8605 27.2905 60.5527 8.21898C60.5756 7.97964 60.689 7.7619 60.8685 7.61284C61.0481 7.46378 61.2792 7.39537 61.512 7.4224C61.6277 7.43595 61.7403 7.47302 61.8433 7.53147C61.9463 7.58992 62.0375 7.66858 62.1118 7.76289C62.1862 7.8572 62.242 7.96528 62.2762 8.08086C62.3104 8.19645 62.3221 8.31725 62.3108 8.43624C61.6852 15.5534 60.7603 26.4149 60.7687 27.4379C60.8068 27.6455 60.7751 27.8584 60.6788 28.0408C60.5826 28.2232 60.4277 28.3642 60.24 28.4402Z" fill="#F8D829"/>
<path d="M9.6599 21.9274C9.54778 21.9708 9.42745 21.9893 9.30651 21.9819C9.18558 21.9745 9.06665 21.9412 8.95719 21.8842L4.16925 19.2682C4.05726 19.2194 3.95558 19.1472 3.87066 19.0563C3.78573 18.9654 3.71942 18.8578 3.67597 18.7403C3.63252 18.6228 3.61287 18.4979 3.61827 18.3737C3.62368 18.2495 3.65402 18.1287 3.70737 18.0188C3.76071 17.909 3.83586 17.8127 3.92808 17.7359C4.02031 17.6592 4.12757 17.6037 4.24302 17.573C4.35846 17.5423 4.47959 17.5371 4.59866 17.5578C4.71772 17.5784 4.83213 17.6243 4.9346 17.6927L9.71826 20.2975C9.82042 20.3526 9.91175 20.4277 9.98701 20.5186C10.0623 20.6094 10.12 20.7142 10.1569 20.8268C10.1938 20.9395 10.2091 21.058 10.202 21.1754C10.1948 21.2927 10.1654 21.4068 10.1154 21.5109C10.0217 21.7062 9.85895 21.855 9.6599 21.9274Z" fill="#F8D829"/>
</svg>
