<svg width="33" height="34" viewBox="0 0 33 34" fill="none" xmlns="http://www.w3.org/2000/svg">
<path fill-rule="evenodd" clip-rule="evenodd" d="M16.8144 0.97168C7.89751 0.97168 0.668945 8.20025 0.668945 17.1171C0.668945 26.034 7.89751 33.2626 16.8144 33.2626C25.7313 33.2626 32.9599 26.034 32.9599 17.1171C32.9599 8.20025 25.7313 0.97168 16.8144 0.97168ZM8.41797 14.3423H12.0769V25.3358H8.41797V14.3423ZM12.3199 10.9433C12.2961 9.86543 11.5253 9.04443 10.2736 9.04443C9.02193 9.04443 8.20361 9.86543 8.20361 10.9433C8.20361 11.9989 8.99774 12.8436 10.2261 12.8436H10.2495C11.5253 12.8436 12.3199 11.9989 12.3199 10.9433ZM21.0599 14.0854C23.4676 14.0854 25.2727 15.657 25.2727 19.0338L25.2725 25.3371H21.6138V19.4556C21.6138 17.9783 21.0843 16.9702 19.7598 16.9702C18.7489 16.9702 18.1468 17.6498 17.8824 18.3062C17.7856 18.5414 17.7619 18.8692 17.7619 19.1977V25.3374H14.1025C14.1025 25.3374 14.1508 15.3755 14.1025 14.3439H17.7619V15.901C18.2475 15.1525 19.1173 14.0854 21.0599 14.0854Z" fill="#CDCDD7"/>
</svg>
