<svg width="194" height="51" viewBox="0 0 194 51" fill="none" xmlns="http://www.w3.org/2000/svg">
<path d="M186.604 40.0168C186.146 40.0168 185.689 39.8425 185.362 39.5375L185.34 39.5158C185.013 39.1672 184.839 38.7315 184.861 38.2523V30.4099C184.861 29.8 184.97 29.2118 185.187 28.6454V28.6236C185.427 28.0572 185.776 27.5562 186.212 27.1205C186.648 26.6848 187.149 26.3362 187.715 26.0966C188.282 25.857 188.892 25.7481 189.502 25.7481H192.226C192.466 25.7481 192.684 25.7916 192.902 25.8788C193.12 25.9659 193.316 26.0966 193.468 26.2709C193.643 26.4234 193.773 26.6194 193.861 26.8373C193.948 27.0551 193.991 27.273 193.991 27.5126C193.991 27.7522 193.948 27.9919 193.861 28.2097C193.773 28.4275 193.643 28.6236 193.468 28.7979C193.141 29.1246 192.684 29.2989 192.226 29.2771H189.502C189.35 29.2771 189.197 29.2989 189.066 29.3643C188.936 29.4296 188.805 29.5168 188.696 29.6257C188.587 29.7346 188.5 29.8435 188.456 29.996C188.391 30.1267 188.369 30.2792 188.369 30.4317V38.2741C188.369 38.5137 188.325 38.7533 188.238 38.9712C188.151 39.189 188.02 39.3851 187.846 39.5593C187.694 39.7336 187.497 39.8643 187.279 39.9515C187.062 39.9732 186.822 40.0168 186.604 40.0168ZM176.732 40.0168H174.335C173.551 40.0168 172.788 39.8861 172.047 39.5811C170.609 38.9494 169.476 37.7948 168.822 36.357C168.539 35.6382 168.386 34.8539 168.386 34.0697C168.386 33.5904 168.582 33.1112 168.931 32.7844C169.28 32.4576 169.737 32.2398 170.239 32.2398C170.478 32.2398 170.718 32.2834 170.958 32.3705C171.176 32.4576 171.393 32.6101 171.546 32.7844C171.72 32.9587 171.851 33.1547 171.96 33.3726C172.047 33.5904 172.091 33.8301 172.091 34.0697C172.091 34.3747 172.156 34.6579 172.265 34.9411C172.396 35.2025 172.548 35.4421 172.745 35.6599C172.962 35.856 173.202 36.0303 173.464 36.1392C173.747 36.2481 174.052 36.3135 174.335 36.3135H176.732C177.016 36.3135 177.321 36.2699 177.582 36.1392C177.844 36.0303 178.083 35.856 178.301 35.6599C178.497 35.4639 178.672 35.2025 178.781 34.9411C178.912 34.6579 178.977 34.3747 178.977 34.0697V21.8051C178.977 21.3258 179.151 20.8684 179.5 20.5198C179.674 20.3456 179.87 20.2148 180.11 20.1059C180.328 20.0188 180.589 19.9752 180.829 19.9752C181.069 19.9752 181.309 20.0188 181.548 20.1059C181.766 20.1931 181.984 20.3456 182.137 20.5198C182.311 20.6941 182.442 20.8902 182.551 21.108C182.638 21.3258 182.681 21.5655 182.681 21.8051V34.2875C182.681 35.0718 182.529 35.856 182.224 36.5749C181.941 37.2938 181.505 37.7077 180.96 38.2741C180.415 38.8405 179.74 39.2761 179.02 39.6029C178.28 39.8861 177.517 40.0168 176.732 40.0168Z" fill="#FF8D1A"/>
<path d="M163.047 40.0174H162.655C162.023 40.0174 161.391 39.9084 160.803 39.6688H160.781C160.236 39.4292 159.735 39.0806 159.299 38.6667C158.863 38.231 158.514 37.73 158.253 37.1636V37.1418C158.013 36.5536 157.904 35.9219 157.904 35.2902V27.0121H156.531C156.052 27.0121 155.616 26.8378 155.267 26.5328L155.246 26.5111C154.941 26.1625 154.766 25.705 154.766 25.2476C154.766 24.7901 154.941 24.3326 155.246 23.9841H155.267C155.442 23.8098 155.638 23.6791 155.856 23.592C156.074 23.5048 156.313 23.4613 156.553 23.4613H157.926V21.7621C157.926 21.5225 157.97 21.3046 158.057 21.0868C158.144 20.8689 158.275 20.6729 158.449 20.5204C158.623 20.3461 158.819 20.2154 159.037 20.1283C159.255 20.0411 159.495 19.9975 159.713 19.9975C160.171 19.9975 160.628 20.1936 160.955 20.5204C161.282 20.8471 161.478 21.2828 161.478 21.7621V23.4613H164.158C164.398 23.4613 164.616 23.5048 164.834 23.592C165.052 23.6791 165.226 23.8098 165.379 23.9841C165.553 24.1366 165.684 24.3326 165.771 24.5505C165.858 24.7683 165.902 24.9862 165.902 25.2258V25.2476C165.902 25.4872 165.858 25.7268 165.771 25.9447C165.684 26.1625 165.553 26.3586 165.379 26.5328H165.357C165.008 26.8596 164.572 27.0339 164.093 27.0121H161.456V35.2902C161.456 35.4426 161.478 35.5951 161.543 35.7476C161.609 35.9001 161.696 36.009 161.805 36.118C161.914 36.2269 162.045 36.314 162.197 36.3794C162.35 36.4447 162.502 36.4665 162.655 36.4665H163.047C163.396 36.4665 163.744 36.5754 164.049 36.7715C164.355 36.9675 164.572 37.2507 164.703 37.5775C164.834 37.9043 164.878 38.2746 164.812 38.6232C164.747 38.9717 164.572 39.2985 164.311 39.5381C164.137 39.6906 163.94 39.8213 163.723 39.9084C163.505 39.9956 163.287 40.0174 163.047 40.0174ZM146.333 36.1397C146.442 36.2487 146.573 36.3358 146.703 36.3794C146.856 36.4447 146.987 36.4665 147.139 36.4665H150.996V34.0484H147.161C147.008 34.0484 146.856 34.0702 146.703 34.1356C146.551 34.2009 146.442 34.2881 146.333 34.397C146.115 34.6584 146.006 34.9852 146.006 35.3119C146.006 35.4644 146.028 35.6169 146.093 35.7694C146.159 35.9219 146.246 36.0308 146.333 36.1397ZM152.74 39.9738C152.631 39.9738 152.5 39.9738 152.391 39.9956L149.122 40.0609C147.837 40.0827 146.507 40.1045 145.309 39.5817C142.846 38.5142 141.822 35.508 143.282 33.2424C143.849 32.3493 144.699 31.6957 145.701 31.369C147.379 30.8244 149.209 31.3036 150.953 31.0858C150.996 30.5412 151.018 29.9094 150.604 29.5391C150.277 29.2559 149.82 29.2341 149.406 29.2559H145.679C145.134 29.2559 144.59 29.2559 144.11 29.0163C143.849 28.8856 143.631 28.6895 143.478 28.4499C143.326 28.2102 143.217 27.927 143.195 27.6439C143.173 27.3607 143.217 27.0557 143.348 26.7943C143.478 26.5328 143.653 26.315 143.892 26.1407C144.481 25.705 145.287 25.7268 146.006 25.7268C147.183 25.7486 148.36 25.7268 149.515 25.7704C150.517 25.814 151.563 25.9447 152.413 26.4893C153.393 27.0992 154.004 28.1667 154.287 29.2995C154.57 30.4322 154.57 31.565 154.57 32.7196V37.425C154.57 38.2528 154.505 39.2331 153.807 39.6906C153.481 39.8649 153.11 39.9738 152.74 39.9738ZM138.488 40.0174C138.248 40.0174 138.009 39.9738 137.769 39.8866C137.551 39.7995 137.333 39.647 137.159 39.4727C136.984 39.2985 136.854 39.1024 136.745 38.8846C136.658 38.6667 136.592 38.4271 136.614 38.1875V31.8264H128.159V38.1657C128.159 38.4053 128.115 38.6449 128.028 38.8628C127.941 39.0806 127.788 39.2767 127.614 39.451C127.44 39.6252 127.244 39.7777 127.026 39.8649C126.808 39.952 126.568 40.0174 126.307 39.9956C125.827 39.9956 125.348 39.7995 124.999 39.451C124.65 39.1024 124.454 38.6449 124.454 38.1439V21.8056C124.454 21.3264 124.65 20.8471 124.999 20.4986C125.348 20.15 125.805 19.954 126.307 19.954C126.546 19.954 126.786 19.9975 127.026 20.0847C127.244 20.1718 127.461 20.3243 127.614 20.4986C127.788 20.6729 127.919 20.8689 128.028 21.0868C128.115 21.3046 128.159 21.5442 128.159 21.7839V28.0795H136.614V21.8056C136.614 21.566 136.658 21.3264 136.745 21.1085C136.832 20.8907 136.984 20.6729 137.159 20.5204C137.333 20.3461 137.529 20.2154 137.769 20.1065C137.987 20.0193 138.248 19.9758 138.488 19.9758C138.967 19.9758 139.447 20.1718 139.795 20.5204C140.144 20.8689 140.34 21.3264 140.34 21.8274V38.1875C140.34 38.6667 140.144 39.146 139.795 39.4945C139.447 39.7995 138.967 39.9956 138.488 40.0174ZM113.864 31.1729H119.072V30.3887C119.072 30.0837 118.963 29.147 118.723 28.9291L118.701 28.9073C118.592 28.7984 118.483 28.7113 118.353 28.6459C118.222 28.5806 118.069 28.5588 117.917 28.5588H115.019C114.866 28.5588 114.713 28.5806 114.561 28.6459C114.408 28.7113 114.299 28.7984 114.19 28.9073C113.973 29.1252 113.864 30.0401 113.864 30.3669V31.1729ZM120.641 40.0174H115.019C114.387 40.0174 113.776 39.9084 113.21 39.6688C112.098 39.1895 111.227 38.2964 110.726 37.1854V37.1636C110.486 36.5754 110.377 35.9655 110.377 35.3337V30.4105C110.377 29.7787 110.486 29.1688 110.726 28.6024C110.965 28.0578 111.314 27.5567 111.728 27.121C112.142 26.7071 112.665 26.3586 113.21 26.1407C113.776 25.8793 114.408 25.7486 115.019 25.7486H117.917C118.549 25.7486 119.159 25.8793 119.726 26.1407C120.27 26.3586 120.771 26.7071 121.207 27.121C121.621 27.5349 121.97 28.036 122.188 28.6024C122.449 29.1688 122.58 29.8005 122.58 30.4105V32.9592C122.58 33.1989 122.537 33.4167 122.449 33.6345C122.362 33.8524 122.232 34.0484 122.057 34.2009C121.883 34.3534 121.687 34.4841 121.491 34.5713C121.294 34.6584 121.055 34.702 120.815 34.702H113.864V35.3337C113.864 35.4862 113.885 35.6387 113.951 35.7912C114.016 35.9437 114.082 36.0526 114.19 36.1615C114.299 36.2704 114.43 36.3576 114.561 36.4012C114.713 36.4665 114.866 36.4883 115.019 36.4883H120.641C120.88 36.4883 121.098 36.5319 121.316 36.619C121.534 36.7061 121.709 36.8368 121.861 37.0111C122.035 37.1636 122.166 37.3597 122.253 37.5775C122.34 37.7953 122.384 38.0132 122.384 38.2528C122.384 38.4924 122.34 38.7321 122.253 38.9499C122.166 39.1678 122.035 39.3638 121.861 39.5381C121.709 39.6906 121.512 39.8213 121.294 39.9084C121.098 39.9738 120.859 40.0174 120.641 40.0174ZM107.5 40.0174H107.108C106.476 40.0174 105.844 39.9084 105.256 39.6688H105.234C104.689 39.4292 104.188 39.0806 103.752 38.6667C103.317 38.231 102.968 37.73 102.706 37.1636V37.1418C102.467 36.5536 102.358 35.9219 102.358 35.2902V27.0121H100.985C100.527 27.0121 100.07 26.8378 99.7209 26.5328L99.6991 26.5111C99.394 26.1625 99.2197 25.705 99.2197 25.2476C99.2197 24.7901 99.394 24.3326 99.6991 23.9841H99.7209C99.8952 23.8098 100.091 23.6791 100.309 23.592C100.527 23.5048 100.767 23.4613 101.007 23.4613H102.379V21.7621C102.379 21.5225 102.423 21.3046 102.51 21.0868C102.597 20.8689 102.728 20.6729 102.902 20.5204C103.077 20.3461 103.273 20.2154 103.491 20.1283C103.709 20.0411 103.948 19.9975 104.188 19.9975C104.646 19.9975 105.103 20.1936 105.43 20.5204C105.757 20.8471 105.953 21.2828 105.953 21.7621V23.4613H108.743C108.982 23.4613 109.2 23.5048 109.418 23.592C109.636 23.6791 109.81 23.8098 109.985 23.9841C110.159 24.1366 110.29 24.3326 110.377 24.5505C110.464 24.7683 110.508 24.9862 110.508 25.2258V25.2476C110.508 25.4872 110.464 25.7268 110.377 25.9447C110.29 26.1625 110.159 26.3586 109.985 26.5328C109.636 26.8596 109.2 27.0339 108.721 27.0121H105.975V35.2902C105.975 35.4426 105.997 35.5951 106.062 35.7476C106.128 35.9001 106.215 36.009 106.324 36.118C106.433 36.2269 106.563 36.314 106.716 36.3794C106.869 36.4447 107.021 36.4665 107.174 36.4665H107.566C107.915 36.4665 108.263 36.5754 108.568 36.7715C108.873 36.9675 109.091 37.2507 109.222 37.5775C109.353 37.9043 109.396 38.2746 109.331 38.6232C109.266 38.9717 109.091 39.2985 108.83 39.5381H108.808C108.634 39.6906 108.438 39.8213 108.22 39.9084C108.002 39.9956 107.74 40.0174 107.5 40.0174ZM96.4304 24.0059C95.9074 24.0059 95.3844 23.8098 95.0139 23.4395L94.9921 23.4177C94.6217 23.0256 94.4256 22.5245 94.4256 22.0017C94.4256 21.4789 94.6217 20.9778 94.9921 20.5857C95.1665 20.3897 95.4062 20.2372 95.6459 20.1283C95.8856 20.0193 96.1471 19.954 96.4304 19.954C96.6919 19.954 96.9752 19.9975 97.2149 20.1065C97.4546 20.2154 97.6943 20.3461 97.8904 20.5422C98.0865 20.7382 98.2391 20.9561 98.3262 21.1957C98.4352 21.4353 98.4788 21.7185 98.4788 21.9799C98.4788 22.2413 98.4134 22.5245 98.3045 22.7642C98.1955 23.0038 98.043 23.2434 97.8468 23.4177C97.6507 23.592 97.4328 23.7445 97.1931 23.8534C96.9534 23.9623 96.6919 24.0059 96.4304 24.0059ZM96.4304 40.0174C95.9728 40.0174 95.5151 39.8431 95.1883 39.5381L95.1665 39.5163C94.8396 39.1678 94.6653 38.7321 94.6871 38.2528V26.7289C94.6871 26.5111 94.7306 26.2714 94.8178 26.0754C94.905 25.8575 95.0357 25.6833 95.1883 25.509C95.3408 25.3347 95.5369 25.204 95.7548 25.1169C95.9728 25.0297 96.1907 24.9862 96.4304 24.9862C96.6701 24.9862 96.888 25.0297 97.1059 25.1169C97.3238 25.204 97.52 25.3347 97.6725 25.509C97.8468 25.6615 97.9776 25.8575 98.0647 26.0536C98.1519 26.2497 98.1955 26.4893 98.1955 26.7289V38.2528C98.1955 38.4924 98.1519 38.7321 98.0647 38.9499C97.9776 39.1678 97.8468 39.3638 97.6725 39.5381C97.52 39.7124 97.3238 39.8213 97.1059 39.9084C96.888 39.9738 96.6701 40.0174 96.4304 40.0174ZM90.6338 40.0174C90.3941 40.0174 90.1544 39.9738 89.9365 39.8866C89.7186 39.7995 89.5225 39.6688 89.3481 39.4945C89.1738 39.3203 89.0431 39.1242 88.9559 38.9064C88.8687 38.6885 88.8251 38.4489 88.8251 38.2093V30.4976C88.8251 30.3451 88.8033 30.1926 88.738 30.0401C88.6726 29.8876 88.5854 29.7569 88.4765 29.648C88.3675 29.5391 88.2368 29.452 88.106 29.3866C87.9535 29.3212 87.8009 29.2995 87.6484 29.2995H84.4451C84.2925 29.2995 84.14 29.3212 83.9874 29.3866C83.8349 29.452 83.7041 29.5391 83.5952 29.648C83.4862 29.7569 83.3991 29.8876 83.3337 30.0401C83.2683 30.1926 83.2465 30.3451 83.2465 30.4976V38.2093C83.2465 38.4489 83.2029 38.6885 83.1158 38.8846C83.0286 39.1024 82.8979 39.2985 82.7235 39.4727C82.571 39.647 82.3749 39.7777 82.1569 39.8649C81.939 39.952 81.6993 39.9956 81.4814 39.9956C81.2417 39.9956 81.002 39.952 80.7841 39.8649C80.5662 39.7777 80.37 39.647 80.1957 39.4727C80.0214 39.2985 79.8906 39.1024 79.8035 38.8846C79.7163 38.6667 79.6727 38.4271 79.6727 38.1875V21.7621C79.6727 21.5225 79.7163 21.2828 79.8035 21.065C79.8906 20.8471 80.0214 20.6511 80.1957 20.4768C80.37 20.3025 80.5662 20.1718 80.7841 20.0847C81.002 19.9975 81.2417 19.954 81.4814 19.954C81.7211 19.954 81.939 19.9975 82.1569 20.0847C82.3749 20.1718 82.571 20.3025 82.7235 20.4768C82.8979 20.6511 83.0286 20.8471 83.1158 21.065C83.2029 21.2828 83.2465 21.5225 83.2465 21.7621V25.8793C83.617 25.7922 84.0092 25.7268 84.4015 25.7486H87.6484C88.2804 25.7486 88.9123 25.8793 89.5007 26.1407C90.0673 26.3804 90.5903 26.7071 91.0043 27.1646C91.4401 27.6003 91.7888 28.1231 92.0067 28.7113C92.2682 29.2995 92.399 29.9094 92.399 30.5412V38.2528C92.399 38.4924 92.3554 38.7321 92.2682 38.9281C92.181 39.146 92.0503 39.342 91.876 39.5163C91.7234 39.6906 91.5273 39.8213 91.3094 39.9084C91.1133 39.9738 90.8735 40.0174 90.6338 40.0174ZM71.5009 40.0174H70.6074C70.237 39.9956 69.8665 39.952 69.5179 39.8649C69.1692 39.7777 68.8205 39.6688 68.4719 39.5163H68.4501C67.8399 39.2331 67.2733 38.8628 66.7939 38.4053C66.5978 38.5796 66.4017 38.7539 66.1838 38.9064C65.8569 39.146 65.53 39.342 65.1814 39.5163H65.1596C64.3969 39.8649 63.547 40.0391 62.7189 40.0174H62.087C61.3243 40.0174 60.5398 39.8649 59.8206 39.5817C58.3824 38.9499 57.2492 37.7954 56.5955 36.3576C56.3122 35.6387 56.1597 34.8545 56.1597 34.0702V21.8056C56.1597 21.3264 56.3558 20.8471 56.7045 20.4986C57.0531 20.15 57.5107 19.954 58.0119 19.954C58.2517 19.954 58.4914 19.9975 58.7311 20.0847C58.9708 20.1718 59.1669 20.3243 59.3194 20.4986C59.4938 20.6729 59.6245 20.8689 59.7335 21.0868C59.8206 21.3046 59.8642 21.5442 59.8642 21.7839V34.0484C59.8642 34.3534 59.9296 34.6366 60.0386 34.9198C60.2783 35.4644 60.7141 35.9001 61.2371 36.118C61.5204 36.2269 61.8255 36.2922 62.1088 36.2922H62.7189C63.0022 36.2922 63.3073 36.2487 63.5688 36.118C63.8303 36.009 64.07 35.8348 64.2879 35.6387C64.484 35.4209 64.6366 35.1812 64.7455 34.9198C64.8763 34.6366 64.9417 34.3534 64.9417 34.0484V21.7839C64.9417 21.5442 64.9852 21.3046 65.0724 21.0868C65.1596 20.8689 65.3121 20.6511 65.4864 20.4986C65.6608 20.3243 65.8569 20.1936 66.0966 20.0847C66.3145 19.9975 66.576 19.954 66.8157 19.954C67.2951 19.954 67.7745 20.15 68.1232 20.4986C68.4719 20.8471 68.668 21.3046 68.668 21.8056V34.0702C68.668 34.3752 68.7334 34.6584 68.8423 34.9416C68.9731 35.203 69.1256 35.4426 69.3217 35.6605C69.5397 35.8565 69.7794 36.0308 70.0409 36.1397C70.3024 36.2487 70.6074 36.314 70.8907 36.2922H71.5227C71.806 36.2922 72.1111 36.2487 72.3726 36.1397C72.6341 36.009 72.8738 35.8565 73.0699 35.6605C73.266 35.4644 73.4403 35.203 73.5493 34.9416C73.68 34.6584 73.7454 34.3752 73.7454 34.0702V21.8056C73.7454 21.3264 73.9415 20.8471 74.2902 20.4986C74.6389 20.15 75.0965 19.954 75.5977 19.954C75.8374 19.954 76.0771 19.9975 76.3168 20.0847C76.5347 20.1718 76.7526 20.3243 76.9052 20.4986C77.0795 20.6729 77.2103 20.8689 77.3192 21.0868C77.4064 21.3046 77.45 21.5442 77.45 21.7839V34.0484C77.45 34.8327 77.2974 35.6169 76.9924 36.3358C76.7091 37.0547 76.2732 37.7082 75.7284 38.2528C75.1837 38.8192 74.5299 39.2549 73.789 39.5817C73.0263 39.8866 72.2636 40.0174 71.5009 40.0174Z" fill="#00B5CE"/>
<path d="M46.0266 14.9439C45.4818 14.6825 44.8934 14.5518 44.3051 14.53C43.7167 14.5082 43.1065 14.5954 42.5618 14.7914C42.017 14.9875 41.494 15.3142 41.0581 15.7064C40.6223 16.0985 40.2736 16.5995 40.0121 17.1441L27.2205 44.5488C26.959 45.0934 26.8283 45.6816 26.8065 46.2698C26.7847 46.8579 26.8719 47.4679 27.068 48.0125C27.2641 48.5571 27.591 49.0799 27.9832 49.5374C28.3973 49.9731 28.8767 50.3434 29.4215 50.5831C29.9663 50.8445 30.5546 50.9752 31.143 50.997C31.7314 51.0187 32.3415 50.9316 32.8863 50.7355C33.4529 50.5395 33.9541 50.2127 34.3899 49.8206C34.8258 49.4285 35.1744 48.9274 35.4359 48.3828L48.2058 20.9782C48.4673 20.4336 48.598 19.8454 48.6198 19.2572C48.6416 18.669 48.5544 18.0591 48.3583 17.5145C48.1622 16.9481 47.8353 16.447 47.443 15.9896C47.0508 15.5321 46.5714 15.2053 46.0266 14.9439Z" fill="#FF8D1A"/>
<path fill-rule="evenodd" clip-rule="evenodd" d="M50.669 6.36131C50.887 6.49203 51.1485 6.5356 51.41 6.51381C51.6715 6.49203 51.9112 6.3831 52.1073 6.2306C52.3035 6.07811 52.456 5.83847 52.5432 5.59883C52.6304 5.35919 52.6304 5.07598 52.5432 4.83634C52.4778 4.5967 52.3253 4.35706 52.1291 4.20457C51.933 4.05207 51.6933 3.94314 51.4318 3.92136C51.1703 3.89957 50.9087 3.94314 50.6908 4.07386C50.4729 4.20457 50.2768 4.37885 50.146 4.61849C50.0588 4.77099 50.0152 4.92348 49.9935 5.09777C49.9717 5.27205 49.9935 5.44633 50.037 5.59883C50.0806 5.77311 50.1678 5.92561 50.2768 6.05632C50.3857 6.16525 50.5165 6.27417 50.669 6.36131ZM51.2356 0.871413L53.3059 0.065356C53.4149 0.0217853 53.5456 0 53.6764 0C53.8071 0 53.9161 0.0435706 54.0251 0.108927C54.134 0.174283 54.2212 0.261424 54.3084 0.348565C54.3955 0.435706 54.4391 0.566418 54.4609 0.69713L54.9404 2.87566C55.1801 3.98671 55.0057 5.11955 54.4609 6.12168L53.1534 8.53985L53.3059 8.7577C53.5674 9.12805 53.72 9.56376 53.7418 10.0212C53.7636 10.4787 53.6328 10.9144 53.3931 11.3066L52.2163 13.093C52.1727 13.1583 52.1291 13.2019 52.0637 13.2455C51.9984 13.289 51.933 13.289 51.8676 13.3108C51.8022 13.3108 51.7369 13.289 51.6715 13.2673C51.6061 13.2455 51.5625 13.1801 51.5189 13.1365C51.0831 12.5483 50.5601 12.0037 49.9935 11.568L48.468 14.3783C48.4462 14.4437 48.4026 14.4872 48.359 14.5308C48.3154 14.5744 48.2501 14.5962 48.2065 14.618C48.1411 14.6397 48.0757 14.6397 48.0321 14.6397C47.9668 14.6397 47.9014 14.618 47.8578 14.5962C47.7924 14.5744 47.7488 14.5308 47.727 14.4655C47.6835 14.4219 47.6617 14.3565 47.6399 14.2912C47.6181 14.2258 47.6181 14.1605 47.6399 14.0951C47.6617 14.0297 47.6835 13.9644 47.7052 13.9208L48.8602 11.8076C48.7295 11.6987 48.5769 11.6116 48.4244 11.5027L47.6834 12.8751C47.6617 12.9405 47.6181 12.9841 47.5745 13.0276C47.5309 13.0712 47.4655 13.1148 47.4219 13.1365C47.3566 13.1583 47.2912 13.1583 47.2258 13.1583C47.1604 13.1583 47.0951 13.1365 47.0515 13.093C47.0079 13.0494 46.9425 13.0276 46.8989 12.9623C46.8553 12.9187 46.8335 12.8533 46.8117 12.788C46.79 12.7226 46.79 12.6573 46.8117 12.5919C46.8335 12.5266 46.8553 12.4612 46.8989 12.4176L47.6399 11.0669C47.4873 11.0016 47.313 10.9362 47.1386 10.8927L46.0272 12.9623C46.0054 13.0276 45.9618 13.0712 45.9183 13.1148C45.8747 13.1583 45.8093 13.1801 45.7657 13.2019C45.7003 13.2237 45.635 13.2237 45.5914 13.2237C45.526 13.2237 45.4606 13.2019 45.417 13.1801C45.3517 13.1583 45.3081 13.1148 45.2863 13.0494C45.2427 13.0058 45.2209 12.9405 45.1991 12.8751C45.1773 12.8098 45.1773 12.7444 45.1991 12.6791C45.2209 12.6137 45.2427 12.5483 45.2645 12.5048L46.79 9.69447C46.0926 9.45483 45.3734 9.32412 44.6543 9.28055C44.5889 9.28055 44.5235 9.25876 44.4582 9.21519C44.3928 9.17162 44.3492 9.12805 44.3056 9.06269C44.262 8.99734 44.2402 8.93198 44.2402 8.86663C44.2402 8.80127 44.2402 8.73591 44.2838 8.67056L45.1555 6.70988C45.3299 6.29596 45.6567 5.94739 46.0272 5.70776C46.4195 5.46812 46.8771 5.35919 47.3348 5.38098H47.5963L48.9256 2.9628C49.3397 2.02604 50.2114 1.26355 51.2356 0.871413Z" fill="#FF8D1A"/>
<path d="M20.4874 23.1781C21.577 22.6771 22.8191 22.6117 23.9522 23.0256C25.0854 23.4395 26.0006 24.2891 26.5018 25.3783L35.4364 44.5268C35.6979 45.0714 35.8286 45.6595 35.8504 46.2477C35.8722 46.8359 35.785 47.4458 35.5889 47.9905C35.3928 48.5351 35.0659 49.0579 34.6737 49.5154C34.2596 49.951 33.7802 50.3214 33.2354 50.561C32.1458 51.062 30.9037 51.1274 29.7706 50.7135C28.6374 50.2996 27.7222 49.4718 27.221 48.3826L18.2864 29.2124C18.025 28.6678 17.8942 28.0796 17.8724 27.4914C17.8506 26.9032 17.9378 26.2933 18.1339 25.7487C18.33 25.2041 18.6569 24.6812 19.0492 24.2238C19.4632 23.7881 19.9426 23.4395 20.4874 23.1781Z" fill="#00B5CE"/>
<path d="M24.3009 23.1781C23.2113 22.6771 21.9692 22.6117 20.836 23.0256C19.7028 23.4395 18.7876 24.2891 18.2864 25.3783L9.35188 44.5268C9.09038 45.0714 8.95963 45.6595 8.93784 46.2477C8.91605 46.8359 9.00321 47.4458 9.19934 47.9905C9.39546 48.5351 9.72233 49.0579 10.1146 49.5154C10.5286 49.951 11.008 50.3214 11.5528 50.561C12.6424 51.062 13.8845 51.1274 15.0177 50.7135C16.1508 50.2996 17.0661 49.45 17.5673 48.3608L26.5018 29.2124C26.7633 28.6678 26.894 28.0796 26.9158 27.4914C26.9376 26.9032 26.8505 26.2933 26.6543 25.7487C26.4582 25.2041 26.1313 24.6812 25.7391 24.2238C25.3251 23.7881 24.8456 23.4395 24.3009 23.1781Z" fill="#FF8D1A"/>
<path d="M2.59646 23.1782C3.14125 22.9167 3.72962 22.786 4.31799 22.7643C4.90636 22.7425 5.51652 22.8296 6.06131 23.0257C6.62789 23.2217 7.12909 23.5485 7.56492 23.9406C8.00075 24.3327 8.34942 24.8338 8.61091 25.3784L17.5454 44.5268C17.8069 45.0714 17.9377 45.6596 17.9595 46.2478C17.9813 46.8359 17.8941 47.4459 17.698 47.9905C17.5019 48.5351 17.175 49.0579 16.7827 49.5154C16.3905 49.9729 15.8893 50.3214 15.3445 50.5611C14.2549 51.0621 13.0128 51.1274 11.8796 50.7135C10.7465 50.2996 9.83124 49.4501 9.33003 48.3608L0.417307 29.2124C0.155809 28.6678 0.0250602 28.0796 0.00326873 27.4915C-0.0185228 26.9033 0.0686432 26.2933 0.264767 25.7487C0.46089 25.1823 0.787763 24.6813 1.18001 24.2238C1.57226 23.7663 2.07346 23.4396 2.59646 23.1782Z" fill="#00B5CE"/>
</svg>
