<svg width="20" height="24" viewBox="0 0 20 24" fill="none" xmlns="http://www.w3.org/2000/svg">
<path d="M18.4122 10.478L2.82509 0.952133C2.56254 0.791585 2.26196 0.703887 1.95427 0.698064C1.64658 0.692241 1.3429 0.768502 1.07446 0.919001C0.806027 1.0695 0.582538 1.2888 0.426989 1.55434C0.27144 1.81988 0.18945 2.12207 0.189453 2.42982L0.189453 21.4832C0.189704 21.7909 0.271852 22.0929 0.42746 22.3583C0.583067 22.6237 0.806524 22.8429 1.07487 22.9933C1.34322 23.1438 1.64678 23.2201 1.95437 23.2144C2.26197 23.2087 2.5625 23.1212 2.82509 22.9609L18.4122 13.435C18.6654 13.2802 18.8746 13.0629 19.0198 12.804C19.1649 12.5452 19.2412 12.2533 19.2412 11.9565C19.2412 11.6597 19.1649 11.3679 19.0198 11.109C18.8746 10.8501 18.6654 10.6328 18.4122 10.478V10.478Z" fill="white"/>
</svg>
