<svg width="33" height="34" viewBox="0 0 33 34" fill="none" xmlns="http://www.w3.org/2000/svg">
<path fill-rule="evenodd" clip-rule="evenodd" d="M16.4003 0.97168C7.48345 0.97168 0.254883 8.20025 0.254883 17.1171C0.254883 26.034 7.48345 33.2626 16.4003 33.2626C25.3172 33.2626 32.5458 26.034 32.5458 17.1171C32.5458 8.20025 25.3172 0.97168 16.4003 0.97168ZM17.0273 14.3209L16.9935 13.8088C16.8918 12.4815 17.784 11.2691 19.1957 10.7988C19.7152 10.6316 20.5961 10.6107 21.172 10.757C21.3979 10.8197 21.8271 11.0288 22.132 11.2169L22.6854 11.5618L23.2952 11.3841C23.634 11.29 24.0857 11.1333 24.289 11.0288C24.481 10.9347 24.6504 10.8824 24.6504 10.9138C24.6504 11.0915 24.2325 11.6976 23.8825 12.0321C23.4081 12.5024 23.5436 12.5442 24.5036 12.2307C25.0796 12.053 25.0908 12.053 24.9779 12.2516C24.9102 12.3561 24.5601 12.7219 24.1874 13.0563C23.5549 13.6311 23.5211 13.6938 23.5211 14.1746C23.5211 14.9166 23.1371 16.4634 22.7531 17.31C22.0416 18.8986 20.517 20.5394 18.9924 21.3651C16.8467 22.5252 13.9894 22.8178 11.5839 22.1385C10.7821 21.9086 9.4043 21.3233 9.4043 21.2188C9.4043 21.1874 9.82215 21.1456 10.3304 21.1352C11.3919 21.1143 12.4535 20.8425 13.357 20.3618L13.9668 20.0273L13.2666 19.8078C12.2728 19.4943 11.3806 18.7732 11.1548 18.0938C11.087 17.8744 11.1096 17.8639 11.742 17.8639L12.3971 17.8535L11.8437 17.6131C11.1887 17.31 10.5901 16.7979 10.2965 16.2753C10.0819 15.8991 9.81086 14.948 9.88991 14.8748C9.9125 14.8435 10.1497 14.9062 10.4207 14.9898C11.1999 15.2511 11.3016 15.1884 10.8499 14.7494C10.0028 13.9551 9.7431 12.7741 10.1497 11.6558L10.3417 11.1542L11.087 11.8335C12.6116 13.2026 14.4073 14.0178 16.4627 14.2582L17.0273 14.3209Z" fill="#CDCDD7"/>
</svg>
