<svg width="238" height="211" viewBox="0 0 238 211" fill="none" xmlns="http://www.w3.org/2000/svg">
<g clip-path="url(#clip0_216_3458)">
<path d="M109.25 205.044C108.853 206.4 108.574 207.787 108.418 209.191C108.425 209.468 108.322 209.738 108.131 209.939C107.939 210.141 107.675 210.258 107.397 210.266C107.119 210.273 106.849 210.17 106.648 209.979C106.446 209.788 106.328 209.524 106.321 209.247C106.423 207.951 106.658 206.669 107.02 205.421C104.832 206.524 104.713 206.622 104.286 206.517C104.154 206.487 104.029 206.432 103.918 206.354C103.807 206.275 103.712 206.176 103.64 206.061C103.568 205.946 103.519 205.818 103.497 205.684C103.475 205.55 103.479 205.413 103.51 205.281C103.657 204.66 103.867 204.716 105.999 203.634C103.755 202.838 102.692 202.573 102.665 201.581C102.649 201.347 102.712 201.115 102.843 200.92C102.974 200.725 103.166 200.579 103.389 200.505C103.612 200.431 103.853 200.432 104.075 200.51C104.297 200.587 104.487 200.736 104.615 200.932C105.125 201.169 107.034 201.812 107.677 202.035C107.097 197.4 106.817 195.85 106.978 195.054C107.045 194.788 107.216 194.56 107.452 194.42C107.688 194.28 107.97 194.239 108.236 194.307C108.502 194.375 108.73 194.545 108.871 194.781C109.011 195.016 109.052 195.298 108.984 195.564C108.984 196.339 109.481 199.976 109.683 201.637C112.605 200.018 114.136 199.236 114.78 200.241C114.862 200.377 114.913 200.529 114.927 200.687C114.941 200.845 114.919 201.004 114.863 201.153C114.806 201.301 114.716 201.434 114.6 201.542C114.484 201.651 114.344 201.731 114.192 201.777C112.961 202.174 111.787 202.728 110.697 203.424C116.388 206.217 116.234 205.896 116.422 206.524C116.461 206.654 116.474 206.791 116.459 206.926C116.445 207.061 116.404 207.192 116.339 207.311C116.275 207.43 116.187 207.536 116.081 207.621C115.975 207.706 115.854 207.77 115.723 207.809C115.297 207.976 115.255 207.99 109.25 205.044Z" fill="#F8D829"/>
<path d="M195.076 193.462C195.775 194.628 195.971 197.127 194.734 197.93C194.402 198.362 193.952 198.688 193.438 198.868C192.924 199.048 192.368 199.073 191.839 198.942C190.791 199.599 189.043 197.588 188.498 196.653C186.673 193.63 192.552 189.427 195.076 193.462Z" fill="#F8D829"/>
<path d="M116.576 3.0188C120.351 7.72404 116.29 12.0942 113.605 11.787C112.654 12.8551 109.725 11.2076 108.376 8.91083C105.342 3.76578 112.2 -2.43341 116.576 3.0188Z" fill="#F8D829"/>
<path d="M124.699 121.473C123.21 120.852 123.092 120.035 122.127 118.911C121.26 118.123 120.12 118.402 120.03 119.889C119.575 123.763 118.282 123.903 117.065 124.985C115.982 125.948 116.15 127.449 118.268 127.484C119.708 127.484 121.19 127.379 121.763 127.938C122.903 129.662 122.854 130.828 123.93 130.828C125.615 131.659 127.16 130.228 126.14 129.201C126.14 129.139 126.098 129.076 126.07 129.006C125.972 125.711 126.51 125.32 127.468 124.657C127.692 124.503 129.118 123.77 128.433 122.667C127.88 121.92 127.083 122.304 124.699 121.473ZM125.231 123.784C124.098 124.929 124.028 126.577 123.986 127.742C123.182 126.193 122.637 125.515 119.792 125.432C120.817 124.478 121.506 123.22 121.756 121.843C122.763 123.037 123.77 123.386 125.231 123.784Z" fill="#F8D829"/>
<path d="M157.417 112.482C154.159 113.662 153.635 118.863 157.256 119.826C164.359 121.697 163.485 110.318 157.417 112.482ZM157.829 114.576C160.626 113.299 161.36 118.716 158.011 117.92C157.459 117.697 157.543 117.341 156.962 117.222C156.788 116.748 156.779 116.229 156.936 115.749C157.094 115.269 157.408 114.856 157.829 114.576Z" fill="#F8D829"/>
<path d="M60.0693 180.317C59.6219 180.512 58.818 181.881 58.6013 182.32C56.2314 187.158 61.4535 193.113 64.7881 192.269C67.3048 191.626 70.6254 187.633 69.472 183.71C67.6543 177.406 61.9568 177.336 60.0693 180.317ZM65.4452 181.79C65.1719 181.447 64.794 181.201 64.3687 181.092C64.7672 181.05 65.2146 181.497 65.4942 181.79H65.4452ZM65.4452 189.469L65.683 189.274C65.7656 189.267 65.8475 189.253 65.9276 189.232C65.8017 189.371 65.6311 189.462 65.4452 189.49V189.469Z" fill="#F8D829"/>
<path d="M53.2395 157.691C55.7981 155.555 54.8683 151.318 51.6875 150.71C51.2051 149.44 49.6672 150.27 48.8353 151.408C48.6137 151.489 48.428 151.645 48.3114 151.85C48.1948 152.055 48.155 152.294 48.1991 152.525C46.8289 156.058 50.7367 159.772 53.2395 157.691ZM50.1845 152.923C53.5051 151.401 53.1346 156.693 51.4917 156.414C51.1569 156.295 50.8522 156.104 50.5989 155.855C50.3455 155.606 50.1497 155.305 50.0252 154.972C49.9007 154.64 49.8504 154.284 49.8779 153.93C49.9054 153.576 50.0101 153.233 50.1845 152.923Z" fill="#F8D829"/>
<path d="M17.4252 60.1867C21.0394 57.1639 19.7321 51.1741 15.23 50.3364C14.531 48.5353 12.3778 49.722 11.1963 51.3486C10.8835 51.4622 10.6216 51.6835 10.4576 51.9727C10.2935 52.2619 10.2383 52.6001 10.3016 52.9264C8.33713 57.8829 13.8808 63.1327 17.4252 60.1867ZM13.1118 53.4499C17.8026 51.2928 17.3063 58.7835 14.9574 58.3367C13.4264 57.6735 11.8325 55.7746 13.1048 53.4499H13.1118Z" fill="#F8D829"/>
<path d="M180.116 15.6407C184.967 11.5777 183.213 3.54946 177.18 2.41853C176.257 0.010058 173.349 1.59473 171.762 3.7798C170.706 4.34527 170.364 5.09224 170.566 5.87412C167.952 12.548 175.376 19.585 180.116 15.6407ZM173.565 5.50415C182.199 1.5389 181.255 15.2776 176.963 14.4888C174.167 13.2671 171.224 9.77656 173.565 5.50415Z" fill="#F8D829"/>
<path d="M75.9034 127.798C78.0776 123.421 73.0721 119.875 70.122 123.358C69.4229 124.182 68.6609 125.502 69.0524 126.472C69.0943 129.823 73.9949 131.666 75.9034 127.798ZM71.646 124.748C72.8764 123.135 75.0995 124.427 74.0928 126.842C73.8691 127.261 73.4706 127.861 72.9952 127.952C72.4779 127.952 71.4223 127.596 71.1776 127.037C71.0443 126.243 71.2113 125.427 71.646 124.748Z" fill="#F8D829"/>
<path d="M59.5308 94.6733C60.3907 94.785 60.7682 93.9053 61.1527 93.1933C62.5509 90.6312 63.0752 89.3048 66.6055 90.7918C66.764 90.8633 66.9372 90.8964 67.111 90.8884C67.2847 90.8804 67.4541 90.8315 67.6053 90.7458C67.7566 90.6601 67.8855 90.5399 67.9814 90.395C68.0774 90.2502 68.1377 90.0847 68.1575 89.9122C68.2134 89.5003 68.0316 89.1093 67.6402 87.8667C66.4237 83.4407 70.849 82.0096 68.8216 80.8019C68.7723 80.6407 68.6844 80.4939 68.5656 80.3741C68.4467 80.2543 68.3006 80.1652 68.1396 80.1144C67.9787 80.0636 67.8078 80.0525 67.6416 80.0823C67.4754 80.1121 67.319 80.1817 67.1858 80.2853C61.4813 84.9975 60.3557 77.4021 58.4752 79.9083C57.7761 80.8228 58.6989 81.8909 59.1114 82.9241C58.1117 83.7549 54.4136 84.6624 54.1549 84.7601C53.9688 84.8486 53.8122 84.9888 53.7041 85.164C53.5959 85.3392 53.5407 85.5418 53.5452 85.7476C53.5496 85.9533 53.6135 86.1534 53.7291 86.3238C53.8447 86.4941 54.0071 86.6275 54.1968 86.7079C54.9378 86.9801 56.0843 86.7916 57.6922 87.5944C61.2436 89.8005 56.9792 94.3312 59.5308 94.6733ZM59.1254 82.9591L59.0764 83.0498L59.1254 82.9591ZM58.3144 85.6188C59.4889 85.172 60.9499 84.5507 61.1666 83.329C62.0964 83.9783 62.9494 84.4251 65.9624 83.4756C65.5865 84.2037 65.3617 85.0001 65.3017 85.8171C65.2416 86.634 65.3475 87.4547 65.6129 88.2297C65.0556 88.8441 64.3283 89.2795 63.5231 89.4809C62.7178 89.6823 61.8709 89.6406 61.0895 89.361C60.308 89.0815 59.6272 88.5766 59.1332 87.9105C58.6392 87.2443 58.3543 86.4468 58.3144 85.6188Z" fill="#F8D829"/>
<path d="M197.719 51.5651C194.859 53.7013 194.922 59.2024 199.585 59.8935C201.878 60.2356 205.178 57.9668 204.905 53.9666C204.535 48.7169 198.697 49.771 197.719 51.5651ZM199.117 57.6177C196.859 56.41 197.9 54.0155 199.166 53.0521C199.396 52.9284 199.583 52.7387 199.704 52.5076C204.688 50.2527 203.206 59.335 199.124 57.6177H199.117Z" fill="#F8D829"/>
<path d="M59.7268 14.0488C58.9335 13.1311 58.0836 12.2638 57.1821 11.4518C58.6292 9.95089 59.8106 9.16201 58.8948 8.24749C57.979 7.33297 57.1401 8.48485 55.5952 10.1324C53.5818 8.58259 52.4283 7.58429 51.7362 8.73617C51.0441 9.88805 52.5752 10.3418 54.253 11.6752C53.8056 12.2127 52.3585 14.1186 52.0649 14.6072C51.9267 14.8442 51.8885 15.1263 51.9586 15.3914C52.0288 15.6565 52.2015 15.883 52.4388 16.0209C52.6761 16.1588 52.9586 16.197 53.2241 16.1269C53.4896 16.0569 53.7163 15.8844 53.8545 15.6474C54.1481 15.1587 55.4623 13.4344 55.8328 12.9946C56.3641 13.4903 57.5666 14.684 57.8183 14.9563C58.3776 16.4153 60.5797 15.2216 59.7268 14.0488Z" fill="#F8D829"/>
<path d="M7.78494 157.056C9.49014 156.985 11.1896 156.812 12.8743 156.54C13.1306 156.474 13.3522 156.314 13.4936 156.09C13.6349 155.867 13.6852 155.598 13.6342 155.339C13.5832 155.08 13.4347 154.85 13.2193 154.697C13.0039 154.543 12.7378 154.478 12.4758 154.515C11.4482 154.724 8.98036 154.927 7.94571 155.004C8.03659 153.656 8.33724 149.698 8.33724 149.698C8.35485 149.42 8.26125 149.147 8.07705 148.938C7.89285 148.729 7.63312 148.602 7.35501 148.585C7.0769 148.567 6.80317 148.66 6.59406 148.844C6.38495 149.028 6.25761 149.288 6.23999 149.565C6.23999 149.565 5.95339 153.251 5.82756 155.108C4.35948 155.157 2.88437 155.206 1.4093 155.227C1.20397 155.214 0.999474 155.263 0.821928 155.367C0.644382 155.47 0.501861 155.625 0.412565 155.81C0.323268 155.995 0.291294 156.202 0.320656 156.406C0.350019 156.609 0.439414 156.799 0.577436 156.951C0.933969 157.342 0.954962 157.37 5.66678 157.175C5.31724 160.798 4.77887 162.236 6.205 162.32C7.44937 162.404 7.40743 161.287 7.78494 157.056Z" fill="#F8D829"/>
<path d="M230.17 76.0547C233.036 78.1491 237.203 75.5731 237.531 71.9499C237.986 66.8537 231.939 65.8136 229.66 67.9986C229.111 68.5343 228.685 69.1819 228.409 69.8972C228.134 70.6126 228.017 71.3787 228.065 72.1435C228.114 72.9083 228.327 73.6536 228.69 74.3286C229.053 75.0036 229.558 75.5924 230.17 76.0547Z" fill="#F8D829"/>
<path d="M233.841 133.9C232.89 133.9 232.785 134.759 232.044 137.125L230.415 136.427C230.178 136.289 229.895 136.251 229.63 136.321C229.364 136.391 229.138 136.564 228.999 136.801C228.861 137.038 228.823 137.32 228.893 137.585C228.963 137.85 229.136 138.076 229.373 138.214L231.471 139.115C230.911 141.083 230.89 141.377 231.107 141.761C231.212 141.934 231.365 142.074 231.548 142.162C231.731 142.25 231.936 142.282 232.137 142.256C232.338 142.229 232.527 142.144 232.681 142.011C232.835 141.879 232.946 141.704 233.002 141.509C233.107 140.979 233.239 140.448 233.386 139.925C235.12 140.623 235.973 141.104 236.609 140.462C236.754 140.321 236.853 140.14 236.895 139.942C236.937 139.744 236.92 139.538 236.845 139.35C236.77 139.162 236.642 139.001 236.475 138.886C236.309 138.77 236.112 138.707 235.91 138.703C235.448 138.577 234.414 138.137 233.98 137.949C234.512 136.141 235.637 133.9 233.841 133.9Z" fill="#F8D829"/>
<path d="M102.315 97.1865C103.888 97.8218 108.25 100.754 105.419 92.8861C104.23 89.612 104.202 89.3956 103.643 89.249C103.697 89.037 103.677 88.8131 103.586 88.614C103.496 88.4149 103.34 88.2525 103.145 88.1534C102.95 88.0543 102.727 88.0245 102.512 88.0688C102.298 88.1132 102.105 88.229 101.965 88.3973C95.4986 96.7257 96.9247 95.0293 102.315 97.1865ZM102.559 90.8058C103.245 92.4706 103.824 94.1775 104.293 95.9159C102.89 95.2969 101.452 94.7608 99.9866 94.3102C100.805 93.1165 101.678 91.9507 102.559 90.8407V90.8058Z" fill="#F8D829"/>
<path d="M138.513 86.3517C138.695 84.6692 140.317 79.6708 133.522 84.5645C130.726 86.603 130.523 86.6588 130.509 87.2662C130.291 87.2742 130.082 87.3557 129.917 87.4973C129.751 87.639 129.638 87.8324 129.597 88.0462C129.556 88.26 129.588 88.4814 129.689 88.6745C129.79 88.8675 129.953 89.0207 130.152 89.1092C139.946 93.0256 137.905 92.132 138.513 86.3517ZM132.305 87.8736C133.721 86.7594 135.206 85.7358 136.752 84.8089C136.541 86.3246 136.42 87.8515 136.388 89.3814C135.011 88.9207 133.655 88.4111 132.305 87.8736Z" fill="#F8D829"/>
<path d="M114.598 163.618C111.801 163.618 111.801 168.079 114.598 168.079C117.394 168.079 117.394 163.618 114.598 163.618Z" fill="#F8D829"/>
<path d="M141.163 191.57C138.367 191.57 138.367 196.024 141.163 196.024C143.959 196.024 143.959 191.57 141.163 191.57Z" fill="#F8D829"/>
<path d="M198.488 139.087C194.992 139.087 194.992 143.548 198.488 143.548C200.585 143.548 200.585 139.087 198.488 139.087Z" fill="#F8D829"/>
<path d="M150.251 89.3396C147.455 89.3396 147.455 93.8005 150.251 93.8005C153.047 93.8005 153.047 89.3396 150.251 89.3396Z" fill="#F8D829"/>
<path d="M94.3242 112.14C90.8288 112.14 90.8288 116.594 94.3242 116.594C97.1205 116.594 97.1205 112.14 94.3242 112.14Z" fill="#F8D829"/>
<path d="M97.121 140.665C92.9265 140.665 92.9265 147.352 97.121 147.352C100.616 147.387 100.616 140.665 97.121 140.665Z" fill="#F8D829"/>
<path d="M36.3005 122.157C34.2032 122.157 34.2032 126.611 36.3005 126.611C39.7959 126.611 39.7959 122.157 36.3005 122.157Z" fill="#F8D829"/>
<path d="M148.853 67.7263C146.057 67.7263 146.057 72.1872 148.853 72.1872C152.349 72.1872 152.349 67.7263 148.853 67.7263Z" fill="#F8D829"/>
<path d="M158.64 147.785C155.844 147.785 155.844 152.246 158.64 152.246C161.437 152.246 161.437 147.785 158.64 147.785Z" fill="#F8D829"/>
<path d="M83.8384 37.1213C80.3429 37.1213 80.3429 41.5823 83.8384 41.5823C86.6347 41.5823 86.6347 37.1213 83.8384 37.1213Z" fill="#F8D829"/>
<path d="M103.413 42.3501C99.9172 42.3501 99.9172 46.811 103.413 46.811C105.51 46.811 105.51 42.3501 103.413 42.3501Z" fill="#F8D829"/>
<path d="M146.057 164.875C141.862 164.875 141.862 169.336 146.057 169.336C148.853 169.336 148.853 164.875 146.057 164.875Z" fill="#F8D829"/>
<path d="M10.4344 102.01C6.23995 102.01 6.23995 110.388 10.4344 110.388C16.7262 110.388 16.7262 102.01 10.4344 102.01Z" fill="#F8D829"/>
<path d="M180.312 99.7974C175.418 99.7974 175.418 104.251 180.312 104.251C181.011 104.251 181.011 99.7974 180.312 99.7974Z" fill="#F8D829"/>
<path d="M175.418 137.935C173.321 137.935 173.321 142.396 175.418 142.396C178.914 142.396 178.914 137.935 175.418 137.935Z" fill="#F8D829"/>
<path d="M120.19 148.26C116.695 148.26 116.695 152.721 120.19 152.721C122.288 152.721 122.288 148.26 120.19 148.26Z" fill="#F8D829"/>
<path d="M140.072 43.5787C139.37 44.8038 138.778 46.0887 138.304 47.4183C138.233 47.6709 138.068 47.8871 137.844 48.023C137.619 48.1589 137.351 48.2044 137.094 48.1503C136.837 48.0961 136.61 47.9462 136.46 47.7312C136.309 47.5162 136.246 47.2521 136.283 46.9924C136.672 45.7549 137.185 44.5597 137.814 43.4251C135.43 43.9906 135.298 44.0534 134.899 43.8579C134.777 43.7972 134.667 43.7127 134.577 43.6094C134.488 43.5061 134.419 43.386 134.376 43.2561C134.333 43.1262 134.317 42.9891 134.327 42.8528C134.338 42.7164 134.375 42.5835 134.438 42.4617C134.717 41.8893 134.913 41.994 137.234 41.4285C135.235 40.144 134.263 39.6344 134.438 38.6361C134.477 38.4045 134.592 38.1925 134.764 38.0331C134.937 37.8737 135.158 37.776 135.392 37.7552C135.626 37.7345 135.86 37.7919 136.058 37.9184C136.256 38.045 136.407 38.2336 136.486 38.4546C136.927 38.8037 138.632 39.8508 139.213 40.2418C139.723 35.5993 139.807 34.0286 140.17 33.2607C140.298 33.0181 140.517 32.8363 140.78 32.7551C141.042 32.6739 141.326 32.7001 141.568 32.8279C141.811 32.9556 141.993 33.1745 142.075 33.4363C142.156 33.6982 142.13 33.9815 142.002 34.2241C141.834 34.985 141.457 38.6291 141.303 40.2976C144.519 39.397 146.196 38.9851 146.574 40.137C146.623 40.2878 146.637 40.4479 146.615 40.605C146.593 40.7621 146.536 40.912 146.446 41.0434C146.357 41.1748 146.239 41.2841 146.102 41.3629C145.964 41.4418 145.81 41.4881 145.651 41.4983C144.354 41.5913 143.075 41.8566 141.848 42.2872C146.742 46.3083 146.665 45.9732 146.7 46.6294C146.713 46.9024 146.618 47.1695 146.434 47.3723C146.251 47.5751 145.994 47.697 145.721 47.7115C145.239 47.8162 145.232 47.8302 140.072 43.5787Z" fill="#F8D829"/>
<path d="M186.995 159.611C186.044 159.611 185.939 160.47 185.198 162.829L183.569 162.131C183.332 161.993 183.05 161.955 182.784 162.025C182.519 162.095 182.292 162.268 182.154 162.505C182.016 162.742 181.977 163.024 182.048 163.289C182.118 163.554 182.29 163.78 182.528 163.918L184.625 164.812C184.066 166.781 184.045 167.081 184.261 167.458C184.366 167.632 184.518 167.771 184.701 167.86C184.883 167.948 185.088 167.982 185.289 167.956C185.49 167.93 185.679 167.846 185.833 167.714C185.987 167.582 186.099 167.408 186.156 167.213C186.261 166.676 186.394 166.152 186.54 165.629C188.274 166.327 189.127 166.802 189.763 166.166C189.907 166.024 190.006 165.843 190.047 165.645C190.089 165.447 190.071 165.241 189.997 165.053C189.922 164.865 189.794 164.703 189.628 164.587C189.463 164.471 189.266 164.406 189.064 164.4C188.603 164.281 187.568 163.835 187.135 163.653C187.666 161.852 188.791 159.611 186.995 159.611Z" fill="#F8D829"/>
</g>
<defs>
<clipPath id="clip0_216_3458">
<rect width="237.206" height="209.341" fill="white" transform="translate(0.34668 0.896484)"/>
</clipPath>
</defs>
</svg>
