<svg width="33" height="34" viewBox="0 0 33 34" fill="none" xmlns="http://www.w3.org/2000/svg">
<path fill-rule="evenodd" clip-rule="evenodd" d="M16.6069 0.97168C7.68999 0.97168 0.461426 8.20025 0.461426 17.1171C0.461426 26.034 7.68999 33.2626 16.6069 33.2626C25.5238 33.2626 32.7523 26.034 32.7523 17.1171C32.7523 8.20025 25.5238 0.97168 16.6069 0.97168ZM23.3354 11.5668C24.0764 11.7702 24.66 12.3693 24.858 13.1302C25.2179 14.5091 25.2179 17.3864 25.2179 17.3864C25.2179 17.3864 25.2179 20.2635 24.858 21.6426C24.66 22.4034 24.0764 23.0026 23.3354 23.206C21.9924 23.5754 16.607 23.5754 16.607 23.5754C16.607 23.5754 11.2216 23.5754 9.87856 23.206C9.13753 23.0026 8.55394 22.4034 8.35589 21.6426C7.99609 20.2635 7.99609 17.3864 7.99609 17.3864C7.99609 17.3864 7.99609 14.5091 8.35589 13.1302C8.55394 12.3693 9.13753 11.7702 9.87856 11.5668C11.2216 11.1973 16.607 11.1973 16.607 11.1973C16.607 11.1973 21.9924 11.1973 23.3354 11.5668Z" fill="#CDCDD7"/>
<path fill-rule="evenodd" clip-rule="evenodd" d="M14.9922 20.3462V14.9644L19.2976 17.6554L14.9922 20.3462Z" fill="#CDCDD7"/>
</svg>
