<svg width="81" height="80" viewBox="0 0 81 80" fill="none" xmlns="http://www.w3.org/2000/svg">
<path d="M80.5623 77.6192V1.99864C80.5623 0.894822 79.6674 0 78.5636 0L2.94305 0C1.83923 0 0.944405 0.894822 0.944405 1.99864V77.6192C0.944405 78.723 1.83923 79.6179 2.94305 79.6179H78.5636C79.6674 79.6179 80.5623 78.723 80.5623 77.6192Z" fill="#813589"/>
<path d="M54.1719 31.3717C56.6877 32.4059 58.8579 33.8493 60.6634 35.8188C63.1519 38.4952 64.7376 41.8852 65.1969 45.5108C65.6403 48.8029 65.4103 52.0137 63.8869 55.0199C61.5528 59.6233 58.1171 63.0412 53.0869 64.5926C49.608 65.6662 46.0986 66.6255 42.5943 67.6318C40.3293 68.2849 38.0634 68.938 35.7966 69.5911C32.7345 70.4703 29.943 68.9812 29.0498 65.9254C26.8974 58.5509 24.7624 51.1713 22.6447 43.7866C20.5449 36.5163 18.4454 29.2477 16.3464 21.9807C15.4824 18.9974 17.0363 16.1436 20.0197 15.2771C25.695 13.6304 31.3703 11.9863 37.0456 10.3446C40.6884 9.28879 44.2067 9.76653 47.5801 11.3433C52.4147 13.605 54.8835 17.6124 55.6573 22.7571C56.0931 25.6566 55.5594 28.4328 54.2939 31.0718C54.2482 31.1493 54.2215 31.2395 54.1719 31.3717ZM48.8456 62.4631C49.8443 62.181 50.8443 61.9053 51.8404 61.6156C58.6597 59.6309 63.1055 52.6274 61.9823 45.643C61.0103 39.5734 56.5962 34.9408 50.5685 33.6702C49.9332 33.5368 49.2891 33.458 48.5991 33.3462C48.7427 33.1937 48.8418 33.0806 48.9485 32.9777C51.2521 30.7631 52.477 28.0504 52.571 24.8662C52.6587 21.9337 51.6689 19.3379 49.8634 17.0508C47.5153 14.0751 44.429 12.6393 40.6503 12.9392C39.259 13.0497 37.8779 13.4678 36.5221 13.8515C31.4398 15.2915 26.3642 16.7586 21.2954 18.2528C19.7884 18.6937 19.0858 20.2438 19.6639 21.7292C19.6985 21.9856 19.7464 22.2401 19.8075 22.4915C23.8497 36.5036 27.8961 50.5136 31.9467 64.5214C32.3978 66.0804 33.7739 66.853 35.3354 66.4133C36.6958 66.0296 38.0553 65.64 39.414 65.2444C42.5583 64.3211 45.7022 63.394 48.8456 62.4631Z" fill="#FCFBFC"/>
<path d="M48.8459 62.4634C45.6991 63.3951 42.5518 64.3222 39.4041 65.2447C38.0488 65.642 36.6893 66.0316 35.3255 66.4136C33.764 66.8533 32.3879 66.0807 31.9369 64.5217C27.8913 50.5139 23.847 36.5056 19.804 22.4969C19.7429 22.2454 19.6949 21.991 19.6604 21.7345C19.8294 21.6075 19.9819 21.427 20.1686 21.3673C21.7111 20.8913 23.2579 20.4288 24.8088 19.9798C27.3742 19.2403 29.9382 18.4996 32.5124 17.7931C33.6153 17.4907 34.7296 17.1477 35.8579 17.0422C38.2436 16.8045 40.635 17.4362 42.592 18.8211C44.3988 20.0688 45.6554 21.7434 46.5639 23.7433C47.4838 25.7674 47.7303 27.8664 47.447 30.0175C47.1408 32.3313 46.09 34.3375 44.5246 36.0643C44.2959 36.3184 43.9948 36.5039 43.653 36.7809C44.7139 36.9181 45.5868 36.9562 46.4216 37.1557C48.1801 37.5763 49.8243 38.2713 51.2969 39.3627C52.7352 40.4287 53.9651 41.6765 54.8888 43.2088C55.918 44.905 56.6118 46.7296 56.7757 48.7117C57.0298 51.7357 56.4834 54.5997 54.8507 57.2044C53.7999 58.8828 52.4696 60.2894 50.7848 61.3376C50.147 61.7302 49.4939 62.0898 48.8459 62.4634Z" fill="#803588"/>
<path d="M48.8457 62.4629C49.4899 62.0893 50.143 61.7297 50.7758 61.3371C52.4644 60.2889 53.7947 58.8823 54.8416 57.2039C56.4744 54.5992 57.0169 51.7403 56.7666 48.7112C56.6027 46.7291 55.9089 44.8995 54.8798 43.2083C53.951 41.676 52.7261 40.4282 51.2878 39.3622C49.8152 38.2708 48.171 37.5758 46.4125 37.1552C45.5778 36.9557 44.7049 36.9176 43.6439 36.7804C43.9857 36.5034 44.2868 36.3153 44.5155 36.0638C46.0835 34.3383 47.1342 32.3308 47.4379 30.017C47.7213 27.8659 47.4748 25.7669 46.5548 23.7428C45.6464 21.7429 44.3948 20.0683 42.583 18.8206C40.6259 17.4357 38.2345 16.804 35.8488 17.0417C34.7205 17.1472 33.6062 17.4902 32.5034 17.7926C29.9291 18.4991 27.3651 19.2399 24.7998 19.9793C23.2488 20.4274 21.7021 20.8899 20.1596 21.3668C19.969 21.4265 19.8165 21.6082 19.6513 21.734C19.0732 20.2487 19.7784 18.6986 21.2828 18.2577C26.3592 16.7702 31.4386 15.3006 36.521 13.8487C37.8767 13.4676 39.2578 13.047 40.6491 12.9364C44.4279 12.6366 47.5103 14.0724 49.8622 17.0481C51.6677 19.3351 52.6575 21.931 52.5698 24.8635C52.4758 28.0476 51.251 30.7603 48.9474 32.975C48.8406 33.0779 48.7415 33.191 48.598 33.3434C49.2879 33.4552 49.9333 33.534 50.5674 33.6674C56.5925 34.938 61.0091 39.5706 61.9849 45.6402C63.1081 52.6285 58.6623 59.6282 51.843 61.6128C50.8482 61.9051 49.8482 62.1808 48.8457 62.4629Z" fill="#4C215C"/>
</svg>
