<svg width="1440" height="296" viewBox="0 0 1440 296" fill="none" xmlns="http://www.w3.org/2000/svg">
<path d="M1354.89 0.529053C1354.89 0.529053 1291.52 141.37 1337.71 172.197C1365.2 190.547 1443.46 192.363 1443.46 192.363V296.079H1229.8L1354.89 0.529053Z" fill="#FBF9F3"/>
<path d="M966 225.124C966 225.124 1136.76 218.457 1196.14 196.622C1298.79 158.873 1316.61 46.9536 1351.31 3.70636C1351.47 3.51194 1351.7 3.40638 1351.95 3.40638C1352.55 3.40637 1352.95 4.02453 1352.7 4.57138L1221.92 295.84H966V225.124Z" fill="#823287"/>
<path d="M1051.94 290.282C1051.94 290.282 1130.21 291.213 1181.57 263.683C1266.21 218.326 1313.95 57.7398 1353.06 2.85455L1353.46 1.9613L1221.92 295.84H966L1051.94 290.282Z" fill="#823287"/>
<path d="M1429.04 295.843C1429.04 295.843 1382.58 299.931 1325.6 274.105C1236.42 233.684 1332.63 59.9228 1353.73 3.8829C1353.87 3.50899 1353.57 3.15515 1353.17 3.15515C1352.95 3.15515 1352.74 3.28623 1352.65 3.49052L1219.29 295.843H1479.99H1429.04Z" fill="#F05B82"/>
<circle cx="1337.11" cy="59.6148" r="3.22288" fill="#7D7FBD"/>
<circle cx="1318.01" cy="78.4753" r="5.84893" fill="#7D7FBD"/>
<circle r="4.49442" transform="matrix(0.603885 -0.797072 -0.797072 -0.603885 1307.24 123.088)" fill="#1FAC8C"/>
<circle r="3.07513" transform="matrix(0.603885 -0.797072 -0.797072 -0.603885 1307.88 51.9649)" fill="#F8D829"/>
<circle r="6.38681" transform="matrix(0.603885 -0.797072 -0.797072 -0.603885 1292.94 93.2715)" fill="#3BC3DE"/>
<circle r="6.38681" transform="matrix(0.603885 -0.797072 -0.797072 -0.603885 1277.35 161.198)" fill="#3BC3DE"/>
<circle r="4.68473" transform="matrix(0.603885 -0.797072 -0.797072 -0.603885 1321.08 50.2713)" stroke="#3BC3DE" stroke-width="1.19366"/>
<circle r="3.78478" transform="matrix(0.603885 -0.797072 -0.797072 -0.603885 1330.4 36.1501)" fill="#FBF9F3"/>
<path d="M1286.14 121.006L1268.85 127.711L1283.66 139.379L1286.14 121.006Z" fill="#AC88BE"/>
<path d="M1350.36 25.1758L1348.71 32.4402L1355.92 30.1306L1350.36 25.1758Z" fill="#AC88BE"/>
<rect width="13.1267" height="13.1267" transform="matrix(-0.576387 -0.817177 -0.817177 0.576387 1319.71 153.54)" fill="#AC88BE"/>
<rect y="225" width="978" height="71" fill="#823287"/>
</svg>
