<svg width="375" height="766" viewBox="0 0 375 766" fill="none" xmlns="http://www.w3.org/2000/svg">
<g clip-path="url(#clip0)">
<path d="M356.487 412.851C356.487 412.851 319.996 562.92 371.046 584.762C401.437 597.764 478.709 585.208 478.709 585.208L501.379 706.829L291.332 745.981L356.487 412.851Z" fill="#FBF9F3"/>
<path d="M-15.8969 651.998C-15.8969 651.998 181.981 667.061 236.352 634.715C330.339 578.801 327.358 465.535 353.536 416.651C353.66 416.419 353.879 416.264 354.138 416.216C354.736 416.105 355.262 416.623 355.159 417.223L294.103 771.499L-15.8969 771.499L-15.8969 651.998Z" fill="#823287"/>
<g opacity="0.2" filter="url(#filter0_f)">
<path d="M50.5661 656.936C53.2975 661.493 56.5093 656.936 60.3174 656.936C63.1608 656.936 64.7576 657.144 67.5984 656.936C71.576 656.645 73.7962 656.088 77.7397 655.151C79.9805 654.618 81.1993 653.474 83.4605 653.588C85.3717 653.684 86.3781 654.689 88.2711 655.151C95.9205 657.014 108.034 653.588 108.034 653.588L115.965 659.615C115.965 659.615 112.354 661.737 109.984 662.741C104.328 665.136 100.981 666.117 95.162 665.643C93.1737 665.481 92.0754 665.027 90.0914 664.75C82.4496 663.683 77.9992 662.367 70.4588 664.75C68.3028 665.431 67.1893 666.875 64.998 666.982C62.5095 667.103 61.2371 665.125 58.7572 664.75C55.5644 664.266 50.5661 665.643 50.5661 665.643C50.5661 665.643 56.4714 667.834 60.3174 668.322C63.6595 668.745 65.5504 668.563 68.8986 668.322C73.487 667.99 76.0128 666.688 80.6001 666.312C84.8096 665.967 87.1791 666.531 91.3915 666.312C96.478 666.049 104.393 664.822 104.393 664.822C104.393 664.822 107.429 664.677 109.334 664.08C111.468 663.412 112.562 662.319 114.665 661.401C115.978 660.828 116.692 659.942 118.045 660.062C119.153 660.16 119.691 661.001 120.775 661.401C124.201 662.665 126.25 661.018 129.747 661.401C136.028 662.089 145.609 666.312 145.609 666.312C145.609 666.312 136.11 667.833 130.007 668.322C126.81 668.577 124.783 670.825 121.816 668.768C120.782 668.051 120.459 666.403 119.345 666.312C118.431 666.238 118.037 667.387 117.135 667.652C115.358 668.174 114.386 666.205 112.584 666.312C110.129 666.459 109.058 669.497 106.604 669.661C105.068 669.764 104.24 668.784 102.703 668.768C100.908 668.749 99.9375 669.558 98.1524 669.884C94.1624 670.612 91.8902 670.048 87.8811 670.331C84.2227 670.589 82.1679 670.686 78.5198 671.224C75.7209 671.636 71.3689 672.563 71.3689 672.563L62.9178 674.349C62.9178 674.349 58.321 674.456 55.3768 674.349C52.0229 674.227 50.1392 673.213 46.7956 673.679C44.2245 674.038 42.8708 675.458 40.2948 675.688C36.6658 676.013 34.692 674.02 31.0635 673.679C23.3198 672.952 11.3009 677.028 11.3009 677.028C11.3009 677.028 6.25164 681.412 2.73483 682.403C-0.321177 683.265 -2.21226 683.817 -5.19673 682.403C-7.33224 681.392 -8.07368 677.605 -10.2729 678.074C-12.046 678.452 -14.0801 682.403 -14.0801 682.403L-14.0801 649.395C-14.0801 649.395 -11.7551 650.144 -10.2729 650.686C-7.52969 651.689 -6.06633 654.313 -3.29315 653.588C-1.57092 653.137 -0.85832 651.412 0.83126 650.686C4.81582 648.974 11.3009 652.472 11.3009 652.472C11.3009 652.472 13.3371 653.572 14.6814 653.588C16.0756 653.604 16.7988 652.57 18.1918 652.472C19.9855 652.345 20.95 653.417 22.7424 653.588C27.0517 653.999 29.4358 649.199 33.6639 650.686C34.9696 651.145 35.6202 651.925 36.9143 652.472C41.4501 654.389 45.6422 646.684 48.8759 652.472C49.7143 653.972 49.6974 655.487 50.5661 656.936Z" fill="url(#paint0_linear)"/>
</g>
<path d="M76.2553 643.812C76.2553 643.812 84.2543 631.603 92.011 627.126C98.7169 623.256 103.426 620.76 111.095 621.787C116.329 622.487 118.619 625.163 123.522 627.126C132.049 630.541 140.012 627.698 145.713 634.913C151.806 642.623 147.267 660.053 147.267 660.053C147.267 660.053 127.535 661.798 115.09 660.053C109.838 659.317 107.056 656.902 101.775 657.383C97.2988 657.792 95.2995 660.236 90.9014 661.166C83.6936 662.689 72.039 661.166 72.039 661.166C72.039 661.166 71.6618 654.475 72.9266 650.487C73.8074 647.709 76.2553 643.812 76.2553 643.812Z" fill="#F68B2A"/>
<path d="M72.0391 661.169C72.0391 661.169 83.7149 662.686 90.9359 661.169L103.83 651.942L100.496 642.857L88.7128 635.987L76.2631 643.883C76.2631 643.883 73.8107 647.765 72.9283 650.532C71.6612 654.504 72.0391 661.169 72.0391 661.169Z" fill="#D46907"/>
<g filter="url(#filter1_f)">
<path d="M164.066 650.982C164.066 650.982 162.916 650.885 162.292 650.538C161.668 650.19 159.088 651.228 157.193 652.091C155.03 653.077 154.243 654.399 152.095 655.419C150.758 656.053 148.548 656.75 148.548 656.75C148.548 656.75 143.688 656.352 140.567 656.306C139.442 656.29 136.577 656.306 136.577 656.306C136.686 657.344 136.769 657.937 137.242 659.19L141.232 662.076C144.513 662.379 156.972 662.074 160.519 662.074C163.207 661.259 165.562 660.73 166.504 658.081C167.486 655.319 166.736 652.186 164.066 650.982Z" fill="black"/>
</g>
<path d="M141.454 634.121L155.42 633.677L156.75 635.008L157.415 646.101C157.415 646.101 158.508 647.583 159.41 648.32C160.551 649.251 161.382 649.34 162.736 650.094C163.359 650.442 163.858 650.244 164.509 650.538C167.18 651.743 167.93 654.876 166.947 657.637C166.005 660.286 163.651 660.816 160.962 661.631C157.415 661.631 152.538 661.187 152.538 661.187L137.686 658.747C136.877 656.552 136.588 654.822 137.686 652.757C138.581 651.072 140.252 651.132 141.454 649.651C145.275 644.943 141.454 634.121 141.454 634.121Z" fill="#B8C7E2"/>
<path d="M141.454 634.12C141.454 634.12 141.011 646.544 139.902 649.872C139.155 651.08 138.581 651.072 137.686 652.756C136.588 654.822 136.877 656.552 137.686 658.746L152.538 661.187C152.538 661.187 154.448 658.222 154.533 656.084C154.628 653.702 153.622 652.439 152.538 650.316C151.741 648.754 150.398 648.273 150.1 646.544C149.658 643.986 146.671 641.179 147.661 638.779C148.33 637.158 145.666 637.004 145.666 637.004C143.224 636.349 141.454 634.12 141.454 634.12Z" fill="#9DA2AD"/>
<path d="M164.51 650.538C164.51 650.538 163.36 650.442 162.736 650.094C162.113 649.747 159.532 650.784 157.638 651.647C155.474 652.633 154.687 653.956 152.539 654.975C151.202 655.61 148.992 656.306 148.992 656.306C148.992 656.306 144.133 655.909 141.012 655.863C139.886 655.846 137.021 655.863 137.021 655.863C137.13 656.9 137.213 657.493 137.687 658.747L152.539 661.187C155.819 661.491 157.416 661.631 160.963 661.631C163.652 660.816 166.006 660.286 166.948 657.638C167.931 654.876 167.18 651.743 164.51 650.538Z" fill="#471E51"/>
<path d="M157.637 651.648C157.637 651.648 160.769 654.054 161.405 656.307C161.973 658.315 160.962 661.631 160.962 661.631" stroke="#606AB1" stroke-width="1.08149"/>
<path d="M161.627 650.316C161.627 650.316 164.759 652.616 165.395 654.768C165.963 656.687 164.652 660.157 164.652 660.157" stroke="#606AB1" stroke-width="1.08149"/>
<path d="M147.218 640.412C147.218 640.138 147.461 639.928 147.732 639.967C149.013 640.152 152.416 640.583 154.755 640.333C155.802 640.221 157.193 639.889 157.193 639.889L157.415 643.883C157.415 643.883 155.802 644.214 154.755 644.326C152.322 644.586 148.738 644.109 147.587 643.939C147.373 643.908 147.218 643.723 147.218 643.506L147.218 640.412Z" fill="#DADBDF"/>
<path d="M146.643 646.777C146.592 647.004 146.723 647.231 146.947 647.293C148.234 647.651 152.386 648.718 155.242 648.465C158.997 648.131 158.302 646.989 158.302 646.989L157.415 644.77C157.415 644.77 157.633 644.982 154.654 645.242C152.275 645.45 148.823 644.769 147.614 644.507C147.373 644.455 147.132 644.606 147.077 644.847L146.643 646.777Z" fill="#EBECF1"/>
<path d="M73.3994 545.6L99.7794 544.047L101.775 563.127L76.7246 565.567L73.3994 545.6Z" fill="#F7F5F6"/>
<path d="M76.7246 565.567L101.774 563.127L101.774 563.571L76.9463 566.011L76.7246 565.567Z" fill="#B6B2B2"/>
<path d="M73.3994 545.6C73.3994 545.6 77.3445 545.002 79.8281 545.379C84.7755 546.129 87.3673 548.278 90.9122 551.812C94.6471 555.537 97.5626 563.571 97.5626 563.571L76.7246 565.567L73.3994 545.6Z" fill="#D4D4D4"/>
<path d="M61.1437 553.718C60.9199 552.727 61.3964 551.711 62.3006 551.251L73.3989 545.6L76.7241 565.567L64.975 570.67L61.1437 553.718Z" fill="#CFCECE"/>
<path d="M122.391 639.002L138.795 639.002L140.125 639.889L138.352 650.982C138.352 650.982 139.444 652.464 140.347 653.201C141.487 654.132 142.319 654.222 143.672 654.976C144.296 655.323 144.795 655.126 145.446 655.419C148.116 656.624 148.866 659.757 147.884 662.519C146.942 665.167 144.587 665.697 141.899 666.512C138.352 666.512 133.475 666.068 133.475 666.068L118.622 663.628C117.814 661.433 117.525 659.703 118.622 657.638C119.517 655.953 121.189 656.013 122.391 654.532C126.212 649.824 122.391 639.002 122.391 639.002Z" fill="#B8C7E2"/>
<path d="M122.391 639.002C122.391 639.002 121.947 651.426 120.839 654.754C120.092 655.962 119.517 655.953 118.622 657.638C117.525 659.703 117.814 661.433 118.622 663.628L133.475 666.068C133.475 666.068 135.385 663.104 135.47 660.966C135.565 658.584 134.558 657.32 133.475 655.197C132.677 653.635 131.335 653.155 131.036 651.426C130.595 648.867 132.928 647.836 133.918 645.436C134.587 643.814 137.223 641.199 135.47 641.221C134.579 641.231 134.296 641.983 133.475 642.33C131.308 643.244 129.761 643.605 127.489 642.995C125.047 642.34 122.391 639.002 122.391 639.002Z" fill="#9DA2AD"/>
<path d="M145.445 655.419C144.835 655.078 144.535 655.379 143.671 654.975C142.808 654.572 140.467 655.665 138.572 656.528C136.409 657.514 135.622 658.837 133.474 659.856C132.137 660.491 129.927 661.187 129.927 661.187C129.927 661.187 125.067 660.79 121.946 660.744C120.821 660.727 117.918 660.744 117.918 660.744C118.027 661.781 118.148 662.374 118.621 663.628L133.474 666.068C136.754 666.372 138.351 666.512 141.898 666.512C144.586 665.697 146.941 665.167 147.883 662.519C148.865 659.757 148.115 656.624 145.445 655.419Z" fill="#471E51"/>
<path d="M138.572 656.529C138.572 656.529 141.704 658.935 142.341 661.188C142.908 663.196 141.897 666.512 141.897 666.512" stroke="#606AB1" stroke-width="1.08149"/>
<path d="M142.563 655.197C142.563 655.197 145.695 657.497 146.332 659.649C146.899 661.568 145.588 665.037 145.588 665.037" stroke="#606AB1" stroke-width="1.08149"/>
<path d="M95.7885 556.028C96.4441 555.805 96.87 555.998 97.5619 556.028C105.127 556.358 114.188 566.011 114.188 566.011C114.188 566.011 108.084 565.053 104.212 564.237C100.288 563.409 94.2367 561.796 94.2367 561.796C94.2367 561.796 93.2603 558.79 94.2367 557.359C94.6868 556.699 95.0329 556.285 95.7885 556.028Z" fill="#161824"/>
<path d="M79.3848 585.535L87.5869 624.359L90.2471 623.472L97.7842 622.363L109.09 620.144L101.774 563.571L76.9463 566.011L79.3848 585.535Z" fill="#BFBCBC"/>
<path d="M93.3365 560.677C98.5945 558.188 102.003 563.522 107.746 564.448C114.08 565.47 124.15 565.336 124.15 565.336C124.15 565.336 123.837 566.876 124.15 567.776C124.635 569.169 126.158 569.028 127.032 570.216C128.364 572.028 126.685 574.559 128.584 575.763C129.418 576.291 130.324 575.73 131.022 576.428C131.72 577.127 131.213 578.002 131.687 578.869C132.129 579.677 133.13 579.729 133.239 580.644C133.314 581.27 132.59 581.6 132.796 582.197C133.135 583.179 134.418 582.155 135.456 582.197C137.108 582.264 138.014 582.686 139.668 582.64C140.977 582.604 142.993 582.197 142.993 582.197L151.431 577.991C151.431 577.991 152.763 576.426 153.869 575.763C154.972 575.101 155.821 574.091 156.973 574.664C158.177 575.262 157.86 577.991 157.86 577.991C157.86 577.991 162.515 577.548 164.288 577.991C165.04 578.179 165.017 579.368 164.953 579.544C164.717 580.199 163.623 580.654 163.623 580.654C163.623 580.654 164.487 581.461 164.288 582.428C164.078 583.456 162.515 583.316 162.515 583.316C162.515 583.316 163.106 584.498 162.737 585.091C162.47 585.52 161.85 585.756 161.85 585.756C161.85 585.756 162.247 586.259 162.293 586.644C162.412 587.624 160.076 588.197 160.076 588.197L157.86 588.64L152.525 598.614C152.525 598.614 156.223 600.967 157.624 603.273C158.847 605.287 158.935 606.73 159.397 609.041C160.503 614.569 158.781 617.825 158.732 623.462C158.721 624.761 158.799 625.492 158.732 626.79C158.592 629.507 157.832 630.955 157.624 633.667C157.431 636.172 159.035 638.023 157.624 640.101C154.077 640.101 151.302 638.362 147.205 637.439C144.704 636.875 141.614 635.23 141.614 635.23C141.614 635.23 141.318 631.79 141.441 629.008C141.947 617.614 138.781 600.167 138.781 600.167C138.781 600.167 143.106 601.321 144.988 603.273C148.161 606.563 147.449 610.261 146.983 614.81C146.395 620.553 141.707 622.464 140.554 628.121C139.621 632.705 143.897 636.83 140.554 640.101C139.472 641.161 138.631 641.524 137.229 642.098C135.908 642.639 135.09 642.744 133.682 642.985C130.525 643.527 128.223 644.641 125.48 642.985C123.743 641.937 122.877 640.889 122.155 638.992C121.229 636.557 122.319 634.926 122.598 632.336C122.993 628.668 124.15 625.68 124.15 623.018C122.191 623.258 122.109 624.921 120.16 625.237C118.951 625.432 118.036 625.475 116.835 625.237C114.98 624.869 114.396 623.906 112.401 624.349C112.165 624.657 112.214 624.947 111.958 625.237C111.212 626.08 110.123 625.65 109.076 625.237C108.606 625.052 108.427 624.363 107.967 624.571C107.615 624.731 107.762 625.153 107.524 625.459C106.567 626.69 105.076 625.683 103.534 625.459C95.4784 624.284 93.4086 615.993 92.2281 607.932C91.6368 603.895 94.4582 601.273 92.8932 597.505C91.9692 595.28 90.2313 594.763 89.1246 592.624C87.266 589.032 87.7632 586.443 87.3511 582.418C86.7509 576.558 84.7167 572.601 87.3511 567.332C88.9148 564.205 90.1779 562.172 93.3365 560.677Z" fill="#E1E7F1"/>
<path d="M124.149 567.776C123.837 566.876 124.149 565.336 124.149 565.336C124.149 565.336 121.889 564.087 120.617 564.68C119.355 565.269 118.809 566.383 118.843 567.776C118.888 569.556 121.418 569.414 121.947 571.114C122.582 573.157 120.144 574.342 120.617 576.429C121.214 579.063 125.393 578.416 125.715 581.098C125.935 582.922 123.518 583.809 124.149 585.535C124.933 587.675 127.601 588.182 129.706 587.31C131.18 586.698 131.78 585.69 132.366 584.204C132.66 583.458 133.001 582.793 132.795 582.197C132.589 581.601 133.313 581.27 133.238 580.644C133.129 579.73 132.128 579.677 131.687 578.869C131.213 578.003 131.72 577.127 131.022 576.429C130.324 575.73 129.417 576.292 128.583 575.763C126.684 574.56 128.364 572.028 127.031 570.217C126.157 569.028 124.634 569.17 124.149 567.776Z" fill="white"/>
<path d="M153.87 575.763C152.763 576.426 151.431 577.992 151.431 577.992C151.431 577.992 150.606 580.022 151.431 580.654C152.2 581.242 152.995 580.625 153.87 580.21C154.812 579.763 155.345 579.339 155.865 578.435C156.097 578.031 156.281 577.792 156.308 577.326C156.34 576.779 156.236 576.397 155.865 575.995C155.653 575.765 155.497 575.648 155.2 575.551C154.7 575.388 153.87 575.763 153.87 575.763Z" fill="#DDE4F0"/>
<path d="M135.456 582.197C134.418 582.155 133.135 583.179 132.796 582.197C132.796 582.197 130.666 582.615 130.815 583.538C130.923 584.206 131.895 584.018 132.145 584.647C132.441 585.389 131.445 585.888 131.702 586.644C131.981 587.464 132.701 587.587 133.475 587.975C135.257 588.869 136.589 588.015 138.574 588.197C139.964 588.324 140.815 589.136 142.121 588.641C143.562 588.094 144.067 586.996 144.559 585.535C145.029 584.139 146.01 582.011 144.559 581.763C143.934 581.656 142.993 582.197 142.993 582.197C142.993 582.197 140.978 582.604 139.668 582.64C138.015 582.686 137.109 582.264 135.456 582.197Z" fill="#DDE4F0"/>
<path d="M157.624 603.273C156.223 600.967 152.525 598.614 152.525 598.614C151.089 600.502 154.086 601.973 154.977 604.171C156.121 606.987 157.214 608.479 157.624 611.492C158.142 615.303 156.519 617.413 156.308 621.253C156.16 623.935 156.653 625.467 156.308 628.131C156.021 630.336 155.407 631.486 154.977 633.667C154.672 635.222 153.721 636.201 154.312 637.671C154.911 639.159 154.977 640.101 157.624 640.101C159.035 638.023 157.431 636.173 157.624 633.667C157.832 630.955 158.592 629.507 158.732 626.79C158.799 625.492 158.721 624.762 158.732 623.462C158.781 617.825 160.502 614.569 159.397 609.041C158.935 606.73 158.847 605.287 157.624 603.273Z" fill="white"/>
<path d="M146.983 614.81C147.449 610.261 148.161 606.564 144.988 603.273C143.106 601.322 138.781 600.167 138.781 600.167C138.781 600.167 140.828 598.676 142.342 598.624C144.938 598.536 146.06 600.573 147.663 602.618C149.996 605.595 150.401 608.152 150.323 611.936C150.264 614.793 149.843 616.488 148.549 619.035C147.787 620.535 146.809 621.055 146.111 622.585C145.264 624.441 144.899 625.649 144.988 627.688C145.063 629.39 145.718 630.245 146.111 631.903C146.62 634.052 148.843 635.953 147.219 637.449C147.219 637.449 143.215 636.984 141.677 635.231C139.507 632.755 141.455 626.8 141.455 626.8C141.455 626.8 141.422 625.853 141.455 625.247C141.709 620.641 146.518 619.358 146.983 614.81Z" fill="#D3D9E4"/>
<path d="M92.2274 607.932C93.4079 615.993 95.4776 624.284 103.533 625.458C105.075 625.683 106.567 626.689 107.523 625.458C107.761 625.153 107.614 624.731 107.967 624.571C108.427 624.363 108.605 625.051 109.075 625.237L109.079 625.238C110.125 625.65 111.212 626.079 111.957 625.237C112.213 624.946 112.164 624.656 112.4 624.349C114.395 623.905 114.979 624.869 116.834 625.237C118.035 625.475 118.951 625.432 120.159 625.237C122.108 624.921 122.19 623.258 124.149 623.018C124.149 625.68 122.993 628.668 122.598 632.336C122.319 634.926 121.228 636.557 122.154 638.992C122.876 640.889 123.743 641.936 125.479 642.985C127.216 644.034 128.819 644.606 135.691 642.609C136.307 640.994 133.107 636.855 132.587 634.343C132.068 631.83 133.772 631.531 133.252 629.018C132.733 626.505 135.937 622.594 135.691 618.813C135.402 614.377 136.746 614.015 133.252 611.27C130.578 609.168 127.427 608.841 124.149 607.932C122.327 607.426 118.694 607.172 116.834 606.832C113.427 606.211 111.518 604.061 108.203 603.061C106.052 602.412 102.876 602.773 100.887 601.73C97.76 600.089 92.8924 597.505 92.8924 597.505C94.4574 601.272 91.6361 603.895 92.2274 607.932Z" fill="url(#paint1_linear)"/>
<g filter="url(#filter2_f)">
<path d="M112.637 600.398C114.346 599.883 116.849 599.955 118.622 600.177C119.063 600.513 118.445 599.873 118.622 600.398C118.789 600.891 118.156 601.249 117.957 601.73C117.493 602.853 116.058 601.791 114.854 601.951C112.46 602.27 111.283 603.528 108.868 603.504C107.644 603.493 106.861 603.606 105.765 603.061C103.188 601.778 109.881 601.229 112.637 600.398Z" fill="#484A4D"/>
</g>
<path d="M146.983 614.809C146.983 614.809 149.214 607.276 144.988 603.273C143.02 601.408 137.908 599.733 137.908 599.733C137.908 599.733 138.119 601.685 138.573 602.839C139.495 605.183 141.636 605.479 142.785 607.72C144.306 610.685 144.863 612.903 144.115 616.151C143.505 618.803 141.22 619.501 140.554 622.141C139.983 624.405 140.554 628.121 140.554 628.121C140.554 628.121 140.748 625.177 141.898 623.028C142.946 621.072 144.611 619.517 145.889 617.703C146.983 616.151 146.983 614.809 146.983 614.809Z" fill="white"/>
<g filter="url(#filter3_f)">
<path d="M137.465 598.735L154.313 598.18L152.318 599.289L137.243 600.399L137.465 598.735Z" fill="#3E3F40"/>
<path d="M137.465 598.735L115.74 600.177L115.297 600.621L137.243 600.399L137.465 598.735Z" fill="#3E3F40"/>
</g>
<path d="M116.404 598.846L137.907 598.846L154.533 598.402C154.639 598.614 154.497 598.866 154.261 598.885L137.907 600.177L115.739 600.177C115.739 600.177 115.568 599.59 115.739 599.289C115.894 599.018 116.404 598.846 116.404 598.846Z" fill="#BDC1C7"/>
<path d="M137.908 600.177L154.262 598.885C154.498 598.866 154.64 598.614 154.534 598.402L137.908 598.846L137.908 600.177Z" fill="#C5C9D0"/>
<path d="M127.156 598.846L116.404 598.846L139.016 595.074L137.907 598.846L127.156 598.846Z" fill="#D1D5DB"/>
<path d="M87.3648 582.428C87.7769 586.452 87.2797 589.041 89.1382 592.633C90.245 594.772 91.9829 595.29 92.9068 597.514C93.8307 599.739 96.0008 601.057 98.6705 602.173C103.249 604.087 106.533 602.199 111.306 600.842C115.814 599.561 122.169 595.739 122.169 595.739L124.829 598.18C124.829 598.18 126.704 597.068 127.932 596.405C129.466 595.577 130.334 595.125 131.923 594.408C133.623 593.641 136.356 592.633 136.356 592.633C136.782 591.859 137.112 591.241 136.8 590.415C136.517 589.668 135.248 589.084 135.248 589.084C135.248 589.084 136.662 587.784 136.356 586.865C136.163 586.284 135.248 585.756 135.248 585.756C135.248 585.756 135.728 584.258 135.248 583.537C134.818 582.892 134.248 582.607 133.474 582.65C132.777 582.689 131.923 583.537 131.923 583.537C131.923 583.537 132.609 581.655 131.923 580.875C131.434 580.319 130.88 580.326 130.149 580.209C128.196 579.898 127.453 581.933 125.494 582.206C124.465 582.35 123.174 583.188 122.834 582.206C122.661 581.708 122.788 581.329 123.055 580.875C123.242 580.558 123.469 580.477 123.72 580.209C124.183 579.716 124.703 579.543 124.829 578.878C124.995 578.002 124.537 577.239 123.72 576.882C122.792 576.475 122.13 577.214 121.282 577.769C119.875 578.69 119.589 579.811 118.843 581.319C118.43 582.155 118.524 582.797 117.957 583.537C116.653 585.237 114.672 584.203 112.636 584.868C111.673 585.183 110.97 585.099 110.198 585.756C109.776 586.115 109.864 586.824 109.311 586.865C108.925 586.894 108.793 586.54 108.424 586.421C107.683 586.183 107.201 586.526 106.429 586.421C105.534 586.3 104.792 586.45 104.213 585.756C103.755 585.207 103.714 584.693 103.769 583.981C103.811 583.435 103.771 582.973 104.213 582.65C104.501 582.439 104.828 582.66 105.099 582.428C105.559 582.033 105.387 581.409 105.099 580.875C104.925 580.551 104.613 580.53 104.434 580.209C104.052 579.525 104.194 578.847 104.656 578.213C104.8 578.015 104.968 577.976 105.099 577.769C105.528 577.095 104.78 576.561 104.656 575.772C104.346 573.804 105.37 572.53 104.656 570.67C103.685 568.143 101.82 567.303 99.3356 566.232C97.0079 565.229 95.4241 565.051 92.9068 565.345C90.6221 565.612 87.3648 567.342 87.3648 567.342C84.7304 572.61 86.7646 576.567 87.3648 582.428Z" fill="#EEF4FF"/>
<path d="M89.1387 592.634C90.2454 594.773 91.9833 595.29 92.9072 597.514C93.8312 599.739 96.0012 601.057 98.671 602.173C103.249 604.088 106.534 602.199 111.307 600.842L106.873 600.399C106.873 600.399 102.569 600.877 100.223 599.733C98.1856 598.74 97.8637 597.045 96.0108 595.74C93.6027 594.043 89.1387 592.634 89.1387 592.634Z" fill="#C7D1E4"/>
<path d="M105.099 577.77C105.527 577.096 104.634 576.571 104.656 575.773C104.674 575.059 104.369 574.488 104.434 573.776C104.656 571.336 101.125 566.987 101.125 566.987C101.125 566.987 105.099 568.641 107.094 574.664C107.591 576.164 107.511 577.096 107.759 578.657C107.938 579.782 108.398 580.418 108.202 581.541C107.976 582.844 106.865 583.177 106.429 584.425C106.081 585.42 107.013 586.856 105.986 587.087C105.141 587.278 104.212 585.756 104.212 585.756C103.755 585.208 103.714 584.694 103.769 583.981C103.811 583.435 103.77 582.974 104.212 582.65C104.5 582.439 104.828 582.661 105.099 582.428C105.559 582.034 105.386 581.409 105.099 580.876C104.925 580.552 104.613 580.531 104.434 580.21C104.051 579.525 104.194 578.847 104.656 578.213C104.8 578.015 104.967 577.976 105.099 577.77Z" fill="#D3D9E4"/>
<path d="M104.213 585.757C104.792 586.451 105.534 586.3 106.43 586.422C107.202 586.527 107.683 586.183 108.425 586.422C108.793 586.541 108.925 586.894 109.312 586.866C109.864 586.825 109.776 586.116 110.198 585.757C110.97 585.1 111.674 585.184 112.637 584.869C114.673 584.204 116.653 585.238 117.957 583.538C118.525 582.798 118.43 582.156 118.844 581.319C119.589 579.812 119.876 578.691 121.282 577.77C122.13 577.214 122.803 576.453 123.721 576.882C124.165 577.09 124.492 577.294 124.607 577.77C124.828 578.676 123.08 578.029 122.391 578.657C121.559 579.416 121.282 581.319 121.282 581.319C121.282 581.319 122.329 582.307 123.056 582.872C124.193 583.758 125.022 583.983 126.159 584.869C126.885 585.435 127.434 585.648 127.933 586.422C128.512 587.323 128.45 588.023 128.598 589.084C128.789 590.457 127.641 591.632 128.598 592.634C129.337 593.409 130.194 593.176 131.258 593.3C133.253 593.531 136.357 592.634 136.357 592.634C136.357 592.634 133.623 593.642 131.923 594.409C130.57 595.248 129.343 595.667 127.933 596.406C126.704 597.069 124.829 598.181 124.829 598.181L122.169 595.74C122.169 595.74 115.814 599.562 111.307 600.843C106.533 602.199 103.249 604.088 98.6708 602.174C96.0011 601.058 93.831 599.739 92.9071 597.515L89.1385 592.634C89.1385 592.634 88.0576 590.588 87.8085 588.641C87.4999 586.228 87.3651 582.429 87.3651 582.429C87.3651 582.429 84.3024 571.347 87.3651 567.342C87.3651 567.342 90.6224 565.613 92.9071 565.346C95.1919 565.079 94.2327 567.681 94.4589 569.339C94.7189 571.245 93.8492 572.297 93.7938 574.22C93.7237 576.659 93.8271 578.076 94.4589 580.432C94.9419 582.234 95.5398 583.135 96.2323 584.866C96.4775 585.668 103.797 586.484 104.213 585.757Z" fill="#D2D8E5"/>
<path d="M98.6709 602.174C103.249 604.088 106.534 602.199 111.307 600.843C111.307 600.843 106.616 601.974 103.548 602.174C101.647 602.297 98.6709 602.174 98.6709 602.174Z" fill="#C2C7D1"/>
<path d="M124.828 598.18C124.828 598.18 126.26 597.069 127.488 596.406C127.488 596.406 124.911 592.846 123.498 590.416C122.038 587.904 120.395 583.982 120.395 583.982L116.848 585.978C116.848 585.978 117.638 589.818 118.843 591.969C119.749 593.586 121.345 594.831 122.611 596.184C123.575 597.213 124.828 598.18 124.828 598.18Z" fill="#C6C9CF"/>
<path d="M123.721 580.21C124.183 579.717 124.703 579.544 124.829 578.879C124.829 576.66 123.499 577.104 122.612 577.992C121.572 579.033 121.192 580.968 120.396 582.207C119.693 583.3 117.735 585.757 117.735 585.757C117.735 585.757 119.574 584.561 120.174 584.204C120.875 583.785 120.934 582.67 121.726 582.872C122.145 582.98 122.224 583.346 122.612 583.538C123.544 583.998 124.251 583.729 125.272 583.538C127.025 583.209 128.027 582.605 129.263 581.319C129.647 580.92 132.103 580.521 130.149 580.21C128.196 579.899 127.453 581.933 125.494 582.207C124.465 582.35 123.175 583.189 122.834 582.207C122.661 581.709 122.788 581.33 123.056 580.876C123.242 580.559 123.469 580.478 123.721 580.21Z" fill="#C6C9CF"/>
<path d="M124.829 598.181C124.829 598.181 126.704 597.069 127.933 596.406C127.933 596.406 125.355 592.846 123.942 590.416C122.482 587.904 120.617 583.76 120.617 583.76L117.292 585.979C117.292 585.979 118.082 589.818 119.287 591.969C120.193 593.586 120.902 594.387 122.169 595.74C123.133 596.769 124.829 598.181 124.829 598.181Z" fill="#CBD1DE"/>
<path d="M106.43 547.819C108.502 543.364 111.06 540.98 115.962 539.611C118.137 539.003 119.572 538.491 121.726 539.167C123.56 539.742 124.419 540.632 125.716 542.051C128.359 544.942 129.263 549.144 129.263 551.591C129.263 553.144 129.31 560.14 125.938 563.571C125.161 564.362 124.708 564.841 123.721 565.346C121.639 566.413 117.736 565.568 117.736 565.568C117.736 565.568 109.933 561.331 105.322 557.359C104.878 554.475 105.502 549.816 106.43 547.819Z" fill="#443D33"/>
<g filter="url(#filter4_f)">
<path d="M107.539 549.594C104.213 556.028 105.322 557.359 105.322 557.359C112.128 555.727 115.191 555.759 122.613 556.028C120.579 550.109 120.881 546.291 120.618 540.054C117.293 539.84 115.525 541.604 112.859 543.604C110.356 545.481 108.975 546.814 107.539 549.594Z" fill="#141417"/>
</g>
<path d="M103.991 535.839C111.185 532.238 120.4 531.731 124.385 538.723C125.078 539.939 125.715 542.051 125.715 542.051C125.715 542.051 123.559 539.742 121.725 539.167C119.571 538.491 118.136 539.003 115.962 539.61C111.059 540.98 108.501 543.363 106.429 547.819C105.501 549.816 104.877 554.475 105.321 557.359C109.932 561.33 117.735 565.567 117.735 565.567C117.735 565.567 121.638 566.412 123.72 565.346C124.707 564.84 125.937 563.571 125.937 563.571C125.937 563.571 124.772 565.161 123.72 565.789C122.422 566.565 121.458 566.541 119.952 566.677C118.397 566.817 117.476 566.832 115.962 566.455C114.383 566.062 113.672 565.802 112.193 565.124C109.02 563.669 102.217 560.243 102.217 560.243C102.217 560.243 94.428 557.359 94.0152 553.365C93.2051 545.53 96.951 539.362 103.991 535.839Z" fill="#EEF4FF"/>
<path d="M125.716 542.051C125.716 542.051 125.079 539.939 124.386 538.723C124.386 538.723 123.477 536.926 122.391 536.505C121.98 536.345 121.719 536.214 121.283 536.283C120.9 536.343 120.465 536.345 120.396 536.727C120.319 537.153 121.275 536.959 121.283 537.392C121.288 537.705 120.889 537.749 120.839 538.058C120.752 538.606 119.892 538.592 121.726 539.167C123.56 539.742 125.716 542.051 125.716 542.051Z" fill="white"/>
<path d="M103.991 535.838C96.951 539.361 93.2051 545.53 94.0152 553.365C94.428 557.358 102.217 560.242 102.217 560.242C102.217 560.242 109.02 563.668 112.193 565.123C113.672 565.802 114.383 566.062 115.962 566.454C117.476 566.831 119.952 566.676 119.952 566.676L117.735 565.567C117.735 565.567 109.932 561.33 105.321 557.358C104.877 554.474 105.501 549.815 106.429 547.819C108.501 543.363 111.059 540.979 115.962 539.61C120.864 538.241 111.937 537.173 109.089 537.169C107.595 537.168 106.593 538.62 105.321 537.835C104.524 537.343 103.991 535.838 103.991 535.838Z" fill="#D2D8E5"/>
<path d="M106.43 547.819C108.502 543.364 111.06 540.98 115.962 539.611C118.137 539.003 119.572 538.491 121.726 539.167C123.56 539.742 125.716 542.051 125.716 542.051C125.716 542.051 122.752 540.192 120.618 540.054C117.293 539.84 115.525 541.605 112.859 543.604C110.356 545.481 109.047 546.853 107.539 549.594C106.019 552.357 105.322 557.359 105.322 557.359C104.878 554.475 105.502 549.816 106.43 547.819Z" fill="#BFC5D1"/>
<path d="M121.726 539.167C123.56 539.743 125.716 542.052 125.716 542.052C125.716 542.052 122.751 540.192 120.617 540.055C120.617 540.055 120.659 539.779 120.617 539.611C120.528 539.255 120.054 539.299 119.952 538.946C120.617 538.724 121.726 539.167 121.726 539.167Z" fill="#E9EEF7"/>
<g filter="url(#filter5_f)">
<path d="M115.089 551.186C114.61 549.4 118.022 546.662 120.781 545.923C123.54 545.184 127.885 545.882 128.363 547.668C128.841 549.453 128.225 551.888 125.466 552.627C122.707 553.367 115.567 552.971 115.089 551.186Z" fill="#F9FAF4" fill-opacity="0.8"/>
</g>
<path d="M117.735 565.567C117.735 565.567 109.933 561.33 105.321 557.359L117.957 564.68C117.957 564.68 121.509 565.436 123.721 564.68C124.637 564.367 125.938 563.571 125.938 563.571C125.938 563.571 124.708 564.84 123.721 565.345C121.639 566.412 117.735 565.567 117.735 565.567Z" fill="#E4E7ED"/>
<path d="M127.711 585.756L131.923 583.538C131.923 583.538 130.943 584.286 130.371 584.647C129.583 585.145 129.578 585.091 129.041 585.313C128.535 585.521 127.711 585.756 127.711 585.756Z" fill="#D3D9E4"/>
<path d="M129.483 588.419L135.247 585.757C135.247 585.757 133.906 586.654 133.124 587.088C132.045 587.685 132.038 587.621 131.304 587.886C130.611 588.137 129.483 588.419 129.483 588.419Z" fill="#D3D9E4"/>
<path d="M129.483 591.747L135.247 589.084C135.247 589.084 133.906 589.982 133.124 590.415C132.045 591.013 132.038 590.949 131.304 591.214C130.611 591.465 129.483 591.747 129.483 591.747Z" fill="#D3D9E4"/>
<ellipse rx="0.221729" ry="0.887208" transform="matrix(0.838897 -0.54429 0.54367 0.839299 123.945 577.747)" fill="#010005"/>
<ellipse rx="0.415811" ry="1.24651" transform="matrix(0.838899 -0.544288 0.543673 0.839297 131.118 581.704)" fill="#010005"/>
<ellipse rx="0.400176" ry="1.24652" transform="matrix(0.838902 -0.544282 0.543679 0.839294 134.235 583.915)" fill="#010005"/>
<ellipse rx="0.336753" ry="0.861578" transform="matrix(0.838901 -0.544284 0.543677 0.839295 135.738 586.663)" fill="#010005"/>
<ellipse rx="0.331291" ry="0.938552" transform="matrix(0.838904 -0.54428 0.543681 0.839292 136.145 590.588)" fill="#010005"/>
<path d="M144.894 578.497C144.958 578.326 145.124 578.213 145.309 578.213L161.427 578.213C161.738 578.213 161.952 578.518 161.842 578.802L154.413 597.941C154.351 598.1 154.2 598.209 154.027 598.22L138.408 599.643C138.091 599.672 137.763 599.568 137.591 599.3C137.49 599.144 137.416 598.972 137.464 598.846L144.894 578.497Z" fill="#A3A4A9"/>
<path d="M159.636 583.826L160.933 583.469L162.514 583.302C162.514 583.302 161.51 583.427 161.163 583.556C160.683 583.734 160.69 583.702 160.382 583.755C160.092 583.805 159.636 583.826 159.636 583.826Z" fill="#D3D9E4"/>
<path d="M159.101 586.28L160.398 585.924L161.85 585.757C161.85 585.757 160.975 585.882 160.627 586.011C160.148 586.188 160.154 586.156 159.846 586.209C159.556 586.259 159.101 586.28 159.101 586.28Z" fill="#D3D9E4"/>
<path d="M160.966 581.163C160.966 581.163 161.747 580.907 162.263 580.807C162.787 580.706 163.622 580.654 163.622 580.654C163.622 580.654 162.976 580.78 162.492 580.894C162.186 580.966 162.019 581.04 161.711 581.093C161.421 581.143 160.966 581.163 160.966 581.163Z" fill="#D3D9E4"/>
<path d="M145.339 578.503C145.403 578.329 145.569 578.213 145.754 578.213L161.872 578.213C162.183 578.213 162.397 578.524 162.287 578.815L154.858 598.357C154.796 598.52 154.645 598.631 154.472 598.642L138.147 599.69C137.827 599.71 137.591 599.394 137.703 599.093L145.339 578.503Z" fill="url(#paint2_linear)"/>
<ellipse cx="163.844" cy="579.101" rx="0.665038" ry="0.887426" fill="#010005"/>
<ellipse cx="163.18" cy="581.985" rx="0.886746" ry="1.10929" fill="#010005"/>
<ellipse cx="161.406" cy="586.643" rx="0.443367" ry="0.443324" fill="#010005"/>
<ellipse cx="162.071" cy="584.425" rx="0.665038" ry="0.88742" fill="#010005"/>
<path d="M128.154 645.293C128.154 645.019 128.397 644.809 128.668 644.848C129.95 645.033 133.353 645.464 135.691 645.214C136.739 645.102 139.345 644.77 139.345 644.77L138.706 648.764C138.706 648.764 136.739 649.095 135.691 649.207C133.259 649.467 129.674 648.99 128.524 648.82C128.309 648.789 128.154 648.604 128.154 648.387L128.154 645.293Z" fill="#DADBDF"/>
<path d="M124.043 657.674C123.861 657.529 123.822 657.27 123.958 657.081C124.74 655.998 127.317 652.569 129.706 650.982C132.847 648.895 138.848 647.876 138.848 647.876L138.351 650.982C138.351 650.982 133.747 652.208 131.258 653.866C129.27 655.191 126.999 657.879 126.218 658.84C126.062 659.032 125.779 659.064 125.586 658.91L124.043 657.674Z" fill="#EBECF1"/>
<path d="M64.9746 570.67L76.7239 565.568L76.9456 566.011L65.1965 571.114L64.9746 570.67Z" fill="#B6B2B2"/>
<path d="M65.1973 571.114L76.9463 566.011L79.3848 585.535L87.587 624.36L75.6162 626.578C75.6162 626.578 74.1014 626.871 73.3994 626.356C72.7115 625.852 72.5127 624.36 72.5127 624.36L65.2441 589.531C65.213 589.382 65.1973 589.23 65.1973 589.077L65.1973 571.114Z" fill="#CBCBCB"/>
<path d="M462.603 767.082C462.603 767.082 464.664 693.64 403.913 678.692C308.834 655.298 345.71 475.25 355.953 416.364C356.021 415.972 355.67 415.675 355.278 415.748C355.056 415.789 354.879 415.958 354.827 416.177L271.36 767.082L376.36 767.082L462.603 767.082Z" fill="#F05B82"/>
<circle cx="349.83" cy="474.196" r="3.22288" transform="rotate(-10.5587 349.83 474.196)" fill="#7D7FBD"/>
<circle cx="334.511" cy="496.236" r="5.84893" transform="rotate(-10.5587 334.511 496.236)" fill="#7D7FBD"/>
<circle r="4.49442" transform="matrix(0.447602 -0.894233 -0.894233 -0.447602 332.095 542.067)" fill="#1FAC8C"/>
<circle r="3.07513" transform="matrix(0.447602 -0.894233 -0.894233 -0.447602 319.691 472.032)" fill="#EBA63F"/>
<circle r="6.38681" transform="matrix(0.447602 -0.894233 -0.894233 -0.447602 312.575 515.376)" fill="#3BC3DE"/>
<circle r="6.38681" transform="matrix(0.447602 -0.894233 -0.894233 -0.447602 309.698 585.008)" fill="#3BC3DE"/>
<circle r="4.68473" transform="matrix(0.447602 -0.894233 -0.894233 -0.447602 332.361 467.947)" stroke="#3BC3DE" stroke-width="1.19366"/>
<circle r="3.78478" transform="matrix(0.447602 -0.894233 -0.894233 -0.447602 341.868 450.624)" fill="#FBF9F3"/>
<path d="M310.973 543.887L295.209 553.646L311.898 562.404L310.973 543.887Z" fill="#AC88BE"/>
<path d="M356.547 437.911L356.257 445.355L362.923 441.763L356.547 437.911Z" fill="#AC88BE"/>
<rect width="13.1267" height="13.1267" transform="matrix(-0.716369 -0.697721 -0.697721 0.716369 349.938 569.718)" fill="#AC88BE"/>
<g clip-path="url(#clip1)">
<path d="M357.838 415.643L358.73 415.806C358.73 415.806 359.976 416.025 360.587 415.288C361.197 414.552 361.298 413.399 360.668 412.908L363.546 413.49C363.546 413.49 363.631 416.114 365.698 416.603C368.097 417.173 368.876 415.527 369.144 414.771L369.763 414.896C369.763 414.896 370.365 415.034 370.668 413.938C370.971 412.842 372.003 407.297 372.003 407.297C372.003 407.297 372.467 404.583 370.11 403.395C367.752 402.208 366.199 403.018 365.2 403.874L364.794 403.346C364.794 403.346 366.252 398.317 366.748 395.524C367.244 392.732 368.194 387.571 366.386 382.274C364.763 377.515 363.225 376.278 363.225 376.278L363.519 374.816C363.519 374.816 363.937 373.148 362.383 372.652C362.383 372.652 360.679 372.159 360.194 373.912L359.722 375.768C359.722 375.768 353.925 378.762 351.49 385.608C349.055 392.455 348.219 398.736 348.219 398.736L346.957 399.342C346.957 399.342 346.072 397.989 344.088 397.984C342.104 397.979 340.355 398.795 339.577 402.394C338.851 405.753 338.685 406.827 338.685 406.827C338.685 406.827 338.449 407.754 339.167 407.966C339.885 408.177 340.111 408.206 340.111 408.206C340.111 408.206 339.659 410.694 341.663 411.513C343.666 412.332 345.266 410.869 345.76 409.316L349.233 410.152C349.233 410.152 348.386 410.821 348.241 412.198C348.096 413.576 349.593 414.191 349.593 414.191C349.593 414.191 350.471 414.599 351.004 414.576L350.752 415.831C350.752 415.831 350.625 416.467 351.178 416.676C351.178 416.676 350.053 417.492 350.432 418.741C350.721 419.692 351.596 419.705 351.596 419.705C351.596 419.705 350.692 420.934 351.569 422.146C352.423 423.327 354.604 423.256 355.013 421.388C355.013 421.388 356.335 421.721 356.657 420.779C356.978 419.837 356.828 419.259 355.923 418.744C355.923 418.744 357.013 418.667 357.326 417.854C357.638 417.041 357.795 415.932 357.795 415.932L357.838 415.643Z" fill="white"/>
<path d="M351.932 413.425L351.532 415.417C351.486 415.66 351.535 415.912 351.67 416.12C351.797 416.313 352.034 416.484 352.265 416.519C352.504 416.557 352.766 416.529 352.968 416.382C353.173 416.242 353.316 416.029 353.368 415.786L353.769 413.795C353.814 413.552 353.764 413.301 353.63 413.093C353.503 412.902 353.265 412.729 353.035 412.693C352.795 412.656 352.534 412.684 352.332 412.831C352.127 412.971 351.984 413.184 351.931 413.426L351.932 413.425Z" fill="#F9D929"/>
<path d="M355.137 413.941L354.652 416.356C354.555 416.836 354.885 417.381 355.385 417.459C355.885 417.537 356.383 417.241 356.487 416.727L356.973 414.313C357.069 413.833 356.739 413.288 356.239 413.21C355.739 413.132 355.242 413.428 355.137 413.941Z" fill="#F9D929"/>
<path d="M353.468 413.693L352.557 418.225C352.461 418.704 352.79 419.249 353.29 419.327C353.79 419.405 354.288 419.109 354.392 418.596L355.304 414.064C355.4 413.584 355.07 413.039 354.57 412.961C354.07 412.883 353.573 413.179 353.468 413.693Z" fill="#F9D929"/>
<path d="M351.405 418.492C351.995 418.613 352.181 417.694 351.59 417.574C350.999 417.455 350.814 418.372 351.405 418.492Z" fill="#F9D929"/>
<path d="M354.99 420.407C355.58 420.526 355.766 419.609 355.173 419.489C354.58 419.368 354.397 420.286 354.99 420.407Z" fill="#F9D929"/>
<path d="M352.785 421.937C353.966 422.176 354.339 420.343 353.154 420.103C351.97 419.862 351.601 421.697 352.785 421.937Z" fill="#F9D929"/>
<path d="M368.199 413.79C368.335 413.302 368.462 412.81 368.578 412.316C368.636 412.069 368.692 411.821 368.745 411.573C368.778 411.419 368.917 411.096 368.762 410.975C368.698 410.933 368.624 410.907 368.547 410.9C367.972 410.796 367.396 410.694 366.82 410.591C366.497 410.533 366.168 410.475 365.841 410.508C365.719 410.52 365.586 410.553 365.517 410.654C365.481 410.715 365.459 410.783 365.453 410.854C365.305 411.738 365.129 412.638 365.122 413.54C365.12 413.775 365.131 414.016 365.21 414.238C365.26 414.374 365.329 414.501 365.416 414.616C365.653 414.94 365.998 415.192 366.388 415.286C366.778 415.38 367.214 415.303 367.528 415.054C367.908 414.752 368.068 414.257 368.199 413.79Z" fill="#F9D929"/>
<path d="M365.845 407.011L362.075 403.934L358.818 408.94L365.168 410.269L365.845 407.011Z" fill="#606AB1"/>
<path d="M365.975 403.441L370.705 404.398C370.792 404.415 370.868 404.466 370.917 404.54C370.966 404.613 370.983 404.703 370.966 404.789L369.342 412.864C369.341 412.872 369.336 412.88 369.329 412.885C369.321 412.889 369.313 412.891 369.304 412.889L363.985 411.814C363.977 411.812 363.969 411.807 363.964 411.8C363.96 411.793 363.958 411.784 363.959 411.776L365.583 403.701C365.6 403.615 365.651 403.539 365.725 403.49C365.798 403.441 365.888 403.424 365.975 403.441Z" fill="#EF5B81"/>
<path d="M341.143 408.318C341.206 407.814 341.279 407.312 341.363 406.811C341.405 406.56 341.45 406.311 341.497 406.061C341.526 405.907 341.522 405.555 341.712 405.504C341.787 405.49 341.865 405.495 341.939 405.517C342.509 405.647 343.08 405.776 343.65 405.904C343.971 405.977 344.296 406.051 344.585 406.209C344.692 406.266 344.803 406.349 344.828 406.469C344.838 406.54 344.832 406.611 344.811 406.679C344.606 407.551 344.42 408.448 344.077 409.283C343.988 409.499 343.884 409.718 343.726 409.893C343.627 409.998 343.514 410.088 343.39 410.161C343.045 410.367 342.63 410.465 342.235 410.4C341.841 410.334 341.467 410.094 341.274 409.742C341.039 409.317 341.083 408.799 341.143 408.318Z" fill="#F9D929"/>
<path d="M345.934 402.983L350.599 401.612L351.666 407.493L345.299 406.25L345.934 402.983Z" fill="#606AB1"/>
<path d="M345.795 408.136L340.475 407.061C340.467 407.059 340.459 407.054 340.454 407.047C340.45 407.04 340.448 407.031 340.45 407.022L342.073 398.948C342.082 398.905 342.099 398.864 342.123 398.828C342.147 398.792 342.179 398.761 342.215 398.737C342.251 398.712 342.292 398.696 342.335 398.687C342.378 398.679 342.422 398.679 342.465 398.688L347.195 399.644C347.282 399.662 347.358 399.713 347.407 399.786C347.456 399.86 347.473 399.95 347.456 400.036L345.833 408.111C345.831 408.119 345.826 408.127 345.819 408.131C345.811 408.136 345.803 408.138 345.794 408.136L345.795 408.136Z" fill="#EF5B81"/>
<path d="M354.584 410.266L357.299 410.816C357.414 410.838 357.533 410.818 357.633 410.758C361.78 408.244 362.901 404.277 362.901 404.277C362.901 404.277 365.541 396.083 365.879 390.132C366.228 383.96 364.104 379.864 363.14 378.08C362.913 377.659 362.651 377.212 362.28 376.899C361.938 376.611 361.271 376.475 360.861 376.638C360.452 376.802 360.117 377.05 359.775 377.322C358.197 378.59 354.579 381.602 352.515 387.427C350.524 393.044 349.791 401.625 349.791 401.625C349.791 401.625 349.292 405.718 352.144 409.649C352.213 409.743 352.315 409.808 352.43 409.83L355.146 410.38" fill="white"/>
<path d="M351.257 408.237L359.052 409.781C359.052 409.781 357.727 410.854 357.448 410.845C357.169 410.837 352.429 409.831 352.429 409.831L351.257 408.237Z" fill="#3AC2DF"/>
<path d="M358.368 410.535L352.042 409.256L351.579 411.56L357.905 412.839L358.368 410.535Z" fill="#606AB1"/>
<path d="M363.646 401.814L350.14 399.225L350.002 399.947L363.508 402.535L363.646 401.814Z" fill="#3AC2DF"/>
<path d="M349.862 400.863L363.164 403.322C363.164 403.322 362.416 406.461 360.612 408.277L350.339 406.218C350.339 406.218 349.33 402.442 349.862 400.863Z" fill="#F9D929"/>
<path d="M355.105 410.57L352.389 410.021C352.227 409.988 352.083 409.895 351.985 409.762C349.122 405.816 349.593 401.643 349.6 401.603L349.986 401.651C349.982 401.691 349.532 405.717 352.302 409.534C352.342 409.589 352.401 409.627 352.468 409.641L355.184 410.19L355.105 410.57Z" fill="#EF5B81"/>
<path d="M365.8 386.468C365.375 382.318 363.899 379.484 363.139 378.081C362.911 377.66 362.649 377.213 362.278 376.901C361.936 376.612 361.269 376.476 360.86 376.639C360.45 376.803 360.115 377.051 359.774 377.323C358.53 378.322 356.019 380.405 354 384.095L365.8 386.468Z" fill="#EF5B81"/>
<path d="M357.262 411.007L354.545 410.458L354.622 410.076L357.338 410.625C357.404 410.639 357.473 410.627 357.532 410.592C361.561 408.15 362.703 404.264 362.713 404.224L363.087 404.33C363.075 404.371 361.897 408.4 357.733 410.924C357.591 411.009 357.424 411.038 357.262 411.007Z" fill="#EF5B81"/>
<path d="M357.231 411.159L352.359 410.174C352.157 410.134 351.978 410.019 351.858 409.852C348.96 405.856 349.422 401.756 349.443 401.583C349.45 401.51 350.202 392.904 352.184 387.311C354.335 381.245 358.125 378.198 359.554 377.05C359.875 376.792 360.257 376.501 360.73 376.314C361.244 376.109 362.056 376.255 362.506 376.632C362.928 376.988 363.214 377.48 363.449 377.914C364.309 379.503 366.594 383.723 366.23 390.151C365.894 396.079 363.261 404.302 363.236 404.385C363.192 404.54 362.033 408.502 357.815 411.058C357.64 411.164 357.432 411.2 357.231 411.159ZM354.654 409.921L357.37 410.472C357.398 410.478 357.427 410.473 357.452 410.459C361.424 408.051 362.554 404.22 362.565 404.182C362.595 404.088 365.199 395.948 365.529 390.112C365.881 383.883 363.666 379.79 362.832 378.249C362.627 377.871 362.382 377.447 362.054 377.17C361.803 376.959 361.267 376.856 360.991 376.966C360.646 377.104 360.353 377.309 359.995 377.598C358.61 378.711 354.929 381.668 352.846 387.547C350.894 393.054 350.148 401.57 350.142 401.654C350.136 401.706 349.697 405.677 352.428 409.44C352.445 409.463 352.47 409.479 352.498 409.484L354.654 409.921Z" fill="#020001"/>
<path d="M358.283 414.676L350.576 413.109C350.465 413.087 350.36 413.043 350.266 412.98C350.172 412.917 350.092 412.836 350.029 412.742C349.967 412.648 349.924 412.542 349.902 412.432C349.88 412.321 349.88 412.207 349.902 412.096C349.947 411.873 350.079 411.677 350.269 411.551C350.459 411.425 350.691 411.38 350.914 411.425L358.622 412.992C358.732 413.015 358.838 413.059 358.931 413.122C359.025 413.185 359.105 413.265 359.168 413.359C359.23 413.453 359.274 413.559 359.295 413.67C359.317 413.78 359.317 413.894 359.295 414.005C359.272 414.115 359.229 414.22 359.166 414.314C359.103 414.408 359.022 414.488 358.928 414.55C358.834 414.612 358.729 414.656 358.618 414.677C358.507 414.699 358.394 414.699 358.283 414.676Z" fill="#EF5B81"/>
<path d="M357.923 395.659C356.731 395.417 355.684 394.712 355.011 393.7C354.338 392.688 354.094 391.45 354.332 390.259C354.573 389.069 355.276 388.023 356.288 387.352C357.3 386.68 358.537 386.438 359.728 386.678C360.919 386.92 361.966 387.625 362.639 388.637C363.312 389.649 363.556 390.886 363.318 392.077C363.077 393.267 362.374 394.312 361.362 394.984C360.351 395.656 359.114 395.898 357.923 395.659ZM359.629 387.175C358.57 386.962 357.469 387.178 356.57 387.775C355.67 388.372 355.045 389.302 354.83 390.36C354.618 391.419 354.835 392.52 355.433 393.42C356.032 394.321 356.963 394.947 358.022 395.163C359.081 395.376 360.182 395.16 361.081 394.563C361.981 393.966 362.606 393.036 362.82 391.978C363.032 390.919 362.815 389.818 362.217 388.918C361.619 388.018 360.688 387.391 359.629 387.175Z" fill="#1A1A1A"/>
<path d="M361.241 393.133C362.324 391.801 362.122 389.842 360.788 388.757C359.454 387.672 357.494 387.872 356.41 389.204C355.327 390.536 355.53 392.496 356.863 393.581C358.197 394.666 360.157 394.466 361.241 393.133Z" fill="#606AB1"/>
<path d="M361.125 378.034L361.118 378.033C360.966 378 360.834 377.909 360.749 377.779C360.665 377.649 360.635 377.49 360.667 377.339L361.287 374.423C361.319 374.272 361.409 374.14 361.538 374.056C361.667 373.972 361.824 373.941 361.975 373.972L361.981 373.973C362.133 374.006 362.266 374.097 362.35 374.227C362.435 374.358 362.464 374.516 362.432 374.668L361.811 377.584C361.779 377.734 361.689 377.866 361.561 377.95C361.432 378.034 361.276 378.064 361.125 378.034Z" fill="#EF5B81"/>
</g>
</g>
<defs>
<filter id="filter0_f" x="-20.8669" y="642.609" width="173.262" height="47.4469" filterUnits="userSpaceOnUse" color-interpolation-filters="sRGB">
<feFlood flood-opacity="0" result="BackgroundImageFix"/>
<feBlend mode="normal" in="SourceGraphic" in2="BackgroundImageFix" result="shape"/>
<feGaussianBlur stdDeviation="3.39339" result="effect1_foregroundBlur"/>
</filter>
<filter id="filter1_f" x="134.414" y="648.306" width="34.6664" height="16.0673" filterUnits="userSpaceOnUse" color-interpolation-filters="sRGB">
<feFlood flood-opacity="0" result="BackgroundImageFix"/>
<feBlend mode="normal" in="SourceGraphic" in2="BackgroundImageFix" result="shape"/>
<feGaussianBlur stdDeviation="1.08149" result="effect1_foregroundBlur"/>
</filter>
<filter id="filter2_f" x="103.023" y="597.845" width="17.9247" height="7.82461" filterUnits="userSpaceOnUse" color-interpolation-filters="sRGB">
<feFlood flood-opacity="0" result="BackgroundImageFix"/>
<feBlend mode="normal" in="SourceGraphic" in2="BackgroundImageFix" result="shape"/>
<feGaussianBlur stdDeviation="1.08149" result="effect1_foregroundBlur"/>
</filter>
<filter id="filter3_f" x="113.134" y="596.017" width="43.3417" height="6.76639" filterUnits="userSpaceOnUse" color-interpolation-filters="sRGB">
<feFlood flood-opacity="0" result="BackgroundImageFix"/>
<feBlend mode="normal" in="SourceGraphic" in2="BackgroundImageFix" result="shape"/>
<feGaussianBlur stdDeviation="1.08149" result="effect1_foregroundBlur"/>
</filter>
<filter id="filter4_f" x="100.819" y="535.711" width="26.1204" height="25.9745" filterUnits="userSpaceOnUse" color-interpolation-filters="sRGB">
<feFlood flood-opacity="0" result="BackgroundImageFix"/>
<feBlend mode="normal" in="SourceGraphic" in2="BackgroundImageFix" result="shape"/>
<feGaussianBlur stdDeviation="2.16298" result="effect1_foregroundBlur"/>
</filter>
<filter id="filter5_f" x="110.718" y="541.306" width="22.1184" height="16.0004" filterUnits="userSpaceOnUse" color-interpolation-filters="sRGB">
<feFlood flood-opacity="0" result="BackgroundImageFix"/>
<feBlend mode="normal" in="SourceGraphic" in2="BackgroundImageFix" result="shape"/>
<feGaussianBlur stdDeviation="2.16298" result="effect1_foregroundBlur"/>
</filter>
<linearGradient id="paint0_linear" x1="145.739" y1="663.715" x2="-14.0801" y2="663.715" gradientUnits="userSpaceOnUse">
<stop/>
<stop offset="1" stop-opacity="0.7"/>
</linearGradient>
<linearGradient id="paint1_linear" x1="131.922" y1="605.279" x2="92.2113" y2="643.407" gradientUnits="userSpaceOnUse">
<stop stop-color="#BCC2CD"/>
<stop offset="1" stop-color="#707580"/>
</linearGradient>
<linearGradient id="paint2_linear" x1="162.293" y1="578.213" x2="137.449" y2="599.492" gradientUnits="userSpaceOnUse">
<stop stop-color="white"/>
<stop offset="1" stop-color="#D0D2D6"/>
</linearGradient>
<clipPath id="clip0">
<rect width="375" height="766" fill="white"/>
</clipPath>
<clipPath id="clip1">
<rect width="45.4167" height="33.9758" fill="white" transform="translate(332.787 406.95) rotate(-50.8709)"/>
</clipPath>
</defs>
</svg>
