<svg width="179" height="67" viewBox="0 0 179 67" fill="none" xmlns="http://www.w3.org/2000/svg">
<path d="M99.0531 65.9691C96.4133 65.9691 94.234 65.1301 92.5152 63.4523C90.7963 61.7744 89.9369 59.64 89.9369 57.049C89.9369 54.4594 90.7963 52.3253 92.5152 50.6467C94.234 48.9682 96.4133 48.1296 99.0531 48.131C100.642 48.1118 102.204 48.5394 103.562 49.365C104.905 50.1884 105.829 51.2189 106.335 52.4564C106.49 52.8022 106.565 53.1782 106.556 53.5568C106.556 54.159 106.364 54.6396 105.981 54.9986C105.598 55.3577 105.097 55.5368 104.478 55.5361C104.113 55.5522 103.751 55.4584 103.44 55.2669C103.171 55.0888 102.91 54.7781 102.67 54.3382C102.198 53.49 101.66 52.8914 101.057 52.5423C100.454 52.1931 99.6881 52.0164 98.7595 52.0122C97.4067 52.0122 96.3151 52.4765 95.4847 53.4052C94.6542 54.3339 94.2386 55.5478 94.2379 57.0469C94.2379 58.5459 94.6535 59.7598 95.4847 60.6885C96.3158 61.6172 97.4074 62.0815 98.7595 62.0815C99.6881 62.0815 100.454 61.9023 101.057 61.544C101.66 61.1857 102.198 60.5828 102.67 59.7354C102.914 59.2958 103.171 58.9862 103.44 58.8067C103.751 58.6157 104.113 58.5219 104.478 58.5374C105.097 58.5374 105.602 58.7169 105.994 59.076C106.385 59.435 106.581 59.9156 106.58 60.5178C106.575 60.843 106.517 61.1652 106.408 61.4719C105.92 62.8402 105.004 63.9318 103.659 64.7467C102.315 65.5616 100.78 65.9691 99.0531 65.9691Z" fill="#EF5B81" stroke="#EF5B81" stroke-width="0.355256" stroke-miterlimit="10"/>
<path d="M122.235 48.4849C122.886 48.4849 123.403 48.6923 123.786 49.1072C124.169 49.522 124.361 50.0875 124.361 50.8034V63.5146C124.361 64.2313 124.169 64.7967 123.786 65.2109C123.403 65.625 122.886 65.8332 122.235 65.8353C121.567 65.8353 121.037 65.6278 120.645 65.213C120.254 64.7981 120.058 64.2327 120.059 63.5167V58.8213H112.727V63.5146C112.727 64.2313 112.536 64.7967 112.153 65.2109C111.771 65.625 111.253 65.8332 110.599 65.8353C109.931 65.8353 109.401 65.6278 109.009 65.213C108.617 64.7981 108.421 64.2327 108.423 63.5167V50.8055C108.423 50.0889 108.618 49.5235 109.009 49.1093C109.4 48.6951 109.93 48.4877 110.599 48.487C111.25 48.487 111.767 48.6944 112.151 49.1093C112.535 49.5242 112.726 50.0896 112.725 50.8055V55.0832H120.057V50.8055C120.057 50.0889 120.252 49.5235 120.643 49.1093C121.034 48.6951 121.565 48.487 122.235 48.4849Z" fill="#EF5B81" stroke="#EF5B81" stroke-width="0.355256" stroke-miterlimit="10"/>
<path d="M135.214 65.969C132.492 65.969 130.297 65.142 128.628 63.4882C126.959 61.8344 126.124 59.6635 126.123 56.9757C126.123 54.4186 126.982 52.3047 128.701 50.6339C130.42 48.9631 132.591 48.1287 135.214 48.1309C137.82 48.1309 139.987 48.974 141.715 50.6604C143.442 52.3467 144.306 54.4607 144.306 57.0022C144.306 59.6752 143.466 61.8379 141.788 63.4903C140.109 65.1427 137.918 65.969 135.214 65.969ZM131.707 60.7149C132.563 61.6273 133.732 62.0835 135.214 62.0835C136.696 62.0835 137.862 61.6315 138.712 60.7276C139.56 59.8229 139.984 58.5804 139.984 57.0001C139.984 55.501 139.545 54.2953 138.666 53.3828C137.786 52.4704 136.637 52.0142 135.219 52.0142C133.769 52.0142 132.608 52.4665 131.736 53.3712C130.865 54.2758 130.429 55.4774 130.429 56.9757C130.426 58.5567 130.852 59.8031 131.707 60.7149Z" fill="#EF5B81" stroke="#EF5B81" stroke-width="0.355256" stroke-miterlimit="10"/>
<path d="M154.907 65.969C152.185 65.969 149.99 65.142 148.32 63.4882C146.651 61.8344 145.816 59.6635 145.816 56.9757C145.816 54.4186 146.676 52.3047 148.395 50.6339C150.113 48.9631 152.284 48.1287 154.907 48.1309C157.514 48.1309 159.681 48.974 161.408 50.6604C163.135 52.3467 163.999 54.4607 163.998 57.0022C163.998 59.6752 163.159 61.8379 161.481 63.4903C159.803 65.1427 157.612 65.969 154.907 65.969ZM151.4 60.7149C152.256 61.6273 153.425 62.0835 154.907 62.0835C156.389 62.0835 157.555 61.6315 158.406 60.7276C159.254 59.8229 159.678 58.5804 159.678 57.0001C159.678 55.501 159.238 54.2953 158.358 53.3828C157.478 52.4704 156.329 52.0142 154.912 52.0142C153.462 52.0142 152.301 52.4665 151.43 53.3712C150.558 54.2758 150.123 55.4774 150.123 56.9757C150.119 58.5567 150.545 59.8031 151.4 60.7149Z" fill="#EF5B81" stroke="#EF5B81" stroke-width="0.355256" stroke-miterlimit="10"/>
<path d="M175.797 65.6034H167.994C167.726 65.6067 167.461 65.5564 167.213 65.4556C166.966 65.3548 166.741 65.2054 166.552 65.0163C166.363 64.8272 166.214 64.6022 166.113 64.3546C166.012 64.1069 165.962 63.8416 165.965 63.5743V50.6956C165.965 49.9789 166.161 49.4135 166.552 48.9993C166.943 48.5852 167.473 48.3774 168.142 48.376C168.793 48.376 169.31 48.5838 169.693 48.9993C170.076 49.4149 170.268 49.9803 170.268 50.6956V61.5462H175.798C176.451 61.5462 176.981 61.7378 177.389 62.1208C177.588 62.3056 177.746 62.5309 177.851 62.7816C177.956 63.0322 178.007 63.3025 177.999 63.5743C177.999 64.1779 177.8 64.6666 177.4 65.0405C177.001 65.4144 176.467 65.602 175.797 65.6034Z" fill="#EF5B81" stroke="#EF5B81" stroke-width="0.355256" stroke-miterlimit="10"/>
<path d="M82.3123 65.9688C80.4549 65.9688 78.8053 65.6267 77.3635 64.9426C75.9217 64.2584 74.8912 63.3297 74.2721 62.1565C74.0113 61.6519 73.8809 61.1956 73.8809 60.7878C73.8761 60.517 73.9293 60.2482 74.0368 59.9996C74.1443 59.7509 74.3037 59.5281 74.5043 59.346C74.916 58.9564 75.4653 58.7456 76.032 58.7598C76.9281 58.7598 77.6367 59.1838 78.1576 60.032C79.0057 61.4497 80.4068 62.1565 82.3611 62.1523C83.1922 62.1523 83.8357 62.0056 84.2916 61.7123C84.5044 61.5885 84.6802 61.4099 84.8007 61.1951C84.9211 60.9803 84.9818 60.7372 84.9764 60.491C84.9852 60.2405 84.9078 59.9947 84.757 59.7945C84.6093 59.6072 84.3404 59.4443 83.9502 59.3057C83.6341 59.1897 83.3117 59.0916 82.9844 59.0121C82.7321 58.9548 82.2801 58.8612 81.6285 58.7311L81.2617 58.658C80.756 58.5605 80.4061 58.4905 80.2111 58.446C80.016 58.4014 79.6736 58.3272 79.1848 58.2138C78.8262 58.1358 78.4723 58.0378 78.1247 57.9201C77.9042 57.8389 77.5904 57.7127 77.1833 57.5417C76.8599 57.4176 76.5555 57.2488 76.279 57.0402C76.0839 56.8784 75.8436 56.6663 75.5581 56.4041C75.2974 56.176 75.0854 55.8976 74.9347 55.5857C74.7913 55.2622 74.677 54.9266 74.5933 54.5828C74.4929 54.1792 74.4434 53.7646 74.446 53.3488C74.446 51.8342 75.0821 50.5839 76.3542 49.598C77.6264 48.612 79.2378 48.1229 81.1885 48.1307C82.5998 48.119 83.9967 48.4153 85.2818 48.999C86.5448 49.5771 87.453 50.3224 88.0064 51.2348C88.2195 51.5897 88.3375 51.9935 88.3488 52.4074C88.3549 52.6656 88.3057 52.9221 88.2046 53.1598C88.1035 53.3975 87.9528 53.6109 87.7625 53.7855C87.3653 54.1548 86.8384 54.3525 86.2963 54.3358C85.709 54.3358 85.1549 54.0753 84.634 53.5544C83.5421 52.4462 82.3444 51.8921 81.0412 51.8921C80.2927 51.8921 79.6859 52.0268 79.2209 52.296C78.7558 52.5653 78.5237 52.9187 78.5244 53.3562C78.5244 53.7961 78.818 54.1312 79.4043 54.358C79.9906 54.5849 80.8705 54.798 82.0441 54.9941C82.6632 55.1086 83.1226 55.198 83.4223 55.2623C83.7219 55.3267 84.1661 55.4408 84.7549 55.6048C85.2197 55.7246 85.6734 55.8842 86.1108 56.0818C86.5006 56.2774 86.88 56.4933 87.2473 56.7285C87.6335 56.9567 87.9699 57.2603 88.2364 57.6212C88.4804 57.9863 88.6777 58.3806 88.8237 58.7948C88.999 59.2844 89.0859 59.8013 89.0803 60.3214C89.0803 61.9837 88.453 63.34 87.1985 64.3902C85.944 65.4405 84.3153 65.9667 82.3123 65.9688Z" fill="#EF5B81" stroke="#EF5B81" stroke-width="0.355256" stroke-miterlimit="10"/>
<path d="M79.3172 44.1701C78.944 44.575 78.4323 44.7772 77.7821 44.7765C77.1319 44.7758 76.6163 44.5736 76.2354 44.1701C75.8544 43.7651 75.6639 43.2138 75.6639 42.5162V30.4019C75.6639 28.8004 76.4573 27.9992 78.044 27.9985H87.8726C88.5236 27.9985 89.0392 28.1752 89.4194 28.5286C89.7996 28.882 89.9901 29.3619 89.9908 29.9683C89.9908 30.5712 89.8046 31.0472 89.4321 31.3963C89.0596 31.7455 88.5398 31.92 87.8726 31.92H79.8526V35.303H86.7065C88.0394 35.303 88.7059 35.9217 88.7059 37.1593C88.7059 38.3806 88.0394 38.9912 86.7065 38.9912H79.877V42.512C79.877 43.2131 79.6904 43.7658 79.3172 44.1701Z" fill="#EF5B81"/>
<path d="M77.7822 45.0807C77.0475 45.0807 76.4528 44.8443 76.0139 44.3778C75.5749 43.9114 75.3597 43.2901 75.3597 42.5162V30.4019C75.3597 28.6314 76.2884 27.6953 78.044 27.6953H87.8727C88.6 27.6953 89.1905 27.9073 89.6283 28.3123C90.0661 28.7173 90.2951 29.2866 90.2951 29.9736C90.2951 30.6606 90.0746 31.2161 89.64 31.6242C89.2053 32.0324 88.6159 32.2285 87.8727 32.2285H80.1569V34.9998H86.7065C88.6148 34.9998 89.0102 36.1744 89.0102 37.1603C89.0102 38.1463 88.6106 39.2965 86.7065 39.2965H80.1802V42.512C80.1802 43.2848 79.9682 43.9103 79.5442 44.3715C79.1095 44.8443 78.5179 45.0807 77.7822 45.0807ZM78.044 28.306C76.6277 28.306 75.9683 28.9728 75.9683 30.4051V42.512C75.9683 43.1353 76.1273 43.6082 76.457 43.958C76.7867 44.3079 77.2139 44.469 77.7822 44.469C78.3504 44.469 78.7777 44.3026 79.0936 43.9601C79.4095 43.6177 79.5728 43.1364 79.5728 42.512V38.6954H86.7065C87.8791 38.6954 88.4028 38.2237 88.4028 37.1667C88.4028 36.0928 87.8801 35.6136 86.7065 35.6136H79.5495V31.6274H87.8727C88.4643 31.6274 88.9063 31.4822 89.2244 31.1853C89.5424 30.8885 89.6877 30.4994 89.6877 29.9789C89.6877 29.4583 89.5318 29.0608 89.2117 28.7608C88.8915 28.4607 88.4484 28.306 87.8727 28.306H78.044Z" fill="#EF5B81"/>
<path d="M99.2015 45.0149C96.742 45.0149 94.8298 44.3644 93.465 43.0632C92.1003 41.762 91.4182 39.9453 91.4189 37.613V30.141C91.4189 29.4427 91.6094 28.8911 91.9904 28.4861C92.3713 28.0812 92.8869 27.8797 93.5371 27.8819C94.1732 27.8819 94.6768 28.084 95.0478 28.4883C95.4189 28.8925 95.6055 29.4442 95.6076 30.1432V37.473C95.6076 38.6152 95.9051 39.5195 96.5002 40.186C97.0953 40.8524 97.9958 41.1857 99.2015 41.1857C100.407 41.1857 101.312 40.8524 101.914 40.186C102.517 39.5195 102.819 38.6152 102.819 37.473V30.141C102.819 29.4427 103.009 28.8911 103.39 28.4861C103.771 28.0812 104.287 27.8797 104.937 27.8819C105.573 27.8819 106.077 28.084 106.448 28.4883C106.819 28.8925 107.005 29.4442 107.007 30.1432V37.6151C107.007 39.9474 106.317 41.7642 104.937 43.0653C103.557 44.3665 101.645 45.0164 99.2015 45.0149Z" fill="#EF5B81"/>
<path d="M99.2014 45.3194C96.673 45.3194 94.6725 44.6346 93.2561 43.2829C91.8398 41.9312 91.1146 40.0219 91.1146 37.6132V30.1412C91.1146 29.3663 91.3351 28.7397 91.7687 28.2786C92.2023 27.8174 92.8024 27.5757 93.5371 27.5757C94.2717 27.5757 94.84 27.8132 95.2715 28.2807C95.703 28.7482 95.9076 29.3673 95.9076 30.1412V37.4711C95.9076 38.5313 96.1821 39.3794 96.7239 39.9816C97.2656 40.5837 98.0883 40.8795 99.1983 40.8795C100.308 40.8795 101.146 40.5774 101.685 39.9794C102.225 39.3815 102.517 38.5302 102.517 37.4711V30.1412C102.517 29.3652 102.737 28.7397 103.171 28.2786C103.604 27.8174 104.204 27.5757 104.939 27.5757C105.674 27.5757 106.242 27.8132 106.673 28.2807C107.105 28.7482 107.309 29.3673 107.309 30.1412V37.6132C107.309 40.0219 106.581 41.9301 105.144 43.285C103.706 44.6399 101.713 45.3194 99.2014 45.3194ZM93.5371 28.1842C92.9688 28.1842 92.5352 28.3507 92.2108 28.6952C91.8864 29.0398 91.7231 29.5168 91.7231 30.1412V37.6132C91.7231 39.849 92.3794 41.6089 93.6749 42.844C94.9704 44.079 96.8341 44.7109 99.2014 44.7109C101.553 44.7109 103.412 44.0822 104.728 42.8429C106.044 41.6036 106.703 39.848 106.703 37.6132V30.1412C106.703 29.5253 106.542 29.0376 106.225 28.6931C105.908 28.3485 105.483 28.1842 104.937 28.1842C104.369 28.1842 103.935 28.3507 103.611 28.6952C103.286 29.0398 103.123 29.5168 103.123 30.1412V37.4711C103.123 38.685 102.792 39.6667 102.139 40.3876C101.486 41.1085 100.491 41.487 99.2014 41.487C97.9123 41.487 96.9253 41.117 96.2733 40.3865C95.6213 39.6561 95.3075 38.685 95.3075 37.4711V30.1412C95.3075 29.5158 95.1506 29.0419 94.8294 28.6931C94.5082 28.3443 94.0883 28.1842 93.5371 28.1842Z" fill="#EF5B81"/>
<path d="M110.434 27.9986H122.143C122.81 27.9986 123.333 28.1753 123.714 28.5287C124.095 28.882 124.286 29.3619 124.286 29.9683C124.286 30.5875 124.099 31.0677 123.726 31.4091C123.353 31.7505 122.825 31.9208 122.143 31.9201H118.407V42.512C118.407 43.2103 118.221 43.7616 117.847 44.1659C117.474 44.5702 116.971 44.7723 116.337 44.7723C115.686 44.7723 115.17 44.5702 114.79 44.1659C114.41 43.7616 114.219 43.2103 114.219 42.512V31.9211H110.434C109.768 31.9211 109.249 31.7466 108.875 31.3974C108.502 31.0483 108.316 30.5723 108.316 29.9694C108.316 29.3672 108.506 28.8873 108.887 28.5297C109.268 28.1721 109.784 27.9951 110.434 27.9986Z" fill="#EF5B81"/>
<path d="M116.337 45.0808C115.602 45.0808 115.007 44.8444 114.568 44.3779C114.129 43.9115 113.914 43.2913 113.914 42.5163V32.2286H110.435C109.693 32.2286 109.097 32.025 108.668 31.6222C108.238 31.2193 108.012 30.6606 108.012 29.9726C108.012 29.2846 108.237 28.7269 108.679 28.3113C109.121 27.8958 109.706 27.6943 110.435 27.6943H122.143C122.885 27.6943 123.485 27.9064 123.922 28.3113C124.359 28.7163 124.589 29.2856 124.589 29.9726C124.589 30.6776 124.367 31.2374 123.93 31.637C123.494 32.0367 122.901 32.2286 122.143 32.2286H118.71V42.5121C118.71 43.2849 118.498 43.9104 118.074 44.3716C117.65 44.8327 117.056 45.0808 116.337 45.0808ZM110.435 28.306C109.858 28.306 109.42 28.4545 109.095 28.7587C108.769 29.063 108.62 29.4574 108.62 29.9768C108.62 30.4963 108.771 30.8917 109.083 31.1833C109.395 31.4748 109.851 31.6254 110.435 31.6254H114.522V42.5121C114.522 43.1354 114.682 43.6083 115.01 43.9581C115.339 44.308 115.768 44.4691 116.337 44.4691C116.887 44.4691 117.309 44.3027 117.624 43.9602C117.939 43.6178 118.101 43.1407 118.101 42.5121V31.6222H122.141C122.742 31.6222 123.201 31.4759 123.519 31.1897C123.837 30.9034 123.98 30.508 123.98 29.9737C123.98 29.4393 123.824 29.0556 123.505 28.7555C123.186 28.4555 122.734 28.3029 122.142 28.3029L110.435 28.306Z" fill="#EF5B81"/>
<path d="M133.376 45.0151C130.917 45.0151 129.005 44.3645 127.64 43.0634C126.275 41.7622 125.593 39.9455 125.594 37.6131V30.1412C125.594 29.4429 125.784 28.8913 126.165 28.4863C126.546 28.0813 127.062 27.8792 127.712 27.8799C128.348 27.8799 128.852 28.082 129.223 28.4863C129.594 28.8906 129.78 29.4422 129.783 30.1412V37.4711C129.783 38.6132 130.08 39.5175 130.675 40.184C131.27 40.8505 132.171 41.1837 133.376 41.1837C134.582 41.1837 135.486 40.8505 136.089 40.184C136.692 39.5175 136.994 38.6132 136.994 37.4711V30.1412C136.994 29.4429 137.184 28.8913 137.564 28.4863C137.944 28.0813 138.46 27.8792 139.112 27.8799C139.748 27.8799 140.252 28.082 140.623 28.4863C140.994 28.8906 141.18 29.4422 141.182 30.1412V37.6131C141.182 39.9455 140.492 41.7622 139.112 43.0634C137.732 44.3645 135.82 45.0151 133.376 45.0151Z" fill="#EF5B81"/>
<path d="M133.376 45.3194C130.847 45.3194 128.848 44.6346 127.431 43.2829C126.015 41.9312 125.29 40.0219 125.29 37.6132V30.1412C125.29 29.3663 125.51 28.7397 125.944 28.2786C126.377 27.8174 126.977 27.5757 127.712 27.5757C128.447 27.5757 129.015 27.8132 129.447 28.2807C129.878 28.7482 130.083 29.3673 130.083 30.1412V37.4711C130.083 38.5313 130.357 39.3794 130.898 39.9816C131.439 40.5837 132.263 40.8795 133.373 40.8795C134.483 40.8795 135.321 40.5774 135.86 39.9794C136.4 39.3815 136.686 38.5302 136.686 37.4711V30.1412C136.686 29.3652 136.907 28.7387 137.34 28.2786C137.774 27.8185 138.374 27.5757 139.109 27.5757C139.843 27.5757 140.412 27.8132 140.843 28.2807C141.275 28.7482 141.479 29.3673 141.479 30.1412V37.6132C141.479 40.0219 140.751 41.9301 139.313 43.285C137.876 44.6399 135.888 45.3194 133.376 45.3194ZM127.712 28.1842C127.144 28.1842 126.71 28.3507 126.386 28.6952C126.061 29.0398 125.897 29.5168 125.897 30.1412V37.6132C125.897 39.849 126.554 41.6089 127.85 42.844C129.145 44.079 131.009 44.7109 133.376 44.7109C135.744 44.7109 137.587 44.0822 138.903 42.8429C140.219 41.6036 140.878 39.848 140.878 37.6132V30.1412C140.878 29.5253 140.717 29.0376 140.399 28.6931C140.081 28.3485 139.662 28.1842 139.112 28.1842C138.544 28.1842 138.11 28.3507 137.786 28.6952C137.461 29.0398 137.297 29.5168 137.297 30.1412V37.4711C137.297 38.685 136.966 39.6667 136.314 40.3876C135.662 41.1085 134.666 41.487 133.376 41.487C132.087 41.487 131.1 41.117 130.448 40.3865C129.796 39.6561 129.478 38.685 129.478 37.4711V30.1412C129.478 29.5158 129.321 29.0419 129 28.6931C128.679 28.3443 128.262 28.1842 127.712 28.1842Z" fill="#EF5B81"/>
<path d="M156.461 38.6371L158.936 41.3734C159.396 41.8971 159.626 42.4272 159.626 42.9636C159.632 43.2075 159.585 43.4498 159.489 43.6738C159.393 43.8979 159.249 44.0983 159.067 44.2612C158.686 44.605 158.188 44.7882 157.675 44.7722C157.104 44.7722 156.596 44.5422 156.152 44.0821L151.439 39.0612H148.103V42.512C148.103 43.2103 147.917 43.7616 147.544 44.1658C147.172 44.5701 146.668 44.7722 146.032 44.7722C145.382 44.7722 144.866 44.5701 144.486 44.1658C144.105 43.7616 143.915 43.2103 143.914 42.512V30.4019C143.914 28.8004 144.708 27.9992 146.294 27.9985H153.815C155.671 27.9985 157.115 28.4827 158.147 29.4509C159.179 30.4192 159.694 31.7755 159.694 33.5198C159.696 36.1221 158.619 37.8279 156.461 38.6371ZM148.103 31.7822V35.2807H153.601C154.187 35.2807 154.648 35.1259 154.979 34.8174C155.31 34.5089 155.478 34.0753 155.478 33.5198C155.478 32.3621 154.852 31.7829 153.599 31.7822H148.103Z" fill="#EF5B81"/>
<path d="M157.675 45.0807C157.02 45.0807 156.435 44.8167 155.933 44.2973L151.308 39.3686H148.412V42.512C148.412 43.2848 148.2 43.9103 147.776 44.3715C147.351 44.8326 146.76 45.0765 146.04 45.0765C145.32 45.0765 144.711 44.8443 144.269 44.3778C143.826 43.9114 143.615 43.2912 143.615 42.5162V30.4019C143.615 28.6314 144.543 27.6953 146.299 27.6953H153.819C155.746 27.6953 157.273 28.2105 158.359 29.2283C159.445 30.246 160.001 31.6963 160.001 33.5198C160.001 36.0811 158.984 37.8399 156.975 38.7527L159.162 41.1698C159.673 41.7518 159.93 42.3551 159.93 42.9721C159.937 43.2582 159.881 43.5423 159.768 43.8049C159.654 44.0676 159.485 44.3024 159.272 44.4934C158.835 44.8872 158.263 45.0976 157.675 45.0807ZM147.804 38.7612H151.571L156.373 43.8785C156.758 44.2782 157.184 44.4733 157.675 44.4733C158.112 44.4892 158.538 44.334 158.861 44.0407C159.012 43.9065 159.132 43.7409 159.211 43.5555C159.291 43.3701 159.329 43.1695 159.323 42.9678C159.323 42.5077 159.116 42.0381 158.708 41.5737L155.937 38.5088L156.354 38.3519C158.399 37.5855 159.394 36.0048 159.394 33.5198C159.394 31.8702 158.906 30.5757 157.943 29.6725C156.981 28.7692 155.587 28.306 153.819 28.306H146.301C144.884 28.306 144.225 28.9728 144.225 30.4051V42.512C144.225 43.1353 144.385 43.6082 144.714 43.958C145.042 44.3079 145.471 44.469 146.039 44.469C146.59 44.469 147.011 44.3026 147.327 43.9601C147.643 43.6177 147.806 43.1364 147.806 42.512L147.804 38.7612ZM153.605 35.5807H147.804V31.479H153.605C155.408 31.479 155.789 32.589 155.789 33.5198C155.789 34.1612 155.589 34.6722 155.192 35.04C154.796 35.4079 154.269 35.585 153.605 35.585V35.5807ZM148.411 34.9732H153.605C154.117 34.9732 154.501 34.8481 154.779 34.5905C155.057 34.3329 155.182 33.9873 155.182 33.5155C155.182 32.5243 154.695 32.0822 153.605 32.0822H148.411V34.9732Z" fill="#EF5B81"/>
<path d="M174.096 44.6577H164.363C162.76 44.6577 161.958 43.8566 161.958 42.2544V30.4019C161.958 28.8004 162.751 27.9992 164.338 27.9985H174.048C174.699 27.9985 175.215 28.1752 175.595 28.5286C175.975 28.882 176.166 29.3619 176.166 29.9683C176.166 30.5712 175.98 31.0472 175.607 31.3963C175.233 31.7455 174.714 31.92 174.048 31.92H166.147V34.4432H173.191C174.524 34.4432 175.191 35.062 175.191 36.2995C175.191 37.5371 174.524 38.159 173.191 38.1654H166.147V40.7309H174.098C174.749 40.7309 175.264 40.9094 175.645 41.2663C176.025 41.6232 176.215 42.1031 176.216 42.706C176.216 43.3096 176.03 43.7856 175.656 44.134C175.283 44.4825 174.763 44.657 174.096 44.6577Z" fill="#EF5B81"/>
<path d="M174.096 44.962H164.363C162.591 44.962 161.655 44.0259 161.655 42.2544V30.4019C161.655 28.6314 162.583 27.6953 164.338 27.6953H174.048C174.775 27.6953 175.366 27.9073 175.803 28.3123C176.239 28.7173 176.471 29.2866 176.471 29.9736C176.471 30.6606 176.25 31.2171 175.814 31.6242C175.379 32.0313 174.791 32.2296 174.048 32.2296H166.451V34.1442H173.191C175.094 34.1442 175.494 35.3189 175.494 36.3048C175.494 37.2907 175.094 38.4643 173.191 38.4643H166.451V40.4277H174.096C174.823 40.4277 175.414 40.6398 175.85 41.0447C176.287 41.4497 176.518 42.019 176.518 42.706C176.518 43.393 176.298 43.9485 175.862 44.3556C175.426 44.7627 174.839 44.962 174.096 44.962ZM164.342 28.3028C162.926 28.3028 162.267 28.9696 162.267 30.4019V42.2544C162.267 43.6866 162.933 44.3545 164.367 44.3545H174.1C174.692 44.3545 175.134 44.2093 175.451 43.9124C175.768 43.6156 175.914 43.2265 175.914 42.706C175.914 42.1854 175.759 41.7879 175.439 41.4879C175.119 41.1878 174.676 41.0352 174.1 41.0352H165.848V37.8547H173.196C174.368 37.8547 174.892 37.3755 174.892 36.3027C174.892 35.2298 174.369 34.7496 173.196 34.7496H165.848V31.6221H174.052C174.644 31.6221 175.086 31.4769 175.404 31.18C175.722 30.8832 175.867 30.4941 175.867 29.9736C175.867 29.453 175.711 29.0555 175.391 28.7555C175.071 28.4554 174.628 28.3028 174.052 28.3028H164.342Z" fill="#EF5B81"/>
<path d="M66.4312 64.7635V1.66762C66.4312 0.746617 65.6845 0 64.7635 0L1.66763 0C0.74662 0 7.62939e-06 0.746617 7.62939e-06 1.66762V64.7635C7.62939e-06 65.6845 0.74662 66.4311 1.66763 66.4311H64.7635C65.6845 66.4311 66.4312 65.6845 66.4312 64.7635Z" fill="#813589"/>
<path d="M44.4118 26.176C46.5109 27.0389 48.3217 28.2433 49.8281 29.8865C51.9045 32.1197 53.2275 34.9482 53.6107 37.9733C53.9807 40.7202 53.7888 43.3992 52.5177 45.9075C50.5702 49.7484 47.7036 52.6002 43.5064 53.8947C40.6038 54.7905 37.6756 55.5909 34.7517 56.4305C32.8618 56.9755 30.9712 57.5204 29.0799 58.0653C26.525 58.7989 24.1958 57.5564 23.4505 55.0068C21.6546 48.8536 19.8732 42.6963 18.1063 36.5347C16.3542 30.4685 14.6025 24.4038 12.8511 18.3404C12.1302 15.8512 13.4268 13.4701 15.916 12.747C20.6514 11.3731 25.3867 10.0013 30.122 8.63154C33.1615 7.75056 36.0971 8.14918 38.9118 9.46482C42.9456 11.3519 45.0055 14.6956 45.6511 18.9882C46.0148 21.4074 45.5695 23.7238 44.5136 25.9258C44.4754 25.9904 44.4532 26.0657 44.4118 26.176ZM39.9677 52.1179C40.8009 51.8825 41.6353 51.6524 42.4664 51.4107C48.1563 49.7548 51.8657 43.9112 50.9286 38.0836C50.1175 33.0192 46.4346 29.1539 41.4052 28.0938C40.8752 27.9825 40.3377 27.9167 39.762 27.8234C39.8818 27.6962 39.9645 27.6019 40.0535 27.516C41.9756 25.6682 42.9976 23.4047 43.076 20.748C43.1492 18.3012 42.3233 16.1353 40.8168 14.227C38.8577 11.7441 36.2826 10.5462 33.1297 10.7964C31.9688 10.8886 30.8164 11.2374 29.6853 11.5576C25.4447 12.7591 21.2097 13.9832 16.9804 15.2299C15.7231 15.5978 15.1368 16.8912 15.6192 18.1305C15.648 18.3445 15.688 18.5568 15.739 18.7666C19.1117 30.4579 22.4879 42.1475 25.8677 53.8353C26.244 55.1361 27.3922 55.7807 28.6951 55.4139C29.8302 55.0937 30.9645 54.7686 32.0982 54.4385C34.7217 53.6681 37.3449 52.8946 39.9677 52.1179Z" fill="#FCFBFC"/>
<path d="M39.9677 52.1179C37.3421 52.8953 34.7161 53.6689 32.0898 54.4386C30.9589 54.77 29.8246 55.0952 28.6867 55.4139C27.3838 55.7807 26.2356 55.1362 25.8593 53.8353C22.4837 42.1475 19.1093 30.4594 15.7359 18.7709C15.6849 18.5611 15.6449 18.3488 15.6161 18.1348C15.7571 18.0288 15.8843 17.8782 16.0401 17.8284C17.3272 17.4312 18.6177 17.0453 19.9118 16.6707C22.0523 16.0537 24.1916 15.4356 26.3395 14.8462C27.2597 14.5939 28.1895 14.3076 29.1309 14.2196C31.1215 14.0213 33.1167 14.5483 34.7497 15.7039C36.2572 16.7449 37.3057 18.1422 38.0637 19.8109C38.8313 21.4997 39.0369 23.2511 38.8005 25.0459C38.545 26.9764 37.6683 28.6504 36.3622 30.0912C36.1713 30.3032 35.9201 30.458 35.6349 30.6891C36.5201 30.8036 37.2485 30.8354 37.945 31.0018C39.4122 31.3527 40.7841 31.9326 42.0128 32.8433C43.2129 33.7328 44.2391 34.7738 45.0098 36.0524C45.8685 37.4677 46.4474 38.9901 46.5841 40.6439C46.7962 43.1671 46.3403 45.5566 44.978 47.7299C44.1013 49.1304 42.9913 50.304 41.5855 51.1786C41.0533 51.5062 40.5084 51.8062 39.9677 52.1179Z" fill="#803588"/>
<path d="M39.9677 52.1178C40.5052 51.8062 41.0501 51.5061 41.578 51.1786C42.987 50.3039 44.097 49.1303 44.9705 47.7299C46.3328 45.5566 46.7855 43.1712 46.5766 40.6438C46.4399 38.99 45.861 37.4634 45.0023 36.0523C44.2273 34.7738 43.2054 33.7327 42.0053 32.8433C40.7766 31.9326 39.4047 31.3527 37.9375 31.0018C37.241 30.8353 36.5126 30.8035 35.6274 30.689C35.9126 30.4579 36.1638 30.301 36.3547 30.0911C37.6629 28.6514 38.5396 26.9764 38.793 25.0458C39.0294 23.251 38.8238 21.4996 38.0562 19.8108C37.2982 18.1421 36.254 16.7449 34.7422 15.7038C33.1092 14.5483 31.114 14.0212 29.1234 14.2196C28.182 14.3076 27.2522 14.5938 26.332 14.8461C24.1841 15.4356 22.0448 16.0536 19.9043 16.6707C18.6102 17.0445 17.3197 17.4304 16.0327 17.8283C15.8736 17.8782 15.7464 18.0298 15.6086 18.1347C15.1262 16.8954 15.7146 15.602 16.9698 15.2342C21.2055 13.9931 25.4436 12.7668 29.6842 11.5554C30.8154 11.2374 31.9678 10.8865 33.1286 10.7942C36.2815 10.544 38.8534 11.742 40.8158 14.2249C42.3223 16.1332 43.1481 18.299 43.075 20.7459C42.9965 23.4026 41.9745 25.666 40.0525 27.5139C39.9634 27.5997 39.8807 27.6941 39.7609 27.8213C40.3366 27.9146 40.8752 27.9803 41.4042 28.0917C46.4314 29.1518 50.1165 33.0171 50.9307 38.0815C51.8679 43.9123 48.1584 49.7527 42.4686 51.4086C41.6385 51.6524 40.8041 51.8825 39.9677 52.1178Z" fill="#4C215C"/>
<path d="M84.9074 16.2769L84.8141 16.1836C84.9142 16.16 85.0129 16.131 85.1099 16.0967L85.2021 16.1889C85.1088 16.2218 85.0102 16.2515 84.9074 16.2769Z" fill="#461B49"/>
<path d="M85.2022 16.1888L85.11 16.0966C85.9751 15.787 86.4044 15.1181 86.4108 14.2191C86.4108 13.5151 86.2486 12.9988 85.8733 12.6235L85.9666 12.7168C86.3419 13.0921 86.5073 13.6074 86.503 14.3071C86.4967 15.2071 86.0673 15.875 85.2022 16.1846" fill="#441A46"/>
<path d="M87.6395 10.0302L87.5472 9.93799C88.0071 10.1998 88.4309 10.5206 88.8078 10.8921L88.9 10.9844C88.5231 10.6128 88.0994 10.2921 87.6395 10.0302Z" fill="#532056"/>
<path d="M87.0733 9.72074L86.9811 9.62744C87.1931 9.74088 87.3627 9.83205 87.5313 9.92958L87.6235 10.0218C87.455 9.92428 87.2811 9.83311 87.0733 9.72074Z" fill="#511F54"/>
<path d="M87.624 10.0224L87.5312 9.92969L87.5472 9.93822L87.64 10.031L87.624 10.0224Z" fill="#532056"/>
<path d="M79.9825 16.4336L79.8898 16.3408C79.9039 16.3559 79.9205 16.3685 79.9388 16.3781L80.0316 16.472C80.0136 16.4613 79.9972 16.4484 79.9825 16.4336Z" fill="#532056"/>
<path d="M80.0312 16.4688L79.9385 16.375C79.9569 16.3859 79.9766 16.3945 79.9971 16.4006L80.0899 16.4944C80.0697 16.4874 80.0501 16.4788 80.0312 16.4688Z" fill="#511F54"/>
<path d="M80.0896 16.4942L79.9968 16.4004C80.0211 16.4086 80.0461 16.4143 80.0715 16.4174L80.1642 16.5113C80.1389 16.5075 80.114 16.5018 80.0896 16.4942Z" fill="#4E1E51"/>
<path d="M80.1633 16.5108L80.071 16.4175C80.1191 16.4247 80.1677 16.4279 80.2163 16.427H80.2237L80.3159 16.5193H80.3096C80.2607 16.5199 80.2118 16.5171 80.1633 16.5108Z" fill="#4B1D4E"/>
<path d="M80.316 16.519L80.2238 16.4268H80.4528L80.545 16.519H80.316Z" fill="#491C4C"/>
<path d="M80.545 16.517L80.4528 16.4248H80.5715C80.7835 16.4248 80.9956 16.4248 81.2076 16.4248H81.8161H81.9348L82.0271 16.517H81.9094C81.7059 16.517 81.5034 16.517 81.2998 16.517C81.0963 16.517 80.8758 16.517 80.6637 16.517H80.545Z" fill="#4B1D4E"/>
<path d="M82.0281 16.5244L81.9359 16.4321C82.2073 16.4321 82.4787 16.4258 82.7501 16.4141C83.2823 16.3987 83.8133 16.353 84.3403 16.2773L84.4336 16.3696C83.9049 16.446 83.3721 16.4916 82.8381 16.5063C82.5667 16.5191 82.2953 16.5233 82.0239 16.5244" fill="#491C4C"/>
<path d="M84.4378 16.3697L84.3445 16.2775C84.5035 16.252 84.6625 16.2213 84.8141 16.1831L84.9074 16.2764C84.7526 16.3135 84.5957 16.3442 84.4378 16.3697Z" fill="#461B49"/>
<path d="M82.3281 11.2673L82.2358 11.1751C81.8828 10.822 81.7058 10.3269 81.7291 9.75976C81.7588 8.93709 82.1404 8.40489 82.9408 8.11865L83.0341 8.21088C82.2327 8.49819 81.851 9.02932 81.8224 9.852C81.8012 10.4224 81.975 10.9121 82.3281 11.2673Z" fill="#441A46"/>
<path d="M83.0342 8.21107L82.9409 8.11884L82.9801 8.10505C83.3067 7.99268 83.6523 7.93225 83.9883 7.84426C84.0848 7.81881 84.1792 7.78913 84.2704 7.75732L84.3636 7.84956C84.2714 7.88242 84.1771 7.91105 84.0806 7.93649C83.7445 8.02554 83.4 8.08491 83.0724 8.19835L83.0342 8.21107Z" fill="#461B49"/>
<path d="M84.3637 7.84518L84.2704 7.75294C84.7358 7.5865 85.1238 7.31722 85.3464 6.82743C85.5376 6.42117 85.6009 5.9664 85.5278 5.52339C85.4547 5.08038 85.2487 4.67002 84.9372 4.34668L85.0305 4.43891C85.3429 4.76306 85.5493 5.1746 85.6222 5.61886C85.6951 6.06311 85.6311 6.51903 85.4387 6.92603C85.216 7.41582 84.828 7.68509 84.3637 7.85154" fill="#441A46"/>
<path d="M76.6796 19.5172L76.5874 19.4239C76.2524 19.0889 76.0764 18.5948 76.0764 17.963C76.0722 12.7265 76.0722 7.49082 76.0764 2.25579C76.0764 1.3218 76.4581 0.665569 77.1747 0.411133L77.267 0.503366C76.5514 0.760982 76.1708 1.41403 76.1687 2.34909C76.1637 7.58411 76.1637 12.8195 76.1687 18.0552C76.1687 18.6913 76.3446 19.1811 76.6796 19.5172Z" fill="#441A46"/>
<path d="M77.2712 0.502826L77.179 0.410592C77.2935 0.369032 77.4117 0.338156 77.532 0.318359L77.6242 0.410592C77.5042 0.430331 77.386 0.460482 77.2712 0.500705" fill="#461B49"/>
<path d="M77.6242 0.412498L77.532 0.318144C77.6575 0.298399 77.7844 0.288122 77.9115 0.2874C78.7246 0.278919 79.5378 0.268317 80.3499 0.265137L80.4432 0.35843C79.629 0.35843 78.8158 0.372212 78.0048 0.379633C77.8777 0.380355 77.7508 0.390632 77.6253 0.410377" fill="#491C4C"/>
<path d="M80.4442 0.360383L80.351 0.26709H80.7602C81.9783 0.26709 83.1985 0.288293 84.4071 0.373105C84.5566 0.383706 84.7039 0.399609 84.8481 0.420812L84.9414 0.513045C84.7962 0.491842 84.6488 0.475939 84.5004 0.466398C83.2876 0.385827 82.0705 0.360383 80.8535 0.360383H80.4442Z" fill="#4B1D4E"/>
<path d="M84.9414 0.50776L84.8481 0.415527C85.1319 0.458188 85.4117 0.52414 85.6846 0.612715L85.7768 0.704948C85.5042 0.61649 85.2248 0.550539 84.9414 0.50776Z" fill="#4E1E51"/>
<path d="M85.7768 0.705026L85.6846 0.612793C86.0252 0.723443 86.3535 0.869109 86.6641 1.04745L86.7574 1.13969C86.4464 0.96135 86.1178 0.815686 85.7768 0.705026Z" fill="#511F54"/>
<path d="M86.7574 1.1396L86.6641 1.04736C87.0617 1.27644 87.4275 1.55697 87.7518 1.8817L87.8451 1.97393C87.5203 1.6497 87.1547 1.36922 86.7574 1.1396Z" fill="#532056"/>
<path d="M87.64 10.0306C89.5483 11.1374 90.4388 12.8081 90.3052 15.0005C90.1685 17.2343 88.9864 18.7429 86.8937 19.4341C85.8428 19.7754 84.7511 19.9751 83.6475 20.0278C82.9393 20.0617 82.2301 20.0734 81.5198 20.0734C80.3791 20.0734 79.2373 20.0426 78.0966 20.0267C76.8509 20.0097 76.1703 19.3026 76.1692 18.0548C76.165 12.8184 76.165 7.58302 76.1692 2.34871C76.1692 1.13377 76.8138 0.393788 78.0001 0.382126C78.9542 0.372585 79.8999 0.359863 80.8498 0.359863C82.0668 0.359863 83.2881 0.381066 84.4967 0.465878C87.8775 0.68851 90.1346 4.02692 89.1317 7.15331C88.8295 8.09366 88.2379 8.8135 87.4746 9.41249L87.0697 9.73053C87.2881 9.83655 87.463 9.9309 87.64 10.0306ZM84.908 16.277C85.9682 16.0204 86.4982 15.308 86.5035 14.3114C86.511 13.1453 86.054 12.5018 84.96 12.1498C84.7066 12.0682 84.4405 12.0215 84.1797 11.9611C83.78 11.8699 83.3623 11.8275 82.9828 11.6833C82.1962 11.3822 81.7922 10.7059 81.823 9.85245C81.8527 9.01705 82.247 8.48168 83.0729 8.19862C83.4005 8.08518 83.745 8.02581 84.0811 7.93676C84.6695 7.78092 85.1731 7.5127 85.4392 6.92431C86.0572 5.56414 85.2536 3.9877 83.779 3.8626C83.2945 3.82125 82.8068 3.80853 82.316 3.80853C81.5378 3.80853 80.7501 3.84034 79.9486 3.84034C79.9289 3.93305 79.9147 4.02687 79.9062 4.12128C79.9062 8.1237 79.9023 12.1268 79.8946 16.1307C79.8946 16.4561 80.0398 16.5197 80.3101 16.5197H80.6642C80.8763 16.5197 81.0883 16.5197 81.3003 16.5197C81.5124 16.5197 81.7064 16.5197 81.9099 16.5197C82.2205 16.5197 82.5312 16.5197 82.8418 16.5017C83.5341 16.471 84.2391 16.4328 84.907 16.2717" fill="#712B75"/>
<path d="M132.324 0.654245L132.23 0.562012H132.319C132.39 0.565008 132.461 0.571731 132.531 0.582155L132.624 0.674388C132.554 0.664846 132.482 0.657425 132.412 0.654245H132.324Z" fill="#4B1D4E"/>
<path d="M132.625 0.676706L132.533 0.584473C132.634 0.599782 132.734 0.62318 132.832 0.654443L132.925 0.747736C132.827 0.715738 132.727 0.691978 132.625 0.676706Z" fill="#4E1E51"/>
<path d="M132.927 0.74759L132.834 0.654297C132.95 0.691575 133.063 0.741337 133.169 0.802718L133.262 0.894951C133.155 0.834726 133.043 0.785358 132.927 0.74759Z" fill="#511F54"/>
<path d="M133.261 0.894967L133.167 0.802734C133.297 0.877216 133.416 0.968472 133.522 1.07413L133.614 1.16637C133.508 1.06106 133.39 0.96984 133.261 0.894967Z" fill="#532056"/>
<path d="M124.798 15.4785L124.706 15.3862C124.848 15.5282 125.009 15.6508 125.184 15.7509L125.276 15.8432C125.101 15.7434 124.94 15.6207 124.798 15.4785Z" fill="#532056"/>
<path d="M125.276 15.8417L125.184 15.7495C125.342 15.8397 125.509 15.9129 125.683 15.9679L125.775 16.0612C125.602 16.0054 125.434 15.9318 125.276 15.8417Z" fill="#511F54"/>
<path d="M125.775 16.0616L125.683 15.9683C125.856 16.024 126.033 16.0648 126.213 16.0902L126.305 16.1824C126.126 16.1567 125.948 16.1163 125.775 16.0616Z" fill="#4E1E51"/>
<path d="M126.301 16.1821L126.209 16.0898C126.324 16.1068 126.444 16.1195 126.568 16.1269C126.717 16.1365 126.866 16.1407 127.016 16.1407H127.041L127.134 16.233H127.112C126.963 16.233 126.813 16.233 126.665 16.2192C126.541 16.2118 126.421 16.2001 126.305 16.1821" fill="#4B1D4E"/>
<path d="M127.134 16.2331L127.041 16.1409C127.232 16.1409 127.421 16.1324 127.61 16.1155C127.707 16.108 127.8 16.0964 127.892 16.0815L127.984 16.1738C127.893 16.1886 127.799 16.2003 127.703 16.2088C127.514 16.2247 127.324 16.2331 127.134 16.2331Z" fill="#491C4C"/>
<path d="M127.984 16.1737L127.892 16.0815C128.082 16.0517 128.268 16.0042 128.449 15.9395L128.542 16.0327C128.361 16.0966 128.174 16.1438 127.984 16.1737Z" fill="#461B49"/>
<path d="M128.542 16.033L128.449 15.9397C128.804 15.8203 129.124 15.614 129.38 15.3397C129.636 15.0653 129.819 14.7315 129.913 14.3685C130.165 13.5068 130.303 12.6158 130.324 11.7182C130.376 8.83879 130.344 5.95836 130.352 3.07793C130.346 2.7462 130.371 2.41464 130.428 2.08775C130.565 1.38911 131.002 0.882357 131.594 0.671387L131.687 0.76468C131.098 0.97671 130.661 1.48134 130.52 2.17998C130.464 2.50688 130.438 2.83843 130.444 3.17016C130.437 6.05059 130.47 8.93208 130.416 11.8104C130.396 12.708 130.258 13.5991 130.005 14.4608C129.911 14.8237 129.728 15.1574 129.473 15.4319C129.217 15.7064 128.897 15.913 128.542 16.033Z" fill="#441A46"/>
<path d="M131.682 0.763387L131.59 0.670094C131.695 0.632612 131.804 0.604931 131.915 0.587402L132.007 0.679635C131.896 0.69752 131.788 0.725556 131.682 0.763387Z" fill="#461B49"/>
<path d="M132.007 0.679691L131.914 0.587458C132.016 0.570348 132.12 0.561837 132.223 0.562014L132.315 0.654248C132.212 0.655128 132.109 0.663633 132.007 0.679691Z" fill="#491C4C"/>
<path d="M132.316 0.654763L132.223 0.562012H132.23L132.324 0.654763H132.316Z" fill="#4B1D4E"/>
<path d="M122.076 18.1101L121.983 18.0179C121.029 17.0638 120.449 15.7778 120.162 14.2374C120.028 13.4427 119.957 12.6388 119.95 11.833C119.916 10.4739 119.941 9.11263 119.941 7.75139C119.941 6.10498 119.929 4.46493 119.953 2.81427C119.955 2.40521 120.029 1.99965 120.171 1.6163C120.253 1.39789 120.383 1.20023 120.55 1.03735C120.717 0.874475 120.918 0.750364 121.138 0.673828L121.23 0.766061C121.01 0.84273 120.81 0.9669 120.643 1.12977C120.476 1.29265 120.347 1.49023 120.265 1.70853C120.122 2.09199 120.048 2.49743 120.045 2.9065C120.021 4.55186 120.034 6.19827 120.035 7.84363C120.035 9.20486 120.009 10.5661 120.043 11.9252C120.05 12.731 120.121 13.5351 120.255 14.3296C120.542 15.8711 121.124 17.157 122.077 18.1101" fill="#441A46"/>
<path d="M121.226 0.765424L121.134 0.673191C121.24 0.634881 121.351 0.60649 121.462 0.588379L121.555 0.681672C121.443 0.699555 121.333 0.727588 121.226 0.765424Z" fill="#461B49"/>
<path d="M121.555 0.681725L121.463 0.588432C121.568 0.571607 121.674 0.5631 121.781 0.562988L121.873 0.655221C121.764 0.655402 121.656 0.664265 121.549 0.681725" fill="#491C4C"/>
<path d="M121.878 0.655221L121.786 0.562988H121.868C121.948 0.565175 122.027 0.572257 122.106 0.584191L122.198 0.676424C122.119 0.665015 122.04 0.657936 121.961 0.655221H121.878Z" fill="#4B1D4E"/>
<path d="M122.198 0.677682L122.106 0.585449C122.21 0.601076 122.313 0.625186 122.413 0.657539L122.506 0.749773C122.405 0.717419 122.302 0.693309 122.198 0.677682Z" fill="#4E1E51"/>
<path d="M122.506 0.74946L122.413 0.657227C122.532 0.694957 122.646 0.745433 122.754 0.807768L122.846 0.900001C122.738 0.838096 122.624 0.787642 122.506 0.74946Z" fill="#511F54"/>
<path d="M122.846 0.900339L122.754 0.808105C122.879 0.879741 122.995 0.967803 123.097 1.06996L123.19 1.16326C123.088 1.06067 122.972 0.972245 122.846 0.900339Z" fill="#532056"/>
<path d="M132.324 0.654785H132.412C133.354 0.695071 134.042 1.3566 134.156 2.34148C134.185 2.56124 134.2 2.7825 134.202 3.00408C134.189 6.26298 134.222 9.524 134.13 12.7808C134.082 13.8542 133.867 14.9136 133.494 15.9209C132.645 18.2734 130.843 19.5032 128.405 19.8435C127.963 19.9054 127.517 19.937 127.071 19.9379C126.409 19.9391 125.748 19.8645 125.103 19.7152C122.24 19.0484 120.769 17.0998 120.252 14.3297C120.118 13.5351 120.047 12.7311 120.04 11.9252C120.006 10.5661 120.031 9.2049 120.032 7.84367C120.032 6.19831 120.018 4.5519 120.042 2.90654C120.045 2.49747 120.119 2.09203 120.262 1.70857C120.528 1.02478 121.153 0.655845 121.888 0.655845H121.962C122.718 0.681289 123.363 1.10747 123.59 1.82201C123.715 2.22798 123.778 2.65034 123.778 3.07511C123.793 5.90783 123.764 8.73949 123.799 11.5722C123.805 12.4397 123.906 13.304 124.101 14.1494C124.419 15.4683 125.31 16.134 126.661 16.2157C126.809 16.2252 126.959 16.2295 127.108 16.2295C127.307 16.2295 127.506 16.222 127.704 16.2051C128.835 16.1075 129.689 15.5541 130.006 14.4569C130.258 13.5952 130.396 12.7042 130.417 11.8065C130.47 8.9282 130.437 6.04671 130.445 3.16628C130.439 2.83455 130.464 2.503 130.521 2.1761C130.703 1.24529 131.422 0.654785 132.324 0.654785Z" fill="#712B75"/>
<path d="M142.813 17.8731L142.721 17.7809C142.579 17.6395 142.446 17.495 142.322 17.3473C141.869 16.8172 141.559 16.2288 141.602 15.4963C141.621 15.1499 141.742 14.8168 141.949 14.5388C142.157 14.2608 142.442 14.0502 142.768 13.9336L142.861 14.0258C142.534 14.1427 142.249 14.3534 142.041 14.6316C141.834 14.9098 141.713 15.243 141.694 15.5895C141.651 16.3211 141.963 16.9052 142.414 17.4395C142.541 17.5901 142.675 17.7342 142.813 17.8731Z" fill="#441A46"/>
<path d="M142.859 14.0258L142.767 13.9336C142.867 13.8977 142.971 13.8707 143.076 13.853L143.168 13.9463C143.063 13.9633 142.96 13.9899 142.859 14.0258Z" fill="#461B49"/>
<path d="M143.168 13.946L143.076 13.8527C143.163 13.8388 143.251 13.8317 143.34 13.8315L143.433 13.9238C143.344 13.9237 143.256 13.9312 143.168 13.946Z" fill="#491C4C"/>
<path d="M143.438 13.9238L143.345 13.8316H143.351C143.434 13.8312 143.517 13.8372 143.598 13.8496L143.692 13.9418C143.61 13.9301 143.527 13.924 143.445 13.9238H143.438Z" fill="#4B1D4E"/>
<path d="M143.686 13.9418L143.593 13.8496C143.683 13.8633 143.772 13.8842 143.859 13.9122L143.953 14.0044C143.865 13.977 143.777 13.9561 143.686 13.9418Z" fill="#4E1E51"/>
<path d="M143.953 14.0043L143.859 13.9121C143.974 13.9495 144.084 13.9986 144.189 14.0584L144.281 14.1506C144.177 14.0906 144.067 14.0416 143.953 14.0043Z" fill="#511F54"/>
<path d="M144.286 14.1508L144.194 14.0586C144.225 14.0766 144.257 14.0957 144.288 14.1158C144.652 14.3554 144.956 14.6926 145.272 15C145.632 15.3562 146.035 15.666 146.471 15.9223L146.564 16.0156C146.127 15.7591 145.725 15.4489 145.366 15.0922C145.048 14.7848 144.744 14.4477 144.38 14.2091C144.349 14.1879 144.318 14.1688 144.286 14.1508Z" fill="#532056"/>
<path d="M146.558 16.0157L146.466 15.9224C146.73 16.0753 147.01 16.2004 147.3 16.2955L147.393 16.3878C147.102 16.293 146.823 16.1683 146.558 16.0157Z" fill="#511F54"/>
<path d="M147.393 16.3876L147.301 16.2954C147.508 16.3626 147.721 16.4126 147.937 16.4449L148.029 16.5371C147.813 16.5047 147.6 16.4548 147.393 16.3876Z" fill="#4E1E51"/>
<path d="M148.027 16.5385L147.934 16.4463C148.132 16.4753 148.332 16.4899 148.532 16.4898H148.547L148.64 16.583H148.625C148.424 16.5828 148.225 16.5679 148.027 16.5385Z" fill="#4B1D4E"/>
<path d="M148.641 16.5818L148.547 16.4885C148.78 16.4881 149.012 16.4686 149.242 16.4302L149.334 16.5235C149.105 16.5608 148.873 16.5803 148.641 16.5818Z" fill="#491C4C"/>
<path d="M149.334 16.5233L149.242 16.43C149.292 16.4216 149.348 16.4131 149.396 16.4025C149.571 16.3695 149.744 16.3234 149.912 16.2646L150.004 16.3569C149.836 16.416 149.664 16.4624 149.489 16.4958L149.334 16.5233Z" fill="#461B49"/>
<path d="M150.004 16.357L149.912 16.2648C150.451 16.0718 150.878 15.7347 151.058 15.105C151.27 14.3629 151.164 13.6399 150.634 13.1108L150.727 13.2031C151.257 13.7331 151.363 14.4498 151.151 15.1972C150.973 15.8227 150.545 16.1641 150.005 16.357" fill="#441A46"/>
<path d="M146.464 6.70844L146.371 6.61621C146.444 6.68896 146.525 6.75299 146.613 6.80704C146.757 6.89821 146.903 6.98514 147.05 7.06996L147.144 7.16219C146.995 7.07738 146.85 6.99044 146.706 6.90033C146.618 6.84557 146.537 6.78121 146.464 6.70844Z" fill="#532056"/>
<path d="M147.149 7.16206L147.056 7.06982C147.667 7.42073 148.315 7.73878 148.945 8.05682C149.899 8.54237 150.898 8.95053 151.822 9.48167L151.914 9.5739C150.99 9.04382 149.991 8.63461 149.038 8.15012C148.402 7.83207 147.759 7.51403 147.144 7.16206" fill="#511F54"/>
<path d="M151.92 9.57417L151.827 9.48193C151.913 9.5307 151.997 9.58053 152.081 9.63141C152.504 9.88457 152.896 10.1874 153.247 10.5336L153.339 10.6258C152.99 10.28 152.6 9.97716 152.179 9.72365C152.096 9.67276 152.011 9.62293 151.925 9.57417" fill="#532056"/>
<path d="M148.409 0.374059L148.317 0.280766C148.694 0.280373 149.07 0.308013 149.443 0.363458L149.535 0.455691C149.163 0.400562 148.786 0.373276 148.409 0.374059Z" fill="#4B1D4E"/>
<path d="M149.535 0.455514L149.443 0.363281C149.818 0.418829 150.189 0.50535 150.55 0.621958L150.642 0.715251C150.281 0.598794 149.911 0.511928 149.535 0.455514Z" fill="#4E1E51"/>
<path d="M150.647 0.715364L150.555 0.62207C151.01 0.769429 151.448 0.96378 151.862 1.20197L151.954 1.29527C151.54 1.05646 151.102 0.862079 150.647 0.715364Z" fill="#511F54"/>
<path d="M151.949 1.29544L151.857 1.20215C152.459 1.55103 153.012 1.97888 153.501 2.47433L153.593 2.56656C153.105 2.07075 152.552 1.64286 151.949 1.29438" fill="#532056"/>
<path d="M143.667 9.14477L143.575 9.05254C142.457 7.93302 142.047 6.49333 142.303 4.78967C142.597 2.87292 143.805 1.3622 145.632 0.707031L145.724 0.800324C143.897 1.4555 142.689 2.96515 142.395 4.88296C142.134 6.58557 142.544 8.02631 143.667 9.14477Z" fill="#441A46"/>
<path d="M145.729 0.800151L145.637 0.706858C145.882 0.619738 146.132 0.548907 146.387 0.494828C146.556 0.458782 146.725 0.426978 146.893 0.399414L146.986 0.491647C146.818 0.519211 146.648 0.551016 146.479 0.587061C146.225 0.641283 145.974 0.712111 145.729 0.799091" fill="#461B49"/>
<path d="M146.986 0.491732L146.893 0.399499C147.354 0.323896 147.82 0.284197 148.288 0.280762L148.38 0.374055C147.913 0.37666 147.447 0.416007 146.986 0.491732Z" fill="#491C4C"/>
<path d="M148.38 0.374579L148.287 0.280762H148.317L148.41 0.374579H148.38Z" fill="#4B1D4E"/>
<path d="M148.41 0.374512C150.34 0.374512 152.096 1.06467 153.594 2.57114C153.99 2.9687 154.281 3.52528 154.476 4.05535C154.721 4.72219 154.559 5.37842 153.976 5.85761C153.667 6.09599 153.286 6.22233 152.895 6.21594C152.566 6.22032 152.243 6.12938 151.965 5.95408C151.55 5.66506 151.164 5.33819 150.81 4.97768C150.487 4.65676 150.103 4.40395 149.68 4.23423C149.257 4.06451 148.805 3.98133 148.35 3.98962C148.008 3.99118 147.668 4.02669 147.334 4.09564C146.688 4.2271 146.274 4.65752 146.138 5.30633C146.002 5.95514 146.138 6.55095 146.706 6.90398C147.448 7.3715 148.251 7.7521 149.039 8.1539C150.08 8.68397 151.175 9.12181 152.169 9.72716C153.987 10.8382 154.937 12.4973 154.946 15.0936C154.903 16.9754 153.849 18.6462 151.725 19.5876C150.751 20.0128 149.698 20.2295 148.635 20.2237C146.29 20.2237 143.923 19.225 142.415 17.444C141.963 16.9139 141.651 16.3255 141.695 15.594C141.718 15.1459 141.912 14.7235 142.236 14.4132C142.56 14.1029 142.99 13.928 143.439 13.9243C143.772 13.9251 144.097 14.0243 144.374 14.2095C144.739 14.448 145.043 14.7851 145.36 15.0926C146.306 16.0128 147.368 16.5768 148.624 16.5768C148.914 16.5757 149.203 16.5469 149.488 16.4909C150.262 16.3393 150.917 16.0064 151.149 15.1922C151.382 14.378 151.225 13.5776 150.543 13.0391C149.941 12.5812 149.295 12.1848 148.615 11.8559C147.416 11.2527 146.141 10.7894 144.979 10.1247C142.883 8.92674 142.054 7.13297 142.4 4.87803C142.732 2.70896 144.234 1.06149 146.478 0.582301C147.113 0.445295 147.761 0.375646 148.41 0.374512Z" fill="#712B75"/>
<path d="M106.102 12.9614L106.01 12.8691C106.105 12.8707 106.2 12.8785 106.294 12.8925L106.386 12.9847C106.292 12.9707 106.197 12.963 106.102 12.9614Z" fill="#4B1D4E"/>
<path d="M106.386 12.9848L106.294 12.8926C106.386 12.9057 106.477 12.9266 106.566 12.9551L106.659 13.0474C106.57 13.0187 106.479 12.9978 106.386 12.9848Z" fill="#4E1E51"/>
<path d="M106.659 13.0473L106.566 12.9551C106.659 12.9847 106.749 13.0242 106.833 13.0728L106.926 13.165C106.841 13.1164 106.751 13.077 106.659 13.0473Z" fill="#511F54"/>
<path d="M106.926 13.165L106.833 13.0728C106.931 13.1289 107.021 13.1977 107.101 13.2774L107.193 13.3696C107.113 13.2899 107.023 13.2211 106.926 13.165Z" fill="#532056"/>
<path d="M105.697 18.2531L105.605 18.1608C104.76 17.323 104.235 16.2163 104.121 15.0323C104.015 14.0591 104.499 13.2746 105.299 12.9873L105.392 13.0795C104.591 13.3668 104.106 14.1514 104.213 15.1246C104.328 16.3086 104.853 17.4152 105.697 18.2531Z" fill="#441A46"/>
<path d="M105.399 13.0788L105.307 12.9866C105.421 12.9458 105.539 12.9156 105.659 12.8965L105.751 12.9887C105.631 13.0083 105.514 13.0385 105.399 13.0788Z" fill="#461B49"/>
<path d="M105.751 12.9889L105.659 12.8967C105.772 12.8783 105.887 12.8691 106.001 12.8691L106.093 12.9614C105.979 12.9613 105.864 12.9705 105.751 12.9889Z" fill="#491C4C"/>
<path d="M106.094 12.9619L106.001 12.8691H106.01L106.103 12.9619H106.094Z" fill="#4B1D4E"/>
<path d="M114.567 0.653759L114.474 0.561526C114.575 0.561363 114.677 0.568805 114.777 0.583789L114.869 0.676022C114.769 0.661075 114.668 0.653633 114.567 0.653759Z" fill="#4B1D4E"/>
<path d="M114.869 0.676217L114.777 0.583984C114.878 0.598671 114.978 0.621719 115.076 0.652894L115.168 0.746187C115.071 0.714162 114.971 0.690749 114.869 0.676217Z" fill="#4E1E51"/>
<path d="M115.168 0.741731L115.076 0.648438C115.19 0.685864 115.301 0.734887 115.405 0.794738L115.497 0.886971C115.393 0.827059 115.283 0.778372 115.168 0.741731Z" fill="#511F54"/>
<path d="M115.497 0.891061L115.405 0.798828C115.53 0.869718 115.646 0.957466 115.747 1.05963L115.841 1.15186C115.738 1.04986 115.623 0.961814 115.497 0.890001" fill="#532056"/>
<path d="M108.475 15.6953L108.381 15.603C108.505 15.727 108.645 15.834 108.797 15.9211L108.889 16.0133C108.737 15.9262 108.598 15.8193 108.475 15.6953Z" fill="#532056"/>
<path d="M108.889 16.0141L108.797 15.9219C108.923 15.9944 109.057 16.0533 109.195 16.0979L109.288 16.1901C109.149 16.146 109.015 16.087 108.889 16.0141Z" fill="#511F54"/>
<path d="M109.288 16.1904L109.195 16.0981C109.326 16.1395 109.459 16.1704 109.594 16.1904L109.686 16.2826C109.551 16.2625 109.418 16.2316 109.288 16.1904Z" fill="#4E1E51"/>
<path d="M109.686 16.2827L109.594 16.1904C109.755 16.214 109.917 16.2253 110.08 16.2244H110.093L110.187 16.3166H110.172C110.009 16.3175 109.847 16.3062 109.686 16.2827Z" fill="#4B1D4E"/>
<path d="M110.187 16.3164L110.094 16.2241C110.235 16.224 110.377 16.2165 110.518 16.2019C110.576 16.1966 110.632 16.1891 110.688 16.1807L110.78 16.2729C110.724 16.2814 110.668 16.2888 110.61 16.2952C110.465 16.3089 110.325 16.3164 110.186 16.3164" fill="#491C4C"/>
<path d="M110.776 16.273L110.684 16.1807C110.825 16.1577 110.964 16.1222 111.098 16.0747L111.191 16.1669C111.056 16.2151 110.917 16.2506 110.776 16.273Z" fill="#461B49"/>
<path d="M111.191 16.167L111.098 16.0748C111.782 15.8299 112.244 15.267 112.421 14.3838C112.536 13.7465 112.59 13.0998 112.584 12.4523C112.6 9.33541 112.584 6.21857 112.597 3.10173C112.59 2.70724 112.628 2.31321 112.709 1.92708C112.856 1.29735 113.239 0.866929 113.775 0.678223L113.868 0.770456C113.329 0.963403 112.948 1.38958 112.801 2.01931C112.722 2.40607 112.687 2.8004 112.695 3.19502C112.685 6.31186 112.695 9.42764 112.68 12.5445C112.687 13.192 112.633 13.8388 112.518 14.4761C112.342 15.3602 111.882 15.9221 111.195 16.167" fill="#441A46"/>
<path d="M113.868 0.770558L113.775 0.678325C113.888 0.638203 114.003 0.608742 114.121 0.590332L114.213 0.682565C114.096 0.700976 113.98 0.730437 113.868 0.770558Z" fill="#461B49"/>
<path d="M114.213 0.682451L114.121 0.590218C114.188 0.578546 114.256 0.570759 114.324 0.566895C114.372 0.566895 114.42 0.566895 114.466 0.566895L114.559 0.659128C114.512 0.659128 114.464 0.659128 114.417 0.659128C114.348 0.659128 114.28 0.671849 114.213 0.682451Z" fill="#491C4C"/>
<path d="M114.559 0.654275L114.467 0.561523H114.474L114.568 0.654275H114.559Z" fill="#4B1D4E"/>
<path d="M114.567 0.653809C115.335 0.653809 115.985 1.06727 116.246 1.80513C116.374 2.19473 116.438 2.60249 116.436 3.01264C116.456 4.83186 116.444 6.65108 116.444 8.4703C116.405 10.2418 116.433 12.0144 116.39 13.7848C116.364 14.4644 116.262 15.139 116.087 15.7959C115.524 17.9756 114.142 19.3432 111.912 19.7694C111.285 19.8943 110.648 19.9599 110.009 19.9655C108.557 19.9655 107.186 19.5701 105.971 18.5025C104.976 17.6433 104.351 16.4341 104.225 15.1259C104.089 13.893 104.906 12.9632 106.106 12.9632C106.788 12.977 107.246 13.2579 107.509 13.8325C107.665 14.1781 107.788 14.5386 107.941 14.8853C108.373 15.8595 109.087 16.3186 110.176 16.3186C110.315 16.3186 110.459 16.3112 110.61 16.2974C111.615 16.1988 112.295 15.5945 112.518 14.4782C112.633 13.8409 112.688 13.1941 112.68 12.5466C112.696 9.42973 112.686 6.31395 112.695 3.19711C112.687 2.80249 112.722 2.40816 112.801 2.0214C112.994 1.19555 113.591 0.718478 114.417 0.66123C114.468 0.655929 114.518 0.653809 114.567 0.653809Z" fill="#712B75"/>
<path d="M104.325 0.646516L104.232 0.553223C104.321 0.553642 104.41 0.560373 104.498 0.573366L104.591 0.666659C104.503 0.653219 104.414 0.646486 104.325 0.646516Z" fill="#4B1D4E"/>
<path d="M104.591 0.666535L104.498 0.573242C104.606 0.589257 104.712 0.614438 104.816 0.648513L104.908 0.740746C104.805 0.706966 104.698 0.682138 104.59 0.666535" fill="#4E1E51"/>
<path d="M104.906 0.742135L104.814 0.649902C104.923 0.685365 105.029 0.728953 105.132 0.780301C105.169 0.799384 105.205 0.818466 105.238 0.838609L105.33 0.930842C105.295 0.910699 105.259 0.891617 105.224 0.872534C105.122 0.821005 105.015 0.777411 104.906 0.742135Z" fill="#511F54"/>
<path d="M105.333 0.929635L105.241 0.837402C105.381 0.917049 105.51 1.01471 105.624 1.12788L105.716 1.22012C105.602 1.10694 105.473 1.00928 105.333 0.929635Z" fill="#532056"/>
<path d="M98.6035 8.45293L98.5103 8.3607C98.823 7.84652 99.1018 7.39384 99.3764 6.93692C100.387 5.25481 101.398 3.5727 102.411 1.8906C102.517 1.71355 102.623 1.53969 102.747 1.37325C102.975 1.04518 103.296 0.793849 103.67 0.652344L103.762 0.744577C103.389 0.88615 103.067 1.13749 102.84 1.46548C102.718 1.63192 102.609 1.80579 102.503 1.98283C101.491 3.66282 100.481 5.34492 99.4729 7.02915C99.1983 7.48607 98.9195 7.93982 98.6078 8.45293" fill="#441A46"/>
<path d="M103.758 0.741806L103.666 0.649573C103.761 0.614861 103.86 0.589303 103.96 0.573242L104.054 0.665475C103.953 0.6814 103.854 0.706961 103.758 0.741806Z" fill="#461B49"/>
<path d="M104.054 0.667719L103.961 0.575486C104.048 0.561191 104.137 0.553747 104.226 0.553223L104.319 0.646516C104.23 0.646598 104.142 0.653688 104.054 0.667719Z" fill="#491C4C"/>
<path d="M104.319 0.64704L104.226 0.553223H104.232L104.326 0.64704H104.319Z" fill="#4B1D4E"/>
<path d="M97.3345 19.5176L97.2422 19.4254C97.0348 19.2168 96.8791 18.9627 96.7874 18.6833C96.6808 18.3361 96.6275 17.9747 96.6295 17.6114C96.6136 15.9502 96.6295 14.2879 96.6125 12.6287C96.6066 12.3333 96.5244 12.0445 96.374 11.7902C94.7647 9.17053 93.1267 6.57316 91.5206 3.95883C91.2533 3.5319 91.0594 3.06318 90.9471 2.57215C90.7806 1.7834 91.1941 1.09854 91.9235 0.755055C91.9892 0.724311 92.056 0.696747 92.1217 0.672363L92.215 0.764596C92.1482 0.78898 92.0814 0.816544 92.0157 0.847288C91.2863 1.19078 90.8728 1.87563 91.0393 2.66439C91.1518 3.15553 91.3461 3.62427 91.6139 4.05106C93.219 6.66645 94.8579 9.26276 96.4662 11.876C96.6168 12.1299 96.699 12.4185 96.7047 12.7136C96.727 14.3748 96.7047 16.0382 96.7217 17.6963C96.7202 18.0594 96.7734 18.4208 96.8797 18.7681C96.9717 19.0473 97.1274 19.3014 97.3345 19.5102" fill="#441A46"/>
<path d="M92.2149 0.76414L92.127 0.671907C92.2444 0.630062 92.3654 0.598839 92.4885 0.578613L92.5807 0.670846C92.4581 0.691452 92.3375 0.722667 92.2202 0.76414" fill="#461B49"/>
<path d="M92.5755 0.670816L92.4833 0.578583C92.5807 0.562612 92.6793 0.554458 92.778 0.554199L92.8702 0.646432C92.7715 0.646736 92.6729 0.65489 92.5755 0.670816Z" fill="#491C4C"/>
<path d="M92.8691 0.646433L92.7769 0.5542H92.7832C92.8716 0.554147 92.9598 0.560524 93.0472 0.573282L93.1394 0.665515C93.052 0.652757 92.9638 0.64638 92.8754 0.646433H92.8691Z" fill="#4B1D4E"/>
<path d="M93.1406 0.665475L93.0483 0.573242C93.1401 0.586906 93.2305 0.608183 93.3187 0.636851L93.412 0.729084C93.3234 0.700531 93.2326 0.679257 93.1406 0.665475Z" fill="#4E1E51"/>
<path d="M93.4119 0.729035L93.3186 0.635742C93.4291 0.671571 93.5356 0.718455 93.6366 0.775682L93.7289 0.868975C93.628 0.811104 93.5214 0.763852 93.4108 0.727975" fill="#511F54"/>
<path d="M93.7279 0.870149L93.6356 0.776855C93.7644 0.851338 93.8828 0.942602 93.9876 1.04825L94.0798 1.14049C93.9753 1.03484 93.8569 0.943898 93.7279 0.870149Z" fill="#532056"/>
<path d="M104.326 0.646973C104.639 0.651188 104.947 0.728126 105.226 0.871725C106.039 1.27776 106.376 2.09196 106.082 3.04397C105.972 3.37303 105.821 3.68684 105.632 3.97797C104.014 6.58806 102.378 9.18648 100.776 11.804C100.582 12.1393 100.477 12.5183 100.469 12.9055C100.435 14.4713 100.458 16.0393 100.45 17.6062C100.459 17.9377 100.43 18.2692 100.365 18.5943C100.16 19.4699 99.5115 19.9926 98.6443 20.0265H98.5711C98.1918 20.0256 97.8228 19.9029 97.5184 19.6766C97.214 19.4503 96.9903 19.1322 96.8802 18.7692C96.774 18.4219 96.7207 18.0606 96.7222 17.6974C96.7063 16.0372 96.7222 14.3738 96.7053 12.7147C96.6995 12.4196 96.6173 12.131 96.4667 11.8771C94.8585 9.26388 93.2195 6.66757 91.6144 4.05218C91.3466 3.62539 91.1523 3.15664 91.0398 2.6655C90.8734 1.87569 91.2868 1.19083 92.0215 0.848401C92.2902 0.719136 92.5842 0.650722 92.8823 0.648033C93.1226 0.645979 93.3606 0.695554 93.5801 0.793406C93.7995 0.891257 93.9954 1.0351 94.1545 1.21521C94.3495 1.44267 94.5227 1.68793 94.6719 1.94778C95.8903 3.96489 97.1053 5.98483 98.3167 8.0076C98.3951 8.13694 98.4821 8.26203 98.605 8.45286C98.9167 7.93975 99.1955 7.486 99.4701 7.02908C100.482 5.34768 101.491 3.66557 102.5 1.98276C102.606 1.80572 102.712 1.63185 102.837 1.46541C103.229 0.926852 103.756 0.646973 104.326 0.646973Z" fill="#712B75"/>
<path d="M138.742 0.610814L138.65 0.518581C138.773 0.518008 138.897 0.526868 139.02 0.545085L139.112 0.637318C138.989 0.6196 138.866 0.610743 138.742 0.610814Z" fill="#4B1D4E"/>
<path d="M139.112 0.636178L139.02 0.543945C139.125 0.559098 139.229 0.583215 139.33 0.616036L139.424 0.708269C139.322 0.676065 139.218 0.65196 139.112 0.636178Z" fill="#4E1E51"/>
<path d="M139.424 0.709421L139.33 0.617188C139.438 0.651723 139.542 0.697565 139.64 0.753947L139.733 0.84618C139.635 0.790181 139.531 0.744357 139.424 0.709421Z" fill="#511F54"/>
<path d="M139.733 0.848092L139.64 0.755859C139.75 0.81858 139.85 0.895583 139.94 0.984852L140.033 1.07815C139.944 0.988707 139.843 0.911367 139.733 0.848092Z" fill="#532056"/>
<path d="M137.396 7.10371L137.302 7.01147C137.145 6.84722 137.024 6.65137 136.947 6.43687C136.831 6.12837 136.706 5.80078 136.696 5.48274C136.662 4.44061 136.627 3.39424 136.696 2.35635C136.751 1.47113 137.185 0.882744 137.856 0.64209L137.949 0.735383C137.277 0.974977 136.844 1.56336 136.789 2.44859C136.723 3.48647 136.758 4.53284 136.789 5.57497C136.8 5.89301 136.925 6.22378 137.04 6.52911C137.116 6.74386 137.237 6.93982 137.396 7.10371Z" fill="#441A46"/>
<path d="M137.947 0.735736L137.854 0.642442C137.971 0.601136 138.091 0.570618 138.214 0.55127L138.306 0.643503C138.184 0.662695 138.063 0.69358 137.947 0.735736Z" fill="#461B49"/>
<path d="M138.306 0.643652L138.214 0.551419C138.276 0.540681 138.339 0.53325 138.402 0.529156C138.483 0.522795 138.562 0.518555 138.639 0.518555L138.731 0.610788C138.655 0.610788 138.576 0.610788 138.494 0.621389C138.43 0.627043 138.368 0.634464 138.306 0.643652Z" fill="#491C4C"/>
<path d="M138.732 0.611306L138.639 0.518555H138.65L138.742 0.611306H138.732Z" fill="#4B1D4E"/>
<path d="M138.742 0.611328C139.941 0.611328 140.611 1.35979 140.599 2.88429C140.464 4.05046 140.175 5.39155 139.576 6.64782C139.331 7.16518 138.897 7.46732 138.324 7.46732C138.296 7.46732 138.269 7.46732 138.24 7.46732C137.639 7.4387 137.248 7.08037 137.042 6.53439C136.926 6.22694 136.801 5.8983 136.791 5.58025C136.757 4.53813 136.722 3.49176 136.791 2.45387C136.86 1.34707 137.52 0.704621 138.498 0.62617C138.579 0.615569 138.662 0.611328 138.742 0.611328Z" fill="#712B75"/>
</svg>
