<svg id="Layer_1" data-name="Layer 1" xmlns="http://www.w3.org/2000/svg" xmlns:xlink="http://www.w3.org/1999/xlink" viewBox="0 0 255 118"><defs><style>.cls-1,.cls-2,.cls-5,.cls-6,.cls-7{fill-rule:evenodd;}.cls-1{fill:url(#radial-gradient);}.cls-2{fill:#eceffb;}.cls-3{opacity:0.5;}.cls-4,.cls-6,.cls-7{opacity:0.4;}.cls-5{fill:url(#linear-gradient);}.cls-6,.cls-7{isolation:isolate;}.cls-6{fill:url(#linear-gradient-2);}.cls-7{fill:url(#linear-gradient-3);}.cls-8,.cls-9{fill:#ef5b81;}.cls-8{stroke:#ef5b81;stroke-miterlimit:10;stroke-width:0.36px;}.cls-10{fill:#813589;}.cls-11{fill:#fcfbfc;}.cls-12{fill:#803588;}.cls-13{fill:#4c215c;}.cls-14{fill:#461b49;}.cls-15{fill:#441a46;}.cls-16{fill:#532056;}.cls-17{fill:#511f54;}.cls-18{fill:#4e1e51;}.cls-19{fill:#4b1d4e;}.cls-20{fill:#491c4c;}.cls-21{fill:#712b75;}</style><radialGradient id="radial-gradient" cx="-432.96" cy="1272.56" r="1" gradientTransform="matrix(213.06, 0, 0, -213.06, 92312.62, 271205.19)" gradientUnits="userSpaceOnUse"><stop offset="0.01" stop-color="#fff"/><stop offset="0.29" stop-color="#fff"/><stop offset="0.44" stop-color="#fff"/><stop offset="0.6" stop-color="#fff"/><stop offset="0.72" stop-color="#f0f9ff"/><stop offset="0.85" stop-color="#8fcafc"/><stop offset="1" stop-color="#6fb5f9"/></radialGradient><linearGradient id="linear-gradient" x1="99.44" y1="117.56" x2="225.92" y2="203.74" gradientTransform="matrix(1, 0, 0, -1, 0, 120)" gradientUnits="userSpaceOnUse"><stop offset="0" stop-color="#cfd7ff"/><stop offset="1" stop-color="#8a9bd8"/></linearGradient><linearGradient id="linear-gradient-2" x1="148.68" y1="44.51" x2="229.43" y2="44.51" gradientTransform="matrix(1, 0, 0, -1, 0, 120)" gradientUnits="userSpaceOnUse"><stop offset="0" stop-color="#e8ddff"/><stop offset="1" stop-color="#aa8ad8"/></linearGradient><linearGradient id="linear-gradient-3" x1="190.73" y1="84.21" x2="200.84" y2="84.21" xlink:href="#linear-gradient-2"/></defs><path class="cls-1" d="M254.33-9.37a127,127,0,0,0-40.51-93.09,130.53,130.53,0,0,0-41.58-25.75,123.74,123.74,0,0,0-31.66-7.51c-2.68-.27-5.63-.54-8.32-.54h-5.09a113.76,113.76,0,0,0-16.64,1.07A124.76,124.76,0,0,0,57.68-115.6c-1.61,1.07-3,1.87-4.29,2.95-2.68,1.87-5.1,3.75-7.78,5.9a128.18,128.18,0,0,0-31.92,40,133.61,133.61,0,0,0-11,31.12Q1.07-27.2.27-18.76C0-15.81,0-12.59,0-9.37A125.9,125.9,0,0,0,19.86,58.77,118,118,0,0,0,38.63,81.58a126.58,126.58,0,0,0,88.54,36c2.68,0,5.63,0,8.31-.27a135.39,135.39,0,0,0,31.66-6.17,93.72,93.72,0,0,0,9.12-3.49c2.14-.81,4.29-1.88,6.44-2.95A120.82,120.82,0,0,0,216,81a145.26,145.26,0,0,0,13.42-15.29A125.54,125.54,0,0,0,253.25,6.19,140.79,140.79,0,0,0,254.33-9.37Z"/><path class="cls-2" d="M183,104.92a2.42,2.42,0,0,1-1.34-.27,10.14,10.14,0,0,0-4,.27c-1.08.26-1.61.8-2.95.8-1.61.27-3,.81-4.56,1.07a28.85,28.85,0,0,0-4.56,1.35,3.83,3.83,0,0,1-3,0c-1.07-.27-1.87.26-2.95.53a16.23,16.23,0,0,1-3.48.81c-3.22.53-6.44,1.61-9.66,2.41a20.93,20.93,0,0,1-5.9.54c-1.61,0-3-.54-4.56-.54-1.08,0-1.88.27-3,.27a12.85,12.85,0,0,1-3.22,0c-1.61.27-2.42.54-4,0-1.34-.27-2.14-.27-3.49-.54a24,24,0,0,1-4.29-.8,36,36,0,0,0-7.51-1.07c-1.61,0-3.76.53-5.1,0-.8-.27-1.34-1.35-2.14-1.88a47.6,47.6,0,0,1-3.76-3.76,8,8,0,0,1-2.15-4.83A10.43,10.43,0,0,1,99,94.45c.81-1.61,1.08-3-.53-4A29.16,29.16,0,0,0,92,87.21c-1.61-.54-3-.8-4,.27-.53.27-.8,1.07-1.34,1.61a2.32,2.32,0,0,1-1.87-.27A32.23,32.23,0,0,0,80,87.48a12.15,12.15,0,0,0-3-.81c-1.08-.26-1.88.54-3.22.27-1.61-.27-3.49-1.07-5.1-1.07a10.11,10.11,0,0,0-4,1.07c-.53.27-.8.81-1.6.54-.54,0-1.35-.81-1.61-1.34-.54-.54-.54-1.34-1.08-1.88-.53-.81-.8-1.34-1.34-2.15l-2.41-4a18.19,18.19,0,0,0-1.88-3c-.27-.54-1.07-.81-1.61-1.07-1.34-.81-2.68-1.88-4-2.69-2.42-1.88-4.83-4-7.25-5.9-1.88-1.34-4.56-2.15-6.71-3.22l-4-1.61c-.54-.27-1.34-.27-1.61-.8A4.36,4.36,0,0,1,28.44,58a27.09,27.09,0,0,1-3.22-4.56c-.54-1.07-.81-1.88-1.34-2.95a20.27,20.27,0,0,1-1.61-4.3C21.19,43.21,21.19,40,19.85,37a40.23,40.23,0,0,0-2.41-4.83c-1.34-2.68-1.61-5.9-1.88-8.85A17.9,17.9,0,0,1,15.83,18a39.46,39.46,0,0,0,.27-5.64c0-1.88-1.34-4-2.42-5.36S10.73,5.12,9.39,3.78C8.32,2.7,7,1.63,6.44,0c-.27-.53,0-1.34,0-2.14a27.06,27.06,0,0,1-.81-4.57,42.73,42.73,0,0,1-.26-5.9v-2.95a7.87,7.87,0,0,1,.53-2.68V-20.1c0-.8.54-1.61.54-2.14a37.79,37.79,0,0,0,1.07-5.37c.27-1.61,1.08-3.22,1.34-4.83a47.38,47.38,0,0,0,1.61-6.71c.27-1.61.27-3.48.54-5.09a20.64,20.64,0,0,0,.54-4c0-2.14-.54-4-.54-6.17,0-3.49,1.34-7,2.15-10.46.26-1.07.53-1.88.8-2.95A125,125,0,0,0,.27-10.44,125.22,125.22,0,0,0,20.12,57.7,118.05,118.05,0,0,0,38.9,80.5a126.5,126.5,0,0,0,88.53,36c2.68,0,5.64,0,8.32-.27C152.38,116.45,168.48,111.89,183,104.92Z"/><g class="cls-3"><g class="cls-4"><path class="cls-5" d="M253.25,6.46a9.62,9.62,0,0,1-1.88,2.69A8.69,8.69,0,0,1,246,12.37c-1.61.53-3.22,1.34-4.56,0a23.21,23.21,0,0,1-3.22-4.57c-.54-1.07-1.35-3.21-2.69-3.48s-2.95,1.61-4,2.68c-1.34,1.34-2.15,3.49-3.49,4.56a12.22,12.22,0,0,1-3.75,1.88,25.32,25.32,0,0,1-7.78,1.61c-1.88,0-3.22,1.07-4.83,1.88a20,20,0,0,1-5.37,1.34,31,31,0,0,0-4.83,1.07,6.92,6.92,0,0,0-4.29,1.88c-1.34,1.61-2.41,3.75-4,5.1-2.95,2.68-6.17.8-9.93.8-2.95,0-5.36,1.88-8.32,2.68-3.48.81-6.43,1.34-8.58,4.3C164.45,36.78,165,40,163.91,43c-2.14,5.9-10.19,7.51-15.82,8-4.56.26-8.59-1.34-12.88-1.34-3.76,0-7,.8-9.39-2.42a100.34,100.34,0,0,1-7.51-11c-1.61-3-4.29-5.9-5.37-9.39a41.92,41.92,0,0,1-.8-5.63,24.43,24.43,0,0,0-3.49-7c-1.34-1.87-4-3.22-6.17-4.29a22.5,22.5,0,0,1-4.83-4A35.27,35.27,0,0,1,92.55,0a7.61,7.61,0,0,0-2.14-2.95C89.6-3.73,88.53-4,87.73-4.8a7.19,7.19,0,0,1-1.88-2.15A9.1,9.1,0,0,0,81.29-9.1c-2.69,0-5.37,2.15-7.51-.8-1.35-1.61-3-4.56-2.69-6.71.27-1.88,1.88-3.49,3-5.1,1.88-2.41,5.91-6.7,5.1-10.19-.27-1.34-1.61-2.15-1.07-3.76a20.71,20.71,0,0,0,.53-4.29c0-1.07-.53-2.95,0-3.75.81-1.08,3.22-2.15,4.56-2.42,2.69-1.07,5.1-3,7.78-4.29,1.88-1.07,3-2.42,4.83-3s3.49-.27,5.37-.54c1.07-.27,2.41-.27,3.49-.53.8-.27,1.61-.81,2.41-1.08,3.22-.8,7,0,10.46,0,2.15,0,4.3-.53,6.17.54,2.15,1.34,2.69,2.95,2.69,5.36,0,2.15-1.08,4-1.88,6.17a9.43,9.43,0,0,1-1.34,3.49c-.54.81-1.34.81-2.15,1.34-1.07.81-1.34,1.61-2.95,1.88a4.86,4.86,0,0,1-3.22-.8c-1.34-1.08-3.75-3.22-3.49-5.1a4.21,4.21,0,0,1,1.61-2.15,11.81,11.81,0,0,0,.54,2.69c2.68-.54,6.71-1.35,8.58-3.49-.53-1.88-3-3.22-4.56-3.22-3.22,0-6.43-.54-8.85,1.88-2.15,1.87-2.15,4.56-3.49,7A9.4,9.4,0,0,1,103-36.46a9.57,9.57,0,0,0-1.88,2.68c-1.07,1.61-2.15,4-.54,5.64s4.56,2.68,6.44,3.75c2.95,1.61,6.17,3.22,9.12,5.1,4.3,2.41,7.78,5.63,12.88,5.9,4,.27,8.85-.54,12.07-3.22,2.15-1.88,2.68-4,3.76-6.44a16.07,16.07,0,0,1,4.29-5.09c2.41-1.61,4.83-3.22,7-4.83,3-2.15,5.37-3,7.52-6.17,3.22-5.37,4.83-11.27,6.44-17.44a49.9,49.9,0,0,0,2.14-9.12,35.43,35.43,0,0,1,2.68-6.71A35.68,35.68,0,0,1,177.6-78a8.58,8.58,0,0,0,1.34-2.69c.8-3.75-2.95-6.43-4.83-9.39-2.15-3.21-4.56-5.9-5.63-9.65-.81-3,.26-4.3.8-7,1.07-4.56-1.07-7.24-4-10.46a20.22,20.22,0,0,0-5.37-4c-5.63-2.41-10.73-6.7-15-11.26-.54-1.34-3-3.22-4-4A124.17,124.17,0,0,1,172.5-129a130.31,130.31,0,0,1,41.58,25.75,126.52,126.52,0,0,1,40.51,93.09C254.32-4,253.79,1.37,253.25,6.46ZM111.33,4.85c-.53-1.61-4.56-2.41-6.17-2.95-.53-.27-1.34-.53-1.87,0C101.94,3,106.5,6.73,106.5,6.46L105.16,7c1.34,0,1.61,1.61,2.69,1.34a4.75,4.75,0,0,0,1.61-.8C110.53,7.27,111.87,6.19,111.33,4.85Zm42.93,29.51c-1.08-5.63-7.51-9.92-12.61-11.53a26.17,26.17,0,0,0-7.78-1.34c-2.42,0-5.1-.54-7.51,0-4.3,1.07-5.37,4-4,5.9-.8,2.14-1.87,4-1.07,6.17a25.3,25.3,0,0,0,2.68,4.56c1.88,2.68,4.56,2.68,7.51,3.76,5.91,1.87,12.34,4,18.25.8C152.38,40.8,154.79,37.85,154.26,34.36ZM211.13-84.75c-2.41-7.24-8.58-10.73-15.29-13.15-3.49-1.34-6.71-3.21-10.19-4.56-2.42-1.07-4-1.61-6.17-.8-3,1.34-3.76,4-2.42,7,1.88,3.22,5.37,5.91,4.56,9.93a18,18,0,0,0-.27,7.51,90.37,90.37,0,0,1,.54,12.07c-2.68-5.09-2.95-.8-2.68,2.15,0,2.42.8,3.49,2.95,4.83,6.71,4.56,15.83.27,21.73-3.49,3.75-2.41,6.44-6.44,8.05-10.46A17.19,17.19,0,0,0,211.13-84.75ZM209-9.1c-1.88-.26-4.83,2.42-6.17,3.49a24.39,24.39,0,0,0-3.49,4,21.47,21.47,0,0,0-3.22,3.76c-.81,1.61-1.34,3.49-2.15,5.37a46.75,46.75,0,0,1-3.49,7.51c-.53-1.61-.53,0,.54.53s2.68,0,3.76,0c2.95-.53,4.56-1.87,6.7-3.75,2.15-2.42,4.56-4.29,6.44-6.71,1.61-1.88,5.1-5.63,5.1-8C213.28-5.34,211.13-9.1,209-9.1Z"/><path class="cls-6" d="M229.37,66c-1.07-1.07-2.68-1.61-4-2.68-1.07-.81-2.15-2.15-3.22-2.69a8.23,8.23,0,0,0-5.1.54c-3.48,1.34-5.63,2.68-9.39,1.34-1.07-.53-2.14-.27-3.22-.53s-1.07-.81-2.41-.81c-2.15,0-4.29,2.15-5.63,3.49-1.61,1.88-2.42,1.88-4.83,1.88s-5.1-.54-5.64-3.49c-.53-3.22,3.49-5.9,5.64-7.51,3.22-2.42-.27-3-1.61-5.37-1.08-2.15,1.07-3.49-.54-5.36-3.49-3.76-11.8-6.44-16.36-4-3.22,1.88-4.83,5.37-7.25,8.05-1.34,1.61-3.22,2.68-4.56,4.29a22.49,22.49,0,0,0-4.83,8c1.08-2.95-.8,1.34-1.34,4.83-.27,1.61.54,2.68.81,4,.26,1.61-.54,2.15-1.35,3.22-1.34,2.42-3.21,4.3-1.34,6.71a29.11,29.11,0,0,0,3.76,4.29c1.34,1.34,2.95,3.22,4.83,4,.27,1.07-3.22,4.56-4,5.36-1.87,2.15-3.48,4.83-5.63,6.71-.8.8-2.41,1.61-3,2.41-1.07,2.15,2.41,5.1,3.76,6.17,2.68,1.88,5.09,2.15,8,2.15a49.2,49.2,0,0,0,6.17-.27,89.92,89.92,0,0,0,9.13-3.49,65.59,65.59,0,0,0,6.43-3A120.87,120.87,0,0,0,216,80.77,70.71,70.71,0,0,0,229.37,66Z"/><path class="cls-7" d="M192.89,38.92a37.41,37.41,0,0,0,7.78-2.41c-.27-.54,0-1.07.27-1.61a8.67,8.67,0,0,0-3.76-2.15,4.66,4.66,0,0,0-3.75.81c-1.35.8-3,.8-2.69,2.41,0,1.88,1.88,2.42,3.49,2.69h-1.34Z"/></g></g><path class="cls-8" d="M134.3,69.62a6.09,6.09,0,0,1-4.42-1.7,6.26,6.26,0,0,1,0-8.66,6.06,6.06,0,0,1,4.42-1.71,5.72,5.72,0,0,1,3,.84,4.42,4.42,0,0,1,1.88,2.09,1.72,1.72,0,0,1,.15.74,1.27,1.27,0,0,1-.39,1,1.44,1.44,0,0,1-1,.36,1.24,1.24,0,0,1-.7-.18,1.71,1.71,0,0,1-.52-.63,2.68,2.68,0,0,0-2.64-1.57,2.82,2.82,0,0,0-2.22.94,4,4,0,0,0,0,4.93,2.82,2.82,0,0,0,2.22.94,3,3,0,0,0,1.55-.36,3.18,3.18,0,0,0,1.09-1.23,2,2,0,0,1,.52-.63,1.33,1.33,0,0,1,.7-.18,1.45,1.45,0,0,1,1,.37,1.26,1.26,0,0,1,.4,1,2.41,2.41,0,0,1-.12.65,4.2,4.2,0,0,1-1.86,2.21A5.92,5.92,0,0,1,134.3,69.62Z"/><path class="cls-8" d="M150,57.79a1.36,1.36,0,0,1,1.05.42,1.64,1.64,0,0,1,.39,1.15V68a1.64,1.64,0,0,1-.39,1.15,1.36,1.36,0,0,1-1.05.42,1.39,1.39,0,0,1-1.07-.42,1.6,1.6,0,0,1-.4-1.15V64.78h-5V68a1.64,1.64,0,0,1-.39,1.15,1.36,1.36,0,0,1-1,.42,1.39,1.39,0,0,1-1.07-.42,1.6,1.6,0,0,1-.4-1.15v-8.6a1.57,1.57,0,0,1,.4-1.14,1.44,1.44,0,0,1,1.07-.43,1.37,1.37,0,0,1,1,.43,1.61,1.61,0,0,1,.39,1.14v2.9h5v-2.9a1.57,1.57,0,0,1,.4-1.14A1.4,1.4,0,0,1,150,57.79Z"/><path class="cls-8" d="M158.76,69.62a6,6,0,0,1-4.45-1.68,5.93,5.93,0,0,1-1.7-4.4,5.71,5.71,0,0,1,1.75-4.29,6.53,6.53,0,0,1,8.8,0,5.77,5.77,0,0,1,1.75,4.29,5.91,5.91,0,0,1-1.7,4.39A6.07,6.07,0,0,1,158.76,69.62Zm-2.37-3.55a3.12,3.12,0,0,0,2.37.92,3.08,3.08,0,0,0,2.37-.92,3.55,3.55,0,0,0,.86-2.52,3.37,3.37,0,0,0-.89-2.44,3.43,3.43,0,0,0-4.69,0,3.35,3.35,0,0,0-.88,2.44A3.5,3.5,0,0,0,156.39,66.07Z"/><path class="cls-8" d="M172.08,69.62a6,6,0,0,1-4.45-1.68,5.93,5.93,0,0,1-1.7-4.4,5.71,5.71,0,0,1,1.75-4.29,6.53,6.53,0,0,1,8.8,0,5.77,5.77,0,0,1,1.75,4.29,5.91,5.91,0,0,1-1.7,4.39A6.07,6.07,0,0,1,172.08,69.62Zm-2.37-3.55a3.12,3.12,0,0,0,2.37.92,3.08,3.08,0,0,0,2.37-.92,3.55,3.55,0,0,0,.86-2.52,3.37,3.37,0,0,0-.89-2.44,3.43,3.43,0,0,0-4.69,0,3.35,3.35,0,0,0-.88,2.44A3.5,3.5,0,0,0,169.71,66.07Z"/><path class="cls-8" d="M186.21,69.37h-5.28a1.39,1.39,0,0,1-.53-.1,1.43,1.43,0,0,1-.74-.74,1.39,1.39,0,0,1-.1-.53V59.29a1.58,1.58,0,0,1,.4-1.15,1.39,1.39,0,0,1,1.07-.42,1.36,1.36,0,0,1,1.05.42,1.62,1.62,0,0,1,.39,1.15v7.34h3.74a1.52,1.52,0,0,1,1.08.39,1.25,1.25,0,0,1,.31.44,1.44,1.44,0,0,1,.1.54,1.29,1.29,0,0,1-.41,1A1.53,1.53,0,0,1,186.21,69.37Z"/><path class="cls-8" d="M123,69.62a7.63,7.63,0,0,1-3.35-.7A4.4,4.4,0,0,1,117.54,67a2.12,2.12,0,0,1-.26-.93,1.22,1.22,0,0,1,.1-.53,1.28,1.28,0,0,1,.32-.44,1.47,1.47,0,0,1,1-.4,1.62,1.62,0,0,1,1.44.86A3,3,0,0,0,123,67a2.4,2.4,0,0,0,1.31-.3.88.88,0,0,0,.34-.35.82.82,0,0,0,.12-.48.68.68,0,0,0-.15-.47,1.32,1.32,0,0,0-.54-.33c-.22-.08-.43-.14-.65-.2l-.92-.19-.25,0-.71-.14-.69-.16c-.25-.05-.49-.12-.72-.19l-.64-.26a2.44,2.44,0,0,1-.61-.34l-.49-.43a1.75,1.75,0,0,1-.42-.55,4.19,4.19,0,0,1-.23-.68,3.44,3.44,0,0,1-.1-.84A3.07,3.07,0,0,1,119,58.55a5.16,5.16,0,0,1,3.27-1,6.76,6.76,0,0,1,2.77.59,4,4,0,0,1,1.84,1.51,1.52,1.52,0,0,1,.23.8A1.31,1.31,0,0,1,127,61a1.25,1.25,0,0,1-.3.42,1.41,1.41,0,0,1-1,.37,1.59,1.59,0,0,1-1.13-.53,3.36,3.36,0,0,0-2.43-1.12,2.44,2.44,0,0,0-1.23.27.82.82,0,0,0-.47.72c0,.3.2.52.59.68a11,11,0,0,0,1.79.43q.63.11.93.18c.2,0,.5.12.9.23a5.89,5.89,0,0,1,.92.32,8.46,8.46,0,0,1,.77.44,2.26,2.26,0,0,1,.67.6,3.49,3.49,0,0,1,.39.8,3,3,0,0,1,.18,1,3.45,3.45,0,0,1-1.27,2.75A5,5,0,0,1,123,69.62Z"/><path class="cls-9" d="M121,54.87a1.34,1.34,0,0,1-1,.42,1.4,1.4,0,0,1-1-.42,1.53,1.53,0,0,1-.39-1.11v-8.2a1.43,1.43,0,0,1,1.61-1.62h6.65a1.49,1.49,0,0,1,1.05.36,1.44,1.44,0,0,1,0,1.94,1.54,1.54,0,0,1-1.06.35h-5.42v2.29H126c.9,0,1.36.42,1.36,1.25s-.46,1.24-1.36,1.24h-4.62v2.38A1.58,1.58,0,0,1,121,54.87Z"/><path class="cls-9" d="M119.92,55.49a1.6,1.6,0,0,1-1.2-.47,1.76,1.76,0,0,1-.44-1.26v-8.2a1.63,1.63,0,0,1,1.81-1.83h6.65a1.73,1.73,0,0,1,1.19.42,1.63,1.63,0,0,1,0,2.24,1.68,1.68,0,0,1-1.2.41h-5.22v1.87H126c1.29,0,1.56.8,1.56,1.46s-.27,1.45-1.56,1.45h-4.41v2.17a1.81,1.81,0,0,1-.43,1.26A1.56,1.56,0,0,1,119.92,55.49Zm.17-11.34a1.23,1.23,0,0,0-1.4,1.41v8.19a1.37,1.37,0,0,0,.33,1,1.31,1.31,0,0,0,1.78,0,1.35,1.35,0,0,0,.33-1V51.17H126c.8,0,1.15-.32,1.15-1s-.35-1-1.15-1h-4.84v-2.7h5.63a1.31,1.31,0,0,0,.92-.3,1,1,0,0,0,.31-.81,1.1,1.1,0,0,0-.32-.83,1.3,1.3,0,0,0-.91-.3Z"/><path class="cls-9" d="M134.4,55.45a5.41,5.41,0,0,1-3.88-1.32,4.86,4.86,0,0,1-1.38-3.69v-5a1.54,1.54,0,0,1,.39-1.12,1.5,1.5,0,0,1,2.06,0,1.6,1.6,0,0,1,.38,1.12v5a2.61,2.61,0,0,0,.61,1.83,2.32,2.32,0,0,0,1.82.68,2.36,2.36,0,0,0,1.84-.68,2.61,2.61,0,0,0,.61-1.83v-5a1.54,1.54,0,0,1,.39-1.12,1.5,1.5,0,0,1,2.06,0,1.55,1.55,0,0,1,.38,1.12v5a4.8,4.8,0,0,1-1.4,3.69A5.41,5.41,0,0,1,134.4,55.45Z"/><path class="cls-9" d="M134.4,55.65a5.59,5.59,0,0,1-4-1.38,5.09,5.09,0,0,1-1.45-3.83v-5a1.74,1.74,0,0,1,.45-1.26,1.54,1.54,0,0,1,1.19-.48,1.52,1.52,0,0,1,1.18.48,1.77,1.77,0,0,1,.43,1.26v5a2.45,2.45,0,0,0,.55,1.7,2.11,2.11,0,0,0,1.67.61,2.13,2.13,0,0,0,1.68-.61,2.44,2.44,0,0,0,.57-1.7v-5a1.77,1.77,0,0,1,.44-1.26,1.55,1.55,0,0,1,1.2-.48,1.5,1.5,0,0,1,1.17.48,1.77,1.77,0,0,1,.43,1.26v5a5,5,0,0,1-1.47,3.84A5.66,5.66,0,0,1,134.4,55.65Zm-3.83-11.59a1.17,1.17,0,0,0-.89.35,1.35,1.35,0,0,0-.33,1v5A4.68,4.68,0,0,0,130.67,54a6.17,6.17,0,0,0,7.47,0,4.65,4.65,0,0,0,1.34-3.54v-5a1.41,1.41,0,0,0-.32-1,1.12,1.12,0,0,0-.88-.35,1.17,1.17,0,0,0-.89.35,1.35,1.35,0,0,0-.33,1v5a2.86,2.86,0,0,1-.67,2,2.59,2.59,0,0,1-2,.74,2.54,2.54,0,0,1-2-.74,2.87,2.87,0,0,1-.65-2v-5a1.39,1.39,0,0,0-.32-1A1.11,1.11,0,0,0,130.57,44.06Z"/><path class="cls-9" d="M142,43.94h7.92a1.48,1.48,0,0,1,1.06.36,1.24,1.24,0,0,1,.39,1,1.25,1.25,0,0,1-.38,1,1.53,1.53,0,0,1-1.07.35h-2.53v7.16a1.58,1.58,0,0,1-.37,1.12,1.51,1.51,0,0,1-2.07,0,1.54,1.54,0,0,1-.39-1.12V46.59H142a1.5,1.5,0,0,1-1.05-.35,1.28,1.28,0,0,1-.38-1,1.25,1.25,0,0,1,.39-1A1.36,1.36,0,0,1,142,43.94Z"/><path class="cls-9" d="M146,55.49A1.57,1.57,0,0,1,144.8,55a1.77,1.77,0,0,1-.45-1.26v-7H142a1.69,1.69,0,0,1-1.19-.41,1.62,1.62,0,0,1,0-2.24,1.68,1.68,0,0,1,1.19-.42h7.92a1.67,1.67,0,0,1,1.2.42,1.45,1.45,0,0,1,.45,1.12,1.48,1.48,0,0,1-.44,1.13,1.73,1.73,0,0,1-1.21.4H147.6v7a1.77,1.77,0,0,1-.43,1.26A1.56,1.56,0,0,1,146,55.49Zm-4-11.34a1.31,1.31,0,0,0-.91.3,1.1,1.1,0,0,0-.32.83,1.05,1.05,0,0,0,.32.81,1.28,1.28,0,0,0,.91.3h2.77v7.36a1.31,1.31,0,0,0,.33,1,1.13,1.13,0,0,0,.89.35,1.11,1.11,0,0,0,.87-.35,1.35,1.35,0,0,0,.33-1V46.39h2.73a1.35,1.35,0,0,0,.93-.29,1,1,0,0,0,.31-.83,1,1,0,0,0-.32-.82,1.29,1.29,0,0,0-.92-.31Z"/><path class="cls-9" d="M157.52,55.45a5.4,5.4,0,0,1-3.88-1.32,4.87,4.87,0,0,1-1.39-3.69v-5a1.54,1.54,0,0,1,.39-1.12,1.36,1.36,0,0,1,1.05-.41,1.29,1.29,0,0,1,1,.41,1.58,1.58,0,0,1,.38,1.12v5a2.66,2.66,0,0,0,.6,1.84,2.8,2.8,0,0,0,3.66,0,2.63,2.63,0,0,0,.62-1.84v-5a1.54,1.54,0,0,1,.38-1.12,1.36,1.36,0,0,1,1.05-.41,1.29,1.29,0,0,1,1,.41,1.58,1.58,0,0,1,.38,1.12v5a4.84,4.84,0,0,1-1.4,3.69A5.45,5.45,0,0,1,157.52,55.45Z"/><path class="cls-9" d="M157.52,55.65a5.59,5.59,0,0,1-4-1.38,5,5,0,0,1-1.45-3.83v-5a1.77,1.77,0,0,1,.44-1.26,1.55,1.55,0,0,1,1.2-.48,1.5,1.5,0,0,1,1.17.48,1.77,1.77,0,0,1,.43,1.26v5a2.5,2.5,0,0,0,.55,1.7,2.62,2.62,0,0,0,3.36,0,2.48,2.48,0,0,0,.56-1.7v-5a1.77,1.77,0,0,1,.44-1.26,1.59,1.59,0,0,1,1.2-.48,1.5,1.5,0,0,1,1.17.48,1.77,1.77,0,0,1,.43,1.26v5a5,5,0,0,1-1.47,3.84A5.64,5.64,0,0,1,157.52,55.65Zm-3.83-11.59a1.17,1.17,0,0,0-.9.35,1.35,1.35,0,0,0-.33,1v5A4.68,4.68,0,0,0,153.78,54a6.18,6.18,0,0,0,7.48,0,4.64,4.64,0,0,0,1.33-3.54v-5a1.41,1.41,0,0,0-.32-1,1.1,1.1,0,0,0-.87-.35,1.17,1.17,0,0,0-.9.35,1.35,1.35,0,0,0-.33,1v5a2.85,2.85,0,0,1-.66,2,2.62,2.62,0,0,1-2,.74,2.54,2.54,0,0,1-2-.74,2.87,2.87,0,0,1-.66-2v-5a1.35,1.35,0,0,0-.32-1A1.1,1.1,0,0,0,153.69,44.06Z"/><path class="cls-9" d="M173.13,51.13,174.81,53a1.65,1.65,0,0,1,.46,1.08,1,1,0,0,1-.09.48,1.14,1.14,0,0,1-.29.4,1.33,1.33,0,0,1-.94.34,1.4,1.4,0,0,1-1-.46l-3.18-3.4h-2.26v2.33a1.58,1.58,0,0,1-.38,1.12,1.29,1.29,0,0,1-1,.41,1.36,1.36,0,0,1-1.05-.41,1.54,1.54,0,0,1-.38-1.12V45.56a1.42,1.42,0,0,1,1.61-1.62h5.08a4.09,4.09,0,0,1,2.93,1,3.57,3.57,0,0,1,1,2.75A3.31,3.31,0,0,1,173.13,51.13Zm-5.65-4.63v2.36h3.72a1.31,1.31,0,0,0,.93-.31,1.16,1.16,0,0,0,.34-.88c0-.78-.43-1.17-1.27-1.17Z"/><path class="cls-9" d="M174,55.49a1.58,1.58,0,0,1-1.17-.53l-3.13-3.33h-2v2.12a1.81,1.81,0,0,1-.43,1.26,1.56,1.56,0,0,1-1.18.48,1.59,1.59,0,0,1-1.19-.47,1.77,1.77,0,0,1-.45-1.26v-8.2a1.63,1.63,0,0,1,1.82-1.83h5.09a4.34,4.34,0,0,1,3.07,1,3.83,3.83,0,0,1,1.11,2.9,3.54,3.54,0,0,1-2.05,3.54L175,52.85a1.86,1.86,0,0,1,.52,1.21,1.38,1.38,0,0,1-.11.57,1.28,1.28,0,0,1-.34.46A1.53,1.53,0,0,1,174,55.49Zm-6.67-4.27h2.54l3.25,3.46a1.18,1.18,0,0,0,.88.4,1.14,1.14,0,0,0,.81-.29.94.94,0,0,0,.23-.33.92.92,0,0,0,.08-.4,1.42,1.42,0,0,0-.42-.94l-1.87-2.07.28-.11a3.12,3.12,0,0,0,2.06-3.27,3.38,3.38,0,0,0-1-2.6,3.93,3.93,0,0,0-2.78-.92h-5.09a1.22,1.22,0,0,0-1.4,1.41v8.19a1.32,1.32,0,0,0,.33,1,1.13,1.13,0,0,0,.89.35,1.11,1.11,0,0,0,.87-.35,1.35,1.35,0,0,0,.33-1Zm3.92-2.15h-3.92V46.29h3.92c1.22,0,1.48.75,1.48,1.38a1.33,1.33,0,0,1-.41,1,1.48,1.48,0,0,1-1.07.37Zm-3.51-.42h3.51a1.1,1.1,0,0,0,.79-.25.94.94,0,0,0,.28-.73c0-.67-.33-1-1.07-1h-3.51Z"/><path class="cls-9" d="M185.06,55.2h-6.58a1.44,1.44,0,0,1-1.63-1.62v-8a1.43,1.43,0,0,1,1.61-1.62H185a1.45,1.45,0,0,1,1,.36,1.24,1.24,0,0,1,.39,1,1.28,1.28,0,0,1-.38,1,1.5,1.5,0,0,1-1.05.35h-5.35V48.3h4.77c.9,0,1.35.41,1.35,1.25s-.45,1.26-1.35,1.26h-4.77v1.74h5.38a1.49,1.49,0,0,1,1.05.36,1.26,1.26,0,0,1,.38,1,1.27,1.27,0,0,1-.37,1A1.49,1.49,0,0,1,185.06,55.2Z"/><path class="cls-9" d="M185.06,55.41h-6.58a1.64,1.64,0,0,1-1.84-1.83v-8a1.63,1.63,0,0,1,1.82-1.83H185a1.68,1.68,0,0,1,1.18.42,1.61,1.61,0,0,1,0,2.24,1.69,1.69,0,0,1-1.19.41h-5.14v1.29h4.56A1.36,1.36,0,0,1,186,49.56c0,.66-.28,1.46-1.56,1.46h-4.56v1.32h5.17a1.73,1.73,0,0,1,1.19.42,1.51,1.51,0,0,1,.45,1.12,1.44,1.44,0,0,1-.45,1.12A1.64,1.64,0,0,1,185.06,55.41Zm-6.6-11.27c-1,0-1.4.45-1.4,1.42v8A1.24,1.24,0,0,0,178.48,55h6.58a1.31,1.31,0,0,0,.92-.3,1.06,1.06,0,0,0,.31-.82,1.08,1.08,0,0,0-.32-.82,1.3,1.3,0,0,0-.91-.31h-5.58V50.6h5c.79,0,1.15-.32,1.15-1.05s-.36-1-1.15-1h-5V46.39H185a1.26,1.26,0,0,0,.91-.3,1,1,0,0,0,.32-.82,1.08,1.08,0,0,0-.32-.82,1.3,1.3,0,0,0-.91-.31Z"/><path class="cls-10" d="M112.24,68.8V26.13A1.13,1.13,0,0,0,111.11,25H68.44a1.12,1.12,0,0,0-1.13,1.13V68.8a1.12,1.12,0,0,0,1.13,1.13h42.67A1.13,1.13,0,0,0,112.24,68.8Z"/><path class="cls-11" d="M97.35,42.7A10.14,10.14,0,0,1,101,45.21a9.91,9.91,0,0,1,2.56,5.47,8.94,8.94,0,0,1-.74,5.37,10,10,0,0,1-6.1,5.4c-2,.61-3.94,1.15-5.92,1.72L87,64.27a2.94,2.94,0,0,1-3.81-2.07Q81.34,56,79.55,49.71T76,37.4a3,3,0,0,1,2.07-3.78l9.61-2.78a8.23,8.23,0,0,1,5.95.56,7.91,7.91,0,0,1,4.55,6.44,7.89,7.89,0,0,1-.77,4.7A.91.91,0,0,0,97.35,42.7Zm-3,17.55c.56-.16,1.13-.31,1.69-.48A8.13,8.13,0,0,0,95.31,44c-.36-.07-.72-.12-1.11-.18l.2-.21a6.39,6.39,0,0,0,2-4.58,6.65,6.65,0,0,0-1.53-4.41,5.71,5.71,0,0,0-5.19-2.32,11.71,11.71,0,0,0-2.33.52Q83.09,34,78.79,35.3a1.44,1.44,0,0,0-.92,2c0,.15,0,.29.08.43q3.42,11.87,6.85,23.72a1.49,1.49,0,0,0,1.92,1.07l2.3-.66Z"/><path class="cls-12" d="M94.34,60.25,89,61.82l-2.3.66a1.48,1.48,0,0,1-1.91-1.07Q81.37,49.56,78,37.7c0-.15-.06-.29-.08-.43a.83.83,0,0,1,.29-.21l2.61-.78c1.45-.42,2.9-.84,4.35-1.24A11.21,11.21,0,0,1,87,34.62a5.58,5.58,0,0,1,3.8,1,6.55,6.55,0,0,1,2.24,2.78,6.36,6.36,0,0,1,.5,3.54,6.22,6.22,0,0,1-1.65,3.41,4.4,4.4,0,0,1-.49.41A14.45,14.45,0,0,1,93,46a7.6,7.6,0,0,1,2.75,1.24,7.77,7.77,0,0,1,2,2.17,7.08,7.08,0,0,1,1.06,3.11,7.53,7.53,0,0,1-1.08,4.79,7.24,7.24,0,0,1-2.3,2.34C95.07,59.84,94.71,60,94.34,60.25Z"/><path class="cls-13" d="M94.34,60.25c.36-.21.73-.41,1.09-.63a7.21,7.21,0,0,0,2.29-2.34,7.54,7.54,0,0,0,1.09-4.79,7.08,7.08,0,0,0-1.06-3.11,7.91,7.91,0,0,0-2-2.17A7.6,7.6,0,0,0,93,46a14.81,14.81,0,0,0-1.56-.21,5.85,5.85,0,0,0,.49-.41,6.22,6.22,0,0,0,1.65-3.41,6.36,6.36,0,0,0-.5-3.54,6.55,6.55,0,0,0-2.24-2.78,5.61,5.61,0,0,0-3.8-1,11.21,11.21,0,0,0-1.89.42c-1.45.4-2.9.82-4.35,1.24-.87.25-1.75.51-2.62.78a.79.79,0,0,0-.28.21,1.44,1.44,0,0,1,.92-2c2.86-.84,5.73-1.66,8.6-2.48a11.71,11.71,0,0,1,2.33-.52,5.71,5.71,0,0,1,5.19,2.32A6.65,6.65,0,0,1,96.44,39a6.39,6.39,0,0,1-2,4.58l-.2.21c.39.06.75.11,1.11.18A8.13,8.13,0,0,1,96,59.77C95.47,59.94,94.91,60.09,94.34,60.25Z"/><path class="cls-14" d="M124.74,36l-.07-.06.2-.06.07.06Z"/><path class="cls-15" d="M124.93,36l-.06-.06a1.25,1.25,0,0,0,.88-1.27,1.44,1.44,0,0,0-.36-1.08l.06.06a1.37,1.37,0,0,1,.36,1.08,1.25,1.25,0,0,1-.88,1.27"/><path class="cls-16" d="M126.58,31.78l-.06-.06a4.52,4.52,0,0,1,.86.65l.06.06A4.23,4.23,0,0,0,126.58,31.78Z"/><path class="cls-17" d="M126.2,31.57l-.06-.06.37.21.06.06Z"/><path class="cls-16" d="M126.57,31.78l-.06-.06h0l.07.06Z"/><path class="cls-16" d="M121.41,36.12l-.07-.07,0,0,.06.06Z"/><path class="cls-17" d="M121.44,36.14l-.06-.06h0l.06.07Z"/><path class="cls-18" d="M121.48,36.16l-.06-.07h0l.06.07Z"/><path class="cls-19" d="M121.53,36.17l-.06-.07h.1l.06.06h-.1Z"/><path class="cls-20" d="M121.63,36.17l-.06-.06h.15l.07.06Z"/><path class="cls-19" d="M121.79,36.17l-.07-.06h1l.06.06h-1Z"/><path class="cls-20" d="M122.79,36.18l-.06-.07h.55a9.45,9.45,0,0,0,1.07-.09l.07.06a9.83,9.83,0,0,1-1.08.09l-.55,0"/><path class="cls-14" d="M124.42,36.07l-.06-.06.31-.06.07.06Z"/><path class="cls-15" d="M123,32.62l-.06-.06a1.24,1.24,0,0,1-.34-1,1.11,1.11,0,0,1,.82-1.11l.06.06a1.13,1.13,0,0,0-.82,1.11A1.26,1.26,0,0,0,123,32.62Z"/><path class="cls-14" d="M123.47,30.55l-.06-.06h0c.22-.07.46-.12.68-.17l.2-.06.06.06-.19.06c-.23.06-.46.1-.68.17Z"/><path class="cls-15" d="M124.37,30.31l-.06-.07a1.16,1.16,0,0,0,.72-.62,1.49,1.49,0,0,0,.13-.88,1.52,1.52,0,0,0-.4-.8l.06.06a1.52,1.52,0,0,1,.4.8,1.48,1.48,0,0,1-.12.88,1.16,1.16,0,0,1-.73.63"/><path class="cls-15" d="M119.17,38.2l-.06-.06a1.34,1.34,0,0,1-.35-1V26.53a1.19,1.19,0,0,1,.75-1.25l.06.06a1.19,1.19,0,0,0-.74,1.25q0,5.31,0,10.62A1.38,1.38,0,0,0,119.17,38.2Z"/><path class="cls-14" d="M119.57,25.34l-.06-.06a1.05,1.05,0,0,1,.24-.06l.06.06a1.05,1.05,0,0,0-.24.06"/><path class="cls-20" d="M119.81,25.28l-.06-.06a1.07,1.07,0,0,1,.25,0h1.65l.07.06-1.65,0a1.14,1.14,0,0,0-.26,0"/><path class="cls-19" d="M121.72,25.24l-.07-.06h.28c.83,0,1.65,0,2.47.07l.3,0,.06.07a1.53,1.53,0,0,0-.3,0c-.82-.06-1.64-.08-2.47-.08Z"/><path class="cls-18" d="M124.76,25.34l-.06-.06a3.5,3.5,0,0,1,.56.13l.06.07A3.53,3.53,0,0,0,124.76,25.34Z"/><path class="cls-17" d="M125.32,25.48l-.06-.07a3.93,3.93,0,0,1,.66.3l.07.06A3.08,3.08,0,0,0,125.32,25.48Z"/><path class="cls-16" d="M126,25.77l-.06-.06a3.55,3.55,0,0,1,.73.56l.06.07A3.68,3.68,0,0,0,126,25.77Z"/><path class="cls-21" d="M126.58,31.78a3.41,3.41,0,0,1,1.81,3.37,3.15,3.15,0,0,1-2.31,3,8.22,8.22,0,0,1-2.2.41c-.48,0-.95,0-1.44,0l-2.31,0a1.21,1.21,0,0,1-1.3-1.34q0-5.31,0-10.62a1.17,1.17,0,0,1,1.23-1.33l1.93,0c.82,0,1.65,0,2.47.08a3.5,3.5,0,0,1,3.13,4.52,3.16,3.16,0,0,1-1.12,1.53l-.27.21ZM124.74,36a1.3,1.3,0,0,0,1.08-1.33,1.34,1.34,0,0,0-1-1.46,4.56,4.56,0,0,0-.53-.13,5.6,5.6,0,0,1-.81-.19,1.2,1.2,0,0,1-.78-1.24,1.12,1.12,0,0,1,.85-1.11c.22-.08.45-.12.68-.18a1.28,1.28,0,0,0,.92-.69A1.44,1.44,0,0,0,124,27.61c-.32,0-.65,0-1,0l-1.6,0,0,.19v8.12c0,.22.09.26.28.26h1.71a8.21,8.21,0,0,0,1.4-.15"/><path class="cls-19" d="M156.81,25.44l-.07-.06H157l.06.07-.14,0Z"/><path class="cls-18" d="M157,25.46,157,25.4l.2,0,.06.07A.65.65,0,0,0,157,25.46Z"/><path class="cls-17" d="M157.21,25.51l-.06-.07.23.1.06.07A.67.67,0,0,0,157.21,25.51Z"/><path class="cls-16" d="M157.44,25.61l-.06-.07a1.43,1.43,0,0,1,.24.19l.06.06A1.08,1.08,0,0,0,157.44,25.61Z"/><path class="cls-16" d="M151.72,35.47l-.07-.06a1.55,1.55,0,0,0,.33.24l.06.07A1.31,1.31,0,0,1,151.72,35.47Z"/><path class="cls-17" d="M152,35.71l-.06-.06a1.75,1.75,0,0,0,.34.15l.06.06A1.14,1.14,0,0,1,152,35.71Z"/><path class="cls-18" d="M152.38,35.86l-.07-.06a1.55,1.55,0,0,0,.36.08l.07.07A1.9,1.9,0,0,1,152.38,35.86Z"/><path class="cls-19" d="M152.73,36l-.06-.07.24,0h.32l.07.06H153l-.24,0"/><path class="cls-20" d="M153.3,36l-.07-.06.39,0,.19,0,.06.06-.19,0Z"/><path class="cls-14" d="M153.87,35.94l-.06-.06a2.66,2.66,0,0,0,.38-.1l.06.06A1.64,1.64,0,0,1,153.87,35.94Z"/><path class="cls-15" d="M154.25,35.84l-.06-.06a1.53,1.53,0,0,0,.63-.41,1.6,1.6,0,0,0,.36-.65,6.81,6.81,0,0,0,.27-1.79c0-1.95,0-3.9,0-5.85a3.79,3.79,0,0,1,.06-.67,1.23,1.23,0,0,1,.78-1l.07.07a1.22,1.22,0,0,0-.79.95,3.07,3.07,0,0,0-.05.67c0,1.95,0,3.9,0,5.85a7.19,7.19,0,0,1-.28,1.79,1.64,1.64,0,0,1-.36.66A1.55,1.55,0,0,1,154.25,35.84Z"/><path class="cls-14" d="M156.37,25.52l-.06-.07.22-.05.06.06A.9.9,0,0,0,156.37,25.52Z"/><path class="cls-20" d="M156.59,25.46l-.06-.06.21,0,.06.06Z"/><path class="cls-19" d="M156.8,25.44l-.06-.06h0l.07.06Z"/><path class="cls-15" d="M149.88,37.25l-.07-.06a4.78,4.78,0,0,1-1.23-2.56,9.87,9.87,0,0,1-.14-1.63c0-.92,0-1.84,0-2.76,0-1.11,0-2.22,0-3.34a2.28,2.28,0,0,1,.15-.81,1.08,1.08,0,0,1,.25-.39,1.1,1.1,0,0,1,.4-.24l.06.06a1,1,0,0,0-.39.24,1.07,1.07,0,0,0-.26.4,2.2,2.2,0,0,0-.15.81c0,1.11,0,2.22,0,3.34,0,.92,0,1.84,0,2.76a9.85,9.85,0,0,0,.14,1.62,4.79,4.79,0,0,0,1.24,2.56"/><path class="cls-14" d="M149.3,25.52l-.06-.06a.79.79,0,0,1,.22-.06l.06.06A.9.9,0,0,0,149.3,25.52Z"/><path class="cls-20" d="M149.52,25.46l-.06-.06.22,0,.06.06-.22,0"/><path class="cls-19" d="M149.74,25.44l-.06-.06h0l.17,0,.06.06-.16,0Z"/><path class="cls-18" d="M150,25.46l-.06-.06.2,0,.07.07Z"/><path class="cls-17" d="M150.16,25.51l-.06-.07a1,1,0,0,1,.23.11l.07.06A1,1,0,0,0,150.16,25.51Z"/><path class="cls-16" d="M150.4,25.61l-.07-.06a.81.81,0,0,1,.24.17l.06.07A1.3,1.3,0,0,0,150.4,25.61Z"/><path class="cls-21" d="M156.81,25.44h.06a1.23,1.23,0,0,1,1.18,1.14l0,.45c0,2.21,0,4.41-.05,6.61a7,7,0,0,1-.43,2.13,4,4,0,0,1-3.44,2.65,9.06,9.06,0,0,1-.91.07,5.5,5.5,0,0,1-1.33-.16,4.15,4.15,0,0,1-3.28-3.64,9.85,9.85,0,0,1-.14-1.62c0-.92,0-1.84,0-2.76,0-1.12,0-2.23,0-3.34a2.2,2.2,0,0,1,.15-.81,1.12,1.12,0,0,1,1.1-.72h.05a1.16,1.16,0,0,1,1.1.79,3.07,3.07,0,0,1,.13.85c0,1.92,0,3.83,0,5.75a7.87,7.87,0,0,0,.2,1.74A1.74,1.74,0,0,0,153,36h.3l.4,0a1.63,1.63,0,0,0,1.56-1.18,7.26,7.26,0,0,0,.28-1.79c0-2,0-3.9,0-5.85a3,3,0,0,1,.05-.67A1.21,1.21,0,0,1,156.81,25.44Z"/><path class="cls-15" d="M163.9,37.09l-.06-.06a3.65,3.65,0,0,1-.27-.3,1.7,1.7,0,0,1-.49-1.25,1.2,1.2,0,0,1,.24-.65,1.25,1.25,0,0,1,.55-.41l.06.07a1.18,1.18,0,0,0-.55.41,1.22,1.22,0,0,0-.24.64,1.78,1.78,0,0,0,.49,1.26Z"/><path class="cls-14" d="M163.93,34.49l-.06-.07.21-.05.06.06A.83.83,0,0,0,163.93,34.49Z"/><path class="cls-20" d="M164.14,34.43l-.06-.06h.18l.06.06Z"/><path class="cls-19" d="M164.32,34.42l-.06-.06h.17l.06.06h-.17Z"/><path class="cls-18" d="M164.49,34.43l-.06-.06.18,0,.06.06Z"/><path class="cls-17" d="M164.67,34.47l-.06-.06.22.1.06.06Z"/><path class="cls-16" d="M164.9,34.57l-.07-.06.07,0a4.65,4.65,0,0,1,.66.6,4.11,4.11,0,0,0,.82.62l.06.06a3.78,3.78,0,0,1-.81-.62,4.72,4.72,0,0,0-.67-.6Z"/><path class="cls-17" d="M166.43,35.83l-.06-.06a2.9,2.9,0,0,0,.57.25l.06.06A2.41,2.41,0,0,1,166.43,35.83Z"/><path class="cls-18" d="M167,36.08l-.06-.06a2.07,2.07,0,0,0,.43.1l.06.07A3,3,0,0,1,167,36.08Z"/><path class="cls-19" d="M167.43,36.19l-.07-.07a2.83,2.83,0,0,0,.41,0h0l.06.07h0A2.69,2.69,0,0,1,167.43,36.19Z"/><path class="cls-20" d="M167.84,36.22l-.06-.07a2.49,2.49,0,0,0,.47,0l.06.07Z"/><path class="cls-14" d="M168.31,36.18l-.06-.07.1,0a2,2,0,0,0,.35-.09l.06.06-.34.1Z"/><path class="cls-15" d="M168.76,36.06,168.7,36a1.13,1.13,0,0,0,.78-.78,1.32,1.32,0,0,0-.29-1.35l.06.06a1.32,1.32,0,0,1,.29,1.35,1.14,1.14,0,0,1-.77.78"/><path class="cls-16" d="M166.37,29.54l-.06-.06a1,1,0,0,0,.16.12c.1.07.2.12.3.18l.06.06-.3-.17Z"/><path class="cls-17" d="M166.83,29.84l-.06-.06c.41.24.85.45,1.28.67.64.33,1.32.6,1.95,1l.06.07c-.63-.36-1.3-.64-1.95-1-.43-.21-.86-.43-1.28-.67"/><path class="cls-16" d="M170.06,31.48l-.06-.07.17.1a4.75,4.75,0,0,1,.79.61l.06.07a3.82,3.82,0,0,0-.78-.61l-.18-.1"/><path class="cls-19" d="M167.69,25.25l-.07-.06a4.77,4.77,0,0,1,.76.06l.07.06A4.87,4.87,0,0,0,167.69,25.25Z"/><path class="cls-18" d="M168.45,25.31l-.07-.06a3.72,3.72,0,0,1,.75.17l.07.06A6.74,6.74,0,0,0,168.45,25.31Z"/><path class="cls-17" d="M169.2,25.48l-.06-.06a4.92,4.92,0,0,1,.88.39l.06.07A4.1,4.1,0,0,0,169.2,25.48Z"/><path class="cls-16" d="M170.08,25.88l-.06-.07a5.79,5.79,0,0,1,1.11.86l.06.07a4.86,4.86,0,0,0-1.11-.86"/><path class="cls-15" d="M164.48,31.19l-.06-.07a3.15,3.15,0,0,1-.86-2.88,3.37,3.37,0,0,1,2.25-2.76l.06.06a3.4,3.4,0,0,0-2.25,2.76A3.18,3.18,0,0,0,164.48,31.19Z"/><path class="cls-14" d="M165.87,25.54l-.06-.06a4.91,4.91,0,0,1,.51-.15l.34-.06.06.06-.34.07a3.23,3.23,0,0,0-.51.14"/><path class="cls-20" d="M166.72,25.33l-.06-.06a6,6,0,0,1,.94-.08l.07.06A6,6,0,0,0,166.72,25.33Z"/><path class="cls-19" d="M167.67,25.25l-.07-.06h0l.07.06Z"/><path class="cls-21" d="M167.69,25.25a4.78,4.78,0,0,1,3.5,1.49,2.76,2.76,0,0,1,.6,1,1.05,1.05,0,0,1-.34,1.22,1.14,1.14,0,0,1-.73.24,1.09,1.09,0,0,1-.63-.17,6.18,6.18,0,0,1-.78-.66,2.42,2.42,0,0,0-.76-.51,2.36,2.36,0,0,0-.91-.16,3.08,3.08,0,0,0-.68.07,1,1,0,0,0-.81.82,1,1,0,0,0,.38,1.08c.51.32,1.05.57,1.58.85.7.35,1.45.65,2.12,1.06a3.88,3.88,0,0,1,1.88,3.63,3.37,3.37,0,0,1-2.18,3,5.18,5.18,0,0,1-2.09.43,5.58,5.58,0,0,1-4.21-1.88,1.76,1.76,0,0,1-.49-1.25,1.2,1.2,0,0,1,.37-.8,1.18,1.18,0,0,1,.81-.33,1.2,1.2,0,0,1,.64.19,4.65,4.65,0,0,1,.66.6,3.13,3.13,0,0,0,2.21,1,3,3,0,0,0,.59-.06,1.27,1.27,0,0,0,1.12-.87,1.3,1.3,0,0,0-.41-1.46,7.65,7.65,0,0,0-1.31-.8c-.81-.41-1.67-.72-2.45-1.17a3.25,3.25,0,0,1-1.75-3.55,3.43,3.43,0,0,1,2.76-2.91A6.41,6.41,0,0,1,167.69,25.25Z"/><path class="cls-19" d="M139.07,33.77,139,33.7l.19,0,.06.06Z"/><path class="cls-18" d="M139.26,33.78l-.06-.06.18,0,.07.06Z"/><path class="cls-17" d="M139.45,33.82l-.06-.06.18.08.06.06Z"/><path class="cls-16" d="M139.63,33.9l-.06-.06.18.14.06.06A1.24,1.24,0,0,0,139.63,33.9Z"/><path class="cls-15" d="M138.8,37.35l-.07-.07a3.43,3.43,0,0,1-1-2.11,1.27,1.27,0,0,1,.8-1.39l.06.07a1.25,1.25,0,0,0-.8,1.38A3.5,3.5,0,0,0,138.8,37.35Z"/><path class="cls-14" d="M138.6,33.85l-.07-.07.24-.06.06.07A.86.86,0,0,0,138.6,33.85Z"/><path class="cls-20" d="M138.83,33.79l-.06-.07.23,0,.07.07A1,1,0,0,0,138.83,33.79Z"/><path class="cls-19" d="M139.07,33.77,139,33.7h0l.06.07Z"/><path class="cls-19" d="M144.8,25.44l-.07-.06.21,0,.06.06Z"/><path class="cls-18" d="M145,25.46l-.06-.06.2,0,.06.06Z"/><path class="cls-17" d="M145.2,25.5l-.06-.06a.88.88,0,0,1,.22.1l.07.06Z"/><path class="cls-16" d="M145.43,25.6l-.07-.06a1.08,1.08,0,0,1,.24.18l.06.06a1.3,1.3,0,0,0-.23-.18"/><path class="cls-16" d="M140.68,35.62l-.07-.07a1.42,1.42,0,0,0,.28.22l.07.06A1.21,1.21,0,0,1,140.68,35.62Z"/><path class="cls-17" d="M141,35.83l-.07-.06.27.12.07.06A1.11,1.11,0,0,1,141,35.83Z"/><path class="cls-18" d="M141.23,36l-.07-.06.27.06.07.06A1.07,1.07,0,0,1,141.23,36Z"/><path class="cls-19" d="M141.5,36l-.07-.06a1.83,1.83,0,0,0,.33,0h0l.06.07h0A1.66,1.66,0,0,1,141.5,36Z"/><path class="cls-20" d="M141.83,36l-.06-.07h.29l.11,0,.07.07h-.12l-.29,0"/><path class="cls-14" d="M142.23,36l-.06-.07a1.28,1.28,0,0,0,.28-.07l.06.07Z"/><path class="cls-15" d="M142.51,35.94l-.06-.07a1.4,1.4,0,0,0,.9-1.14,7.16,7.16,0,0,0,.1-1.31c0-2.11,0-4.21,0-6.32a3.56,3.56,0,0,1,.08-.8,1.13,1.13,0,0,1,.72-.84l.06.06a1.13,1.13,0,0,0-.72.85,3.47,3.47,0,0,0-.07.79c0,2.11,0,4.22,0,6.32a6.38,6.38,0,0,1-.11,1.31,1.42,1.42,0,0,1-.89,1.15"/><path class="cls-14" d="M144.32,25.52l-.06-.06.23-.06.07.06A1.05,1.05,0,0,0,144.32,25.52Z"/><path class="cls-20" d="M144.56,25.46l-.07-.06.14,0h.1l.06.07h-.23Z"/><path class="cls-19" d="M144.79,25.44l-.06-.06h0l.07.06Z"/><path class="cls-21" d="M144.8,25.44a1.14,1.14,0,0,1,1.13.78,2.51,2.51,0,0,1,.13.82c0,1.23,0,2.46,0,3.69s0,2.4,0,3.59a6.21,6.21,0,0,1-.21,1.36A3.39,3.39,0,0,1,143,38.37a6.14,6.14,0,0,1-1.29.13,3.93,3.93,0,0,1-2.73-1,3.46,3.46,0,0,1-1.18-2.28,1.25,1.25,0,0,1,1.27-1.46,1,1,0,0,1,1,.59c.11.23.19.47.3.71a1.49,1.49,0,0,0,1.51,1l.29,0a1.38,1.38,0,0,0,1.29-1.23,6.34,6.34,0,0,0,.11-1.3c0-2.11,0-4.22,0-6.33a3.52,3.52,0,0,1,.07-.79,1.14,1.14,0,0,1,1.09-.92Z"/><path class="cls-19" d="M137.87,25.44l-.06-.07.18,0,.06.06Z"/><path class="cls-18" d="M138.05,25.45l-.06-.06.21.05.06.06-.21-.05"/><path class="cls-17" d="M138.26,25.5l-.06-.06a1,1,0,0,1,.22.09l.07,0,.06.06-.07,0Z"/><path class="cls-16" d="M138.55,25.63l-.06-.06a1.57,1.57,0,0,1,.26.19l.06.07A1,1,0,0,0,138.55,25.63Z"/><path class="cls-15" d="M134,30.72l-.06-.06.58-1,2-3.41c.08-.12.15-.24.23-.35a1.39,1.39,0,0,1,.63-.49l.06.06a1.44,1.44,0,0,0-.63.49c-.08.11-.15.23-.22.35l-2,3.41-.59,1"/><path class="cls-14" d="M137.49,25.5l-.07-.06.2-.05.07.06Z"/><path class="cls-20" d="M137.69,25.45l-.07-.06.18,0,.07.07Z"/><path class="cls-19" d="M137.86,25.44l-.06-.07h0l.06.07Z"/><path class="cls-15" d="M133.14,38.2l-.06-.06a1.24,1.24,0,0,1-.31-.5,2.58,2.58,0,0,1-.11-.73c0-1.12,0-2.25,0-3.37a1.17,1.17,0,0,0-.16-.57c-1.09-1.77-2.19-3.52-3.28-5.29a3.23,3.23,0,0,1-.39-.94,1.09,1.09,0,0,1,.66-1.23l.14-.05.06.06-.14.05a1.1,1.1,0,0,0-.66,1.23,3.23,3.23,0,0,0,.39.94c1.09,1.77,2.2,3.53,3.28,5.29a1.15,1.15,0,0,1,.17.57c0,1.12,0,2.25,0,3.37a2.46,2.46,0,0,0,.1.72,1.4,1.4,0,0,0,.31.51"/><path class="cls-14" d="M129.68,25.52l-.06-.07.24-.06.07.06-.25.07"/><path class="cls-20" d="M129.92,25.45l-.06-.06h.2l.06.06Z"/><path class="cls-19" d="M130.12,25.44l-.06-.06h.18l.06.06h-.18Z"/><path class="cls-18" d="M130.3,25.45l-.06-.06.19,0,.06.06Z"/><path class="cls-17" d="M130.49,25.49l-.07-.06a1.45,1.45,0,0,1,.22.09l.06.07-.21-.1"/><path class="cls-16" d="M130.7,25.59l-.06-.06a1.08,1.08,0,0,1,.24.18l.06.06A1.08,1.08,0,0,0,130.7,25.59Z"/><path class="cls-21" d="M137.87,25.44a1.31,1.31,0,0,1,.61.15,1.15,1.15,0,0,1,.58,1.47,3.07,3.07,0,0,1-.31.63c-1.09,1.77-2.2,3.52-3.28,5.29a1.66,1.66,0,0,0-.21.75c0,1.06,0,2.12,0,3.18a2.54,2.54,0,0,1-.06.67,1.2,1.2,0,0,1-1.16,1H134a1.26,1.26,0,0,1-.71-.24,1.21,1.21,0,0,1-.44-.62,2.46,2.46,0,0,1-.1-.72c0-1.12,0-2.25,0-3.37a1.18,1.18,0,0,0-.17-.57c-1.08-1.76-2.19-3.52-3.28-5.29a3.12,3.12,0,0,1-.39-.94,1.1,1.1,0,0,1,.67-1.23,1.44,1.44,0,0,1,.58-.13,1.1,1.1,0,0,1,.47.1,1.08,1.08,0,0,1,.39.28,3.45,3.45,0,0,1,.35.5l2.47,4.1.19.3.59-1,2-3.41c.07-.12.14-.24.22-.35A1.26,1.26,0,0,1,137.87,25.44Z"/><path class="cls-19" d="M161.15,25.41l-.06-.06.25,0,.06.06Z"/><path class="cls-18" d="M161.4,25.43l-.06-.06a.8.8,0,0,1,.21.05l.06.06Z"/><path class="cls-17" d="M161.61,25.48l-.06-.06a1,1,0,0,1,.21.09l.06.06A1,1,0,0,0,161.61,25.48Z"/><path class="cls-16" d="M161.82,25.57l-.06-.06a1,1,0,0,1,.2.16l.06.06A1.56,1.56,0,0,0,161.82,25.57Z"/><path class="cls-15" d="M160.24,29.8l-.07-.06a1.28,1.28,0,0,1-.24-.39,2.53,2.53,0,0,1-.17-.64c0-.71,0-1.41,0-2.12a1.23,1.23,0,0,1,.79-1.16l.06.07a1.2,1.2,0,0,0-.78,1.16c-.05.7,0,1.41,0,2.11a1.9,1.9,0,0,0,.17.65A1,1,0,0,0,160.24,29.8Z"/><path class="cls-14" d="M160.61,25.5l-.06-.07.24-.06.06.07A1.05,1.05,0,0,0,160.61,25.5Z"/><path class="cls-20" d="M160.85,25.44l-.06-.07h.29l.06.06H161Z"/><path class="cls-19" d="M161.14,25.41l-.06-.06h0l.07.06Z"/><path class="cls-21" d="M161.15,25.41c.81,0,1.26.51,1.25,1.54a8,8,0,0,1-.69,2.55.89.89,0,0,1-.84.55h-.06a.88.88,0,0,1-.81-.63,2.15,2.15,0,0,1-.17-.65c0-.7-.05-1.41,0-2.11A1.2,1.2,0,0,1,161,25.42Z"/></svg>