<svg xmlns="http://www.w3.org/2000/svg" width="97" height="97">
    <defs>
        <style>
            .cls-1{fill:#fff}
        </style>
    </defs>
    <g id="attendees" transform="translate(-399 -1018)">
        <path id="Path_283" data-name="Path 283" class="cls-1" d="M1558.033 1650.519a1.416 1.416 0 0 0-1.961.373 4.651 4.651 0 0 1-3.8 1.937 4.519 4.519 0 0 1-3.285-1.878 1.412 1.412 0 1 0-2.329 1.6 7.347 7.347 0 0 0 5.46 3.1c.128.007.254.011.378.011a7.6 7.6 0 0 0 5.916-3.189 1.407 1.407 0 0 0-.379-1.954z" transform="translate(-1104.989 -550.078)"/>
        <path id="Path_284" data-name="Path 284" class="cls-1" d="M1577.825 1623.629a1.412 1.412 0 0 0-1.412 1.413v4.341a1.413 1.413 0 1 0 2.825 0v-4.341a1.413 1.413 0 0 0-1.413-1.413z" transform="translate(-1120.863 -535.979)"/>
        <path id="Path_285" data-name="Path 285" class="cls-1" d="M1537.825 1623.629a1.412 1.412 0 0 0-1.413 1.413v4.341a1.413 1.413 0 0 0 2.825 0v-4.341a1.413 1.413 0 0 0-1.412-1.413z" transform="translate(-1099.698 -535.979)"/>
        <path id="Path_286" data-name="Path 286" class="cls-1" d="M1555.132 1577.9a1.413 1.413 0 0 0 0-2.325c-1.578-1.09-9.64-6.528-13.36-6.528a7.659 7.659 0 0 0-7.1 4.734 23.984 23.984 0 0 0-17.2 0 7.658 7.658 0 0 0-7.1-4.734c-3.72 0-11.781 5.438-13.359 6.528a1.413 1.413 0 0 0 0 2.325 71.7 71.7 0 0 0 8.879 5.208 23.287 23.287 0 0 0-3.391 8.335 6.992 6.992 0 0 0 .144 13.8c3.528 10.88 11.738 16.856 23.22 16.856 12.3 0 20.456-5.825 23.659-16.862a6.992 6.992 0 0 0 .111-13.794 23.28 23.28 0 0 0-3.391-8.335 71.723 71.723 0 0 0 8.888-5.208zm-13.36-6.027c1.861 0 6.555 2.637 10 4.861a56.743 56.743 0 0 1-7.25 4.053 24.258 24.258 0 0 0-7.276-5.841 4.845 4.845 0 0 1 4.527-3.076zm1.178 11.453.052.067a20.586 20.586 0 0 1 3.729 7.951c-6.516-.177-11.813-3.334-14.7-8.828a1.413 1.413 0 0 0-2.378-.195c-5.13 6.8-13.919 10.1-24.27 9.179a20.571 20.571 0 0 1 3.763-8.107l.052-.066a21.28 21.28 0 0 1 33.748 0zm-42.573-6.593c3.446-2.224 8.141-4.861 10-4.861a4.845 4.845 0 0 1 4.523 3.073 24.262 24.262 0 0 0-7.276 5.841 56.639 56.639 0 0 1-7.246-4.055zm52.228 21.6a4.18 4.18 0 0 1-4.176 4.176c-.028 0-.054.007-.083.009a1.37 1.37 0 0 0-.171.017c-.037.007-.071.017-.106.026a1.372 1.372 0 0 0-.157.049c-.035.014-.068.031-.1.047a1.426 1.426 0 0 0-.14.076c-.032.02-.061.043-.09.066a1.44 1.44 0 0 0-.122.1c-.028.026-.052.056-.078.084a1.373 1.373 0 0 0-.1.118c-.026.036-.047.074-.069.112s-.047.079-.066.121a1.4 1.4 0 0 0-.054.146c-.01.03-.024.056-.032.087-2.681 10.421-9.81 15.7-21.188 15.7-13.379 0-18.693-8.565-20.8-15.75-.008-.024-.02-.046-.029-.07a1.4 1.4 0 0 0-.056-.14 1.315 1.315 0 0 0-.064-.118 1.23 1.23 0 0 0-.165-.222 1.301 1.301 0 0 0-.091-.091 1.383 1.383 0 0 0-.109-.09 1.552 1.552 0 0 0-.232-.141 1.23 1.23 0 0 0-.116-.05 1.455 1.455 0 0 0-.145-.045 1.4 1.4 0 0 0-.116-.025 1.281 1.281 0 0 0-.165-.016c-.023 0-.044-.007-.067-.007a4.174 4.174 0 0 1-.053-8.349 41.62 41.62 0 0 0 5.086.321c8.976 0 16.679-3.1 21.839-8.857 3.832 5.789 10.22 8.868 17.833 8.533a4.18 4.18 0 0 1 4.183 4.18z" transform="translate(-1078.533 -507.097)"/>
        <path id="Path_287" data-name="Path 287" class="cls-1" d="M1480.078 1516.469c9.981 0 16.624-4.7 19.273-13.612a5.913 5.913 0 0 0 .1-11.6 18.921 18.921 0 0 0-.9-3.076 19.661 19.661 0 0 0-37.524 3.078 5.912 5.912 0 0 0 .135 11.6c2.91 8.788 9.593 13.61 18.916 13.61zm.163-37.932a16.892 16.892 0 0 1 15.076 9.3c-2.326.679-4.24.655-5.691-.094-1.892-.978-3.273-3.265-4.223-6.993a1.413 1.413 0 0 0-2.6-.349c-3.992 7.041-9.911 9.51-17.6 7.36a16.894 16.894 0 0 1 15.038-9.224zm-21.1 18.512a3.093 3.093 0 0 1 3.089-3.089h.046c.043 0 .084-.007.126-.013a1.315 1.315 0 0 0 .158-.026c.033-.008.064-.019.1-.03a1.411 1.411 0 0 0 .167-.062c.026-.012.05-.028.076-.042a1.423 1.423 0 0 0 .156-.1c.025-.018.048-.039.072-.059a1.4 1.4 0 0 0 .128-.117c.025-.026.046-.056.069-.083a1.37 1.37 0 0 0 .1-.128c.022-.033.039-.07.057-.105a1.515 1.515 0 0 0 .066-.138c.015-.038.025-.079.037-.119a1.4 1.4 0 0 0 .038-.152c0-.013.007-.026.009-.039a16.15 16.15 0 0 1 .52-2.344 22.138 22.138 0 0 0 6.191.952c5.336 0 9.821-2.352 13.253-6.979 1.141 2.9 2.7 4.833 4.735 5.882 2.172 1.122 4.868 1.2 8.028.229a16.185 16.185 0 0 1 .493 2.26c0 .015.008.028.01.042.007.042.018.082.029.123s.026.093.043.138.031.073.048.109a1.28 1.28 0 0 0 .07.129c.02.032.041.063.063.093a1.458 1.458 0 0 0 .1.115c.025.028.05.054.077.079a1.4 1.4 0 0 0 .115.095c.03.022.059.045.09.065a1.49 1.49 0 0 0 .135.073c.032.016.063.033.1.047a1.476 1.476 0 0 0 .168.052c.028.007.055.018.084.024a1.419 1.419 0 0 0 .27.027 3.089 3.089 0 0 1 0 6.179c-.029 0-.057.007-.086.009a1.408 1.408 0 0 0-.167.017c-.038.007-.074.018-.111.028a1.415 1.415 0 0 0-.153.047 1.684 1.684 0 0 0-.105.049 1.378 1.378 0 0 0-.136.074c-.033.021-.062.044-.093.068a1.416 1.416 0 0 0-.12.1c-.028.027-.054.057-.08.086a1.478 1.478 0 0 0-.1.117 1.418 1.418 0 0 0-.069.113 1.34 1.34 0 0 0-.066.121 1.36 1.36 0 0 0-.053.146c-.01.03-.025.057-.032.088-2.125 8.258-7.778 12.444-16.8 12.444-10.607 0-14.822-6.792-16.489-12.49-.007-.025-.02-.046-.028-.071a1.391 1.391 0 0 0-.057-.14 1.199 1.199 0 0 0-.064-.117 1.323 1.323 0 0 0-.075-.113 1.261 1.261 0 0 0-.09-.11 1.513 1.513 0 0 0-.089-.09 1.409 1.409 0 0 0-.112-.093 2.021 2.021 0 0 0-.1-.07 1.466 1.466 0 0 0-.131-.071 1.346 1.346 0 0 0-.11-.047 1.376 1.376 0 0 0-.152-.047 1.298 1.298 0 0 0-.108-.024 1.4 1.4 0 0 0-.172-.017c-.022 0-.042-.006-.064-.006a3.093 3.093 0 0 1-3.101-3.089z" transform="translate(-1057.319 -457.712)"/>
        <path id="Path_288" data-name="Path 288" class="cls-1" d="M1500.925 1540.66c.105.006.209.009.312.009a6.311 6.311 0 0 0 5-2.689 1.413 1.413 0 0 0-2.341-1.583 3.476 3.476 0 0 1-2.818 1.442 3.359 3.359 0 0 1-2.436-1.4 1.413 1.413 0 1 0-2.328 1.6 6.209 6.209 0 0 0 4.611 2.621z" transform="translate(-1078.35 -489.498)"/>
        <path id="Path_289" data-name="Path 289" class="cls-1" d="M1521.647 1520.635a1.413 1.413 0 0 0 1.412-1.413v-3.5a1.413 1.413 0 1 0-2.825 0v3.5a1.413 1.413 0 0 0 1.413 1.413z" transform="translate(-1091.138 -478.136)"/>
        <path id="Path_290" data-name="Path 290" class="cls-1" d="M1489.424 1520.635a1.413 1.413 0 0 0 1.413-1.413v-3.5a1.413 1.413 0 0 0-2.825 0v3.5a1.413 1.413 0 0 0 1.412 1.413z" transform="translate(-1074.088 -478.136)"/>
        <path id="Path_291" data-name="Path 291" class="cls-1" d="M1610.252 1536.029a1.418 1.418 0 0 0-1.962.368 3.475 3.475 0 0 1-2.818 1.442 3.359 3.359 0 0 1-2.436-1.4 1.413 1.413 0 0 0-2.328 1.6 6.209 6.209 0 0 0 4.609 2.614c.105.006.209.009.312.009a6.31 6.31 0 0 0 5-2.689 1.407 1.407 0 0 0-.377-1.944z" transform="translate(-1133.587 -489.498)"/>
        <path id="Path_292" data-name="Path 292" class="cls-1" d="M1626.04 1514.312a1.413 1.413 0 0 0-1.413 1.413v3.5a1.413 1.413 0 1 0 2.825 0v-3.5a1.413 1.413 0 0 0-1.412-1.413z" transform="translate(-1146.375 -478.136)"/>
        <path id="Path_293" data-name="Path 293" class="cls-1" d="M1593.817 1514.312a1.413 1.413 0 0 0-1.413 1.413v3.5a1.413 1.413 0 1 0 2.825 0v-3.5a1.413 1.413 0 0 0-1.412-1.413z" transform="translate(-1129.325 -478.136)"/>
        <path id="Path_294" data-name="Path 294" class="cls-1" d="M1608.556 1497.049a5.924 5.924 0 0 0-4.709-5.79 19.646 19.646 0 0 0-38.427 0 5.912 5.912 0 0 0 .136 11.6c2.908 8.785 9.592 13.607 18.914 13.607 9.98 0 16.624-4.7 19.273-13.612a5.922 5.922 0 0 0 4.813-5.805zm-23.922-18.512a16.883 16.883 0 0 1 15.366 9.913c-6.878-.445-11.889-2.891-15.263-7.457a1.414 1.414 0 0 0-1.135-.573 1.412 1.412 0 0 0-1.135.572 17.51 17.51 0 0 1-13.193 7.449 16.883 16.883 0 0 1 15.36-9.904zm18.007 21.6c-.029 0-.057.007-.086.009a1.4 1.4 0 0 0-.166.017c-.039.007-.076.018-.114.028a1.456 1.456 0 0 0-.149.046c-.038.015-.073.033-.11.052a1.336 1.336 0 0 0-.132.071c-.034.022-.065.046-.1.071a1.406 1.406 0 0 0-.116.1 1.158 1.158 0 0 0-.082.089 1.334 1.334 0 0 0-.095.114c-.026.036-.048.075-.07.114s-.046.078-.065.12a1.384 1.384 0 0 0-.054.147c-.01.03-.024.057-.032.087-2.125 8.258-7.777 12.444-16.8 12.444-10.608 0-14.822-6.792-16.488-12.49-.008-.025-.02-.046-.029-.071a1.378 1.378 0 0 0-.056-.14c-.02-.04-.041-.079-.064-.118s-.048-.077-.075-.113a1.416 1.416 0 0 0-.091-.11 1.605 1.605 0 0 0-.202-.183c-.039-.029-.067-.047-.1-.069a1.424 1.424 0 0 0-.132-.072 1.491 1.491 0 0 0-.109-.047 1.388 1.388 0 0 0-.153-.047 1.275 1.275 0 0 0-.107-.024 1.4 1.4 0 0 0-.173-.017c-.021 0-.042-.006-.063-.006a3.089 3.089 0 0 1 0-6.179h.046c.043 0 .084-.007.126-.013a1.34 1.34 0 0 0 .159-.026c.032-.008.063-.019.095-.029a1.508 1.508 0 0 0 .168-.062c.026-.012.05-.027.075-.041a1.334 1.334 0 0 0 .158-.1c.024-.018.047-.038.07-.057a1.419 1.419 0 0 0 .13-.118c.025-.026.046-.055.068-.083a1.51 1.51 0 0 0 .1-.128c.021-.033.039-.07.057-.1a1.407 1.407 0 0 0 .067-.139c.015-.038.025-.079.037-.119a1.363 1.363 0 0 0 .038-.152c0-.013.008-.026.01-.039.069-.479.16-.951.27-1.416a20.426 20.426 0 0 0 15.313-7.246c4.03 4.551 9.861 6.978 17.364 7.241q.166.7.271 1.421c0 .015.008.028.01.042a1.252 1.252 0 0 0 .03.123 1.327 1.327 0 0 0 .042.138c.015.037.031.073.049.109a1.383 1.383 0 0 0 .07.129c.02.032.041.063.064.093a1.31 1.31 0 0 0 .1.115.97.97 0 0 0 .078.079 1.455 1.455 0 0 0 .115.095c.03.022.059.045.091.065a1.412 1.412 0 0 0 .135.073c.032.016.063.033.1.047a1.482 1.482 0 0 0 .169.052c.028.007.055.018.084.024a1.422 1.422 0 0 0 .27.027 3.089 3.089 0 0 1 0 6.179z" transform="translate(-1112.556 -457.712)"/>
    </g>
</svg>
