<svg xmlns="http://www.w3.org/2000/svg" width="96.348" height="96.348">
    <defs>
        <style>
            .cls-1{fill:#fff}
        </style>
    </defs>
    <g id="countries" transform="translate(-224.5 -191.502)">
        <path id="Path_295" data-name="Path 295" class="cls-1" d="M272.674 191.5a48.174 48.174 0 1 0 48.174 48.174 48.174 48.174 0 0 0-48.174-48.174zm30.4 78.568a42.985 42.985 0 1 1 12.59-30.394 42.7 42.7 0 0 1-12.595 30.396z"/>
        <path id="Path_296" data-name="Path 296" class="cls-1" d="M291.091 276.443c-1.689-1.014-2.674-2.966-4.207-4.219-1.34-1.1-2.3.29-3.363-1.567-1.049-1.828-4.175-.665-5.209-2.113-1.434-2.059-5.475 5.686-5.475-.539 0-1.641-2.812-.591-2.536-1.536.318-1.091.974-2.077 1.217-3.19.071-.324-.252-.828-.307-.445a6.832 6.832 0 0 1-3.466 2.272c-2.4.651-1.937-2.978-1.366-4.241.611-1.352 2.262-1.4 3.54-1.49 1.433-.1 1.98-.636 2.8.83.316.57.846 1.49 1.629 1.49.115 0-.146-2.748.064-3.232.729-1.679 2.923-1.663 3.629-3.595 1.094-2.95 4.243-2.167 6.394-3.805 1.728-1.316.646-3.541 2.92-3.926-.367 1.458-.393 2.43 1.378 2.286 1.031-.081 3.247-.7 1.808-2.032-1.476-1.374-2.114-9.67-5.12-6.665.371-2.709-1.164-3.529-3.5-2.321-1.422.735-.705.667-.8 1.986-.077 1.205-1.312 2.307-1.931 3.252a9.877 9.877 0 0 0-2.479-2.015 39.262 39.262 0 0 0-14.449 20.344c-.872 2.889-.005 3.377 2.507 4.687a71.864 71.864 0 0 1 6.351 4.328 2.889 2.889 0 0 0 2.993.013 2.831 2.831 0 0 1 .368 2.809c-.6 1.834-1.64 3.712-1.321 5.724a7.266 7.266 0 0 0 3.083 4.629c.833.619 2.276 1.461 1.822 2.449-.328.714.36 2.758.4 3.578.073 1.435.051 2.872.121 4.307.06 1.208.2 2.407.2 3.618a26.7 26.7 0 0 0-.384 2.765c.124.831 1.3.776 1.627 1.48.5 1.044-.558 2.048.153 3.044.648.907 3.065 3.938 4.2 3.975a2.1 2.1 0 0 0 1.874-1.11c.493-.891-1.577-1.4-2.071-1.628-1.4-.642.9-3.107-.808-4.5a1.987 1.987 0 0 0 .568-2.759c.238-.1 1.539-.593 1.361-.882.19.29 1.882-3.767 1.842-3.725 1.189-1.2.137.967.878-.774.346-.813 1.254-1.292 1.3-2.259a7.877 7.877 0 0 1-.1-1.173c.578-.618 1.45-.652 1.917-1.407.328-.529.236-1.375 1.1-1.375 1.076 0 1.473-.979 1.725-1.935.206-.781-.09-1.376.035-2.131a7.858 7.858 0 0 1 1.136-2.263 2.816 2.816 0 0 0-.431-3.594c-.984-1.11-2.436-.708-3.617-1.42z" transform="translate(-27.161 -33.634)"/>
        <path id="Path_297" data-name="Path 297" class="cls-1" d="M530.341 400.363c-.236-.389-.438-.565-.637-.565-.456 0-.548.761-.646 2.015a5.271 5.271 0 0 1-.139 1.061c-1.161.785-1.1 1.88-1.038 3.039.015.288.032.585.032.891a.17.17 0 0 0 .075.138.164.164 0 0 0 .089.026.147.147 0 0 0 .063-.012c.139-.057.268-.116.39-.173a38.923 38.923 0 0 0 2.436-7.172l-.311.375z" transform="translate(-220.085 -150.984)"/>
        <path id="Path_298" data-name="Path 298" class="cls-1" d="M381.606 224.058a39.375 39.375 0 0 0-6.437.53l-.513.089c0 .311 0 .617-.006.922-.067 2.545.853 3.512 2.248 4.973.159.167.326.34.5.524a1.23 1.23 0 0 0 .862.485c.857 0 1.217-1.508 1.476-2.612a5.989 5.989 0 0 1 .211-.758 6.161 6.161 0 0 0 1.323-.715 11.575 11.575 0 0 1 1.3-.727 4.334 4.334 0 0 0 1.409-.937 5.2 5.2 0 0 1 .948-.712 6.509 6.509 0 0 1 .77-.337 4.417 4.417 0 0 0 .882-.409 39.228 39.228 0 0 0-4.973-.316z" transform="translate(-108.932 -23.62)"/>
        <path id="Path_299" data-name="Path 299" class="cls-1" d="M453.052 267.458a39.426 39.426 0 0 0-20.1-27.112c-1.574-.841-1.921 1.548-2.664 2.793-1.364 2.258.154 2.071 2.1 1.6a7.257 7.257 0 0 1-2.125 3.012c-1.257.78-2.761 1.222-3.406 2.7-.279-1.845.978-.9 1.652-1.937s-.332-2.789-.746-3.727c-.29-.658-2.256-3.3-2.373-1.121-.071 1.317 1.9 2.958.2 3.713-1.394.637.6 2.711.992 3.358.408.689.33 2.295.787 3.252a26.793 26.793 0 0 0-3.623-.519c-.531 0 .111 5.086.989 5.592-1.591 1.026-2.162 3.51-3.315 4.906-1.331 1.611-1.389 2.251-1.389 4.334 0 2.423 1.541 3.282 2.247 5.435.717 2.186 3.026 1.927 4.916 1.482a12.867 12.867 0 0 1 2.845-.492c.892 0 1.425 1.145 1.906 1.145.223 0 .529-.7.744-.484.538.539.2 2.181-.092 2.747-.882 1.7 2.125 2.815 2.84 4.419.553 1.246.247 1.931-1.182 2.07-.879.125.4 3.659.562 4.076.3.783 1.036 1.948.914 2.83-.109.788-.671 1.716.158 2.339 1.218.915.556 2.145 1.764 2.145 2.8 0 5.536-.741 6.745-3.783.539-1.355 1.5-1.21 1.885-2.254.623-1.672-1.333-3.3 1.35-3.3 2.367 0 1.237-6.3 1.237-7.457 0-.637.4-.467.821-.467 1.045 0 1.52-1.868 1.922-2.6.542-.99 1.754-1.625 2.123-2.686a38.651 38.651 0 0 0-.684-6.009zm-13.677-7.268c-1.915 0-1.665 1.188-3.524.165-.548-.3-1.215-.083-1.787-.295-1.637-.623.62-2.09.058-2.992-.823-1.326-6.559 1.169-7.827 1.459a12.539 12.539 0 0 0 3.387-2.672c.612-.773.377-2.353 1.439-2.353a4.52 4.52 0 0 1 3.1 1.1c.365.3.811.494.888 1.015.112.766-.754 1.266-.7 1.421.317.777 1.856-.793 1.911-.994 1.133 1.589 2.315.979 3.459-.285 1.764 2.269 2.76.679 5.154 1.269.978.241-.853 3.783-1.086 4.314-1.231-1.294-2.847-1.152-4.472-1.152zm5.317 1.851-.565-.458q.224-.283.47-.548.34.727.674 1.456zm7.181 9.15c-2.323-.234-3.087-1.481-4.155-3.525-.712-1.363-.391-2.986-1.337-4.12.878.249 1.9 2.7 2.343 3.432a20.379 20.379 0 0 1 1.1 3.212c.215.108.251-.441.464-.441.791 0 1.244 1.069 2.153.98z" transform="translate(-141.865 -35.309)"/>
        <path id="Path_300" data-name="Path 300" class="cls-1" d="M535.867 353.078c.121-.077-.17-.017 0 0z" transform="translate(-225.859 -117.197)"/>
        <path id="Path_301" data-name="Path 301" class="cls-1" d="M540.207 339.062c.386 1.969-.184-.951 0 0z" transform="translate(-229.02 -106.913)"/>
        <path id="Path_302" data-name="Path 302" class="cls-1" d="M506.774 317.178c.043-.1 0 0 0 0z" transform="translate(-204.791 -91.147)"/>
        <path id="Path_303" data-name="Path 303" class="cls-1" d="M428.5 264.609a.42.42 0 0 0 .215.416.375.375 0 0 0 .171.117l.177.082.209.1c.089.041.093.043.129.043a.271.271 0 0 0 .034 0 2.151 2.151 0 0 0 .571.078c.855 0 1.519-.524 1.519-.975a.421.421 0 0 0-.206-.362.946.946 0 0 0-.5-.115c-.019-.004-2.184.033-2.319.616z" transform="translate(-148.001 -52.59)"/>
        <path id="Path_304" data-name="Path 304" class="cls-1" d="M418.136 236.186a.165.165 0 0 0 .156.113c.04 0 .04 0 .4-.181a.4.4 0 0 1 .182-.04 1.47 1.47 0 0 1 .607.208 1.039 1.039 0 0 0 .425.153.288.288 0 0 0 .127-.029c.17-.085.24-.12-.541-2.316a13.93 13.93 0 0 1-.128-.363.667.667 0 0 0-.726-.429 3.763 3.763 0 0 0-.5.046 3.061 3.061 0 0 1-.368.036c-.345 0-.634-.011-.89-.021-.189-.007-.354-.014-.5-.014-.362 0-.732.029-.923.381a3.481 3.481 0 0 0-.178 1.5.164.164 0 0 0 .093.148.161.161 0 0 0 .072.017.167.167 0 0 0 .1-.035 1.12 1.12 0 0 1 .688-.283 1.8 1.8 0 0 1 1.059.576 2.2 2.2 0 0 0 .845.533z" transform="translate(-138.412 -30.325)"/>
        <path id="Path_305" data-name="Path 305" class="cls-1" d="M348.44 232.184c.239-.017.467-.032.686-.032a3.109 3.109 0 0 1 .43.026.071.071 0 0 0 .023 0 .165.165 0 0 0 .118-.277c-.055-.06-.127-.15-.217-.254a16.94 16.94 0 0 0-.392-.461c-.5.161-.986.334-1.47.516q-.463.173-.917.355a2.72 2.72 0 0 0 1.006.156c.243.002.493-.013.733-.029z" transform="translate(-88.658 -28.793)"/>
        <path id="Path_306" data-name="Path 306" class="cls-1" d="M359.441 228.827a.522.522 0 0 0 .3-.317.045.045 0 0 0 .006-.02c-.285.072-.571.15-.853.228-.338.092-.669.19-1 .3.112.006.228.009.34.009a3.037 3.037 0 0 0 1.207-.2z" transform="translate(-96.773 -26.835)"/>
        <path id="Path_307" data-name="Path 307" class="cls-1" d="m354.6 230.177-.219-.017a.966.966 0 0 1 .081.078c.029.026.058.055.084.084a1.506 1.506 0 0 1 .115.121c.225-.078.453-.15.681-.216-.251-.013-.502-.033-.742-.05z" transform="translate(-94.228 -28.047)"/>
    </g>
</svg>
