<svg xmlns="http://www.w3.org/2000/svg" width="210" height="173">
    <defs>
        <clipPath id="clip-path">
            <path id="Rectangle_155" data-name="Rectangle 155" transform="translate(856 1491)" style="stroke:#707070;fill:#fff" d="M0 0h210v173H0z"/>
        </clipPath>
        <style>
            .cls-4{fill:#fff}
        </style>
    </defs>
    <g id="easy_access" transform="translate(-856 -1464)">
        <g id="Mask_Group_20" data-name="Mask Group 20" transform="translate(0 -27)" style="clip-path:url(#clip-path)">
            <g id="Group_268" data-name="Group 268" transform="translate(.72)">
                <path id="Path_469" data-name="Path 469" d="M96.54-15.339c55.239 0 93.2 18.956 93.2 59.639s-41.156 101.3-96.4 101.3S-7.1 105.3-7.1 64.619 41.3-15.339 96.54-15.339z" transform="rotate(20.97 -3558.661 3167.27)" style="fill:#b56fcd"/>
                <g id="Group_204" data-name="Group 204" transform="translate(904.197 1545)">
                    <path id="Path_441" data-name="Path 441" class="cls-4" d="M904.87 134.757h-3.807V99.618a3.4 3.4 0 0 0-3.4-3.4h-52.7a3.391 3.391 0 0 0-3.4 3.4v28.087a18.031 18.031 0 0 1 2.454 1.09V98.672h54.594v36.085h-19.997l-.036.143-.371 1.784h-13.816l-.371-1.784-.024-.143h-13.062a20.48 20.48 0 0 1 3.161 6.321h47.542a3.74 3.74 0 0 0 3.652-2.921l.5-2.239a.941.941 0 0 0-.919-1.161z" transform="translate(-793.228 -95.069)"/>
                    <path id="Path_442" data-name="Path 442" class="cls-4" d="M891.932 114.093a7.95 7.95 0 1 0-7.95 7.95 7.953 7.953 0 0 0 7.95-7.95zm-13.613 0a5.663 5.663 0 1 1 5.663 5.663 5.674 5.674 0 0 1-5.662-5.663z" transform="translate(-805.911 -98.72)"/>
                    <path id="Path_443" data-name="Path 443" class="cls-4" d="M869.025 140.928v2.357h2.455v-2.455a4.6 4.6 0 0 1 4.586-4.488h10.684a4.581 4.581 0 0 1 4.576 4.488v2.455h2.465v-2.357a7.041 7.041 0 0 0-7.041-7.041h-10.684a7.041 7.041 0 0 0-7.041 7.041z" transform="translate(-803.333 -108.928)"/>
                    <path id="Rectangle_119" data-name="Rectangle 119" class="cls-4" transform="translate(91.969 8.399)" d="M0 0h9.875v1.844H0z"/>
                    <path id="Rectangle_120" data-name="Rectangle 120" class="cls-4" transform="translate(95.494 12.736)" d="M0 0h6.35v1.843H0z"/>
                    <path id="Path_444" data-name="Path 444" class="cls-4" d="M813.427 153.856a15.208 15.208 0 0 0-7.064-1.724h-25.955a15.334 15.334 0 0 0-15.313 15.313v12.1h3.843v-12.1a11.476 11.476 0 0 1 11.47-11.458h25.956a12.089 12.089 0 0 1 2.3.228 11.453 11.453 0 0 1 9.159 11.23v12.1h3.855v-12.1a15.066 15.066 0 0 0-1.15-5.795 15.383 15.383 0 0 0-7.101-7.794z" transform="translate(-765.095 -115.641)"/>
                    <path id="Path_445" data-name="Path 445" class="cls-4" d="M791.469 125.767a16.807 16.807 0 0 0 17.132 0 16.851 16.851 0 1 0-17.132 0zm8.572-27.524a13.008 13.008 0 1 1-13.014 13.014 13.016 13.016 0 0 1 13.014-13.014z" transform="translate(-771.75 -94.4)"/>
                </g>
            </g>
        </g>
    </g>
</svg>
