<svg xmlns="http://www.w3.org/2000/svg" width="94.988" height="99.425">
    <defs>
        <style>
            .cls-1{fill:#fff}
        </style>
    </defs>
    <g id="for_all_ages" transform="translate(-856.761 -677.98)">
        <path id="Path_308" data-name="Path 308" class="cls-1" d="m1579.281 829.792.72 1.806a1.122 1.122 0 0 0 1.044.71v.134-.134a1.127 1.127 0 0 0 1.046-1.544l-.72-1.805a1.127 1.127 0 0 0-2.093.834z" transform="translate(-692.427 -144.025)"/>
        <path id="Path_309" data-name="Path 309" class="cls-1" d="M1519.953 680.935a1.123 1.123 0 0 0 1.044.71v.134-.134a1.127 1.127 0 0 0 1.046-1.544l-.562-1.411a1.127 1.127 0 0 0-2.093.834z" transform="translate(-635.025)"/>
        <path id="Path_310" data-name="Path 310" class="cls-1" d="M2896.387 1405.622v.134-.134a1.119 1.119 0 0 0 .417-.08l2.907-1.159a1.127 1.127 0 1 0-.835-2.093l-2.906 1.159a1.127 1.127 0 0 0 .415 2.173z" transform="translate(-1953.815 -694.143)"/>
        <path id="Path_311" data-name="Path 311" class="cls-1" d="M3063.813 1353.58a1.125 1.125 0 0 0-1.464-.629l-1.185.473a1.127 1.127 0 0 0 .414 2.173v.134-.134a1.122 1.122 0 0 0 .417-.08l1.185-.472a1.127 1.127 0 0 0 .629-1.464z" transform="translate(-2112.145 -646.853)"/>
        <path id="Path_312" data-name="Path 312" class="cls-1" d="M2362.216 836.679a1.12 1.12 0 0 0 .442.092v.134-.134a1.126 1.126 0 0 0 1.035-.682l.884-2.055a1.126 1.126 0 1 0-2.07-.89l-.884 2.055a1.127 1.127 0 0 0 .59 1.48z" transform="translate(-1442.259 -148.064)"/>
        <path id="Path_313" data-name="Path 313" class="cls-1" d="M2432.948 693.625a1.118 1.118 0 0 0 .441.092v.134-.134a1.127 1.127 0 0 0 1.036-.682l.484-1.127a1.126 1.126 0 1 0-2.069-.89l-.485 1.127a1.129 1.129 0 0 0 .593 1.48z" transform="translate(-1510.053 -11.843)"/>
        <path id="Path_314" data-name="Path 314" class="cls-1" d="M859.611 1326.041v.134-.134a1.127 1.127 0 0 0 .445-2.161l-1.726-.742a1.127 1.127 0 1 0-.89 2.07l1.726.742a1.111 1.111 0 0 0 .445.091z" transform="translate(0 -618.267)"/>
        <path id="Path_315" data-name="Path 315" class="cls-1" d="m1002.079 1387.393 1.951.839a1.121 1.121 0 0 0 .442.092v.134-.134a1.127 1.127 0 0 0 .446-2.162l-1.951-.839a1.126 1.126 0 1 0-.89 2.07z" transform="translate(-138.628 -677.869)"/>
        <path id="Path_316" data-name="Path 316" class="cls-1" d="M1237.825 1069.472a1.119 1.119 0 0 0 .8.332v.134-.134a1.127 1.127 0 0 0 .8-1.921l-5.267-5.292a1.126 1.126 0 1 0-1.6 1.589z" transform="translate(-359.871 -368.314)"/>
        <path id="Path_317" data-name="Path 317" class="cls-1" d="M2578.466 1073.316v.134-.134a1.118 1.118 0 0 0 .794-.328l5.293-5.267a1.127 1.127 0 0 0-1.59-1.6l-5.292 5.267a1.127 1.127 0 0 0 .792 1.925z" transform="translate(-1649.102 -371.705)"/>
        <path id="Path_318" data-name="Path 318" class="cls-1" d="M1969.9 768.784v.134-.134a1.128 1.128 0 0 0 1.126-1.124l.018-7.467a1.127 1.127 0 0 0-2.253-.005l-.018 7.467a1.126 1.126 0 0 0 1.124 1.129z" transform="translate(-1065.821 -77.716)"/>
        <path id="Path_319" data-name="Path 319" class="cls-1" d="M925.5 1798.895a1.126 1.126 0 0 0 1.124 1.129l7.467.018v.134-.134a1.127 1.127 0 0 0 0-2.253l-7.467-.018a1.129 1.129 0 0 0-1.124 1.124z" transform="translate(-65.881 -1073.271)"/>
        <path id="Path_320" data-name="Path 320" class="cls-1" d="m2829.308 1804.6 7.467.018v.134-.134a1.127 1.127 0 0 0 0-2.253l-7.466-.018a1.127 1.127 0 1 0-.006 2.253z" transform="translate(-1889.524 -1077.652)"/>
        <path id="Path_321" data-name="Path 321" class="cls-1" d="M1724.509 1151.688a11.673 11.673 0 1 0-11.673-11.673 11.686 11.686 0 0 0 11.673 11.673zm0-21.159a9.486 9.486 0 1 1-9.485 9.485 9.5 9.5 0 0 1 9.485-9.484z" transform="translate(-820.511 -431.652)"/>
        <path id="Path_322" data-name="Path 322" class="cls-1" d="M2212.233 1865.58a11.673 11.673 0 1 0 11.674 11.673 11.686 11.686 0 0 0-11.674-11.673zm0 21.159a9.486 9.486 0 1 1 9.486-9.486 9.5 9.5 0 0 1-9.486 9.486z" transform="translate(-1287.973 -1138.263)"/>
        <path id="Path_323" data-name="Path 323" class="cls-1" d="M1238.528 1888.926a11.673 11.673 0 1 0-11.673-11.673 11.686 11.686 0 0 0 11.673 11.673zm0-21.159a9.486 9.486 0 1 1-9.486 9.486 9.5 9.5 0 0 1 9.486-9.486z" transform="translate(-354.719 -1138.263)"/>
        <path id="Path_324" data-name="Path 324" class="cls-1" d="M978.665 2036.718a5.3 5.3 0 0 0-5.3 5.3c0 5.951-3.977 14.775-12.51 14.813H956c-8.543-.038-12.523-8.862-12.523-14.813a5.3 5.3 0 1 0-10.591 0c0 .284.006.59.019.963a17.711 17.711 0 0 1-3.289 9.018 11.3 11.3 0 0 1-9.2 4.814h-4.861c-8.536-.038-12.513-8.861-12.513-14.812a5.3 5.3 0 1 0-10.591 0 33.338 33.338 0 0 0 2.457 12.334 24.8 24.8 0 0 0 3.351 5.847 17.821 17.821 0 0 0 5.062 4.48 1.069 1.069 0 0 0 .169.079 4.308 4.308 0 0 1 2 2.452 20.5 20.5 0 0 1 1.271 4.759 47.414 47.414 0 0 1 .557 6.643 1.074 1.074 0 1 0 2.147 0 48.722 48.722 0 0 0-.58-6.961 22.672 22.672 0 0 0-1.42-5.283 6.277 6.277 0 0 0-3.126-3.582l-.02-.01c-6.679-3.936-9.721-13.517-9.721-20.756a3.149 3.149 0 1 1 6.3 0 19.006 19.006 0 0 0 .819 5.314 19.749 19.749 0 0 0 2.566 5.472 14.517 14.517 0 0 0 4.562 4.371 13.088 13.088 0 0 0 6.721 1.8h4.86a13.08 13.08 0 0 0 6.715-1.8 14.525 14.525 0 0 0 4.562-4.371 19.08 19.08 0 0 0 1.977-3.766 32.133 32.133 0 0 0 1.663 5.331 27.06 27.06 0 0 0 1.586 3.227 16.349 16.349 0 0 1-5.272 5.181l-.02.01a6.284 6.284 0 0 0-3.12 3.579 22.677 22.677 0 0 0-1.419 5.283 48.713 48.713 0 0 0-.58 6.961 1.073 1.073 0 1 0 2.147 0 47.614 47.614 0 0 1 .556-6.643 20.517 20.517 0 0 1 1.271-4.76 4.377 4.377 0 0 1 2-2.451 1.065 1.065 0 0 0 .172-.08 17.826 17.826 0 0 0 5.063-4.48c.146-.186.3-.394.478-.637.161.223.326.443.492.654a17.819 17.819 0 0 0 5.062 4.48 1.059 1.059 0 0 0 .167.078 4.371 4.371 0 0 1 2 2.453 20.5 20.5 0 0 1 1.271 4.759 47.569 47.569 0 0 1 .556 6.64 1.073 1.073 0 1 0 2.147 0 48.688 48.688 0 0 0-.58-6.961 22.673 22.673 0 0 0-1.42-5.283 6.279 6.279 0 0 0-3.127-3.583l-.019-.01c-6.679-3.937-9.721-13.517-9.721-20.757a3.149 3.149 0 0 1 6.3 0 19.025 19.025 0 0 0 .818 5.315 19.774 19.774 0 0 0 2.566 5.472 14.52 14.52 0 0 0 4.562 4.37 13.078 13.078 0 0 0 6.717 1.8h4.86a13.08 13.08 0 0 0 6.718-1.8 14.512 14.512 0 0 0 4.562-4.37 19.761 19.761 0 0 0 2.566-5.472 19.014 19.014 0 0 0 .819-5.315 3.149 3.149 0 0 1 6.3 0c0 7.243-3.045 16.828-9.725 20.76l-.022.01a6.285 6.285 0 0 0-3.12 3.579 22.67 22.67 0 0 0-1.42 5.283 48.714 48.714 0 0 0-.58 6.961 1.074 1.074 0 0 0 2.147 0 47.437 47.437 0 0 1 .557-6.643 20.5 20.5 0 0 1 1.271-4.759 4.393 4.393 0 0 1 1.995-2.45 1.075 1.075 0 0 0 .175-.081 17.829 17.829 0 0 0 5.062-4.48c.169-.216.341-.445.512-.681l.368-.511a24.588 24.588 0 0 0 3.538-7.523 33.593 33.593 0 0 0 1.379-8.7v-.017c.007-.256.01-.505.01-.743a5.3 5.3 0 0 0-5.303-5.301z" transform="translate(-34.208 -1302.275)"/>
        <path id="Path_325" data-name="Path 325" class="cls-1" d="M1381.561 1309.152v.009a33.582 33.582 0 0 0 1.379 8.718 27.027 27.027 0 0 0 2.554 5.979l.014.022a.75.75 0 0 0 .036.061l.089.149h.025a1.087 1.087 0 0 0 .81.357 1.1 1.1 0 0 0 1.013-1.525.707.707 0 0 0-.044-.091 30.12 30.12 0 0 1-3.738-14.417 3.148 3.148 0 1 1 6.3 0 19.014 19.014 0 0 0 .818 5.315 19.764 19.764 0 0 0 2.566 5.472 14.522 14.522 0 0 0 4.562 4.371 13.087 13.087 0 0 0 6.72 1.8h4.652a13.085 13.085 0 0 0 6.718-1.8 14.516 14.516 0 0 0 4.562-4.371 19.762 19.762 0 0 0 2.566-5.472 19.018 19.018 0 0 0 .818-5.315 3.149 3.149 0 0 1 6.3 0 30.181 30.181 0 0 1-3.72 14.375.548.548 0 0 0-.026.05 1.082 1.082 0 0 0-.129.51 1.1 1.1 0 0 0 1.892.758h.036l.136-.233a27.1 27.1 0 0 0 2.568-5.995 33.621 33.621 0 0 0 1.38-8.709v-.014c.007-.256.01-.505.01-.743a5.3 5.3 0 1 0-10.591 0c0 5.951-3.977 14.774-12.511 14.813h-4.666c-8.536-.038-12.513-8.862-12.513-14.813a5.3 5.3 0 1 0-10.591 0c-.005.238-.002.487.005.739z" transform="translate(-502.989 -599.168)"/>
    </g>
</svg>
