<svg xmlns="http://www.w3.org/2000/svg" width="210" height="173">
    <defs>
        <clipPath id="clip-path">
            <path id="Rectangle_154" data-name="Rectangle 154" transform="translate(443 1491)" style="stroke:#707070;fill:#fff" d="M0 0h210v173H0z"/>
        </clipPath>
        <style>
            .cls-5{fill:#fff}
        </style>
    </defs>
    <g id="immersive_sessions_icon" transform="translate(-443 -1464)">
        <g id="Mask_Group_19" data-name="Mask Group 19" transform="translate(0 -27)" style="clip-path:url(#clip-path)">
            <g id="Group_267" data-name="Group 267">
                <path id="Path_468" data-name="Path 468" d="M96.54-15.339c55.239 0 93.2 18.956 93.2 59.639s-41.156 101.3-96.4 101.3S-7.1 105.3-7.1 64.619 41.3-15.339 96.54-15.339z" transform="rotate(20.97 -3764.748 2053.793)" style="fill:#ff8c1a"/>
                <path id="Path_428" data-name="Path 428" d="M150.741 163.254z" transform="rotate(-91 1043.469 675.056)" style="fill:#e4edf7"/>
                <g id="Group_190" data-name="Group 190" transform="translate(508 1529)">
                    <g id="Group_179" data-name="Group 179" transform="translate(19.885 6.45)">
                        <g id="Group_170" data-name="Group 170" transform="translate(5.902 5.864)">
                            <path id="Path_422" data-name="Path 422" class="cls-5" d="M313.148 109.161h-6.423a3.554 3.554 0 0 1-3.55-3.55v-3.241a2.781 2.781 0 0 0-1.155-2.293 13.828 13.828 0 1 1 21.741-11.6A13.838 13.838 0 0 1 317.96 100a2.938 2.938 0 0 0-1.262 2.367v3.243a3.554 3.554 0 0 1-3.55 3.551zM309.936 78.2a10.541 10.541 0 0 0-6.031 19.186 6.071 6.071 0 0 1 2.557 4.987v3.241a.263.263 0 0 0 .263.263h6.423a.264.264 0 0 0 .263-.263v-3.243a6.232 6.232 0 0 1 2.639-5.043 10.551 10.551 0 0 0 4.426-8.79 10.466 10.466 0 0 0-10.54-10.338z" transform="translate(-296.109 -74.91)"/>
                        </g>
                        <g id="Group_171" data-name="Group 171" transform="translate(20.775 11.724)">
                            <path id="Path_423" data-name="Path 423" class="cls-5" d="M317.682 90.5a6.32 6.32 0 0 0-.584-2.556 6.255 6.255 0 0 0-2.889-2.957l1.457-2.947a9.534 9.534 0 0 1 5.3 8.4z" transform="translate(-314.209 -82.042)"/>
                        </g>
                        <g id="Group_172" data-name="Group 172" transform="translate(18.087)">
                            <path id="Rectangle_109" data-name="Rectangle 109" class="cls-5" d="M0 0h3.287v3.575H0z"/>
                        </g>
                        <g id="Group_173" data-name="Group 173" transform="translate(4.506 4.884)">
                            <path id="Rectangle_110" data-name="Rectangle 110" class="cls-5" transform="rotate(-44.999 2.805 1.162)" d="M0 0h3.287v3.575H0z"/>
                        </g>
                        <g id="Group_174" data-name="Group 174" transform="translate(0 18.621)">
                            <path id="Rectangle_111" data-name="Rectangle 111" class="cls-5" d="M0 0h3.575v3.287H0z"/>
                        </g>
                        <g id="Group_175" data-name="Group 175" transform="translate(4.884 30.637)">
                            <path id="Rectangle_112" data-name="Rectangle 112" class="cls-5" transform="rotate(-45 3.052 1.265)" d="M0 0h3.575v3.287H0z"/>
                        </g>
                        <g id="Group_176" data-name="Group 176" transform="translate(30.637 30.259)">
                            <path id="Rectangle_113" data-name="Rectangle 113" class="cls-5" transform="rotate(-45 2.805 1.162)" d="M0 0h3.287v3.575H0z"/>
                        </g>
                        <g id="Group_177" data-name="Group 177" transform="translate(36.42 18.087)">
                            <path id="Rectangle_114" data-name="Rectangle 114" class="cls-5" d="M0 0h3.575v3.287H0z"/>
                        </g>
                        <g id="Group_178" data-name="Group 178" transform="translate(30.259 4.506)">
                            <path id="Rectangle_115" data-name="Rectangle 115" class="cls-5" transform="rotate(-45 3.052 1.265)" d="M0 0h3.575v3.286H0z"/>
                        </g>
                    </g>
                    <g id="Group_188" data-name="Group 188" transform="translate(21.748 48.377)">
                        <g id="Group_186" data-name="Group 186" transform="translate(8.295)">
                            <g id="Group_185" data-name="Group 185">
                                <g id="Group_180" data-name="Group 180" transform="translate(3.885)">
                                    <path id="Path_424" data-name="Path 424" class="cls-5" d="M317.561 141.89a11.546 11.546 0 1 1 11.545-11.546 11.558 11.558 0 0 1-11.545 11.546zm0-19.8a8.259 8.259 0 1 0 8.258 8.259 8.268 8.268 0 0 0-8.258-8.264z" transform="translate(-306.016 -118.798)"/>
                                </g>
                                <g id="Group_181" data-name="Group 181" transform="translate(5.94 38.035)">
                                    <path id="Rectangle_116" data-name="Rectangle 116" class="cls-5" d="M0 0h3.287v9.292H0z"/>
                                </g>
                                <g id="Group_182" data-name="Group 182" transform="translate(22.239 38.035)">
                                    <path id="Rectangle_117" data-name="Rectangle 117" class="cls-5" d="M0 0h3.287v9.292H0z"/>
                                </g>
                                <g id="Group_183" data-name="Group 183" transform="translate(0 24.354)">
                                    <path id="Path_425" data-name="Path 425" class="cls-5" d="M304.575 171.409h-3.287v-15.578a7.4 7.4 0 0 1 7.4-7.4h8.035v3.287h-8.035a4.113 4.113 0 0 0-4.109 4.109z" transform="translate(-301.288 -148.436)"/>
                                </g>
                                <g id="Group_184" data-name="Group 184" transform="translate(15.43 24.354)">
                                    <path id="Path_426" data-name="Path 426" class="cls-5" d="M335.5 171.409h-3.287v-15.578a4.113 4.113 0 0 0-4.109-4.109h-8.035v-3.287h8.031a7.4 7.4 0 0 1 7.4 7.4z" transform="translate(-320.066 -148.436)"/>
                                </g>
                            </g>
                        </g>
                        <g id="Group_187" data-name="Group 187" transform="translate(0 45.684)">
                            <path id="Rectangle_118" data-name="Rectangle 118" class="cls-5" d="M0 0h47.45v3.287H0z"/>
                        </g>
                    </g>
                    <g id="Group_189" data-name="Group 189">
                        <path id="Path_427" data-name="Path 427" class="cls-5" d="M289.776 135.16h-.238a1.645 1.645 0 0 1-1.271-.6l-12.346-15.07h-9.551a1.643 1.643 0 0 1-1.643-1.643V61.568a1.643 1.643 0 0 1 1.643-1.643h76.476a1.643 1.643 0 0 1 1.643 1.643v56.278a1.643 1.643 0 0 1-1.643 1.643h-18.86V116.2H341.2V63.212h-73.186V116.2h8.686a1.644 1.644 0 0 1 1.271.6l9.747 11.9-.913-10.714a1.642 1.642 0 0 1 1.637-1.783h8.336v3.287h-6.548l1.183 13.887a1.642 1.642 0 0 1-1.638 1.783z" transform="translate(-264.727 -59.925)"/>
                    </g>
                </g>
            </g>
        </g>
    </g>
</svg>
