<svg xmlns="http://www.w3.org/2000/svg" width="236.596" height="236.596">
    <g data-name="Group 274">
        <path data-name="Path 493" d="M82.3 0A82.3 82.3 0 1 1 0 82.3 82.3 82.3 0 0 1 82.3 0z" transform="translate(36 36)" style="fill:#9f91ff"/>
        <path data-name="Path 497" d="M82.3 0A82.3 82.3 0 1 1 0 82.3 82.3 82.3 0 0 1 82.3 0z" transform="translate(36 36)" style="fill:#c3baff"/>
        <g data-name="Group 9680">
            <path data-name="Path 223" d="m151.307 107.985-3.617-18.292V72.634a1.861 1.861 0 0 0-.535-1.306 1.812 1.812 0 0 0-2.583 0 1.856 1.856 0 0 0-.535 1.306v15.4H78.278V49.23a1.858 1.858 0 0 1 .535-1.306 1.816 1.816 0 0 1 1.292-.541h24.355a1.814 1.814 0 0 0 1.291-.541 1.863 1.863 0 0 0 0-2.613 1.815 1.815 0 0 0-1.291-.541H80.1a5.449 5.449 0 0 0-3.875 1.624 5.576 5.576 0 0 0-1.6 3.919v40.462l-3.617 18.292v.164a1.818 1.818 0 0 0-.036.2 9.3 9.3 0 0 0 2.678 6.529 9.092 9.092 0 0 0 6.455 2.709h62.105a9.092 9.092 0 0 0 6.455-2.709 9.3 9.3 0 0 0 2.678-6.529 1.909 1.909 0 0 0-.04-.2c.004-.049.005-.107.004-.164zm-6.942-16.259 2.923 14.781h-23.746l-1.134-4.592a3.7 3.7 0 0 0-1.3-2.016 3.626 3.626 0 0 0-2.248-.783h-15.409a3.626 3.626 0 0 0-2.248.783 3.7 3.7 0 0 0-1.3 2.016l-1.134 4.592H75.027l2.923-14.781zm-24.586 14.781h-17.241l.913-3.7h15.415zm22.431 7.39H80.1a5.436 5.436 0 0 1-3.15-1.024 5.534 5.534 0 0 1-1.993-2.671h72.393a5.537 5.537 0 0 1-1.994 2.671 5.434 5.434 0 0 1-3.146 1.027z" transform="translate(6.028 44.246)" style="fill:#fff"/>
            <path data-name="Path 224" d="M151.343 30.754h-33.257a5.483 5.483 0 0 0-3.92 1.66 5.737 5.737 0 0 0-1.623 4.008V59.1a5.737 5.737 0 0 0 1.623 4.009 5.484 5.484 0 0 0 3.92 1.66h1.847v5.669a1.929 1.929 0 0 0 .312 1.05 1.86 1.86 0 0 0 .829.7 1.809 1.809 0 0 0 1.067.107 1.831 1.831 0 0 0 .946-.517l6.849-7h21.407a5.48 5.48 0 0 0 3.919-1.66 5.733 5.733 0 0 0 1.624-4.009V36.423a5.733 5.733 0 0 0-1.624-4.008 5.479 5.479 0 0 0-3.919-1.661zm1.848 28.346a1.91 1.91 0 0 1-.542 1.336 1.825 1.825 0 0 1-1.306.553h-22.171a1.83 1.83 0 0 0-1.307.554l-4.236 4.333v-3a1.914 1.914 0 0 0-.541-1.336 1.829 1.829 0 0 0-1.307-.553h-3.695a1.829 1.829 0 0 1-1.307-.553 1.914 1.914 0 0 1-.541-1.336V36.423a1.913 1.913 0 0 1 .541-1.336 1.829 1.829 0 0 1 1.307-.553h33.257a1.825 1.825 0 0 1 1.306.553 1.91 1.91 0 0 1 .542 1.336z" transform="translate(6.028 44.246)" style="fill:#1f2a5a"/>
        </g>
    </g>
</svg>
