<svg xmlns="http://www.w3.org/2000/svg" width="1189.492" height="372.077">
    <defs>
        <style>
            .cls-1,.cls-2,.cls-3{fill:#a461d8}.cls-2,.cls-3{stroke:#fff;stroke-width:.001px;stroke-linejoin:round;stroke-miterlimit:2}.cls-3{stroke:#0081a6;stroke-width:.004px}
        </style>
    </defs>
    <g id="math_symbols" transform="translate(-332.247 -2006.827)">
        <g id="Group_38" data-name="Group 38" transform="rotate(4 -28962.17 6463.234)">
            <path id="Path_144" data-name="Path 144" class="cls-1" d="M53.993 24.206a7.076 7.076 0 0 0-.613-.643c-.732-.585-1.491-1.136-2.218-1.726-2.523-2.048-4.958-4.215-7.57-6.139-5.129-3.78-10.355-7.43-15.547-11.123-.106-.074-.287-.043-.647-.087 3.458 6.605 5.424 13.59 8 20.306 1.421.336 2.853.06 4.185.783-1.218.55-2.543.082-3.726.644 1.453 5.655 3 11.237 4.035 17.1 5.937-5.687 11.241-11.7 16.489-17.752a2.214 2.214 0 0 0-2.03-.305 15.191 15.191 0 0 1-2.4.4 3.449 3.449 0 0 1-1.107-.079.557.557 0 0 1-.338-.4.5.5 0 0 1 .274-.405c.543-.122 1.1-.168 1.655-.271.472-.084.993.109 1.558-.303zM38.666 45.514c-.948-3.017-1.856-5.873-2.739-8.738-.534-1.733-1.022-3.479-1.551-5.214-1.586-5.209-3.6-10.266-5.553-15.344-1.28-3.326-2.614-6.631-3.927-9.944-.112-.28-.181-.615-.649-.61-.058.74-.1 1.483-.19 2.221-.024.2-.207.377-.453.8a10.82 10.82 0 0 1-.257-1.147c-.091-1.06-.147-2.123-.239-3.182-.024-.268.1-.647-.373-.72a4.583 4.583 0 0 0-.345.433c-3.7 5.806-7.475 11.559-11.538 17.119q-4.264 5.834-8.511 11.681c-.239.329-.64.6-.535 1.18.365.178.74.393 1.14.55 2.034.8 4.055 1.651 6.117 2.379 3.006 1.058 6.062 1.978 9.065 3.047 5.239 1.866 10.472 3.749 15.672 5.733a5.38 5.38 0 0 0 4.866-.244zM.2 35.1l-.2-.772c.471-.888.948-1.749 1.392-2.626a75.634 75.634 0 0 1 5.129-8.507c3.99-5.832 8.031-11.626 12.044-17.441 1.206-1.746 2.389-3.51 3.635-5.345.258-.014.625.077.847-.063 1.087-.683 2.066-.231 2.992.276C27.522 1.432 29 2.257 30.4 3.2c4.508 3.044 9.055 6.036 13.438 9.254 3.574 2.624 6.948 5.522 10.376 8.341a28.4 28.4 0 0 1 2.386 2.384 1.885 1.885 0 0 1 .762 1.431.5.5 0 0 0 .275.383.84.84 0 0 1 .5 1.347 22.15 22.15 0 0 1-1.837 3.034 64.582 64.582 0 0 1-6.656 7.374c-1.664 1.606-3.282 3.261-4.931 4.884-1.381 1.359-2.761 2.721-4.176 4.047a14.222 14.222 0 0 1-1.915 1.5 2.711 2.711 0 0 1-1.522.636c-1.132-.151-2.217.323-3.323.114a29.793 29.793 0 0 1-3.113-.654 112.477 112.477 0 0 1-5.505-1.846c-4.761-1.713-9.513-3.453-14.265-5.19A47.828 47.828 0 0 1 .2 35.1z"/>
            <path id="Path_145" data-name="Path 145" class="cls-1" d="M.432 0c.315.325.718.542.759.815a6.573 6.573 0 0 1-.81 4.334A13.5 13.5 0 0 1 .03.747C.036.539.245.336.432 0z" transform="translate(22.992 20.239)"/>
            <path id="Path_146" data-name="Path 146" class="cls-1" d="M.654 4.842A9.546 9.546 0 0 1 .048.069c.631-.2.925.062.994.447a10.843 10.843 0 0 1 .137 1.843 6.171 6.171 0 0 1-.525 2.483z" transform="translate(23.419 11.381)"/>
            <path id="Path_147" data-name="Path 147" class="cls-1" d="M3.018 0A5.589 5.589 0 0 1 .945 1.8a.736.736 0 0 1-.529.059.809.809 0 0 1-.392-.349.348.348 0 0 1 .046-.335A4.594 4.594 0 0 1 3.018 0z" transform="translate(6.893 32.422)"/>
            <path id="Path_148" data-name="Path 148" class="cls-1" d="M4.067.472C1.5.743 1.277.717 0 .078 1.476-.2 2.75.354 4.067.472z" transform="translate(25.856 25.712)"/>
            <path id="Path_149" data-name="Path 149" class="cls-1" d="M2.43 0C.956 1.452.937 1.458 0 1.038A3.937 3.937 0 0 1 2.43 0z" transform="translate(13.355 29.606)"/>
            <path id="Path_150" data-name="Path 150" class="cls-1" d="M0 .567c.189-.6.622-.62 1.131-.521C.715.657.715.657 0 .567z" transform="translate(19.017 27.649)"/>
            <path id="Path_151" data-name="Path 151" class="cls-1" d="M.051.089A11.138 11.138 0 0 1 4.582.5 11.883 11.883 0 0 1 .553.945C.171.915-.122.621.051.089z" transform="translate(43.208 24.431)"/>
        </g>
        <path id="Path_152" data-name="Path 152" class="cls-1" d="m17.617 92.956-1.33-6.508c-.107-.518-.224-1.034-.322-1.554a1.714 1.714 0 0 0-1.7-1.52 22.357 22.357 0 0 0-4.856.1c-.395 3.657-.786 7.251-1.162 10.845-.013.115.137.247.211.373.881-.326 1.217-1.462 2.45-1.7l-1.267 2.425c2.874-.684 5.275-1.717 7.976-2.461zM9.681 82.218c.543.041 1.133.127 1.722.117.831-.012 1.662-.138 2.492-.135a24.8 24.8 0 0 1 2.938.159 1.918 1.918 0 0 1 1.743 1.563c.287 1.328.521 2.67.747 4.01a31.393 31.393 0 0 0 .528 4.3c24.266-5.98 48.1-13.087 72.161-19.833a3.192 3.192 0 0 0-.442-.678c-2.76-2.245-5.486-4.537-8.312-6.7-2.888-2.206-5.9-4.25-8.817-6.416q-10.308-7.65-20.585-15.341c-.65-.484-1.21-1.173-2.182-1.029-.128.02-.423-.247-.427-.387-.017-.74-.593-1.008-1.066-1.36Q45.9 37.31 41.6 34.135c-6.619-4.927-13.254-9.835-19.855-14.793-2.18-1.636-4.268-3.4-6.408-5.082a11.669 11.669 0 0 0-1.256-.737c-1.047 22.433-2.321 44.632-4.459 66.771-.044.452-.074.9-.086 1.359a2.655 2.655 0 0 0 .145.565zM112.476 71.27a33.338 33.338 0 0 1-6.144 1.45 47.021 47.021 0 0 1-10.638.631 5.479 5.479 0 0 0-1.978.326c-3.742 1.231-7.45 2.563-11.206 3.745-6.65 2.093-13.286 4.249-20 6.113-11.245 3.123-22.546 6.038-33.827 9.037-4.907 1.3-9.814 2.608-14.729 3.877-1.9.491-3.83.885-5.927 1.364-1.187 1.3-2.487 2.778-3.848 4.2A19.222 19.222 0 0 1 0 105.7c1.182-3.7 3.707-6.486 6.138-9.25-.382-7.086.377-14.023.819-20.969.569-8.919 1.39-17.824 1.8-26.749.428-9.31 1.1-18.6 1.865-27.882.222-2.709.768-5.392 1.136-8.091.1-.739.044-1.5.158-2.235C12.454 7.016 13.027 3.513 13.59 0c.653-.036.611.447.676.75a22.248 22.248 0 0 1 .023 8.356l-.318 1.9a4.171 4.171 0 0 0 .581.607c5.315 3.383 10.232 7.313 15.3 11.035q8.336 6.123 16.68 12.238Q61.351 45.8 76.155 56.725c4.151 3.054 8.349 6.043 12.475 9.127a48 48 0 0 1 4.486 3.839 3.874 3.874 0 0 0 3.195 1.273c3.248-.211 6.505-.287 9.76-.326 2.1-.026 4.206.109 6.311.171.03.153.062.308.094.461z" transform="rotate(4 -29490.425 8975.528)"/>
        <path id="Path_153" data-name="Path 153" class="cls-1" d="M5.187 23.731a5.516 5.516 0 0 0 1.366 3.091c.185.179.622.373.747.282a1.352 1.352 0 0 0 .536-.851 1.641 1.641 0 0 0-.308-1.03 3.748 3.748 0 0 0-2.341-1.492zM5.621 11.7a13.446 13.446 0 0 0 2.192-9.788c-.015-.07-.228-.1-.347-.143C6.386 3.9 5.315 9.667 5.621 11.7zm-.666 10.259c1.93-.838 3.311-2.253 5.454-2.684-.867 1.38-2.339 1.725-3.186 2.947.316.31.608.614.921.9.281.253.6.46.873.725 1.327 1.316 1.239 2.492-.252 3.581-.122.089-.242.185-.37.261-2.254 1.325-3.931.746-4.842-1.7a17.7 17.7 0 0 1-.885-5.808c-.02-.752-.026-1.5-.039-2.45-.534.143-.946.273-1.368.362s-.821.13-1.245.2c-.09-.713.236-1.089.718-1.014a1.536 1.536 0 0 0 1.412-.446 2.416 2.416 0 0 0 .754-1.601c.235-1.878.434-3.76.741-5.624s.712-3.714 1.112-5.562a15.229 15.229 0 0 1 .61-1.946 3.924 3.924 0 0 1 .523-1A2.5 2.5 0 0 1 8.477.056c.988.2 1.1 1.142 1.188 1.974a13.739 13.739 0 0 1-.592 5.6 21.264 21.264 0 0 1-3.28 6.445 4.925 4.925 0 0 0-1.044 3.147 22.117 22.117 0 0 0 .206 4.737z" transform="rotate(4 -29909.44 8395.076)"/>
        <path id="Path_154" data-name="Path 154" class="cls-1" d="M3.267 9.889c.512-.113.649-.575.855-.956a19.623 19.623 0 0 0 1.93-5.286.948.948 0 0 0-.265-.778.752.752 0 0 0-1.03 0 5.628 5.628 0 0 0-.793.794 6.365 6.365 0 0 0-1.028 5.982c.034.104.215.162.331.244zm4.356-3.1C6.773 8.142 6.19 9.1 5.578 10.031A4.189 4.189 0 0 1 2.173 12c-.933.055-1.511-.22-1.757-1.1a9.3 9.3 0 0 1-.41-2.886C.134 5.26 2.346 2.517 4.8 2.046c.518-.1 1.022-.269 1.5-.4C7.387-.084 7.387-.084 9.106.054c1.18 3.705 2.139 14.69 1.5 17.2-1-.962-1.312-1.712-1.921-4.774-.35-1.769-.663-3.551-1.062-5.692z" transform="rotate(4 -30870.376 9745.04)"/>
        <path id="Path_155" data-name="Path 155" class="cls-1" d="M4.253 1.055a5.013 5.013 0 0 0-1.7 4.127c0 1.72-.037 3.5 1.455 4.955 2.534-1.461 4.376-3.9 7.264-5.221-.132.481-.129.733-.251.874a27.087 27.087 0 0 1-4.823 4.435 5.412 5.412 0 0 1-3.193 1A2.1 2.1 0 0 1 .863 9.864 9.694 9.694 0 0 1 .22 3.878 4.83 4.83 0 0 1 5.354.011 2.731 2.731 0 0 1 6.759.6.9.9 0 0 1 7 1.814a.943.943 0 0 1-1.184.409 10.28 10.28 0 0 1-1.563-1.168z" transform="rotate(4 -29946.813 10225.946)"/>
        <path id="Path_156" data-name="Path 156" class="cls-1" d="M4.924 0A26.3 26.3 0 0 1 1.5 5.505a1.094 1.094 0 0 1-1.384.415c-.039-.146-.154-.333-.1-.416A21.31 21.31 0 0 1 4.924 0z" transform="rotate(4 -30249.4 9558.296)"/>
        <path id="Path_157" data-name="Path 157" class="cls-1" d="M0 4.593C1.527 2.975 2.911 1.5 4.308.043c.072-.074.271-.028.408-.036A11.163 11.163 0 0 1 1.878 4.45 1.37 1.37 0 0 1 0 4.593z" transform="rotate(4 -30412.609 9337.493)"/>
        <path id="Path_158" data-name="Path 158" class="cls-1" d="M0 4.078C1.769 1.6 2.682.734 4.226 0c.023.128.109.3.058.373C3.519 1.479 2.768 2.6 1.942 3.66c-.442.561-.735.568-1.942.418z" transform="rotate(4 -30596.313 9227.245)"/>
        <path id="Path_159" data-name="Path 159" class="cls-1" d="M2.965.271C2.282 1.461 1.976 2.988 0 3.311c.131-.413.139-.722.3-.9C1.04 1.59 1.827.8 2.6 0c.12.089.243.179.365.271z" transform="rotate(4 -30152.384 9774.83)"/>
        <path id="Path_160" data-name="Path 160" class="cls-1" d="M2.857 0C2.286 1.367 1.834 2.864 0 3.553.524 2.011.937 1.479 2.857 0z" transform="rotate(4 -30729.03 9064.325)"/>
        <path id="Path_161" data-name="Path 161" class="cls-1" d="M15 17.787a1.163 1.163 0 0 0-1.139 0 1.351 1.351 0 0 0-.55.337c-1.454 1.465-2.8 3.019-4.106 4.607.136-2.073.215-4.153.318-6.223a1.071 1.071 0 0 0-.546-1.36c-1.641-.854-3.228-1.8-4.82-2.738 1.571-.221 3.145-.445 4.705-.74a1.1 1.1 0 0 0 .853-1.47c.152-1.985.253-3.971.348-5.961 1.148 1.6 2.374 3.162 3.548 4.732a1.361 1.361 0 0 0 1.6 1.169c2.439-.453 5.038-.582 7.561-.924q-2.585 2.329-5.115 4.709a1.24 1.24 0 0 0-.108 1.757c.01.014.007.027.017.039 1.124 1.515 2.1 3.17 3.14 4.778-1.913-.894-3.854-1.729-5.706-2.712zM27.721 7.8a1 1 0 0 0-.692-1.513 1.138 1.138 0 0 0-.526-.156 49.329 49.329 0 0 0-10.958 1.3c-1.729-2.371-3.4-4.811-5.284-7.058A.983.983 0 0 0 9.084.085a.845.845 0 0 0-.9.728C7.8 3.658 7.673 6.53 7.437 9.391c-2.172.475-4.362.857-6.538 1.3a.891.891 0 0 0-.724.605A1.048 1.048 0 0 0 .5 12.778c2.176 1.435 4.338 2.891 6.61 4.171a72.438 72.438 0 0 0-.255 8.8c-.376.924 1.011 1.773 1.8 1.056 2.19-2 4.128-4.257 6.235-6.344 2.84 1.279 5.786 2.364 8.55 3.774.024.012.044.009.067.019a.3.3 0 0 0 .024.03c.753.806 1.968-.221 1.478-1.143-.042-.08-.094-.158-.136-.239a.967.967 0 0 0-.106-.182 75.567 75.567 0 0 0-4.545-7.391q2.231-2.134 4.461-4.27A20.838 20.838 0 0 0 27.721 7.8z" transform="rotate(4 -30332.72 15509.542)"/>
        <path id="Path_162" data-name="Path 162" class="cls-1" d="M15 17.787a1.163 1.163 0 0 0-1.139 0 1.366 1.366 0 0 0-.55.338c-1.454 1.466-2.8 3.018-4.106 4.605.136-2.072.215-4.151.318-6.222a1.071 1.071 0 0 0-.546-1.36c-1.641-.854-3.228-1.8-4.82-2.739 1.571-.219 3.145-.444 4.705-.739a1.1 1.1 0 0 0 .853-1.47c.152-1.985.253-3.973.348-5.961 1.15 1.6 2.374 3.161 3.548 4.732a1.361 1.361 0 0 0 1.6 1.169c2.437-.453 5.036-.583 7.56-.924q-2.585 2.327-5.115 4.709a1.24 1.24 0 0 0-.108 1.757c.01.014.007.027.017.039 1.124 1.514 2.1 3.169 3.14 4.778-1.912-.893-3.853-1.729-5.705-2.712zM27.721 7.8a1 1 0 0 0-.692-1.513 1.138 1.138 0 0 0-.529-.157 49.261 49.261 0 0 0-10.959 1.3c-1.729-2.371-3.4-4.811-5.284-7.059A.985.985 0 0 0 9.084.085a.847.847 0 0 0-.9.728c-.391 2.846-.513 5.718-.75 8.579-2.172.475-4.36.857-6.538 1.3a.893.893 0 0 0-.723.606 1.046 1.046 0 0 0 .327 1.48c2.176 1.436 4.338 2.893 6.61 4.171a72.2 72.2 0 0 0-.254 8.8c-.377.925 1.01 1.774 1.8 1.057 2.19-2 4.128-4.257 6.235-6.344 2.84 1.279 5.786 2.363 8.55 3.773a.55.55 0 0 0 .067.02.2.2 0 0 0 .024.029c.753.807 1.968-.221 1.478-1.141-.042-.08-.093-.159-.136-.239a.941.941 0 0 0-.106-.183 75.706 75.706 0 0 0-4.545-7.391q2.231-2.134 4.461-4.27a20.77 20.77 0 0 0 3.037-3.26z" transform="rotate(4 -32631.757 9653.618)"/>
        <path id="Path_163" data-name="Path 163" class="cls-1" d="M4.781 58.938c.384.027.8.065 1.22.087.848.044 1.7.085 2.543.112.21.007.433-.03.46-.35-1.081-.917-2.571-.744-3.872-1.367a8.845 8.845 0 0 1 .536-2.072c.222-.663.209-1.432.792-2a15.05 15.05 0 0 0 3.61.739c.006-.113.048-.226.008-.273-.867-1.02-2.231-1.133-3.3-1.743a15.674 15.674 0 0 1 1.34-4.42c1.478-.065 2.786.941 4.533.84-.2-.2-.278-.291-.368-.369-1.082-.951-2.514-1.182-3.751-1.755A12.044 12.044 0 0 1 9.724 42.4c.691.089 1.4.178 2.112.278 1.546.217 1.546.221 2.226-.131-1.123-.992-2.655-.836-3.854-1.449a10.549 10.549 0 0 1 1.2-3.685c.345.041.718.1 1.094.128q1.777.152 3.555.286c.17.013.334-.045.353-.325-1.4-.82-3.042-.892-4.593-1.357a5.6 5.6 0 0 1 .516-1.971c.182-.611.408-1.21.631-1.807a7.318 7.318 0 0 1 .766-1.773c.934.215 1.751.468 2.586.578a5.527 5.527 0 0 0 2.562.243 4.348 4.348 0 0 0-.612-.591 9 9 0 0 0-2.855-1.066c-.408-.086-.812-.179-1.211-.268a14.959 14.959 0 0 1 1.814-4.882 33.07 33.07 0 0 0 5.176.842 1.524 1.524 0 0 0-1.031-.986c-.8-.288-1.615-.526-2.429-.772-.44-.133-.887-.239-1.319-.355a21.215 21.215 0 0 1 1.834-5.363l1.428.449c.446.141.89.295 1.339.42a5.732 5.732 0 0 0 1.715.337c-1.2-1.475-2.873-1.635-4.241-2.463.467-1.434.841-2.858 1.385-4.22 3.29.814 3.29.814 4.252.66a1.017 1.017 0 0 0-.131-.344c-.974-1.047-2.426-1.135-3.607-1.732a19.737 19.737 0 0 1 1.411-4.6 1.153 1.153 0 0 0 .863.627c1.013.1 2.015.31 3.023.465a5.366 5.366 0 0 0 .644.019 1.342 1.342 0 0 0-.844-.983 16.858 16.858 0 0 0-1.789-.662c-.518-.162-1.054-.264-1.659-.412a12.376 12.376 0 0 1 1.229-3.1 2.328 2.328 0 0 1 2.119-1.2 7.849 7.849 0 0 1 1.634.214c.829.188 1.643.442 2.465.659 1.061.28 1.4.252 1.2 1.773a4.32 4.32 0 0 1-.106.5c-.75 2.88-1.4 5.791-2.274 8.634-2.317 7.567-4.753 15.1-7.089 22.655-1.412 4.55-2.712 9.13-4.07 13.702q-2.195 7.4-4.4 14.8c-.645 2.16-1.306 4.315-1.967 6.472-.137.446-.3.886-.46 1.326a1.522 1.522 0 0 1-1.672 1.09 5.007 5.007 0 0 1-1.251-.2 242.747 242.747 0 0 1-4.805-1.71c-.849-.31-.981-.511-.888-1.427a25.03 25.03 0 0 1 .379-2.78 8.889 8.889 0 0 1 .9-2.533 24.8 24.8 0 0 1 4.177.566.754.754 0 0 0-.344-1.1 6.849 6.849 0 0 0-1.416-.549c-.606-.164-1.231-.254-1.838-.375a17.906 17.906 0 0 1 1.224-4.014zm5.781-24.79c-2.6 7.809-4.515 14.339-6.35 20.894-.756 2.7-1.557 5.393-2.327 8.093-.338 1.186-.638 2.383-.974 3.57-.16.57-.38 1.125-.546 1.7-.513 1.767-.772 2.04 1.243 2.936 1.63.723 3.3 1.378 4.975 1.982a28.686 28.686 0 0 0 2.961.765 2.614 2.614 0 0 0 .633.038 1.72 1.72 0 0 0 1.754-1.226c.226-.642.46-1.282.651-1.935.957-3.265 1.873-6.544 2.855-9.8q2.339-7.76 4.747-15.5c1.841-5.932 3.715-11.852 5.559-17.783 1.44-4.63 2.89-9.257 4.27-13.9.775-2.608 1.422-5.255 2.105-7.888a10.123 10.123 0 0 0 .222-1.513 2.419 2.419 0 0 0-.879-2.154 5.783 5.783 0 0 0-2.191-1.269c-1.387-.4-2.792-.75-4.193-1.1A3.575 3.575 0 0 0 24.316 0a2.784 2.784 0 0 0-2.886 1.879 34.888 34.888 0 0 0-.9 2.525c-.972 3.083-1.875 6.189-2.9 9.255-1.29 3.874-2.672 7.717-4.007 11.576-1.175 3.419-2.347 6.839-3.062 8.913z" transform="rotate(4 -28403.944 10455.067)"/>
        <path id="Path_164" data-name="Path 164" class="cls-1" d="M6.963 7.244c-1.008.726-2.473.943-3.215-.2a2.119 2.119 0 0 1 .535-3.135 2.423 2.423 0 0 1 1.1-.5 2.642 2.642 0 0 1 .989.174c1.379.611 1.911 2.71.591 3.661zM5.562.007a3.273 3.273 0 0 0-1.276.38 5.961 5.961 0 0 0-1.232.434C-.037 2.314-.676 5.573.661 8.457 2.125 11.617 6 11.862 8.7 10.223A5.448 5.448 0 0 0 10.919 3.9 5.443 5.443 0 0 0 5.562.007z" transform="rotate(4 -29893.46 20236.286)"/>
        <path id="Path_165" data-name="Path 165" class="cls-1" d="M7.448 7.75c-1.078.777-2.645 1.008-3.44-.209a2.266 2.266 0 0 1 .572-3.354 2.6 2.6 0 0 1 1.174-.531 2.81 2.81 0 0 1 1.058.187c1.48.643 2.048 2.889.636 3.907zM5.95.008a3.529 3.529 0 0 0-1.365.406 6.545 6.545 0 0 0-1.318.465C-.039 2.475-.722 5.961.706 9.047c1.568 3.38 5.712 3.643 8.6 1.889a5.829 5.829 0 0 0 2.371-6.768A5.824 5.824 0 0 0 5.95.008z" transform="rotate(4 -31986.685 16058.065)"/>
        <path id="Path_166" data-name="Path 166" class="cls-1" d="M5.385 7.989c1.3.258 2.825-.182 3.042-1.619a2.267 2.267 0 0 0-1.914-2.814 2.589 2.589 0 0 0-1.288.006 2.782 2.782 0 0 0-.885.609c-1.079 1.198-.662 3.478 1.045 3.818zM3.532.323a3.535 3.535 0 0 1 1.411-.2A6.554 6.554 0 0 1 6.335 0c3.671.078 5.74 2.966 5.721 6.366-.022 3.726-3.683 5.686-7.041 5.292a5.829 5.829 0 0 1-4.968-5.17A5.824 5.824 0 0 1 3.532.323z" transform="rotate(4 -32881.246 8488.776)"/>
        <path id="Path_167" data-name="Path 167" class="cls-1" d="M3.039 3.162a.959.959 0 0 1-1.4-.085.927.927 0 0 1 .233-1.369 1.061 1.061 0 0 1 .48-.216 1.146 1.146 0 0 1 .432.075.955.955 0 0 1 .255 1.595zM2.428 0a1.42 1.42 0 0 0-.557.166 2.62 2.62 0 0 0-.538.189A2.4 2.4 0 1 0 3.8 4.461 2.378 2.378 0 0 0 4.766 1.7 2.377 2.377 0 0 0 2.428 0z" transform="rotate(4 -31943.098 15681.81)"/>
        <path id="Path_168" data-name="Path 168" class="cls-1" d="M2.2 3.259c.532.1 1.153-.074 1.241-.661a.925.925 0 0 0-.78-1.147 1.051 1.051 0 0 0-.526 0 1.135 1.135 0 0 0-.365.249.954.954 0 0 0 .43 1.559zM1.441.132a1.427 1.427 0 0 1 .576-.081A2.658 2.658 0 0 1 2.584 0a2.4 2.4 0 1 1-.539 4.756A2.38 2.38 0 0 1 .019 2.647 2.374 2.374 0 0 1 1.441.132z" transform="rotate(4 -32784.914 8865.549)"/>
        <path id="Path_171" data-name="Path 171" class="cls-1" d="m85.516 39.777-.258-.137c-.038.1-.114.2-.1.29.006.046.164.077.253.113.032-.087.07-.176.105-.266zm-10.482-3.071a7.288 7.288 0 0 1 1.383 5.271.934.934 0 0 0 0 .171.769.769 0 0 0 1.075.717c1.721-.6 3.434-1.225 5.133-1.835l2.875-7.608a37.578 37.578 0 0 0-4.978-5.309c-.06-.044-.206.026-.361.049-.031.207-.077.426-.094.648a2.6 2.6 0 0 1-2.239 2.461c-.438.109-.876.225-1.413.365.25.444.474.819.677 1.207a3.886 3.886 0 0 1 .462 2.148c-.078.971-.353 1.32-1.292 1.539-.327.07-.662.097-1.228.176zm2.034-2.322a5.608 5.608 0 0 0-3.075-3.047c-3.207-1.093-6.292-2.472-9.37-3.867-10.808-4.895-21.72-9.543-32.7-14.037-1.375-.562-2.73-1.169-4.179-1.792-.567.837-1.18 1.73-1.774 2.636a1.83 1.83 0 0 0-.131.549c.308.15.6.315.912.44 3.769 1.527 7.55 3.026 11.312 4.578q9.136 3.768 18.249 7.6c3.435 1.441 6.85 2.925 10.271 4.4 2.1.907 4.214 1.8 6.3 2.752a6.3 6.3 0 0 0 2.67.546 1.557 1.557 0 0 0 1.516-.759zM28.174 10.958c8.179 2.655 15.878 5.923 23.587 9.158a242.416 242.416 0 0 1 22.476 10.547 17.03 17.03 0 0 1 1.833-.463 6.817 6.817 0 0 0 2.606-.819 1.892 1.892 0 0 0 .968-1.153.841.841 0 0 0-.37-1.039 21.109 21.109 0 0 0-1.717-.787C65.966 21.59 54.23 17.145 42.524 12.627 38.2 10.963 33.877 9.272 29.5 7.569l-1.326 3.389zm-2.9 4.449c-1.052 1.145-1.612 2.541-2.858 3.337-.057.036-.2-.056-.405-.124a9.551 9.551 0 0 1 1.172-2.413c.455-.86.986-1.68 1.47-2.527.455-.8.893-1.6 1.339-2.4.476-.851.974-1.69 1.424-2.555.408-.786 1.164-1.417 1.172-2.485l-2.792-.756a8.41 8.41 0 0 1-1.65 3.71c-.786 1.124-1.685 2.169-2.564 3.225-.7.837-1.435 1.641-2.167 2.448a5.372 5.372 0 0 1-1.475 1.33c-.469-.163-.393-.471-.288-.718a4.886 4.886 0 0 1 .526-.885q2.449-3.43 4.912-6.85c.3-.418.633-.815.959-1.216s.642-.766 1.065-1.27l-2.48-.981c-.887 1.287-1.661 2.557-2.585 3.707s-1.987 2.22-3.031 3.284a17.615 17.615 0 0 1-3.199 3.032c-.455-.188-.588-.5-.4-.852a9.8 9.8 0 0 1 1-1.6 73.162 73.162 0 0 1 6.268-7.533 2.459 2.459 0 0 0 .3-.541c-.8-.236-1.546-.467-2.3-.669a26.446 26.446 0 0 0-12.6-.463 12.727 12.727 0 0 0-2.6.87A4.684 4.684 0 0 0 .942 6.6a1.523 1.523 0 0 0 .319 1.594 8.391 8.391 0 0 0 1.507 1.39 46.185 46.185 0 0 0 4.005 2.34c1.839.931 3.741 1.738 5.608 2.617.672.317 1.328.672 1.974 1.039.244.139.625.356.628.546.02.9.744.914 1.291 1.141 1.534.639 3.077 1.254 4.612 1.888.361.149.7.34 1.056.511-.149.405-.411.239-.571.193-2.2-.641-4.4-1.274-6.58-1.976a3.38 3.38 0 0 1-1.432-.9 3.916 3.916 0 0 0-1.919-1.051 28.285 28.285 0 0 1-8.54-4.346A7.265 7.265 0 0 1 .341 8a5.083 5.083 0 0 1 2.614-6.517A14.89 14.89 0 0 1 7.75.2a23.332 23.332 0 0 1 11.165 1.31 22.128 22.128 0 0 1 4.1 1.747 11.7 11.7 0 0 0 1.585.673 21.711 21.711 0 0 1 2.219.928A58.544 58.544 0 0 0 35.1 8.2c12.813 4.682 25.6 9.428 38.177 14.723 1.8.756 3.586 1.523 5.39 2.261a12.149 12.149 0 0 1 3.616 2.286 66.829 66.829 0 0 1 8.34 9.138 3.689 3.689 0 0 1 .822 2.718 1.319 1.319 0 0 1-.828 1.2c-.212.085-.417.193-.632.272a110.806 110.806 0 0 1-12.17 3.683 4.638 4.638 0 0 1-2.78.08c-.419-.6.4-.662.319-1.071-.075-.071-.143-.171-.233-.208q-10.643-4.407-21.291-8.8C47.1 31.713 40.341 29 33.622 26.2c-2.961-1.233-5.865-2.6-8.786-3.933a12.887 12.887 0 0 1-1.632-.951c-.166-.108-.259-.331-.533-.7a6.426 6.426 0 0 1 1.16.134c1.626.559 3.264 1.087 4.856 1.731q19.361 7.842 38.7 15.736c2.492 1.02 4.91 2.217 7.361 3.33.252.114.51.217.766.328.484-1.178.559-1.651.1-2.444a13.443 13.443 0 0 0-1.518-2.068 19.7 19.7 0 0 0-1.843-1.786 2.692 2.692 0 0 0-.9-.48c-5.482-1.886-10.732-4.333-16.04-6.641-5.151-2.24-10.351-4.366-15.518-6.571-4.006-1.711-8-3.457-11.986-5.208-.831-.36-1.629-.811-2.539-1.27z" transform="rotate(4 -31624.9 10744.245)"/>
        <path id="Path_172" data-name="Path 172" class="cls-1" d="M0 .05a9.931 9.931 0 0 1 6.26 1.878c-.647-.091-1.06-.144-1.472-.206-1.187-.173-2.377-.334-3.56-.53C.374 1.052.337.992 0 .05z" transform="rotate(4 -31671.773 10503.41)"/>
        <path id="Path_173" data-name="Path 173" class="cls-1" d="M.016.017a8.371 8.371 0 0 1 4.475 1.125A11.664 11.664 0 0 1 .374.7C.233.66.111.479.024.34-.025.259.016.126.016.017z" transform="rotate(4 -31652.594 10592.438)"/>
        <path id="Path_174" data-name="Path 174" class="cls-1" d="M40.027 35.292c-.018-.142 0-.228-.04-.28-.165-.248-.332-.5-.519-.729a32.43 32.43 0 0 1-3.255-5.089c-1.529-2.868-2.831-5.841-4.071-8.844-.826-2-1.744-3.962-2.547-5.972-.622-1.557-1.141-3.157-1.678-4.748-.22-.653-.117-.856.452-1.191a5.358 5.358 0 0 1 .5-.253c1.423-.655 2.835-1.339 4.276-1.953a7.847 7.847 0 0 1 3.572-.8 1.428 1.428 0 0 1 1.381.938c.167.413.259.855.4 1.277a2.047 2.047 0 0 0 .249.383 16.859 16.859 0 0 0 .742-6.39A2.555 2.555 0 0 0 39 1.45a6.908 6.908 0 0 0-1-.109 11.906 11.906 0 0 0-3.432.422 56.912 56.912 0 0 0-9.123 3.387q-9.2 4.231-18.373 8.541c-1.383.648-2.724 1.389-4.066 2.12a4.424 4.424 0 0 0-.943.769.5.5 0 0 0-.037.717 19.571 19.571 0 0 0 2.434 2.464 2.113 2.113 0 0 0 1.888.4 22.547 22.547 0 0 0 4.784-1.534 2.718 2.718 0 0 1 .3-.146.772.772 0 0 1 1.1.448 9.832 9.832 0 0 1 .586 1.685c.358 1.448.638 2.917 1.01 4.362a48.939 48.939 0 0 0 2.517 6.7 51.26 51.26 0 0 0 5.563 9.951 9.154 9.154 0 0 0 .688.883 4.034 4.034 0 0 0 .586.448c.677-.38 1.284-.749 1.915-1.067s1.271-.575 1.957-.88c-.14-.188-.221-.31-.316-.42a46.622 46.622 0 0 1-5.878-8.84 49.309 49.309 0 0 1-3.577-9.044 146.003 146.003 0 0 1-1.205-4.427 4.428 4.428 0 0 1-.092-1.109 1.062 1.062 0 0 1 .6-1c.133-.067.262-.143.4-.21 1.368-.683 2.735-1.37 4.108-2.044a35.437 35.437 0 0 1 2.033-.929 2.545 2.545 0 0 1 .718-.082c.3.765.608 1.442.839 2.142A70.982 70.982 0 0 0 30.377 26.6a18.722 18.722 0 0 0 1.172 1.908q2.722 3.836 5.485 7.643a6.4 6.4 0 0 0 .6.634zM23.268 14.15c-.739.309-1.328.769-1.978 1.112-.626.332-1.244.681-1.869 1.016-.656.353-1.316.7-2.043 1.086.068.268.132.547.212.82a117.934 117.934 0 0 0 3.593 10.364 39.936 39.936 0 0 0 6.534 10.907c.335.4.666.808.966 1.236a.808.808 0 0 1-.186 1.1 1.18 1.18 0 0 1-.195.111c-1.318.7-2.615 1.443-3.962 2.083-1.153.547-1.428.546-2.346-.484a29.488 29.488 0 0 1-2.365-3.121 57.324 57.324 0 0 1-4.054-7.094 53.714 53.714 0 0 1-3.088-8.16 21.244 21.244 0 0 1-1.164-5.178 4.869 4.869 0 0 0-.576.173 24.461 24.461 0 0 1-4.487 1.365 3.316 3.316 0 0 1-2.084-.173 7.928 7.928 0 0 1-3.61-3.239 4.41 4.41 0 0 1-.551-1.808 1.1 1.1 0 0 1 .6-1.214 8.645 8.645 0 0 1 1.415-.665 28.651 28.651 0 0 0 4.017-1.952C8.641 11.107 11.244 9.8 13.9 8.6c4.045-1.83 8.126-3.584 12.211-5.324A63.843 63.843 0 0 1 33.474.619 16.506 16.506 0 0 1 37.33 0a3.984 3.984 0 0 1 3.7 4.092 38.413 38.413 0 0 1-1.133 5.7 4.042 4.042 0 0 1-.2.525c-.346.786-.409.816-1.41.685a5.653 5.653 0 0 1-.775-1.931 9.633 9.633 0 0 0-.75-2.5 5.247 5.247 0 0 0-.761.081 5.783 5.783 0 0 0-.839.311A52.07 52.07 0 0 1 29.424 9.2a1.126 1.126 0 0 0 0 .333c.7 2.047 1.336 4.122 2.141 6.129a88.157 88.157 0 0 0 4.357 9.7c.61 1.114 1.2 2.237 1.789 3.362a44.055 44.055 0 0 0 3.127 5.176 8.431 8.431 0 0 1 .749 1.244 1.028 1.028 0 0 1-.265 1.324 8.74 8.74 0 0 1-3.857 1.924 1 1 0 0 1-.293-.035 64.233 64.233 0 0 1-7.1-8.974 42.179 42.179 0 0 1-3.572-6.594 158.723 158.723 0 0 1-2.223-5.5c-.334-.869-.562-1.778-.839-2.668-.038-.132-.093-.261-.17-.471z" transform="rotate(4 -30610.231 5876.229)"/>
        <path id="Path_175" data-name="Path 175" class="cls-1" d="m88.791 22.3.085-.539c-1.668-.8-3.35-1.577-5-2.416-7.574-3.867-15.3-7.405-23.068-10.853-5.189-2.302-10.5-4.374-15.491-7.322-2.353.725-4.731 1.451-7.1 2.187C35.9 4.076 33.583 4.8 31.035 5.6c1.208 1.112 2.514 1.2 3.664 1.534 12.755 3.719 24.418 9.751 35.593 16.8a3.977 3.977 0 0 0 3.206.6 85.21 85.21 0 0 1 14.152-1.99 6.937 6.937 0 0 0 1.141-.244zM70.063 76.814c.745-1.951 1.431-3.789 2.149-5.615q3.411-8.674 6.842-17.338Q84.515 39.986 89.938 26.1c.224-.576.913-1.223.295-1.83l-15.945 4.011c-.81 2.719-1.488 5.429-2.429 8.042-.982 2.725-2.221 5.356-3.343 8.03-.321.764-.622 1.534-.942 2.3a283.211 283.211 0 0 1-16.068 32.932 8.052 8.052 0 0 0-.434 1.27c6.539-1.389 12.784-2.719 18.991-4.041zm.877-50.134c-10.586-4.542-20.466-10.29-31.128-14.354-4.912-1.872-9.769-3.905-14.878-5.583a22.551 22.551 0 0 0-.807 2.2 72.974 72.974 0 0 1-4.874 12.767C16.6 27.449 13.98 33.2 11.328 38.948Q7.416 47.42 3.473 55.876c-.214.46-.4.93-.747 1.75a167.493 167.493 0 0 1 23.315 11.089c7.505 4.128 14.82 8.594 22.332 12.978a30.269 30.269 0 0 0 2.154-4.553c.651-1.411 1.291-2.831 1.867-4.275.6-1.5 1.553-2.876 1.824-4.585-.95-.38-1.727-.653-2.469-1a2.164 2.164 0 0 1-.946-.745 1.307 1.307 0 0 1-.1-1.117 1.084 1.084 0 0 1 1.031-.281c1.061.567 2.057 1.255 3.234 2 .794-1.817 1.535-3.413 2.2-5.037q4.991-12.24 9.944-24.5c1.161-2.883 2.24-5.8 3.315-8.719a18.47 18.47 0 0 0 .513-2.2zm23.532-3.842c-.618.687-1.194.971-1.3 1.831a28.62 28.62 0 0 1-1.1 5.461c-1.4 4.336-2.883 8.653-4.5 12.916-2.24 5.917-4.531 11.815-6.979 17.645-2.2 5.251-4.574 10.433-7.027 15.572-.635 1.326-1.632 2.622-3.5 2.593a4.771 4.771 0 0 0-1.757.555 127.926 127.926 0 0 1-15.049 4.968 9.668 9.668 0 0 0-2.37.726c-1.575.921-3 .5-4.415-.255-2.56-1.368-5.123-2.731-7.65-4.161-8.937-5.054-17.848-10.145-26.784-15.2-3.426-1.935-6.9-3.776-10.321-5.725A10.076 10.076 0 0 1 0 58.207a10.216 10.216 0 0 0 1.58-2.379c2.3-8 5.584-15.621 8.875-23.232 3.207-7.42 6.6-14.764 10-22.1.821-1.773 2.005-3.372 2.969-5.082a3.573 3.573 0 0 1 2.458-1.728c4.041-.929 8.07-1.913 12.137-2.686 2.638-.5 5.335-.7 8.01-.985A4.19 4.19 0 0 1 47.551.2a43.264 43.264 0 0 1 4.157 1.269 260.837 260.837 0 0 1 27.009 11.926c3.94 2.083 8.127 3.676 11.878 6.124a12.155 12.155 0 0 1 3.877 3.319z" transform="rotate(4 -30991.327 18856.835)"/>
        <path id="Path_176" data-name="Path 176" class="cls-1" d="M.158 7.583C.086 6.731-.079 6.3.045 5.981A90.103 90.103 0 0 1 2.193.885 1.76 1.76 0 0 1 4.029 0c.643.023 1.229.733.977 1.273a18.9 18.9 0 0 1-4.848 6.31z" transform="rotate(4 -31365.775 19328.463)"/>
        <path id="Path_177" data-name="Path 177" class="cls-1" d="M.117 6.525A8.486 8.486 0 0 1 1.492.59 1.2 1.2 0 0 1 2.2.03a1.9 1.9 0 0 1 1.121.138.9.9 0 0 1 .358.769A9.1 9.1 0 0 1 .117 6.525z" transform="rotate(4 -31559.672 19250.626)"/>
        <path id="Path_178" data-name="Path 178" class="cls-1" d="M0 7.284A24.492 24.492 0 0 1 1.308.837 1.192 1.192 0 0 1 2.76.016a1.083 1.083 0 0 1 1.012 1.269A13.412 13.412 0 0 1 0 7.284z" transform="rotate(4 -31175.81 19421.347)"/>
        <path id="Path_179" data-name="Path 179" class="cls-1" d="M5.467 4.17c-.611.11-.917.273-1.123.188A30.706 30.706 0 0 1 .759 2.729C-.194 2.184-.19 1.71.441 0a20.424 20.424 0 0 1 5.026 4.17z" transform="rotate(4 -31742.008 19260.835)"/>
        <path id="Path_180" data-name="Path 180" class="cls-1" d="M.562 0a20.227 20.227 0 0 1 4.89 4.062 6.065 6.065 0 0 1-1.716-.023 17.416 17.416 0 0 1-3-1.454C-.151 2.012-.269 1.143.562 0z" transform="rotate(4 -31839.48 19414.246)"/>
        <path id="Path_181" data-name="Path 181" class="cls-1" d="M0 .923c1.913-.6 3.426-1.184 5.342-.8-.282.413-.411.834-.678.958a16.922 16.922 0 0 1-2.832 1.071C1.086 2.341.542 1.893 0 .923z" transform="rotate(4 -31773.894 18968.857)"/>
        <path id="Path_182" data-name="Path 182" class="cls-1" d="M0 .778A8.237 8.237 0 0 1 4.6.019C4 1.466 2.8 1.6 1.679 1.832 1.184 1.933.986 1.768 0 .778z" transform="rotate(4 -31742.651 19099.152)"/>
        <path id="Path_183" data-name="Path 183" class="cls-1" d="M.545 0a9.774 9.774 0 0 1 3.6 2.728c-2.072.354-2.072.345-4.14-.8C.166 1.344.344.715.545 0z" transform="rotate(4 -32035.308 19545.088)"/>
        <path id="Path_184" data-name="Path 184" class="cls-1" d="M3.715.637A10.283 10.283 0 0 1 0 5.4 9.159 9.159 0 0 1 1.561.428c.525-.759 1.272-.394 2.154.209z" transform="rotate(4 -31020.04 19385.2)"/>
        <path id="Path_185" data-name="Path 185" class="cls-1" d="M44.563 11.639c1.622.511 2.79.893 3.969 1.245 10.134 3.025 20.353 5.776 30.377 9.167.157.052.3.139.461.178a1.587 1.587 0 0 0 2.058-1.161c.175-.435.333-.876.541-1.426-.7-.655-1.339-1.3-2.031-1.887a46.12 46.12 0 0 0-2.724-2.153A45.6 45.6 0 0 0 65.4 9.414c-2.922-1.014-5.817-1.9-8.866-.519a2.268 2.268 0 0 1-.487.089c-3.076.638-6.155 1.263-9.225 1.922-.622.134-1.209.388-2.259.733zm10.425-5.078c-.964-.218-1.924-.459-2.893-.65a135.664 135.664 0 0 0-16.738-2.168 104.548 104.548 0 0 0-19.348.339A54.154 54.154 0 0 0 8.958 5.5a15.466 15.466 0 0 0-3.153 1.418 2.129 2.129 0 0 0-.856.858 2.938 2.938 0 0 0 .739 3.347 35.2 35.2 0 0 0 3.557 2.259 31.865 31.865 0 0 0 6.727 2.518 197.756 197.756 0 0 0 19.9 4.238 232.033 232.033 0 0 0 27.085 3.421c3.139.159 6.289.113 9.436.122a2.111 2.111 0 0 0 1.861-.693c-.959-.257-1.751-.471-2.542-.682-9.205-2.434-18.212-5.521-27.262-8.448a8.625 8.625 0 0 1-1.373-.577c-1.3-.684-1.523-1.243-1.259-3.2 4.248-1.372 8.771-1.937 13.17-3.52zm24.7 20.2c-.736.057-1.136.077-1.534.117-2.794.286-5.581.72-8.382.836A98.959 98.959 0 0 1 52.2 26.633c-6.879-.944-13.733-2.105-20.563-3.358a113.906 113.906 0 0 1-16.789-4.382 27.307 27.307 0 0 1-9.677-5.411c-.086-.077-.3-.009-.5-.009Q3.387 23.749 2.1 34.017c1.665 1.277 1.979 1.41 3.726 1.575.066-.224.125-.46.2-.687a29.5 29.5 0 0 1 2.825-6.863c.174-.273.535-.427 1.182-.921a94.719 94.719 0 0 1-2.475 9.342 10.569 10.569 0 0 0 3.762 1.172 17.685 17.685 0 0 1 1.078-6.7 20.366 20.366 0 0 1 1.385-3.163c.1-.209.424-.311.686-.494.086.255.144.336.129.4a43 43 0 0 0-1.4 8.309 3.41 3.41 0 0 1-.298 1.183 6.324 6.324 0 0 1-.621.962c.69.257 1.219.48 1.766.655 2.361.754 4.729 1.492 7.094 2.238a124.037 124.037 0 0 0 22.539 4.759c4.688.563 9.386.914 14.1 1.155a135.6 135.6 0 0 0 17.859-.4 2 2 0 0 0 1.96-.884c-.778-2.12-.384-4.5-.106-6.877.173-1.477.461-2.941.733-4.406.451-2.432.931-4.859 1.462-7.611zM.027 34.516c0-.934-.066-1.763.009-2.577q.927-9.9 1.9-19.785.254-2.594.619-5.176a4.35 4.35 0 0 1 2.069-3.251 14.387 14.387 0 0 1 3.571-1.678A51.347 51.347 0 0 1 15.482.57a97.967 97.967 0 0 1 18.11-.285 142.883 142.883 0 0 1 17.235 2.186 100.682 100.682 0 0 1 19.9 6.077 29.026 29.026 0 0 1 6.453 3.682c.454.348 1.016.559 1.481.894a33.689 33.689 0 0 1 3.146 2.4c2.218 2.051 2.594 4.7 2.154 7.531-.5 3.185-1 6.372-1.548 9.548-.611 3.5-1.229 7.014-1.954 10.5-.455 2.178-1.116 4.313-1.692 6.492a8.8 8.8 0 0 1-4.054 1.005 97.326 97.326 0 0 1-13.4.325 188.3 188.3 0 0 1-21.973-2.31A123.8 123.8 0 0 1 20.809 44c-4.091-1.32-8.126-2.819-12.158-4.319a34.945 34.945 0 0 1-8.624-5.165z" transform="rotate(4 -29278.664 18276.517)"/>
        <path id="Path_186" data-name="Path 186" class="cls-1" d="M3.574 0a20.261 20.261 0 0 1-1.433 8.4C1.772 9.419 1.44 9.481 0 9.037A30.7 30.7 0 0 1 3.574 0z" transform="rotate(4 -29651.012 17035.227)"/>
        <path id="Path_187" data-name="Path 187" class="cls-1" d="M0 12.363a1.81 1.81 0 0 1 .929-.439c2.113-.664 4.234-1.308 6.347-1.971C10.92 8.812 14.56 7.656 18.2 6.516c4.645-1.454 9.341-2.739 14.032-4.034 2.416-.667 4.831-1.345 7.248-2.007a30.88 30.88 0 0 1 1.787-.417c.213-.045.447-.121.628.036.063.232-.082.315-.2.37a18.149 18.149 0 0 1-1.757.776C37.977 1.9 36 2.526 34.037 3.168c-3.161 1.032-6.4 1.8-9.588 2.724-4.424 1.274-8.839 2.584-13.266 3.851-2.943.841-5.9 1.639-8.851 2.446-.561.152-1.137.259-1.708.375-.232.046-.471.068-.624-.201z" transform="rotate(4 -30672.192 12467.028)"/>
        <path id="Path_188" data-name="Path 188" class="cls-1" d="M0 6.145A1.734 1.734 0 0 1 .786 5.8c1.459-.4 2.914-.835 4.383-1.191 2.66-.643 5.325-1.267 8-1.848 2.19-.476 4.394-.89 6.6-1.309Q22.942.846 26.127.29c.773-.135 1.56-.2 2.342-.279a6.711 6.711 0 0 1 .684 0c0 .312-.225.295-.37.333-2.086.54-4.168 1.1-6.263 1.6C17.731 3.077 12.9 4 8.066 4.942c-2.172.427-4.34.871-6.511 1.3-.37.073-.748.114-1.124.161-.119.015-.12.002-.431-.258z" transform="rotate(4 -30781.28 12821.902)"/>
        <path id="Path_189" data-name="Path 189" class="cls-1" d="M0 4.687a1.87 1.87 0 0 1 1.028-.611c1.366-.416 2.724-.87 4.113-1.189 1.987-.459 4-.834 6-1.2Q14.5 1.062 17.864.52c1.295-.209 2.6-.351 3.9-.519a.468.468 0 0 1 .161.042c.043.189-.115.271-.228.325a12.105 12.105 0 0 1-1.277.554 37.4 37.4 0 0 1-4.659 1.187c-2.569.531-5.138 1.064-7.72 1.536-2.007.369-4.031.65-6.048.964-.489.077-.981.137-1.474.185A2.221 2.221 0 0 1 0 4.687z" transform="rotate(4 -30858.02 12996.322)"/>
        <path id="Path_190" data-name="Path 190" class="cls-1" d="m16.5 22.458-.042.065.063.016zm-1.05-11.266a.968.968 0 0 0 .236 1.251l.363-.366c-.185-.271-.349-.515-.602-.885zm.833-.71c-.3.114-.4.254-.312.46.1.24.228.469.345.7a.9.9 0 0 0 .507-.548c-.172-.189-.35-.394-.543-.612zM4.952 23.352c-.171-.295-.267-.6-.664-.732l-.37.3a1.985 1.985 0 0 0 .512.962zm.56-2.009a3.974 3.974 0 0 0-.305.282c-.1.113-.178.239-.295.4l.438.872.7-.721zM21.288 6.649a3.183 3.183 0 0 0 .912-1.055l-.6-.509a3.684 3.684 0 0 0-.727.923zm-.83-.258a3.658 3.658 0 0 0-.9.974l.449.632L21 7.02zM9.008 18.742a2.692 2.692 0 0 0 .778-.891 2.162 2.162 0 0 0-.748-.872l-.565.706c.182.362.335.662.535 1.057zm-2.935 1.916a1.739 1.739 0 0 0 .337.987 1.2 1.2 0 0 0 .288-.158c.232-.248.452-.51.685-.776a4.027 4.027 0 0 0-.247-.424c-.107-.141-.239-.261-.388-.419-.255.3-.475.558-.675.79zM17.6 9.156a3.123 3.123 0 0 0-.937.917c.2.262.383.495.581.75l.993-.955C18.1 9.686 18 9.537 17.88 9.4a2.635 2.635 0 0 0-.28-.244zm-9.893 11.01a2.859 2.859 0 0 0 .923-.935 1.96 1.96 0 0 0-.67-.842l-.711.876.458.901zm12-11.8c-.221-.3-.3-.591-.648-.639-.176.165-.361.327-.533.5s-.318.351-.495.546l.516.773c.401-.411.763-.779 1.153-1.182zM10.239 17.3a2.679 2.679 0 0 0 .756-.943c-.193-.315-.384-.627-.6-.975a3.994 3.994 0 0 0-.856 1.008zm8.461 2.127c-.464-.7-.9-1.386-1.356-2.051-.906-1.306-1.839-2.6-2.737-3.908a9.907 9.907 0 0 1-.772-1.385.962.962 0 0 1 .229-1.2c.274-.254.543-.516.814-.773 1.7-1.612 3.376-3.239 4.933-4.986a3.22 3.22 0 0 0 .858-1.337 5.3 5.3 0 0 0-1.734-1.534c-.232.214-.449.391-.64.593-.511.548-1.007 1.108-1.514 1.658-1.288 1.4-2.569 2.806-3.875 4.189a5.655 5.655 0 0 1-1.024.8.51.51 0 0 1-.806-.151 5.335 5.335 0 0 1-.607-1.042c-.42-1.007-.8-2.029-1.2-3.045C8.9 4.3 8.54 3.333 8.146 2.383A4.691 4.691 0 0 0 7.289.911a9.372 9.372 0 0 0-1.775.989c.28.653.552 1.246.79 1.852a20.95 20.95 0 0 1 .859 2.37c.325 1.266.574 2.554.8 3.841a1.954 1.954 0 0 0 .5 1.016 5.222 5.222 0 0 1-1.375 2.043Q4.5 15.918 1.944 18.84a6.836 6.836 0 0 0-.632.922.433.433 0 0 0 .04.526 11.357 11.357 0 0 0 1.979 1.987A3.249 3.249 0 0 0 3.63 22c.819-.981 1.687-1.926 2.44-2.958 1.16-1.591 2.494-3.034 3.728-4.562a2.713 2.713 0 0 1 .388-.4 1.237 1.237 0 0 1 1.8.175 11.929 11.929 0 0 1 .919 1.406c.707 1.283 1.378 2.586 2.076 3.874a7.744 7.744 0 0 0 1.476 2.012 7.078 7.078 0 0 0 2.243-2.12zm-.81 4.177a2.155 2.155 0 0 1-.24.385.428.428 0 0 1-.657.056 4.031 4.031 0 0 1-.5-.549 4.66 4.66 0 0 1-.353-.55c-.107-.189-.2-.389-.318-.634a2.387 2.387 0 0 1-1.294-1.1 21.917 21.917 0 0 1-.987-1.584c-.424-.762-.808-1.547-1.214-2.319-.143-.273-.3-.538-.481-.86-.177.171-.316.286-.431.42a4.077 4.077 0 0 0-.752.946c-.174.415-.6.531-.806.873-.156.257-.481.415-.433.791.006.05-.1.161-.166.165-.325.023-.48.269-.665.473-1 1.1-1.987 2.23-3.019 3.307a4.73 4.73 0 0 1-1.393 1.15c-.1-.172-.173-.324-.269-.46-.108-.151-.246-.282-.352-.435-.215-.311-.417-.627-.848-.661a.318.318 0 0 1-.163-.088 18.455 18.455 0 0 1-2.371-2.38.682.682 0 0 1-.093-.787 4.869 4.869 0 0 1 .487-.791 61.96 61.96 0 0 1 1.681-2.007c1.256-1.427 2.53-2.839 3.789-4.264.431-.489.84-1 1.262-1.5-.431-1.148-.814-2.263-1.268-3.35a32.328 32.328 0 0 1-1.493-4.524c-.015-.06-.034-.121-.048-.181-.194-.958-.129-1.107.687-1.6.56-.339 1.108-.7 1.68-1.014A7.076 7.076 0 0 1 7.976.053a.744.744 0 0 1 .956.372c.264.459.526.921.747 1.4a23.61 23.61 0 0 1 1.3 3.7c.2.721.39 1.443.592 2.163.056.2.131.4.226.684.254-.246.46-.427.642-.628q2.266-2.491 4.524-4.986c.23-.254.474-.5.715-.739a1 1 0 0 1 .946-.282 3.71 3.71 0 0 1 .894.255 4.94 4.94 0 0 1 2.5 2.279 2.159 2.159 0 0 0 .339.437c.182.21.37.415.547.612a1.429 1.429 0 0 1-.57.867q-1.925 1.977-3.873 3.93c-.856.856-1.731 1.692-2.6 2.538-.019.017-.015.058-.038.153a6.392 6.392 0 0 0 .736 1.115c.759 1.028 1.528 2.048 2.284 3.077.24.326.448.676.683 1.006.179.252.387.482.563.735a16.6 16.6 0 0 1 .984 1.469c.268.485.156.668-.442.981.081-.555-.367-.9-.546-1.352-.022-.057-.142-.076-.259-.131-.1.543.394.95.272 1.47-.476-.136-.452-.684-.857-.909l-.625.64c.137.244.23.442.353.62.132.193.17.476.441.532.377-.124.548-.557.972-.55a4.946 4.946 0 0 1-1.363 1.168 1.131 1.131 0 0 0-.079-.434c-.222-.326-.483-.628-.75-.967l-.483.362a5.484 5.484 0 0 0 .589 1.353l.756-.346a2.7 2.7 0 0 1-1.195.992l.176-.433c-.245-.344-.491-.7-.747-1.04-.026-.035-.106-.03-.16-.043-.053.47.021.7.487 1.483z" transform="rotate(4 -29917.182 20802.109)"/>
        <path id="Path_194" data-name="Path 194" class="cls-1" d="M5.912 5.853a.725.725 0 0 0-.59.955c.008.343 0 .69-.013 1.042-.237-.4-.473-.8-.683-1.215a.673.673 0 0 0-.242-.265.705.705 0 0 0-.615-.149c-.48.1-.952.216-1.423.344.284-.376.564-.754.848-1.125a.608.608 0 0 0 .179-.812c-.2-.376-.388-.762-.572-1.149.307.154.613.31.925.451a.625.625 0 0 0 .874-.416q.427-.538.838-1.087c.024.454.055.906.075 1.353a.774.774 0 0 0 .408.993c.539.24 1.081.55 1.63.852-.551.075-1.094.144-1.639.228zm4.38.7a.682.682 0 0 0 .268-.833.447.447 0 0 0-.024-.053l-.019-.024a.459.459 0 0 0-.078-.107 12.58 12.58 0 0 0-3.53-1.949A25.975 25.975 0 0 0 6.762.565a.579.579 0 0 0-.508-.512.48.48 0 0 0-.577.1C5 .869 4.406 1.651 3.788 2.414c-.692-.275-1.378-.571-2.069-.85a.512.512 0 0 0-.642.147.6.6 0 0 0-.172.7c.315.833.641 1.659 1.024 2.463A19.989 19.989 0 0 0 .212 7.293a.479.479 0 0 0-.207.476.619.619 0 0 0 .451.547.59.59 0 0 0 .175.029H.64a.549.549 0 0 0 .078.007c1.015-.091 2-.343 3-.527.56.879 1.159 1.738 1.676 2.64a.708.708 0 0 0 .052.062.523.523 0 0 0 .994-.065.5.5 0 0 0 .058-.275 16.825 16.825 0 0 0 .2-2.864c.661-.111 1.321-.222 1.983-.339a5.052 5.052 0 0 0 1.611-.427z" transform="rotate(4 -31434.97 8955.972)"/>
        <path id="Path_195" data-name="Path 195" class="cls-1" d="M9.366 11.66a1.445 1.445 0 0 1 1.175 1.9c-.015.68 0 1.374.026 2.073.473-.8.941-1.6 1.36-2.419a1.362 1.362 0 0 1 .481-.528 1.411 1.411 0 0 1 1.227-.295c.956.189 1.9.431 2.835.684-.568-.748-1.126-1.5-1.69-2.242a1.209 1.209 0 0 1-.357-1.614c.405-.751.772-1.52 1.142-2.289-.611.307-1.222.617-1.845.9A1.245 1.245 0 0 1 11.982 7q-.848-1.073-1.671-2.166c-.046.9-.107 1.8-.149 2.694a1.542 1.542 0 0 1-.813 1.98c-1.074.476-2.154 1.1-3.249 1.7 1.089.145 2.18.283 3.266.452zm-8.725 1.4a1.354 1.354 0 0 1-.535-1.66.768.768 0 0 1 .049-.1.78.78 0 0 1 .036-.05.939.939 0 0 1 .156-.211c1.9-1.716 4.6-2.857 7.032-3.882a51.769 51.769 0 0 1 .294-6.028A1.156 1.156 0 0 1 8.683.105a.958.958 0 0 1 1.151.209c1.348 1.418 2.533 2.976 3.766 4.494 1.38-.548 2.745-1.138 4.124-1.693A1.025 1.025 0 0 1 19 3.409a1.191 1.191 0 0 1 .342 1.391c-.627 1.66-1.278 3.307-2.042 4.908a40.008 40.008 0 0 1 3.42 4.822.949.949 0 0 1 .412.948 1.232 1.232 0 0 1-.9 1.09 1.245 1.245 0 0 1-.35.059h-.012a1.141 1.141 0 0 1-.156.015c-2.021-.18-3.991-.683-5.984-1.051-1.116 1.752-2.31 3.463-3.339 5.258a1.386 1.386 0 0 1-.1.123 1.042 1.042 0 0 1-1.98-.129 1.027 1.027 0 0 1-.116-.55 33.364 33.364 0 0 1-.4-5.7c-1.318-.222-2.634-.442-3.951-.676a10.053 10.053 0 0 1-3.202-.855z" transform="rotate(4 -31785.129 8298.412)"/>
        <path id="Path_196" data-name="Path 196" class="cls-2" d="M83.92 5.36c.138-.144.249-.355.418-.424 2.231-.912 4.471-1.8 6.711-2.694.041-.016.114.054.259.13-.213.408-.417.82-.639 1.223-.907 1.648-1.879 3.263-2.716 4.945-3 6.013-5.982 12.031-8.9 18.08-3.329 6.9-6.487 13.877-9.9 20.731C63.575 58.535 57.861 69.647 52.2 80.785q-5.163 10.147-10.359 20.279c-.048.093-.185.141-.374.278-.612-.964-1.253-1.9-1.816-2.879a11.7 11.7 0 0 1-1.692-2.953c.469-.543.924-1.035 1.34-1.557a67.03 67.03 0 0 0 1.7-2.243c.157-.213.252-.469-.223-.708-.926.889-1.885 1.819-2.858 2.735-.267.253-.575.461-.98.782-.577-1.07-1.416-1.778-1.716-2.792.865-1.219 1.686-2.361 2.482-3.52.131-.19.336-.461-.108-.739a16.877 16.877 0 0 0-3.309 3.2 42.329 42.329 0 0 1-2.6-4.25c.441-.568.861-1.087 1.259-1.623a2.677 2.677 0 0 0 .689-1.744c-1.093.527-1.719 1.7-2.952 2.063a12.437 12.437 0 0 1-1.82-2.925c.74-1 1.72-1.762 2.111-3.163-1.275.39-1.958 1.394-3.015 1.941a25.264 25.264 0 0 1-2.95-4.3c.828-1.051 1.973-1.685 2.66-3.027-1.489.362-2.214 1.608-3.507 1.972-.615-.873-1.2-1.688-1.769-2.511-.185-.266-.34-.553-.548-.893.488-.55.93-1.042 1.363-1.542a2.857 2.857 0 0 0 .934-1.852 18.8 18.8 0 0 0-3.061 2.3 18.383 18.383 0 0 1-2.569-3.789c.281-.8 1.11-1.127 1.175-2.138l-1.972 1.189c-.4-.527-.742-.935-1.04-1.371-.331-.483-.625-.99-1.057-1.678.425-.41.833-.766 1.187-1.166.149-.168.377-.422.015-.693l-1.736 1.088a11.692 11.692 0 0 1-2.253-3.168c.175-.685.87-.966.874-1.615-.757-.131-1.014.788-1.793.538a11.6 11.6 0 0 1-1.587-2.274c.391-.968 1.42-1.38 1.522-2.445-.93.307-1.321 1.244-2.3 1.5l-2.516-3.439c.343-.542.632-.984.9-1.442.046-.08-.014-.22-.026-.328-.656-.082-.913.837-1.706.57-.624-.86-1.324-1.761-1.95-2.709C3.6 46.76 2.61 46 2.159 44.894L11.7 40.77c1.046.75 1.583 1.994 2.84 2.7.008-1.389-.978-2.19-1.375-3.334.489-.28.928-.56 1.392-.785s.972-.4 1.507-.622c.572.574 1.068 1.115 1.611 1.6a4.844 4.844 0 0 0 2.045 1.381c-.667-1.082-1.155-1.853-1.621-2.641-.187-.319-.319-.67-.518-1.1l2.612-1.255c1.007.645 1.546 1.765 2.873 2.137-.214-1.159-1.165-1.778-1.455-2.768a17.144 17.144 0 0 1 4.2-2c.491.478.909.912 1.357 1.314a3.261 3.261 0 0 0 1.82 1.08L26.945 33.3l3.075-1.6c1.1.715 1.676 1.952 3.253 2.5-.728-1.193-1.268-2.078-1.9-3.1a28.032 28.032 0 0 1 3.985-2.006c1.132.692 1.645 2.036 3.064 2.46a3.091 3.091 0 0 0-.772-1.655c-.291-.491-.883-.85-.725-1.635a11.645 11.645 0 0 1 2.583-1.236c2.159 1.625 2.159 1.625 3.159 1.715l-1.933-2.425a36.315 36.315 0 0 1 4.866-2.524c.935.814 1.114 2.219 2.485 2.653.007-1.306-.943-2.178-1.152-3.465a24.517 24.517 0 0 1 3.536-1.8c.67.933 1.275 1.809 1.921 2.651.167.217.386.565.848.255-.232-1.243-1.1-2.263-1.4-3.579a9.5 9.5 0 0 1 3.43-1.629c.532.547 1.032 1.085 1.56 1.594a4.027 4.027 0 0 0 1.743 1.326c-.115-1.573-1.269-2.452-1.932-3.683a21.372 21.372 0 0 1 4.093-2.073c.861.9 1.182 2.111 2.381 2.676.215-1.306-.985-2.105-.97-3.309a18.7 18.7 0 0 1 4.151-1.869c.816 1.126.97 2.564 2.2 3.416-.121-1.455-1.024-2.6-.973-4a9.316 9.316 0 0 1 2.909-1.33c.511.741.938 1.418 1.433 2.041.167.211.5.29 1.037.578-.363-1.306-.645-2.31-.939-3.367 1.289-.609 2.348-1.443 3.74-1.623l1.649 2.837c.295-1.423-.84-2.322-.614-3.58a24.384 24.384 0 0 1 3.964-1.79c.394.721.725 1.378 1.1 2a9.8 9.8 0 0 0 1.04 1.475c.167.187.533.2.881.312.153-1.845-.9-3.155-1.471-4.677.476-.213.892-.414 1.321-.579.1-.037.249.05.374.08zM0 44.892a7.539 7.539 0 0 0 1.356 2.537c1.2 1.848 2.833 3.408 3.689 5.493C7.193 54.9 8.5 57.511 10.246 59.8c1.708 2.244 3.272 4.6 4.863 6.928 5.267 7.712 10.466 15.471 15.8 23.138 3.145 4.523 6.489 8.907 9.757 13.343a8.265 8.265 0 0 0 1.09 1.169c.334.307.971.047.865-.361a2.228 2.228 0 0 1 .534-1.847c6.056-9.706 11.313-19.847 16.409-30.077C63.28 64.634 67.1 57.228 70.78 49.752c6.675-13.567 13.41-27.1 19.642-40.882.941-2.078 1.747-4.22 2.57-6.348a3.805 3.805 0 0 0 .417-1.948 5.2 5.2 0 0 0-4.287-.219 50.8 50.8 0 0 0-7.886 3.054C70.479 8.632 59.69 13.791 49 19.15 34.947 26.194 20.978 33.405 6.971 40.543A43.675 43.675 0 0 0 0 44.892z" transform="rotate(4 -31154.857 21566.954)"/>
        <path id="Path_197" data-name="Path 197" class="cls-2" d="M29.88 70.739c-3.74-5.319-7.221-10.494-10.934-15.5C13.622 48.066 8.29 40.9 2.536 34.052a2.2 2.2 0 0 1-.226-.33.389.389 0 0 1-.031-.2 1.649 1.649 0 0 1 .07-.26c.91-.437 1.879-.9 2.842-1.364 7-3.416 13.982-6.873 21.008-10.239 4.9-2.35 9.911-4.492 14.8-6.883C48.35 11.178 55.776 7.7 62.9 3.649c.211-.121.44-.214 1-.487C52.454 25.818 41.939 48.52 29.88 70.739zM67.3 0a7.976 7.976 0 0 0-1.56.3 64.71 64.71 0 0 0-3.816 1.822q-8.567 4.478-17.111 9.01c-6.227 3.32-12.645 6.238-19.045 9.2C17.357 24.221 9 28.231.8 32.557a2.367 2.367 0 0 0-.54.253.664.664 0 0 0-.137.909c.577.741 1.217 1.432 1.795 2.171 2.07 2.643 4.183 5.255 6.175 7.955 5.947 8.05 11.839 16.137 17.762 24.2a24.56 24.56 0 0 0 4.011 4.6 8.5 8.5 0 0 0 1.569-2.26c1.762-3.172 3.58-6.315 5.21-9.552 4.655-9.233 9.24-18.504 13.834-27.77 3.7-7.463 7.355-14.946 11.073-22.4 1.018-2.041 2.2-4 3.292-6.008C65.638 3.2 66.4 1.717 67.3 0z" transform="rotate(4 -31366.007 21625.233)"/>
        <path id="Path_198" data-name="Path 198" class="cls-1" d="M8.694 12.083a17.845 17.845 0 0 1-.046-3.847 25.02 25.02 0 0 0 .087-2.047 3.177 3.177 0 0 0-.589-2.062c-.261.25-.592.433-.718.712C6.968 5.85 6.577 6.892 6.1 8.08l-1.454.2a1.834 1.834 0 0 1-.224-1.7c.406-1.658-.122-3.171-.631-4.88-.374.381-.691.581-.833.868-.485 1-.909 2.029-1.352 3.033-1.334.16-1.687-.115-1.591-1.262A6.117 6.117 0 0 1 1.46.963 2.073 2.073 0 0 1 2.534.272 11.811 11.811 0 0 1 4.921 0a1.421 1.421 0 0 1 1.393 1.05c.182.518.317 1.052.5 1.666.523-.072 1-.152 1.475-.2 1.844-.2 2.565.252 2.819 2.106a16.118 16.118 0 0 1 .007 3.894 16.3 16.3 0 0 1-.821 3.051c-.209.667-.375.701-1.6.516z" transform="rotate(4 -28458.26 20893.328)"/>
        <path id="Path_199" data-name="Path 199" class="cls-1" d="M15.884 0a4.3 4.3 0 0 1-.278 1.164 32.603 32.603 0 0 1-1.794 2.6C10.572 7.927 7.275 12.045 3.671 15.9a26.2 26.2 0 0 1-2.2 1.994 2.4 2.4 0 0 1-.82.415.6.6 0 0 1-.505-.089.557.557 0 0 1-.129-.492 5.041 5.041 0 0 1 .6-1.143c1.274-1.681 2.508-3.4 3.879-5a412.398 412.398 0 0 1 7.896-8.924A27.219 27.219 0 0 1 15.035.319 3.392 3.392 0 0 1 15.884 0z" transform="rotate(4 -28475.734 21141.743)"/>
        <path id="Path_200" data-name="Path 200" class="cls-1" d="M6.906 4.575A2.964 2.964 0 0 0 5.9 6.029a2.188 2.188 0 0 1-2.1 1.488c-.389-.24-.236-.568-.194-.854.15-1.043.351-2.08.469-3.127a2.985 2.985 0 0 0-.53-2.236 5.51 5.51 0 0 0-.851.709c-.422.534-.763 1.132-1.179 1.673-.336.439-.683.909-1.356.839C.1 4.429-.019 4.316 0 4.246A5.833 5.833 0 0 1 3.391.3C5.141-.41 5.979.128 6.135 2c.036.429.066.86.106 1.288 0 .048.064.092.111.156.654-.155 1.308-.363 1.978-.457a1.547 1.547 0 0 1 1.9 1.105 5.211 5.211 0 0 1 .289 2.928 9.948 9.948 0 0 1-2.855 5.329 2.677 2.677 0 0 1-1.6.77 3.431 3.431 0 0 1 .136-.749c.495-1.07 1.04-2.116 1.515-3.2a4.672 4.672 0 0 0-.1-3.97 1.7 1.7 0 0 0-.312-.46c-.07-.073-.203-.089-.397-.165z" transform="rotate(4 -28646.625 21302.75)"/>
        <path id="Path_201" data-name="Path 201" class="cls-1" d="M6.013 4.958c.62-.257 1.116-.478 1.623-.667 1.579-.587 2.579-.078 2.836 1.59a6.216 6.216 0 0 1-1.244 5.1A18.353 18.353 0 0 1 7.2 12.886a2.464 2.464 0 0 1-.643.293c-.262-.558.179-.731.382-.963a6.471 6.471 0 0 0 1.548-3.134 3.533 3.533 0 0 0-.672-2.989c-.446-.557-.96-.575-1.38-.014a11.563 11.563 0 0 0-.893 1.413 3.015 3.015 0 0 1-1.249 1.339c-.16.081-.34.122-.694.247.525-1.973 1.039-3.645.748-5.4A5.357 5.357 0 0 0 4 2.426a4.025 4.025 0 0 0-.66-.794c-.257.24-.538.4-.658.634-.528 1.053-1 2.135-1.518 3.195a2.611 2.611 0 0 1-.535.732.5.5 0 0 1-.452-.114 1.875 1.875 0 0 1-.17-.895A5.778 5.778 0 0 1 3.719.237a3.8 3.8 0 0 1 .9-.222A1.189 1.189 0 0 1 6.079 1.1a11 11 0 0 1 .069 1.857c-.012.614-.08 1.228-.135 2.001z" transform="rotate(4 -28938.656 20478)"/>
        <path id="Path_202" data-name="Path 202" class="cls-1" d="M5.477 11.327c-.792-3.249-.919-6.611-2.763-9.481-.766.9-.775.894-1.073 2.479-.172.91-.311 1.824-.456 2.681C.737 7.3.389 7.27.2 6.846a2.431 2.431 0 0 1-.19-.9 9.653 9.653 0 0 1 .802-4.18A2.727 2.727 0 0 1 2.18.3a1.818 1.818 0 0 1 2.684.776A10.186 10.186 0 0 1 6.34 5.068c.146.857.217 1.727.338 2.588.041.29.132.572.236 1.01 1.386-1.031 1.818-2.709 3.32-3.558.053.23.19.461.129.614a16.537 16.537 0 0 1-2.446 4.37 3.055 3.055 0 0 1-2.44 1.235z" transform="rotate(4 -28737.305 20169.12)"/>
        <path id="Path_203" data-name="Path 203" class="cls-1" d="M7.455 8.828c.049.741.113 1.414.129 2.088a3.446 3.446 0 0 1-.115 1.1.894.894 0 0 1-.517.451.547.547 0 0 1-.481-.195 4.652 4.652 0 0 1-.6-1.141 31.246 31.246 0 0 1-.741-2.7 2.664 2.664 0 0 0-1.416-1.849C2.423 5.854 1.2 5.013 0 4.255c.017-.633.37-.788.745-.734a8.69 8.69 0 0 1 1.608.426c.579.2 1.136.472 1.867.782.015-.547.046-.947.034-1.346-.023-.747-.124-1.493-.1-2.235C4.185.443 4.583.017 5.438 0A4.96 4.96 0 0 1 5.8.822c.4 1.632.793 3.266 1.145 4.909a1.949 1.949 0 0 0 .879 1.356q1.1.7 2.166 1.465c.435.313.981.537 1.162 1.2-.72.474-1.305-.037-1.9-.261a5.074 5.074 0 0 0-1.797-.663z" transform="rotate(4 -28671.413 20581.418)"/>
        <path id="Path_204" data-name="Path 204" class="cls-1" d="M1.323 1.166a15.653 15.653 0 0 0 3.656 5.955c.1.1.341.047.5.064a1.971 1.971 0 0 0 .2-.352 2.146 2.146 0 0 0 .11-.539A6.143 6.143 0 0 0 3.078.922c-.503-.391-1.041-.267-1.755.244zM2.7 7.34a8.9 8.9 0 0 1-2.649-5A1.66 1.66 0 0 1 1.533.186a5.187 5.187 0 0 1 .548-.1c1.493-.124 3.049-.308 4.19.928a6.442 6.442 0 0 1 1.756 5.3 2.1 2.1 0 0 1-1.754 1.925c-1.506.345-2.85.196-3.573-.899z" transform="rotate(4 -28414.319 21116.332)"/>
        <path id="Path_205" data-name="Path 205" class="cls-1" d="M8.433 0a1.405 1.405 0 0 1-.255 1.419A62.107 62.107 0 0 1 3.64 8.67c-.707.942-1.4 1.894-2.123 2.825-.409.526-.428.512-1.388.745-.311-.515.009-.938.214-1.367A35.126 35.126 0 0 1 4.05 4.648a96.428 96.428 0 0 1 2.9-3.637A2.276 2.276 0 0 1 8.433 0z" transform="rotate(4 -28803.887 20349.52)"/>
        <path id="Path_206" data-name="Path 206" class="cls-1" d="M0 2.962C.586 2.269 1.132 1.536 1.773.9A6.567 6.567 0 0 1 3.141.008c.064-.038.211.071.32.113.013.107.077.266.029.313-.867.859-1.738 1.717-2.634 2.546a1.866 1.866 0 0 1-.663.234z" transform="rotate(4 -28667.297 20792.48)"/>
        <g id="Group" transform="translate(1111.212 2283.888)">
            <path id="Path_471" data-name="Path 471" class="cls-3" d="M24.869 107.225c3.89-.6 7.741-2.326 11.446-3.622l11.133-3.894c7.423-2.6 14.838-5.205 22.209-7.949 14.9-5.545 29.689-11.392 44.632-16.816 8.506-3.087 17.142-5.939 25.487-9.438a.362.362 0 0 0-.244-.68c-7.685 2.322-15.2 5.23-22.762 7.924-7.406 2.639-14.851 5.178-22.3 7.7-15.053 5.112-30.131 10.16-45.019 15.74-4.161 1.559-8.336 3.086-12.5 4.626-2.164.8-4.335 1.585-6.494 2.4a37.535 37.535 0 0 0-6.08 2.631.764.764 0 0 0 .492 1.378z" transform="translate(-24.058 -46.727)"/>
            <path id="Path_472" data-name="Path 472" class="cls-3" d="M168.262 62.368a28.443 28.443 0 0 1 6.463 1.175c1.73.435 4.232 1.293 5.946.467a.586.586 0 0 0 .051-1.067 11.806 11.806 0 0 0-2.963-.724c-1.148-.25-2.291-.531-3.439-.786a12.755 12.755 0 0 0-6.275-.08c-.608.162-.333 1.009.217 1.015z" transform="translate(-63.815 -45.672)"/>
            <path id="Path_473" data-name="Path 473" class="cls-3" d="M174.366 74.361a32.107 32.107 0 0 0 5.28-4.56c1.441-1.588 3.18-3.521 3.382-5.734a.558.558 0 0 0-.859-.551c-1.706 1.161-2.729 3.166-4 4.761a43.065 43.065 0 0 1-4.558 5.006c-.611.553.041 1.586.755 1.078z" transform="translate(-65.383 -46.342)"/>
            <path id="Path_474" data-name="Path 474" class="cls-3" d="M62.657 136.559c-1.532-5.932-3.767-11.706-5.813-17.477q-3.034-8.557-6.109-17.1L38.457 67.81c-1.153-3.209-2.293-6.422-3.47-9.622a175.87 175.87 0 0 0-1.844-4.772 11.872 11.872 0 0 0-2.2-4.032.381.381 0 0 0-.616.222c-.2 2.69 1.191 5.649 2.066 8.157 1.011 2.9 2.058 5.782 3.1 8.67l6.15 17.083c4.1 11.389 8.173 22.788 12.321 34.16 2.359 6.467 4.518 13.1 7.438 19.337a.669.669 0 0 0 1.255-.454z" transform="translate(-25.787 -42.432)"/>
            <path id="Path_475" data-name="Path 475" class="cls-3" d="M26.185 62.652a36.275 36.275 0 0 0 2.863-6.931c.646-2.178 1.4-4.878.514-7.074a.638.638 0 0 0-1.217.1 17.951 17.951 0 0 0-.527 3.3 27.275 27.275 0 0 1-.727 3.524c-.6 2.263-1.464 4.441-2.116 6.688-.213.734.881 1.001 1.21.393z" transform="translate(-24.304 -42.141)"/>
            <path id="Path_476" data-name="Path 476" class="cls-3" d="m30.755 50.514-.072-.027a.793.793 0 0 0-1.026.369l-.04.074a.832.832 0 0 0 .218.988 53.673 53.673 0 0 0 6.314 3.4c1.972 1.012 4.323 2.722 6.564 2.884.684.049 1.385-.7.867-1.353-1.421-1.79-4.137-2.718-6.161-3.646a114.248 114.248 0 0 0-3.4-1.513q-.919-.385-1.857-.717c-.019-.007-1.463-.553-1.175-.231l-.038.939.051-.064a.719.719 0 0 0-.245-1.103z" transform="translate(-25.575 -42.746)"/>
            <path id="Path_477" data-name="Path 477" class="cls-3" d="M37.612 85.156a17.045 17.045 0 0 0 4.126-1.163 13.141 13.141 0 0 0 3.935-1.712.848.848 0 0 0-.548-1.525A13.156 13.156 0 0 0 41 81.942a17 17 0 0 0-3.922 1.731.824.824 0 0 0 .534 1.483z" transform="translate(-27.569 -51.141)"/>
            <path id="Path_478" data-name="Path 478" class="cls-3" d="M44.258 104.463c1.591.392 3.566-.654 5.057-1.148 1.676-.555 3.871-.942 5.261-2.072a.875.875 0 0 0-.566-1.574c-1.8.014-3.722 1.11-5.376 1.753-1.453.565-3.66 1.03-4.63 2.336a.44.44 0 0 0 .254.705z" transform="translate(-29.552 -56.376)"/>
            <path id="Path_479" data-name="Path 479" class="cls-3" d="M52.071 125.07c1.7.2 3.631-.635 5.232-1.153a20.145 20.145 0 0 0 5.415-2.132c1.166-.813-.3-2.548-1.356-1.472l-.235.24a.845.845 0 0 0 .491 1.365l.334.035.107-2a20.08 20.08 0 0 0-5.533 1.805c-1.556.617-3.589 1.206-4.768 2.444a.537.537 0 0 0 .313.868z" transform="translate(-31.691 -61.991)"/>
            <path id="Path_480" data-name="Path 480" class="cls-3" d="M58.951 145.269c1.53.247 3.151-.468 4.582-.945a14.162 14.162 0 0 0 4.663-2.042.848.848 0 0 0-.548-1.524 14.148 14.148 0 0 0-4.9 1.4c-1.409.545-3.111 1.023-4.134 2.191a.574.574 0 0 0 .337.92z" transform="translate(-33.587 -67.749)"/>
            <path id="Path_481" data-name="Path 481" class="cls-3" d="M66.822 100.24a21.267 21.267 0 0 0 1.221 4.775c.469 1.491.838 3.166 1.988 4.284a1.045 1.045 0 0 0 1.688-.607c.174-1.594-.608-3.123-1.2-4.569a21.282 21.282 0 0 0-2.1-4.46.891.891 0 0 0-1.597.577z" transform="translate(-35.893 -56.275)"/>
            <path id="Path_482" data-name="Path 482" class="cls-3" d="M83.951 93.4a19.777 19.777 0 0 0 1.334 5.053c.509 1.493.844 3.519 2.077 4.582a1.1 1.1 0 0 0 1.776-.639c.274-1.607-.757-3.377-1.317-4.855a19.774 19.774 0 0 0-2.189-4.745.935.935 0 0 0-1.681.604z" transform="translate(-40.635 -54.368)"/>
            <path id="Path_483" data-name="Path 483" class="cls-3" d="M101.734 86.01a20.33 20.33 0 0 1 .366 2.42 17.487 17.487 0 0 0 .678 2.511c.549 1.711.946 3.217 2.277 4.475a.973.973 0 0 0 1.571-.565c.225-1.814-.429-3.234-1.095-4.9a19.809 19.809 0 0 0-.958-2.157c-.446-.816-1-1.447-1.378-2.31a.777.777 0 0 0-1.461.526z" transform="translate(-45.547 -52.314)"/>
            <path id="Path_484" data-name="Path 484" class="cls-3" d="M120.033 79.836c-1.143.914-.122 3.177.218 4.3.529 1.749.973 3.867 2.358 5.15a1.056 1.056 0 0 0 1.7-.612c.269-2.01-.893-4.118-1.651-5.922-.258-.615-1.447-3.858-2.625-2.916z" transform="translate(-50.476 -50.839)"/>
            <path id="Path_485" data-name="Path 485" class="cls-3" d="M136.5 75.964a19.55 19.55 0 0 0 .976 4.291c.4 1.327.634 2.928 1.755 3.84a1.059 1.059 0 0 0 1.7-.612c.284-1.42-.553-2.8-1.092-4.078a19.6 19.6 0 0 0-1.981-3.93.756.756 0 0 0-1.358.489z" transform="translate(-55.179 -49.594)"/>
            <path id="Path_486" data-name="Path 486" class="cls-3" d="M153.758 66.9c-.135 1.561.676 3.238 1.183 4.693a45.3 45.3 0 0 0 2.12 5.1c.829 1.682 3.61.669 2.755-.991q-1.238-2.4-2.54-4.763c-.769-1.4-1.394-3.3-2.593-4.372a.573.573 0 0 0-.925.333z" transform="translate(-59.952 -47.179)"/>
            <path id="Path_487" data-name="Path 487" class="cls-3" d="M44.664 79.214A37.454 37.454 0 0 1 46.311 67.5c1.118-3.331 3.5-6.886 7.465-6.578 3.8.295 6.329 3.468 8.105 6.521 1.972 3.387 3.537 7.014 5.25 10.535 3.256 6.695 6.635 13.534 11.813 18.981 4.2 4.417 11.3 8.355 17.081 4.237 5.956-4.246 4.768-12.726 3.516-18.89-1.651-8.125-4.283-15.995-6.756-23.894-1.121-3.579-2.557-7.483-1.752-11.279.732-3.45 3.49-6.365 7.231-5.764 3.569.573 6.418 3.455 8.554 6.166a61.81 61.81 0 0 1 6.159 10.2c2.039 3.977 4.046 7.971 6.1 11.939 1.785 3.439 3.735 6.9 6.631 9.535 4.443 4.05 12.831 5.746 16.8.082.579-.826-.6-1.848-1.219-1.02a8.511 8.511 0 0 1-8.229 2.983 13.416 13.416 0 0 1-8.426-5.332 56.655 56.655 0 0 1-5.771-9.833c-1.821-3.56-3.617-7.135-5.473-10.677a50.222 50.222 0 0 0-6.43-9.952 16.275 16.275 0 0 0-7.529-5.339 7.425 7.425 0 0 0-7.831 2.342 11.522 11.522 0 0 0-2.235 8.779c.437 3.86 1.883 7.62 3.032 11.308 1.247 4 2.5 8 3.6 12.042a105.258 105.258 0 0 1 2.745 12.568c.524 3.636.592 7.651-1.526 10.832-2.148 3.227-6.063 4.2-9.692 3.219-3.766-1.02-6.77-3.834-9.224-6.743-5.145-6.1-8.148-13.426-11.545-20.549-2.6-5.448-5.762-13.767-12.92-14.084-7.126-.315-9.013 8.626-9.349 14.061a44.855 44.855 0 0 0 0 5.331c.005.118.178.102.178-.013z" transform="translate(-29.69 -39.807)"/>
            <path id="Path_488" data-name="Path 488" class="cls-3" d="M42.043 94.029c.211 8.337 3.585 16.1 5.813 24.016a41.858 41.858 0 0 1 1.906 12.486c-.111 3.625-1.251 7.6-4.942 9.019a7.845 7.845 0 0 1-6.141-.292 10.977 10.977 0 0 1-4.608-4.906c-.38-.681-1.4-.077-1.176.611a9.94 9.94 0 0 0 8.678 6.751 8.538 8.538 0 0 0 8.415-5.858c1.42-3.78 1.047-8.1.318-11.987a93.622 93.622 0 0 0-4.006-13.638c-1.854-5.285-3.6-10.6-4.128-16.212a.063.063 0 0 0-.129.01z" transform="translate(-26.495 -54.797)"/>
        </g>
    </g>
</svg>
