<svg xmlns="http://www.w3.org/2000/svg" width="236.596" height="236.596">
    <defs>
        <style>
            .cls-3{fill:#fff}.cls-4{fill:#1f2a5a}
        </style>
    </defs>
    <g id="meet_and_qa" transform="translate(-399 -2497.404)">
        <g id="Group_272" data-name="Group 272">
            <g id="Group_247" data-name="Group 247" transform="translate(14 892.404)">
                <path id="Path_235" data-name="Path 235" d="M82.3 0A82.3 82.3 0 1 1 0 82.3 82.3 82.3 0 0 1 82.3 0z" transform="translate(421.202 1641)" style="fill:#ff491a"/>
                <path id="Path_227" data-name="Path 227" d="M82.3 0A82.3 82.3 0 1 1 0 82.3 82.3 82.3 0 0 1 82.3 0z" transform="translate(421 1641)" style="fill:#ff8d1a"/>
            </g>
            <g id="Group_9677" data-name="Group 9677" transform="translate(455.271 2556.231)">
                <path id="Path_211" data-name="Path 211" class="cls-3" d="M43.853 37.178a9.742 9.742 0 0 0-9.053-5.055 9.815 9.815 0 0 0-10.081 8.819 1.522 1.522 0 0 0 1.606 1.664l2.33-.024a1.481 1.481 0 0 0 1.47-1.275c.3-1.683 1.339-3.794 4.729-3.829 2.648-.027 3.721 1.328 4.154 2.164a3.516 3.516 0 0 1-.175 3.678 8.62 8.62 0 0 1-2.309 2.124c-2 1.386-3.573 2.872-3.849 6.971a1.5 1.5 0 0 0 1.5 1.665l2.33-.024a1.688 1.688 0 0 0 1.575-1.381 2.863 2.863 0 0 1 1.666-2.853 13.585 13.585 0 0 0 3.463-3.291 8.8 8.8 0 0 0 .644-9.353z"/>
                <path id="Path_212" data-name="Path 212" class="cls-3" d="M35.84 56.7a3.543 3.543 0 0 0 .071 7.024 3.543 3.543 0 0 0-.071-7.024z"/>
                <path id="Path_213" data-name="Path 213" class="cls-4" d="M64.68 67.533a4.414 4.414 0 1 0 3.984 4.36 4.2 4.2 0 0 0-3.984-4.36z"/>
                <path id="Path_214" data-name="Path 214" class="cls-4" d="M77.411 67.436a4.39 4.39 0 1 0 4.423 4.356 4.4 4.4 0 0 0-4.423-4.356z"/>
                <path id="Path_215" data-name="Path 215" class="cls-4" d="M90.58 67.337A4.39 4.39 0 1 0 95 71.693a4.4 4.4 0 0 0-4.42-4.356z"/>
                <path id="Path_216" data-name="Path 216" d="m98.464 77.409.441-2.75A21.6 21.6 0 0 0 97.7 63.205a22.315 22.315 0 1 0-3.386 21.77l1.75-2.248 8.433.407zm5.79-1.966 8.752 8.308a3 3 0 0 1-2.239 5.049l-12.176-.587a27.257 27.257 0 1 1 4.155-27 26.88 26.88 0 0 1 1.508 14.23z" style="fill-rule:evenodd;fill:#fff"/>
                <path id="Path_217" data-name="Path 217" class="cls-3" d="m23.509 63.817 2.18 1.716-.448 8.281 5.774-6.014 2.778.462A21.54 21.54 0 0 0 45.164 67a21.993 21.993 0 0 0 5.149-2.878 27.348 27.348 0 0 0-.905 6.825q-1.108.558-2.283 1.022a26.881 26.881 0 0 1-14.207 1.562l-8.338 8.684a2.977 2.977 0 0 1-5.026-2.182l.65-12.017a27.33 27.33 0 1 1 44.242-21.355 27.189 27.189 0 0 0-5.71 3.842 22.025 22.025 0 1 0-35.227 13.314z"/>
            </g>
        </g>
    </g>
</svg>
