<svg xmlns="http://www.w3.org/2000/svg" width="236.596" height="236.596">
    <defs>
        <style>
            .cls-4{fill:#fff}
        </style>
    </defs>
    <g id="participate_in_polls" transform="translate(-694 -2497.404)">
        <g id="Group_273" data-name="Group 273">
            <path id="Path_495" data-name="Path 495" d="M82.3 0A82.3 82.3 0 1 1 0 82.3 82.3 82.3 0 0 1 82.3 0z" transform="translate(730 2533.404)" style="fill:#ff9130"/>
            <path id="Path_496" data-name="Path 496" d="M82.3 0A82.3 82.3 0 1 1 0 82.3 82.3 82.3 0 0 1 82.3 0z" transform="translate(730 2533.404)" style="fill:#ffbf4d"/>
            <g id="Group_9678" data-name="Group 9678" transform="translate(773.686 2577.76)">
                <path id="Path_218" data-name="Path 218" d="M76.033 27.8H2.361a2.012 2.012 0 0 0-2.046 2.017v16.949a2.012 2.012 0 0 0 2.046 2.018h73.672a2.012 2.012 0 0 0 2.046-2.018V29.817a2.012 2.012 0 0 0-2.046-2.017zm-60 8.8-5.239 5.488a1.382 1.382 0 0 1-1.146.484 1.627 1.627 0 0 1-1.148-.487l-2.7-2.906A1.519 1.519 0 0 1 5.881 37a1.572 1.572 0 0 1 2.21.081l1.637 1.695 4.093-4.276a1.572 1.572 0 0 1 2.21-.081 1.519 1.519 0 0 1 .001 2.181zm57.955 8.151H21.6V31.835h52.469v12.913z" style="fill:#1f2a5a"/>
                <path id="Path_219" data-name="Path 219" class="cls-4" d="M2.385 21.628h54.492a2.025 2.025 0 0 0 2.07-2.018V2.661a2.025 2.025 0 0 0-2.07-2.017H2.385a2.025 2.025 0 0 0-2.07 2.017v16.868a2.093 2.093 0 0 0 2.07 2.099zM5.152 4.679h49.654v12.913H5.152z"/>
                <path id="Path_220" data-name="Path 220" class="cls-4" d="M43.933 54.956H2.369a2.02 2.02 0 0 0-2.054 2.025v16.933a2.02 2.02 0 0 0 2.054 2.026h41.564a2.02 2.02 0 0 0 2.054-2.025V56.981a2.072 2.072 0 0 0-2.054-2.025zM41.879 71.97H5.113V59.007h36.766z"/>
            </g>
        </g>
    </g>
</svg>
