<svg xmlns="http://www.w3.org/2000/svg" width="236.596" height="236.596">
    <defs>
        <style>
            .cls-4{fill:#1f2a5a}
        </style>
    </defs>
    <g id="win_existing_prizes" transform="translate(-1298 -2497.404)">
        <g id="Group_275" data-name="Group 275">
            <path id="Path_494" data-name="Path 494" d="M82.3 0A82.3 82.3 0 1 1 0 82.3 82.3 82.3 0 0 1 82.3 0z" transform="translate(1334 2533.404)" style="fill:#008c9f"/>
            <path id="Path_498" data-name="Path 498" d="M82.3 0A82.3 82.3 0 1 1 0 82.3 82.3 82.3 0 0 1 82.3 0z" transform="translate(1334 2533.404)" style="fill:#00b5ce"/>
            <g id="Group_9682" data-name="Group 9682" transform="translate(1364.397 2570.29)">
                <path id="Path_225" data-name="Path 225" d="M79.626 36.948H64.935a8.971 8.971 0 0 0 5.754-8.018 7.165 7.165 0 0 0-6.068-6.8c-4.647-.392-8.813 3.486-12.047 11.3-3.219-7.828-7.338-11.727-12.057-11.3a7.165 7.165 0 0 0-6.065 6.8 8.971 8.971 0 0 0 5.754 8.018h-14.69a5.439 5.439 0 0 0-3.836 1.58 5.381 5.381 0 0 0-1.589 3.815v5.583a5.4 5.4 0 0 0 4.025 5.191v27.462a9.464 9.464 0 0 0 2.8 6.7 9.566 9.566 0 0 0 6.737 2.778h37.839a9.566 9.566 0 0 0 6.738-2.778 9.464 9.464 0 0 0 2.8-6.7V53.118a5.4 5.4 0 0 0 4.025-5.191v-5.583a5.381 5.381 0 0 0-1.589-3.815 5.44 5.44 0 0 0-3.84-1.581zM46.354 49.725v-9.18h12.455v9.18zm12.455 3.6V86.46H46.343V53.323zM63.952 25.7h.329a3.556 3.556 0 0 1 2.8 3.309c.065 2.5-3.074 5.626-11.826 7.421 2.5-6.8 5.631-10.73 8.683-10.73zm-25.884 3.323a3.559 3.559 0 0 1 2.8-3.309h.332c3.038 0 6.188 3.928 8.68 10.749-8.738-1.813-11.88-4.943-11.812-7.44zm-14.361 13.31a1.794 1.794 0 0 1 .53-1.272 1.813 1.813 0 0 1 1.279-.527h17.21v9.18h-17.21a1.813 1.813 0 0 1-1.279-.527 1.794 1.794 0 0 1-.53-1.272zm4.025 38.246V53.323h14.994V86.46h-9.077a5.932 5.932 0 0 1-4.182-1.722 5.869 5.869 0 0 1-1.734-4.159zm43.76 5.881h-9.077V53.323h14.994v27.256a5.869 5.869 0 0 1-1.734 4.159 5.933 5.933 0 0 1-4.183 1.722zm9.942-38.533A1.794 1.794 0 0 1 80.9 49.2a1.813 1.813 0 0 1-1.279.527H62.415v-9.18h17.211a1.813 1.813 0 0 1 1.279.527 1.794 1.794 0 0 1 .53 1.272z" style="fill:#fff"/>
                <rect id="Rectangle_41" data-name="Rectangle 41" class="cls-4" width="4.854" height="19.416" rx="2.427" transform="rotate(-53.58 18.694 8.69)"/>
                <rect id="Rectangle_42" data-name="Rectangle 42" class="cls-4" width="4.854" height="19.415" rx="2.427" transform="rotate(-126.413 51.559 -7.145)"/>
                <rect id="Rectangle_43" data-name="Rectangle 43" class="cls-4" width="4.854" height="14.562" rx="2.427" transform="rotate(-153 43.02 -2.242)"/>
                <rect id="Rectangle_44" data-name="Rectangle 44" class="cls-4" width="4.854" height="14.562" rx="2.427" transform="rotate(-26.997 13.351 -30.766)"/>
            </g>
        </g>
    </g>
</svg>
